0
SECTION
2
ENTITIES
0
3DFACE
8
A2
10
-4.3961
20
2.2427
30
-0.3792
11
-4.2999
21
2.2702
31
-0.3797
12
-4.2724
22
2.1740
32
-0.4201
13
-4.3686
23
2.1465
33
-0.4196
0
3DFACE
8
A2
10
-4.2999
20
2.2702
30
-0.3797
11
-4.2038
21
2.2977
31
-0.3804
12
-4.1763
22
2.2016
32
-0.4208
13
-4.2724
23
2.1740
33
-0.4201
0
3DFACE
8
A2
10
-4.2038
20
2.2977
30
-0.3804
11
-4.1077
21
2.3252
31
-0.3813
12
-4.0801
22
2.2291
32
-0.4217
13
-4.1763
23
2.2016
33
-0.4208
0
3DFACE
8
A2
10
-4.1077
20
2.3252
30
-0.3813
11
-4.0115
21
2.3527
31
-0.3822
12
-3.9840
22
2.2566
32
-0.4226
13
-4.0801
23
2.2291
33
-0.4217
0
3DFACE
8
A2
10
-4.0115
20
2.3527
30
-0.3822
11
-3.9154
21
2.3802
31
-0.3831
12
-3.8879
22
2.2841
32
-0.4235
13
-3.9840
23
2.2566
33
-0.4226
0
3DFACE
8
A2
10
-3.9154
20
2.3802
30
-0.3831
11
-3.8192
21
2.4077
31
-0.3840
12
-3.7917
22
2.3116
32
-0.4259
13
-3.8879
23
2.2841
33
-0.4235
0
3DFACE
8
A2
10
-3.8192
20
2.4077
30
-0.3840
11
-3.7231
21
2.4353
31
-0.3849
12
-3.6956
22
2.3391
32
-0.4280
13
-3.7917
23
2.3116
33
-0.4259
0
3DFACE
8
A2
10
-3.7231
20
2.4353
30
-0.3849
11
-3.6270
21
2.4628
31
-0.3858
12
-3.5994
22
2.3666
32
-0.4299
13
-3.6956
23
2.3391
33
-0.4280
0
3DFACE
8
A2
10
-3.6270
20
2.4628
30
-0.3858
11
-3.5308
21
2.4903
31
-0.3867
12
-3.5033
22
2.3941
32
-0.4315
13
-3.5994
23
2.3666
33
-0.4299
0
3DFACE
8
A2
10
-3.5308
20
2.4903
30
-0.3867
11
-3.4347
21
2.5178
31
-0.3876
12
-3.4072
22
2.4217
32
-0.4328
13
-3.5033
23
2.3941
33
-0.4315
0
3DFACE
8
A2
10
-3.4347
20
2.5178
30
-0.3876
11
-3.3385
21
2.5453
31
-0.3885
12
-3.3110
22
2.4492
32
-0.4324
13
-3.4072
23
2.4217
33
-0.4328
0
3DFACE
8
A2
10
-3.3385
20
2.5453
30
-0.3885
11
-3.2424
21
2.5728
31
-0.3894
12
-3.2149
22
2.4767
32
-0.4320
13
-3.3110
23
2.4492
33
-0.4324
0
3DFACE
8
A2
10
-3.2424
20
2.5728
30
-0.3894
11
-3.1462
21
2.6003
31
-0.3915
12
-3.1187
22
2.5042
32
-0.4331
13
-3.2149
23
2.4767
33
-0.4320
0
3DFACE
8
A2
10
-3.1462
20
2.6003
30
-0.3915
11
-3.0501
21
2.6279
31
-0.3933
12
-3.0226
22
2.5317
32
-0.4343
13
-3.1187
23
2.5042
33
-0.4331
0
3DFACE
8
A2
10
-3.0501
20
2.6279
30
-0.3933
11
-2.9540
21
2.6554
31
-0.3949
12
-2.9265
22
2.5592
32
-0.4355
13
-3.0226
23
2.5317
33
-0.4343
0
3DFACE
8
A2
10
-2.9540
20
2.6554
30
-0.3949
11
-2.8578
21
2.6829
31
-0.3964
12
-2.8303
22
2.5867
32
-0.4371
13
-2.9265
23
2.5592
33
-0.4355
0
3DFACE
8
A2
10
-2.8578
20
2.6829
30
-0.3964
11
-2.7617
21
2.7104
31
-0.3980
12
-2.7342
22
2.6143
32
-0.4393
13
-2.8303
23
2.5867
33
-0.4371
0
3DFACE
8
A2
10
-2.7617
20
2.7104
30
-0.3980
11
-2.6655
21
2.7379
31
-0.3986
12
-2.6380
22
2.6418
32
-0.4406
13
-2.7342
23
2.6143
33
-0.4393
0
3DFACE
8
A2
10
-2.6655
20
2.7379
30
-0.3986
11
-2.5694
21
2.7654
31
-0.4007
12
-2.5419
22
2.6693
32
-0.4435
13
-2.6380
23
2.6418
33
-0.4406
0
3DFACE
8
A2
10
-2.5694
20
2.7654
30
-0.4007
11
-2.4733
21
2.7929
31
-0.4030
12
-2.4458
22
2.6968
32
-0.4465
13
-2.5419
23
2.6693
33
-0.4435
0
3DFACE
8
A2
10
-2.4733
20
2.7929
30
-0.4030
11
-2.3771
21
2.8204
31
-0.4053
12
-2.3496
22
2.7243
32
-0.4493
13
-2.4458
23
2.6968
33
-0.4465
0
3DFACE
8
A2
10
-2.3771
20
2.8204
30
-0.4053
11
-2.2810
21
2.8480
31
-0.4071
12
-2.2535
22
2.7518
32
-0.4515
13
-2.3496
23
2.7243
33
-0.4493
0
3DFACE
8
A2
10
-2.2810
20
2.8480
30
-0.4071
11
-2.1848
21
2.8755
31
-0.4082
12
-2.1573
22
2.7793
32
-0.4530
13
-2.2535
23
2.7518
33
-0.4515
0
3DFACE
8
A2
10
-2.1848
20
2.8755
30
-0.4082
11
-2.0887
21
2.9030
31
-0.4080
12
-2.0612
22
2.8068
32
-0.4528
13
-2.1573
23
2.7793
33
-0.4530
0
3DFACE
8
A2
10
-2.0887
20
2.9030
30
-0.4080
11
-1.9926
21
2.9305
31
-0.4078
12
-1.9650
22
2.8344
32
-0.4526
13
-2.0612
23
2.8068
33
-0.4528
0
3DFACE
8
A2
10
-1.9926
20
2.9305
30
-0.4078
11
-1.8964
21
2.9580
31
-0.4070
12
-1.8689
22
2.8619
32
-0.4510
13
-1.9650
23
2.8344
33
-0.4526
0
3DFACE
8
A2
10
-1.8964
20
2.9580
30
-0.4070
11
-1.8003
21
2.9855
31
-0.4067
12
-1.7728
22
2.8894
32
-0.4489
13
-1.8689
23
2.8619
33
-0.4510
0
3DFACE
8
A2
10
-1.8003
20
2.9855
30
-0.4067
11
-1.7041
21
3.0130
31
-0.4069
12
-1.6766
22
2.9169
32
-0.4473
13
-1.7728
23
2.8894
33
-0.4489
0
3DFACE
8
A2
10
-1.7041
20
3.0130
30
-0.4069
11
-1.6080
21
3.0406
31
-0.4072
12
-1.5805
22
2.9444
32
-0.4463
13
-1.6766
23
2.9169
33
-0.4473
0
3DFACE
8
A2
10
-1.6080
20
3.0406
30
-0.4072
11
-1.5119
21
3.0681
31
-0.4087
12
-1.4843
22
2.9719
32
-0.4476
13
-1.5805
23
2.9444
33
-0.4463
0
3DFACE
8
A2
10
-1.5119
20
3.0681
30
-0.4087
11
-1.4157
21
3.0956
31
-0.4115
12
-1.3882
22
2.9994
32
-0.4516
13
-1.4843
23
2.9719
33
-0.4476
0
3DFACE
8
A2
10
-1.4157
20
3.0956
30
-0.4115
11
-1.3196
21
3.1231
31
-0.4141
12
-1.2921
22
3.0270
32
-0.4561
13
-1.3882
23
2.9994
33
-0.4516
0
3DFACE
8
A2
10
-1.3196
20
3.1231
30
-0.4141
11
-1.2234
21
3.1506
31
-0.4156
12
-1.1959
22
3.0545
32
-0.4594
13
-1.2921
23
3.0270
33
-0.4561
0
3DFACE
8
A2
10
-1.2234
20
3.1506
30
-0.4156
11
-1.1273
21
3.1781
31
-0.4170
12
-1.0998
22
3.0820
32
-0.4623
13
-1.1959
23
3.0545
33
-0.4594
0
3DFACE
8
A2
10
-1.1273
20
3.1781
30
-0.4170
11
-1.0312
21
3.2056
31
-0.4171
12
-1.0036
22
3.1095
32
-0.4627
13
-1.0998
23
3.0820
33
-0.4623
0
3DFACE
8
A2
10
-1.0312
20
3.2056
30
-0.4171
11
-0.9350
21
3.2332
31
-0.4158
12
-0.9075
22
3.1370
32
-0.4611
13
-1.0036
23
3.1095
33
-0.4627
0
3DFACE
8
A2
10
-0.9350
20
3.2332
30
-0.4158
11
-0.8389
21
3.2607
31
-0.4146
12
-0.8114
22
3.1645
32
-0.4596
13
-0.9075
23
3.1370
33
-0.4611
0
3DFACE
8
A2
10
-0.8389
20
3.2607
30
-0.4146
11
-0.7427
21
3.2882
31
-0.4144
12
-0.7152
22
3.1920
32
-0.4589
13
-0.8114
23
3.1645
33
-0.4596
0
3DFACE
8
A2
10
-0.7427
20
3.2882
30
-0.4144
11
-0.6466
21
3.3157
31
-0.4144
12
-0.6191
22
3.2196
32
-0.4578
13
-0.7152
23
3.1920
33
-0.4589
0
3DFACE
8
A2
10
-0.6466
20
3.3157
30
-0.4144
11
-0.5505
21
3.3432
31
-0.4144
12
-0.5229
22
3.2471
32
-0.4569
13
-0.6191
23
3.2196
33
-0.4578
0
3DFACE
8
A2
10
-0.5505
20
3.3432
30
-0.4144
11
-0.4543
21
3.3707
31
-0.4153
12
-0.4268
22
3.2746
32
-0.4570
13
-0.5229
23
3.2471
33
-0.4569
0
3DFACE
8
A2
10
-0.4543
20
3.3707
30
-0.4153
11
-0.3582
21
3.3982
31
-0.4162
12
-0.3307
22
3.3021
32
-0.4572
13
-0.4268
23
3.2746
33
-0.4570
0
3DFACE
8
A2
10
-0.3582
20
3.3982
30
-0.4162
11
-0.2620
21
3.4257
31
-0.4171
12
-0.2345
22
3.3296
32
-0.4575
13
-0.3307
23
3.3021
33
-0.4572
0
3DFACE
8
A2
10
-0.2620
20
3.4257
30
-0.4171
11
-0.1659
21
3.4533
31
-0.4180
12
-0.1384
22
3.3571
32
-0.4584
13
-0.2345
23
3.3296
33
-0.4575
0
3DFACE
8
A2
10
-0.1659
20
3.4533
30
-0.4180
11
-0.0698
21
3.4808
31
-0.4189
12
-0.0422
22
3.3846
32
-0.4593
13
-0.1384
23
3.3571
33
-0.4584
0
3DFACE
8
A2
10
-0.0698
20
3.4808
30
-0.4189
11
0.0264
21
3.5083
31
-0.4198
12
0.0539
22
3.4121
32
-0.4602
13
-0.0422
23
3.3846
33
-0.4593
0
3DFACE
8
A2
10
0.0264
20
3.5083
30
-0.4198
11
0.1225
21
3.5358
31
-0.4207
12
0.1500
22
3.4397
32
-0.4611
13
0.0539
23
3.4121
33
-0.4602
0
3DFACE
8
A2
10
0.1225
20
3.5358
30
-0.4207
11
0.2187
21
3.5633
31
-0.4216
12
0.2462
22
3.4672
32
-0.4620
13
0.1500
23
3.4397
33
-0.4611
0
3DFACE
8
A2
10
0.2187
20
3.5633
30
-0.4216
11
0.3148
21
3.5908
31
-0.4225
12
0.3423
22
3.4947
32
-0.4629
13
0.2462
23
3.4672
33
-0.4620
0
3DFACE
8
A2
10
0.3148
20
3.5908
30
-0.4225
11
0.4110
21
3.6183
31
-0.4234
12
0.4385
22
3.5222
32
-0.4638
13
0.3423
23
3.4947
33
-0.4629
0
3DFACE
8
A2
10
0.4110
20
3.6183
30
-0.4234
11
0.5071
21
3.6459
31
-0.4243
12
0.5346
22
3.5497
32
-0.4647
13
0.4385
23
3.5222
33
-0.4638
0
3DFACE
8
A2
10
0.5071
20
3.6459
30
-0.4243
11
0.6032
21
3.6734
31
-0.4252
12
0.6307
22
3.5772
32
-0.4656
13
0.5346
23
3.5497
33
-0.4647
0
3DFACE
8
A2
10
0.6032
20
3.6734
30
-0.4252
11
0.6994
21
3.7009
31
-0.4261
12
0.7269
22
3.6047
32
-0.4665
13
0.6307
23
3.5772
33
-0.4656
0
3DFACE
8
A2
10
0.6994
20
3.7009
30
-0.4261
11
0.7955
21
3.7284
31
-0.4268
12
0.8230
22
3.6323
32
-0.4672
13
0.7269
23
3.6047
33
-0.4665
0
3DFACE
8
A2
10
0.7955
20
3.7284
30
-0.4268
11
0.8917
21
3.7559
31
-0.4273
12
0.9192
22
3.6598
32
-0.4677
13
0.8230
23
3.6323
33
-0.4672
0
3DFACE
8
A2
10
-4.3686
20
2.1465
30
-0.4196
11
-4.2724
21
2.1740
31
-0.4201
12
-4.2449
22
2.0779
32
-0.4767
13
-4.3410
23
2.0504
33
-0.4749
0
3DFACE
8
A2
10
-4.2724
20
2.1740
30
-0.4201
11
-4.1763
21
2.2016
31
-0.4208
12
-4.1488
22
2.1054
32
-0.4784
13
-4.2449
23
2.0779
33
-0.4767
0
3DFACE
8
A2
10
-4.1763
20
2.2016
30
-0.4208
11
-4.0801
21
2.2291
31
-0.4217
12
-4.0526
22
2.1329
32
-0.4800
13
-4.1488
23
2.1054
33
-0.4784
0
3DFACE
8
A2
10
-4.0801
20
2.2291
30
-0.4217
11
-3.9840
21
2.2566
31
-0.4226
12
-3.9565
22
2.1604
32
-0.4813
13
-4.0526
23
2.1329
33
-0.4800
0
3DFACE
8
A2
10
-3.9840
20
2.2566
30
-0.4226
11
-3.8879
21
2.2841
31
-0.4235
12
-3.8603
22
2.1880
32
-0.4810
13
-3.9565
23
2.1604
33
-0.4813
0
3DFACE
8
A2
10
-3.8879
20
2.2841
30
-0.4235
11
-3.7917
21
2.3116
31
-0.4259
12
-3.7642
22
2.2155
32
-0.4821
13
-3.8603
23
2.1880
33
-0.4810
0
3DFACE
8
A2
10
-3.7917
20
2.3116
30
-0.4259
11
-3.6956
21
2.3391
31
-0.4280
12
-3.6681
22
2.2430
32
-0.4829
13
-3.7642
23
2.2155
33
-0.4821
0
3DFACE
8
A2
10
-3.6956
20
2.3391
30
-0.4280
11
-3.5994
21
2.3666
31
-0.4299
12
-3.5719
22
2.2705
32
-0.4835
13
-3.6681
23
2.2430
33
-0.4829
0
3DFACE
8
A2
10
-3.5994
20
2.3666
30
-0.4299
11
-3.5033
21
2.3941
31
-0.4315
12
-3.4758
22
2.2980
32
-0.4839
13
-3.5719
23
2.2705
33
-0.4835
0
3DFACE
8
A2
10
-3.5033
20
2.3941
30
-0.4315
11
-3.4072
21
2.4217
31
-0.4328
12
-3.3796
22
2.3255
32
-0.4843
13
-3.4758
23
2.2980
33
-0.4839
0
3DFACE
8
A2
10
-3.4072
20
2.4217
30
-0.4328
11
-3.3110
21
2.4492
31
-0.4324
12
-3.2835
22
2.3530
32
-0.4834
13
-3.3796
23
2.3255
33
-0.4843
0
3DFACE
8
A2
10
-3.3110
20
2.4492
30
-0.4324
11
-3.2149
21
2.4767
31
-0.4320
12
-3.1874
22
2.3805
32
-0.4827
13
-3.2835
23
2.3530
33
-0.4834
0
3DFACE
8
A2
10
-3.2149
20
2.4767
30
-0.4320
11
-3.1187
21
2.5042
31
-0.4331
12
-3.0912
22
2.4081
32
-0.4838
13
-3.1874
23
2.3805
33
-0.4827
0
3DFACE
8
A2
10
-3.1187
20
2.5042
30
-0.4331
11
-3.0226
21
2.5317
31
-0.4343
12
-2.9951
22
2.4356
32
-0.4854
13
-3.0912
23
2.4081
33
-0.4838
0
3DFACE
8
A2
10
-3.0226
20
2.5317
30
-0.4343
11
-2.9265
21
2.5592
31
-0.4355
12
-2.8989
22
2.4631
32
-0.4874
13
-2.9951
23
2.4356
33
-0.4854
0
3DFACE
8
A2
10
-2.9265
20
2.5592
30
-0.4355
11
-2.8303
21
2.5867
31
-0.4371
12
-2.8028
22
2.4906
32
-0.4899
13
-2.8989
23
2.4631
33
-0.4874
0
3DFACE
8
A2
10
-2.8303
20
2.5867
30
-0.4371
11
-2.7342
21
2.6143
31
-0.4393
12
-2.7067
22
2.5181
32
-0.4931
13
-2.8028
23
2.4906
33
-0.4899
0
3DFACE
8
A2
10
-2.7342
20
2.6143
30
-0.4393
11
-2.6380
21
2.6418
31
-0.4406
12
-2.6105
22
2.5456
32
-0.4954
13
-2.7067
23
2.5181
33
-0.4931
0
3DFACE
8
A2
10
-2.6380
20
2.6418
30
-0.4406
11
-2.5419
21
2.6693
31
-0.4435
12
-2.5144
22
2.5731
32
-0.4991
13
-2.6105
23
2.5456
33
-0.4954
0
3DFACE
8
A2
10
-2.5419
20
2.6693
30
-0.4435
11
-2.4458
21
2.6968
31
-0.4465
12
-2.4182
22
2.6007
32
-0.5025
13
-2.5144
23
2.5731
33
-0.4991
0
3DFACE
8
A2
10
-2.4458
20
2.6968
30
-0.4465
11
-2.3496
21
2.7243
31
-0.4493
12
-2.3221
22
2.6282
32
-0.5055
13
-2.4182
23
2.6007
33
-0.5025
0
3DFACE
8
A2
10
-2.3496
20
2.7243
30
-0.4493
11
-2.2535
21
2.7518
31
-0.4515
12
-2.2260
22
2.6557
32
-0.5082
13
-2.3221
23
2.6282
33
-0.5055
0
3DFACE
8
A2
10
-2.2535
20
2.7518
30
-0.4515
11
-2.1573
21
2.7793
31
-0.4530
12
-2.1298
22
2.6832
32
-0.5103
13
-2.2260
23
2.6557
33
-0.5082
0
3DFACE
8
A2
10
-2.1573
20
2.7793
30
-0.4530
11
-2.0612
21
2.8068
31
-0.4528
12
-2.0337
22
2.7107
32
-0.5107
13
-2.1298
23
2.6832
33
-0.5103
0
3DFACE
8
A2
10
-2.0612
20
2.8068
30
-0.4528
11
-1.9650
21
2.8344
31
-0.4526
12
-1.9375
22
2.7382
32
-0.5110
13
-2.0337
23
2.7107
33
-0.5107
0
3DFACE
8
A2
10
-1.9650
20
2.8344
30
-0.4526
11
-1.8689
21
2.8619
31
-0.4510
12
-1.8414
22
2.7657
32
-0.5091
13
-1.9375
23
2.7382
33
-0.5110
0
3DFACE
8
A2
10
-1.8689
20
2.8619
30
-0.4510
11
-1.7728
21
2.8894
31
-0.4489
12
-1.7453
22
2.7932
32
-0.5054
13
-1.8414
23
2.7657
33
-0.5091
0
3DFACE
8
A2
10
-1.7728
20
2.8894
30
-0.4489
11
-1.6766
21
2.9169
31
-0.4473
12
-1.6491
22
2.8208
32
-0.5013
13
-1.7453
23
2.7932
33
-0.5054
0
3DFACE
8
A2
10
-1.6766
20
2.9169
30
-0.4473
11
-1.5805
21
2.9444
31
-0.4463
12
-1.5530
22
2.8483
32
-0.4988
13
-1.6491
23
2.8208
33
-0.5013
0
3DFACE
8
A2
10
-1.5805
20
2.9444
30
-0.4463
11
-1.4843
21
2.9719
31
-0.4476
12
-1.4568
22
2.8758
32
-0.4999
13
-1.5530
23
2.8483
33
-0.4988
0
3DFACE
8
A2
10
-1.4843
20
2.9719
30
-0.4476
11
-1.3882
21
2.9994
31
-0.4516
12
-1.3607
22
2.9033
32
-0.5046
13
-1.4568
23
2.8758
33
-0.4999
0
3DFACE
8
A2
10
-1.3882
20
2.9994
30
-0.4516
11
-1.2921
21
3.0270
31
-0.4561
12
-1.2646
22
2.9308
32
-0.5109
13
-1.3607
23
2.9033
33
-0.5046
0
3DFACE
8
A2
10
-1.2921
20
3.0270
30
-0.4561
11
-1.1959
21
3.0545
31
-0.4594
12
-1.1684
22
2.9583
32
-0.5167
13
-1.2646
23
2.9308
33
-0.5109
0
3DFACE
8
A2
10
-1.1959
20
3.0545
30
-0.4594
11
-1.0998
21
3.0820
31
-0.4623
12
-1.0723
22
2.9858
32
-0.5212
13
-1.1684
23
2.9583
33
-0.5167
0
3DFACE
8
A2
10
-1.0998
20
3.0820
30
-0.4623
11
-1.0036
21
3.1095
31
-0.4627
12
-0.9761
22
3.0134
32
-0.5219
13
-1.0723
23
2.9858
33
-0.5212
0
3DFACE
8
A2
10
-1.0036
20
3.1095
30
-0.4627
11
-0.9075
21
3.1370
31
-0.4611
12
-0.8800
22
3.0409
32
-0.5202
13
-0.9761
23
3.0134
33
-0.5219
0
3DFACE
8
A2
10
-0.9075
20
3.1370
30
-0.4611
11
-0.8114
21
3.1645
31
-0.4596
12
-0.7838
22
3.0684
32
-0.5184
13
-0.8800
23
3.0409
33
-0.5202
0
3DFACE
8
A2
10
-0.8114
20
3.1645
30
-0.4596
11
-0.7152
21
3.1920
31
-0.4589
12
-0.6877
22
3.0959
32
-0.5174
13
-0.7838
23
3.0684
33
-0.5184
0
3DFACE
8
A2
10
-0.7152
20
3.1920
30
-0.4589
11
-0.6191
21
3.2196
31
-0.4578
12
-0.5916
22
3.1234
32
-0.5157
13
-0.6877
23
3.0959
33
-0.5174
0
3DFACE
8
A2
10
-0.6191
20
3.2196
30
-0.4578
11
-0.5229
21
3.2471
31
-0.4569
12
-0.4954
22
3.1509
32
-0.5142
13
-0.5916
23
3.1234
33
-0.5157
0
3DFACE
8
A2
10
-0.5229
20
3.2471
30
-0.4569
11
-0.4268
21
3.2746
31
-0.4570
12
-0.3993
22
3.1784
32
-0.5136
13
-0.4954
23
3.1509
33
-0.5142
0
3DFACE
8
A2
10
-0.4268
20
3.2746
30
-0.4570
11
-0.3307
21
3.3021
31
-0.4572
12
-0.3031
22
3.2060
32
-0.5131
13
-0.3993
23
3.1784
33
-0.5136
0
3DFACE
8
A2
10
-0.3307
20
3.3021
30
-0.4572
11
-0.2345
21
3.3296
31
-0.4575
12
-0.2070
22
3.2335
32
-0.5128
13
-0.3031
23
3.2060
33
-0.5131
0
3DFACE
8
A2
10
-0.2345
20
3.3296
30
-0.4575
11
-0.1384
21
3.3571
31
-0.4584
12
-0.1109
22
3.2610
32
-0.5131
13
-0.2070
23
3.2335
33
-0.5128
0
3DFACE
8
A2
10
-0.1384
20
3.3571
30
-0.4584
11
-0.0422
21
3.3846
31
-0.4593
12
-0.0147
22
3.2885
32
-0.5136
13
-0.1109
23
3.2610
33
-0.5131
0
3DFACE
8
A2
10
-0.0422
20
3.3846
30
-0.4593
11
0.0539
21
3.4121
31
-0.4602
12
0.0814
22
3.3160
32
-0.5142
13
-0.0147
23
3.2885
33
-0.5136
0
3DFACE
8
A2
10
0.0539
20
3.4121
30
-0.4602
11
0.1500
21
3.4397
31
-0.4611
12
0.1776
22
3.3435
32
-0.5150
13
0.0814
23
3.3160
33
-0.5142
0
3DFACE
8
A2
10
0.1500
20
3.4397
30
-0.4611
11
0.2462
21
3.4672
31
-0.4620
12
0.2737
22
3.3710
32
-0.5159
13
0.1776
23
3.3435
33
-0.5150
0
3DFACE
8
A2
10
0.2462
20
3.4672
30
-0.4620
11
0.3423
21
3.4947
31
-0.4629
12
0.3698
22
3.3985
32
-0.5167
13
0.2737
23
3.3710
33
-0.5159
0
3DFACE
8
A2
10
0.3423
20
3.4947
30
-0.4629
11
0.4385
21
3.5222
31
-0.4638
12
0.4660
22
3.4261
32
-0.5176
13
0.3698
23
3.3985
33
-0.5167
0
3DFACE
8
A2
10
0.4385
20
3.5222
30
-0.4638
11
0.5346
21
3.5497
31
-0.4647
12
0.5621
22
3.4536
32
-0.5185
13
0.4660
23
3.4261
33
-0.5176
0
3DFACE
8
A2
10
0.5346
20
3.5497
30
-0.4647
11
0.6307
21
3.5772
31
-0.4656
12
0.6583
22
3.4811
32
-0.5194
13
0.5621
23
3.4536
33
-0.5185
0
3DFACE
8
A2
10
0.6307
20
3.5772
30
-0.4656
11
0.7269
21
3.6047
31
-0.4665
12
0.7544
22
3.5086
32
-0.5203
13
0.6583
23
3.4811
33
-0.5194
0
3DFACE
8
A2
10
0.7269
20
3.6047
30
-0.4665
11
0.8230
21
3.6323
31
-0.4672
12
0.8505
22
3.5361
32
-0.5210
13
0.7544
23
3.5086
33
-0.5203
0
3DFACE
8
A2
10
0.8230
20
3.6323
30
-0.4672
11
0.9192
21
3.6598
31
-0.4677
12
0.9467
22
3.5636
32
-0.5216
13
0.8505
23
3.5361
33
-0.5210
0
3DFACE
8
A2
10
-4.3410
20
2.0504
30
-0.4749
11
-4.2449
21
2.0779
31
-0.4767
12
-4.2174
22
1.9818
32
-0.5486
13
-4.3135
23
1.9542
33
-0.5474
0
3DFACE
8
A2
10
-4.2449
20
2.0779
30
-0.4767
11
-4.1488
21
2.1054
31
-0.4784
12
-4.1213
22
2.0093
32
-0.5495
13
-4.2174
23
1.9818
33
-0.5486
0
3DFACE
8
A2
10
-4.1488
20
2.1054
30
-0.4784
11
-4.0526
21
2.1329
31
-0.4800
12
-4.0251
22
2.0368
32
-0.5501
13
-4.1213
23
2.0093
33
-0.5495
0
3DFACE
8
A2
10
-4.0526
20
2.1329
30
-0.4800
11
-3.9565
21
2.1604
31
-0.4813
12
-3.9290
22
2.0643
32
-0.5505
13
-4.0251
23
2.0368
33
-0.5501
0
3DFACE
8
A2
10
-3.9565
20
2.1604
30
-0.4813
11
-3.8603
21
2.1880
31
-0.4810
12
-3.8328
22
2.0918
32
-0.5491
13
-3.9290
23
2.0643
33
-0.5505
0
3DFACE
8
A2
10
-3.8603
20
2.1880
30
-0.4810
11
-3.7642
21
2.2155
31
-0.4821
12
-3.7367
22
2.1193
32
-0.5492
13
-3.8328
23
2.0918
33
-0.5491
0
3DFACE
8
A2
10
-3.7642
20
2.2155
30
-0.4821
11
-3.6681
21
2.2430
31
-0.4829
12
-3.6406
22
2.1468
32
-0.5491
13
-3.7367
23
2.1193
33
-0.5492
0
3DFACE
8
A2
10
-3.6681
20
2.2430
30
-0.4829
11
-3.5719
21
2.2705
31
-0.4835
12
-3.5444
22
2.1744
32
-0.5487
13
-3.6406
23
2.1468
33
-0.5491
0
3DFACE
8
A2
10
-3.5719
20
2.2705
30
-0.4835
11
-3.4758
21
2.2980
31
-0.4839
12
-3.4483
22
2.2019
32
-0.5483
13
-3.5444
23
2.1744
33
-0.5487
0
3DFACE
8
A2
10
-3.4758
20
2.2980
30
-0.4839
11
-3.3796
21
2.3255
31
-0.4843
12
-3.3521
22
2.2294
32
-0.5483
13
-3.4483
23
2.2019
33
-0.5483
0
3DFACE
8
A2
10
-3.3796
20
2.3255
30
-0.4843
11
-3.2835
21
2.3530
31
-0.4834
12
-3.2560
22
2.2569
32
-0.5471
13
-3.3521
23
2.2294
33
-0.5483
0
3DFACE
8
A2
10
-3.2835
20
2.3530
30
-0.4834
11
-3.1874
21
2.3805
31
-0.4827
12
-3.1598
22
2.2844
32
-0.5464
13
-3.2560
23
2.2569
33
-0.5471
0
3DFACE
8
A2
10
-3.1874
20
2.3805
30
-0.4827
11
-3.0912
21
2.4081
31
-0.4838
12
-3.0637
22
2.3119
32
-0.5478
13
-3.1598
23
2.2844
33
-0.5464
0
3DFACE
8
A2
10
-3.0912
20
2.4081
30
-0.4838
11
-2.9951
21
2.4356
31
-0.4854
12
-2.9676
22
2.3394
32
-0.5500
13
-3.0637
23
2.3119
33
-0.5478
0
3DFACE
8
A2
10
-2.9951
20
2.4356
30
-0.4854
11
-2.8989
21
2.4631
31
-0.4874
12
-2.8714
22
2.3669
32
-0.5527
13
-2.9676
23
2.3394
33
-0.5500
0
3DFACE
8
A2
10
-2.8989
20
2.4631
30
-0.4874
11
-2.8028
21
2.4906
31
-0.4899
12
-2.7753
22
2.3945
32
-0.5559
13
-2.8714
23
2.3669
33
-0.5527
0
3DFACE
8
A2
10
-2.8028
20
2.4906
30
-0.4899
11
-2.7067
21
2.5181
31
-0.4931
12
-2.6791
22
2.4220
32
-0.5598
13
-2.7753
23
2.3945
33
-0.5559
0
3DFACE
8
A2
10
-2.7067
20
2.5181
30
-0.4931
11
-2.6105
21
2.5456
31
-0.4954
12
-2.5830
22
2.4495
32
-0.5629
13
-2.6791
23
2.4220
33
-0.5598
0
3DFACE
8
A2
10
-2.6105
20
2.5456
30
-0.4954
11
-2.5144
21
2.5731
31
-0.4991
12
-2.4869
22
2.4770
32
-0.5671
13
-2.5830
23
2.4495
33
-0.5629
0
3DFACE
8
A2
10
-2.5144
20
2.5731
30
-0.4991
11
-2.4182
21
2.6007
31
-0.5025
12
-2.3907
22
2.5045
32
-0.5708
13
-2.4869
23
2.4770
33
-0.5671
0
3DFACE
8
A2
10
-2.4182
20
2.6007
30
-0.5025
11
-2.3221
21
2.6282
31
-0.5055
12
-2.2946
22
2.5320
32
-0.5742
13
-2.3907
23
2.5045
33
-0.5708
0
3DFACE
8
A2
10
-2.3221
20
2.6282
30
-0.5055
11
-2.2260
21
2.6557
31
-0.5082
12
-2.1984
22
2.5595
32
-0.5773
13
-2.2946
23
2.5320
33
-0.5742
0
3DFACE
8
A2
10
-2.2260
20
2.6557
30
-0.5082
11
-2.1298
21
2.6832
31
-0.5103
12
-2.1023
22
2.5871
32
-0.5800
13
-2.1984
23
2.5595
33
-0.5773
0
3DFACE
8
A2
10
-2.1298
20
2.6832
30
-0.5103
11
-2.0337
21
2.7107
31
-0.5107
12
-2.0062
22
2.6146
32
-0.5812
13
-2.1023
23
2.5871
33
-0.5800
0
3DFACE
8
A2
10
-2.0337
20
2.7107
30
-0.5107
11
-1.9375
21
2.7382
31
-0.5110
12
-1.9100
22
2.6421
32
-0.5823
13
-2.0062
23
2.6146
33
-0.5812
0
3DFACE
8
A2
10
-1.9375
20
2.7382
30
-0.5110
11
-1.8414
21
2.7657
31
-0.5091
12
-1.8139
22
2.6696
32
-0.5807
13
-1.9100
23
2.6421
33
-0.5823
0
3DFACE
8
A2
10
-1.8414
20
2.7657
30
-0.5091
11
-1.7453
21
2.7932
31
-0.5054
12
-1.7177
22
2.6971
32
-0.5762
13
-1.8139
23
2.6696
33
-0.5807
0
3DFACE
8
A2
10
-1.7453
20
2.7932
30
-0.5054
11
-1.6491
21
2.8208
31
-0.5013
12
-1.6216
22
2.7246
32
-0.5696
13
-1.7177
23
2.6971
33
-0.5762
0
3DFACE
8
A2
10
-1.6491
20
2.8208
30
-0.5013
11
-1.5530
21
2.8483
31
-0.4988
12
-1.5255
22
2.7521
32
-0.5656
13
-1.6216
23
2.7246
33
-0.5696
0
3DFACE
8
A2
10
-1.5530
20
2.8483
30
-0.4988
11
-1.4568
21
2.8758
31
-0.4999
12
-1.4293
22
2.7796
32
-0.5663
13
-1.5255
23
2.7521
33
-0.5656
0
3DFACE
8
A2
10
-1.4568
20
2.8758
30
-0.4999
11
-1.3607
21
2.9033
31
-0.5046
12
-1.3332
22
2.8072
32
-0.5715
13
-1.4293
23
2.7796
33
-0.5663
0
3DFACE
8
A2
10
-1.3607
20
2.9033
30
-0.5046
11
-1.2646
21
2.9308
31
-0.5109
12
-1.2370
22
2.8347
32
-0.5792
13
-1.3332
23
2.8072
33
-0.5715
0
3DFACE
8
A2
10
-1.2646
20
2.9308
30
-0.5109
11
-1.1684
21
2.9583
31
-0.5167
12
-1.1409
22
2.8622
32
-0.5876
13
-1.2370
23
2.8347
33
-0.5792
0
3DFACE
8
A2
10
-1.1684
20
2.9583
30
-0.5167
11
-1.0723
21
2.9858
31
-0.5212
12
-1.0448
22
2.8897
32
-0.5934
13
-1.1409
23
2.8622
33
-0.5876
0
3DFACE
8
A2
10
-1.0723
20
2.9858
30
-0.5212
11
-0.9761
21
3.0134
31
-0.5219
12
-0.9486
22
2.9172
32
-0.5947
13
-1.0448
23
2.8897
33
-0.5934
0
3DFACE
8
A2
10
-0.9761
20
3.0134
30
-0.5219
11
-0.8800
21
3.0409
31
-0.5202
12
-0.8525
22
2.9447
32
-0.5930
13
-0.9486
23
2.9172
33
-0.5947
0
3DFACE
8
A2
10
-0.8800
20
3.0409
30
-0.5202
11
-0.7838
21
3.0684
31
-0.5184
12
-0.7563
22
2.9722
32
-0.5910
13
-0.8525
23
2.9447
33
-0.5930
0
3DFACE
8
A2
10
-0.7838
20
3.0684
30
-0.5184
11
-0.6877
21
3.0959
31
-0.5174
12
-0.6602
22
2.9998
32
-0.5898
13
-0.7563
23
2.9722
33
-0.5910
0
3DFACE
8
A2
10
-0.6877
20
3.0959
30
-0.5174
11
-0.5916
21
3.1234
31
-0.5157
12
-0.5641
22
3.0273
32
-0.5878
13
-0.6602
23
2.9998
33
-0.5898
0
3DFACE
8
A2
10
-0.5916
20
3.1234
30
-0.5157
11
-0.4954
21
3.1509
31
-0.5142
12
-0.4679
22
3.0548
32
-0.5856
13
-0.5641
23
3.0273
33
-0.5878
0
3DFACE
8
A2
10
-0.4954
20
3.1509
30
-0.5142
11
-0.3993
21
3.1784
31
-0.5136
12
-0.3718
22
3.0823
32
-0.5843
13
-0.4679
23
3.0548
33
-0.5856
0
3DFACE
8
A2
10
-0.3993
20
3.1784
30
-0.5136
11
-0.3031
21
3.2060
31
-0.5131
12
-0.2756
22
3.1098
32
-0.5831
13
-0.3718
23
3.0823
33
-0.5843
0
3DFACE
8
A2
10
-0.3031
20
3.2060
30
-0.5131
11
-0.2070
21
3.2335
31
-0.5128
12
-0.1795
22
3.1373
32
-0.5821
13
-0.2756
23
3.1098
33
-0.5831
0
3DFACE
8
A2
10
-0.2070
20
3.2335
30
-0.5128
11
-0.1109
21
3.2610
31
-0.5131
12
-0.0834
22
3.1648
32
-0.5818
13
-0.1795
23
3.1373
33
-0.5821
0
3DFACE
8
A2
10
-0.1109
20
3.2610
30
-0.5131
11
-0.0147
21
3.2885
31
-0.5136
12
0.0128
22
3.1924
32
-0.5817
13
-0.0834
23
3.1648
33
-0.5818
0
3DFACE
8
A2
10
-0.0147
20
3.2885
30
-0.5136
11
0.0814
21
3.3160
31
-0.5142
12
0.1089
22
3.2199
32
-0.5819
13
0.0128
23
3.1924
33
-0.5817
0
3DFACE
8
A2
10
0.0814
20
3.3160
30
-0.5142
11
0.1776
21
3.3435
31
-0.5150
12
0.2051
22
3.2474
32
-0.5824
13
0.1089
23
3.2199
33
-0.5819
0
3DFACE
8
A2
10
0.1776
20
3.3435
30
-0.5150
11
0.2737
21
3.3710
31
-0.5159
12
0.3012
22
3.2749
32
-0.5832
13
0.2051
23
3.2474
33
-0.5824
0
3DFACE
8
A2
10
0.2737
20
3.3710
30
-0.5159
11
0.3698
21
3.3985
31
-0.5167
12
0.3974
22
3.3024
32
-0.5841
13
0.3012
23
3.2749
33
-0.5832
0
3DFACE
8
A2
10
0.3698
20
3.3985
30
-0.5167
11
0.4660
21
3.4261
31
-0.5176
12
0.4935
22
3.3299
32
-0.5850
13
0.3974
23
3.3024
33
-0.5841
0
3DFACE
8
A2
10
0.4660
20
3.4261
30
-0.5176
11
0.5621
21
3.4536
31
-0.5185
12
0.5896
22
3.3574
32
-0.5859
13
0.4935
23
3.3299
33
-0.5850
0
3DFACE
8
A2
10
0.5621
20
3.4536
30
-0.5185
11
0.6583
21
3.4811
31
-0.5194
12
0.6858
22
3.3849
32
-0.5868
13
0.5896
23
3.3574
33
-0.5859
0
3DFACE
8
A2
10
0.6583
20
3.4811
30
-0.5194
11
0.7544
21
3.5086
31
-0.5203
12
0.7819
22
3.4125
32
-0.5877
13
0.6858
23
3.3849
33
-0.5868
0
3DFACE
8
A2
10
0.7544
20
3.5086
30
-0.5203
11
0.8505
21
3.5361
31
-0.5210
12
0.8781
22
3.4400
32
-0.5884
13
0.7819
23
3.4125
33
-0.5877
0
3DFACE
8
A2
10
0.8505
20
3.5361
30
-0.5210
11
0.9467
21
3.5636
31
-0.5216
12
0.9742
22
3.4675
32
-0.5889
13
0.8781
23
3.4400
33
-0.5884
0
3DFACE
8
A2
10
-4.3135
20
1.9542
30
-0.5474
11
-4.2174
21
1.9818
31
-0.5486
12
-4.1899
22
1.8856
32
-0.6209
13
-4.2860
23
1.8581
33
-0.6203
0
3DFACE
8
A2
10
-4.2174
20
1.9818
30
-0.5486
11
-4.1213
21
2.0093
31
-0.5495
12
-4.0937
22
1.9131
32
-0.6210
13
-4.1899
23
1.8856
33
-0.6209
0
3DFACE
8
A2
10
-4.1213
20
2.0093
30
-0.5495
11
-4.0251
21
2.0368
31
-0.5501
12
-3.9976
22
1.9406
32
-0.6207
13
-4.0937
23
1.9131
33
-0.6210
0
3DFACE
8
A2
10
-4.0251
20
2.0368
30
-0.5501
11
-3.9290
21
2.0643
31
-0.5505
12
-3.9015
22
1.9682
32
-0.6201
13
-3.9976
23
1.9406
33
-0.6207
0
3DFACE
8
A2
10
-3.9290
20
2.0643
30
-0.5505
11
-3.8328
21
2.0918
31
-0.5491
12
-3.8053
22
1.9957
32
-0.6177
13
-3.9015
23
1.9682
33
-0.6201
0
3DFACE
8
A2
10
-3.8328
20
2.0918
30
-0.5491
11
-3.7367
21
2.1193
31
-0.5492
12
-3.7092
22
2.0232
32
-0.6168
13
-3.8053
23
1.9957
33
-0.6177
0
3DFACE
8
A2
10
-3.7367
20
2.1193
30
-0.5492
11
-3.6406
21
2.1468
31
-0.5491
12
-3.6130
22
2.0507
32
-0.6157
13
-3.7092
23
2.0232
33
-0.6168
0
3DFACE
8
A2
10
-3.6406
20
2.1468
30
-0.5491
11
-3.5444
21
2.1744
31
-0.5487
12
-3.5169
22
2.0782
32
-0.6143
13
-3.6130
23
2.0507
33
-0.6157
0
3DFACE
8
A2
10
-3.5444
20
2.1744
30
-0.5487
11
-3.4483
21
2.2019
31
-0.5483
12
-3.4208
22
2.1057
32
-0.6132
13
-3.5169
23
2.0782
33
-0.6143
0
3DFACE
8
A2
10
-3.4483
20
2.2019
30
-0.5483
11
-3.3521
21
2.2294
31
-0.5483
12
-3.3246
22
2.1332
32
-0.6127
13
-3.4208
23
2.1057
33
-0.6132
0
3DFACE
8
A2
10
-3.3521
20
2.2294
30
-0.5483
11
-3.2560
21
2.2569
31
-0.5471
12
-3.2285
22
2.1608
32
-0.6113
13
-3.3246
23
2.1332
33
-0.6127
0
3DFACE
8
A2
10
-3.2560
20
2.2569
30
-0.5471
11
-3.1598
21
2.2844
31
-0.5464
12
-3.1323
22
2.1883
32
-0.6106
13
-3.2285
23
2.1608
33
-0.6113
0
3DFACE
8
A2
10
-3.1598
20
2.2844
30
-0.5464
11
-3.0637
21
2.3119
31
-0.5478
12
-3.0362
22
2.2158
32
-0.6123
13
-3.1323
23
2.1883
33
-0.6106
0
3DFACE
8
A2
10
-3.0637
20
2.3119
30
-0.5478
11
-2.9676
21
2.3394
31
-0.5500
12
-2.9401
22
2.2433
32
-0.6148
13
-3.0362
23
2.2158
33
-0.6123
0
3DFACE
8
A2
10
-2.9676
20
2.3394
30
-0.5500
11
-2.8714
21
2.3669
31
-0.5527
12
-2.8439
22
2.2708
32
-0.6178
13
-2.9401
23
2.2433
33
-0.6148
0
3DFACE
8
A2
10
-2.8714
20
2.3669
30
-0.5527
11
-2.7753
21
2.3945
31
-0.5559
12
-2.7478
22
2.2983
32
-0.6214
13
-2.8439
23
2.2708
33
-0.6178
0
3DFACE
8
A2
10
-2.7753
20
2.3945
30
-0.5559
11
-2.6791
21
2.4220
31
-0.5598
12
-2.6516
22
2.3258
32
-0.6257
13
-2.7478
23
2.2983
33
-0.6214
0
3DFACE
8
A2
10
-2.6791
20
2.4220
30
-0.5598
11
-2.5830
21
2.4495
31
-0.5629
12
-2.5555
22
2.3533
32
-0.6293
13
-2.6516
23
2.3258
33
-0.6257
0
3DFACE
8
A2
10
-2.5830
20
2.4495
30
-0.5629
11
-2.4869
21
2.4770
31
-0.5671
12
-2.4594
22
2.3809
32
-0.6327
13
-2.5555
23
2.3533
33
-0.6293
0
3DFACE
8
A2
10
-2.4869
20
2.4770
30
-0.5671
11
-2.3907
21
2.5045
31
-0.5708
12
-2.3632
22
2.4084
32
-0.6356
13
-2.4594
23
2.3809
33
-0.6327
0
3DFACE
8
A2
10
-2.3907
20
2.5045
30
-0.5708
11
-2.2946
21
2.5320
31
-0.5742
12
-2.2671
22
2.4359
32
-0.6383
13
-2.3632
23
2.4084
33
-0.6356
0
3DFACE
8
A2
10
-2.2946
20
2.5320
30
-0.5742
11
-2.1984
21
2.5595
31
-0.5773
12
-2.1709
22
2.4634
32
-0.6414
13
-2.2671
23
2.4359
33
-0.6383
0
3DFACE
8
A2
10
-2.1984
20
2.5595
30
-0.5773
11
-2.1023
21
2.5871
31
-0.5800
12
-2.0748
22
2.4909
32
-0.6442
13
-2.1709
23
2.4634
33
-0.6414
0
3DFACE
8
A2
10
-2.1023
20
2.5871
30
-0.5800
11
-2.0062
21
2.6146
31
-0.5812
12
-1.9786
22
2.5184
32
-0.6469
13
-2.0748
23
2.4909
33
-0.6442
0
3DFACE
8
A2
10
-2.0062
20
2.6146
30
-0.5812
11
-1.9100
21
2.6421
31
-0.5823
12
-1.8825
22
2.5459
32
-0.6499
13
-1.9786
23
2.5184
33
-0.6469
0
3DFACE
8
A2
10
-1.9100
20
2.6421
30
-0.5823
11
-1.8139
21
2.6696
31
-0.5807
12
-1.7864
22
2.5735
32
-0.6500
13
-1.8825
23
2.5459
33
-0.6499
0
3DFACE
8
A2
10
-1.8139
20
2.6696
30
-0.5807
11
-1.7177
21
2.6971
31
-0.5762
12
-1.6902
22
2.6010
32
-0.6463
13
-1.7864
23
2.5735
33
-0.6500
0
3DFACE
8
A2
10
-1.7177
20
2.6971
30
-0.5762
11
-1.6216
21
2.7246
31
-0.5696
12
-1.5941
22
2.6285
32
-0.6377
13
-1.6902
23
2.6010
33
-0.6463
0
3DFACE
8
A2
10
-1.6216
20
2.7246
30
-0.5696
11
-1.5255
21
2.7521
31
-0.5656
12
-1.4979
22
2.6560
32
-0.6338
13
-1.5941
23
2.6285
33
-0.6377
0
3DFACE
8
A2
10
-1.5255
20
2.7521
30
-0.5656
11
-1.4293
21
2.7796
31
-0.5663
12
-1.4018
22
2.6835
32
-0.6340
13
-1.4979
23
2.6560
33
-0.6338
0
3DFACE
8
A2
10
-1.4293
20
2.7796
30
-0.5663
11
-1.3332
21
2.8072
31
-0.5715
12
-1.3057
22
2.7110
32
-0.6384
13
-1.4018
23
2.6835
33
-0.6340
0
3DFACE
8
A2
10
-1.3332
20
2.8072
30
-0.5715
11
-1.2370
21
2.8347
31
-0.5792
12
-1.2095
22
2.7385
32
-0.6454
13
-1.3057
23
2.7110
33
-0.6384
0
3DFACE
8
A2
10
-1.2370
20
2.8347
30
-0.5792
11
-1.1409
21
2.8622
31
-0.5876
12
-1.1134
22
2.7660
32
-0.6569
13
-1.2095
23
2.7385
33
-0.6454
0
3DFACE
8
A2
10
-1.1409
20
2.8622
30
-0.5876
11
-1.0448
21
2.8897
31
-0.5934
12
-1.0172
22
2.7936
32
-0.6631
13
-1.1134
23
2.7660
33
-0.6569
0
3DFACE
8
A2
10
-1.0448
20
2.8897
30
-0.5934
11
-0.9486
21
2.9172
31
-0.5947
12
-0.9211
22
2.8211
32
-0.6652
13
-1.0172
23
2.7936
33
-0.6631
0
3DFACE
8
A2
10
-0.9486
20
2.9172
30
-0.5947
11
-0.8525
21
2.9447
31
-0.5930
12
-0.8250
22
2.8486
32
-0.6647
13
-0.9211
23
2.8211
33
-0.6652
0
3DFACE
8
A2
10
-0.8525
20
2.9447
30
-0.5930
11
-0.7563
21
2.9722
31
-0.5910
12
-0.7288
22
2.8761
32
-0.6637
13
-0.8250
23
2.8486
33
-0.6647
0
3DFACE
8
A2
10
-0.7563
20
2.9722
30
-0.5910
11
-0.6602
21
2.9998
31
-0.5898
12
-0.6327
22
2.9036
32
-0.6624
13
-0.7288
23
2.8761
33
-0.6637
0
3DFACE
8
A2
10
-0.6602
20
2.9998
30
-0.5898
11
-0.5641
21
3.0273
31
-0.5878
12
-0.5365
22
2.9311
32
-0.6602
13
-0.6327
23
2.9036
33
-0.6624
0
3DFACE
8
A2
10
-0.5641
20
3.0273
30
-0.5878
11
-0.4679
21
3.0548
31
-0.5856
12
-0.4404
22
2.9586
32
-0.6576
13
-0.5365
23
2.9311
33
-0.6602
0
3DFACE
8
A2
10
-0.4679
20
3.0548
30
-0.5856
11
-0.3718
21
3.0823
31
-0.5843
12
-0.3443
22
2.9862
32
-0.6556
13
-0.4404
23
2.9586
33
-0.6576
0
3DFACE
8
A2
10
-0.3718
20
3.0823
30
-0.5843
11
-0.2756
21
3.1098
31
-0.5831
12
-0.2481
22
3.0137
32
-0.6537
13
-0.3443
23
2.9862
33
-0.6556
0
3DFACE
8
A2
10
-0.2756
20
3.1098
30
-0.5831
11
-0.1795
21
3.1373
31
-0.5821
12
-0.1520
22
3.0412
32
-0.6520
13
-0.2481
23
3.0137
33
-0.6537
0
3DFACE
8
A2
10
-0.1795
20
3.1373
30
-0.5821
11
-0.0834
21
3.1648
31
-0.5818
12
-0.0558
22
3.0687
32
-0.6508
13
-0.1520
23
3.0412
33
-0.6520
0
3DFACE
8
A2
10
-0.0834
20
3.1648
30
-0.5818
11
0.0128
21
3.1924
31
-0.5817
12
0.0403
22
3.0962
32
-0.6501
13
-0.0558
23
3.0687
33
-0.6508
0
3DFACE
8
A2
10
0.0128
20
3.1924
30
-0.5817
11
0.1089
21
3.2199
31
-0.5819
12
0.1364
22
3.1237
32
-0.6498
13
0.0403
23
3.0962
33
-0.6501
0
3DFACE
8
A2
10
0.1089
20
3.2199
30
-0.5819
11
0.2051
21
3.2474
31
-0.5824
12
0.2326
22
3.1512
32
-0.6499
13
0.1364
23
3.1237
33
-0.6498
0
3DFACE
8
A2
10
0.2051
20
3.2474
30
-0.5824
11
0.3012
21
3.2749
31
-0.5832
12
0.3287
22
3.1788
32
-0.6505
13
0.2326
23
3.1512
33
-0.6499
0
3DFACE
8
A2
10
0.3012
20
3.2749
30
-0.5832
11
0.3974
21
3.3024
31
-0.5841
12
0.4249
22
3.2063
32
-0.6514
13
0.3287
23
3.1788
33
-0.6505
0
3DFACE
8
A2
10
0.3974
20
3.3024
30
-0.5841
11
0.4935
21
3.3299
31
-0.5850
12
0.5210
22
3.2338
32
-0.6523
13
0.4249
23
3.2063
33
-0.6514
0
3DFACE
8
A2
10
0.4935
20
3.3299
30
-0.5850
11
0.5896
21
3.3574
31
-0.5859
12
0.6171
22
3.2613
32
-0.6532
13
0.5210
23
3.2338
33
-0.6523
0
3DFACE
8
A2
10
0.5896
20
3.3574
30
-0.5859
11
0.6858
21
3.3849
31
-0.5868
12
0.7133
22
3.2888
32
-0.6541
13
0.6171
23
3.2613
33
-0.6532
0
3DFACE
8
A2
10
0.6858
20
3.3849
30
-0.5868
11
0.7819
21
3.4125
31
-0.5877
12
0.8094
22
3.3163
32
-0.6550
13
0.7133
23
3.2888
33
-0.6541
0
3DFACE
8
A2
10
0.7819
20
3.4125
30
-0.5877
11
0.8781
21
3.4400
31
-0.5884
12
0.9056
22
3.3438
32
-0.6557
13
0.8094
23
3.3163
33
-0.6550
0
3DFACE
8
A2
10
0.8781
20
3.4400
30
-0.5884
11
0.9742
21
3.4675
31
-0.5889
12
1.0017
22
3.3713
32
-0.6562
13
0.9056
23
3.3438
33
-0.6557
0
3DFACE
8
A2
10
-4.2860
20
1.8581
30
-0.6203
11
-4.1899
21
1.8856
31
-0.6209
12
-4.1624
22
1.7895
32
-0.6928
13
-4.2585
23
1.7620
33
-0.6930
0
3DFACE
8
A2
10
-4.1899
20
1.8856
30
-0.6209
11
-4.0937
21
1.9131
31
-0.6210
12
-4.0662
22
1.8170
32
-0.6918
13
-4.1624
23
1.7895
33
-0.6928
0
3DFACE
8
A2
10
-4.0937
20
1.9131
30
-0.6210
11
-3.9976
21
1.9406
31
-0.6207
12
-3.9701
22
1.8445
32
-0.6900
13
-4.0662
23
1.8170
33
-0.6918
0
3DFACE
8
A2
10
-3.9976
20
1.9406
30
-0.6207
11
-3.9015
21
1.9682
31
-0.6201
12
-3.8739
22
1.8720
32
-0.6878
13
-3.9701
23
1.8445
33
-0.6900
0
3DFACE
8
A2
10
-3.9015
20
1.9682
30
-0.6201
11
-3.8053
21
1.9957
31
-0.6177
12
-3.7778
22
1.8995
32
-0.6839
13
-3.8739
23
1.8720
33
-0.6878
0
3DFACE
8
A2
10
-3.8053
20
1.9957
30
-0.6177
11
-3.7092
21
2.0232
31
-0.6168
12
-3.6817
22
1.9270
32
-0.6814
13
-3.7778
23
1.8995
33
-0.6839
0
3DFACE
8
A2
10
-3.7092
20
2.0232
30
-0.6168
11
-3.6130
21
2.0507
31
-0.6157
12
-3.5855
22
1.9546
32
-0.6787
13
-3.6817
23
1.9270
33
-0.6814
0
3DFACE
8
A2
10
-3.6130
20
2.0507
30
-0.6157
11
-3.5169
21
2.0782
31
-0.6143
12
-3.4894
22
1.9821
32
-0.6756
13
-3.5855
23
1.9546
33
-0.6787
0
3DFACE
8
A2
10
-3.5169
20
2.0782
30
-0.6143
11
-3.4208
21
2.1057
31
-0.6132
12
-3.3932
22
2.0096
32
-0.6736
13
-3.4894
23
1.9821
33
-0.6756
0
3DFACE
8
A2
10
-3.4208
20
2.1057
30
-0.6132
11
-3.3246
21
2.1332
31
-0.6127
12
-3.2971
22
2.0371
32
-0.6727
13
-3.3932
23
2.0096
33
-0.6736
0
3DFACE
8
A2
10
-3.3246
20
2.1332
30
-0.6127
11
-3.2285
21
2.1608
31
-0.6113
12
-3.2010
22
2.0646
32
-0.6715
13
-3.2971
23
2.0371
33
-0.6727
0
3DFACE
8
A2
10
-3.2285
20
2.1608
30
-0.6113
11
-3.1323
21
2.1883
31
-0.6106
12
-3.1048
22
2.0921
32
-0.6717
13
-3.2010
23
2.0646
33
-0.6715
0
3DFACE
8
A2
10
-3.1323
20
2.1883
30
-0.6106
11
-3.0362
21
2.2158
31
-0.6123
12
-3.0087
22
2.1196
32
-0.6737
13
-3.1048
23
2.0921
33
-0.6717
0
3DFACE
8
A2
10
-3.0362
20
2.2158
30
-0.6123
11
-2.9401
21
2.2433
31
-0.6148
12
-2.9125
22
2.1472
32
-0.6762
13
-3.0087
23
2.1196
33
-0.6737
0
3DFACE
8
A2
10
-2.9401
20
2.2433
30
-0.6148
11
-2.8439
21
2.2708
31
-0.6178
12
-2.8164
22
2.1747
32
-0.6792
13
-2.9125
23
2.1472
33
-0.6762
0
3DFACE
8
A2
10
-2.8439
20
2.2708
30
-0.6178
11
-2.7478
21
2.2983
31
-0.6214
12
-2.7203
22
2.2022
32
-0.6828
13
-2.8164
23
2.1747
33
-0.6792
0
3DFACE
8
A2
10
-2.7478
20
2.2983
30
-0.6214
11
-2.6516
21
2.3258
31
-0.6257
12
-2.6241
22
2.2297
32
-0.6868
13
-2.7203
23
2.2022
33
-0.6828
0
3DFACE
8
A2
10
-2.6516
20
2.3258
30
-0.6257
11
-2.5555
21
2.3533
31
-0.6293
12
-2.5280
22
2.2572
32
-0.6908
13
-2.6241
23
2.2297
33
-0.6868
0
3DFACE
8
A2
10
-2.5555
20
2.3533
30
-0.6293
11
-2.4594
21
2.3809
31
-0.6327
12
-2.4318
22
2.2847
32
-0.6946
13
-2.5280
23
2.2572
33
-0.6908
0
3DFACE
8
A2
10
-2.4594
20
2.3809
30
-0.6327
11
-2.3632
21
2.4084
31
-0.6356
12
-2.3357
22
2.3122
32
-0.6976
13
-2.4318
23
2.2847
33
-0.6946
0
3DFACE
8
A2
10
-2.3632
20
2.4084
30
-0.6356
11
-2.2671
21
2.4359
31
-0.6383
12
-2.2396
22
2.3397
32
-0.7001
13
-2.3357
23
2.3122
33
-0.6976
0
3DFACE
8
A2
10
-2.2671
20
2.4359
30
-0.6383
11
-2.1709
21
2.4634
31
-0.6414
12
-2.1434
22
2.3673
32
-0.7033
13
-2.2396
23
2.3397
33
-0.7001
0
3DFACE
8
A2
10
-2.1709
20
2.4634
30
-0.6414
11
-2.0748
21
2.4909
31
-0.6442
12
-2.0473
22
2.3948
32
-0.7070
13
-2.1434
23
2.3673
33
-0.7033
0
3DFACE
8
A2
10
-2.0748
20
2.4909
30
-0.6442
11
-1.9786
21
2.5184
31
-0.6469
12
-1.9511
22
2.4223
32
-0.7109
13
-2.0473
23
2.3948
33
-0.7070
0
3DFACE
8
A2
10
-1.9786
20
2.5184
30
-0.6469
11
-1.8825
21
2.5459
31
-0.6499
12
-1.8550
22
2.4498
32
-0.7150
13
-1.9511
23
2.4223
33
-0.7109
0
3DFACE
8
A2
10
-1.8825
20
2.5459
30
-0.6499
11
-1.7864
21
2.5735
31
-0.6500
12
-1.7589
22
2.4773
32
-0.7170
13
-1.8550
23
2.4498
33
-0.7150
0
3DFACE
8
A2
10
-1.7864
20
2.5735
30
-0.6500
11
-1.6902
21
2.6010
31
-0.6463
12
-1.6627
22
2.5048
32
-0.7140
13
-1.7589
23
2.4773
33
-0.7170
0
3DFACE
8
A2
10
-1.6902
20
2.6010
30
-0.6463
11
-1.5941
21
2.6285
31
-0.6377
12
-1.5666
22
2.5323
32
-0.7042
13
-1.6627
23
2.5048
33
-0.7140
0
3DFACE
8
A2
10
-1.5941
20
2.6285
30
-0.6377
11
-1.4979
21
2.6560
31
-0.6338
12
-1.4704
22
2.5599
32
-0.7000
13
-1.5666
23
2.5323
33
-0.7042
0
3DFACE
8
A2
10
-1.4979
20
2.6560
30
-0.6338
11
-1.4018
21
2.6835
31
-0.6340
12
-1.3743
22
2.5874
32
-0.6994
13
-1.4704
23
2.5599
33
-0.7000
0
3DFACE
8
A2
10
-1.4018
20
2.6835
30
-0.6340
11
-1.3057
21
2.7110
31
-0.6384
12
-1.2782
22
2.6149
32
-0.7027
13
-1.3743
23
2.5874
33
-0.6994
0
3DFACE
8
A2
10
-1.3057
20
2.7110
30
-0.6384
11
-1.2095
21
2.7385
31
-0.6454
12
-1.1820
22
2.6424
32
-0.7097
13
-1.2782
23
2.6149
33
-0.7027
0
3DFACE
8
A2
10
-1.2095
20
2.7385
30
-0.6454
11
-1.1134
21
2.7660
31
-0.6569
12
-1.0859
22
2.6699
32
-0.7222
13
-1.1820
23
2.6424
33
-0.7097
0
3DFACE
8
A2
10
-1.1134
20
2.7660
30
-0.6569
11
-1.0172
21
2.7936
31
-0.6631
12
-0.9897
22
2.6974
32
-0.7288
13
-1.0859
23
2.6699
33
-0.7222
0
3DFACE
8
A2
10
-1.0172
20
2.7936
30
-0.6631
11
-0.9211
21
2.8211
31
-0.6652
12
-0.8936
22
2.7249
32
-0.7317
13
-0.9897
23
2.6974
33
-0.7288
0
3DFACE
8
A2
10
-0.9211
20
2.8211
30
-0.6652
11
-0.8250
21
2.8486
31
-0.6647
12
-0.7974
22
2.7524
32
-0.7321
13
-0.8936
23
2.7249
33
-0.7317
0
3DFACE
8
A2
10
-0.8250
20
2.8486
30
-0.6647
11
-0.7288
21
2.8761
31
-0.6637
12
-0.7013
22
2.7800
32
-0.7330
13
-0.7974
23
2.7524
33
-0.7321
0
3DFACE
8
A2
10
-0.7288
20
2.8761
30
-0.6637
11
-0.6327
21
2.9036
31
-0.6624
12
-0.6052
22
2.8075
32
-0.7322
13
-0.7013
23
2.7800
33
-0.7330
0
3DFACE
8
A2
10
-0.6327
20
2.9036
30
-0.6624
11
-0.5365
21
2.9311
31
-0.6602
12
-0.5090
22
2.8350
32
-0.7308
13
-0.6052
23
2.8075
33
-0.7322
0
3DFACE
8
A2
10
-0.5365
20
2.9311
30
-0.6602
11
-0.4404
21
2.9586
31
-0.6576
12
-0.4129
22
2.8625
32
-0.7290
13
-0.5090
23
2.8350
33
-0.7308
0
3DFACE
8
A2
10
-0.4404
20
2.9586
30
-0.6576
11
-0.3443
21
2.9862
31
-0.6556
12
-0.3167
22
2.8900
32
-0.7270
13
-0.4129
23
2.8625
33
-0.7290
0
3DFACE
8
A2
10
-0.3443
20
2.9862
30
-0.6556
11
-0.2481
21
3.0137
31
-0.6537
12
-0.2206
22
2.9175
32
-0.7241
13
-0.3167
23
2.8900
33
-0.7270
0
3DFACE
8
A2
10
-0.2481
20
3.0137
30
-0.6537
11
-0.1520
21
3.0412
31
-0.6520
12
-0.1245
22
2.9450
32
-0.7224
13
-0.2206
23
2.9175
33
-0.7241
0
3DFACE
8
A2
10
-0.1520
20
3.0412
30
-0.6520
11
-0.0558
21
3.0687
31
-0.6508
12
-0.0283
22
2.9726
32
-0.7204
13
-0.1245
23
2.9450
33
-0.7224
0
3DFACE
8
A2
10
-0.0558
20
3.0687
30
-0.6508
11
0.0403
21
3.0962
31
-0.6501
12
0.0678
22
3.0001
32
-0.7189
13
-0.0283
23
2.9726
33
-0.7204
0
3DFACE
8
A2
10
0.0403
20
3.0962
30
-0.6501
11
0.1364
21
3.1237
31
-0.6498
12
0.1640
22
3.0276
32
-0.7179
13
0.0678
23
3.0001
33
-0.7189
0
3DFACE
8
A2
10
0.1364
20
3.1237
30
-0.6498
11
0.2326
21
3.1512
31
-0.6499
12
0.2601
22
3.0551
32
-0.7176
13
0.1640
23
3.0276
33
-0.7179
0
3DFACE
8
A2
10
0.2326
20
3.1512
30
-0.6499
11
0.3287
21
3.1788
31
-0.6505
12
0.3562
22
3.0826
32
-0.7178
13
0.2601
23
3.0551
33
-0.7176
0
3DFACE
8
A2
10
0.3287
20
3.1788
30
-0.6505
11
0.4249
21
3.2063
31
-0.6514
12
0.4524
22
3.1101
32
-0.7187
13
0.3562
23
3.0826
33
-0.7178
0
3DFACE
8
A2
10
0.4249
20
3.2063
30
-0.6514
11
0.5210
21
3.2338
31
-0.6523
12
0.5485
22
3.1376
32
-0.7196
13
0.4524
23
3.1101
33
-0.7187
0
3DFACE
8
A2
10
0.5210
20
3.2338
30
-0.6523
11
0.6171
21
3.2613
31
-0.6532
12
0.6447
22
3.1652
32
-0.7205
13
0.5485
23
3.1376
33
-0.7196
0
3DFACE
8
A2
10
0.6171
20
3.2613
30
-0.6532
11
0.7133
21
3.2888
31
-0.6541
12
0.7408
22
3.1927
32
-0.7214
13
0.6447
23
3.1652
33
-0.7205
0
3DFACE
8
A2
10
0.7133
20
3.2888
30
-0.6541
11
0.8094
21
3.3163
31
-0.6550
12
0.8369
22
3.2202
32
-0.7223
13
0.7408
23
3.1927
33
-0.7214
0
3DFACE
8
A2
10
0.8094
20
3.3163
30
-0.6550
11
0.9056
21
3.3438
31
-0.6557
12
0.9331
22
3.2477
32
-0.7230
13
0.8369
23
3.2202
33
-0.7223
0
3DFACE
8
A2
10
0.9056
20
3.3438
30
-0.6557
11
1.0017
21
3.3713
31
-0.6562
12
1.0292
22
3.2752
32
-0.7235
13
0.9331
23
3.2477
33
-0.7230
0
3DFACE
8
A2
10
-4.2585
20
1.7620
30
-0.6930
11
-4.1624
21
1.7895
31
-0.6928
12
-4.1349
22
1.6933
32
-0.7645
13
-4.2310
23
1.6658
33
-0.7645
0
3DFACE
8
A2
10
-4.1624
20
1.7895
30
-0.6928
11
-4.0662
21
1.8170
31
-0.6918
12
-4.0387
22
1.7208
32
-0.7633
13
-4.1349
23
1.6933
33
-0.7645
0
3DFACE
8
A2
10
-4.0662
20
1.8170
30
-0.6918
11
-3.9701
21
1.8445
31
-0.6900
12
-3.9426
22
1.7484
32
-0.7611
13
-4.0387
23
1.7208
33
-0.7633
0
3DFACE
8
A2
10
-3.9701
20
1.8445
30
-0.6900
11
-3.8739
21
1.8720
31
-0.6878
12
-3.8464
22
1.7759
32
-0.7575
13
-3.9426
23
1.7484
33
-0.7611
0
3DFACE
8
A2
10
-3.8739
20
1.8720
30
-0.6878
11
-3.7778
21
1.8995
31
-0.6839
12
-3.7503
22
1.8034
32
-0.7520
13
-3.8464
23
1.7759
33
-0.7575
0
3DFACE
8
A2
10
-3.7778
20
1.8995
30
-0.6839
11
-3.6817
21
1.9270
31
-0.6814
12
-3.6542
22
1.8309
32
-0.7465
13
-3.7503
23
1.8034
33
-0.7520
0
3DFACE
8
A2
10
-3.6817
20
1.9270
30
-0.6814
11
-3.5855
21
1.9546
31
-0.6787
12
-3.5580
22
1.8584
32
-0.7408
13
-3.6542
23
1.8309
33
-0.7465
0
3DFACE
8
A2
10
-3.5855
20
1.9546
30
-0.6787
11
-3.4894
21
1.9821
31
-0.6756
12
-3.4619
22
1.8859
32
-0.7342
13
-3.5580
23
1.8584
33
-0.7408
0
3DFACE
8
A2
10
-3.4894
20
1.9821
30
-0.6756
11
-3.3932
21
2.0096
31
-0.6736
12
-3.3657
22
1.9134
32
-0.7296
13
-3.4619
23
1.8859
33
-0.7342
0
3DFACE
8
A2
10
-3.3932
20
2.0096
30
-0.6736
11
-3.2971
21
2.0371
31
-0.6727
12
-3.2696
22
1.9410
32
-0.7272
13
-3.3657
23
1.9134
33
-0.7296
0
3DFACE
8
A2
10
-3.2971
20
2.0371
30
-0.6727
11
-3.2010
21
2.0646
31
-0.6715
12
-3.1734
22
1.9685
32
-0.7270
13
-3.2696
23
1.9410
33
-0.7272
0
3DFACE
8
A2
10
-3.2010
20
2.0646
30
-0.6715
11
-3.1048
21
2.0921
31
-0.6717
12
-3.0773
22
1.9960
32
-0.7290
13
-3.1734
23
1.9685
33
-0.7270
0
3DFACE
8
A2
10
-3.1048
20
2.0921
30
-0.6717
11
-3.0087
21
2.1196
31
-0.6737
12
-2.9812
22
2.0235
32
-0.7341
13
-3.0773
23
1.9960
33
-0.7290
0
3DFACE
8
A2
10
-3.0087
20
2.1196
30
-0.6737
11
-2.9125
21
2.1472
31
-0.6762
12
-2.8850
22
2.0510
32
-0.7389
13
-2.9812
23
2.0235
33
-0.7341
0
3DFACE
8
A2
10
-2.9125
20
2.1472
30
-0.6762
11
-2.8164
21
2.1747
31
-0.6792
12
-2.7889
22
2.0785
32
-0.7433
13
-2.8850
23
2.0510
33
-0.7389
0
3DFACE
8
A2
10
-2.8164
20
2.1747
30
-0.6792
11
-2.7203
21
2.2022
31
-0.6828
12
-2.6927
22
2.1060
32
-0.7472
13
-2.7889
23
2.0785
33
-0.7433
0
3DFACE
8
A2
10
-2.7203
20
2.2022
30
-0.6828
11
-2.6241
21
2.2297
31
-0.6868
12
-2.5966
22
2.1336
32
-0.7507
13
-2.6927
23
2.1060
33
-0.7472
0
3DFACE
8
A2
10
-2.6241
20
2.2297
30
-0.6868
11
-2.5280
21
2.2572
31
-0.6908
12
-2.5005
22
2.1611
32
-0.7538
13
-2.5966
23
2.1336
33
-0.7507
0
3DFACE
8
A2
10
-2.5280
20
2.2572
30
-0.6908
11
-2.4318
21
2.2847
31
-0.6946
12
-2.4043
22
2.1886
32
-0.7569
13
-2.5005
23
2.1611
33
-0.7538
0
3DFACE
8
A2
10
-2.4318
20
2.2847
30
-0.6946
11
-2.3357
21
2.3122
31
-0.6976
12
-2.3082
22
2.2161
32
-0.7594
13
-2.4043
23
2.1886
33
-0.7569
0
3DFACE
8
A2
10
-2.3357
20
2.3122
30
-0.6976
11
-2.2396
21
2.3397
31
-0.7001
12
-2.2120
22
2.2436
32
-0.7618
13
-2.3082
23
2.2161
33
-0.7594
0
3DFACE
8
A2
10
-2.2396
20
2.3397
30
-0.7001
11
-2.1434
21
2.3673
31
-0.7033
12
-2.1159
22
2.2711
32
-0.7649
13
-2.2120
23
2.2436
33
-0.7618
0
3DFACE
8
A2
10
-2.1434
20
2.3673
30
-0.7033
11
-2.0473
21
2.3948
31
-0.7070
12
-2.0198
22
2.2986
32
-0.7689
13
-2.1159
23
2.2711
33
-0.7649
0
3DFACE
8
A2
10
-2.0473
20
2.3948
30
-0.7070
11
-1.9511
21
2.4223
31
-0.7109
12
-1.9236
22
2.3261
32
-0.7730
13
-2.0198
23
2.2986
33
-0.7689
0
3DFACE
8
A2
10
-1.9511
20
2.4223
30
-0.7109
11
-1.8550
21
2.4498
31
-0.7150
12
-1.8275
22
2.3537
32
-0.7778
13
-1.9236
23
2.3261
33
-0.7730
0
3DFACE
8
A2
10
-1.8550
20
2.4498
30
-0.7150
11
-1.7589
21
2.4773
31
-0.7170
12
-1.7313
22
2.3812
32
-0.7813
13
-1.8275
23
2.3537
33
-0.7778
0
3DFACE
8
A2
10
-1.7589
20
2.4773
30
-0.7170
11
-1.6627
21
2.5048
31
-0.7140
12
-1.6352
22
2.4087
32
-0.7795
13
-1.7313
23
2.3812
33
-0.7813
0
3DFACE
8
A2
10
-1.6627
20
2.5048
30
-0.7140
11
-1.5666
21
2.5323
31
-0.7042
12
-1.5391
22
2.4362
32
-0.7694
13
-1.6352
23
2.4087
33
-0.7795
0
3DFACE
8
A2
10
-1.5666
20
2.5323
30
-0.7042
11
-1.4704
21
2.5599
31
-0.7000
12
-1.4429
22
2.4637
32
-0.7649
13
-1.5391
23
2.4362
33
-0.7694
0
3DFACE
8
A2
10
-1.4704
20
2.5599
30
-0.7000
11
-1.3743
21
2.5874
31
-0.6994
12
-1.3468
22
2.4912
32
-0.7645
13
-1.4429
23
2.4637
33
-0.7649
0
3DFACE
8
A2
10
-1.3743
20
2.5874
30
-0.6994
11
-1.2782
21
2.6149
31
-0.7027
12
-1.2506
22
2.5187
32
-0.7670
13
-1.3468
23
2.4912
33
-0.7645
0
3DFACE
8
A2
10
-1.2782
20
2.6149
30
-0.7027
11
-1.1820
21
2.6424
31
-0.7097
12
-1.1545
22
2.5463
32
-0.7733
13
-1.2506
23
2.5187
33
-0.7670
0
3DFACE
8
A2
10
-1.1820
20
2.6424
30
-0.7097
11
-1.0859
21
2.6699
31
-0.7222
12
-1.0584
22
2.5738
32
-0.7866
13
-1.1545
23
2.5463
33
-0.7733
0
3DFACE
8
A2
10
-1.0859
20
2.6699
30
-0.7222
11
-0.9897
21
2.6974
31
-0.7288
12
-0.9622
22
2.6013
32
-0.7938
13
-1.0584
23
2.5738
33
-0.7866
0
3DFACE
8
A2
10
-0.9897
20
2.6974
30
-0.7288
11
-0.8936
21
2.7249
31
-0.7317
12
-0.8661
22
2.6288
32
-0.7963
13
-0.9622
23
2.6013
33
-0.7938
0
3DFACE
8
A2
10
-0.8936
20
2.7249
30
-0.7317
11
-0.7974
21
2.7524
31
-0.7321
12
-0.7699
22
2.6563
32
-0.7966
13
-0.8661
23
2.6288
33
-0.7963
0
3DFACE
8
A2
10
-0.7974
20
2.7524
30
-0.7321
11
-0.7013
21
2.7800
31
-0.7330
12
-0.6738
22
2.6838
32
-0.7974
13
-0.7699
23
2.6563
33
-0.7966
0
3DFACE
8
A2
10
-0.7013
20
2.7800
30
-0.7330
11
-0.6052
21
2.8075
31
-0.7322
12
-0.5777
22
2.7113
32
-0.7968
13
-0.6738
23
2.6838
33
-0.7974
0
3DFACE
8
A2
10
-0.6052
20
2.8075
30
-0.7322
11
-0.5090
21
2.8350
31
-0.7308
12
-0.4815
22
2.7388
32
-0.7959
13
-0.5777
23
2.7113
33
-0.7968
0
3DFACE
8
A2
10
-0.5090
20
2.8350
30
-0.7308
11
-0.4129
21
2.8625
31
-0.7290
12
-0.3854
22
2.7664
32
-0.7940
13
-0.4815
23
2.7388
33
-0.7959
0
3DFACE
8
A2
10
-0.4129
20
2.8625
30
-0.7290
11
-0.3167
21
2.8900
31
-0.7270
12
-0.2892
22
2.7939
32
-0.7923
13
-0.3854
23
2.7664
33
-0.7940
0
3DFACE
8
A2
10
-0.3167
20
2.8900
30
-0.7270
11
-0.2206
21
2.9175
31
-0.7241
12
-0.1931
22
2.8214
32
-0.7904
13
-0.2892
23
2.7939
33
-0.7923
0
3DFACE
8
A2
10
-0.2206
20
2.9175
30
-0.7241
11
-0.1245
21
2.9450
31
-0.7224
12
-0.0970
22
2.8489
32
-0.7894
13
-0.1931
23
2.8214
33
-0.7904
0
3DFACE
8
A2
10
-0.1245
20
2.9450
30
-0.7224
11
-0.0283
21
2.9726
31
-0.7204
12
-0.0008
22
2.8764
32
-0.7876
13
-0.0970
23
2.8489
33
-0.7894
0
3DFACE
8
A2
10
-0.0283
20
2.9726
30
-0.7204
11
0.0678
21
3.0001
31
-0.7189
12
0.0953
22
2.9039
32
-0.7867
13
-0.0008
23
2.8764
33
-0.7876
0
3DFACE
8
A2
10
0.0678
20
3.0001
30
-0.7189
11
0.1640
21
3.0276
31
-0.7179
12
0.1915
22
2.9314
32
-0.7860
13
0.0953
23
2.9039
33
-0.7867
0
3DFACE
8
A2
10
0.1640
20
3.0276
30
-0.7179
11
0.2601
21
3.0551
31
-0.7176
12
0.2876
22
2.9590
32
-0.7853
13
0.1915
23
2.9314
33
-0.7860
0
3DFACE
8
A2
10
0.2601
20
3.0551
30
-0.7176
11
0.3562
21
3.0826
31
-0.7178
12
0.3838
22
2.9865
32
-0.7851
13
0.2876
23
2.9590
33
-0.7853
0
3DFACE
8
A2
10
0.3562
20
3.0826
30
-0.7178
11
0.4524
21
3.1101
31
-0.7187
12
0.4799
22
3.0140
32
-0.7860
13
0.3838
23
2.9865
33
-0.7851
0
3DFACE
8
A2
10
0.4524
20
3.1101
30
-0.7187
11
0.5485
21
3.1376
31
-0.7196
12
0.5760
22
3.0415
32
-0.7869
13
0.4799
23
3.0140
33
-0.7860
0
3DFACE
8
A2
10
0.5485
20
3.1376
30
-0.7196
11
0.6447
21
3.1652
31
-0.7205
12
0.6722
22
3.0690
32
-0.7878
13
0.5760
23
3.0415
33
-0.7869
0
3DFACE
8
A2
10
0.6447
20
3.1652
30
-0.7205
11
0.7408
21
3.1927
31
-0.7214
12
0.7683
22
3.0965
32
-0.7887
13
0.6722
23
3.0690
33
-0.7878
0
3DFACE
8
A2
10
0.7408
20
3.1927
30
-0.7214
11
0.8369
21
3.2202
31
-0.7223
12
0.8645
22
3.1240
32
-0.7896
13
0.7683
23
3.0965
33
-0.7887
0
3DFACE
8
A2
10
0.8369
20
3.2202
30
-0.7223
11
0.9331
21
3.2477
31
-0.7230
12
0.9606
22
3.1516
32
-0.7903
13
0.8645
23
3.1240
33
-0.7896
0
3DFACE
8
A2
10
0.9331
20
3.2477
30
-0.7230
11
1.0292
21
3.2752
31
-0.7235
12
1.0567
22
3.1791
32
-0.7909
13
0.9606
23
3.1516
33
-0.7903
0
3DFACE
8
A2
10
-4.2310
20
1.6658
30
-0.7645
11
-4.1349
21
1.6933
31
-0.7645
12
-4.1073
22
1.5972
32
-0.8324
13
-4.2035
23
1.5697
33
-0.8327
0
3DFACE
8
A2
10
-4.1349
20
1.6933
30
-0.7645
11
-4.0387
21
1.7208
31
-0.7633
12
-4.0112
22
1.6247
32
-0.8309
13
-4.1073
23
1.5972
33
-0.8324
0
3DFACE
8
A2
10
-4.0387
20
1.7208
30
-0.7633
11
-3.9426
21
1.7484
31
-0.7611
12
-3.9151
22
1.6522
32
-0.8283
13
-4.0112
23
1.6247
33
-0.8309
0
3DFACE
8
A2
10
-3.9426
20
1.7484
30
-0.7611
11
-3.8464
21
1.7759
31
-0.7575
12
-3.8189
22
1.6797
32
-0.8241
13
-3.9151
23
1.6522
33
-0.8283
0
3DFACE
8
A2
10
-3.8464
20
1.7759
30
-0.7575
11
-3.7503
21
1.8034
31
-0.7520
12
-3.7228
22
1.7072
32
-0.8184
13
-3.8189
23
1.6797
33
-0.8241
0
3DFACE
8
A2
10
-3.7503
20
1.8034
30
-0.7520
11
-3.6542
21
1.8309
31
-0.7465
12
-3.6266
22
1.7348
32
-0.8125
13
-3.7228
23
1.7072
33
-0.8184
0
3DFACE
8
A2
10
-3.6542
20
1.8309
30
-0.7465
11
-3.5580
21
1.8584
31
-0.7408
12
-3.5305
22
1.7623
32
-0.8057
13
-3.6266
23
1.7348
33
-0.8125
0
3DFACE
8
A2
10
-3.5580
20
1.8584
30
-0.7408
11
-3.4619
21
1.8859
31
-0.7342
12
-3.4344
22
1.7898
32
-0.7976
13
-3.5305
23
1.7623
33
-0.8057
0
3DFACE
8
A2
10
-3.4619
20
1.8859
30
-0.7342
11
-3.3657
21
1.9134
31
-0.7296
12
-3.3382
22
1.8173
32
-0.7921
13
-3.4344
23
1.7898
33
-0.7976
0
3DFACE
8
A2
10
-3.3657
20
1.9134
30
-0.7296
11
-3.2696
21
1.9410
31
-0.7272
12
-3.2421
22
1.8448
32
-0.7892
13
-3.3382
23
1.8173
33
-0.7921
0
3DFACE
8
A2
10
-3.2696
20
1.9410
30
-0.7272
11
-3.1734
21
1.9685
31
-0.7270
12
-3.1459
22
1.8723
32
-0.7891
13
-3.2421
23
1.8448
33
-0.7892
0
3DFACE
8
A2
10
-3.1734
20
1.9685
30
-0.7270
11
-3.0773
21
1.9960
31
-0.7290
12
-3.0498
22
1.8998
32
-0.7923
13
-3.1459
23
1.8723
33
-0.7891
0
3DFACE
8
A2
10
-3.0773
20
1.9960
30
-0.7290
11
-2.9812
21
2.0235
31
-0.7341
12
-2.9537
22
1.9274
32
-0.7995
13
-3.0498
23
1.8998
33
-0.7923
0
3DFACE
8
A2
10
-2.9812
20
2.0235
30
-0.7341
11
-2.8850
21
2.0510
31
-0.7389
12
-2.8575
22
1.9549
32
-0.8055
13
-2.9537
23
1.9274
33
-0.7995
0
3DFACE
8
A2
10
-2.8850
20
2.0510
30
-0.7389
11
-2.7889
21
2.0785
31
-0.7433
12
-2.7614
22
1.9824
32
-0.8100
13
-2.8575
23
1.9549
33
-0.8055
0
3DFACE
8
A2
10
-2.7889
20
2.0785
30
-0.7433
11
-2.6927
21
2.1060
31
-0.7472
12
-2.6652
22
2.0099
32
-0.8133
13
-2.7614
23
1.9824
33
-0.8100
0
3DFACE
8
A2
10
-2.6927
20
2.1060
30
-0.7472
11
-2.5966
21
2.1336
31
-0.7507
12
-2.5691
22
2.0374
32
-0.8157
13
-2.6652
23
2.0099
33
-0.8133
0
3DFACE
8
A2
10
-2.5966
20
2.1336
30
-0.7507
11
-2.5005
21
2.1611
31
-0.7538
12
-2.4730
22
2.0649
32
-0.8173
13
-2.5691
23
2.0374
33
-0.8157
0
3DFACE
8
A2
10
-2.5005
20
2.1611
30
-0.7538
11
-2.4043
21
2.1886
31
-0.7569
12
-2.3768
22
2.0924
32
-0.8192
13
-2.4730
23
2.0649
33
-0.8173
0
3DFACE
8
A2
10
-2.4043
20
2.1886
30
-0.7569
11
-2.3082
21
2.2161
31
-0.7594
12
-2.2807
22
2.1200
32
-0.8212
13
-2.3768
23
2.0924
33
-0.8192
0
3DFACE
8
A2
10
-2.3082
20
2.2161
30
-0.7594
11
-2.2120
21
2.2436
31
-0.7618
12
-2.1845
22
2.1475
32
-0.8234
13
-2.2807
23
2.1200
33
-0.8212
0
3DFACE
8
A2
10
-2.2120
20
2.2436
30
-0.7618
11
-2.1159
21
2.2711
31
-0.7649
12
-2.0884
22
2.1750
32
-0.8266
13
-2.1845
23
2.1475
33
-0.8234
0
3DFACE
8
A2
10
-2.1159
20
2.2711
30
-0.7649
11
-2.0198
21
2.2986
31
-0.7689
12
-1.9922
22
2.2025
32
-0.8300
13
-2.0884
23
2.1750
33
-0.8266
0
3DFACE
8
A2
10
-2.0198
20
2.2986
30
-0.7689
11
-1.9236
21
2.3261
31
-0.7730
12
-1.8961
22
2.2300
32
-0.8333
13
-1.9922
23
2.2025
33
-0.8300
0
3DFACE
8
A2
10
-1.9236
20
2.3261
30
-0.7730
11
-1.8275
21
2.3537
31
-0.7778
12
-1.8000
22
2.2575
32
-0.8385
13
-1.8961
23
2.2300
33
-0.8333
0
3DFACE
8
A2
10
-1.8275
20
2.3537
30
-0.7778
11
-1.7313
21
2.3812
31
-0.7813
12
-1.7038
22
2.2850
32
-0.8428
13
-1.8000
23
2.2575
33
-0.8385
0
3DFACE
8
A2
10
-1.7313
20
2.3812
30
-0.7813
11
-1.6352
21
2.4087
31
-0.7795
12
-1.6077
22
2.3125
32
-0.8418
13
-1.7038
23
2.2850
33
-0.8428
0
3DFACE
8
A2
10
-1.6352
20
2.4087
30
-0.7795
11
-1.5391
21
2.4362
31
-0.7694
12
-1.5115
22
2.3401
32
-0.8316
13
-1.6077
23
2.3125
33
-0.8418
0
3DFACE
8
A2
10
-1.5391
20
2.4362
30
-0.7694
11
-1.4429
21
2.4637
31
-0.7649
12
-1.4154
22
2.3676
32
-0.8284
13
-1.5115
23
2.3401
33
-0.8316
0
3DFACE
8
A2
10
-1.4429
20
2.4637
30
-0.7649
11
-1.3468
21
2.4912
31
-0.7645
12
-1.3193
22
2.3951
32
-0.8284
13
-1.4154
23
2.3676
33
-0.8284
0
3DFACE
8
A2
10
-1.3468
20
2.4912
30
-0.7645
11
-1.2506
21
2.5187
31
-0.7670
12
-1.2231
22
2.4226
32
-0.8303
13
-1.3193
23
2.3951
33
-0.8284
0
3DFACE
8
A2
10
-1.2506
20
2.5187
30
-0.7670
11
-1.1545
21
2.5463
31
-0.7733
12
-1.1270
22
2.4501
32
-0.8362
13
-1.2231
23
2.4226
33
-0.8303
0
3DFACE
8
A2
10
-1.1545
20
2.5463
30
-0.7733
11
-1.0584
21
2.5738
31
-0.7866
12
-1.0308
22
2.4776
32
-0.8504
13
-1.1270
23
2.4501
33
-0.8362
0
3DFACE
8
A2
10
-1.0584
20
2.5738
30
-0.7866
11
-0.9622
21
2.6013
31
-0.7938
12
-0.9347
22
2.5051
32
-0.8571
13
-1.0308
23
2.4776
33
-0.8504
0
3DFACE
8
A2
10
-0.9622
20
2.6013
30
-0.7938
11
-0.8661
21
2.6288
31
-0.7963
12
-0.8386
22
2.5327
32
-0.8588
13
-0.9347
23
2.5051
33
-0.8571
0
3DFACE
8
A2
10
-0.8661
20
2.6288
30
-0.7963
11
-0.7699
21
2.6563
31
-0.7966
12
-0.7424
22
2.5602
32
-0.8586
13
-0.8386
23
2.5327
33
-0.8588
0
3DFACE
8
A2
10
-0.7699
20
2.6563
30
-0.7966
11
-0.6738
21
2.6838
31
-0.7974
12
-0.6463
22
2.5877
32
-0.8588
13
-0.7424
23
2.5602
33
-0.8586
0
3DFACE
8
A2
10
-0.6738
20
2.6838
30
-0.7974
11
-0.5777
21
2.7113
31
-0.7968
12
-0.5501
22
2.6152
32
-0.8577
13
-0.6463
23
2.5877
33
-0.8588
0
3DFACE
8
A2
10
-0.5777
20
2.7113
30
-0.7968
11
-0.4815
21
2.7388
31
-0.7959
12
-0.4540
22
2.6427
32
-0.8569
13
-0.5501
23
2.6152
33
-0.8577
0
3DFACE
8
A2
10
-0.4815
20
2.7388
30
-0.7959
11
-0.3854
21
2.7664
31
-0.7940
12
-0.3579
22
2.6702
32
-0.8553
13
-0.4540
23
2.6427
33
-0.8569
0
3DFACE
8
A2
10
-0.3854
20
2.7664
30
-0.7940
11
-0.2892
21
2.7939
31
-0.7923
12
-0.2617
22
2.6977
32
-0.8536
13
-0.3579
23
2.6702
33
-0.8553
0
3DFACE
8
A2
10
-0.2892
20
2.7939
30
-0.7923
11
-0.1931
21
2.8214
31
-0.7904
12
-0.1656
22
2.7252
32
-0.8514
13
-0.2617
23
2.6977
33
-0.8536
0
3DFACE
8
A2
10
-0.1931
20
2.8214
30
-0.7904
11
-0.0970
21
2.8489
31
-0.7894
12
-0.0694
22
2.7528
32
-0.8502
13
-0.1656
23
2.7252
33
-0.8514
0
3DFACE
8
A2
10
-0.0970
20
2.8489
30
-0.7894
11
-0.0008
21
2.8764
31
-0.7876
12
0.0267
22
2.7803
32
-0.8494
13
-0.0694
23
2.7528
33
-0.8502
0
3DFACE
8
A2
10
-0.0008
20
2.8764
30
-0.7876
11
0.0953
21
2.9039
31
-0.7867
12
0.1228
22
2.8078
32
-0.8494
13
0.0267
23
2.7803
33
-0.8494
0
3DFACE
8
A2
10
0.0953
20
2.9039
30
-0.7867
11
0.1915
21
2.9314
31
-0.7860
12
0.2190
22
2.8353
32
-0.8501
13
0.1228
23
2.8078
33
-0.8494
0
3DFACE
8
A2
10
0.1915
20
2.9314
30
-0.7860
11
0.2876
21
2.9590
31
-0.7853
12
0.3151
22
2.8628
32
-0.8511
13
0.2190
23
2.8353
33
-0.8501
0
3DFACE
8
A2
10
0.2876
20
2.9590
30
-0.7853
11
0.3838
21
2.9865
31
-0.7851
12
0.4113
22
2.8903
32
-0.8525
13
0.3151
23
2.8628
33
-0.8511
0
3DFACE
8
A2
10
0.3838
20
2.9865
30
-0.7851
11
0.4799
21
3.0140
31
-0.7860
12
0.5074
22
2.9178
32
-0.8534
13
0.4113
23
2.8903
33
-0.8525
0
3DFACE
8
A2
10
0.4799
20
3.0140
30
-0.7860
11
0.5760
21
3.0415
31
-0.7869
12
0.6035
22
2.9454
32
-0.8543
13
0.5074
23
2.9178
33
-0.8534
0
3DFACE
8
A2
10
0.5760
20
3.0415
30
-0.7869
11
0.6722
21
3.0690
31
-0.7878
12
0.6997
22
2.9729
32
-0.8551
13
0.6035
23
2.9454
33
-0.8543
0
3DFACE
8
A2
10
0.6722
20
3.0690
30
-0.7878
11
0.7683
21
3.0965
31
-0.7887
12
0.7958
22
3.0004
32
-0.8560
13
0.6997
23
2.9729
33
-0.8551
0
3DFACE
8
A2
10
0.7683
20
3.0965
30
-0.7887
11
0.8645
21
3.1240
31
-0.7896
12
0.8920
22
3.0279
32
-0.8569
13
0.7958
23
3.0004
33
-0.8560
0
3DFACE
8
A2
10
0.8645
20
3.1240
30
-0.7896
11
0.9606
21
3.1516
31
-0.7903
12
0.9881
22
3.0554
32
-0.8577
13
0.8920
23
3.0279
33
-0.8569
0
3DFACE
8
A2
10
0.9606
20
3.1516
30
-0.7903
11
1.0567
21
3.1791
31
-0.7909
12
1.0842
22
3.0829
32
-0.8582
13
0.9881
23
3.0554
33
-0.8577
0
3DFACE
8
A2
10
-4.2035
20
1.5697
30
-0.8327
11
-4.1073
21
1.5972
31
-0.8324
12
-4.0798
22
1.5011
32
-0.8985
13
-4.1760
23
1.4735
33
-0.8971
0
3DFACE
8
A2
10
-4.1073
20
1.5972
30
-0.8324
11
-4.0112
21
1.6247
31
-0.8309
12
-3.9837
22
1.5286
32
-0.8987
13
-4.0798
23
1.5011
33
-0.8985
0
3DFACE
8
A2
10
-4.0112
20
1.6247
30
-0.8309
11
-3.9151
21
1.6522
31
-0.8283
12
-3.8875
22
1.5561
32
-0.8977
13
-3.9837
23
1.5286
33
-0.8987
0
3DFACE
8
A2
10
-3.9151
20
1.6522
30
-0.8283
11
-3.8189
21
1.6797
31
-0.8241
12
-3.7914
22
1.5836
32
-0.8945
13
-3.8875
23
1.5561
33
-0.8977
0
3DFACE
8
A2
10
-3.8189
20
1.6797
30
-0.8241
11
-3.7228
21
1.7072
31
-0.8184
12
-3.6953
22
1.6111
32
-0.8893
13
-3.7914
23
1.5836
33
-0.8945
0
3DFACE
8
A2
10
-3.7228
20
1.7072
30
-0.8184
11
-3.6266
21
1.7348
31
-0.8125
12
-3.5991
22
1.6386
32
-0.8822
13
-3.6953
23
1.6111
33
-0.8893
0
3DFACE
8
A2
10
-3.6266
20
1.7348
30
-0.8125
11
-3.5305
21
1.7623
31
-0.8057
12
-3.5030
22
1.6661
32
-0.8738
13
-3.5991
23
1.6386
33
-0.8822
0
3DFACE
8
A2
10
-3.5305
20
1.7623
30
-0.8057
11
-3.4344
21
1.7898
31
-0.7976
12
-3.4068
22
1.6936
32
-0.8637
13
-3.5030
23
1.6661
33
-0.8738
0
3DFACE
8
A2
10
-3.4344
20
1.7898
30
-0.7976
11
-3.3382
21
1.8173
31
-0.7921
12
-3.3107
22
1.7212
32
-0.8564
13
-3.4068
23
1.6936
33
-0.8637
0
3DFACE
8
A2
10
-3.3382
20
1.8173
30
-0.7921
11
-3.2421
21
1.8448
31
-0.7892
12
-3.2146
22
1.7487
32
-0.8521
13
-3.3107
23
1.7212
33
-0.8564
0
3DFACE
8
A2
10
-3.2421
20
1.8448
30
-0.7892
11
-3.1459
21
1.8723
31
-0.7891
12
-3.1184
22
1.7762
32
-0.8512
13
-3.2146
23
1.7487
33
-0.8521
0
3DFACE
8
A2
10
-3.1459
20
1.8723
30
-0.7891
11
-3.0498
21
1.8998
31
-0.7923
12
-3.0223
22
1.8037
32
-0.8545
13
-3.1184
23
1.7762
33
-0.8512
0
3DFACE
8
A2
10
-3.0498
20
1.8998
30
-0.7923
11
-2.9537
21
1.9274
31
-0.7995
12
-2.9261
22
1.8312
32
-0.8623
13
-3.0223
23
1.8037
33
-0.8545
0
3DFACE
8
A2
10
-2.9537
20
1.9274
30
-0.7995
11
-2.8575
21
1.9549
31
-0.8055
12
-2.8300
22
1.8587
32
-0.8687
13
-2.9261
23
1.8312
33
-0.8623
0
3DFACE
8
A2
10
-2.8575
20
1.9549
30
-0.8055
11
-2.7614
21
1.9824
31
-0.8100
12
-2.7339
22
1.8862
32
-0.8735
13
-2.8300
23
1.8587
33
-0.8687
0
3DFACE
8
A2
10
-2.7614
20
1.9824
30
-0.8100
11
-2.6652
21
2.0099
31
-0.8133
12
-2.6377
22
1.9138
32
-0.8771
13
-2.7339
23
1.8862
33
-0.8735
0
3DFACE
8
A2
10
-2.6652
20
2.0099
30
-0.8133
11
-2.5691
21
2.0374
31
-0.8157
12
-2.5416
22
1.9413
32
-0.8794
13
-2.6377
23
1.9138
33
-0.8771
0
3DFACE
8
A2
10
-2.5691
20
2.0374
30
-0.8157
11
-2.4730
21
2.0649
31
-0.8173
12
-2.4454
22
1.9688
32
-0.8805
13
-2.5416
23
1.9413
33
-0.8794
0
3DFACE
8
A2
10
-2.4730
20
2.0649
30
-0.8173
11
-2.3768
21
2.0924
31
-0.8192
12
-2.3493
22
1.9963
32
-0.8820
13
-2.4454
23
1.9688
33
-0.8805
0
3DFACE
8
A2
10
-2.3768
20
2.0924
30
-0.8192
11
-2.2807
21
2.1200
31
-0.8212
12
-2.2532
22
2.0238
32
-0.8836
13
-2.3493
23
1.9963
33
-0.8820
0
3DFACE
8
A2
10
-2.2807
20
2.1200
30
-0.8212
11
-2.1845
21
2.1475
31
-0.8234
12
-2.1570
22
2.0513
32
-0.8853
13
-2.2532
23
2.0238
33
-0.8836
0
3DFACE
8
A2
10
-2.1845
20
2.1475
30
-0.8234
11
-2.0884
21
2.1750
31
-0.8266
12
-2.0609
22
2.0788
32
-0.8877
13
-2.1570
23
2.0513
33
-0.8853
0
3DFACE
8
A2
10
-2.0884
20
2.1750
30
-0.8266
11
-1.9922
21
2.2025
31
-0.8300
12
-1.9647
22
2.1064
32
-0.8898
13
-2.0609
23
2.0788
33
-0.8877
0
3DFACE
8
A2
10
-1.9922
20
2.2025
30
-0.8300
11
-1.8961
21
2.2300
31
-0.8333
12
-1.8686
22
2.1339
32
-0.8920
13
-1.9647
23
2.1064
33
-0.8898
0
3DFACE
8
A2
10
-1.8961
20
2.2300
30
-0.8333
11
-1.8000
21
2.2575
31
-0.8385
12
-1.7725
22
2.1614
32
-0.8973
13
-1.8686
23
2.1339
33
-0.8920
0
3DFACE
8
A2
10
-1.8000
20
2.2575
30
-0.8385
11
-1.7038
21
2.2850
31
-0.8428
12
-1.6763
22
2.1889
32
-0.9017
13
-1.7725
23
2.1614
33
-0.8973
0
3DFACE
8
A2
10
-1.7038
20
2.2850
30
-0.8428
11
-1.6077
21
2.3125
31
-0.8418
12
-1.5802
22
2.2164
32
-0.9010
13
-1.6763
23
2.1889
33
-0.9017
0
3DFACE
8
A2
10
-1.6077
20
2.3125
30
-0.8418
11
-1.5115
21
2.3401
31
-0.8316
12
-1.4840
22
2.2439
32
-0.8917
13
-1.5802
23
2.2164
33
-0.9010
0
3DFACE
8
A2
10
-1.5115
20
2.3401
30
-0.8316
11
-1.4154
21
2.3676
31
-0.8284
12
-1.3879
22
2.2714
32
-0.8907
13
-1.4840
23
2.2439
33
-0.8917
0
3DFACE
8
A2
10
-1.4154
20
2.3676
30
-0.8284
11
-1.3193
21
2.3951
31
-0.8284
12
-1.2918
22
2.2989
32
-0.8910
13
-1.3879
23
2.2714
33
-0.8907
0
3DFACE
8
A2
10
-1.3193
20
2.3951
30
-0.8284
11
-1.2231
21
2.4226
31
-0.8303
12
-1.1956
22
2.3265
32
-0.8928
13
-1.2918
23
2.2989
33
-0.8910
0
3DFACE
8
A2
10
-1.2231
20
2.4226
30
-0.8303
11
-1.1270
21
2.4501
31
-0.8362
12
-1.0995
22
2.3540
32
-0.8987
13
-1.1956
23
2.3265
33
-0.8928
0
3DFACE
8
A2
10
-1.1270
20
2.4501
30
-0.8362
11
-1.0308
21
2.4776
31
-0.8504
12
-1.0033
22
2.3815
32
-0.9129
13
-1.0995
23
2.3540
33
-0.8987
0
3DFACE
8
A2
10
-1.0308
20
2.4776
30
-0.8504
11
-0.9347
21
2.5051
31
-0.8571
12
-0.9072
22
2.4090
32
-0.9182
13
-1.0033
23
2.3815
33
-0.9129
0
3DFACE
8
A2
10
-0.9347
20
2.5051
30
-0.8571
11
-0.8386
21
2.5327
31
-0.8588
12
-0.8110
22
2.4365
32
-0.9187
13
-0.9072
23
2.4090
33
-0.9182
0
3DFACE
8
A2
10
-0.8386
20
2.5327
30
-0.8588
11
-0.7424
21
2.5602
31
-0.8586
12
-0.7149
22
2.4640
32
-0.9178
13
-0.8110
23
2.4365
33
-0.9187
0
3DFACE
8
A2
10
-0.7424
20
2.5602
30
-0.8586
11
-0.6463
21
2.5877
31
-0.8588
12
-0.6188
22
2.4915
32
-0.9172
13
-0.7149
23
2.4640
33
-0.9178
0
3DFACE
8
A2
10
-0.6463
20
2.5877
30
-0.8588
11
-0.5501
21
2.6152
31
-0.8577
12
-0.5226
22
2.5191
32
-0.9156
13
-0.6188
23
2.4915
33
-0.9172
0
3DFACE
8
A2
10
-0.5501
20
2.6152
30
-0.8577
11
-0.4540
21
2.6427
31
-0.8569
12
-0.4265
22
2.5466
32
-0.9142
13
-0.5226
23
2.5191
33
-0.9156
0
3DFACE
8
A2
10
-0.4540
20
2.6427
30
-0.8569
11
-0.3579
21
2.6702
31
-0.8553
12
-0.3303
22
2.5741
32
-0.9129
13
-0.4265
23
2.5466
33
-0.9142
0
3DFACE
8
A2
10
-0.3579
20
2.6702
30
-0.8553
11
-0.2617
21
2.6977
31
-0.8536
12
-0.2342
22
2.6016
32
-0.9118
13
-0.3303
23
2.5741
33
-0.9129
0
3DFACE
8
A2
10
-0.2617
20
2.6977
30
-0.8536
11
-0.1656
21
2.7252
31
-0.8514
12
-0.1381
22
2.6291
32
-0.9099
13
-0.2342
23
2.6016
33
-0.9118
0
3DFACE
8
A2
10
-0.1656
20
2.7252
30
-0.8514
11
-0.0694
21
2.7528
31
-0.8502
12
-0.0419
22
2.6566
32
-0.9088
13
-0.1381
23
2.6291
33
-0.9099
0
3DFACE
8
A2
10
-0.0694
20
2.7528
30
-0.8502
11
0.0267
21
2.7803
31
-0.8494
12
0.0542
22
2.6841
32
-0.9100
13
-0.0419
23
2.6566
33
-0.9088
0
3DFACE
8
A2
10
0.0267
20
2.7803
30
-0.8494
11
0.1228
21
2.8078
31
-0.8494
12
0.1504
22
2.7116
32
-0.9118
13
0.0542
23
2.6841
33
-0.9100
0
3DFACE
8
A2
10
0.1228
20
2.8078
30
-0.8494
11
0.2190
21
2.8353
31
-0.8501
12
0.2465
22
2.7392
32
-0.9138
13
0.1504
23
2.7116
33
-0.9118
0
3DFACE
8
A2
10
0.2190
20
2.8353
30
-0.8501
11
0.3151
21
2.8628
31
-0.8511
12
0.3426
22
2.7667
32
-0.9165
13
0.2465
23
2.7392
33
-0.9138
0
3DFACE
8
A2
10
0.3151
20
2.8628
30
-0.8511
11
0.4113
21
2.8903
31
-0.8525
12
0.4388
22
2.7942
32
-0.9198
13
0.3426
23
2.7667
33
-0.9165
0
3DFACE
8
A2
10
0.4113
20
2.8903
30
-0.8525
11
0.5074
21
2.9178
31
-0.8534
12
0.5349
22
2.8217
32
-0.9207
13
0.4388
23
2.7942
33
-0.9198
0
3DFACE
8
A2
10
0.5074
20
2.9178
30
-0.8534
11
0.6035
21
2.9454
31
-0.8543
12
0.6311
22
2.8492
32
-0.9216
13
0.5349
23
2.8217
33
-0.9207
0
3DFACE
8
A2
10
0.6035
20
2.9454
30
-0.8543
11
0.6997
21
2.9729
31
-0.8551
12
0.7272
22
2.8767
32
-0.9225
13
0.6311
23
2.8492
33
-0.9216
0
3DFACE
8
A2
10
0.6997
20
2.9729
30
-0.8551
11
0.7958
21
3.0004
31
-0.8560
12
0.8233
22
2.9042
32
-0.9234
13
0.7272
23
2.8767
33
-0.9225
0
3DFACE
8
A2
10
0.7958
20
3.0004
30
-0.8560
11
0.8920
21
3.0279
31
-0.8569
12
0.9195
22
2.9318
32
-0.9243
13
0.8233
23
2.9042
33
-0.9234
0
3DFACE
8
A2
10
0.8920
20
3.0279
30
-0.8569
11
0.9881
21
3.0554
31
-0.8577
12
1.0156
22
2.9593
32
-0.9250
13
0.9195
23
2.9318
33
-0.9243
0
3DFACE
8
A2
10
0.9881
20
3.0554
30
-0.8577
11
1.0842
21
3.0829
31
-0.8582
12
1.1118
22
2.9868
32
-0.9255
13
1.0156
23
2.9593
33
-0.9250
0
3DFACE
8
A2
10
-4.1760
20
1.4735
30
-0.8971
11
-4.0798
21
1.5011
31
-0.8985
12
-4.0523
22
1.4049
32
-0.9637
13
-4.1485
23
1.3774
33
-0.9609
0
3DFACE
8
A2
10
-4.0798
20
1.5011
30
-0.8985
11
-3.9837
21
1.5286
31
-0.8987
12
-3.9562
22
1.4324
32
-0.9660
13
-4.0523
23
1.4049
33
-0.9637
0
3DFACE
8
A2
10
-3.9837
20
1.5286
30
-0.8987
11
-3.8875
21
1.5561
31
-0.8977
12
-3.8600
22
1.4599
32
-0.9671
13
-3.9562
23
1.4324
33
-0.9660
0
3DFACE
8
A2
10
-3.8875
20
1.5561
30
-0.8977
11
-3.7914
21
1.5836
31
-0.8945
12
-3.7639
22
1.4875
32
-0.9652
13
-3.8600
23
1.4599
33
-0.9671
0
3DFACE
8
A2
10
-3.7914
20
1.5836
30
-0.8945
11
-3.6953
21
1.6111
31
-0.8893
12
-3.6678
22
1.5150
32
-0.9602
13
-3.7639
23
1.4875
33
-0.9652
0
3DFACE
8
A2
10
-3.6953
20
1.6111
30
-0.8893
11
-3.5991
21
1.6386
31
-0.8822
12
-3.5716
22
1.5425
32
-0.9524
13
-3.6678
23
1.5150
33
-0.9602
0
3DFACE
8
A2
10
-3.5991
20
1.6386
30
-0.8822
11
-3.5030
21
1.6661
31
-0.8738
12
-3.4755
22
1.5700
32
-0.9422
13
-3.5716
23
1.5425
33
-0.9524
0
3DFACE
8
A2
10
-3.5030
20
1.6661
30
-0.8738
11
-3.4068
21
1.6936
31
-0.8637
12
-3.3793
22
1.5975
32
-0.9298
13
-3.4755
23
1.5700
33
-0.9422
0
3DFACE
8
A2
10
-3.4068
20
1.6936
30
-0.8637
11
-3.3107
21
1.7212
31
-0.8564
12
-3.2832
22
1.6250
32
-0.9210
13
-3.3793
23
1.5975
33
-0.9298
0
3DFACE
8
A2
10
-3.3107
20
1.7212
30
-0.8564
11
-3.2146
21
1.7487
31
-0.8521
12
-3.1870
22
1.6525
32
-0.9163
13
-3.2832
23
1.6250
33
-0.9210
0
3DFACE
8
A2
10
-3.2146
20
1.7487
30
-0.8521
11
-3.1184
21
1.7762
31
-0.8512
12
-3.0909
22
1.6800
32
-0.9161
13
-3.1870
23
1.6525
33
-0.9163
0
3DFACE
8
A2
10
-3.1184
20
1.7762
30
-0.8512
11
-3.0223
21
1.8037
31
-0.8545
12
-2.9948
22
1.7076
32
-0.9210
13
-3.0909
23
1.6800
33
-0.9161
0
3DFACE
8
A2
10
-3.0223
20
1.8037
30
-0.8545
11
-2.9261
21
1.8312
31
-0.8623
12
-2.8986
22
1.7351
32
-0.9308
13
-2.9948
23
1.7076
33
-0.9210
0
3DFACE
8
A2
10
-2.9261
20
1.8312
30
-0.8623
11
-2.8300
21
1.8587
31
-0.8687
12
-2.8025
22
1.7626
32
-0.9384
13
-2.8986
23
1.7351
33
-0.9308
0
3DFACE
8
A2
10
-2.8300
20
1.8587
30
-0.8687
11
-2.7339
21
1.8862
31
-0.8735
12
-2.7063
22
1.7901
32
-0.9434
13
-2.8025
23
1.7626
33
-0.9384
0
3DFACE
8
A2
10
-2.7339
20
1.8862
30
-0.8735
11
-2.6377
21
1.9138
31
-0.8771
12
-2.6102
22
1.8176
32
-0.9464
13
-2.7063
23
1.7901
33
-0.9434
0
3DFACE
8
A2
10
-2.6377
20
1.9138
30
-0.8771
11
-2.5416
21
1.9413
31
-0.8794
12
-2.5141
22
1.8451
32
-0.9473
13
-2.6102
23
1.8176
33
-0.9464
0
3DFACE
8
A2
10
-2.5416
20
1.9413
30
-0.8794
11
-2.4454
21
1.9688
31
-0.8805
12
-2.4179
22
1.8726
32
-0.9468
13
-2.5141
23
1.8451
33
-0.9473
0
3DFACE
8
A2
10
-2.4454
20
1.9688
30
-0.8805
11
-2.3493
21
1.9963
31
-0.8820
12
-2.3218
22
1.9002
32
-0.9467
13
-2.4179
23
1.8726
33
-0.9468
0
3DFACE
8
A2
10
-2.3493
20
1.9963
30
-0.8820
11
-2.2532
21
2.0238
31
-0.8836
12
-2.2256
22
1.9277
32
-0.9470
13
-2.3218
23
1.9002
33
-0.9467
0
3DFACE
8
A2
10
-2.2532
20
2.0238
30
-0.8836
11
-2.1570
21
2.0513
31
-0.8853
12
-2.1295
22
1.9552
32
-0.9472
13
-2.2256
23
1.9277
33
-0.9470
0
3DFACE
8
A2
10
-2.1570
20
2.0513
30
-0.8853
11
-2.0609
21
2.0788
31
-0.8877
12
-2.0334
22
1.9827
32
-0.9475
13
-2.1295
23
1.9552
33
-0.9472
0
3DFACE
8
A2
10
-2.0609
20
2.0788
30
-0.8877
11
-1.9647
21
2.1064
31
-0.8898
12
-1.9372
22
2.0102
32
-0.9475
13
-2.0334
23
1.9827
33
-0.9475
0
3DFACE
8
A2
10
-1.9647
20
2.1064
30
-0.8898
11
-1.8686
21
2.1339
31
-0.8920
12
-1.8411
22
2.0377
32
-0.9486
13
-1.9372
23
2.0102
33
-0.9475
0
3DFACE
8
A2
10
-1.8686
20
2.1339
30
-0.8920
11
-1.7725
21
2.1614
31
-0.8973
12
-1.7449
22
2.0652
32
-0.9539
13
-1.8411
23
2.0377
33
-0.9486
0
3DFACE
8
A2
10
-1.7725
20
2.1614
30
-0.8973
11
-1.6763
21
2.1889
31
-0.9017
12
-1.6488
22
2.0928
32
-0.9585
13
-1.7449
23
2.0652
33
-0.9539
0
3DFACE
8
A2
10
-1.6763
20
2.1889
30
-0.9017
11
-1.5802
21
2.2164
31
-0.9010
12
-1.5527
22
2.1203
32
-0.9591
13
-1.6488
23
2.0928
33
-0.9585
0
3DFACE
8
A2
10
-1.5802
20
2.2164
30
-0.9010
11
-1.4840
21
2.2439
31
-0.8917
12
-1.4565
22
2.1478
32
-0.9568
13
-1.5527
23
2.1203
33
-0.9591
0
3DFACE
8
A2
10
-1.4840
20
2.2439
30
-0.8917
11
-1.3879
21
2.2714
31
-0.8907
12
-1.3604
22
2.1753
32
-0.9565
13
-1.4565
23
2.1478
33
-0.9568
0
3DFACE
8
A2
10
-1.3879
20
2.2714
30
-0.8907
11
-1.2918
21
2.2989
31
-0.8910
12
-1.2642
22
2.2028
32
-0.9564
13
-1.3604
23
2.1753
33
-0.9565
0
3DFACE
8
A2
10
-1.2918
20
2.2989
30
-0.8910
11
-1.1956
21
2.3265
31
-0.8928
12
-1.1681
22
2.2303
32
-0.9580
13
-1.2642
23
2.2028
33
-0.9564
0
3DFACE
8
A2
10
-1.1956
20
2.3265
30
-0.8928
11
-1.0995
21
2.3540
31
-0.8987
12
-1.0720
22
2.2578
32
-0.9634
13
-1.1681
23
2.2303
33
-0.9580
0
3DFACE
8
A2
10
-1.0995
20
2.3540
30
-0.8987
11
-1.0033
21
2.3815
31
-0.9129
12
-0.9758
22
2.2853
32
-0.9718
13
-1.0720
23
2.2578
33
-0.9634
0
3DFACE
8
A2
10
-1.0033
20
2.3815
30
-0.9129
11
-0.9072
21
2.4090
31
-0.9182
12
-0.8797
22
2.3129
32
-0.9764
13
-0.9758
23
2.2853
33
-0.9718
0
3DFACE
8
A2
10
-0.9072
20
2.4090
30
-0.9182
11
-0.8110
21
2.4365
31
-0.9187
12
-0.7835
22
2.3404
32
-0.9762
13
-0.8797
23
2.3129
33
-0.9764
0
3DFACE
8
A2
10
-0.8110
20
2.4365
30
-0.9187
11
-0.7149
21
2.4640
31
-0.9178
12
-0.6874
22
2.3679
32
-0.9743
13
-0.7835
23
2.3404
33
-0.9762
0
3DFACE
8
A2
10
-0.7149
20
2.4640
30
-0.9178
11
-0.6188
21
2.4915
31
-0.9172
12
-0.5913
22
2.3954
32
-0.9730
13
-0.6874
23
2.3679
33
-0.9743
0
3DFACE
8
A2
10
-0.6188
20
2.4915
30
-0.9172
11
-0.5226
21
2.5191
31
-0.9156
12
-0.4951
22
2.4229
32
-0.9706
13
-0.5913
23
2.3954
33
-0.9730
0
3DFACE
8
A2
10
-0.5226
20
2.5191
30
-0.9156
11
-0.4265
21
2.5466
31
-0.9142
12
-0.3990
22
2.4504
32
-0.9687
13
-0.4951
23
2.4229
33
-0.9706
0
3DFACE
8
A2
10
-0.4265
20
2.5466
30
-0.9142
11
-0.3303
21
2.5741
31
-0.9129
12
-0.3028
22
2.4779
32
-0.9669
13
-0.3990
23
2.4504
33
-0.9687
0
3DFACE
8
A2
10
-0.3303
20
2.5741
30
-0.9129
11
-0.2342
21
2.6016
31
-0.9118
12
-0.2067
22
2.5055
32
-0.9661
13
-0.3028
23
2.4779
33
-0.9669
0
3DFACE
8
A2
10
-0.2342
20
2.6016
30
-0.9118
11
-0.1381
21
2.6291
31
-0.9099
12
-0.1106
22
2.5330
32
-0.9652
13
-0.2067
23
2.5055
33
-0.9661
0
3DFACE
8
A2
10
-0.1381
20
2.6291
30
-0.9099
11
-0.0419
21
2.6566
31
-0.9088
12
-0.0144
22
2.5605
32
-0.9647
13
-0.1106
23
2.5330
33
-0.9652
0
3DFACE
8
A2
10
-0.0419
20
2.6566
30
-0.9088
11
0.0542
21
2.6841
31
-0.9100
12
0.0817
22
2.5880
32
-0.9687
13
-0.0144
23
2.5605
33
-0.9647
0
3DFACE
8
A2
10
0.0542
20
2.6841
30
-0.9100
11
0.1504
21
2.7116
31
-0.9118
12
0.1779
22
2.6155
32
-0.9732
13
0.0817
23
2.5880
33
-0.9687
0
3DFACE
8
A2
10
0.1504
20
2.7116
30
-0.9118
11
0.2465
21
2.7392
31
-0.9138
12
0.2740
22
2.6430
32
-0.9775
13
0.1779
23
2.6155
33
-0.9732
0
3DFACE
8
A2
10
0.2465
20
2.7392
30
-0.9138
11
0.3426
21
2.7667
31
-0.9165
12
0.3702
22
2.6705
32
-0.9818
13
0.2740
23
2.6430
33
-0.9775
0
3DFACE
8
A2
10
0.3426
20
2.7667
30
-0.9165
11
0.4388
21
2.7942
31
-0.9198
12
0.4663
22
2.6980
32
-0.9871
13
0.3702
23
2.6705
33
-0.9818
0
3DFACE
8
A2
10
0.4388
20
2.7942
30
-0.9198
11
0.5349
21
2.8217
31
-0.9207
12
0.5624
22
2.7256
32
-0.9880
13
0.4663
23
2.6980
33
-0.9871
0
3DFACE
8
A2
10
0.5349
20
2.8217
30
-0.9207
11
0.6311
21
2.8492
31
-0.9216
12
0.6586
22
2.7531
32
-0.9889
13
0.5624
23
2.7256
33
-0.9880
0
3DFACE
8
A2
10
0.6311
20
2.8492
30
-0.9216
11
0.7272
21
2.8767
31
-0.9225
12
0.7547
22
2.7806
32
-0.9898
13
0.6586
23
2.7531
33
-0.9889
0
3DFACE
8
A2
10
0.7272
20
2.8767
30
-0.9225
11
0.8233
21
2.9042
31
-0.9234
12
0.8509
22
2.8081
32
-0.9907
13
0.7547
23
2.7806
33
-0.9898
0
3DFACE
8
A2
10
0.8233
20
2.9042
30
-0.9234
11
0.9195
21
2.9318
31
-0.9243
12
0.9470
22
2.8356
32
-0.9916
13
0.8509
23
2.8081
33
-0.9907
0
3DFACE
8
A2
10
0.9195
20
2.9318
30
-0.9243
11
1.0156
21
2.9593
31
-0.9250
12
1.0431
22
2.8631
32
-0.9923
13
0.9470
23
2.8356
33
-0.9916
0
3DFACE
8
A2
10
1.0156
20
2.9593
30
-0.9250
11
1.1118
21
2.9868
31
-0.9255
12
1.1393
22
2.8906
32
-0.9928
13
1.0431
23
2.8631
33
-0.9923
0
3DFACE
8
A2
10
-4.1485
20
1.3774
30
-0.9609
11
-4.0523
21
1.4049
31
-0.9637
12
-4.0248
22
1.3088
32
-1.0303
13
-4.1209
23
1.2813
33
-1.0259
0
3DFACE
8
A2
10
-4.0523
20
1.4049
30
-0.9637
11
-3.9562
21
1.4324
31
-0.9660
12
-3.9287
22
1.3363
32
-1.0347
13
-4.0248
23
1.3088
33
-1.0303
0
3DFACE
8
A2
10
-3.9562
20
1.4324
30
-0.9660
11
-3.8600
21
1.4599
31
-0.9671
12
-3.8325
22
1.3638
32
-1.0384
13
-3.9287
23
1.3363
33
-1.0347
0
3DFACE
8
A2
10
-3.8600
20
1.4599
30
-0.9671
11
-3.7639
21
1.4875
31
-0.9652
12
-3.7364
22
1.3913
32
-1.0388
13
-3.8325
23
1.3638
33
-1.0384
0
3DFACE
8
A2
10
-3.7639
20
1.4875
30
-0.9652
11
-3.6678
21
1.5150
31
-0.9602
12
-3.6402
22
1.4188
32
-1.0356
13
-3.7364
23
1.3913
33
-1.0388
0
3DFACE
8
A2
10
-3.6678
20
1.5150
30
-0.9602
11
-3.5716
21
1.5425
31
-0.9524
12
-3.5441
22
1.4463
32
-1.0293
13
-3.6402
23
1.4188
33
-1.0356
0
3DFACE
8
A2
10
-3.5716
20
1.5425
30
-0.9524
11
-3.4755
21
1.5700
31
-0.9422
12
-3.4480
22
1.4739
32
-1.0199
13
-3.5441
23
1.4463
33
-1.0293
0
3DFACE
8
A2
10
-3.4755
20
1.5700
30
-0.9422
11
-3.3793
21
1.5975
31
-0.9298
12
-3.3518
22
1.5014
32
-1.0075
13
-3.4480
23
1.4739
33
-1.0199
0
3DFACE
8
A2
10
-3.3793
20
1.5975
30
-0.9298
11
-3.2832
21
1.6250
31
-0.9210
12
-3.2557
22
1.5289
32
-0.9977
13
-3.3518
23
1.5014
33
-1.0075
0
3DFACE
8
A2
10
-3.2832
20
1.6250
30
-0.9210
11
-3.1870
21
1.6525
31
-0.9163
12
-3.1595
22
1.5564
32
-0.9908
13
-3.2557
23
1.5289
33
-0.9977
0
3DFACE
8
A2
10
-3.1870
20
1.6525
30
-0.9163
11
-3.0909
21
1.6800
31
-0.9161
12
-3.0634
22
1.5839
32
-0.9875
13
-3.1595
23
1.5564
33
-0.9908
0
3DFACE
8
A2
10
-3.0909
20
1.6800
30
-0.9161
11
-2.9948
21
1.7076
31
-0.9210
12
-2.9673
22
1.6114
32
-0.9885
13
-3.0634
23
1.5839
33
-0.9875
0
3DFACE
8
A2
10
-2.9948
20
1.7076
30
-0.9210
11
-2.8986
21
1.7351
31
-0.9308
12
-2.8711
22
1.6389
32
-0.9950
13
-2.9673
23
1.6114
33
-0.9885
0
3DFACE
8
A2
10
-2.8986
20
1.7351
30
-0.9308
11
-2.8025
21
1.7626
31
-0.9384
12
-2.7750
22
1.6664
32
-1.0028
13
-2.8711
23
1.6389
33
-0.9950
0
3DFACE
8
A2
10
-2.8025
20
1.7626
30
-0.9384
11
-2.7063
21
1.7901
31
-0.9434
12
-2.6788
22
1.6940
32
-1.0063
13
-2.7750
23
1.6664
33
-1.0028
0
3DFACE
8
A2
10
-2.7063
20
1.7901
30
-0.9434
11
-2.6102
21
1.8176
31
-0.9464
12
-2.5827
22
1.7215
32
-1.0107
13
-2.6788
23
1.6940
33
-1.0063
0
3DFACE
8
A2
10
-2.6102
20
1.8176
30
-0.9464
11
-2.5141
21
1.8451
31
-0.9473
12
-2.4866
22
1.7490
32
-1.0121
13
-2.5827
23
1.7215
33
-1.0107
0
3DFACE
8
A2
10
-2.5141
20
1.8451
30
-0.9473
11
-2.4179
21
1.8726
31
-0.9468
12
-2.3904
22
1.7765
32
-1.0125
13
-2.4866
23
1.7490
33
-1.0121
0
3DFACE
8
A2
10
-2.4179
20
1.8726
30
-0.9468
11
-2.3218
21
1.9002
31
-0.9467
12
-2.2943
22
1.8040
32
-1.0108
13
-2.3904
23
1.7765
33
-1.0125
0
3DFACE
8
A2
10
-2.3218
20
1.9002
30
-0.9467
11
-2.2256
21
1.9277
31
-0.9470
12
-2.1981
22
1.8315
32
-1.0122
13
-2.2943
23
1.8040
33
-1.0108
0
3DFACE
8
A2
10
-2.2256
20
1.9277
30
-0.9470
11
-2.1295
21
1.9552
31
-0.9472
12
-2.1020
22
1.8590
32
-1.0118
13
-2.1981
23
1.8315
33
-1.0122
0
3DFACE
8
A2
10
-2.1295
20
1.9552
30
-0.9472
11
-2.0334
21
1.9827
31
-0.9475
12
-2.0058
22
1.8866
32
-1.0125
13
-2.1020
23
1.8590
33
-1.0118
0
3DFACE
8
A2
10
-2.0334
20
1.9827
30
-0.9475
11
-1.9372
21
2.0102
31
-0.9475
12
-1.9097
22
1.9141
32
-1.0114
13
-2.0058
23
1.8866
33
-1.0125
0
3DFACE
8
A2
10
-1.9372
20
2.0102
30
-0.9475
11
-1.8411
21
2.0377
31
-0.9486
12
-1.8136
22
1.9416
32
-1.0115
13
-1.9097
23
1.9141
33
-1.0114
0
3DFACE
8
A2
10
-1.8411
20
2.0377
30
-0.9486
11
-1.7449
21
2.0652
31
-0.9539
12
-1.7174
22
1.9691
32
-1.0168
13
-1.8136
23
1.9416
33
-1.0115
0
3DFACE
8
A2
10
-1.7449
20
2.0652
30
-0.9539
11
-1.6488
21
2.0928
31
-0.9585
12
-1.6213
22
1.9966
32
-1.0199
13
-1.7174
23
1.9691
33
-1.0168
0
3DFACE
8
A2
10
-1.6488
20
2.0928
30
-0.9585
11
-1.5527
21
2.1203
31
-0.9591
12
-1.5251
22
2.0241
32
-1.0199
13
-1.6213
23
1.9966
33
-1.0199
0
3DFACE
8
A2
10
-1.5527
20
2.1203
30
-0.9591
11
-1.4565
21
2.1478
31
-0.9568
12
-1.4290
22
2.0516
32
-1.0232
13
-1.5251
23
2.0241
33
-1.0199
0
3DFACE
8
A2
10
-1.4565
20
2.1478
30
-0.9568
11
-1.3604
21
2.1753
31
-0.9565
12
-1.3329
22
2.0792
32
-1.0260
13
-1.4290
23
2.0516
33
-1.0232
0
3DFACE
8
A2
10
-1.3604
20
2.1753
30
-0.9565
11
-1.2642
21
2.2028
31
-0.9564
12
-1.2367
22
2.1067
32
-1.0270
13
-1.3329
23
2.0792
33
-1.0260
0
3DFACE
8
A2
10
-1.2642
20
2.2028
30
-0.9564
11
-1.1681
21
2.2303
31
-0.9580
12
-1.1406
22
2.1342
32
-1.0298
13
-1.2367
23
2.1067
33
-1.0270
0
3DFACE
8
A2
10
-1.1681
20
2.2303
30
-0.9580
11
-1.0720
21
2.2578
31
-0.9634
12
-1.0444
22
2.1617
32
-1.0358
13
-1.1406
23
2.1342
33
-1.0298
0
3DFACE
8
A2
10
-1.0720
20
2.2578
30
-0.9634
11
-0.9758
21
2.2853
31
-0.9718
12
-0.9483
22
2.1892
32
-1.0388
13
-1.0444
23
2.1617
33
-1.0358
0
3DFACE
8
A2
10
-0.9758
20
2.2853
30
-0.9718
11
-0.8797
21
2.3129
31
-0.9764
12
-0.8522
22
2.2167
32
-1.0396
13
-0.9483
23
2.1892
33
-1.0388
0
3DFACE
8
A2
10
-0.8797
20
2.3129
30
-0.9764
11
-0.7835
21
2.3404
31
-0.9762
12
-0.7560
22
2.2442
32
-1.0359
13
-0.8522
23
2.2167
33
-1.0396
0
3DFACE
8
A2
10
-0.7835
20
2.3404
30
-0.9762
11
-0.6874
21
2.3679
31
-0.9743
12
-0.6599
22
2.2717
32
-1.0319
13
-0.7560
23
2.2442
33
-1.0359
0
3DFACE
8
A2
10
-0.6874
20
2.3679
30
-0.9743
11
-0.5913
21
2.3954
31
-0.9730
12
-0.5637
22
2.2993
32
-1.0279
13
-0.6599
23
2.2717
33
-1.0319
0
3DFACE
8
A2
10
-0.5913
20
2.3954
30
-0.9730
11
-0.4951
21
2.4229
31
-0.9706
12
-0.4676
22
2.3268
32
-1.0242
13
-0.5637
23
2.2993
33
-1.0279
0
3DFACE
8
A2
10
-0.4951
20
2.4229
30
-0.9706
11
-0.3990
21
2.4504
31
-0.9687
12
-0.3715
22
2.3543
32
-1.0214
13
-0.4676
23
2.3268
33
-1.0242
0
3DFACE
8
A2
10
-0.3990
20
2.4504
30
-0.9687
11
-0.3028
21
2.4779
31
-0.9669
12
-0.2753
22
2.3818
32
-1.0189
13
-0.3715
23
2.3543
33
-1.0214
0
3DFACE
8
A2
10
-0.3028
20
2.4779
30
-0.9669
11
-0.2067
21
2.5055
31
-0.9661
12
-0.1792
22
2.4093
32
-1.0173
13
-0.2753
23
2.3818
33
-1.0189
0
3DFACE
8
A2
10
-0.2067
20
2.5055
30
-0.9661
11
-0.1106
21
2.5330
31
-0.9652
12
-0.0830
22
2.4368
32
-1.0170
13
-0.1792
23
2.4093
33
-1.0173
0
3DFACE
8
A2
10
-0.1106
20
2.5330
30
-0.9652
11
-0.0144
21
2.5605
31
-0.9647
12
0.0131
22
2.4643
32
-1.0182
13
-0.0830
23
2.4368
33
-1.0170
0
3DFACE
8
A2
10
-0.0144
20
2.5605
30
-0.9647
11
0.0817
21
2.5880
31
-0.9687
12
0.1092
22
2.4919
32
-1.0254
13
0.0131
23
2.4643
33
-1.0182
0
3DFACE
8
A2
10
0.0817
20
2.5880
30
-0.9687
11
0.1779
21
2.6155
31
-0.9732
12
0.2054
22
2.5194
32
-1.0333
13
0.1092
23
2.4919
33
-1.0254
0
3DFACE
8
A2
10
0.1779
20
2.6155
30
-0.9732
11
0.2740
21
2.6430
31
-0.9775
12
0.3015
22
2.5469
32
-1.0410
13
0.2054
23
2.5194
33
-1.0333
0
3DFACE
8
A2
10
0.2740
20
2.6430
30
-0.9775
11
0.3702
21
2.6705
31
-0.9818
12
0.3977
22
2.5744
32
-1.0483
13
0.3015
23
2.5469
33
-1.0410
0
3DFACE
8
A2
10
0.3702
20
2.6705
30
-0.9818
11
0.4663
21
2.6980
31
-0.9871
12
0.4938
22
2.6019
32
-1.0544
13
0.3977
23
2.5744
33
-1.0483
0
3DFACE
8
A2
10
0.4663
20
2.6980
30
-0.9871
11
0.5624
21
2.7256
31
-0.9880
12
0.5899
22
2.6294
32
-1.0553
13
0.4938
23
2.6019
33
-1.0544
0
3DFACE
8
A2
10
0.5624
20
2.7256
30
-0.9880
11
0.6586
21
2.7531
31
-0.9889
12
0.6861
22
2.6569
32
-1.0562
13
0.5899
23
2.6294
33
-1.0553
0
3DFACE
8
A2
10
0.6586
20
2.7531
30
-0.9889
11
0.7547
21
2.7806
31
-0.9898
12
0.7822
22
2.6844
32
-1.0571
13
0.6861
23
2.6569
33
-1.0562
0
3DFACE
8
A2
10
0.7547
20
2.7806
30
-0.9898
11
0.8509
21
2.8081
31
-0.9907
12
0.8784
22
2.7120
32
-1.0580
13
0.7822
23
2.6844
33
-1.0571
0
3DFACE
8
A2
10
0.8509
20
2.8081
30
-0.9907
11
0.9470
21
2.8356
31
-0.9916
12
0.9745
22
2.7395
32
-1.0589
13
0.8784
23
2.7120
33
-1.0580
0
3DFACE
8
A2
10
0.9470
20
2.8356
30
-0.9916
11
1.0431
21
2.8631
31
-0.9923
12
1.0706
22
2.7670
32
-1.0596
13
0.9745
23
2.7395
33
-1.0589
0
3DFACE
8
A2
10
1.0431
20
2.8631
30
-0.9923
11
1.1393
21
2.8906
31
-0.9928
12
1.1668
22
2.7945
32
-1.0602
13
1.0706
23
2.7670
33
-1.0596
0
3DFACE
8
A2
10
-4.1209
20
1.2813
30
-1.0259
11
-4.0248
21
1.3088
31
-1.0303
12
-3.9973
22
1.2126
32
-1.0968
13
-4.0934
23
1.1851
33
-1.0920
0
3DFACE
8
A2
10
-4.0248
20
1.3088
30
-1.0303
11
-3.9287
21
1.3363
31
-1.0347
12
-3.9011
22
1.2401
32
-1.1023
13
-3.9973
23
1.2126
33
-1.0968
0
3DFACE
8
A2
10
-3.9287
20
1.3363
30
-1.0347
11
-3.8325
21
1.3638
31
-1.0384
12
-3.8050
22
1.2677
32
-1.1075
13
-3.9011
23
1.2401
33
-1.1023
0
3DFACE
8
A2
10
-3.8325
20
1.3638
30
-1.0384
11
-3.7364
21
1.3913
31
-1.0388
12
-3.7089
22
1.2952
32
-1.1096
13
-3.8050
23
1.2677
33
-1.1075
0
3DFACE
8
A2
10
-3.7364
20
1.3913
30
-1.0388
11
-3.6402
21
1.4188
31
-1.0356
12
-3.6127
22
1.3227
32
-1.1073
13
-3.7089
23
1.2952
33
-1.1096
0
3DFACE
8
A2
10
-3.6402
20
1.4188
30
-1.0356
11
-3.5441
21
1.4463
31
-1.0293
12
-3.5166
22
1.3502
32
-1.1008
13
-3.6127
23
1.3227
33
-1.1073
0
3DFACE
8
A2
10
-3.5441
20
1.4463
30
-1.0293
11
-3.4480
21
1.4739
31
-1.0199
12
-3.4204
22
1.3777
32
-1.0905
13
-3.5166
23
1.3502
33
-1.1008
0
3DFACE
8
A2
10
-3.4480
20
1.4739
30
-1.0199
11
-3.3518
21
1.5014
31
-1.0075
12
-3.3243
22
1.4052
32
-1.0769
13
-3.4204
23
1.3777
33
-1.0905
0
3DFACE
8
A2
10
-3.3518
20
1.5014
30
-1.0075
11
-3.2557
21
1.5289
31
-0.9977
12
-3.2282
22
1.4327
32
-1.0665
13
-3.3243
23
1.4052
33
-1.0769
0
3DFACE
8
A2
10
-3.2557
20
1.5289
30
-0.9977
11
-3.1595
21
1.5564
31
-0.9908
12
-3.1320
22
1.4603
32
-1.0597
13
-3.2282
23
1.4327
33
-1.0665
0
3DFACE
8
A2
10
-3.1595
20
1.5564
30
-0.9908
11
-3.0634
21
1.5839
31
-0.9875
12
-3.0359
22
1.4878
32
-1.0572
13
-3.1320
23
1.4603
33
-1.0597
0
3DFACE
8
A2
10
-3.0634
20
1.5839
30
-0.9875
11
-2.9673
21
1.6114
31
-0.9885
12
-2.9397
22
1.5153
32
-1.0595
13
-3.0359
23
1.4878
33
-1.0572
0
3DFACE
8
A2
10
-2.9673
20
1.6114
30
-0.9885
11
-2.8711
21
1.6389
31
-0.9950
12
-2.8436
22
1.5428
32
-1.0673
13
-2.9397
23
1.5153
33
-1.0595
0
3DFACE
8
A2
10
-2.8711
20
1.6389
30
-0.9950
11
-2.7750
21
1.6664
31
-1.0028
12
-2.7475
22
1.5703
32
-1.0727
13
-2.8436
23
1.5428
33
-1.0673
0
3DFACE
8
A2
10
-2.7750
20
1.6664
30
-1.0028
11
-2.6788
21
1.6940
31
-1.0063
12
-2.6513
22
1.5978
32
-1.0742
13
-2.7475
23
1.5703
33
-1.0727
0
3DFACE
8
A2
10
-2.6788
20
1.6940
30
-1.0063
11
-2.5827
21
1.7215
31
-1.0107
12
-2.5552
22
1.6253
32
-1.0784
13
-2.6513
23
1.5978
33
-1.0742
0
3DFACE
8
A2
10
-2.5827
20
1.7215
30
-1.0107
11
-2.4866
21
1.7490
31
-1.0121
12
-2.4590
22
1.6528
32
-1.0790
13
-2.5552
23
1.6253
33
-1.0784
0
3DFACE
8
A2
10
-2.4866
20
1.7490
30
-1.0121
11
-2.3904
21
1.7765
31
-1.0125
12
-2.3629
22
1.6804
32
-1.0780
13
-2.4590
23
1.6528
33
-1.0790
0
3DFACE
8
A2
10
-2.3904
20
1.7765
30
-1.0125
11
-2.2943
21
1.8040
31
-1.0108
12
-2.2668
22
1.7079
32
-1.0783
13
-2.3629
23
1.6804
33
-1.0780
0
3DFACE
8
A2
10
-2.2943
20
1.8040
30
-1.0108
11
-2.1981
21
1.8315
31
-1.0122
12
-2.1706
22
1.7354
32
-1.0815
13
-2.2668
23
1.7079
33
-1.0783
0
3DFACE
8
A2
10
-2.1981
20
1.8315
30
-1.0122
11
-2.1020
21
1.8590
31
-1.0118
12
-2.0745
22
1.7629
32
-1.0809
13
-2.1706
23
1.7354
33
-1.0815
0
3DFACE
8
A2
10
-2.1020
20
1.8590
30
-1.0118
11
-2.0058
21
1.8866
31
-1.0125
12
-1.9783
22
1.7904
32
-1.0817
13
-2.0745
23
1.7629
33
-1.0809
0
3DFACE
8
A2
10
-2.0058
20
1.8866
30
-1.0125
11
-1.9097
21
1.9141
31
-1.0114
12
-1.8822
22
1.8179
32
-1.0807
13
-1.9783
23
1.7904
33
-1.0817
0
3DFACE
8
A2
10
-1.9097
20
1.9141
30
-1.0114
11
-1.8136
21
1.9416
31
-1.0115
12
-1.7861
22
1.8454
32
-1.0808
13
-1.8822
23
1.8179
33
-1.0807
0
3DFACE
8
A2
10
-1.8136
20
1.9416
30
-1.0115
11
-1.7174
21
1.9691
31
-1.0168
12
-1.6899
22
1.8730
32
-1.0859
13
-1.7861
23
1.8454
33
-1.0808
0
3DFACE
8
A2
10
-1.7174
20
1.9691
30
-1.0168
11
-1.6213
21
1.9966
31
-1.0199
12
-1.5938
22
1.9005
32
-1.0899
13
-1.6899
23
1.8730
33
-1.0859
0
3DFACE
8
A2
10
-1.6213
20
1.9966
30
-1.0199
11
-1.5251
21
2.0241
31
-1.0199
12
-1.4976
22
1.9280
32
-1.0883
13
-1.5938
23
1.9005
33
-1.0899
0
3DFACE
8
A2
10
-1.5251
20
2.0241
30
-1.0199
11
-1.4290
21
2.0516
31
-1.0232
12
-1.4015
22
1.9555
32
-1.0902
13
-1.4976
23
1.9280
33
-1.0883
0
3DFACE
8
A2
10
-1.4290
20
2.0516
30
-1.0232
11
-1.3329
21
2.0792
31
-1.0260
12
-1.3054
22
1.9830
32
-1.0967
13
-1.4015
23
1.9555
33
-1.0902
0
3DFACE
8
A2
10
-1.3329
20
2.0792
30
-1.0260
11
-1.2367
21
2.1067
31
-1.0270
12
-1.2092
22
2.0105
32
-1.0992
13
-1.3054
23
1.9830
33
-1.0967
0
3DFACE
8
A2
10
-1.2367
20
2.1067
30
-1.0270
11
-1.1406
21
2.1342
31
-1.0298
12
-1.1131
22
2.0380
32
-1.1015
13
-1.2092
23
2.0105
33
-1.0992
0
3DFACE
8
A2
10
-1.1406
20
2.1342
30
-1.0298
11
-1.0444
21
2.1617
31
-1.0358
12
-1.0169
22
2.0656
32
-1.1093
13
-1.1131
23
2.0380
33
-1.1015
0
3DFACE
8
A2
10
-1.0444
20
2.1617
30
-1.0358
11
-0.9483
21
2.1892
31
-1.0388
12
-0.9208
22
2.0931
32
-1.1138
13
-1.0169
23
2.0656
33
-1.1093
0
3DFACE
8
A2
10
-0.9483
20
2.1892
30
-1.0388
11
-0.8522
21
2.2167
31
-1.0396
12
-0.8246
22
2.1206
32
-1.1106
13
-0.9208
23
2.0931
33
-1.1138
0
3DFACE
8
A2
10
-0.8522
20
2.2167
30
-1.0396
11
-0.7560
21
2.2442
31
-1.0359
12
-0.7285
22
2.1481
32
-1.1052
13
-0.8246
23
2.1206
33
-1.1106
0
3DFACE
8
A2
10
-0.7560
20
2.2442
30
-1.0359
11
-0.6599
21
2.2717
31
-1.0319
12
-0.6324
22
2.1756
32
-1.0998
13
-0.7285
23
2.1481
33
-1.1052
0
3DFACE
8
A2
10
-0.6599
20
2.2717
30
-1.0319
11
-0.5637
21
2.2993
31
-1.0279
12
-0.5362
22
2.2031
32
-1.0944
13
-0.6324
23
2.1756
33
-1.0998
0
3DFACE
8
A2
10
-0.5637
20
2.2993
30
-1.0279
11
-0.4676
21
2.3268
31
-1.0242
12
-0.4401
22
2.2306
32
-1.0891
13
-0.5362
23
2.2031
33
-1.0944
0
3DFACE
8
A2
10
-0.4676
20
2.3268
30
-1.0242
11
-0.3715
21
2.3543
31
-1.0214
12
-0.3439
22
2.2581
32
-1.0838
13
-0.4401
23
2.2306
33
-1.0891
0
3DFACE
8
A2
10
-0.3715
20
2.3543
30
-1.0214
11
-0.2753
21
2.3818
31
-1.0189
12
-0.2478
22
2.2857
32
-1.0790
13
-0.3439
23
2.2581
33
-1.0838
0
3DFACE
8
A2
10
-0.2753
20
2.3818
30
-1.0189
11
-0.1792
21
2.4093
31
-1.0173
12
-0.1517
22
2.3132
32
-1.0749
13
-0.2478
23
2.2857
33
-1.0790
0
3DFACE
8
A2
10
-0.1792
20
2.4093
30
-1.0173
11
-0.0830
21
2.4368
31
-1.0170
12
-0.0555
22
2.3407
32
-1.0714
13
-0.1517
23
2.3132
33
-1.0749
0
3DFACE
8
A2
10
-0.0830
20
2.4368
30
-1.0170
11
0.0131
21
2.4643
31
-1.0182
12
0.0406
22
2.3682
32
-1.0702
13
-0.0555
23
2.3407
33
-1.0714
0
3DFACE
8
A2
10
0.0131
20
2.4643
30
-1.0182
11
0.1092
21
2.4919
31
-1.0254
12
0.1368
22
2.3957
32
-1.0800
13
0.0406
23
2.3682
33
-1.0702
0
3DFACE
8
A2
10
0.1092
20
2.4919
30
-1.0254
11
0.2054
21
2.5194
31
-1.0333
12
0.2329
22
2.4232
32
-1.0902
13
0.1368
23
2.3957
33
-1.0800
0
3DFACE
8
A2
10
0.2054
20
2.5194
30
-1.0333
11
0.3015
21
2.5469
31
-1.0410
12
0.3290
22
2.4507
32
-1.1009
13
0.2329
23
2.4232
33
-1.0902
0
3DFACE
8
A2
10
0.3015
20
2.5469
30
-1.0410
11
0.3977
21
2.5744
31
-1.0483
12
0.4252
22
2.4783
32
-1.1120
13
0.3290
23
2.4507
33
-1.1009
0
3DFACE
8
A2
10
0.3977
20
2.5744
30
-1.0483
11
0.4938
21
2.6019
31
-1.0544
12
0.5213
22
2.5058
32
-1.1217
13
0.4252
23
2.4783
33
-1.1120
0
3DFACE
8
A2
10
0.4938
20
2.6019
30
-1.0544
11
0.5899
21
2.6294
31
-1.0553
12
0.6175
22
2.5333
32
-1.1226
13
0.5213
23
2.5058
33
-1.1217
0
3DFACE
8
A2
10
0.5899
20
2.6294
30
-1.0553
11
0.6861
21
2.6569
31
-1.0562
12
0.7136
22
2.5608
32
-1.1235
13
0.6175
23
2.5333
33
-1.1226
0
3DFACE
8
A2
10
0.6861
20
2.6569
30
-1.0562
11
0.7822
21
2.6844
31
-1.0571
12
0.8097
22
2.5883
32
-1.1244
13
0.7136
23
2.5608
33
-1.1235
0
3DFACE
8
A2
10
0.7822
20
2.6844
30
-1.0571
11
0.8784
21
2.7120
31
-1.0580
12
0.9059
22
2.6158
32
-1.1253
13
0.8097
23
2.5883
33
-1.1244
0
3DFACE
8
A2
10
0.8784
20
2.7120
30
-1.0580
11
0.9745
21
2.7395
31
-1.0589
12
1.0020
22
2.6433
32
-1.1262
13
0.9059
23
2.6158
33
-1.1253
0
3DFACE
8
A2
10
0.9745
20
2.7395
30
-1.0589
11
1.0706
21
2.7670
31
-1.0596
12
1.0982
22
2.6708
32
-1.1269
13
1.0020
23
2.6433
33
-1.1262
0
3DFACE
8
A2
10
1.0706
20
2.7670
30
-1.0596
11
1.1668
21
2.7945
31
-1.0602
12
1.1943
22
2.6984
32
-1.1275
13
1.0982
23
2.6708
33
-1.1269
0
3DFACE
8
A2
10
-4.0934
20
1.1851
30
-1.0920
11
-3.9973
21
1.2126
31
-1.0968
12
-3.9698
22
1.1165
32
-1.1643
13
-4.0659
23
1.0890
33
-1.1596
0
3DFACE
8
A2
10
-3.9973
20
1.2126
30
-1.0968
11
-3.9011
21
1.2401
31
-1.1023
12
-3.8736
22
1.1440
32
-1.1700
13
-3.9698
23
1.1165
33
-1.1643
0
3DFACE
8
A2
10
-3.9011
20
1.2401
30
-1.1023
11
-3.8050
21
1.2677
31
-1.1075
12
-3.7775
22
1.1715
32
-1.1762
13
-3.8736
23
1.1440
33
-1.1700
0
3DFACE
8
A2
10
-3.8050
20
1.2677
30
-1.1075
11
-3.7089
21
1.2952
31
-1.1096
12
-3.6814
22
1.1990
32
-1.1786
13
-3.7775
23
1.1715
33
-1.1762
0
3DFACE
8
A2
10
-3.7089
20
1.2952
30
-1.1096
11
-3.6127
21
1.3227
31
-1.1073
12
-3.5852
22
1.2265
32
-1.1768
13
-3.6814
23
1.1990
33
-1.1786
0
3DFACE
8
A2
10
-3.6127
20
1.3227
30
-1.1073
11
-3.5166
21
1.3502
31
-1.1008
12
-3.4891
22
1.2541
32
-1.1702
13
-3.5852
23
1.2265
33
-1.1768
0
3DFACE
8
A2
10
-3.5166
20
1.3502
30
-1.1008
11
-3.4204
21
1.3777
31
-1.0905
12
-3.3929
22
1.2816
32
-1.1592
13
-3.4891
23
1.2541
33
-1.1702
0
3DFACE
8
A2
10
-3.4204
20
1.3777
30
-1.0905
11
-3.3243
21
1.4052
31
-1.0769
12
-3.2968
22
1.3091
32
-1.1445
13
-3.3929
23
1.2816
33
-1.1592
0
3DFACE
8
A2
10
-3.3243
20
1.4052
30
-1.0769
11
-3.2282
21
1.4327
31
-1.0665
12
-3.2006
22
1.3366
32
-1.1330
13
-3.2968
23
1.3091
33
-1.1445
0
3DFACE
8
A2
10
-3.2282
20
1.4327
30
-1.0665
11
-3.1320
21
1.4603
31
-1.0597
12
-3.1045
22
1.3641
32
-1.1252
13
-3.2006
23
1.3366
33
-1.1330
0
3DFACE
8
A2
10
-3.1320
20
1.4603
30
-1.0597
11
-3.0359
21
1.4878
31
-1.0572
12
-3.0084
22
1.3916
32
-1.1215
13
-3.1045
23
1.3641
33
-1.1252
0
3DFACE
8
A2
10
-3.0359
20
1.4878
30
-1.0572
11
-2.9397
21
1.5153
31
-1.0595
12
-2.9122
22
1.4191
32
-1.1220
13
-3.0084
23
1.3916
33
-1.1215
0
3DFACE
8
A2
10
-2.9397
20
1.5153
30
-1.0595
11
-2.8436
21
1.5428
31
-1.0673
12
-2.8161
22
1.4467
32
-1.1277
13
-2.9122
23
1.4191
33
-1.1220
0
3DFACE
8
A2
10
-2.8436
20
1.5428
30
-1.0673
11
-2.7475
21
1.5703
31
-1.0727
12
-2.7199
22
1.4742
32
-1.1317
13
-2.8161
23
1.4467
33
-1.1277
0
3DFACE
8
A2
10
-2.7475
20
1.5703
30
-1.0727
11
-2.6513
21
1.5978
31
-1.0742
12
-2.6238
22
1.5017
32
-1.1354
13
-2.7199
23
1.4742
33
-1.1317
0
3DFACE
8
A2
10
-2.6513
20
1.5978
30
-1.0742
11
-2.5552
21
1.6253
31
-1.0784
12
-2.5277
22
1.5292
32
-1.1420
13
-2.6238
23
1.5017
33
-1.1354
0
3DFACE
8
A2
10
-2.5552
20
1.6253
30
-1.0784
11
-2.4590
21
1.6528
31
-1.0790
12
-2.4315
22
1.5567
32
-1.1452
13
-2.5277
23
1.5292
33
-1.1420
0
3DFACE
8
A2
10
-2.4590
20
1.6528
30
-1.0790
11
-2.3629
21
1.6804
31
-1.0780
12
-2.3354
22
1.5842
32
-1.1474
13
-2.4315
23
1.5567
33
-1.1452
0
3DFACE
8
A2
10
-2.3629
20
1.6804
30
-1.0780
11
-2.2668
21
1.7079
31
-1.0783
12
-2.2392
22
1.6117
32
-1.1506
13
-2.3354
23
1.5842
33
-1.1474
0
3DFACE
8
A2
10
-2.2668
20
1.7079
30
-1.0783
11
-2.1706
21
1.7354
31
-1.0815
12
-2.1431
22
1.6392
32
-1.1539
13
-2.2392
23
1.6117
33
-1.1506
0
3DFACE
8
A2
10
-2.1706
20
1.7354
30
-1.0815
11
-2.0745
21
1.7629
31
-1.0809
12
-2.0470
22
1.6668
32
-1.1536
13
-2.1431
23
1.6392
33
-1.1539
0
3DFACE
8
A2
10
-2.0745
20
1.7629
30
-1.0809
11
-1.9783
21
1.7904
31
-1.0817
12
-1.9508
22
1.6943
32
-1.1550
13
-2.0470
23
1.6668
33
-1.1536
0
3DFACE
8
A2
10
-1.9783
20
1.7904
30
-1.0817
11
-1.8822
21
1.8179
31
-1.0807
12
-1.8547
22
1.7218
32
-1.1550
13
-1.9508
23
1.6943
33
-1.1550
0
3DFACE
8
A2
10
-1.8822
20
1.8179
30
-1.0807
11
-1.7861
21
1.8454
31
-1.0808
12
-1.7585
22
1.7493
32
-1.1563
13
-1.8547
23
1.7218
33
-1.1550
0
3DFACE
8
A2
10
-1.7861
20
1.8454
30
-1.0808
11
-1.6899
21
1.8730
31
-1.0859
12
-1.6624
22
1.7768
32
-1.1613
13
-1.7585
23
1.7493
33
-1.1563
0
3DFACE
8
A2
10
-1.6899
20
1.8730
30
-1.0859
11
-1.5938
21
1.9005
31
-1.0899
12
-1.5663
22
1.8043
32
-1.1659
13
-1.6624
23
1.7768
33
-1.1613
0
3DFACE
8
A2
10
-1.5938
20
1.9005
30
-1.0899
11
-1.4976
21
1.9280
31
-1.0883
12
-1.4701
22
1.8318
32
-1.1672
13
-1.5663
23
1.8043
33
-1.1659
0
3DFACE
8
A2
10
-1.4976
20
1.9280
30
-1.0883
11
-1.4015
21
1.9555
31
-1.0902
12
-1.3740
22
1.8594
32
-1.1695
13
-1.4701
23
1.8318
33
-1.1672
0
3DFACE
8
A2
10
-1.4015
20
1.9555
30
-1.0902
11
-1.3054
21
1.9830
31
-1.0967
12
-1.2778
22
1.8869
32
-1.1786
13
-1.3740
23
1.8594
33
-1.1695
0
3DFACE
8
A2
10
-1.3054
20
1.9830
30
-1.0967
11
-1.2092
21
2.0105
31
-1.0992
12
-1.1817
22
1.9144
32
-1.1830
13
-1.2778
23
1.8869
33
-1.1786
0
3DFACE
8
A2
10
-1.2092
20
2.0105
30
-1.0992
11
-1.1131
21
2.0380
31
-1.1015
12
-1.0856
22
1.9419
32
-1.1860
13
-1.1817
23
1.9144
33
-1.1830
0
3DFACE
8
A2
10
-1.1131
20
2.0380
30
-1.1015
11
-1.0169
21
2.0656
31
-1.1093
12
-0.9894
22
1.9694
32
-1.1918
13
-1.0856
23
1.9419
33
-1.1860
0
3DFACE
8
A2
10
-1.0169
20
2.0656
30
-1.1093
11
-0.9208
21
2.0931
31
-1.1138
12
-0.8933
22
1.9969
32
-1.1961
13
-0.9894
23
1.9694
33
-1.1918
0
3DFACE
8
A2
10
-0.9208
20
2.0931
30
-1.1138
11
-0.8246
21
2.1206
31
-1.1106
12
-0.7971
22
2.0244
32
-1.1900
13
-0.8933
23
1.9969
33
-1.1961
0
3DFACE
8
A2
10
-0.8246
20
2.1206
30
-1.1106
11
-0.7285
21
2.1481
31
-1.1052
12
-0.7010
22
2.0520
32
-1.1832
13
-0.7971
23
2.0244
33
-1.1900
0
3DFACE
8
A2
10
-0.7285
20
2.1481
30
-1.1052
11
-0.6324
21
2.1756
31
-1.0998
12
-0.6049
22
2.0795
32
-1.1765
13
-0.7010
23
2.0520
33
-1.1832
0
3DFACE
8
A2
10
-0.6324
20
2.1756
30
-1.0998
11
-0.5362
21
2.2031
31
-1.0944
12
-0.5087
22
2.1070
32
-1.1701
13
-0.6049
23
2.0795
33
-1.1765
0
3DFACE
8
A2
10
-0.5362
20
2.2031
30
-1.0944
11
-0.4401
21
2.2306
31
-1.0891
12
-0.4126
22
2.1345
32
-1.1638
13
-0.5087
23
2.1070
33
-1.1701
0
3DFACE
8
A2
10
-0.4401
20
2.2306
30
-1.0891
11
-0.3439
21
2.2581
31
-1.0838
12
-0.3164
22
2.1620
32
-1.1571
13
-0.4126
23
2.1345
33
-1.1638
0
3DFACE
8
A2
10
-0.3439
20
2.2581
30
-1.0838
11
-0.2478
21
2.2857
31
-1.0790
12
-0.2203
22
2.1895
32
-1.1509
13
-0.3164
23
2.1620
33
-1.1571
0
3DFACE
8
A2
10
-0.2478
20
2.2857
30
-1.0790
11
-0.1517
21
2.3132
31
-1.0749
12
-0.1242
22
2.2170
32
-1.1456
13
-0.2203
23
2.1895
33
-1.1509
0
3DFACE
8
A2
10
-0.1517
20
2.3132
30
-1.0749
11
-0.0555
21
2.3407
31
-1.0714
12
-0.0280
22
2.2445
32
-1.1421
13
-0.1242
23
2.2170
33
-1.1456
0
3DFACE
8
A2
10
-0.0555
20
2.3407
30
-1.0714
11
0.0406
21
2.3682
31
-1.0702
12
0.0681
22
2.2721
32
-1.1386
13
-0.0280
23
2.2445
33
-1.1421
0
3DFACE
8
A2
10
0.0406
20
2.3682
30
-1.0702
11
0.1368
21
2.3957
31
-1.0800
12
0.1643
22
2.2996
32
-1.1479
13
0.0681
23
2.2721
33
-1.1386
0
3DFACE
8
A2
10
0.1368
20
2.3957
30
-1.0800
11
0.2329
21
2.4232
31
-1.0902
12
0.2604
22
2.3271
32
-1.1579
13
0.1643
23
2.2996
33
-1.1479
0
3DFACE
8
A2
10
0.2329
20
2.4232
30
-1.0902
11
0.3290
21
2.4507
31
-1.1009
12
0.3566
22
2.3546
32
-1.1683
13
0.2604
23
2.3271
33
-1.1579
0
3DFACE
8
A2
10
0.3290
20
2.4507
30
-1.1009
11
0.4252
21
2.4783
31
-1.1120
12
0.4527
22
2.3821
32
-1.1781
13
0.3566
23
2.3546
33
-1.1683
0
3DFACE
8
A2
10
0.4252
20
2.4783
30
-1.1120
11
0.5213
21
2.5058
31
-1.1217
12
0.5488
22
2.4096
32
-1.1891
13
0.4527
23
2.3821
33
-1.1781
0
3DFACE
8
A2
10
0.5213
20
2.5058
30
-1.1217
11
0.6175
21
2.5333
31
-1.1226
12
0.6450
22
2.4371
32
-1.1900
13
0.5488
23
2.4096
33
-1.1891
0
3DFACE
8
A2
10
0.6175
20
2.5333
30
-1.1226
11
0.7136
21
2.5608
31
-1.1235
12
0.7411
22
2.4647
32
-1.1909
13
0.6450
23
2.4371
33
-1.1900
0
3DFACE
8
A2
10
0.7136
20
2.5608
30
-1.1235
11
0.8097
21
2.5883
31
-1.1244
12
0.8373
22
2.4922
32
-1.1918
13
0.7411
23
2.4647
33
-1.1909
0
3DFACE
8
A2
10
0.8097
20
2.5883
30
-1.1244
11
0.9059
21
2.6158
31
-1.1253
12
0.9334
22
2.5197
32
-1.1927
13
0.8373
23
2.4922
33
-1.1918
0
3DFACE
8
A2
10
0.9059
20
2.6158
30
-1.1253
11
1.0020
21
2.6433
31
-1.1262
12
1.0295
22
2.5472
32
-1.1935
13
0.9334
23
2.5197
33
-1.1927
0
3DFACE
8
A2
10
1.0020
20
2.6433
30
-1.1262
11
1.0982
21
2.6708
31
-1.1269
12
1.1257
22
2.5747
32
-1.1943
13
1.0295
23
2.5472
33
-1.1935
0
3DFACE
8
A2
10
1.0982
20
2.6708
30
-1.1269
11
1.1943
21
2.6984
31
-1.1275
12
1.2218
22
2.6022
32
-1.1948
13
1.1257
23
2.5747
33
-1.1943
0
3DFACE
8
A2
10
-4.0659
20
1.0890
30
-1.1596
11
-3.9698
21
1.1165
31
-1.1643
12
-3.9423
22
1.0203
32
-1.2329
13
-4.0384
23
0.9928
33
-1.2289
0
3DFACE
8
A2
10
-3.9698
20
1.1165
30
-1.1643
11
-3.8736
21
1.1440
31
-1.1700
12
-3.8461
22
1.0479
32
-1.2383
13
-3.9423
23
1.0203
33
-1.2329
0
3DFACE
8
A2
10
-3.8736
20
1.1440
30
-1.1700
11
-3.7775
21
1.1715
31
-1.1762
12
-3.7500
22
1.0754
32
-1.2447
13
-3.8461
23
1.0479
33
-1.2383
0
3DFACE
8
A2
10
-3.7775
20
1.1715
30
-1.1762
11
-3.6814
21
1.1990
31
-1.1786
12
-3.6538
22
1.1029
32
-1.2469
13
-3.7500
23
1.0754
33
-1.2447
0
3DFACE
8
A2
10
-3.6814
20
1.1990
30
-1.1786
11
-3.5852
21
1.2265
31
-1.1768
12
-3.5577
22
1.1304
32
-1.2450
13
-3.6538
23
1.1029
33
-1.2469
0
3DFACE
8
A2
10
-3.5852
20
1.2265
30
-1.1768
11
-3.4891
21
1.2541
31
-1.1702
12
-3.4616
22
1.1579
32
-1.2387
13
-3.5577
23
1.1304
33
-1.2450
0
3DFACE
8
A2
10
-3.4891
20
1.2541
30
-1.1702
11
-3.3929
21
1.2816
31
-1.1592
12
-3.3654
22
1.1854
32
-1.2279
13
-3.4616
23
1.1579
33
-1.2387
0
3DFACE
8
A2
10
-3.3929
20
1.2816
30
-1.1592
11
-3.2968
21
1.3091
31
-1.1445
12
-3.2693
22
1.2129
32
-1.2127
13
-3.3654
23
1.1854
33
-1.2279
0
3DFACE
8
A2
10
-3.2968
20
1.3091
30
-1.1445
11
-3.2006
21
1.3366
31
-1.1330
12
-3.1731
22
1.2405
32
-1.2010
13
-3.2693
23
1.2129
33
-1.2127
0
3DFACE
8
A2
10
-3.2006
20
1.3366
30
-1.1330
11
-3.1045
21
1.3641
31
-1.1252
12
-3.0770
22
1.2680
32
-1.1928
13
-3.1731
23
1.2405
33
-1.2010
0
3DFACE
8
A2
10
-3.1045
20
1.3641
30
-1.1252
11
-3.0084
21
1.3916
31
-1.1215
12
-2.9809
22
1.2955
32
-1.1884
13
-3.0770
23
1.2680
33
-1.1928
0
3DFACE
8
A2
10
-3.0084
20
1.3916
30
-1.1215
11
-2.9122
21
1.4191
31
-1.1220
12
-2.8847
22
1.3230
32
-1.1883
13
-2.9809
23
1.2955
33
-1.1884
0
3DFACE
8
A2
10
-2.9122
20
1.4191
30
-1.1220
11
-2.8161
21
1.4467
31
-1.1277
12
-2.7886
22
1.3505
32
-1.1939
13
-2.8847
23
1.3230
33
-1.1883
0
3DFACE
8
A2
10
-2.8161
20
1.4467
30
-1.1277
11
-2.7199
21
1.4742
31
-1.1317
12
-2.6924
22
1.3780
32
-1.1998
13
-2.7886
23
1.3505
33
-1.1939
0
3DFACE
8
A2
10
-2.7199
20
1.4742
30
-1.1317
11
-2.6238
21
1.5017
31
-1.1354
12
-2.5963
22
1.4055
32
-1.2053
13
-2.6924
23
1.3780
33
-1.1998
0
3DFACE
8
A2
10
-2.6238
20
1.5017
30
-1.1354
11
-2.5277
21
1.5292
31
-1.1420
12
-2.5002
22
1.4331
32
-1.2136
13
-2.5963
23
1.4055
33
-1.2053
0
3DFACE
8
A2
10
-2.5277
20
1.5292
30
-1.1420
11
-2.4315
21
1.5567
31
-1.1452
12
-2.4040
22
1.4606
32
-1.2186
13
-2.5002
23
1.4331
33
-1.2136
0
3DFACE
8
A2
10
-2.4315
20
1.5567
30
-1.1452
11
-2.3354
21
1.5842
31
-1.1474
12
-2.3079
22
1.4881
32
-1.2224
13
-2.4040
23
1.4606
33
-1.2186
0
3DFACE
8
A2
10
-2.3354
20
1.5842
30
-1.1474
11
-2.2392
21
1.6117
31
-1.1506
12
-2.2117
22
1.5156
32
-1.2255
13
-2.3079
23
1.4881
33
-1.2224
0
3DFACE
8
A2
10
-2.2392
20
1.6117
30
-1.1506
11
-2.1431
21
1.6392
31
-1.1539
12
-2.1156
22
1.5431
32
-1.2293
13
-2.2117
23
1.5156
33
-1.2255
0
3DFACE
8
A2
10
-2.1431
20
1.6392
30
-1.1539
11
-2.0470
21
1.6668
31
-1.1536
12
-2.0194
22
1.5706
32
-1.2303
13
-2.1156
23
1.5431
33
-1.2293
0
3DFACE
8
A2
10
-2.0470
20
1.6668
30
-1.1536
11
-1.9508
21
1.6943
31
-1.1550
12
-1.9233
22
1.5981
32
-1.2330
13
-2.0194
23
1.5706
33
-1.2303
0
3DFACE
8
A2
10
-1.9508
20
1.6943
30
-1.1550
11
-1.8547
21
1.7218
31
-1.1550
12
-1.8272
22
1.6256
32
-1.2348
13
-1.9233
23
1.5981
33
-1.2330
0
3DFACE
8
A2
10
-1.8547
20
1.7218
30
-1.1550
11
-1.7585
21
1.7493
31
-1.1563
12
-1.7310
22
1.6532
32
-1.2376
13
-1.8272
23
1.6256
33
-1.2348
0
3DFACE
8
A2
10
-1.7585
20
1.7493
30
-1.1563
11
-1.6624
21
1.7768
31
-1.1613
12
-1.6349
22
1.6807
32
-1.2426
13
-1.7310
23
1.6532
33
-1.2376
0
3DFACE
8
A2
10
-1.6624
20
1.7768
30
-1.1613
11
-1.5663
21
1.8043
31
-1.1659
12
-1.5387
22
1.7082
32
-1.2478
13
-1.6349
23
1.6807
33
-1.2426
0
3DFACE
8
A2
10
-1.5663
20
1.8043
30
-1.1659
11
-1.4701
21
1.8318
31
-1.1672
12
-1.4426
22
1.7357
32
-1.2515
13
-1.5387
23
1.7082
33
-1.2478
0
3DFACE
8
A2
10
-1.4701
20
1.8318
30
-1.1672
11
-1.3740
21
1.8594
31
-1.1695
12
-1.3465
22
1.7632
32
-1.2581
13
-1.4426
23
1.7357
33
-1.2515
0
3DFACE
8
A2
10
-1.3740
20
1.8594
30
-1.1695
11
-1.2778
21
1.8869
31
-1.1786
12
-1.2503
22
1.7907
32
-1.2688
13
-1.3465
23
1.7632
33
-1.2581
0
3DFACE
8
A2
10
-1.2778
20
1.8869
30
-1.1786
11
-1.1817
21
1.9144
31
-1.1830
12
-1.1542
22
1.8182
32
-1.2749
13
-1.2503
23
1.7907
33
-1.2688
0
3DFACE
8
A2
10
-1.1817
20
1.9144
30
-1.1830
11
-1.0856
21
1.9419
31
-1.1860
12
-1.0580
22
1.8458
32
-1.2787
13
-1.1542
23
1.8182
33
-1.2749
0
3DFACE
8
A2
10
-1.0856
20
1.9419
30
-1.1860
11
-0.9894
21
1.9694
31
-1.1918
12
-0.9619
22
1.8733
32
-1.2827
13
-1.0580
23
1.8458
33
-1.2787
0
3DFACE
8
A2
10
-0.9894
20
1.9694
30
-1.1918
11
-0.8933
21
1.9969
31
-1.1961
12
-0.8658
22
1.9008
32
-1.2823
13
-0.9619
23
1.8733
33
-1.2827
0
3DFACE
8
A2
10
-0.8933
20
1.9969
30
-1.1961
11
-0.7971
21
2.0244
31
-1.1900
12
-0.7696
22
1.9283
32
-1.2739
13
-0.8658
23
1.9008
33
-1.2823
0
3DFACE
8
A2
10
-0.7971
20
2.0244
30
-1.1900
11
-0.7010
21
2.0520
31
-1.1832
12
-0.6735
22
1.9558
32
-1.2656
13
-0.7696
23
1.9283
33
-1.2739
0
3DFACE
8
A2
10
-0.7010
20
2.0520
30
-1.1832
11
-0.6049
21
2.0795
31
-1.1765
12
-0.5773
22
1.9833
32
-1.2572
13
-0.6735
23
1.9558
33
-1.2656
0
3DFACE
8
A2
10
-0.6049
20
2.0795
30
-1.1765
11
-0.5087
21
2.1070
31
-1.1701
12
-0.4812
22
2.0108
32
-1.2489
13
-0.5773
23
1.9833
33
-1.2572
0
3DFACE
8
A2
10
-0.5087
20
2.1070
30
-1.1701
11
-0.4126
21
2.1345
31
-1.1638
12
-0.3851
22
2.0384
32
-1.2407
13
-0.4812
23
2.0108
33
-1.2489
0
3DFACE
8
A2
10
-0.4126
20
2.1345
30
-1.1638
11
-0.3164
21
2.1620
31
-1.1571
12
-0.2889
22
2.0659
32
-1.2320
13
-0.3851
23
2.0384
33
-1.2407
0
3DFACE
8
A2
10
-0.3164
20
2.1620
30
-1.1571
11
-0.2203
21
2.1895
31
-1.1509
12
-0.1928
22
2.0934
32
-1.2235
13
-0.2889
23
2.0659
33
-1.2320
0
3DFACE
8
A2
10
-0.2203
20
2.1895
30
-1.1509
11
-0.1242
21
2.2170
31
-1.1456
12
-0.0966
22
2.1209
32
-1.2155
13
-0.1928
23
2.0934
33
-1.2235
0
3DFACE
8
A2
10
-0.1242
20
2.2170
30
-1.1456
11
-0.0280
21
2.2445
31
-1.1421
12
-0.0005
22
2.1484
32
-1.2095
13
-0.0966
23
2.1209
33
-1.2155
0
3DFACE
8
A2
10
-0.0280
20
2.2445
30
-1.1421
11
0.0681
21
2.2721
31
-1.1386
12
0.0956
22
2.1759
32
-1.2040
13
-0.0005
23
2.1484
33
-1.2095
0
3DFACE
8
A2
10
0.0681
20
2.2721
30
-1.1386
11
0.1643
21
2.2996
31
-1.1479
12
0.1918
22
2.2034
32
-1.2125
13
0.0956
23
2.1759
33
-1.2040
0
3DFACE
8
A2
10
0.1643
20
2.2996
30
-1.1479
11
0.2604
21
2.3271
31
-1.1579
12
0.2879
22
2.2309
32
-1.2226
13
0.1918
23
2.2034
33
-1.2125
0
3DFACE
8
A2
10
0.2604
20
2.3271
30
-1.1579
11
0.3566
21
2.3546
31
-1.1683
12
0.3841
22
2.2585
32
-1.2337
13
0.2879
23
2.2309
33
-1.2226
0
3DFACE
8
A2
10
0.3566
20
2.3546
30
-1.1683
11
0.4527
21
2.3821
31
-1.1781
12
0.4802
22
2.2860
32
-1.2445
13
0.3841
23
2.2585
33
-1.2337
0
3DFACE
8
A2
10
0.4527
20
2.3821
30
-1.1781
11
0.5488
21
2.4096
31
-1.1891
12
0.5763
22
2.3135
32
-1.2564
13
0.4802
23
2.2860
33
-1.2445
0
3DFACE
8
A2
10
0.5488
20
2.4096
30
-1.1891
11
0.6450
21
2.4371
31
-1.1900
12
0.6725
22
2.3410
32
-1.2573
13
0.5763
23
2.3135
33
-1.2564
0
3DFACE
8
A2
10
0.6450
20
2.4371
30
-1.1900
11
0.7411
21
2.4647
31
-1.1909
12
0.7686
22
2.3685
32
-1.2582
13
0.6725
23
2.3410
33
-1.2573
0
3DFACE
8
A2
10
0.7411
20
2.4647
30
-1.1909
11
0.8373
21
2.4922
31
-1.1918
12
0.8648
22
2.3960
32
-1.2591
13
0.7686
23
2.3685
33
-1.2582
0
3DFACE
8
A2
10
0.8373
20
2.4922
30
-1.1918
11
0.9334
21
2.5197
31
-1.1927
12
0.9609
22
2.4235
32
-1.2600
13
0.8648
23
2.3960
33
-1.2591
0
3DFACE
8
A2
10
0.9334
20
2.5197
30
-1.1927
11
1.0295
21
2.5472
31
-1.1935
12
1.0570
22
2.4511
32
-1.2609
13
0.9609
23
2.4235
33
-1.2600
0
3DFACE
8
A2
10
1.0295
20
2.5472
30
-1.1935
11
1.1257
21
2.5747
31
-1.1943
12
1.1532
22
2.4786
32
-1.2616
13
1.0570
23
2.4511
33
-1.2609
0
3DFACE
8
A2
10
1.1257
20
2.5747
30
-1.1943
11
1.2218
21
2.6022
31
-1.1948
12
1.2493
22
2.5061
32
-1.2621
13
1.1532
23
2.4786
33
-1.2616
0
3DFACE
8
A2
10
-4.0384
20
0.9928
30
-1.2289
11
-3.9423
21
1.0203
31
-1.2329
12
-3.9147
22
0.9242
32
-1.3014
13
-4.0109
23
0.8967
33
-1.2977
0
3DFACE
8
A2
10
-3.9423
20
1.0203
30
-1.2329
11
-3.8461
21
1.0479
31
-1.2383
12
-3.8186
22
0.9517
32
-1.3064
13
-3.9147
23
0.9242
33
-1.3014
0
3DFACE
8
A2
10
-3.8461
20
1.0479
30
-1.2383
11
-3.7500
21
1.0754
31
-1.2447
12
-3.7225
22
0.9792
32
-1.3125
13
-3.8186
23
0.9517
33
-1.3064
0
3DFACE
8
A2
10
-3.7500
20
1.0754
30
-1.2447
11
-3.6538
21
1.1029
31
-1.2469
12
-3.6263
22
1.0068
32
-1.3146
13
-3.7225
23
0.9792
33
-1.3125
0
3DFACE
8
A2
10
-3.6538
20
1.1029
30
-1.2469
11
-3.5577
21
1.1304
31
-1.2450
12
-3.5302
22
1.0343
32
-1.3126
13
-3.6263
23
1.0068
33
-1.3146
0
3DFACE
8
A2
10
-3.5577
20
1.1304
30
-1.2450
11
-3.4616
21
1.1579
31
-1.2387
12
-3.4340
22
1.0618
32
-1.3063
13
-3.5302
23
1.0343
33
-1.3126
0
3DFACE
8
A2
10
-3.4616
20
1.1579
30
-1.2387
11
-3.3654
21
1.1854
31
-1.2279
12
-3.3379
22
1.0893
32
-1.2958
13
-3.4340
23
1.0618
33
-1.3063
0
3DFACE
8
A2
10
-3.3654
20
1.1854
30
-1.2279
11
-3.2693
21
1.2129
31
-1.2127
12
-3.2418
22
1.1168
32
-1.2806
13
-3.3379
23
1.0893
33
-1.2958
0
3DFACE
8
A2
10
-3.2693
20
1.2129
30
-1.2127
11
-3.1731
21
1.2405
31
-1.2010
12
-3.1456
22
1.1443
32
-1.2691
13
-3.2418
23
1.1168
33
-1.2806
0
3DFACE
8
A2
10
-3.1731
20
1.2405
30
-1.2010
11
-3.0770
21
1.2680
31
-1.1928
12
-3.0495
22
1.1718
32
-1.2611
13
-3.1456
23
1.1443
33
-1.2691
0
3DFACE
8
A2
10
-3.0770
20
1.2680
30
-1.1928
11
-2.9809
21
1.2955
31
-1.1884
12
-2.9533
22
1.1993
32
-1.2569
13
-3.0495
23
1.1718
33
-1.2611
0
3DFACE
8
A2
10
-2.9809
20
1.2955
30
-1.1884
11
-2.8847
21
1.3230
31
-1.1883
12
-2.8572
22
1.2269
32
-1.2572
13
-2.9533
23
1.1993
33
-1.2569
0
3DFACE
8
A2
10
-2.8847
20
1.3230
30
-1.1883
11
-2.7886
21
1.3505
31
-1.1939
12
-2.7611
22
1.2544
32
-1.2639
13
-2.8572
23
1.2269
33
-1.2572
0
3DFACE
8
A2
10
-2.7886
20
1.3505
30
-1.1939
11
-2.6924
21
1.3780
31
-1.1998
12
-2.6649
22
1.2819
32
-1.2707
13
-2.7611
23
1.2544
33
-1.2639
0
3DFACE
8
A2
10
-2.6924
20
1.3780
30
-1.1998
11
-2.5963
21
1.4055
31
-1.2053
12
-2.5688
22
1.3094
32
-1.2770
13
-2.6649
23
1.2819
33
-1.2707
0
3DFACE
8
A2
10
-2.5963
20
1.4055
30
-1.2053
11
-2.5002
21
1.4331
31
-1.2136
12
-2.4726
22
1.3369
32
-1.2863
13
-2.5688
23
1.3094
33
-1.2770
0
3DFACE
8
A2
10
-2.5002
20
1.4331
30
-1.2136
11
-2.4040
21
1.4606
31
-1.2186
12
-2.3765
22
1.3644
32
-1.2926
13
-2.4726
23
1.3369
33
-1.2863
0
3DFACE
8
A2
10
-2.4040
20
1.4606
30
-1.2186
11
-2.3079
21
1.4881
31
-1.2224
12
-2.2804
22
1.3919
32
-1.2975
13
-2.3765
23
1.3644
33
-1.2926
0
3DFACE
8
A2
10
-2.3079
20
1.4881
30
-1.2224
11
-2.2117
21
1.5156
31
-1.2255
12
-2.1842
22
1.4195
32
-1.3022
13
-2.2804
23
1.3919
33
-1.2975
0
3DFACE
8
A2
10
-2.2117
20
1.5156
30
-1.2255
11
-2.1156
21
1.5431
31
-1.2293
12
-2.0881
22
1.4470
32
-1.3078
13
-2.1842
23
1.4195
33
-1.3022
0
3DFACE
8
A2
10
-2.1156
20
1.5431
30
-1.2293
11
-2.0194
21
1.5706
31
-1.2303
12
-1.9919
22
1.4745
32
-1.3110
13
-2.0881
23
1.4470
33
-1.3078
0
3DFACE
8
A2
10
-2.0194
20
1.5706
30
-1.2303
11
-1.9233
21
1.5981
31
-1.2330
12
-1.8958
22
1.5020
32
-1.3165
13
-1.9919
23
1.4745
33
-1.3110
0
3DFACE
8
A2
10
-1.9233
20
1.5981
30
-1.2330
11
-1.8272
21
1.6256
31
-1.2348
12
-1.7997
22
1.5295
32
-1.3209
13
-1.8958
23
1.5020
33
-1.3165
0
3DFACE
8
A2
10
-1.8272
20
1.6256
30
-1.2348
11
-1.7310
21
1.6532
31
-1.2376
12
-1.7035
22
1.5570
32
-1.3250
13
-1.7997
23
1.5295
33
-1.3209
0
3DFACE
8
A2
10
-1.7310
20
1.6532
30
-1.2376
11
-1.6349
21
1.6807
31
-1.2426
12
-1.6074
22
1.5845
32
-1.3300
13
-1.7035
23
1.5570
33
-1.3250
0
3DFACE
8
A2
10
-1.6349
20
1.6807
30
-1.2426
11
-1.5387
21
1.7082
31
-1.2478
12
-1.5112
22
1.6120
32
-1.3350
13
-1.6074
23
1.5845
33
-1.3300
0
3DFACE
8
A2
10
-1.5387
20
1.7082
30
-1.2478
11
-1.4426
21
1.7357
31
-1.2515
12
-1.4151
22
1.6396
32
-1.3380
13
-1.5112
23
1.6120
33
-1.3350
0
3DFACE
8
A2
10
-1.4426
20
1.7357
30
-1.2515
11
-1.3465
21
1.7632
31
-1.2581
12
-1.3190
22
1.6671
32
-1.3419
13
-1.4151
23
1.6396
33
-1.3380
0
3DFACE
8
A2
10
-1.3465
20
1.7632
30
-1.2581
11
-1.2503
21
1.7907
31
-1.2688
12
-1.2228
22
1.6946
32
-1.3533
13
-1.3190
23
1.6671
33
-1.3419
0
3DFACE
8
A2
10
-1.2503
20
1.7907
30
-1.2688
11
-1.1542
21
1.8182
31
-1.2749
12
-1.1267
22
1.7221
32
-1.3608
13
-1.2228
23
1.6946
33
-1.3533
0
3DFACE
8
A2
10
-1.1542
20
1.8182
30
-1.2749
11
-1.0580
21
1.8458
31
-1.2787
12
-1.0305
22
1.7496
32
-1.3654
13
-1.1267
23
1.7221
33
-1.3608
0
3DFACE
8
A2
10
-1.0580
20
1.8458
30
-1.2787
11
-0.9619
21
1.8733
31
-1.2827
12
-0.9344
22
1.7771
32
-1.3694
13
-1.0305
23
1.7496
33
-1.3654
0
3DFACE
8
A2
10
-0.9619
20
1.8733
30
-1.2827
11
-0.8658
21
1.9008
31
-1.2823
12
-0.8382
22
1.8046
32
-1.3704
13
-0.9344
23
1.7771
33
-1.3694
0
3DFACE
8
A2
10
-0.8658
20
1.9008
30
-1.2823
11
-0.7696
21
1.9283
31
-1.2739
12
-0.7421
22
1.8322
32
-1.3609
13
-0.8382
23
1.8046
33
-1.3704
0
3DFACE
8
A2
10
-0.7696
20
1.9283
30
-1.2739
11
-0.6735
21
1.9558
31
-1.2656
12
-0.6460
22
1.8597
32
-1.3513
13
-0.7421
23
1.8322
33
-1.3609
0
3DFACE
8
A2
10
-0.6735
20
1.9558
30
-1.2656
11
-0.5773
21
1.9833
31
-1.2572
12
-0.5498
22
1.8872
32
-1.3417
13
-0.6460
23
1.8597
33
-1.3513
0
3DFACE
8
A2
10
-0.5773
20
1.9833
30
-1.2572
11
-0.4812
21
2.0108
31
-1.2489
12
-0.4537
22
1.9147
32
-1.3322
13
-0.5498
23
1.8872
33
-1.3417
0
3DFACE
8
A2
10
-0.4812
20
2.0108
30
-1.2489
11
-0.3851
21
2.0384
31
-1.2407
12
-0.3575
22
1.9422
32
-1.3227
13
-0.4537
23
1.9147
33
-1.3322
0
3DFACE
8
A2
10
-0.3851
20
2.0384
30
-1.2407
11
-0.2889
21
2.0659
31
-1.2320
12
-0.2614
22
1.9697
32
-1.3128
13
-0.3575
23
1.9422
33
-1.3227
0
3DFACE
8
A2
10
-0.2889
20
2.0659
30
-1.2320
11
-0.1928
21
2.0934
31
-1.2235
12
-0.1653
22
1.9972
32
-1.3031
13
-0.2614
23
1.9697
33
-1.3128
0
3DFACE
8
A2
10
-0.1928
20
2.0934
30
-1.2235
11
-0.0966
21
2.1209
31
-1.2155
12
-0.0691
22
2.0248
32
-1.2935
13
-0.1653
23
1.9972
33
-1.3031
0
3DFACE
8
A2
10
-0.0966
20
2.1209
30
-1.2155
11
-0.0005
21
2.1484
31
-1.2095
12
0.0270
22
2.0523
32
-1.2852
13
-0.0691
23
2.0248
33
-1.2935
0
3DFACE
8
A2
10
-0.0005
20
2.1484
30
-1.2095
11
0.0956
21
2.1759
31
-1.2040
12
0.1232
22
2.0798
32
-1.2777
13
0.0270
23
2.0523
33
-1.2852
0
3DFACE
8
A2
10
0.0956
20
2.1759
30
-1.2040
11
0.1918
21
2.2034
31
-1.2125
12
0.2193
22
2.1073
32
-1.2840
13
0.1232
23
2.0798
33
-1.2777
0
3DFACE
8
A2
10
0.1918
20
2.2034
30
-1.2125
11
0.2879
21
2.2309
31
-1.2226
12
0.3154
22
2.1348
32
-1.2921
13
0.2193
23
2.1073
33
-1.2840
0
3DFACE
8
A2
10
0.2879
20
2.2309
30
-1.2226
11
0.3841
21
2.2585
31
-1.2337
12
0.4116
22
2.1623
32
-1.3019
13
0.3154
23
2.1348
33
-1.2921
0
3DFACE
8
A2
10
0.3841
20
2.2585
30
-1.2337
11
0.4802
21
2.2860
31
-1.2445
12
0.5077
22
2.1898
32
-1.3123
13
0.4116
23
2.1623
33
-1.3019
0
3DFACE
8
A2
10
0.4802
20
2.2860
30
-1.2445
11
0.5763
21
2.3135
31
-1.2564
12
0.6039
22
2.2173
32
-1.3237
13
0.5077
23
2.1898
33
-1.3123
0
3DFACE
8
A2
10
0.5763
20
2.3135
30
-1.2564
11
0.6725
21
2.3410
31
-1.2573
12
0.7000
22
2.2449
32
-1.3246
13
0.6039
23
2.2173
33
-1.3237
0
3DFACE
8
A2
10
0.6725
20
2.3410
30
-1.2573
11
0.7686
21
2.3685
31
-1.2582
12
0.7961
22
2.2724
32
-1.3255
13
0.7000
23
2.2449
33
-1.3246
0
3DFACE
8
A2
10
0.7686
20
2.3685
30
-1.2582
11
0.8648
21
2.3960
31
-1.2591
12
0.8923
22
2.2999
32
-1.3264
13
0.7961
23
2.2724
33
-1.3255
0
3DFACE
8
A2
10
0.8648
20
2.3960
30
-1.2591
11
0.9609
21
2.4235
31
-1.2600
12
0.9884
22
2.3274
32
-1.3273
13
0.8923
23
2.2999
33
-1.3264
0
3DFACE
8
A2
10
0.9609
20
2.4235
30
-1.2600
11
1.0570
21
2.4511
31
-1.2609
12
1.0846
22
2.3549
32
-1.3282
13
0.9884
23
2.3274
33
-1.3273
0
3DFACE
8
A2
10
1.0570
20
2.4511
30
-1.2609
11
1.1532
21
2.4786
31
-1.2616
12
1.1807
22
2.3824
32
-1.3289
13
1.0846
23
2.3549
33
-1.3282
0
3DFACE
8
A2
10
1.1532
20
2.4786
30
-1.2616
11
1.2493
21
2.5061
31
-1.2621
12
1.2768
22
2.4099
32
-1.3294
13
1.1807
23
2.3824
33
-1.3289
0
3DFACE
8
A2
10
-4.0109
20
0.8967
30
-1.2977
11
-3.9147
21
0.9242
31
-1.3014
12
-3.8872
22
0.8281
32
-1.3694
13
-3.9834
23
0.8006
33
-1.3660
0
3DFACE
8
A2
10
-3.9147
20
0.9242
30
-1.3014
11
-3.8186
21
0.9517
31
-1.3064
12
-3.7911
22
0.8556
32
-1.3740
13
-3.8872
23
0.8281
33
-1.3694
0
3DFACE
8
A2
10
-3.8186
20
0.9517
30
-1.3064
11
-3.7225
21
0.9792
31
-1.3125
12
-3.6950
22
0.8831
32
-1.3796
13
-3.7911
23
0.8556
33
-1.3740
0
3DFACE
8
A2
10
-3.7225
20
0.9792
30
-1.3125
11
-3.6263
21
1.0068
31
-1.3146
12
-3.5988
22
0.9106
32
-1.3810
13
-3.6950
23
0.8831
33
-1.3796
0
3DFACE
8
A2
10
-3.6263
20
1.0068
30
-1.3146
11
-3.5302
21
1.0343
31
-1.3126
12
-3.5027
22
0.9381
32
-1.3778
13
-3.5988
23
0.9106
33
-1.3810
0
3DFACE
8
A2
10
-3.5302
20
1.0343
30
-1.3126
11
-3.4340
21
1.0618
31
-1.3063
12
-3.4065
22
0.9656
32
-1.3702
13
-3.5027
23
0.9381
33
-1.3778
0
3DFACE
8
A2
10
-3.4340
20
1.0618
30
-1.3063
11
-3.3379
21
1.0893
31
-1.2958
12
-3.3104
22
0.9932
32
-1.3581
13
-3.4065
23
0.9656
33
-1.3702
0
3DFACE
8
A2
10
-3.3379
20
1.0893
30
-1.2958
11
-3.2418
21
1.1168
31
-1.2806
12
-3.2142
22
1.0207
32
-1.3414
13
-3.3104
23
0.9932
33
-1.3581
0
3DFACE
8
A2
10
-3.2418
20
1.1168
30
-1.2806
11
-3.1456
21
1.1443
31
-1.2691
12
-3.1181
22
1.0482
32
-1.3301
13
-3.2142
23
1.0207
33
-1.3414
0
3DFACE
8
A2
10
-3.1456
20
1.1443
30
-1.2691
11
-3.0495
21
1.1718
31
-1.2611
12
-3.0220
22
1.0757
32
-1.3241
13
-3.1181
23
1.0482
33
-1.3301
0
3DFACE
8
A2
10
-3.0495
20
1.1718
30
-1.2611
11
-2.9533
21
1.1993
31
-1.2569
12
-2.9258
22
1.1032
32
-1.3236
13
-3.0220
23
1.0757
33
-1.3241
0
3DFACE
8
A2
10
-2.9533
20
1.1993
30
-1.2569
11
-2.8572
21
1.2269
31
-1.2572
12
-2.8297
22
1.1307
32
-1.3290
13
-2.9258
23
1.1032
33
-1.3236
0
3DFACE
8
A2
10
-2.8572
20
1.2269
30
-1.2572
11
-2.7611
21
1.2544
31
-1.2639
12
-2.7335
22
1.1582
32
-1.3407
13
-2.8297
23
1.1307
33
-1.3290
0
3DFACE
8
A2
10
-2.7611
20
1.2544
30
-1.2639
11
-2.6649
21
1.2819
31
-1.2707
12
-2.6374
22
1.1857
32
-1.3488
13
-2.7335
23
1.1582
33
-1.3407
0
3DFACE
8
A2
10
-2.6649
20
1.2819
30
-1.2707
11
-2.5688
21
1.3094
31
-1.2770
12
-2.5413
22
1.2133
32
-1.3575
13
-2.6374
23
1.1857
33
-1.3488
0
3DFACE
8
A2
10
-2.5688
20
1.3094
30
-1.2770
11
-2.4726
21
1.3369
31
-1.2863
12
-2.4451
22
1.2408
32
-1.3662
13
-2.5413
23
1.2133
33
-1.3575
0
3DFACE
8
A2
10
-2.4726
20
1.3369
30
-1.2863
11
-2.3765
21
1.3644
31
-1.2926
12
-2.3490
22
1.2683
32
-1.3724
13
-2.4451
23
1.2408
33
-1.3662
0
3DFACE
8
A2
10
-2.3765
20
1.3644
30
-1.2926
11
-2.2804
21
1.3919
31
-1.2975
12
-2.2528
22
1.2958
32
-1.3765
13
-2.3490
23
1.2683
33
-1.3724
0
3DFACE
8
A2
10
-2.2804
20
1.3919
30
-1.2975
11
-2.1842
21
1.4195
31
-1.3022
12
-2.1567
22
1.3233
32
-1.3833
13
-2.2528
23
1.2958
33
-1.3765
0
3DFACE
8
A2
10
-2.1842
20
1.4195
30
-1.3022
11
-2.0881
21
1.4470
31
-1.3078
12
-2.0606
22
1.3508
32
-1.3886
13
-2.1567
23
1.3233
33
-1.3833
0
3DFACE
8
A2
10
-2.0881
20
1.4470
30
-1.3078
11
-1.9919
21
1.4745
31
-1.3110
12
-1.9644
22
1.3783
32
-1.3933
13
-2.0606
23
1.3508
33
-1.3886
0
3DFACE
8
A2
10
-1.9919
20
1.4745
30
-1.3110
11
-1.8958
21
1.5020
31
-1.3165
12
-1.8683
22
1.4059
32
-1.3990
13
-1.9644
23
1.3783
33
-1.3933
0
3DFACE
8
A2
10
-1.8958
20
1.5020
30
-1.3165
11
-1.7997
21
1.5295
31
-1.3209
12
-1.7721
22
1.4334
32
-1.4049
13
-1.8683
23
1.4059
33
-1.3990
0
3DFACE
8
A2
10
-1.7997
20
1.5295
30
-1.3209
11
-1.7035
21
1.5570
31
-1.3250
12
-1.6760
22
1.4609
32
-1.4104
13
-1.7721
23
1.4334
33
-1.4049
0
3DFACE
8
A2
10
-1.7035
20
1.5570
30
-1.3250
11
-1.6074
21
1.5845
31
-1.3300
12
-1.5799
22
1.4884
32
-1.4157
13
-1.6760
23
1.4609
33
-1.4104
0
3DFACE
8
A2
10
-1.6074
20
1.5845
30
-1.3300
11
-1.5112
21
1.6120
31
-1.3350
12
-1.4837
22
1.5159
32
-1.4225
13
-1.5799
23
1.4884
33
-1.4157
0
3DFACE
8
A2
10
-1.5112
20
1.6120
30
-1.3350
11
-1.4151
21
1.6396
31
-1.3380
12
-1.3876
22
1.5434
32
-1.4278
13
-1.4837
23
1.5159
33
-1.4225
0
3DFACE
8
A2
10
-1.4151
20
1.6396
30
-1.3380
11
-1.3190
21
1.6671
31
-1.3419
12
-1.2914
22
1.5709
32
-1.4299
13
-1.3876
23
1.5434
33
-1.4278
0
3DFACE
8
A2
10
-1.3190
20
1.6671
30
-1.3419
11
-1.2228
21
1.6946
31
-1.3533
12
-1.1953
22
1.5984
32
-1.4405
13
-1.2914
23
1.5709
33
-1.4299
0
3DFACE
8
A2
10
-1.2228
20
1.6946
30
-1.3533
11
-1.1267
21
1.7221
31
-1.3608
12
-1.0992
22
1.6260
32
-1.4481
13
-1.1953
23
1.5984
33
-1.4405
0
3DFACE
8
A2
10
-1.1267
20
1.7221
30
-1.3608
11
-1.0305
21
1.7496
31
-1.3654
12
-1.0030
22
1.6535
32
-1.4510
13
-1.0992
23
1.6260
33
-1.4481
0
3DFACE
8
A2
10
-1.0305
20
1.7496
30
-1.3654
11
-0.9344
21
1.7771
31
-1.3694
12
-0.9069
22
1.6810
32
-1.4525
13
-1.0030
23
1.6535
33
-1.4510
0
3DFACE
8
A2
10
-0.9344
20
1.7771
30
-1.3694
11
-0.8382
21
1.8046
31
-1.3704
12
-0.8107
22
1.7085
32
-1.4543
13
-0.9069
23
1.6810
33
-1.4525
0
3DFACE
8
A2
10
-0.8382
20
1.8046
30
-1.3704
11
-0.7421
21
1.8322
31
-1.3609
12
-0.7146
22
1.7360
32
-1.4450
13
-0.8107
23
1.7085
33
-1.4543
0
3DFACE
8
A2
10
-0.7421
20
1.8322
30
-1.3609
11
-0.6460
21
1.8597
31
-1.3513
12
-0.6185
22
1.7635
32
-1.4356
13
-0.7146
23
1.7360
33
-1.4450
0
3DFACE
8
A2
10
-0.6460
20
1.8597
30
-1.3513
11
-0.5498
21
1.8872
31
-1.3417
12
-0.5223
22
1.7910
32
-1.4260
13
-0.6185
23
1.7635
33
-1.4356
0
3DFACE
8
A2
10
-0.5498
20
1.8872
30
-1.3417
11
-0.4537
21
1.9147
31
-1.3322
12
-0.4262
22
1.8186
32
-1.4163
13
-0.5223
23
1.7910
33
-1.4260
0
3DFACE
8
A2
10
-0.4537
20
1.9147
30
-1.3322
11
-0.3575
21
1.9422
31
-1.3227
12
-0.3300
22
1.8461
32
-1.4065
13
-0.4262
23
1.8186
33
-1.4163
0
3DFACE
8
A2
10
-0.3575
20
1.9422
30
-1.3227
11
-0.2614
21
1.9697
31
-1.3128
12
-0.2339
22
1.8736
32
-1.3952
13
-0.3300
23
1.8461
33
-1.4065
0
3DFACE
8
A2
10
-0.2614
20
1.9697
30
-1.3128
11
-0.1653
21
1.9972
31
-1.3031
12
-0.1378
22
1.9011
32
-1.3841
13
-0.2339
23
1.8736
33
-1.3952
0
3DFACE
8
A2
10
-0.1653
20
1.9972
30
-1.3031
11
-0.0691
21
2.0248
31
-1.2935
12
-0.0416
22
1.9286
32
-1.3731
13
-0.1378
23
1.9011
33
-1.3841
0
3DFACE
8
A2
10
-0.0691
20
2.0248
30
-1.2935
11
0.0270
21
2.0523
31
-1.2852
12
0.0545
22
1.9561
32
-1.3630
13
-0.0416
23
1.9286
33
-1.3731
0
3DFACE
8
A2
10
0.0270
20
2.0523
30
-1.2852
11
0.1232
21
2.0798
31
-1.2777
12
0.1507
22
1.9836
32
-1.3515
13
0.0545
23
1.9561
33
-1.3630
0
3DFACE
8
A2
10
0.1232
20
2.0798
30
-1.2777
11
0.2193
21
2.1073
31
-1.2840
12
0.2468
22
2.0112
32
-1.3554
13
0.1507
23
1.9836
33
-1.3515
0
3DFACE
8
A2
10
0.2193
20
2.1073
30
-1.2840
11
0.3154
21
2.1348
31
-1.2921
12
0.3430
22
2.0387
32
-1.3613
13
0.2468
23
2.0112
33
-1.3554
0
3DFACE
8
A2
10
0.3154
20
2.1348
30
-1.2921
11
0.4116
21
2.1623
31
-1.3019
12
0.4391
22
2.0662
32
-1.3692
13
0.3430
23
2.0387
33
-1.3613
0
3DFACE
8
A2
10
0.4116
20
2.1623
30
-1.3019
11
0.5077
21
2.1898
31
-1.3123
12
0.5352
22
2.0937
32
-1.3784
13
0.4391
23
2.0662
33
-1.3692
0
3DFACE
8
A2
10
0.5077
20
2.1898
30
-1.3123
11
0.6039
21
2.2173
31
-1.3237
12
0.6314
22
2.1212
32
-1.3910
13
0.5352
23
2.0937
33
-1.3784
0
3DFACE
8
A2
10
0.6039
20
2.2173
30
-1.3237
11
0.7000
21
2.2449
31
-1.3246
12
0.7275
22
2.1487
32
-1.3919
13
0.6314
23
2.1212
33
-1.3910
0
3DFACE
8
A2
10
0.7000
20
2.2449
30
-1.3246
11
0.7961
21
2.2724
31
-1.3255
12
0.8237
22
2.1762
32
-1.3928
13
0.7275
23
2.1487
33
-1.3919
0
3DFACE
8
A2
10
0.7961
20
2.2724
30
-1.3255
11
0.8923
21
2.2999
31
-1.3264
12
0.9198
22
2.2037
32
-1.3937
13
0.8237
23
2.1762
33
-1.3928
0
3DFACE
8
A2
10
0.8923
20
2.2999
30
-1.3264
11
0.9884
21
2.3274
31
-1.3273
12
1.0159
22
2.2313
32
-1.3946
13
0.9198
23
2.2037
33
-1.3937
0
3DFACE
8
A2
10
0.9884
20
2.3274
30
-1.3273
11
1.0846
21
2.3549
31
-1.3282
12
1.1121
22
2.2588
32
-1.3955
13
1.0159
23
2.2313
33
-1.3946
0
3DFACE
8
A2
10
1.0846
20
2.3549
30
-1.3282
11
1.1807
21
2.3824
31
-1.3289
12
1.2082
22
2.2863
32
-1.3962
13
1.1121
23
2.2588
33
-1.3955
0
3DFACE
8
A2
10
1.1807
20
2.3824
30
-1.3289
11
1.2768
21
2.4099
31
-1.3294
12
1.3044
22
2.3138
32
-1.3968
13
1.2082
23
2.2863
33
-1.3962
0
3DFACE
8
A2
10
-3.9834
20
0.8006
30
-1.3660
11
-3.8872
21
0.8281
31
-1.3694
12
-3.8597
22
0.7319
32
-1.4375
13
-3.9559
23
0.7044
33
-1.4350
0
3DFACE
8
A2
10
-3.8872
20
0.8281
30
-1.3694
11
-3.7911
21
0.8556
31
-1.3740
12
-3.7636
22
0.7594
32
-1.4405
13
-3.8597
23
0.7319
33
-1.4375
0
3DFACE
8
A2
10
-3.7911
20
0.8556
30
-1.3740
11
-3.6950
21
0.8831
31
-1.3796
12
-3.6674
22
0.7870
32
-1.4446
13
-3.7636
23
0.7594
33
-1.4405
0
3DFACE
8
A2
10
-3.6950
20
0.8831
30
-1.3796
11
-3.5988
21
0.9106
31
-1.3810
12
-3.5713
22
0.8145
32
-1.4451
13
-3.6674
23
0.7870
33
-1.4446
0
3DFACE
8
A2
10
-3.5988
20
0.9106
30
-1.3810
11
-3.5027
21
0.9381
31
-1.3778
12
-3.4752
22
0.8420
32
-1.4418
13
-3.5713
23
0.8145
33
-1.4451
0
3DFACE
8
A2
10
-3.5027
20
0.9381
30
-1.3778
11
-3.4065
21
0.9656
31
-1.3702
12
-3.3790
22
0.8695
32
-1.4350
13
-3.4752
23
0.8420
33
-1.4418
0
3DFACE
8
A2
10
-3.4065
20
0.9656
30
-1.3702
11
-3.3104
21
0.9932
31
-1.3581
12
-3.2829
22
0.8970
32
-1.4244
13
-3.3790
23
0.8695
33
-1.4350
0
3DFACE
8
A2
10
-3.3104
20
0.9932
30
-1.3581
11
-3.2142
21
1.0207
31
-1.3414
12
-3.1867
22
0.9245
32
-1.4096
13
-3.2829
23
0.8970
33
-1.4244
0
3DFACE
8
A2
10
-3.2142
20
1.0207
30
-1.3414
11
-3.1181
21
1.0482
31
-1.3301
12
-3.0906
22
0.9520
32
-1.3992
13
-3.1867
23
0.9245
33
-1.4096
0
3DFACE
8
A2
10
-3.1181
20
1.0482
30
-1.3301
11
-3.0220
21
1.0757
31
-1.3241
12
-2.9945
22
0.9796
32
-1.3938
13
-3.0906
23
0.9520
33
-1.3992
0
3DFACE
8
A2
10
-3.0220
20
1.0757
30
-1.3241
11
-2.9258
21
1.1032
31
-1.3236
12
-2.8983
22
1.0071
32
-1.3936
13
-2.9945
23
0.9796
33
-1.3938
0
3DFACE
8
A2
10
-2.9258
20
1.1032
30
-1.3236
11
-2.8297
21
1.1307
31
-1.3290
12
-2.8022
22
1.0346
32
-1.3991
13
-2.8983
23
1.0071
33
-1.3936
0
3DFACE
8
A2
10
-2.8297
20
1.1307
30
-1.3290
11
-2.7335
21
1.1582
31
-1.3407
12
-2.7060
22
1.0621
32
-1.4107
13
-2.8022
23
1.0346
33
-1.3991
0
3DFACE
8
A2
10
-2.7335
20
1.1582
30
-1.3407
11
-2.6374
21
1.1857
31
-1.3488
12
-2.6099
22
1.0896
32
-1.4222
13
-2.7060
23
1.0621
33
-1.4107
0
3DFACE
8
A2
10
-2.6374
20
1.1857
30
-1.3488
11
-2.5413
21
1.2133
31
-1.3575
12
-2.5138
22
1.1171
32
-1.4344
13
-2.6099
23
1.0896
33
-1.4222
0
3DFACE
8
A2
10
-2.5413
20
1.2133
30
-1.3575
11
-2.4451
21
1.2408
31
-1.3662
12
-2.4176
22
1.1446
32
-1.4445
13
-2.5138
23
1.1171
33
-1.4344
0
3DFACE
8
A2
10
-2.4451
20
1.2408
30
-1.3662
11
-2.3490
21
1.2683
31
-1.3724
12
-2.3215
22
1.1721
32
-1.4527
13
-2.4176
23
1.1446
33
-1.4445
0
3DFACE
8
A2
10
-2.3490
20
1.2683
30
-1.3724
11
-2.2528
21
1.2958
31
-1.3765
12
-2.2253
22
1.1997
32
-1.4593
13
-2.3215
23
1.1721
33
-1.4527
0
3DFACE
8
A2
10
-2.2528
20
1.2958
30
-1.3765
11
-2.1567
21
1.3233
31
-1.3833
12
-2.1292
22
1.2272
32
-1.4651
13
-2.2253
23
1.1997
33
-1.4593
0
3DFACE
8
A2
10
-2.1567
20
1.3233
30
-1.3833
11
-2.0606
21
1.3508
31
-1.3886
12
-2.0330
22
1.2547
32
-1.4696
13
-2.1292
23
1.2272
33
-1.4651
0
3DFACE
8
A2
10
-2.0606
20
1.3508
30
-1.3886
11
-1.9644
21
1.3783
31
-1.3933
12
-1.9369
22
1.2822
32
-1.4752
13
-2.0330
23
1.2547
33
-1.4696
0
3DFACE
8
A2
10
-1.9644
20
1.3783
30
-1.3933
11
-1.8683
21
1.4059
31
-1.3990
12
-1.8408
22
1.3097
32
-1.4815
13
-1.9369
23
1.2822
33
-1.4752
0
3DFACE
8
A2
10
-1.8683
20
1.4059
30
-1.3990
11
-1.7721
21
1.4334
31
-1.4049
12
-1.7446
22
1.3372
32
-1.4878
13
-1.8408
23
1.3097
33
-1.4815
0
3DFACE
8
A2
10
-1.7721
20
1.4334
30
-1.4049
11
-1.6760
21
1.4609
31
-1.4104
12
-1.6485
22
1.3647
32
-1.4940
13
-1.7446
23
1.3372
33
-1.4878
0
3DFACE
8
A2
10
-1.6760
20
1.4609
30
-1.4104
11
-1.5799
21
1.4884
31
-1.4157
12
-1.5523
22
1.3923
32
-1.4999
13
-1.6485
23
1.3647
33
-1.4940
0
3DFACE
8
A2
10
-1.5799
20
1.4884
30
-1.4157
11
-1.4837
21
1.5159
31
-1.4225
12
-1.4562
22
1.4198
32
-1.5064
13
-1.5523
23
1.3923
33
-1.4999
0
3DFACE
8
A2
10
-1.4837
20
1.5159
30
-1.4225
11
-1.3876
21
1.5434
31
-1.4278
12
-1.3601
22
1.4473
32
-1.5149
13
-1.4562
23
1.4198
33
-1.5064
0
3DFACE
8
A2
10
-1.3876
20
1.5434
30
-1.4278
11
-1.2914
21
1.5709
31
-1.4299
12
-1.2639
22
1.4748
32
-1.5219
13
-1.3601
23
1.4473
33
-1.5149
0
3DFACE
8
A2
10
-1.2914
20
1.5709
30
-1.4299
11
-1.1953
21
1.5984
31
-1.4405
12
-1.1678
22
1.5023
32
-1.5309
13
-1.2639
23
1.4748
33
-1.5219
0
3DFACE
8
A2
10
-1.1953
20
1.5984
30
-1.4405
11
-1.0992
21
1.6260
31
-1.4481
12
-1.0716
22
1.5298
32
-1.5369
13
-1.1678
23
1.5023
33
-1.5309
0
3DFACE
8
A2
10
-1.0992
20
1.6260
30
-1.4481
11
-1.0030
21
1.6535
31
-1.4510
12
-0.9755
22
1.5573
32
-1.5393
13
-1.0716
23
1.5298
33
-1.5369
0
3DFACE
8
A2
10
-1.0030
20
1.6535
30
-1.4510
11
-0.9069
21
1.6810
31
-1.4525
12
-0.8794
22
1.5848
32
-1.5364
13
-0.9755
23
1.5573
33
-1.5393
0
3DFACE
8
A2
10
-0.9069
20
1.6810
30
-1.4525
11
-0.8107
21
1.7085
31
-1.4543
12
-0.7832
22
1.6124
32
-1.5319
13
-0.8794
23
1.5848
33
-1.5364
0
3DFACE
8
A2
10
-0.8107
20
1.7085
30
-1.4543
11
-0.7146
21
1.7360
31
-1.4450
12
-0.6871
22
1.6399
32
-1.5222
13
-0.7832
23
1.6124
33
-1.5319
0
3DFACE
8
A2
10
-0.7146
20
1.7360
30
-1.4450
11
-0.6185
21
1.7635
31
-1.4356
12
-0.5909
22
1.6674
32
-1.5124
13
-0.6871
23
1.6399
33
-1.5222
0
3DFACE
8
A2
10
-0.6185
20
1.7635
30
-1.4356
11
-0.5223
21
1.7910
31
-1.4260
12
-0.4948
22
1.6949
32
-1.5024
13
-0.5909
23
1.6674
33
-1.5124
0
3DFACE
8
A2
10
-0.5223
20
1.7910
30
-1.4260
11
-0.4262
21
1.8186
31
-1.4163
12
-0.3987
22
1.7224
32
-1.4923
13
-0.4948
23
1.6949
33
-1.5024
0
3DFACE
8
A2
10
-0.4262
20
1.8186
30
-1.4163
11
-0.3300
21
1.8461
31
-1.4065
12
-0.3025
22
1.7499
32
-1.4821
13
-0.3987
23
1.7224
33
-1.4923
0
3DFACE
8
A2
10
-0.3300
20
1.8461
30
-1.4065
11
-0.2339
21
1.8736
31
-1.3952
12
-0.2064
22
1.7774
32
-1.4719
13
-0.3025
23
1.7499
33
-1.4821
0
3DFACE
8
A2
10
-0.2339
20
1.8736
30
-1.3952
11
-0.1378
21
1.9011
31
-1.3841
12
-0.1102
22
1.8050
32
-1.4616
13
-0.2064
23
1.7774
33
-1.4719
0
3DFACE
8
A2
10
-0.1378
20
1.9011
30
-1.3841
11
-0.0416
21
1.9286
31
-1.3731
12
-0.0141
22
1.8325
32
-1.4514
13
-0.1102
23
1.8050
33
-1.4616
0
3DFACE
8
A2
10
-0.0416
20
1.9286
30
-1.3731
11
0.0545
21
1.9561
31
-1.3630
12
0.0820
22
1.8600
32
-1.4420
13
-0.0141
23
1.8325
33
-1.4514
0
3DFACE
8
A2
10
0.0545
20
1.9561
30
-1.3630
11
0.1507
21
1.9836
31
-1.3515
12
0.1782
22
1.8875
32
-1.4305
13
0.0820
23
1.8600
33
-1.4420
0
3DFACE
8
A2
10
0.1507
20
1.9836
30
-1.3515
11
0.2468
21
2.0112
31
-1.3554
12
0.2743
22
1.9150
32
-1.4315
13
0.1782
23
1.8875
33
-1.4305
0
3DFACE
8
A2
10
0.2468
20
2.0112
30
-1.3554
11
0.3430
21
2.0387
31
-1.3613
12
0.3705
22
1.9425
32
-1.4348
13
0.2743
23
1.9150
33
-1.4315
0
3DFACE
8
A2
10
0.3430
20
2.0387
30
-1.3613
11
0.4391
21
2.0662
31
-1.3692
12
0.4666
22
1.9700
32
-1.4403
13
0.3705
23
1.9425
33
-1.4348
0
3DFACE
8
A2
10
0.4391
20
2.0662
30
-1.3692
11
0.5352
21
2.0937
31
-1.3784
12
0.5627
22
1.9976
32
-1.4472
13
0.4666
23
1.9700
33
-1.4403
0
3DFACE
8
A2
10
0.5352
20
2.0937
30
-1.3784
11
0.6314
21
2.1212
31
-1.3910
12
0.6589
22
2.0251
32
-1.4584
13
0.5627
23
1.9976
33
-1.4472
0
3DFACE
8
A2
10
0.6314
20
2.1212
30
-1.3910
11
0.7275
21
2.1487
31
-1.3919
12
0.7550
22
2.0526
32
-1.4593
13
0.6589
23
2.0251
33
-1.4584
0
3DFACE
8
A2
10
0.7275
20
2.1487
30
-1.3919
11
0.8237
21
2.1762
31
-1.3928
12
0.8512
22
2.0801
32
-1.4601
13
0.7550
23
2.0526
33
-1.4593
0
3DFACE
8
A2
10
0.8237
20
2.1762
30
-1.3928
11
0.9198
21
2.2037
31
-1.3937
12
0.9473
22
2.1076
32
-1.4610
13
0.8512
23
2.0801
33
-1.4601
0
3DFACE
8
A2
10
0.9198
20
2.2037
30
-1.3937
11
1.0159
21
2.2313
31
-1.3946
12
1.0434
22
2.1351
32
-1.4619
13
0.9473
23
2.1076
33
-1.4610
0
3DFACE
8
A2
10
1.0159
20
2.2313
30
-1.3946
11
1.1121
21
2.2588
31
-1.3955
12
1.1396
22
2.1626
32
-1.4628
13
1.0434
23
2.1351
33
-1.4619
0
3DFACE
8
A2
10
1.1121
20
2.2588
30
-1.3955
11
1.2082
21
2.2863
31
-1.3962
12
1.2357
22
2.1901
32
-1.4636
13
1.1396
23
2.1626
33
-1.4628
0
3DFACE
8
A2
10
1.2082
20
2.2863
30
-1.3962
11
1.3044
21
2.3138
31
-1.3968
12
1.3319
22
2.2177
32
-1.4641
13
1.2357
23
2.1901
33
-1.4636
0
3DFACE
8
A2
10
-3.9559
20
0.7044
30
-1.4350
11
-3.8597
21
0.7319
31
-1.4375
12
-3.8322
22
0.6358
32
-1.4980
13
-3.9283
23
0.6083
33
-1.4973
0
3DFACE
8
A2
10
-3.8597
20
0.7319
30
-1.4375
11
-3.7636
21
0.7594
31
-1.4405
12
-3.7361
22
0.6633
32
-1.4992
13
-3.8322
23
0.6358
33
-1.4980
0
3DFACE
8
A2
10
-3.7636
20
0.7594
30
-1.4405
11
-3.6674
21
0.7870
31
-1.4446
12
-3.6399
22
0.6908
32
-1.5012
13
-3.7361
23
0.6633
33
-1.4992
0
3DFACE
8
A2
10
-3.6674
20
0.7870
30
-1.4446
11
-3.5713
21
0.8145
31
-1.4451
12
-3.5438
22
0.7183
32
-1.5016
13
-3.6399
23
0.6908
33
-1.5012
0
3DFACE
8
A2
10
-3.5713
20
0.8145
30
-1.4451
11
-3.4752
21
0.8420
31
-1.4418
12
-3.4476
22
0.7458
32
-1.4998
13
-3.5438
23
0.7183
33
-1.5016
0
3DFACE
8
A2
10
-3.4752
20
0.8420
30
-1.4418
11
-3.3790
21
0.8695
31
-1.4350
12
-3.3515
22
0.7734
32
-1.4954
13
-3.4476
23
0.7458
33
-1.4998
0
3DFACE
8
A2
10
-3.3790
20
0.8695
30
-1.4350
11
-3.2829
21
0.8970
31
-1.4244
12
-3.2554
22
0.8009
32
-1.4878
13
-3.3515
23
0.7734
33
-1.4954
0
3DFACE
8
A2
10
-3.2829
20
0.8970
30
-1.4244
11
-3.1867
21
0.9245
31
-1.4096
12
-3.1592
22
0.8284
32
-1.4764
13
-3.2554
23
0.8009
33
-1.4878
0
3DFACE
8
A2
10
-3.1867
20
0.9245
30
-1.4096
11
-3.0906
21
0.9520
31
-1.3992
12
-3.0631
22
0.8559
32
-1.4692
13
-3.1592
23
0.8284
33
-1.4764
0
3DFACE
8
A2
10
-3.0906
20
0.9520
30
-1.3992
11
-2.9945
21
0.9796
31
-1.3938
12
-2.9669
22
0.8834
32
-1.4667
13
-3.0631
23
0.8559
33
-1.4692
0
3DFACE
8
A2
10
-2.9945
20
0.9796
30
-1.3938
11
-2.8983
21
1.0071
31
-1.3936
12
-2.8708
22
0.9109
32
-1.4693
13
-2.9669
23
0.8834
33
-1.4667
0
3DFACE
8
A2
10
-2.8983
20
1.0071
30
-1.3936
11
-2.8022
21
1.0346
31
-1.3991
12
-2.7747
22
0.9384
32
-1.4777
13
-2.8708
23
0.9109
33
-1.4693
0
3DFACE
8
A2
10
-2.8022
20
1.0346
30
-1.3991
11
-2.7060
21
1.0621
31
-1.4107
12
-2.6785
22
0.9660
32
-1.4925
13
-2.7747
23
0.9384
33
-1.4777
0
3DFACE
8
A2
10
-2.7060
20
1.0621
30
-1.4107
11
-2.6099
21
1.0896
31
-1.4222
12
-2.5824
22
0.9935
32
-1.5065
13
-2.6785
23
0.9660
33
-1.4925
0
3DFACE
8
A2
10
-2.6099
20
1.0896
30
-1.4222
11
-2.5138
21
1.1171
31
-1.4344
12
-2.4862
22
1.0210
32
-1.5179
13
-2.5824
23
0.9935
33
-1.5065
0
3DFACE
8
A2
10
-2.5138
20
1.1171
30
-1.4344
11
-2.4176
21
1.1446
31
-1.4445
12
-2.3901
22
1.0485
32
-1.5272
13
-2.4862
23
1.0210
33
-1.5179
0
3DFACE
8
A2
10
-2.4176
20
1.1446
30
-1.4445
11
-2.3215
21
1.1721
31
-1.4527
12
-2.2940
22
1.0760
32
-1.5345
13
-2.3901
23
1.0485
33
-1.5272
0
3DFACE
8
A2
10
-2.3215
20
1.1721
30
-1.4527
11
-2.2253
21
1.1997
31
-1.4593
12
-2.1978
22
1.1035
32
-1.5397
13
-2.2940
23
1.0760
33
-1.5345
0
3DFACE
8
A2
10
-2.2253
20
1.1997
30
-1.4593
11
-2.1292
21
1.2272
31
-1.4651
12
-2.1017
22
1.1310
32
-1.5443
13
-2.1978
23
1.1035
33
-1.5397
0
3DFACE
8
A2
10
-2.1292
20
1.2272
30
-1.4651
11
-2.0330
21
1.2547
31
-1.4696
12
-2.0055
22
1.1585
32
-1.5500
13
-2.1017
23
1.1310
33
-1.5443
0
3DFACE
8
A2
10
-2.0330
20
1.2547
30
-1.4696
11
-1.9369
21
1.2822
31
-1.4752
12
-1.9094
22
1.1861
32
-1.5563
13
-2.0055
23
1.1585
33
-1.5500
0
3DFACE
8
A2
10
-1.9369
20
1.2822
30
-1.4752
11
-1.8408
21
1.3097
31
-1.4815
12
-1.8133
22
1.2136
32
-1.5627
13
-1.9094
23
1.1861
33
-1.5563
0
3DFACE
8
A2
10
-1.8408
20
1.3097
30
-1.4815
11
-1.7446
21
1.3372
31
-1.4878
12
-1.7171
22
1.2411
32
-1.5691
13
-1.8133
23
1.2136
33
-1.5627
0
3DFACE
8
A2
10
-1.7446
20
1.3372
30
-1.4878
11
-1.6485
21
1.3647
31
-1.4940
12
-1.6210
22
1.2686
32
-1.5754
13
-1.7171
23
1.2411
33
-1.5691
0
3DFACE
8
A2
10
-1.6485
20
1.3647
30
-1.4940
11
-1.5523
21
1.3923
31
-1.4999
12
-1.5248
22
1.2961
32
-1.5817
13
-1.6210
23
1.2686
33
-1.5754
0
3DFACE
8
A2
10
-1.5523
20
1.3923
30
-1.4999
11
-1.4562
21
1.4198
31
-1.5064
12
-1.4287
22
1.3236
32
-1.5881
13
-1.5248
23
1.2961
33
-1.5817
0
3DFACE
8
A2
10
-1.4562
20
1.4198
30
-1.5064
11
-1.3601
21
1.4473
31
-1.5149
12
-1.3326
22
1.3511
32
-1.5956
13
-1.4287
23
1.3236
33
-1.5881
0
3DFACE
8
A2
10
-1.3601
20
1.4473
30
-1.5149
11
-1.2639
21
1.4748
31
-1.5219
12
-1.2364
22
1.3787
32
-1.6059
13
-1.3326
23
1.3511
33
-1.5956
0
3DFACE
8
A2
10
-1.2639
20
1.4748
30
-1.5219
11
-1.1678
21
1.5023
31
-1.5309
12
-1.1403
22
1.4062
32
-1.6129
13
-1.2364
23
1.3787
33
-1.6059
0
3DFACE
8
A2
10
-1.1678
20
1.5023
30
-1.5309
11
-1.0716
21
1.5298
31
-1.5369
12
-1.0441
22
1.4337
32
-1.6167
13
-1.1403
23
1.4062
33
-1.6129
0
3DFACE
8
A2
10
-1.0716
20
1.5298
30
-1.5369
11
-0.9755
21
1.5573
31
-1.5393
12
-0.9480
22
1.4612
32
-1.6172
13
-1.0441
23
1.4337
33
-1.6167
0
3DFACE
8
A2
10
-0.9755
20
1.5573
30
-1.5393
11
-0.8794
21
1.5848
31
-1.5364
12
-0.8518
22
1.4887
32
-1.6134
13
-0.9480
23
1.4612
33
-1.6172
0
3DFACE
8
A2
10
-0.8794
20
1.5848
30
-1.5364
11
-0.7832
21
1.6124
31
-1.5319
12
-0.7557
22
1.5162
32
-1.6035
13
-0.8518
23
1.4887
33
-1.6134
0
3DFACE
8
A2
10
-0.7832
20
1.6124
30
-1.5319
11
-0.6871
21
1.6399
31
-1.5222
12
-0.6596
22
1.5437
32
-1.5934
13
-0.7557
23
1.5162
33
-1.6035
0
3DFACE
8
A2
10
-0.6871
20
1.6399
30
-1.5222
11
-0.5909
21
1.6674
31
-1.5124
12
-0.5634
22
1.5712
32
-1.5832
13
-0.6596
23
1.5437
33
-1.5934
0
3DFACE
8
A2
10
-0.5909
20
1.6674
30
-1.5124
11
-0.4948
21
1.6949
31
-1.5024
12
-0.4673
22
1.5988
32
-1.5729
13
-0.5634
23
1.5712
33
-1.5832
0
3DFACE
8
A2
10
-0.4948
20
1.6949
30
-1.5024
11
-0.3987
21
1.7224
31
-1.4923
12
-0.3711
22
1.6263
32
-1.5624
13
-0.4673
23
1.5988
33
-1.5729
0
3DFACE
8
A2
10
-0.3987
20
1.7224
30
-1.4923
11
-0.3025
21
1.7499
31
-1.4821
12
-0.2750
22
1.6538
32
-1.5518
13
-0.3711
23
1.6263
33
-1.5624
0
3DFACE
8
A2
10
-0.3025
20
1.7499
30
-1.4821
11
-0.2064
21
1.7774
31
-1.4719
12
-0.1789
22
1.6813
32
-1.5411
13
-0.2750
23
1.6538
33
-1.5518
0
3DFACE
8
A2
10
-0.2064
20
1.7774
30
-1.4719
11
-0.1102
21
1.8050
31
-1.4616
12
-0.0827
22
1.7088
32
-1.5305
13
-0.1789
23
1.6813
33
-1.5411
0
3DFACE
8
A2
10
-0.1102
20
1.8050
30
-1.4616
11
-0.0141
21
1.8325
31
-1.4514
12
0.0134
22
1.7363
32
-1.5199
13
-0.0827
23
1.7088
33
-1.5305
0
3DFACE
8
A2
10
-0.0141
20
1.8325
30
-1.4514
11
0.0820
21
1.8600
31
-1.4420
12
0.1096
22
1.7638
32
-1.5093
13
0.0134
23
1.7363
33
-1.5199
0
3DFACE
8
A2
10
0.0820
20
1.8600
30
-1.4420
11
0.1782
21
1.8875
31
-1.4305
12
0.2057
22
1.7914
32
-1.4987
13
0.1096
23
1.7638
33
-1.5093
0
3DFACE
8
A2
10
0.1782
20
1.8875
30
-1.4305
11
0.2743
21
1.9150
31
-1.4315
12
0.3018
22
1.8189
32
-1.4995
13
0.2057
23
1.7914
33
-1.4987
0
3DFACE
8
A2
10
0.2743
20
1.9150
30
-1.4315
11
0.3705
21
1.9425
31
-1.4348
12
0.3980
22
1.8464
32
-1.5026
13
0.3018
23
1.8189
33
-1.4995
0
3DFACE
8
A2
10
0.3705
20
1.9425
30
-1.4348
11
0.4666
21
1.9700
31
-1.4403
12
0.4941
22
1.8739
32
-1.5080
13
0.3980
23
1.8464
33
-1.5026
0
3DFACE
8
A2
10
0.4666
20
1.9700
30
-1.4403
11
0.5627
21
1.9976
31
-1.4472
12
0.5903
22
1.9014
32
-1.5157
13
0.4941
23
1.8739
33
-1.5080
0
3DFACE
8
A2
10
0.5627
20
1.9976
30
-1.4472
11
0.6589
21
2.0251
31
-1.4584
12
0.6864
22
1.9289
32
-1.5257
13
0.5903
23
1.9014
33
-1.5157
0
3DFACE
8
A2
10
0.6589
20
2.0251
30
-1.4584
11
0.7550
21
2.0526
31
-1.4593
12
0.7825
22
1.9564
32
-1.5266
13
0.6864
23
1.9289
33
-1.5257
0
3DFACE
8
A2
10
0.7550
20
2.0526
30
-1.4593
11
0.8512
21
2.0801
31
-1.4601
12
0.8787
22
1.9840
32
-1.5275
13
0.7825
23
1.9564
33
-1.5266
0
3DFACE
8
A2
10
0.8512
20
2.0801
30
-1.4601
11
0.9473
21
2.1076
31
-1.4610
12
0.9748
22
2.0115
32
-1.5284
13
0.8787
23
1.9840
33
-1.5275
0
3DFACE
8
A2
10
0.9473
20
2.1076
30
-1.4610
11
1.0434
21
2.1351
31
-1.4619
12
1.0710
22
2.0390
32
-1.5293
13
0.9748
23
2.0115
33
-1.5284
0
3DFACE
8
A2
10
1.0434
20
2.1351
30
-1.4619
11
1.1396
21
2.1626
31
-1.4628
12
1.1671
22
2.0665
32
-1.5302
13
1.0710
23
2.0390
33
-1.5293
0
3DFACE
8
A2
10
1.1396
20
2.1626
30
-1.4628
11
1.2357
21
2.1901
31
-1.4636
12
1.2632
22
2.0940
32
-1.5309
13
1.1671
23
2.0665
33
-1.5302
0
3DFACE
8
A2
10
1.2357
20
2.1901
30
-1.4636
11
1.3319
21
2.2177
31
-1.4641
12
1.3594
22
2.1215
32
-1.5314
13
1.2632
23
2.0940
33
-1.5309
0
3DFACE
8
A2
10
-3.9283
20
0.6083
30
-1.4973
11
-3.8322
21
0.6358
31
-1.4980
12
-3.8047
22
0.5396
32
-1.5607
13
-3.9008
23
0.5121
33
-1.5604
0
3DFACE
8
A2
10
-3.8322
20
0.6358
30
-1.4980
11
-3.7361
21
0.6633
31
-1.4992
12
-3.7086
22
0.5672
32
-1.5613
13
-3.8047
23
0.5396
33
-1.5607
0
3DFACE
8
A2
10
-3.7361
20
0.6633
30
-1.4992
11
-3.6399
21
0.6908
31
-1.5012
12
-3.6124
22
0.5947
32
-1.5625
13
-3.7086
23
0.5672
33
-1.5613
0
3DFACE
8
A2
10
-3.6399
20
0.6908
30
-1.5012
11
-3.5438
21
0.7183
31
-1.5016
12
-3.5163
22
0.6222
32
-1.5629
13
-3.6124
23
0.5947
33
-1.5625
0
3DFACE
8
A2
10
-3.5438
20
0.7183
30
-1.5016
11
-3.4476
21
0.7458
31
-1.4998
12
-3.4201
22
0.6497
32
-1.5620
13
-3.5163
23
0.6222
33
-1.5629
0
3DFACE
8
A2
10
-3.4476
20
0.7458
30
-1.4998
11
-3.3515
21
0.7734
31
-1.4954
12
-3.3240
22
0.6772
32
-1.5593
13
-3.4201
23
0.6497
33
-1.5620
0
3DFACE
8
A2
10
-3.3515
20
0.7734
30
-1.4954
11
-3.2554
21
0.8009
31
-1.4878
12
-3.2278
22
0.7047
32
-1.5542
13
-3.3240
23
0.6772
33
-1.5593
0
3DFACE
8
A2
10
-3.2554
20
0.8009
30
-1.4878
11
-3.1592
21
0.8284
31
-1.4764
12
-3.1317
22
0.7322
32
-1.5462
13
-3.2278
23
0.7047
33
-1.5542
0
3DFACE
8
A2
10
-3.1592
20
0.8284
30
-1.4764
11
-3.0631
21
0.8559
31
-1.4692
12
-3.0356
22
0.7598
32
-1.5418
13
-3.1317
23
0.7322
33
-1.5462
0
3DFACE
8
A2
10
-3.0631
20
0.8559
30
-1.4692
11
-2.9669
21
0.8834
31
-1.4667
12
-2.9394
22
0.7873
32
-1.5415
13
-3.0356
23
0.7598
33
-1.5418
0
3DFACE
8
A2
10
-2.9669
20
0.8834
30
-1.4667
11
-2.8708
21
0.9109
31
-1.4693
12
-2.8433
22
0.8148
32
-1.5458
13
-2.9394
23
0.7873
33
-1.5415
0
3DFACE
8
A2
10
-2.8708
20
0.9109
30
-1.4693
11
-2.7747
21
0.9384
31
-1.4777
12
-2.7471
22
0.8423
32
-1.5548
13
-2.8433
23
0.8148
33
-1.5458
0
3DFACE
8
A2
10
-2.7747
20
0.9384
30
-1.4777
11
-2.6785
21
0.9660
31
-1.4925
12
-2.6510
22
0.8698
32
-1.5688
13
-2.7471
23
0.8423
33
-1.5548
0
3DFACE
8
A2
10
-2.6785
20
0.9660
30
-1.4925
11
-2.5824
21
0.9935
31
-1.5065
12
-2.5549
22
0.8973
32
-1.5798
13
-2.6510
23
0.8698
33
-1.5688
0
3DFACE
8
A2
10
-2.5824
20
0.9935
30
-1.5065
11
-2.4862
21
1.0210
31
-1.5179
12
-2.4587
22
0.9248
32
-1.5884
13
-2.5549
23
0.8973
33
-1.5798
0
3DFACE
8
A2
10
-2.4862
20
1.0210
30
-1.5179
11
-2.3901
21
1.0485
31
-1.5272
12
-2.3626
22
0.9524
32
-1.5950
13
-2.4587
23
0.9248
33
-1.5884
0
3DFACE
8
A2
10
-2.3901
20
1.0485
30
-1.5272
11
-2.2940
21
1.0760
31
-1.5345
12
-2.2664
22
0.9799
32
-1.6000
13
-2.3626
23
0.9524
33
-1.5950
0
3DFACE
8
A2
10
-2.2940
20
1.0760
30
-1.5345
11
-2.1978
21
1.1035
31
-1.5397
12
-2.1703
22
1.0074
32
-1.6033
13
-2.2664
23
0.9799
33
-1.6000
0
3DFACE
8
A2
10
-2.1978
20
1.1035
30
-1.5397
11
-2.1017
21
1.1310
31
-1.5443
12
-2.0742
22
1.0349
32
-1.6079
13
-2.1703
23
1.0074
33
-1.6033
0
3DFACE
8
A2
10
-2.1017
20
1.1310
30
-1.5443
11
-2.0055
21
1.1585
31
-1.5500
12
-1.9780
22
1.0624
32
-1.6131
13
-2.0742
23
1.0349
33
-1.6079
0
3DFACE
8
A2
10
-2.0055
20
1.1585
30
-1.5500
11
-1.9094
21
1.1861
31
-1.5563
12
-1.8819
22
1.0899
32
-1.6185
13
-1.9780
23
1.0624
33
-1.6131
0
3DFACE
8
A2
10
-1.9094
20
1.1861
30
-1.5563
11
-1.8133
21
1.2136
31
-1.5627
12
-1.7857
22
1.1174
32
-1.6238
13
-1.8819
23
1.0899
33
-1.6185
0
3DFACE
8
A2
10
-1.8133
20
1.2136
30
-1.5627
11
-1.7171
21
1.2411
31
-1.5691
12
-1.6896
22
1.1449
32
-1.6291
13
-1.7857
23
1.1174
33
-1.6238
0
3DFACE
8
A2
10
-1.7171
20
1.2411
30
-1.5691
11
-1.6210
21
1.2686
31
-1.5754
12
-1.5935
22
1.1725
32
-1.6343
13
-1.6896
23
1.1449
33
-1.6291
0
3DFACE
8
A2
10
-1.6210
20
1.2686
30
-1.5754
11
-1.5248
21
1.2961
31
-1.5817
12
-1.4973
22
1.2000
32
-1.6396
13
-1.5935
23
1.1725
33
-1.6343
0
3DFACE
8
A2
10
-1.5248
20
1.2961
30
-1.5817
11
-1.4287
21
1.3236
31
-1.5881
12
-1.4012
22
1.2275
32
-1.6449
13
-1.4973
23
1.2000
33
-1.6396
0
3DFACE
8
A2
10
-1.4287
20
1.3236
30
-1.5881
11
-1.3326
21
1.3511
31
-1.5956
12
-1.3050
22
1.2550
32
-1.6507
13
-1.4012
23
1.2275
33
-1.6449
0
3DFACE
8
A2
10
-1.3326
20
1.3511
30
-1.5956
11
-1.2364
21
1.3787
31
-1.6059
12
-1.2089
22
1.2825
32
-1.6581
13
-1.3050
23
1.2550
33
-1.6507
0
3DFACE
8
A2
10
-1.2364
20
1.3787
30
-1.6059
11
-1.1403
21
1.4062
31
-1.6129
12
-1.1128
22
1.3100
32
-1.6629
13
-1.2089
23
1.2825
33
-1.6581
0
3DFACE
8
A2
10
-1.1403
20
1.4062
30
-1.6129
11
-1.0441
21
1.4337
31
-1.6167
12
-1.0166
22
1.3375
32
-1.6650
13
-1.1128
23
1.3100
33
-1.6629
0
3DFACE
8
A2
10
-1.0441
20
1.4337
30
-1.6167
11
-0.9480
21
1.4612
31
-1.6172
12
-0.9205
22
1.3651
32
-1.6645
13
-1.0166
23
1.3375
33
-1.6650
0
3DFACE
8
A2
10
-0.9480
20
1.4612
30
-1.6172
11
-0.8518
21
1.4887
31
-1.6134
12
-0.8243
22
1.3926
32
-1.6610
13
-0.9205
23
1.3651
33
-1.6645
0
3DFACE
8
A2
10
-0.8518
20
1.4887
30
-1.6134
11
-0.7557
21
1.5162
31
-1.6035
12
-0.7282
22
1.4201
32
-1.6531
13
-0.8243
23
1.3926
33
-1.6610
0
3DFACE
8
A2
10
-0.7557
20
1.5162
30
-1.6035
11
-0.6596
21
1.5437
31
-1.5934
12
-0.6321
22
1.4476
32
-1.6453
13
-0.7282
23
1.4201
33
-1.6531
0
3DFACE
8
A2
10
-0.6596
20
1.5437
30
-1.5934
11
-0.5634
21
1.5712
31
-1.5832
12
-0.5359
22
1.4751
32
-1.6374
13
-0.6321
23
1.4476
33
-1.6453
0
3DFACE
8
A2
10
-0.5634
20
1.5712
30
-1.5832
11
-0.4673
21
1.5988
31
-1.5729
12
-0.4398
22
1.5026
32
-1.6296
13
-0.5359
23
1.4751
33
-1.6374
0
3DFACE
8
A2
10
-0.4673
20
1.5988
30
-1.5729
11
-0.3711
21
1.6263
31
-1.5624
12
-0.3436
22
1.5301
32
-1.6218
13
-0.4398
23
1.5026
33
-1.6296
0
3DFACE
8
A2
10
-0.3711
20
1.6263
30
-1.5624
11
-0.2750
21
1.6538
31
-1.5518
12
-0.2475
22
1.5576
32
-1.6139
13
-0.3436
23
1.5301
33
-1.6218
0
3DFACE
8
A2
10
-0.2750
20
1.6538
30
-1.5518
11
-0.1789
21
1.6813
31
-1.5411
12
-0.1514
22
1.5852
32
-1.6061
13
-0.2475
23
1.5576
33
-1.6139
0
3DFACE
8
A2
10
-0.1789
20
1.6813
30
-1.5411
11
-0.0827
21
1.7088
31
-1.5305
12
-0.0552
22
1.6127
32
-1.5982
13
-0.1514
23
1.5852
33
-1.6061
0
3DFACE
8
A2
10
-0.0827
20
1.7088
30
-1.5305
11
0.0134
21
1.7363
31
-1.5199
12
0.0409
22
1.6402
32
-1.5904
13
-0.0552
23
1.6127
33
-1.5982
0
3DFACE
8
A2
10
0.0134
20
1.7363
30
-1.5199
11
0.1096
21
1.7638
31
-1.5093
12
0.1371
22
1.6677
32
-1.5825
13
0.0409
23
1.6402
33
-1.5904
0
3DFACE
8
A2
10
0.1096
20
1.7638
30
-1.5093
11
0.2057
21
1.7914
31
-1.4987
12
0.2332
22
1.6952
32
-1.5747
13
0.1371
23
1.6677
33
-1.5825
0
3DFACE
8
A2
10
0.2057
20
1.7914
30
-1.4987
11
0.3018
21
1.8189
31
-1.4995
12
0.3294
22
1.7227
32
-1.5749
13
0.2332
23
1.6952
33
-1.5747
0
3DFACE
8
A2
10
0.3018
20
1.8189
30
-1.4995
11
0.3980
21
1.8464
31
-1.5026
12
0.4255
22
1.7502
32
-1.5768
13
0.3294
23
1.7227
33
-1.5749
0
3DFACE
8
A2
10
0.3980
20
1.8464
30
-1.5026
11
0.4941
21
1.8739
31
-1.5080
12
0.5216
22
1.7778
32
-1.5804
13
0.4255
23
1.7502
33
-1.5768
0
3DFACE
8
A2
10
0.4941
20
1.8739
30
-1.5080
11
0.5903
21
1.9014
31
-1.5157
12
0.6178
22
1.8053
32
-1.5858
13
0.5216
23
1.7778
33
-1.5804
0
3DFACE
8
A2
10
0.5903
20
1.9014
30
-1.5157
11
0.6864
21
1.9289
31
-1.5257
12
0.7139
22
1.8328
32
-1.5930
13
0.6178
23
1.8053
33
-1.5858
0
3DFACE
8
A2
10
0.6864
20
1.9289
30
-1.5257
11
0.7825
21
1.9564
31
-1.5266
12
0.8101
22
1.8603
32
-1.5939
13
0.7139
23
1.8328
33
-1.5930
0
3DFACE
8
A2
10
0.7825
20
1.9564
30
-1.5266
11
0.8787
21
1.9840
31
-1.5275
12
0.9062
22
1.8878
32
-1.5948
13
0.8101
23
1.8603
33
-1.5939
0
3DFACE
8
A2
10
0.8787
20
1.9840
30
-1.5275
11
0.9748
21
2.0115
31
-1.5284
12
1.0023
22
1.9153
32
-1.5957
13
0.9062
23
1.8878
33
-1.5948
0
3DFACE
8
A2
10
0.9748
20
2.0115
30
-1.5284
11
1.0710
21
2.0390
31
-1.5293
12
1.0985
22
1.9428
32
-1.5966
13
1.0023
23
1.9153
33
-1.5957
0
3DFACE
8
A2
10
1.0710
20
2.0390
30
-1.5293
11
1.1671
21
2.0665
31
-1.5302
12
1.1946
22
1.9704
32
-1.5975
13
1.0985
23
1.9428
33
-1.5966
0
3DFACE
8
A2
10
1.1671
20
2.0665
30
-1.5302
11
1.2632
21
2.0940
31
-1.5309
12
1.2908
22
1.9979
32
-1.5982
13
1.1946
23
1.9704
33
-1.5975
0
3DFACE
8
A2
10
1.2632
20
2.0940
30
-1.5309
11
1.3594
21
2.1215
31
-1.5314
12
1.3869
22
2.0254
32
-1.5987
13
1.2908
23
1.9979
33
-1.5982
0
3DFACE
8
A2
10
-3.9008
20
0.5121
30
-1.5604
11
-3.8047
21
0.5396
31
-1.5607
12
-3.7772
22
0.4435
32
-1.6238
13
-3.8733
23
0.4160
33
-1.6241
0
3DFACE
8
A2
10
-3.8047
20
0.5396
30
-1.5607
11
-3.7086
21
0.5672
31
-1.5613
12
-3.6810
22
0.4710
32
-1.6237
13
-3.7772
23
0.4435
33
-1.6238
0
3DFACE
8
A2
10
-3.7086
20
0.5672
30
-1.5613
11
-3.6124
21
0.5947
31
-1.5625
12
-3.5849
22
0.4985
32
-1.6240
13
-3.6810
23
0.4710
33
-1.6237
0
3DFACE
8
A2
10
-3.6124
20
0.5947
30
-1.5625
11
-3.5163
21
0.6222
31
-1.5629
12
-3.4888
22
0.5260
32
-1.6243
13
-3.5849
23
0.4985
33
-1.6240
0
3DFACE
8
A2
10
-3.5163
20
0.6222
30
-1.5629
11
-3.4201
21
0.6497
31
-1.5620
12
-3.3926
22
0.5536
32
-1.6241
13
-3.4888
23
0.5260
33
-1.6243
0
3DFACE
8
A2
10
-3.4201
20
0.6497
30
-1.5620
11
-3.3240
21
0.6772
31
-1.5593
12
-3.2965
22
0.5811
32
-1.6231
13
-3.3926
23
0.5536
33
-1.6241
0
3DFACE
8
A2
10
-3.3240
20
0.6772
30
-1.5593
11
-3.2278
21
0.7047
31
-1.5542
12
-3.2003
22
0.6086
32
-1.6205
13
-3.2965
23
0.5811
33
-1.6231
0
3DFACE
8
A2
10
-3.2278
20
0.7047
30
-1.5542
11
-3.1317
21
0.7322
31
-1.5462
12
-3.1042
22
0.6361
32
-1.6158
13
-3.2003
23
0.6086
33
-1.6205
0
3DFACE
8
A2
10
-3.1317
20
0.7322
30
-1.5462
11
-3.0356
21
0.7598
31
-1.5418
12
-3.0081
22
0.6636
32
-1.6135
13
-3.1042
23
0.6361
33
-1.6158
0
3DFACE
8
A2
10
-3.0356
20
0.7598
30
-1.5418
11
-2.9394
21
0.7873
31
-1.5415
12
-2.9119
22
0.6911
32
-1.6139
13
-3.0081
23
0.6636
33
-1.6135
0
3DFACE
8
A2
10
-2.9394
20
0.7873
30
-1.5415
11
-2.8433
21
0.8148
31
-1.5458
12
-2.8158
22
0.7186
32
-1.6175
13
-2.9119
23
0.6911
33
-1.6139
0
3DFACE
8
A2
10
-2.8433
20
0.8148
30
-1.5458
11
-2.7471
21
0.8423
31
-1.5548
12
-2.7196
22
0.7462
32
-1.6245
13
-2.8158
23
0.7186
33
-1.6175
0
3DFACE
8
A2
10
-2.7471
20
0.8423
30
-1.5548
11
-2.6510
21
0.8698
31
-1.5688
12
-2.6235
22
0.7737
32
-1.6352
13
-2.7196
23
0.7462
33
-1.6245
0
3DFACE
8
A2
10
-2.6510
20
0.8698
30
-1.5688
11
-2.5549
21
0.8973
31
-1.5798
12
-2.5274
22
0.8012
32
-1.6438
13
-2.6235
23
0.7737
33
-1.6352
0
3DFACE
8
A2
10
-2.5549
20
0.8973
30
-1.5798
11
-2.4587
21
0.9248
31
-1.5884
12
-2.4312
22
0.8287
32
-1.6510
13
-2.5274
23
0.8012
33
-1.6438
0
3DFACE
8
A2
10
-2.4587
20
0.9248
30
-1.5884
11
-2.3626
21
0.9524
31
-1.5950
12
-2.3351
22
0.8562
32
-1.6568
13
-2.4312
23
0.8287
33
-1.6510
0
3DFACE
8
A2
10
-2.3626
20
0.9524
30
-1.5950
11
-2.2664
21
0.9799
31
-1.6000
12
-2.2389
22
0.8837
32
-1.6614
13
-2.3351
23
0.8562
33
-1.6568
0
3DFACE
8
A2
10
-2.2664
20
0.9799
30
-1.6000
11
-2.1703
21
1.0074
31
-1.6033
12
-2.1428
22
0.9112
32
-1.6649
13
-2.2389
23
0.8837
33
-1.6614
0
3DFACE
8
A2
10
-2.1703
20
1.0074
30
-1.6033
11
-2.0742
21
1.0349
31
-1.6079
12
-2.0466
22
0.9388
32
-1.6690
13
-2.1428
23
0.9112
33
-1.6649
0
3DFACE
8
A2
10
-2.0742
20
1.0349
30
-1.6079
11
-1.9780
21
1.0624
31
-1.6131
12
-1.9505
22
0.9663
32
-1.6733
13
-2.0466
23
0.9388
33
-1.6690
0
3DFACE
8
A2
10
-1.9780
20
1.0624
30
-1.6131
11
-1.8819
21
1.0899
31
-1.6185
12
-1.8544
22
0.9938
32
-1.6776
13
-1.9505
23
0.9663
33
-1.6733
0
3DFACE
8
A2
10
-1.8819
20
1.0899
30
-1.6185
11
-1.7857
21
1.1174
31
-1.6238
12
-1.7582
22
1.0213
32
-1.6818
13
-1.8544
23
0.9938
33
-1.6776
0
3DFACE
8
A2
10
-1.7857
20
1.1174
30
-1.6238
11
-1.6896
21
1.1449
31
-1.6291
12
-1.6621
22
1.0488
32
-1.6860
13
-1.7582
23
1.0213
33
-1.6818
0
3DFACE
8
A2
10
-1.6896
20
1.1449
30
-1.6291
11
-1.5935
21
1.1725
31
-1.6343
12
-1.5659
22
1.0763
32
-1.6902
13
-1.6621
23
1.0488
33
-1.6860
0
3DFACE
8
A2
10
-1.5935
20
1.1725
30
-1.6343
11
-1.4973
21
1.2000
31
-1.6396
12
-1.4698
22
1.1038
32
-1.6944
13
-1.5659
23
1.0763
33
-1.6902
0
3DFACE
8
A2
10
-1.4973
20
1.2000
30
-1.6396
11
-1.4012
21
1.2275
31
-1.6449
12
-1.3737
22
1.1313
32
-1.6986
13
-1.4698
23
1.1038
33
-1.6944
0
3DFACE
8
A2
10
-1.4012
20
1.2275
30
-1.6449
11
-1.3050
21
1.2550
31
-1.6507
12
-1.2775
22
1.1589
32
-1.7028
13
-1.3737
23
1.1313
33
-1.6986
0
3DFACE
8
A2
10
-1.3050
20
1.2550
30
-1.6507
11
-1.2089
21
1.2825
31
-1.6581
12
-1.1814
22
1.1864
32
-1.7080
13
-1.2775
23
1.1589
33
-1.7028
0
3DFACE
8
A2
10
-1.2089
20
1.2825
30
-1.6581
11
-1.1128
21
1.3100
31
-1.6629
12
-1.0852
22
1.2139
32
-1.7111
13
-1.1814
23
1.1864
33
-1.7080
0
3DFACE
8
A2
10
-1.1128
20
1.3100
30
-1.6629
11
-1.0166
21
1.3375
31
-1.6650
12
-0.9891
22
1.2414
32
-1.7122
13
-1.0852
23
1.2139
33
-1.7111
0
3DFACE
8
A2
10
-1.0166
20
1.3375
30
-1.6650
11
-0.9205
21
1.3651
31
-1.6645
12
-0.8930
22
1.2689
32
-1.7113
13
-0.9891
23
1.2414
33
-1.7122
0
3DFACE
8
A2
10
-0.9205
20
1.3651
30
-1.6645
11
-0.8243
21
1.3926
31
-1.6610
12
-0.7968
22
1.2964
32
-1.7084
13
-0.8930
23
1.2689
33
-1.7113
0
3DFACE
8
A2
10
-0.8243
20
1.3926
30
-1.6610
11
-0.7282
21
1.4201
31
-1.6531
12
-0.7007
22
1.3239
32
-1.7025
13
-0.7968
23
1.2964
33
-1.7084
0
3DFACE
8
A2
10
-0.7282
20
1.4201
30
-1.6531
11
-0.6321
21
1.4476
31
-1.6453
12
-0.6045
22
1.3515
32
-1.6967
13
-0.7007
23
1.3239
33
-1.7025
0
3DFACE
8
A2
10
-0.6321
20
1.4476
30
-1.6453
11
-0.5359
21
1.4751
31
-1.6374
12
-0.5084
22
1.3790
32
-1.6909
13
-0.6045
23
1.3515
33
-1.6967
0
3DFACE
8
A2
10
-0.5359
20
1.4751
30
-1.6374
11
-0.4398
21
1.5026
31
-1.6296
12
-0.4123
22
1.4065
32
-1.6851
13
-0.5084
23
1.3790
33
-1.6909
0
3DFACE
8
A2
10
-0.4398
20
1.5026
30
-1.6296
11
-0.3436
21
1.5301
31
-1.6218
12
-0.3161
22
1.4340
32
-1.6793
13
-0.4123
23
1.4065
33
-1.6851
0
3DFACE
8
A2
10
-0.3436
20
1.5301
30
-1.6218
11
-0.2475
21
1.5576
31
-1.6139
12
-0.2200
22
1.4615
32
-1.6735
13
-0.3161
23
1.4340
33
-1.6793
0
3DFACE
8
A2
10
-0.2475
20
1.5576
30
-1.6139
11
-0.1514
21
1.5852
31
-1.6061
12
-0.1238
22
1.4890
32
-1.6677
13
-0.2200
23
1.4615
33
-1.6735
0
3DFACE
8
A2
10
-0.1514
20
1.5852
30
-1.6061
11
-0.0552
21
1.6127
31
-1.5982
12
-0.0277
22
1.5165
32
-1.6619
13
-0.1238
23
1.4890
33
-1.6677
0
3DFACE
8
A2
10
-0.0552
20
1.6127
30
-1.5982
11
0.0409
21
1.6402
31
-1.5904
12
0.0684
22
1.5440
32
-1.6561
13
-0.0277
23
1.5165
33
-1.6619
0
3DFACE
8
A2
10
0.0409
20
1.6402
30
-1.5904
11
0.1371
21
1.6677
31
-1.5825
12
0.1646
22
1.5716
32
-1.6503
13
0.0684
23
1.5440
33
-1.6561
0
3DFACE
8
A2
10
0.1371
20
1.6677
30
-1.5825
11
0.2332
21
1.6952
31
-1.5747
12
0.2607
22
1.5991
32
-1.6445
13
0.1646
23
1.5716
33
-1.6503
0
3DFACE
8
A2
10
0.2332
20
1.6952
30
-1.5747
11
0.3294
21
1.7227
31
-1.5749
12
0.3569
22
1.6266
32
-1.6450
13
0.2607
23
1.5991
33
-1.6445
0
3DFACE
8
A2
10
0.3294
20
1.7227
30
-1.5749
11
0.4255
21
1.7502
31
-1.5768
12
0.4530
22
1.6541
32
-1.6468
13
0.3569
23
1.6266
33
-1.6450
0
3DFACE
8
A2
10
0.4255
20
1.7502
30
-1.5768
11
0.5216
21
1.7778
31
-1.5804
12
0.5491
22
1.6816
32
-1.6500
13
0.4530
23
1.6541
33
-1.6468
0
3DFACE
8
A2
10
0.5216
20
1.7778
30
-1.5804
11
0.6178
21
1.8053
31
-1.5858
12
0.6453
22
1.7091
32
-1.6545
13
0.5491
23
1.6816
33
-1.6500
0
3DFACE
8
A2
10
0.6178
20
1.8053
30
-1.5858
11
0.7139
21
1.8328
31
-1.5930
12
0.7414
22
1.7366
32
-1.6603
13
0.6453
23
1.7091
33
-1.6545
0
3DFACE
8
A2
10
0.7139
20
1.8328
30
-1.5930
11
0.8101
21
1.8603
31
-1.5939
12
0.8376
22
1.7642
32
-1.6612
13
0.7414
23
1.7366
33
-1.6603
0
3DFACE
8
A2
10
0.8101
20
1.8603
30
-1.5939
11
0.9062
21
1.8878
31
-1.5948
12
0.9337
22
1.7917
32
-1.6621
13
0.8376
23
1.7642
33
-1.6612
0
3DFACE
8
A2
10
0.9062
20
1.8878
30
-1.5948
11
1.0023
21
1.9153
31
-1.5957
12
1.0298
22
1.8192
32
-1.6630
13
0.9337
23
1.7917
33
-1.6621
0
3DFACE
8
A2
10
1.0023
20
1.9153
30
-1.5957
11
1.0985
21
1.9428
31
-1.5966
12
1.1260
22
1.8467
32
-1.6639
13
1.0298
23
1.8192
33
-1.6630
0
3DFACE
8
A2
10
1.0985
20
1.9428
30
-1.5966
11
1.1946
21
1.9704
31
-1.5975
12
1.2221
22
1.8742
32
-1.6648
13
1.1260
23
1.8467
33
-1.6639
0
3DFACE
8
A2
10
1.1946
20
1.9704
30
-1.5975
11
1.2908
21
1.9979
31
-1.5982
12
1.3183
22
1.9017
32
-1.6655
13
1.2221
23
1.8742
33
-1.6648
0
3DFACE
8
A2
10
1.2908
20
1.9979
30
-1.5982
11
1.3869
21
2.0254
31
-1.5987
12
1.4144
22
1.9292
32
-1.6661
13
1.3183
23
1.9017
33
-1.6655
0
3DFACE
8
A2
10
-3.8733
20
0.4160
30
-1.6241
11
-3.7772
21
0.4435
31
-1.6238
12
-3.7497
22
0.3474
32
-1.6866
13
-3.8458
23
0.3199
33
-1.6873
0
3DFACE
8
A2
10
-3.7772
20
0.4435
30
-1.6238
11
-3.6810
21
0.4710
31
-1.6237
12
-3.6535
22
0.3749
32
-1.6859
13
-3.7497
23
0.3474
33
-1.6866
0
3DFACE
8
A2
10
-3.6810
20
0.4710
30
-1.6237
11
-3.5849
21
0.4985
31
-1.6240
12
-3.5574
22
0.4024
32
-1.6855
13
-3.6535
23
0.3749
33
-1.6859
0
3DFACE
8
A2
10
-3.5849
20
0.4985
30
-1.6240
11
-3.4888
21
0.5260
31
-1.6243
12
-3.4612
22
0.4299
32
-1.6859
13
-3.5574
23
0.4024
33
-1.6855
0
3DFACE
8
A2
10
-3.4888
20
0.5260
30
-1.6243
11
-3.3926
21
0.5536
31
-1.6241
12
-3.3651
22
0.4574
32
-1.6865
13
-3.4612
23
0.4299
33
-1.6859
0
3DFACE
8
A2
10
-3.3926
20
0.5536
30
-1.6241
11
-3.2965
21
0.5811
31
-1.6231
12
-3.2690
22
0.4849
32
-1.6871
13
-3.3651
23
0.4574
33
-1.6865
0
3DFACE
8
A2
10
-3.2965
20
0.5811
30
-1.6231
11
-3.2003
21
0.6086
31
-1.6205
12
-3.1728
22
0.5124
32
-1.6868
13
-3.2690
23
0.4849
33
-1.6871
0
3DFACE
8
A2
10
-3.2003
20
0.6086
30
-1.6205
11
-3.1042
21
0.6361
31
-1.6158
12
-3.0767
22
0.5400
32
-1.6852
13
-3.1728
23
0.5124
33
-1.6868
0
3DFACE
8
A2
10
-3.1042
20
0.6361
30
-1.6158
11
-3.0081
21
0.6636
31
-1.6135
12
-2.9805
22
0.5675
32
-1.6847
13
-3.0767
23
0.5400
33
-1.6852
0
3DFACE
8
A2
10
-3.0081
20
0.6636
30
-1.6135
11
-2.9119
21
0.6911
31
-1.6139
12
-2.8844
22
0.5950
32
-1.6857
13
-2.9805
23
0.5675
33
-1.6847
0
3DFACE
8
A2
10
-2.9119
20
0.6911
30
-1.6139
11
-2.8158
21
0.7186
31
-1.6175
12
-2.7883
22
0.6225
32
-1.6885
13
-2.8844
23
0.5950
33
-1.6857
0
3DFACE
8
A2
10
-2.8158
20
0.7186
30
-1.6175
11
-2.7196
21
0.7462
31
-1.6245
12
-2.6921
22
0.6500
32
-1.6935
13
-2.7883
23
0.6225
33
-1.6885
0
3DFACE
8
A2
10
-2.7196
20
0.7462
30
-1.6245
11
-2.6235
21
0.7737
31
-1.6352
12
-2.5960
22
0.6775
32
-1.7008
13
-2.6921
23
0.6500
33
-1.6935
0
3DFACE
8
A2
10
-2.6235
20
0.7737
30
-1.6352
11
-2.5274
21
0.8012
31
-1.6438
12
-2.4998
22
0.7050
32
-1.7071
13
-2.5960
23
0.6775
33
-1.7008
0
3DFACE
8
A2
10
-2.5274
20
0.8012
30
-1.6438
11
-2.4312
21
0.8287
31
-1.6510
12
-2.4037
22
0.7326
32
-1.7126
13
-2.4998
23
0.7050
33
-1.7071
0
3DFACE
8
A2
10
-2.4312
20
0.8287
30
-1.6510
11
-2.3351
21
0.8562
31
-1.6568
12
-2.3076
22
0.7601
32
-1.7172
13
-2.4037
23
0.7326
33
-1.7126
0
3DFACE
8
A2
10
-2.3351
20
0.8562
30
-1.6568
11
-2.2389
21
0.8837
31
-1.6614
12
-2.2114
22
0.7876
32
-1.7210
13
-2.3076
23
0.7601
33
-1.7172
0
3DFACE
8
A2
10
-2.2389
20
0.8837
30
-1.6614
11
-2.1428
21
0.9112
31
-1.6649
12
-2.1153
22
0.8151
32
-1.7241
13
-2.2114
23
0.7876
33
-1.7210
0
3DFACE
8
A2
10
-2.1428
20
0.9112
30
-1.6649
11
-2.0466
21
0.9388
31
-1.6690
12
-2.0191
22
0.8426
32
-1.7273
13
-2.1153
23
0.8151
33
-1.7241
0
3DFACE
8
A2
10
-2.0466
20
0.9388
30
-1.6690
11
-1.9505
21
0.9663
31
-1.6733
12
-1.9230
22
0.8701
32
-1.7305
13
-2.0191
23
0.8426
33
-1.7273
0
3DFACE
8
A2
10
-1.9505
20
0.9663
30
-1.6733
11
-1.8544
21
0.9938
31
-1.6776
12
-1.8269
22
0.8976
32
-1.7337
13
-1.9230
23
0.8701
33
-1.7305
0
3DFACE
8
A2
10
-1.8544
20
0.9938
30
-1.6776
11
-1.7582
21
1.0213
31
-1.6818
12
-1.7307
22
0.9252
32
-1.7368
13
-1.8269
23
0.8976
33
-1.7337
0
3DFACE
8
A2
10
-1.7582
20
1.0213
30
-1.6818
11
-1.6621
21
1.0488
31
-1.6860
12
-1.6346
22
0.9527
32
-1.7399
13
-1.7307
23
0.9252
33
-1.7368
0
3DFACE
8
A2
10
-1.6621
20
1.0488
30
-1.6860
11
-1.5659
21
1.0763
31
-1.6902
12
-1.5384
22
0.9802
32
-1.7430
13
-1.6346
23
0.9527
33
-1.7399
0
3DFACE
8
A2
10
-1.5659
20
1.0763
30
-1.6902
11
-1.4698
21
1.1038
31
-1.6944
12
-1.4423
22
1.0077
32
-1.7461
13
-1.5384
23
0.9802
33
-1.7430
0
3DFACE
8
A2
10
-1.4698
20
1.1038
30
-1.6944
11
-1.3737
21
1.1313
31
-1.6986
12
-1.3462
22
1.0352
32
-1.7492
13
-1.4423
23
1.0077
33
-1.7461
0
3DFACE
8
A2
10
-1.3737
20
1.1313
30
-1.6986
11
-1.2775
21
1.1589
31
-1.7028
12
-1.2500
22
1.0627
32
-1.7523
13
-1.3462
23
1.0352
33
-1.7492
0
3DFACE
8
A2
10
-1.2775
20
1.1589
30
-1.7028
11
-1.1814
21
1.1864
31
-1.7080
12
-1.1539
22
1.0902
32
-1.7555
13
-1.2500
23
1.0627
33
-1.7523
0
3DFACE
8
A2
10
-1.1814
20
1.1864
30
-1.7080
11
-1.0852
21
1.2139
31
-1.7111
12
-1.0577
22
1.1177
32
-1.7575
13
-1.1539
23
1.0902
33
-1.7555
0
3DFACE
8
A2
10
-1.0852
20
1.2139
30
-1.7111
11
-0.9891
21
1.2414
31
-1.7122
12
-0.9616
22
1.1453
32
-1.7581
13
-1.0577
23
1.1177
33
-1.7575
0
3DFACE
8
A2
10
-0.9891
20
1.2414
30
-1.7122
11
-0.8930
21
1.2689
31
-1.7113
12
-0.8654
22
1.1728
32
-1.7574
13
-0.9616
23
1.1453
33
-1.7581
0
3DFACE
8
A2
10
-0.8930
20
1.2689
30
-1.7113
11
-0.7968
21
1.2964
31
-1.7084
12
-0.7693
22
1.2003
32
-1.7554
13
-0.8654
23
1.1728
33
-1.7574
0
3DFACE
8
A2
10
-0.7968
20
1.2964
30
-1.7084
11
-0.7007
21
1.3239
31
-1.7025
12
-0.6732
22
1.2278
32
-1.7518
13
-0.7693
23
1.2003
33
-1.7554
0
3DFACE
8
A2
10
-0.7007
20
1.3239
30
-1.7025
11
-0.6045
21
1.3515
31
-1.6967
12
-0.5770
22
1.2553
32
-1.7482
13
-0.6732
23
1.2278
33
-1.7518
0
3DFACE
8
A2
10
-0.6045
20
1.3515
30
-1.6967
11
-0.5084
21
1.3790
31
-1.6909
12
-0.4809
22
1.2828
32
-1.7447
13
-0.5770
23
1.2553
33
-1.7482
0
3DFACE
8
A2
10
-0.5084
20
1.3790
30
-1.6909
11
-0.4123
21
1.4065
31
-1.6851
12
-0.3847
22
1.3103
32
-1.7411
13
-0.4809
23
1.2828
33
-1.7447
0
3DFACE
8
A2
10
-0.4123
20
1.4065
30
-1.6851
11
-0.3161
21
1.4340
31
-1.6793
12
-0.2886
22
1.3379
32
-1.7375
13
-0.3847
23
1.3103
33
-1.7411
0
3DFACE
8
A2
10
-0.3161
20
1.4340
30
-1.6793
11
-0.2200
21
1.4615
31
-1.6735
12
-0.1925
22
1.3654
32
-1.7339
13
-0.2886
23
1.3379
33
-1.7375
0
3DFACE
8
A2
10
-0.2200
20
1.4615
30
-1.6735
11
-0.1238
21
1.4890
31
-1.6677
12
-0.0963
22
1.3929
32
-1.7304
13
-0.1925
23
1.3654
33
-1.7339
0
3DFACE
8
A2
10
-0.1238
20
1.4890
30
-1.6677
11
-0.0277
21
1.5165
31
-1.6619
12
-0.0002
22
1.4204
32
-1.7268
13
-0.0963
23
1.3929
33
-1.7304
0
3DFACE
8
A2
10
-0.0277
20
1.5165
30
-1.6619
11
0.0684
21
1.5440
31
-1.6561
12
0.0960
22
1.4479
32
-1.7232
13
-0.0002
23
1.4204
33
-1.7268
0
3DFACE
8
A2
10
0.0684
20
1.5440
30
-1.6561
11
0.1646
21
1.5716
31
-1.6503
12
0.1921
22
1.4754
32
-1.7197
13
0.0960
23
1.4479
33
-1.7232
0
3DFACE
8
A2
10
0.1646
20
1.5716
30
-1.6503
11
0.2607
21
1.5991
31
-1.6445
12
0.2882
22
1.5029
32
-1.7161
13
0.1921
23
1.4754
33
-1.7197
0
3DFACE
8
A2
10
0.2607
20
1.5991
30
-1.6445
11
0.3569
21
1.6266
31
-1.6450
12
0.3844
22
1.5304
32
-1.7166
13
0.2882
23
1.5029
33
-1.7161
0
3DFACE
8
A2
10
0.3569
20
1.6266
30
-1.6450
11
0.4530
21
1.6541
31
-1.6468
12
0.4805
22
1.5580
32
-1.7180
13
0.3844
23
1.5304
33
-1.7166
0
3DFACE
8
A2
10
0.4530
20
1.6541
30
-1.6468
11
0.5491
21
1.6816
31
-1.6500
12
0.5767
22
1.5855
32
-1.7203
13
0.4805
23
1.5580
33
-1.7180
0
3DFACE
8
A2
10
0.5491
20
1.6816
30
-1.6500
11
0.6453
21
1.7091
31
-1.6545
12
0.6728
22
1.6130
32
-1.7235
13
0.5767
23
1.5855
33
-1.7203
0
3DFACE
8
A2
10
0.6453
20
1.7091
30
-1.6545
11
0.7414
21
1.7366
31
-1.6603
12
0.7689
22
1.6405
32
-1.7276
13
0.6728
23
1.6130
33
-1.7235
0
3DFACE
8
A2
10
0.7414
20
1.7366
30
-1.6603
11
0.8376
21
1.7642
31
-1.6612
12
0.8651
22
1.6680
32
-1.7285
13
0.7689
23
1.6405
33
-1.7276
0
3DFACE
8
A2
10
0.8376
20
1.7642
30
-1.6612
11
0.9337
21
1.7917
31
-1.6621
12
0.9612
22
1.6955
32
-1.7294
13
0.8651
23
1.6680
33
-1.7285
0
3DFACE
8
A2
10
0.9337
20
1.7917
30
-1.6621
11
1.0298
21
1.8192
31
-1.6630
12
1.0574
22
1.7230
32
-1.7303
13
0.9612
23
1.6955
33
-1.7294
0
3DFACE
8
A2
10
1.0298
20
1.8192
30
-1.6630
11
1.1260
21
1.8467
31
-1.6639
12
1.1535
22
1.7506
32
-1.7312
13
1.0574
23
1.7230
33
-1.7303
0
3DFACE
8
A2
10
1.1260
20
1.8467
30
-1.6639
11
1.2221
21
1.8742
31
-1.6648
12
1.2496
22
1.7781
32
-1.7321
13
1.1535
23
1.7506
33
-1.7312
0
3DFACE
8
A2
10
1.2221
20
1.8742
30
-1.6648
11
1.3183
21
1.9017
31
-1.6655
12
1.3458
22
1.8056
32
-1.7328
13
1.2496
23
1.7781
33
-1.7321
0
3DFACE
8
A2
10
1.3183
20
1.9017
30
-1.6655
11
1.4144
21
1.9292
31
-1.6661
12
1.4419
22
1.8331
32
-1.7334
13
1.3458
23
1.8056
33
-1.7328
0
3DFACE
8
A2
10
-3.8458
20
0.3199
30
-1.6873
11
-3.7497
21
0.3474
31
-1.6866
12
-3.7222
22
0.2512
32
-1.7362
13
-3.8183
23
0.2237
33
-1.7366
0
3DFACE
8
A2
10
-3.7497
20
0.3474
30
-1.6866
11
-3.6535
21
0.3749
31
-1.6859
12
-3.6260
22
0.2787
32
-1.7361
13
-3.7222
23
0.2512
33
-1.7362
0
3DFACE
8
A2
10
-3.6535
20
0.3749
30
-1.6859
11
-3.5574
21
0.4024
31
-1.6855
12
-3.5299
22
0.3063
32
-1.7362
13
-3.6260
23
0.2787
33
-1.7361
0
3DFACE
8
A2
10
-3.5574
20
0.4024
30
-1.6855
11
-3.4612
21
0.4299
31
-1.6859
12
-3.4337
22
0.3338
32
-1.7371
13
-3.5299
23
0.3063
33
-1.7362
0
3DFACE
8
A2
10
-3.4612
20
0.4299
30
-1.6859
11
-3.3651
21
0.4574
31
-1.6865
12
-3.3376
22
0.3613
32
-1.7386
13
-3.4337
23
0.3338
33
-1.7371
0
3DFACE
8
A2
10
-3.3651
20
0.4574
30
-1.6865
11
-3.2690
21
0.4849
31
-1.6871
12
-3.2414
22
0.3888
32
-1.7400
13
-3.3376
23
0.3613
33
-1.7386
0
3DFACE
8
A2
10
-3.2690
20
0.4849
30
-1.6871
11
-3.1728
21
0.5124
31
-1.6868
12
-3.1453
22
0.4163
32
-1.7410
13
-3.2414
23
0.3888
33
-1.7400
0
3DFACE
8
A2
10
-3.1728
20
0.5124
30
-1.6868
11
-3.0767
21
0.5400
31
-1.6852
12
-3.0492
22
0.4438
32
-1.7413
13
-3.1453
23
0.4163
33
-1.7410
0
3DFACE
8
A2
10
-3.0767
20
0.5400
30
-1.6852
11
-2.9805
21
0.5675
31
-1.6847
12
-2.9530
22
0.4713
32
-1.7422
13
-3.0492
23
0.4438
33
-1.7413
0
3DFACE
8
A2
10
-2.9805
20
0.5675
30
-1.6847
11
-2.8844
21
0.5950
31
-1.6857
12
-2.8569
22
0.4988
32
-1.7436
13
-2.9530
23
0.4713
33
-1.7422
0
3DFACE
8
A2
10
-2.8844
20
0.5950
30
-1.6857
11
-2.7883
21
0.6225
31
-1.6885
12
-2.7607
22
0.5264
32
-1.7456
13
-2.8569
23
0.4988
33
-1.7436
0
3DFACE
8
A2
10
-2.7883
20
0.6225
30
-1.6885
11
-2.6921
21
0.6500
31
-1.6935
12
-2.6646
22
0.5539
32
-1.7486
13
-2.7607
23
0.5264
33
-1.7456
0
3DFACE
8
A2
10
-2.6921
20
0.6500
30
-1.6935
11
-2.5960
21
0.6775
31
-1.7008
12
-2.5685
22
0.5814
32
-1.7526
13
-2.6646
23
0.5539
33
-1.7486
0
3DFACE
8
A2
10
-2.5960
20
0.6775
30
-1.7008
11
-2.4998
21
0.7050
31
-1.7071
12
-2.4723
22
0.6089
32
-1.7562
13
-2.5685
23
0.5814
33
-1.7526
0
3DFACE
8
A2
10
-2.4998
20
0.7050
30
-1.7071
11
-2.4037
21
0.7326
31
-1.7126
12
-2.3762
22
0.6364
32
-1.7594
13
-2.4723
23
0.6089
33
-1.7562
0
3DFACE
8
A2
10
-2.4037
20
0.7326
30
-1.7126
11
-2.3076
21
0.7601
31
-1.7172
12
-2.2800
22
0.6639
32
-1.7622
13
-2.3762
23
0.6364
33
-1.7594
0
3DFACE
8
A2
10
-2.3076
20
0.7601
30
-1.7172
11
-2.2114
21
0.7876
31
-1.7210
12
-2.1839
22
0.6914
32
-1.7647
13
-2.2800
23
0.6639
33
-1.7622
0
3DFACE
8
A2
10
-2.2114
20
0.7876
30
-1.7210
11
-2.1153
21
0.8151
31
-1.7241
12
-2.0878
22
0.7190
32
-1.7669
13
-2.1839
23
0.6914
33
-1.7647
0
3DFACE
8
A2
10
-2.1153
20
0.8151
30
-1.7241
11
-2.0191
21
0.8426
31
-1.7273
12
-1.9916
22
0.7465
32
-1.7691
13
-2.0878
23
0.7190
33
-1.7669
0
3DFACE
8
A2
10
-2.0191
20
0.8426
30
-1.7273
11
-1.9230
21
0.8701
31
-1.7305
12
-1.8955
22
0.7740
32
-1.7712
13
-1.9916
23
0.7465
33
-1.7691
0
3DFACE
8
A2
10
-1.9230
20
0.8701
30
-1.7305
11
-1.8269
21
0.8976
31
-1.7337
12
-1.7993
22
0.8015
32
-1.7733
13
-1.8955
23
0.7740
33
-1.7712
0
3DFACE
8
A2
10
-1.8269
20
0.8976
30
-1.7337
11
-1.7307
21
0.9252
31
-1.7368
12
-1.7032
22
0.8290
32
-1.7753
13
-1.7993
23
0.8015
33
-1.7733
0
3DFACE
8
A2
10
-1.7307
20
0.9252
30
-1.7368
11
-1.6346
21
0.9527
31
-1.7399
12
-1.6071
22
0.8565
32
-1.7773
13
-1.7032
23
0.8290
33
-1.7753
0
3DFACE
8
A2
10
-1.6346
20
0.9527
30
-1.7399
11
-1.5384
21
0.9802
31
-1.7430
12
-1.5109
22
0.8840
32
-1.7793
13
-1.6071
23
0.8565
33
-1.7773
0
3DFACE
8
A2
10
-1.5384
20
0.9802
30
-1.7430
11
-1.4423
21
1.0077
31
-1.7461
12
-1.4148
22
0.9116
32
-1.7813
13
-1.5109
23
0.8840
33
-1.7793
0
3DFACE
8
A2
10
-1.4423
20
1.0077
30
-1.7461
11
-1.3462
21
1.0352
31
-1.7492
12
-1.3186
22
0.9391
32
-1.7833
13
-1.4148
23
0.9116
33
-1.7813
0
3DFACE
8
A2
10
-1.3462
20
1.0352
30
-1.7492
11
-1.2500
21
1.0627
31
-1.7523
12
-1.2225
22
0.9666
32
-1.7853
13
-1.3186
23
0.9391
33
-1.7833
0
3DFACE
8
A2
10
-1.2500
20
1.0627
30
-1.7523
11
-1.1539
21
1.0902
31
-1.7555
12
-1.1264
22
0.9941
32
-1.7873
13
-1.2225
23
0.9666
33
-1.7853
0
3DFACE
8
A2
10
-1.1539
20
1.0902
30
-1.7555
11
-1.0577
21
1.1177
31
-1.7575
12
-1.0302
22
1.0216
32
-1.7886
13
-1.1264
23
0.9941
33
-1.7873
0
3DFACE
8
A2
10
-1.0577
20
1.1177
30
-1.7575
11
-0.9616
21
1.1453
31
-1.7581
12
-0.9341
22
1.0491
32
-1.7892
13
-1.0302
23
1.0216
33
-1.7886
0
3DFACE
8
A2
10
-0.9616
20
1.1453
30
-1.7581
11
-0.8654
21
1.1728
31
-1.7574
12
-0.8379
22
1.0766
32
-1.7892
13
-0.9341
23
1.0491
33
-1.7892
0
3DFACE
8
A2
10
-0.8654
20
1.1728
30
-1.7574
11
-0.7693
21
1.2003
31
-1.7554
12
-0.7418
22
1.1041
32
-1.7886
13
-0.8379
23
1.0766
33
-1.7892
0
3DFACE
8
A2
10
-0.7693
20
1.2003
30
-1.7554
11
-0.6732
21
1.2278
31
-1.7518
12
-0.6457
22
1.1317
32
-1.7872
13
-0.7418
23
1.1041
33
-1.7886
0
3DFACE
8
A2
10
-0.6732
20
1.2278
30
-1.7518
11
-0.5770
21
1.2553
31
-1.7482
12
-0.5495
22
1.1592
32
-1.7859
13
-0.6457
23
1.1317
33
-1.7872
0
3DFACE
8
A2
10
-0.5770
20
1.2553
30
-1.7482
11
-0.4809
21
1.2828
31
-1.7447
12
-0.4534
22
1.1867
32
-1.7845
13
-0.5495
23
1.1592
33
-1.7859
0
3DFACE
8
A2
10
-0.4809
20
1.2828
30
-1.7447
11
-0.3847
21
1.3103
31
-1.7411
12
-0.3572
22
1.2142
32
-1.7832
13
-0.4534
23
1.1867
33
-1.7845
0
3DFACE
8
A2
10
-0.3847
20
1.3103
30
-1.7411
11
-0.2886
21
1.3379
31
-1.7375
12
-0.2611
22
1.2417
32
-1.7819
13
-0.3572
23
1.2142
33
-1.7832
0
3DFACE
8
A2
10
-0.2886
20
1.3379
30
-1.7375
11
-0.1925
21
1.3654
31
-1.7339
12
-0.1650
22
1.2692
32
-1.7805
13
-0.2611
23
1.2417
33
-1.7819
0
3DFACE
8
A2
10
-0.1925
20
1.3654
30
-1.7339
11
-0.0963
21
1.3929
31
-1.7304
12
-0.0688
22
1.2967
32
-1.7792
13
-0.1650
23
1.2692
33
-1.7805
0
3DFACE
8
A2
10
-0.0963
20
1.3929
30
-1.7304
11
-0.0002
21
1.4204
31
-1.7268
12
0.0273
22
1.3243
32
-1.7778
13
-0.0688
23
1.2967
33
-1.7792
0
3DFACE
8
A2
10
-0.0002
20
1.4204
30
-1.7268
11
0.0960
21
1.4479
31
-1.7232
12
0.1235
22
1.3518
32
-1.7765
13
0.0273
23
1.3243
33
-1.7778
0
3DFACE
8
A2
10
0.0960
20
1.4479
30
-1.7232
11
0.1921
21
1.4754
31
-1.7197
12
0.2196
22
1.3793
32
-1.7752
13
0.1235
23
1.3518
33
-1.7765
0
3DFACE
8
A2
10
0.1921
20
1.4754
30
-1.7197
11
0.2882
21
1.5029
31
-1.7161
12
0.3158
22
1.4068
32
-1.7738
13
0.2196
23
1.3793
33
-1.7752
0
3DFACE
8
A2
10
0.2882
20
1.5029
30
-1.7161
11
0.3844
21
1.5304
31
-1.7166
12
0.4119
22
1.4343
32
-1.7745
13
0.3158
23
1.4068
33
-1.7738
0
3DFACE
8
A2
10
0.3844
20
1.5304
30
-1.7166
11
0.4805
21
1.5580
31
-1.7180
12
0.5080
22
1.4618
32
-1.7756
13
0.4119
23
1.4343
33
-1.7745
0
3DFACE
8
A2
10
0.4805
20
1.5580
30
-1.7180
11
0.5767
21
1.5855
31
-1.7203
12
0.6042
22
1.4893
32
-1.7771
13
0.5080
23
1.4618
33
-1.7756
0
3DFACE
8
A2
10
0.5767
20
1.5855
30
-1.7203
11
0.6728
21
1.6130
31
-1.7235
12
0.7003
22
1.5168
32
-1.7791
13
0.6042
23
1.4893
33
-1.7771
0
3DFACE
8
A2
10
0.6728
20
1.6130
30
-1.7235
11
0.7689
21
1.6405
31
-1.7276
12
0.7965
22
1.5444
32
-1.7815
13
0.7003
23
1.5168
33
-1.7791
0
3DFACE
8
A2
10
0.7689
20
1.6405
30
-1.7276
11
0.8651
21
1.6680
31
-1.7285
12
0.8926
22
1.5719
32
-1.7824
13
0.7965
23
1.5444
33
-1.7815
0
3DFACE
8
A2
10
0.8651
20
1.6680
30
-1.7285
11
0.9612
21
1.6955
31
-1.7294
12
0.9887
22
1.5994
32
-1.7833
13
0.8926
23
1.5719
33
-1.7824
0
3DFACE
8
A2
10
0.9612
20
1.6955
30
-1.7294
11
1.0574
21
1.7230
31
-1.7303
12
1.0849
22
1.6269
32
-1.7842
13
0.9887
23
1.5994
33
-1.7833
0
3DFACE
8
A2
10
1.0574
20
1.7230
30
-1.7303
11
1.1535
21
1.7506
31
-1.7312
12
1.1810
22
1.6544
32
-1.7851
13
1.0849
23
1.6269
33
-1.7842
0
3DFACE
8
A2
10
1.1535
20
1.7506
30
-1.7312
11
1.2496
21
1.7781
31
-1.7321
12
1.2772
22
1.6819
32
-1.7860
13
1.1810
23
1.6544
33
-1.7851
0
3DFACE
8
A2
10
1.2496
20
1.7781
30
-1.7321
11
1.3458
21
1.8056
31
-1.7328
12
1.3733
22
1.7094
32
-1.7867
13
1.2772
23
1.6819
33
-1.7860
0
3DFACE
8
A2
10
1.3458
20
1.8056
30
-1.7328
11
1.4419
21
1.8331
31
-1.7334
12
1.4694
22
1.7370
32
-1.7872
13
1.3733
23
1.7094
33
-1.7867
0
3DFACE
8
A2
10
-3.8183
20
0.2237
30
-1.7366
11
-3.7222
21
0.2512
31
-1.7362
12
-3.6946
22
0.1551
32
-1.7800
13
-3.7908
23
0.1276
33
-1.7795
0
3DFACE
8
A2
10
-3.7222
20
0.2512
30
-1.7362
11
-3.6260
21
0.2787
31
-1.7361
12
-3.5985
22
0.1826
32
-1.7807
13
-3.6946
23
0.1551
33
-1.7800
0
3DFACE
8
A2
10
-3.6260
20
0.2787
30
-1.7361
11
-3.5299
21
0.3063
31
-1.7362
12
-3.5024
22
0.2101
32
-1.7816
13
-3.5985
23
0.1826
33
-1.7807
0
3DFACE
8
A2
10
-3.5299
20
0.3063
30
-1.7362
11
-3.4337
21
0.3338
31
-1.7371
12
-3.4062
22
0.2376
32
-1.7825
13
-3.5024
23
0.2101
33
-1.7816
0
3DFACE
8
A2
10
-3.4337
20
0.3338
30
-1.7371
11
-3.3376
21
0.3613
31
-1.7386
12
-3.3101
22
0.2651
32
-1.7834
13
-3.4062
23
0.2376
33
-1.7825
0
3DFACE
8
A2
10
-3.3376
20
0.3613
30
-1.7386
11
-3.2414
21
0.3888
31
-1.7400
12
-3.2139
22
0.2927
32
-1.7843
13
-3.3101
23
0.2651
33
-1.7834
0
3DFACE
8
A2
10
-3.2414
20
0.3888
30
-1.7400
11
-3.1453
21
0.4163
31
-1.7410
12
-3.1178
22
0.3202
32
-1.7852
13
-3.2139
23
0.2927
33
-1.7843
0
3DFACE
8
A2
10
-3.1453
20
0.4163
30
-1.7410
11
-3.0492
21
0.4438
31
-1.7413
12
-3.0217
22
0.3477
32
-1.7861
13
-3.1178
23
0.3202
33
-1.7852
0
3DFACE
8
A2
10
-3.0492
20
0.4438
30
-1.7413
11
-2.9530
21
0.4713
31
-1.7422
12
-2.9255
22
0.3752
32
-1.7870
13
-3.0217
23
0.3477
33
-1.7861
0
3DFACE
8
A2
10
-2.9530
20
0.4713
30
-1.7422
11
-2.8569
21
0.4988
31
-1.7436
12
-2.8294
22
0.4027
32
-1.7879
13
-2.9255
23
0.3752
33
-1.7870
0
3DFACE
8
A2
10
-2.8569
20
0.4988
30
-1.7436
11
-2.7607
21
0.5264
31
-1.7456
12
-2.7332
22
0.4302
32
-1.7888
13
-2.8294
23
0.4027
33
-1.7879
0
3DFACE
8
A2
10
-2.7607
20
0.5264
30
-1.7456
11
-2.6646
21
0.5539
31
-1.7486
12
-2.6371
22
0.4577
32
-1.7897
13
-2.7332
23
0.4302
33
-1.7888
0
3DFACE
8
A2
10
-2.6646
20
0.5539
30
-1.7486
11
-2.5685
21
0.5814
31
-1.7526
12
-2.5410
22
0.4852
32
-1.7906
13
-2.6371
23
0.4577
33
-1.7897
0
3DFACE
8
A2
10
-2.5685
20
0.5814
30
-1.7526
11
-2.4723
21
0.6089
31
-1.7562
12
-2.4448
22
0.5128
32
-1.7915
13
-2.5410
23
0.4852
33
-1.7906
0
3DFACE
8
A2
10
-2.4723
20
0.6089
30
-1.7562
11
-2.3762
21
0.6364
31
-1.7594
12
-2.3487
22
0.5403
32
-1.7924
13
-2.4448
23
0.5128
33
-1.7915
0
3DFACE
8
A2
10
-2.3762
20
0.6364
30
-1.7594
11
-2.2800
21
0.6639
31
-1.7622
12
-2.2525
22
0.5678
32
-1.7933
13
-2.3487
23
0.5403
33
-1.7924
0
3DFACE
8
A2
10
-2.2800
20
0.6639
30
-1.7622
11
-2.1839
21
0.6914
31
-1.7647
12
-2.1564
22
0.5953
32
-1.7941
13
-2.2525
23
0.5678
33
-1.7933
0
3DFACE
8
A2
10
-2.1839
20
0.6914
30
-1.7647
11
-2.0878
21
0.7190
31
-1.7669
12
-2.0602
22
0.6228
32
-1.7950
13
-2.1564
23
0.5953
33
-1.7941
0
3DFACE
8
A2
10
-2.0878
20
0.7190
30
-1.7669
11
-1.9916
21
0.7465
31
-1.7691
12
-1.9641
22
0.6503
32
-1.7959
13
-2.0602
23
0.6228
33
-1.7950
0
3DFACE
8
A2
10
-1.9916
20
0.7465
30
-1.7691
11
-1.8955
21
0.7740
31
-1.7712
12
-1.8680
22
0.6778
32
-1.7968
13
-1.9641
23
0.6503
33
-1.7959
0
3DFACE
8
A2
10
-1.8955
20
0.7740
30
-1.7712
11
-1.7993
21
0.8015
31
-1.7733
12
-1.7718
22
0.7054
32
-1.7977
13
-1.8680
23
0.6778
33
-1.7968
0
3DFACE
8
A2
10
-1.7993
20
0.8015
30
-1.7733
11
-1.7032
21
0.8290
31
-1.7753
12
-1.6757
22
0.7329
32
-1.7986
13
-1.7718
23
0.7054
33
-1.7977
0
3DFACE
8
A2
10
-1.7032
20
0.8290
30
-1.7753
11
-1.6071
21
0.8565
31
-1.7773
12
-1.5795
22
0.7604
32
-1.7995
13
-1.6757
23
0.7329
33
-1.7986
0
3DFACE
8
A2
10
-1.6071
20
0.8565
30
-1.7773
11
-1.5109
21
0.8840
31
-1.7793
12
-1.4834
22
0.7879
32
-1.8004
13
-1.5795
23
0.7604
33
-1.7995
0
3DFACE
8
A2
10
-1.5109
20
0.8840
30
-1.7793
11
-1.4148
21
0.9116
31
-1.7813
12
-1.3873
22
0.8154
32
-1.8013
13
-1.4834
23
0.7879
33
-1.8004
0
3DFACE
8
A2
10
-1.4148
20
0.9116
30
-1.7813
11
-1.3186
21
0.9391
31
-1.7833
12
-1.2911
22
0.8429
32
-1.8022
13
-1.3873
23
0.8154
33
-1.8013
0
3DFACE
8
A2
10
-1.3186
20
0.9391
30
-1.7833
11
-1.2225
21
0.9666
31
-1.7853
12
-1.1950
22
0.8704
32
-1.8031
13
-1.2911
23
0.8429
33
-1.8022
0
3DFACE
8
A2
10
-1.2225
20
0.9666
30
-1.7853
11
-1.1264
21
0.9941
31
-1.7873
12
-1.0988
22
0.8980
32
-1.8040
13
-1.1950
23
0.8704
33
-1.8031
0
3DFACE
8
A2
10
-1.1264
20
0.9941
30
-1.7873
11
-1.0302
21
1.0216
31
-1.7886
12
-1.0027
22
0.9255
32
-1.8049
13
-1.0988
23
0.8980
33
-1.8040
0
3DFACE
8
A2
10
-1.0302
20
1.0216
30
-1.7886
11
-0.9341
21
1.0491
31
-1.7892
12
-0.9066
22
0.9530
32
-1.8058
13
-1.0027
23
0.9255
33
-1.8049
0
3DFACE
8
A2
10
-0.9341
20
1.0491
30
-1.7892
11
-0.8379
21
1.0766
31
-1.7892
12
-0.8104
22
0.9805
32
-1.8067
13
-0.9066
23
0.9530
33
-1.8058
0
3DFACE
8
A2
10
-0.8379
20
1.0766
30
-1.7892
11
-0.7418
21
1.1041
31
-1.7886
12
-0.7143
22
1.0080
32
-1.8076
13
-0.8104
23
0.9805
33
-1.8067
0
3DFACE
8
A2
10
-0.7418
20
1.1041
30
-1.7886
11
-0.6457
21
1.1317
31
-1.7872
12
-0.6181
22
1.0355
32
-1.8085
13
-0.7143
23
1.0080
33
-1.8076
0
3DFACE
8
A2
10
-0.6457
20
1.1317
30
-1.7872
11
-0.5495
21
1.1592
31
-1.7859
12
-0.5220
22
1.0630
32
-1.8094
13
-0.6181
23
1.0355
33
-1.8085
0
3DFACE
8
A2
10
-0.5495
20
1.1592
30
-1.7859
11
-0.4534
21
1.1867
31
-1.7845
12
-0.4259
22
1.0905
32
-1.8103
13
-0.5220
23
1.0630
33
-1.8094
0
3DFACE
8
A2
10
-0.4534
20
1.1867
30
-1.7845
11
-0.3572
21
1.2142
31
-1.7832
12
-0.3297
22
1.1181
32
-1.8112
13
-0.4259
23
1.0905
33
-1.8103
0
3DFACE
8
A2
10
-0.3572
20
1.2142
30
-1.7832
11
-0.2611
21
1.2417
31
-1.7819
12
-0.2336
22
1.1456
32
-1.8121
13
-0.3297
23
1.1181
33
-1.8112
0
3DFACE
8
A2
10
-0.2611
20
1.2417
30
-1.7819
11
-0.1650
21
1.2692
31
-1.7805
12
-0.1374
22
1.1731
32
-1.8129
13
-0.2336
23
1.1456
33
-1.8121
0
3DFACE
8
A2
10
-0.1650
20
1.2692
30
-1.7805
11
-0.0688
21
1.2967
31
-1.7792
12
-0.0413
22
1.2006
32
-1.8138
13
-0.1374
23
1.1731
33
-1.8129
0
3DFACE
8
A2
10
-0.0688
20
1.2967
30
-1.7792
11
0.0273
21
1.3243
31
-1.7778
12
0.0548
22
1.2281
32
-1.8147
13
-0.0413
23
1.2006
33
-1.8138
0
3DFACE
8
A2
10
0.0273
20
1.3243
30
-1.7778
11
0.1235
21
1.3518
31
-1.7765
12
0.1510
22
1.2556
32
-1.8156
13
0.0548
23
1.2281
33
-1.8147
0
3DFACE
8
A2
10
0.1235
20
1.3518
30
-1.7765
11
0.2196
21
1.3793
31
-1.7752
12
0.2471
22
1.2831
32
-1.8165
13
0.1510
23
1.2556
33
-1.8156
0
3DFACE
8
A2
10
0.2196
20
1.3793
30
-1.7752
11
0.3158
21
1.4068
31
-1.7738
12
0.3433
22
1.3107
32
-1.8174
13
0.2471
23
1.2831
33
-1.8165
0
3DFACE
8
A2
10
0.3158
20
1.4068
30
-1.7738
11
0.4119
21
1.4343
31
-1.7745
12
0.4394
22
1.3382
32
-1.8183
13
0.3433
23
1.3107
33
-1.8174
0
3DFACE
8
A2
10
0.4119
20
1.4343
30
-1.7745
11
0.5080
21
1.4618
31
-1.7756
12
0.5355
22
1.3657
32
-1.8192
13
0.4394
23
1.3382
33
-1.8183
0
3DFACE
8
A2
10
0.5080
20
1.4618
30
-1.7756
11
0.6042
21
1.4893
31
-1.7771
12
0.6317
22
1.3932
32
-1.8201
13
0.5355
23
1.3657
33
-1.8192
0
3DFACE
8
A2
10
0.6042
20
1.4893
30
-1.7771
11
0.7003
21
1.5168
31
-1.7791
12
0.7278
22
1.4207
32
-1.8210
13
0.6317
23
1.3932
33
-1.8201
0
3DFACE
8
A2
10
0.7003
20
1.5168
30
-1.7791
11
0.7965
21
1.5444
31
-1.7815
12
0.8240
22
1.4482
32
-1.8219
13
0.7278
23
1.4207
33
-1.8210
0
3DFACE
8
A2
10
0.7965
20
1.5444
30
-1.7815
11
0.8926
21
1.5719
31
-1.7824
12
0.9201
22
1.4757
32
-1.8228
13
0.8240
23
1.4482
33
-1.8219
0
3DFACE
8
A2
10
0.8926
20
1.5719
30
-1.7824
11
0.9887
21
1.5994
31
-1.7833
12
1.0162
22
1.5032
32
-1.8237
13
0.9201
23
1.4757
33
-1.8228
0
3DFACE
8
A2
10
0.9887
20
1.5994
30
-1.7833
11
1.0849
21
1.6269
31
-1.7842
12
1.1124
22
1.5308
32
-1.8246
13
1.0162
23
1.5032
33
-1.8237
0
3DFACE
8
A2
10
1.0849
20
1.6269
30
-1.7842
11
1.1810
21
1.6544
31
-1.7851
12
1.2085
22
1.5583
32
-1.8255
13
1.1124
23
1.5308
33
-1.8246
0
3DFACE
8
A2
10
1.1810
20
1.6544
30
-1.7851
11
1.2772
21
1.6819
31
-1.7860
12
1.3047
22
1.5858
32
-1.8264
13
1.2085
23
1.5583
33
-1.8255
0
3DFACE
8
A2
10
1.2772
20
1.6819
30
-1.7860
11
1.3733
21
1.7094
31
-1.7867
12
1.4008
22
1.6133
32
-1.8271
13
1.3047
23
1.5858
33
-1.8264
0
3DFACE
8
A2
10
1.3733
20
1.7094
30
-1.7867
11
1.4694
21
1.7370
31
-1.7872
12
1.4970
22
1.6408
32
-1.8276
13
1.4008
23
1.6133
33
-1.8271
0
ENDSEC
0
EOF
