# A2 v2 topo-corrected, z = surface height minus depth, metres
o A2_v2
v -4.3961 2.2427 -0.3624
v -4.2999 2.2702 -0.3610
v -4.2038 2.2977 -0.3600
v -4.1077 2.3252 -0.3609
v -4.0115 2.3527 -0.3646
v -3.9154 2.3802 -0.3720
v -3.8192 2.4077 -0.3729
v -3.7231 2.4353 -0.3686
v -3.6270 2.4628 -0.3543
v -3.5308 2.4903 -0.3520
v -3.4347 2.5178 -0.3507
v -3.3385 2.5453 -0.3497
v -3.2424 2.5728 -0.3484
v -3.1462 2.6003 -0.3481
v -3.0501 2.6279 -0.3490
v -2.9540 2.6554 -0.3488
v -2.8578 2.6829 -0.3449
v -2.7617 2.7104 -0.3441
v -2.6655 2.7379 -0.3417
v -2.5694 2.7654 -0.3414
v -2.4733 2.7929 -0.3410
v -2.3771 2.8204 -0.3405
v -2.2810 2.8480 -0.3399
v -2.1848 2.8755 -0.3381
v -2.0887 2.9030 -0.3347
v -1.9926 2.9305 -0.3306
v -1.8964 2.9580 -0.3269
v -1.8003 2.9855 -0.3237
v -1.7041 3.0130 -0.3207
v -1.6080 3.0406 -0.3178
v -1.5119 3.0681 -0.3166
v -1.4157 3.0956 -0.3158
v -1.3196 3.1231 -0.3149
v -1.2234 3.1506 -0.3137
v -1.1273 3.1781 -0.3137
v -1.0312 3.2056 -0.3142
v -0.9350 3.2332 -0.3133
v -0.8389 3.2607 -0.3094
v -0.7427 3.2882 -0.2991
v -0.6466 3.3157 -0.2964
v -0.5505 3.3432 -0.2942
v -0.4543 3.3707 -0.2923
v -0.3582 3.3982 -0.2903
v -0.2620 3.4257 -0.2885
v -0.1659 3.4533 -0.2860
v -0.0698 3.4808 -0.2846
v 0.0264 3.5083 -0.2827
v 0.1225 3.5358 -0.2812
v 0.2187 3.5633 -0.2798
v 0.3148 3.5908 -0.2799
v 0.4110 3.6183 -0.2805
v 0.5071 3.6459 -0.2808
v 0.6032 3.6734 -0.2807
v 0.6994 3.7009 -0.2829
v 0.7955 3.7284 -0.2853
v 0.8917 3.7559 -0.3005
v -4.3686 2.1465 -0.4063
v -4.2724 2.1740 -0.4049
v -4.1763 2.2016 -0.4044
v -4.0801 2.2291 -0.4053
v -3.9840 2.2566 -0.4079
v -3.8879 2.2841 -0.4137
v -3.7917 2.3116 -0.4161
v -3.6956 2.3391 -0.4147
v -3.5994 2.3666 -0.4019
v -3.5033 2.3941 -0.4000
v -3.4072 2.4217 -0.3989
v -3.3110 2.4492 -0.3964
v -3.2149 2.4767 -0.3935
v -3.1187 2.5042 -0.3922
v -3.0226 2.5317 -0.3921
v -2.9265 2.5592 -0.3912
v -2.8303 2.5867 -0.3883
v -2.7342 2.6143 -0.3878
v -2.6380 2.6418 -0.3865
v -2.5419 2.6693 -0.3865
v -2.4458 2.6968 -0.3871
v -2.3496 2.7243 -0.3873
v -2.2535 2.7518 -0.3862
v -2.1573 2.7793 -0.3841
v -2.0612 2.8068 -0.3804
v -1.9650 2.8344 -0.3771
v -1.8689 2.8619 -0.3723
v -1.7728 2.8894 -0.3674
v -1.6766 2.9169 -0.3624
v -1.5805 2.9444 -0.3581
v -1.4843 2.9719 -0.3568
v -1.3882 2.9994 -0.3582
v -1.2921 3.0270 -0.3591
v -1.1959 3.0545 -0.3597
v -1.0998 3.0820 -0.3604
v -1.0036 3.1095 -0.3620
v -0.9075 3.1370 -0.3607
v -0.8114 3.1645 -0.3571
v -0.7152 3.1920 -0.3470
v -0.6191 3.2196 -0.3425
v -0.5229 3.2471 -0.3391
v -0.4268 3.2746 -0.3368
v -0.3307 3.3021 -0.3342
v -0.2345 3.3296 -0.3308
v -0.1384 3.3571 -0.3293
v -0.0422 3.3846 -0.3273
v 0.0539 3.4121 -0.3259
v 0.1500 3.4397 -0.3248
v 0.2462 3.4672 -0.3239
v 0.3423 3.4947 -0.3242
v 0.4385 3.5222 -0.3249
v 0.5346 3.5497 -0.3258
v 0.6307 3.5772 -0.3261
v 0.7269 3.6047 -0.3250
v 0.8230 3.6323 -0.3278
v 0.9192 3.6598 -0.3307
v -4.3410 2.0504 -0.4649
v -4.2449 2.0779 -0.4650
v -4.1488 2.1054 -0.4656
v -4.0526 2.1329 -0.4666
v -3.9565 2.1604 -0.4706
v -3.8603 2.1880 -0.4718
v -3.7642 2.2155 -0.4736
v -3.6681 2.2430 -0.4731
v -3.5719 2.2705 -0.4599
v -3.4758 2.2980 -0.4558
v -3.3796 2.3255 -0.4534
v -3.2835 2.3530 -0.4501
v -3.1874 2.3805 -0.4469
v -3.0912 2.4081 -0.4456
v -2.9951 2.4356 -0.4459
v -2.8989 2.4631 -0.4452
v -2.8028 2.4906 -0.4453
v -2.7067 2.5181 -0.4443
v -2.6105 2.5456 -0.4439
v -2.5144 2.5731 -0.4450
v -2.4182 2.6007 -0.4448
v -2.3221 2.6282 -0.4452
v -2.2260 2.6557 -0.4447
v -2.1298 2.6832 -0.4430
v -2.0337 2.7107 -0.4401
v -1.9375 2.7382 -0.4371
v -1.8414 2.7657 -0.4320
v -1.7453 2.7932 -0.4256
v -1.6491 2.8208 -0.4184
v -1.5530 2.8483 -0.4131
v -1.4568 2.8758 -0.4109
v -1.3607 2.9033 -0.4129
v -1.2646 2.9308 -0.4157
v -1.1684 2.9583 -0.4193
v -1.0723 2.9858 -0.4215
v -0.9761 3.0134 -0.4221
v -0.8800 3.0409 -0.4204
v -0.7838 3.0684 -0.4181
v -0.6877 3.0959 -0.4084
v -0.5916 3.1234 -0.4038
v -0.4954 3.1509 -0.3991
v -0.3993 3.1784 -0.3958
v -0.3031 3.2060 -0.3924
v -0.2070 3.2335 -0.3885
v -0.1109 3.2610 -0.3864
v -0.0147 3.2885 -0.3845
v 0.0814 3.3160 -0.3826
v 0.1776 3.3435 -0.3816
v 0.2737 3.3710 -0.3811
v 0.3698 3.3985 -0.3815
v 0.4660 3.4261 -0.3822
v 0.5621 3.4536 -0.3831
v 0.6583 3.4811 -0.3839
v 0.7544 3.5086 -0.3833
v 0.8505 3.5361 -0.3840
v 0.9467 3.5636 -0.3854
v -4.3135 1.9542 -0.5408
v -4.2174 1.9818 -0.5404
v -4.1213 2.0093 -0.5406
v -4.0251 2.0368 -0.5403
v -3.9290 2.0643 -0.5420
v -3.8328 2.0918 -0.5419
v -3.7367 2.1193 -0.5429
v -3.6406 2.1468 -0.5416
v -3.5444 2.1744 -0.5285
v -3.4483 2.2019 -0.5226
v -3.3521 2.2294 -0.5202
v -3.2560 2.2569 -0.5163
v -3.1598 2.2844 -0.5131
v -3.0637 2.3119 -0.5126
v -2.9676 2.3394 -0.5139
v -2.8714 2.3669 -0.5132
v -2.7753 2.3945 -0.5132
v -2.6791 2.4220 -0.5139
v -2.5830 2.4495 -0.5141
v -2.4869 2.4770 -0.5156
v -2.3907 2.5045 -0.5151
v -2.2946 2.5320 -0.5159
v -2.1984 2.5595 -0.5156
v -2.1023 2.5871 -0.5145
v -2.0062 2.6146 -0.5127
v -1.9100 2.6421 -0.5105
v -1.8139 2.6696 -0.5058
v -1.7177 2.6971 -0.4981
v -1.6216 2.7246 -0.4889
v -1.5255 2.7521 -0.4818
v -1.4293 2.7796 -0.4794
v -1.3332 2.8072 -0.4818
v -1.2370 2.8347 -0.4865
v -1.1409 2.8622 -0.4920
v -1.0448 2.8897 -0.4966
v -0.9486 2.9172 -0.4979
v -0.8525 2.9447 -0.4962
v -0.7563 2.9722 -0.4932
v -0.6602 2.9998 -0.4844
v -0.5641 3.0273 -0.4784
v -0.4679 3.0548 -0.4737
v -0.3718 3.0823 -0.4692
v -0.2756 3.1098 -0.4653
v -0.1795 3.1373 -0.4614
v -0.0834 3.1648 -0.4575
v 0.0128 3.1924 -0.4556
v 0.1089 3.2199 -0.4539
v 0.2051 3.2474 -0.4526
v 0.3012 3.2749 -0.4522
v 0.3974 3.3024 -0.4528
v 0.4935 3.3299 -0.4537
v 0.5896 3.3574 -0.4542
v 0.6858 3.3849 -0.4549
v 0.7819 3.4125 -0.4546
v 0.8781 3.4400 -0.4530
v 0.9742 3.4675 -0.4527
v -4.2860 1.8581 -0.6170
v -4.1899 1.8856 -0.6160
v -4.0937 1.9131 -0.6150
v -3.9976 1.9406 -0.6135
v -3.9015 1.9682 -0.6129
v -3.8053 1.9957 -0.6141
v -3.7092 2.0232 -0.6179
v -3.6130 2.0507 -0.6127
v -3.5169 2.0782 -0.6019
v -3.4208 2.1057 -0.5906
v -3.3246 2.1332 -0.5867
v -3.2285 2.1608 -0.5832
v -3.1323 2.1883 -0.5801
v -3.0362 2.2158 -0.5802
v -2.9401 2.2433 -0.5817
v -2.8439 2.2708 -0.5817
v -2.7478 2.2983 -0.5813
v -2.6516 2.3258 -0.5826
v -2.5555 2.3533 -0.5833
v -2.4594 2.3809 -0.5832
v -2.3632 2.4084 -0.5817
v -2.2671 2.4359 -0.5815
v -2.1709 2.4634 -0.5812
v -2.0748 2.4909 -0.5809
v -1.9786 2.5184 -0.5804
v -1.8825 2.5459 -0.5800
v -1.7864 2.5735 -0.5773
v -1.6902 2.6010 -0.5704
v -1.5941 2.6285 -0.5588
v -1.4979 2.6560 -0.5523
v -1.4018 2.6835 -0.5495
v -1.3057 2.7110 -0.5509
v -1.2095 2.7385 -0.5550
v -1.1134 2.7660 -0.5642
v -1.0172 2.7936 -0.5687
v -0.9211 2.8211 -0.5708
v -0.8250 2.8486 -0.5703
v -0.7288 2.8761 -0.5682
v -0.6327 2.9036 -0.5591
v -0.5365 2.9311 -0.5542
v -0.4404 2.9586 -0.5481
v -0.3443 2.9862 -0.5430
v -0.2481 3.0137 -0.5384
v -0.1520 3.0412 -0.5342
v -0.0558 3.0687 -0.5306
v 0.0403 3.0962 -0.5273
v 0.1364 3.1237 -0.5250
v 0.2326 3.1512 -0.5241
v 0.3287 3.1788 -0.5241
v 0.4249 3.2063 -0.5235
v 0.5210 3.2338 -0.5243
v 0.6171 3.2613 -0.5246
v 0.7133 3.2888 -0.5249
v 0.8094 3.3163 -0.5250
v 0.9056 3.3438 -0.5236
v 1.0017 3.3713 -0.5223
v -4.2585 1.7620 -0.6931
v -4.1624 1.7895 -0.6911
v -4.0662 1.8170 -0.6890
v -3.9701 1.8445 -0.6864
v -3.8739 1.8720 -0.6845
v -3.7778 1.8995 -0.6857
v -3.6817 1.9270 -0.6860
v -3.5855 1.9546 -0.6820
v -3.4894 1.9821 -0.6726
v -3.3932 2.0096 -0.6545
v -3.2971 2.0371 -0.6498
v -3.2010 2.0646 -0.6455
v -3.1048 2.0921 -0.6440
v -3.0087 2.1196 -0.6451
v -2.9125 2.1472 -0.6463
v -2.8164 2.1747 -0.6461
v -2.7203 2.2022 -0.6455
v -2.6241 2.2297 -0.6461
v -2.5280 2.2572 -0.6468
v -2.4318 2.2847 -0.6468
v -2.3357 2.3122 -0.6457
v -2.2396 2.3397 -0.6451
v -2.1434 2.3673 -0.6454
v -2.0473 2.3948 -0.6457
v -1.9511 2.4223 -0.6467
v -1.8550 2.4498 -0.6470
v -1.7589 2.4773 -0.6462
v -1.6627 2.5048 -0.6402
v -1.5666 2.5323 -0.6273
v -1.4704 2.5599 -0.6203
v -1.3743 2.5874 -0.6167
v -1.2782 2.6149 -0.6176
v -1.1820 2.6424 -0.6222
v -1.0859 2.6699 -0.6318
v -0.9897 2.6974 -0.6384
v -0.8936 2.7249 -0.6417
v -0.7974 2.7524 -0.6421
v -0.7013 2.7800 -0.6416
v -0.6052 2.8075 -0.6325
v -0.5090 2.8350 -0.6273
v -0.4129 2.8625 -0.6218
v -0.3167 2.8900 -0.6172
v -0.2206 2.9175 -0.6115
v -0.1245 2.9450 -0.6071
v -0.0283 2.9726 -0.6028
v 0.0678 3.0001 -0.5996
v 0.1640 3.0276 -0.5972
v 0.2601 3.0551 -0.5957
v 0.3562 3.0826 -0.5955
v 0.4524 3.1101 -0.5951
v 0.5485 3.1376 -0.5954
v 0.6447 3.1652 -0.5954
v 0.7408 3.1927 -0.5955
v 0.8369 3.2202 -0.5948
v 0.9331 3.2477 -0.5934
v 1.0292 3.2752 -0.5929
v -4.2310 1.6658 -0.7679
v -4.1349 1.6933 -0.7670
v -4.0387 1.7208 -0.7650
v -3.9426 1.7484 -0.7612
v -3.8464 1.7759 -0.7593
v -3.7503 1.8034 -0.7566
v -3.6542 1.8309 -0.7555
v -3.5580 1.8584 -0.7530
v -3.4619 1.8859 -0.7375
v -3.3657 1.9134 -0.7134
v -3.2696 1.9410 -0.7081
v -3.1734 1.9685 -0.7041
v -3.0773 1.9960 -0.7039
v -2.9812 2.0235 -0.7085
v -2.8850 2.0510 -0.7132
v -2.7889 2.0785 -0.7134
v -2.6927 2.1060 -0.7123
v -2.5966 2.1336 -0.7123
v -2.5005 2.1611 -0.7118
v -2.4043 2.1886 -0.7112
v -2.3082 2.2161 -0.7098
v -2.2120 2.2436 -0.7094
v -2.1159 2.2711 -0.7096
v -2.0198 2.2986 -0.7099
v -1.9236 2.3261 -0.7113
v -1.8275 2.3537 -0.7127
v -1.7313 2.3812 -0.7127
v -1.6352 2.4087 -0.7085
v -1.5391 2.4362 -0.6947
v -1.4429 2.4637 -0.6871
v -1.3468 2.4912 -0.6843
v -1.2506 2.5187 -0.6843
v -1.1545 2.5463 -0.6882
v -1.0584 2.5738 -0.6992
v -0.9622 2.6013 -0.7064
v -0.8661 2.6288 -0.7097
v -0.7699 2.6563 -0.7089
v -0.6738 2.6838 -0.7086
v -0.5777 2.7113 -0.6994
v -0.4815 2.7388 -0.6948
v -0.3854 2.7664 -0.6899
v -0.2892 2.7939 -0.6851
v -0.1931 2.8214 -0.6806
v -0.0970 2.8489 -0.6778
v -0.0008 2.8764 -0.6747
v 0.0953 2.9039 -0.6716
v 0.1915 2.9314 -0.6693
v 0.2876 2.9590 -0.6676
v 0.3838 2.9865 -0.6666
v 0.4799 3.0140 -0.6669
v 0.5760 3.0415 -0.6671
v 0.6722 3.0690 -0.6668
v 0.7683 3.0965 -0.6660
v 0.8645 3.1240 -0.6644
v 0.9606 3.1516 -0.6637
v 1.0567 3.1791 -0.6643
v -4.2035 1.5697 -0.8388
v -4.1073 1.5972 -0.8378
v -4.0112 1.6247 -0.8354
v -3.9151 1.6522 -0.8318
v -3.8189 1.6797 -0.8287
v -3.7228 1.7072 -0.8274
v -3.6266 1.7348 -0.8303
v -3.5305 1.7623 -0.8235
v -3.4344 1.7898 -0.8098
v -3.3382 1.8173 -0.7809
v -3.2421 1.8448 -0.7730
v -3.1459 1.8723 -0.7703
v -3.0498 1.8998 -0.7710
v -2.9537 1.9274 -0.7776
v -2.8575 1.9549 -0.7828
v -2.7614 1.9824 -0.7843
v -2.6652 2.0099 -0.7807
v -2.5691 2.0374 -0.7790
v -2.4730 2.0649 -0.7770
v -2.3768 2.0924 -0.7756
v -2.2807 2.1200 -0.7738
v -2.1845 2.1475 -0.7737
v -2.0884 2.1750 -0.7735
v -1.9922 2.2025 -0.7737
v -1.8961 2.2300 -0.7737
v -1.8000 2.2575 -0.7751
v -1.7038 2.2850 -0.7765
v -1.6077 2.3125 -0.7729
v -1.5115 2.3401 -0.7600
v -1.4154 2.3676 -0.7535
v -1.3193 2.3951 -0.7506
v -1.2231 2.4226 -0.7501
v -1.1270 2.4501 -0.7540
v -1.0308 2.4776 -0.7665
v -0.9347 2.5051 -0.7732
v -0.8386 2.5327 -0.7747
v -0.7424 2.5602 -0.7730
v -0.6463 2.5877 -0.7711
v -0.5501 2.6152 -0.7630
v -0.4540 2.6427 -0.7579
v -0.3579 2.6702 -0.7542
v -0.2617 2.6977 -0.7495
v -0.1656 2.7252 -0.7450
v -0.0694 2.7528 -0.7422
v 0.0267 2.7803 -0.7390
v 0.1228 2.8078 -0.7378
v 0.2190 2.8353 -0.7374
v 0.3151 2.8628 -0.7373
v 0.4113 2.8903 -0.7373
v 0.5074 2.9178 -0.7378
v 0.6035 2.9454 -0.7375
v 0.6997 2.9729 -0.7371
v 0.7958 3.0004 -0.7367
v 0.8920 3.0279 -0.7348
v 0.9881 3.0554 -0.7332
v 1.0842 3.0829 -0.7337
v -4.1760 1.4735 -0.9069
v -4.0798 1.5011 -0.9075
v -3.9837 1.5286 -0.9069
v -3.8875 1.5561 -0.9047
v -3.7914 1.5836 -0.9035
v -3.6953 1.6111 -0.9036
v -3.5991 1.6386 -0.9045
v -3.5030 1.6661 -0.8961
v -3.4068 1.6936 -0.8768
v -3.3107 1.7212 -0.8496
v -3.2146 1.7487 -0.8397
v -3.1184 1.7762 -0.8356
v -3.0223 1.8037 -0.8367
v -2.9261 1.8312 -0.8437
v -2.8300 1.8587 -0.8495
v -2.7339 1.8862 -0.8508
v -2.6377 1.9138 -0.8464
v -2.5416 1.9413 -0.8446
v -2.4454 1.9688 -0.8427
v -2.3493 1.9963 -0.8408
v -2.2532 2.0238 -0.8396
v -2.1570 2.0513 -0.8377
v -2.0609 2.0788 -0.8374
v -1.9647 2.1064 -0.8359
v -1.8686 2.1339 -0.8349
v -1.7725 2.1614 -0.8368
v -1.6763 2.1889 -0.8378
v -1.5802 2.2164 -0.8343
v -1.4840 2.2439 -0.8228
v -1.3879 2.2714 -0.8190
v -1.2918 2.2989 -0.8161
v -1.1956 2.3265 -0.8158
v -1.0995 2.3540 -0.8206
v -1.0033 2.3815 -0.8332
v -0.9072 2.4090 -0.8383
v -0.8110 2.4365 -0.8380
v -0.7149 2.4640 -0.8347
v -0.6188 2.4915 -0.8316
v -0.5226 2.5191 -0.8228
v -0.4265 2.5466 -0.8190
v -0.3303 2.5741 -0.8139
v -0.2342 2.6016 -0.8116
v -0.1381 2.6291 -0.8077
v -0.0419 2.6566 -0.8044
v 0.0542 2.6841 -0.8040
v 0.1504 2.7116 -0.8047
v 0.2465 2.7392 -0.8054
v 0.3426 2.7667 -0.8070
v 0.4388 2.7942 -0.8089
v 0.5349 2.8217 -0.8082
v 0.6311 2.8492 -0.8078
v 0.7272 2.8767 -0.8073
v 0.8233 2.9042 -0.8065
v 0.9195 2.9318 -0.8051
v 1.0156 2.9593 -0.8033
v 1.1118 2.9868 -0.8029
v -4.1485 1.3774 -0.9740
v -4.0523 1.4049 -0.9763
v -3.9562 1.4324 -0.9775
v -3.8600 1.4599 -0.9772
v -3.7639 1.4875 -0.9769
v -3.6678 1.5150 -0.9750
v -3.5716 1.5425 -0.9754
v -3.4755 1.5700 -0.9652
v -3.3793 1.5975 -0.9445
v -3.2832 1.6250 -0.9200
v -3.1870 1.6525 -0.9074
v -3.0909 1.6800 -0.9037
v -2.9948 1.7076 -0.9061
v -2.8986 1.7351 -0.9156
v -2.8025 1.7626 -0.9229
v -2.7063 1.7901 -0.9242
v -2.6102 1.8176 -0.9178
v -2.5141 1.8451 -0.9148
v -2.4179 1.8726 -0.9112
v -2.3218 1.9002 -0.9085
v -2.2256 1.9277 -0.9053
v -2.1295 1.9552 -0.9025
v -2.0334 1.9827 -0.8996
v -1.9372 2.0102 -0.8962
v -1.8411 2.0377 -0.8936
v -1.7449 2.0652 -0.8959
v -1.6488 2.0928 -0.8974
v -1.5527 2.1203 -0.8952
v -1.4565 2.1478 -0.8901
v -1.3604 2.1753 -0.8876
v -1.2642 2.2028 -0.8847
v -1.1681 2.2303 -0.8847
v -1.0720 2.2578 -0.8888
v -0.9758 2.2853 -0.8955
v -0.8797 2.3129 -0.8991
v -0.7835 2.3404 -0.8987
v -0.6874 2.3679 -0.8944
v -0.5913 2.3954 -0.8899
v -0.4951 2.4229 -0.8807
v -0.3990 2.4504 -0.8759
v -0.3028 2.4779 -0.8717
v -0.2067 2.5055 -0.8697
v -0.1106 2.5330 -0.8671
v -0.0144 2.5605 -0.8646
v 0.0817 2.5880 -0.8672
v 0.1779 2.6155 -0.8704
v 0.2740 2.6430 -0.8732
v 0.3702 2.6705 -0.8763
v 0.4663 2.6980 -0.8800
v 0.5624 2.7256 -0.8795
v 0.6586 2.7531 -0.8789
v 0.7547 2.7806 -0.8780
v 0.8509 2.8081 -0.8765
v 0.9470 2.8356 -0.8753
v 1.0431 2.8631 -0.8733
v 1.1393 2.8906 -0.8719
v -4.1209 1.2813 -1.0430
v -4.0248 1.3088 -1.0468
v -3.9287 1.3363 -1.0495
v -3.8325 1.3638 -1.0514
v -3.7364 1.3913 -1.0536
v -3.6402 1.4188 -1.0513
v -3.5441 1.4463 -1.0531
v -3.4480 1.4739 -1.0454
v -3.3518 1.5014 -1.0249
v -3.2557 1.5289 -1.0013
v -3.1595 1.5564 -0.9857
v -3.0634 1.5839 -0.9786
v -2.9673 1.6114 -0.9771
v -2.8711 1.6389 -0.9822
v -2.7750 1.6664 -0.9889
v -2.6788 1.6940 -0.9908
v -2.5827 1.7215 -0.9845
v -2.4866 1.7490 -0.9823
v -2.3904 1.7765 -0.9799
v -2.2943 1.8040 -0.9747
v -2.1981 1.8315 -0.9727
v -2.1020 1.8590 -0.9692
v -2.0058 1.8866 -0.9663
v -1.9097 1.9141 -0.9624
v -1.8136 1.9416 -0.9594
v -1.7174 1.9691 -0.9612
v -1.6213 1.9966 -0.9619
v -1.5251 2.0241 -0.9588
v -1.4290 2.0516 -0.9596
v -1.3329 2.0792 -0.9598
v -1.2367 2.1067 -0.9585
v -1.1406 2.1342 -0.9597
v -1.0444 2.1617 -0.9654
v -0.9483 2.1892 -0.9668
v -0.8522 2.2167 -0.9651
v -0.7560 2.2442 -0.9613
v -0.6599 2.2717 -0.9546
v -0.5637 2.2993 -0.9463
v -0.4676 2.3268 -0.9373
v -0.3715 2.3543 -0.9315
v -0.2753 2.3818 -0.9274
v -0.1792 2.4093 -0.9247
v -0.0830 2.4368 -0.9228
v 0.0131 2.4643 -0.9223
v 0.1092 2.4919 -0.9278
v 0.2054 2.5194 -0.9342
v 0.3015 2.5469 -0.9412
v 0.3977 2.5744 -0.9468
v 0.4938 2.6019 -0.9513
v 0.5899 2.6294 -0.9499
v 0.6861 2.6569 -0.9494
v 0.7822 2.6844 -0.9485
v 0.8784 2.7120 -0.9472
v 0.9745 2.7395 -0.9456
v 1.0706 2.7670 -0.9434
v 1.1668 2.7945 -0.9423
v -4.0934 1.1851 -1.1124
v -3.9973 1.2126 -1.1165
v -3.9011 1.2401 -1.1202
v -3.8050 1.2677 -1.1233
v -3.7089 1.2952 -1.1254
v -3.6127 1.3227 -1.1267
v -3.5166 1.3502 -1.1271
v -3.4204 1.3777 -1.1209
v -3.3243 1.4052 -1.1032
v -3.2282 1.4327 -1.0809
v -3.1320 1.4603 -1.0587
v -3.0359 1.4878 -1.0516
v -2.9397 1.5153 -1.0513
v -2.8436 1.5428 -1.0568
v -2.7475 1.5703 -1.0619
v -2.6513 1.5978 -1.0603
v -2.5552 1.6253 -1.0558
v -2.4590 1.6528 -1.0524
v -2.3629 1.6804 -1.0481
v -2.2668 1.7079 -1.0449
v -2.1706 1.7354 -1.0446
v -2.0745 1.7629 -1.0411
v -1.9783 1.7904 -1.0381
v -1.8822 1.8179 -1.0341
v -1.7861 1.8454 -1.0313
v -1.6899 1.8730 -1.0336
v -1.5938 1.9005 -1.0343
v -1.4976 1.9280 -1.0303
v -1.4015 1.9555 -1.0291
v -1.3054 1.9830 -1.0335
v -1.2092 2.0105 -1.0345
v -1.1131 2.0380 -1.0353
v -1.0169 2.0656 -1.0420
v -0.9208 2.0931 -1.0455
v -0.8246 2.1206 -1.0403
v -0.7285 2.1481 -1.0339
v -0.6324 2.1756 -1.0252
v -0.5362 2.2031 -1.0146
v -0.4401 2.2306 -1.0066
v -0.3439 2.2581 -0.9969
v -0.2478 2.2857 -0.9916
v -0.1517 2.3132 -0.9862
v -0.0555 2.3407 -0.9811
v 0.0406 2.3682 -0.9787
v 0.1368 2.3957 -0.9866
v 0.2329 2.4232 -0.9956
v 0.3290 2.4507 -1.0045
v 0.4252 2.4783 -1.0144
v 0.5213 2.5058 -1.0228
v 0.6175 2.5333 -1.0217
v 0.7136 2.5608 -1.0202
v 0.8097 2.5883 -1.0189
v 0.9059 2.6158 -1.0180
v 1.0020 2.6433 -1.0165
v 1.0982 2.6708 -1.0144
v 1.1943 2.6984 -1.0131
v -4.0659 1.0890 -1.1839
v -3.9698 1.1165 -1.1870
v -3.8736 1.1440 -1.1909
v -3.7775 1.1715 -1.1960
v -3.6814 1.1990 -1.1984
v -3.5852 1.2265 -1.1977
v -3.4891 1.2541 -1.2027
v -3.3929 1.2816 -1.1940
v -3.2968 1.3091 -1.1770
v -3.2006 1.3366 -1.1537
v -3.1045 1.3641 -1.1303
v -3.0084 1.3916 -1.1192
v -2.9122 1.4191 -1.1169
v -2.8161 1.4467 -1.1215
v -2.7199 1.4742 -1.1247
v -2.6238 1.5017 -1.1246
v -2.5277 1.5292 -1.1243
v -2.4315 1.5567 -1.1215
v -2.3354 1.5842 -1.1206
v -2.2392 1.6117 -1.1200
v -2.1431 1.6392 -1.1193
v -2.0470 1.6668 -1.1161
v -1.9508 1.6943 -1.1146
v -1.8547 1.7218 -1.1114
v -1.7585 1.7493 -1.1094
v -1.6624 1.7768 -1.1118
v -1.5663 1.8043 -1.1136
v -1.4701 1.8318 -1.1120
v -1.3740 1.8594 -1.1118
v -1.2778 1.8869 -1.1190
v -1.1817 1.9144 -1.1228
v -1.0856 1.9419 -1.1249
v -0.9894 1.9694 -1.1294
v -0.8933 1.9969 -1.1314
v -0.7971 2.0244 -1.1235
v -0.7010 2.0520 -1.1149
v -0.6049 2.0795 -1.1052
v -0.5087 2.1070 -1.0929
v -0.4126 2.1345 -1.0840
v -0.3164 2.1620 -1.0746
v -0.2203 2.1895 -1.0675
v -0.1242 2.2170 -1.0614
v -0.0280 2.2445 -1.0563
v 0.0681 2.2721 -1.0508
v 0.1643 2.2996 -1.0588
v 0.2604 2.3271 -1.0673
v 0.3566 2.3546 -1.0758
v 0.4527 2.3821 -1.0838
v 0.5488 2.4096 -1.0937
v 0.6450 2.4371 -1.0926
v 0.7411 2.4647 -1.0918
v 0.8373 2.4922 -1.0899
v 0.9334 2.5197 -1.0887
v 1.0295 2.5472 -1.0874
v 1.1257 2.5747 -1.0860
v 1.2218 2.6022 -1.0865
v -4.0384 0.9928 -1.2567
v -3.9423 1.0203 -1.2592
v -3.8461 1.0479 -1.2624
v -3.7500 1.0754 -1.2669
v -3.6538 1.1029 -1.2691
v -3.5577 1.1304 -1.2690
v -3.4616 1.1579 -1.2765
v -3.3654 1.1854 -1.2695
v -3.2693 1.2129 -1.2505
v -3.1731 1.2405 -1.2289
v -3.0770 1.2680 -1.2004
v -2.9809 1.2955 -1.1885
v -2.8847 1.3230 -1.1860
v -2.7886 1.3505 -1.1897
v -2.6924 1.3780 -1.1945
v -2.5963 1.4055 -1.1990
v -2.5002 1.4331 -1.1994
v -2.4040 1.4606 -1.1978
v -2.3079 1.4881 -1.1977
v -2.2117 1.5156 -1.1977
v -2.1156 1.5431 -1.1979
v -2.0194 1.5706 -1.1957
v -1.9233 1.5981 -1.1954
v -1.8272 1.6256 -1.1943
v -1.7310 1.6532 -1.1940
v -1.6349 1.6807 -1.1957
v -1.5387 1.7082 -1.1986
v -1.4426 1.7357 -1.1999
v -1.3465 1.7632 -1.2040
v -1.2503 1.7907 -1.2131
v -1.1542 1.8182 -1.2180
v -1.0580 1.8458 -1.2208
v -0.9619 1.8733 -1.2238
v -0.8658 1.9008 -1.2215
v -0.7696 1.9283 -1.2109
v -0.6735 1.9558 -1.2007
v -0.5773 1.9833 -1.1889
v -0.4812 2.0108 -1.1748
v -0.3851 2.0384 -1.1635
v -0.2889 2.0659 -1.1531
v -0.1928 2.0934 -1.1444
v -0.0966 2.1209 -1.1356
v -0.0005 2.1484 -1.1277
v 0.0956 2.1759 -1.1213
v 0.1918 2.2034 -1.1282
v 0.2879 2.2309 -1.1369
v 0.3841 2.2585 -1.1467
v 0.4802 2.2860 -1.1555
v 0.5763 2.3135 -1.1653
v 0.6725 2.3410 -1.1638
v 0.7686 2.3685 -1.1632
v 0.8648 2.3960 -1.1618
v 0.9609 2.4235 -1.1601
v 1.0570 2.4511 -1.1587
v 1.1532 2.4786 -1.1575
v 1.2493 2.5061 -1.1580
v -4.0109 0.8967 -1.3284
v -3.9147 0.9242 -1.3309
v -3.8186 0.9517 -1.3342
v -3.7225 0.9792 -1.3388
v -3.6263 1.0068 -1.3409
v -3.5302 1.0343 -1.3412
v -3.4340 1.0618 -1.3472
v -3.3379 1.0893 -1.3380
v -3.2418 1.1168 -1.3228
v -3.1456 1.1443 -1.3009
v -3.0495 1.1718 -1.2724
v -2.9533 1.1993 -1.2600
v -2.8572 1.2269 -1.2573
v -2.7611 1.2544 -1.2616
v -2.6649 1.2819 -1.2677
v -2.5688 1.3094 -1.2717
v -2.4726 1.3369 -1.2731
v -2.3765 1.3644 -1.2743
v -2.2804 1.3919 -1.2756
v -2.1842 1.4195 -1.2771
v -2.0881 1.4470 -1.2794
v -1.9919 1.4745 -1.2792
v -1.8958 1.5020 -1.2819
v -1.7997 1.5295 -1.2833
v -1.7035 1.5570 -1.2844
v -1.6074 1.5845 -1.2864
v -1.5112 1.6120 -1.2885
v -1.4151 1.6396 -1.2894
v -1.3190 1.6671 -1.2922
v -1.2228 1.6946 -1.3021
v -1.1267 1.7221 -1.3083
v -1.0305 1.7496 -1.3117
v -0.9344 1.7771 -1.3142
v -0.8382 1.8046 -1.3132
v -0.7421 1.8322 -1.3004
v -0.6460 1.8597 -1.2892
v -0.5498 1.8872 -1.2768
v -0.4537 1.9147 -1.2623
v -0.3575 1.9422 -1.2489
v -0.2614 1.9697 -1.2390
v -0.1653 1.9972 -1.2293
v -0.0691 2.0248 -1.2189
v 0.0270 2.0523 -1.2084
v 0.1232 2.0798 -1.1992
v 0.2193 2.1073 -1.2039
v 0.3154 2.1348 -1.2106
v 0.4116 2.1623 -1.2186
v 0.5077 2.1898 -1.2276
v 0.6039 2.2173 -1.2368
v 0.7000 2.2449 -1.2358
v 0.7961 2.2724 -1.2343
v 0.8923 2.2999 -1.2332
v 0.9884 2.3274 -1.2315
v 1.0846 2.3549 -1.2298
v 1.1807 2.3824 -1.2305
v 1.2768 2.4099 -1.2318
v -3.9834 0.8006 -1.4009
v -3.8872 0.8281 -1.4029
v -3.7911 0.8556 -1.4059
v -3.6950 0.8831 -1.4101
v -3.5988 0.9106 -1.4104
v -3.5027 0.9381 -1.4097
v -3.4065 0.9656 -1.4079
v -3.3104 0.9932 -1.3997
v -3.2142 1.0207 -1.3799
v -3.1181 1.0482 -1.3619
v -3.0220 1.0757 -1.3414
v -2.9258 1.1032 -1.3297
v -2.8297 1.1307 -1.3321
v -2.7335 1.1582 -1.3413
v -2.6374 1.1857 -1.3483
v -2.5413 1.2133 -1.3545
v -2.4451 1.2408 -1.3546
v -2.3490 1.2683 -1.3567
v -2.2528 1.2958 -1.3572
v -2.1567 1.3233 -1.3607
v -2.0606 1.3508 -1.3630
v -1.9644 1.3783 -1.3649
v -1.8683 1.4059 -1.3672
v -1.7721 1.4334 -1.3703
v -1.6760 1.4609 -1.3728
v -1.5799 1.4884 -1.3752
v -1.4837 1.5159 -1.3791
v -1.3876 1.5434 -1.3824
v -1.2914 1.5709 -1.3830
v -1.1953 1.5984 -1.3932
v -1.0992 1.6260 -1.3997
v -1.0030 1.6535 -1.4017
v -0.9069 1.6810 -1.4017
v -0.8107 1.7085 -1.4014
v -0.7146 1.7360 -1.3889
v -0.6185 1.7635 -1.3759
v -0.5223 1.7910 -1.3639
v -0.4262 1.8186 -1.3497
v -0.3300 1.8461 -1.3366
v -0.2339 1.8736 -1.3253
v -0.1378 1.9011 -1.3142
v -0.0416 1.9286 -1.3023
v 0.0545 1.9561 -1.2912
v 0.1507 1.9836 -1.2777
v 0.2468 2.0112 -1.2795
v 0.3430 2.0387 -1.2837
v 0.4391 2.0662 -1.2898
v 0.5352 2.0937 -1.2980
v 0.6314 2.1212 -1.3080
v 0.7275 2.1487 -1.3077
v 0.8237 2.1762 -1.3065
v 0.9198 2.2037 -1.3045
v 1.0159 2.2313 -1.3039
v 1.1121 2.2588 -1.3026
v 1.2082 2.2863 -1.3014
v 1.3044 2.3138 -1.3020
v -3.9559 0.7044 -1.4725
v -3.8597 0.7319 -1.4739
v -3.7636 0.7594 -1.4755
v -3.6674 0.7870 -1.4786
v -3.5713 0.8145 -1.4775
v -3.4752 0.8420 -1.4773
v -3.3790 0.8695 -1.4718
v -3.2829 0.8970 -1.4621
v -3.1867 0.9245 -1.4464
v -3.0906 0.9520 -1.4292
v -2.9945 0.9796 -1.4141
v -2.8983 1.0071 -1.4033
v -2.8022 1.0346 -1.4052
v -2.7060 1.0621 -1.4145
v -2.6099 1.0896 -1.4228
v -2.5138 1.1171 -1.4339
v -2.4176 1.1446 -1.4362
v -2.3215 1.1721 -1.4400
v -2.2253 1.1997 -1.4432
v -2.1292 1.2272 -1.4456
v -2.0330 1.2547 -1.4468
v -1.9369 1.2822 -1.4496
v -1.8408 1.3097 -1.4532
v -1.7446 1.3372 -1.4560
v -1.6485 1.3647 -1.4597
v -1.5523 1.3923 -1.4625
v -1.4562 1.4198 -1.4667
v -1.3601 1.4473 -1.4730
v -1.2639 1.4748 -1.4789
v -1.1678 1.5023 -1.4869
v -1.0716 1.5298 -1.4924
v -0.9755 1.5573 -1.4935
v -0.8794 1.5848 -1.4887
v -0.7832 1.6124 -1.4824
v -0.6871 1.6399 -1.4697
v -0.5909 1.6674 -1.4563
v -0.4948 1.6949 -1.4427
v -0.3987 1.7224 -1.4300
v -0.3025 1.7499 -1.4164
v -0.2064 1.7774 -1.4062
v -0.1102 1.8050 -1.3964
v -0.0141 1.8325 -1.3862
v 0.0820 1.8600 -1.3752
v 0.1782 1.8875 -1.3627
v 0.2743 1.9150 -1.3613
v 0.3705 1.9425 -1.3627
v 0.4666 1.9700 -1.3665
v 0.5627 1.9976 -1.3718
v 0.6589 2.0251 -1.3808
v 0.7550 2.0526 -1.3792
v 0.8512 2.0801 -1.3781
v 0.9473 2.1076 -1.3778
v 1.0434 2.1351 -1.3760
v 1.1396 2.1626 -1.3744
v 1.2357 2.1901 -1.3738
v 1.3319 2.2177 -1.3729
v -3.9283 0.6083 -1.5386
v -3.8322 0.6358 -1.5378
v -3.7361 0.6633 -1.5375
v -3.6399 0.6908 -1.5380
v -3.5438 0.7183 -1.5371
v -3.4476 0.7458 -1.5366
v -3.3515 0.7734 -1.5323
v -3.2554 0.8009 -1.5247
v -3.1592 0.8284 -1.5114
v -3.0631 0.8559 -1.4983
v -2.9669 0.8834 -1.4875
v -2.8708 0.9109 -1.4826
v -2.7747 0.9384 -1.4874
v -2.6785 0.9660 -1.5003
v -2.5824 0.9935 -1.5103
v -2.4862 1.0210 -1.5185
v -2.3901 1.0485 -1.5215
v -2.2940 1.0760 -1.5255
v -2.1978 1.1035 -1.5264
v -2.1017 1.1310 -1.5276
v -2.0055 1.1585 -1.5305
v -1.9094 1.1861 -1.5335
v -1.8133 1.2136 -1.5374
v -1.7171 1.2411 -1.5411
v -1.6210 1.2686 -1.5443
v -1.5248 1.2961 -1.5474
v -1.4287 1.3236 -1.5518
v -1.3326 1.3511 -1.5580
v -1.2364 1.3787 -1.5672
v -1.1403 1.4062 -1.5734
v -1.0441 1.4337 -1.5764
v -0.9480 1.4612 -1.5759
v -0.8518 1.4887 -1.5700
v -0.7557 1.5162 -1.5582
v -0.6596 1.5437 -1.5452
v -0.5634 1.5712 -1.5307
v -0.4673 1.5988 -1.5165
v -0.3711 1.6263 -1.5027
v -0.2750 1.6538 -1.4903
v -0.1789 1.6813 -1.4796
v -0.0827 1.7088 -1.4699
v 0.0134 1.7363 -1.4593
v 0.1096 1.7638 -1.4477
v 0.2057 1.7914 -1.4364
v 0.3018 1.8189 -1.4353
v 0.3980 1.8464 -1.4365
v 0.4941 1.8739 -1.4395
v 0.5903 1.9014 -1.4449
v 0.6864 1.9289 -1.4530
v 0.7825 1.9564 -1.4517
v 0.8787 1.9840 -1.4506
v 0.9748 2.0115 -1.4503
v 1.0710 2.0390 -1.4486
v 1.1671 2.0665 -1.4471
v 1.2632 2.0940 -1.4464
v 1.3594 2.1215 -1.4459
v -3.9008 0.5121 -1.6056
v -3.8047 0.5396 -1.6045
v -3.7086 0.5672 -1.6037
v -3.6124 0.5947 -1.6034
v -3.5163 0.6222 -1.6023
v -3.4201 0.6497 -1.6006
v -3.3240 0.6772 -1.5978
v -3.2278 0.7047 -1.5918
v -3.1317 0.7322 -1.5830
v -3.0356 0.7598 -1.5724
v -2.9394 0.7873 -1.5658
v -2.8433 0.8148 -1.5625
v -2.7471 0.8423 -1.5681
v -2.6510 0.8698 -1.5795
v -2.5549 0.8973 -1.5876
v -2.4587 0.9248 -1.5901
v -2.3626 0.9524 -1.5915
v -2.2664 0.9799 -1.5933
v -2.1703 1.0074 -1.5940
v -2.0742 1.0349 -1.5946
v -1.9780 1.0624 -1.5964
v -1.8819 1.0899 -1.5995
v -1.7857 1.1174 -1.6017
v -1.6896 1.1449 -1.6044
v -1.5935 1.1725 -1.6068
v -1.4973 1.2000 -1.6092
v -1.4012 1.2275 -1.6118
v -1.3050 1.2550 -1.6166
v -1.2089 1.2825 -1.6234
v -1.1128 1.3100 -1.6276
v -1.0166 1.3375 -1.6285
v -0.9205 1.3651 -1.6269
v -0.8243 1.3926 -1.6224
v -0.7282 1.4201 -1.6123
v -0.6321 1.4476 -1.6010
v -0.5359 1.4751 -1.5892
v -0.4398 1.5026 -1.5767
v -0.3436 1.5301 -1.5654
v -0.2475 1.5576 -1.5566
v -0.1514 1.5852 -1.5491
v -0.0552 1.6127 -1.5419
v 0.0409 1.6402 -1.5341
v 0.1371 1.6677 -1.5257
v 0.2332 1.6952 -1.5166
v 0.3294 1.7227 -1.5157
v 0.4255 1.7502 -1.5162
v 0.5216 1.7778 -1.5177
v 0.6178 1.8053 -1.5214
v 0.7139 1.8328 -1.5261
v 0.8101 1.8603 -1.5244
v 0.9062 1.8878 -1.5232
v 1.0023 1.9153 -1.5230
v 1.0985 1.9428 -1.5222
v 1.1946 1.9704 -1.5213
v 1.2908 1.9979 -1.5205
v 1.3869 2.0254 -1.5195
v -3.8733 0.4160 -1.6729
v -3.7772 0.4435 -1.6716
v -3.6810 0.4710 -1.6702
v -3.5849 0.4985 -1.6690
v -3.4888 0.5260 -1.6682
v -3.3926 0.5536 -1.6669
v -3.2965 0.5811 -1.6657
v -3.2003 0.6086 -1.6628
v -3.1042 0.6361 -1.6580
v -3.0081 0.6636 -1.6522
v -2.9119 0.6911 -1.6440
v -2.8158 0.7186 -1.6395
v -2.7196 0.7462 -1.6412
v -2.6235 0.7737 -1.6499
v -2.5274 0.8012 -1.6545
v -2.4312 0.8287 -1.6546
v -2.3351 0.8562 -1.6563
v -2.2389 0.8837 -1.6578
v -2.1428 0.9112 -1.6580
v -2.0466 0.9388 -1.6597
v -1.9505 0.9663 -1.6604
v -1.8544 0.9938 -1.6620
v -1.7582 1.0213 -1.6637
v -1.6621 1.0488 -1.6649
v -1.5659 1.0763 -1.6661
v -1.4698 1.1038 -1.6676
v -1.3737 1.1313 -1.6701
v -1.2775 1.1589 -1.6726
v -1.1814 1.1864 -1.6769
v -1.0852 1.2139 -1.6795
v -0.9891 1.2414 -1.6799
v -0.8930 1.2689 -1.6779
v -0.7968 1.2964 -1.6737
v -0.7007 1.3239 -1.6657
v -0.6045 1.3515 -1.6571
v -0.5084 1.3790 -1.6466
v -0.4123 1.4065 -1.6357
v -0.3161 1.4340 -1.6264
v -0.2200 1.4615 -1.6206
v -0.1238 1.4890 -1.6148
v -0.0277 1.5165 -1.6101
v 0.0684 1.5440 -1.6043
v 0.1646 1.5716 -1.5983
v 0.2607 1.5991 -1.5921
v 0.3569 1.6266 -1.5917
v 0.4530 1.6541 -1.5917
v 0.5491 1.6816 -1.5926
v 0.6453 1.7091 -1.5949
v 0.7414 1.7366 -1.5995
v 0.8376 1.7642 -1.5985
v 0.9337 1.7917 -1.5970
v 1.0298 1.8192 -1.5959
v 1.1260 1.8467 -1.5953
v 1.2221 1.8742 -1.5945
v 1.3183 1.9017 -1.5941
v 1.4144 1.9292 -1.5934
v -3.8458 0.3199 -1.7396
v -3.7497 0.3474 -1.7381
v -3.6535 0.3749 -1.7362
v -3.5574 0.4024 -1.7340
v -3.4612 0.4299 -1.7333
v -3.3651 0.4574 -1.7337
v -3.2690 0.4849 -1.7343
v -3.1728 0.5124 -1.7371
v -3.0767 0.5400 -1.7377
v -2.9805 0.5675 -1.7372
v -2.8844 0.5950 -1.7244
v -2.7883 0.6225 -1.7186
v -2.6921 0.6500 -1.7155
v -2.5960 0.6775 -1.7190
v -2.4998 0.7050 -1.7218
v -2.4037 0.7326 -1.7199
v -2.3076 0.7601 -1.7199
v -2.2114 0.7876 -1.7205
v -2.1153 0.8151 -1.7206
v -2.0191 0.8426 -1.7204
v -1.9230 0.8701 -1.7213
v -1.8269 0.8976 -1.7211
v -1.7307 0.9252 -1.7217
v -1.6346 0.9527 -1.7226
v -1.5384 0.9802 -1.7225
v -1.4423 1.0077 -1.7229
v -1.3462 1.0352 -1.7242
v -1.2500 1.0627 -1.7262
v -1.1539 1.0902 -1.7284
v -1.0577 1.1177 -1.7298
v -0.9616 1.1453 -1.7302
v -0.8654 1.1728 -1.7279
v -0.7693 1.2003 -1.7246
v -0.6732 1.2278 -1.7184
v -0.5770 1.2553 -1.7129
v -0.4809 1.2828 -1.7051
v -0.3847 1.3103 -1.6957
v -0.2886 1.3379 -1.6881
v -0.1925 1.3654 -1.6845
v -0.0963 1.3929 -1.6815
v -0.0002 1.4204 -1.6793
v 0.0960 1.4479 -1.6762
v 0.1921 1.4754 -1.6727
v 0.2882 1.5029 -1.6682
v 0.3844 1.5304 -1.6675
v 0.4805 1.5580 -1.6674
v 0.5767 1.5855 -1.6685
v 0.6728 1.6130 -1.6697
v 0.7689 1.6405 -1.6717
v 0.8651 1.6680 -1.6710
v 0.9612 1.6955 -1.6706
v 1.0574 1.7230 -1.6701
v 1.1535 1.7506 -1.6685
v 1.2496 1.7781 -1.6674
v 1.3458 1.8056 -1.6670
v 1.4419 1.8331 -1.6663
v -3.8183 0.2237 -1.7926
v -3.7222 0.2512 -1.7905
v -3.6260 0.2787 -1.7895
v -3.5299 0.3063 -1.7887
v -3.4337 0.3338 -1.7888
v -3.3376 0.3613 -1.7897
v -3.2414 0.3888 -1.7911
v -3.1453 0.4163 -1.7953
v -3.0492 0.4438 -1.8014
v -2.9530 0.4713 -1.7985
v -2.8569 0.4988 -1.7961
v -2.7607 0.5264 -1.7823
v -2.6646 0.5539 -1.7772
v -2.5685 0.5814 -1.7752
v -2.4723 0.6089 -1.7748
v -2.3762 0.6364 -1.7717
v -2.2800 0.6639 -1.7680
v -2.1839 0.6914 -1.7674
v -2.0878 0.7190 -1.7668
v -1.9916 0.7465 -1.7658
v -1.8955 0.7740 -1.7651
v -1.7993 0.8015 -1.7648
v -1.7032 0.8290 -1.7637
v -1.6071 0.8565 -1.7630
v -1.5109 0.8840 -1.7627
v -1.4148 0.9116 -1.7618
v -1.3186 0.9391 -1.7620
v -1.2225 0.9666 -1.7627
v -1.1264 0.9941 -1.7635
v -1.0302 1.0216 -1.7644
v -0.9341 1.0491 -1.7644
v -0.8379 1.0766 -1.7636
v -0.7418 1.1041 -1.7617
v -0.6457 1.1317 -1.7586
v -0.5495 1.1592 -1.7550
v -0.4534 1.1867 -1.7498
v -0.3572 1.2142 -1.7434
v -0.2611 1.2417 -1.7365
v -0.1650 1.2692 -1.7351
v -0.0688 1.2967 -1.7341
v 0.0273 1.3243 -1.7336
v 0.1235 1.3518 -1.7333
v 0.2196 1.3793 -1.7322
v 0.3158 1.4068 -1.7308
v 0.4119 1.4343 -1.7311
v 0.5080 1.4618 -1.7308
v 0.6042 1.4893 -1.7303
v 0.7003 1.5168 -1.7307
v 0.7965 1.5444 -1.7315
v 0.8926 1.5719 -1.7309
v 0.9887 1.5994 -1.7298
v 1.0849 1.6269 -1.7296
v 1.1810 1.6544 -1.7283
v 1.2772 1.6819 -1.7282
v 1.3733 1.7094 -1.7268
v 1.4694 1.7370 -1.7260
v -3.7908 0.1276 -1.8395
v -3.6946 0.1551 -1.8386
v -3.5985 0.1826 -1.8381
v -3.5024 0.2101 -1.8380
v -3.4062 0.2376 -1.8382
v -3.3101 0.2651 -1.8376
v -3.2139 0.2927 -1.8417
v -3.1178 0.3202 -1.8453
v -3.0217 0.3477 -1.8478
v -2.9255 0.3752 -1.8487
v -2.8294 0.4027 -1.8423
v -2.7332 0.4302 -1.8276
v -2.6371 0.4577 -1.8225
v -2.5410 0.4852 -1.8192
v -2.4448 0.5128 -1.8161
v -2.3487 0.5403 -1.8110
v -2.2525 0.5678 -1.8031
v -2.1564 0.5953 -1.7999
v -2.0602 0.6228 -1.7980
v -1.9641 0.6503 -1.7961
v -1.8680 0.6778 -1.7943
v -1.7718 0.7054 -1.7928
v -1.6757 0.7329 -1.7904
v -1.5795 0.7604 -1.7888
v -1.4834 0.7879 -1.7873
v -1.3873 0.8154 -1.7859
v -1.2911 0.8429 -1.7851
v -1.1950 0.8704 -1.7847
v -1.0988 0.8980 -1.7843
v -1.0027 0.9255 -1.7845
v -0.9066 0.9530 -1.7852
v -0.8104 0.9805 -1.7853
v -0.7143 1.0080 -1.7851
v -0.6181 1.0355 -1.7843
v -0.5220 1.0630 -1.7833
v -0.4259 1.0905 -1.7814
v -0.3297 1.1181 -1.7767
v -0.2336 1.1456 -1.7723
v -0.1374 1.1731 -1.7719
v -0.0413 1.2006 -1.7728
v 0.0548 1.2281 -1.7750
v 0.1510 1.2556 -1.7769
v 0.2471 1.2831 -1.7778
v 0.3433 1.3107 -1.7787
v 0.4394 1.3382 -1.7789
v 0.5355 1.3657 -1.7793
v 0.6317 1.3932 -1.7788
v 0.7278 1.4207 -1.7778
v 0.8240 1.4482 -1.7781
v 0.9201 1.4757 -1.7764
v 1.0162 1.5032 -1.7755
v 1.1124 1.5308 -1.7756
v 1.2085 1.5583 -1.7741
v 1.3047 1.5858 -1.7730
v 1.4008 1.6133 -1.7726
v 1.4970 1.6408 -1.7711
f 1 2 58 57
f 2 3 59 58
f 3 4 60 59
f 4 5 61 60
f 5 6 62 61
f 6 7 63 62
f 7 8 64 63
f 8 9 65 64
f 9 10 66 65
f 10 11 67 66
f 11 12 68 67
f 12 13 69 68
f 13 14 70 69
f 14 15 71 70
f 15 16 72 71
f 16 17 73 72
f 17 18 74 73
f 18 19 75 74
f 19 20 76 75
f 20 21 77 76
f 21 22 78 77
f 22 23 79 78
f 23 24 80 79
f 24 25 81 80
f 25 26 82 81
f 26 27 83 82
f 27 28 84 83
f 28 29 85 84
f 29 30 86 85
f 30 31 87 86
f 31 32 88 87
f 32 33 89 88
f 33 34 90 89
f 34 35 91 90
f 35 36 92 91
f 36 37 93 92
f 37 38 94 93
f 38 39 95 94
f 39 40 96 95
f 40 41 97 96
f 41 42 98 97
f 42 43 99 98
f 43 44 100 99
f 44 45 101 100
f 45 46 102 101
f 46 47 103 102
f 47 48 104 103
f 48 49 105 104
f 49 50 106 105
f 50 51 107 106
f 51 52 108 107
f 52 53 109 108
f 53 54 110 109
f 54 55 111 110
f 55 56 112 111
f 57 58 114 113
f 58 59 115 114
f 59 60 116 115
f 60 61 117 116
f 61 62 118 117
f 62 63 119 118
f 63 64 120 119
f 64 65 121 120
f 65 66 122 121
f 66 67 123 122
f 67 68 124 123
f 68 69 125 124
f 69 70 126 125
f 70 71 127 126
f 71 72 128 127
f 72 73 129 128
f 73 74 130 129
f 74 75 131 130
f 75 76 132 131
f 76 77 133 132
f 77 78 134 133
f 78 79 135 134
f 79 80 136 135
f 80 81 137 136
f 81 82 138 137
f 82 83 139 138
f 83 84 140 139
f 84 85 141 140
f 85 86 142 141
f 86 87 143 142
f 87 88 144 143
f 88 89 145 144
f 89 90 146 145
f 90 91 147 146
f 91 92 148 147
f 92 93 149 148
f 93 94 150 149
f 94 95 151 150
f 95 96 152 151
f 96 97 153 152
f 97 98 154 153
f 98 99 155 154
f 99 100 156 155
f 100 101 157 156
f 101 102 158 157
f 102 103 159 158
f 103 104 160 159
f 104 105 161 160
f 105 106 162 161
f 106 107 163 162
f 107 108 164 163
f 108 109 165 164
f 109 110 166 165
f 110 111 167 166
f 111 112 168 167
f 113 114 170 169
f 114 115 171 170
f 115 116 172 171
f 116 117 173 172
f 117 118 174 173
f 118 119 175 174
f 119 120 176 175
f 120 121 177 176
f 121 122 178 177
f 122 123 179 178
f 123 124 180 179
f 124 125 181 180
f 125 126 182 181
f 126 127 183 182
f 127 128 184 183
f 128 129 185 184
f 129 130 186 185
f 130 131 187 186
f 131 132 188 187
f 132 133 189 188
f 133 134 190 189
f 134 135 191 190
f 135 136 192 191
f 136 137 193 192
f 137 138 194 193
f 138 139 195 194
f 139 140 196 195
f 140 141 197 196
f 141 142 198 197
f 142 143 199 198
f 143 144 200 199
f 144 145 201 200
f 145 146 202 201
f 146 147 203 202
f 147 148 204 203
f 148 149 205 204
f 149 150 206 205
f 150 151 207 206
f 151 152 208 207
f 152 153 209 208
f 153 154 210 209
f 154 155 211 210
f 155 156 212 211
f 156 157 213 212
f 157 158 214 213
f 158 159 215 214
f 159 160 216 215
f 160 161 217 216
f 161 162 218 217
f 162 163 219 218
f 163 164 220 219
f 164 165 221 220
f 165 166 222 221
f 166 167 223 222
f 167 168 224 223
f 169 170 226 225
f 170 171 227 226
f 171 172 228 227
f 172 173 229 228
f 173 174 230 229
f 174 175 231 230
f 175 176 232 231
f 176 177 233 232
f 177 178 234 233
f 178 179 235 234
f 179 180 236 235
f 180 181 237 236
f 181 182 238 237
f 182 183 239 238
f 183 184 240 239
f 184 185 241 240
f 185 186 242 241
f 186 187 243 242
f 187 188 244 243
f 188 189 245 244
f 189 190 246 245
f 190 191 247 246
f 191 192 248 247
f 192 193 249 248
f 193 194 250 249
f 194 195 251 250
f 195 196 252 251
f 196 197 253 252
f 197 198 254 253
f 198 199 255 254
f 199 200 256 255
f 200 201 257 256
f 201 202 258 257
f 202 203 259 258
f 203 204 260 259
f 204 205 261 260
f 205 206 262 261
f 206 207 263 262
f 207 208 264 263
f 208 209 265 264
f 209 210 266 265
f 210 211 267 266
f 211 212 268 267
f 212 213 269 268
f 213 214 270 269
f 214 215 271 270
f 215 216 272 271
f 216 217 273 272
f 217 218 274 273
f 218 219 275 274
f 219 220 276 275
f 220 221 277 276
f 221 222 278 277
f 222 223 279 278
f 223 224 280 279
f 225 226 282 281
f 226 227 283 282
f 227 228 284 283
f 228 229 285 284
f 229 230 286 285
f 230 231 287 286
f 231 232 288 287
f 232 233 289 288
f 233 234 290 289
f 234 235 291 290
f 235 236 292 291
f 236 237 293 292
f 237 238 294 293
f 238 239 295 294
f 239 240 296 295
f 240 241 297 296
f 241 242 298 297
f 242 243 299 298
f 243 244 300 299
f 244 245 301 300
f 245 246 302 301
f 246 247 303 302
f 247 248 304 303
f 248 249 305 304
f 249 250 306 305
f 250 251 307 306
f 251 252 308 307
f 252 253 309 308
f 253 254 310 309
f 254 255 311 310
f 255 256 312 311
f 256 257 313 312
f 257 258 314 313
f 258 259 315 314
f 259 260 316 315
f 260 261 317 316
f 261 262 318 317
f 262 263 319 318
f 263 264 320 319
f 264 265 321 320
f 265 266 322 321
f 266 267 323 322
f 267 268 324 323
f 268 269 325 324
f 269 270 326 325
f 270 271 327 326
f 271 272 328 327
f 272 273 329 328
f 273 274 330 329
f 274 275 331 330
f 275 276 332 331
f 276 277 333 332
f 277 278 334 333
f 278 279 335 334
f 279 280 336 335
f 281 282 338 337
f 282 283 339 338
f 283 284 340 339
f 284 285 341 340
f 285 286 342 341
f 286 287 343 342
f 287 288 344 343
f 288 289 345 344
f 289 290 346 345
f 290 291 347 346
f 291 292 348 347
f 292 293 349 348
f 293 294 350 349
f 294 295 351 350
f 295 296 352 351
f 296 297 353 352
f 297 298 354 353
f 298 299 355 354
f 299 300 356 355
f 300 301 357 356
f 301 302 358 357
f 302 303 359 358
f 303 304 360 359
f 304 305 361 360
f 305 306 362 361
f 306 307 363 362
f 307 308 364 363
f 308 309 365 364
f 309 310 366 365
f 310 311 367 366
f 311 312 368 367
f 312 313 369 368
f 313 314 370 369
f 314 315 371 370
f 315 316 372 371
f 316 317 373 372
f 317 318 374 373
f 318 319 375 374
f 319 320 376 375
f 320 321 377 376
f 321 322 378 377
f 322 323 379 378
f 323 324 380 379
f 324 325 381 380
f 325 326 382 381
f 326 327 383 382
f 327 328 384 383
f 328 329 385 384
f 329 330 386 385
f 330 331 387 386
f 331 332 388 387
f 332 333 389 388
f 333 334 390 389
f 334 335 391 390
f 335 336 392 391
f 337 338 394 393
f 338 339 395 394
f 339 340 396 395
f 340 341 397 396
f 341 342 398 397
f 342 343 399 398
f 343 344 400 399
f 344 345 401 400
f 345 346 402 401
f 346 347 403 402
f 347 348 404 403
f 348 349 405 404
f 349 350 406 405
f 350 351 407 406
f 351 352 408 407
f 352 353 409 408
f 353 354 410 409
f 354 355 411 410
f 355 356 412 411
f 356 357 413 412
f 357 358 414 413
f 358 359 415 414
f 359 360 416 415
f 360 361 417 416
f 361 362 418 417
f 362 363 419 418
f 363 364 420 419
f 364 365 421 420
f 365 366 422 421
f 366 367 423 422
f 367 368 424 423
f 368 369 425 424
f 369 370 426 425
f 370 371 427 426
f 371 372 428 427
f 372 373 429 428
f 373 374 430 429
f 374 375 431 430
f 375 376 432 431
f 376 377 433 432
f 377 378 434 433
f 378 379 435 434
f 379 380 436 435
f 380 381 437 436
f 381 382 438 437
f 382 383 439 438
f 383 384 440 439
f 384 385 441 440
f 385 386 442 441
f 386 387 443 442
f 387 388 444 443
f 388 389 445 444
f 389 390 446 445
f 390 391 447 446
f 391 392 448 447
f 393 394 450 449
f 394 395 451 450
f 395 396 452 451
f 396 397 453 452
f 397 398 454 453
f 398 399 455 454
f 399 400 456 455
f 400 401 457 456
f 401 402 458 457
f 402 403 459 458
f 403 404 460 459
f 404 405 461 460
f 405 406 462 461
f 406 407 463 462
f 407 408 464 463
f 408 409 465 464
f 409 410 466 465
f 410 411 467 466
f 411 412 468 467
f 412 413 469 468
f 413 414 470 469
f 414 415 471 470
f 415 416 472 471
f 416 417 473 472
f 417 418 474 473
f 418 419 475 474
f 419 420 476 475
f 420 421 477 476
f 421 422 478 477
f 422 423 479 478
f 423 424 480 479
f 424 425 481 480
f 425 426 482 481
f 426 427 483 482
f 427 428 484 483
f 428 429 485 484
f 429 430 486 485
f 430 431 487 486
f 431 432 488 487
f 432 433 489 488
f 433 434 490 489
f 434 435 491 490
f 435 436 492 491
f 436 437 493 492
f 437 438 494 493
f 438 439 495 494
f 439 440 496 495
f 440 441 497 496
f 441 442 498 497
f 442 443 499 498
f 443 444 500 499
f 444 445 501 500
f 445 446 502 501
f 446 447 503 502
f 447 448 504 503
f 449 450 506 505
f 450 451 507 506
f 451 452 508 507
f 452 453 509 508
f 453 454 510 509
f 454 455 511 510
f 455 456 512 511
f 456 457 513 512
f 457 458 514 513
f 458 459 515 514
f 459 460 516 515
f 460 461 517 516
f 461 462 518 517
f 462 463 519 518
f 463 464 520 519
f 464 465 521 520
f 465 466 522 521
f 466 467 523 522
f 467 468 524 523
f 468 469 525 524
f 469 470 526 525
f 470 471 527 526
f 471 472 528 527
f 472 473 529 528
f 473 474 530 529
f 474 475 531 530
f 475 476 532 531
f 476 477 533 532
f 477 478 534 533
f 478 479 535 534
f 479 480 536 535
f 480 481 537 536
f 481 482 538 537
f 482 483 539 538
f 483 484 540 539
f 484 485 541 540
f 485 486 542 541
f 486 487 543 542
f 487 488 544 543
f 488 489 545 544
f 489 490 546 545
f 490 491 547 546
f 491 492 548 547
f 492 493 549 548
f 493 494 550 549
f 494 495 551 550
f 495 496 552 551
f 496 497 553 552
f 497 498 554 553
f 498 499 555 554
f 499 500 556 555
f 500 501 557 556
f 501 502 558 557
f 502 503 559 558
f 503 504 560 559
f 505 506 562 561
f 506 507 563 562
f 507 508 564 563
f 508 509 565 564
f 509 510 566 565
f 510 511 567 566
f 511 512 568 567
f 512 513 569 568
f 513 514 570 569
f 514 515 571 570
f 515 516 572 571
f 516 517 573 572
f 517 518 574 573
f 518 519 575 574
f 519 520 576 575
f 520 521 577 576
f 521 522 578 577
f 522 523 579 578
f 523 524 580 579
f 524 525 581 580
f 525 526 582 581
f 526 527 583 582
f 527 528 584 583
f 528 529 585 584
f 529 530 586 585
f 530 531 587 586
f 531 532 588 587
f 532 533 589 588
f 533 534 590 589
f 534 535 591 590
f 535 536 592 591
f 536 537 593 592
f 537 538 594 593
f 538 539 595 594
f 539 540 596 595
f 540 541 597 596
f 541 542 598 597
f 542 543 599 598
f 543 544 600 599
f 544 545 601 600
f 545 546 602 601
f 546 547 603 602
f 547 548 604 603
f 548 549 605 604
f 549 550 606 605
f 550 551 607 606
f 551 552 608 607
f 552 553 609 608
f 553 554 610 609
f 554 555 611 610
f 555 556 612 611
f 556 557 613 612
f 557 558 614 613
f 558 559 615 614
f 559 560 616 615
f 561 562 618 617
f 562 563 619 618
f 563 564 620 619
f 564 565 621 620
f 565 566 622 621
f 566 567 623 622
f 567 568 624 623
f 568 569 625 624
f 569 570 626 625
f 570 571 627 626
f 571 572 628 627
f 572 573 629 628
f 573 574 630 629
f 574 575 631 630
f 575 576 632 631
f 576 577 633 632
f 577 578 634 633
f 578 579 635 634
f 579 580 636 635
f 580 581 637 636
f 581 582 638 637
f 582 583 639 638
f 583 584 640 639
f 584 585 641 640
f 585 586 642 641
f 586 587 643 642
f 587 588 644 643
f 588 589 645 644
f 589 590 646 645
f 590 591 647 646
f 591 592 648 647
f 592 593 649 648
f 593 594 650 649
f 594 595 651 650
f 595 596 652 651
f 596 597 653 652
f 597 598 654 653
f 598 599 655 654
f 599 600 656 655
f 600 601 657 656
f 601 602 658 657
f 602 603 659 658
f 603 604 660 659
f 604 605 661 660
f 605 606 662 661
f 606 607 663 662
f 607 608 664 663
f 608 609 665 664
f 609 610 666 665
f 610 611 667 666
f 611 612 668 667
f 612 613 669 668
f 613 614 670 669
f 614 615 671 670
f 615 616 672 671
f 617 618 674 673
f 618 619 675 674
f 619 620 676 675
f 620 621 677 676
f 621 622 678 677
f 622 623 679 678
f 623 624 680 679
f 624 625 681 680
f 625 626 682 681
f 626 627 683 682
f 627 628 684 683
f 628 629 685 684
f 629 630 686 685
f 630 631 687 686
f 631 632 688 687
f 632 633 689 688
f 633 634 690 689
f 634 635 691 690
f 635 636 692 691
f 636 637 693 692
f 637 638 694 693
f 638 639 695 694
f 639 640 696 695
f 640 641 697 696
f 641 642 698 697
f 642 643 699 698
f 643 644 700 699
f 644 645 701 700
f 645 646 702 701
f 646 647 703 702
f 647 648 704 703
f 648 649 705 704
f 649 650 706 705
f 650 651 707 706
f 651 652 708 707
f 652 653 709 708
f 653 654 710 709
f 654 655 711 710
f 655 656 712 711
f 656 657 713 712
f 657 658 714 713
f 658 659 715 714
f 659 660 716 715
f 660 661 717 716
f 661 662 718 717
f 662 663 719 718
f 663 664 720 719
f 664 665 721 720
f 665 666 722 721
f 666 667 723 722
f 667 668 724 723
f 668 669 725 724
f 669 670 726 725
f 670 671 727 726
f 671 672 728 727
f 673 674 730 729
f 674 675 731 730
f 675 676 732 731
f 676 677 733 732
f 677 678 734 733
f 678 679 735 734
f 679 680 736 735
f 680 681 737 736
f 681 682 738 737
f 682 683 739 738
f 683 684 740 739
f 684 685 741 740
f 685 686 742 741
f 686 687 743 742
f 687 688 744 743
f 688 689 745 744
f 689 690 746 745
f 690 691 747 746
f 691 692 748 747
f 692 693 749 748
f 693 694 750 749
f 694 695 751 750
f 695 696 752 751
f 696 697 753 752
f 697 698 754 753
f 698 699 755 754
f 699 700 756 755
f 700 701 757 756
f 701 702 758 757
f 702 703 759 758
f 703 704 760 759
f 704 705 761 760
f 705 706 762 761
f 706 707 763 762
f 707 708 764 763
f 708 709 765 764
f 709 710 766 765
f 710 711 767 766
f 711 712 768 767
f 712 713 769 768
f 713 714 770 769
f 714 715 771 770
f 715 716 772 771
f 716 717 773 772
f 717 718 774 773
f 718 719 775 774
f 719 720 776 775
f 720 721 777 776
f 721 722 778 777
f 722 723 779 778
f 723 724 780 779
f 724 725 781 780
f 725 726 782 781
f 726 727 783 782
f 727 728 784 783
f 729 730 786 785
f 730 731 787 786
f 731 732 788 787
f 732 733 789 788
f 733 734 790 789
f 734 735 791 790
f 735 736 792 791
f 736 737 793 792
f 737 738 794 793
f 738 739 795 794
f 739 740 796 795
f 740 741 797 796
f 741 742 798 797
f 742 743 799 798
f 743 744 800 799
f 744 745 801 800
f 745 746 802 801
f 746 747 803 802
f 747 748 804 803
f 748 749 805 804
f 749 750 806 805
f 750 751 807 806
f 751 752 808 807
f 752 753 809 808
f 753 754 810 809
f 754 755 811 810
f 755 756 812 811
f 756 757 813 812
f 757 758 814 813
f 758 759 815 814
f 759 760 816 815
f 760 761 817 816
f 761 762 818 817
f 762 763 819 818
f 763 764 820 819
f 764 765 821 820
f 765 766 822 821
f 766 767 823 822
f 767 768 824 823
f 768 769 825 824
f 769 770 826 825
f 770 771 827 826
f 771 772 828 827
f 772 773 829 828
f 773 774 830 829
f 774 775 831 830
f 775 776 832 831
f 776 777 833 832
f 777 778 834 833
f 778 779 835 834
f 779 780 836 835
f 780 781 837 836
f 781 782 838 837
f 782 783 839 838
f 783 784 840 839
f 785 786 842 841
f 786 787 843 842
f 787 788 844 843
f 788 789 845 844
f 789 790 846 845
f 790 791 847 846
f 791 792 848 847
f 792 793 849 848
f 793 794 850 849
f 794 795 851 850
f 795 796 852 851
f 796 797 853 852
f 797 798 854 853
f 798 799 855 854
f 799 800 856 855
f 800 801 857 856
f 801 802 858 857
f 802 803 859 858
f 803 804 860 859
f 804 805 861 860
f 805 806 862 861
f 806 807 863 862
f 807 808 864 863
f 808 809 865 864
f 809 810 866 865
f 810 811 867 866
f 811 812 868 867
f 812 813 869 868
f 813 814 870 869
f 814 815 871 870
f 815 816 872 871
f 816 817 873 872
f 817 818 874 873
f 818 819 875 874
f 819 820 876 875
f 820 821 877 876
f 821 822 878 877
f 822 823 879 878
f 823 824 880 879
f 824 825 881 880
f 825 826 882 881
f 826 827 883 882
f 827 828 884 883
f 828 829 885 884
f 829 830 886 885
f 830 831 887 886
f 831 832 888 887
f 832 833 889 888
f 833 834 890 889
f 834 835 891 890
f 835 836 892 891
f 836 837 893 892
f 837 838 894 893
f 838 839 895 894
f 839 840 896 895
f 841 842 898 897
f 842 843 899 898
f 843 844 900 899
f 844 845 901 900
f 845 846 902 901
f 846 847 903 902
f 847 848 904 903
f 848 849 905 904
f 849 850 906 905
f 850 851 907 906
f 851 852 908 907
f 852 853 909 908
f 853 854 910 909
f 854 855 911 910
f 855 856 912 911
f 856 857 913 912
f 857 858 914 913
f 858 859 915 914
f 859 860 916 915
f 860 861 917 916
f 861 862 918 917
f 862 863 919 918
f 863 864 920 919
f 864 865 921 920
f 865 866 922 921
f 866 867 923 922
f 867 868 924 923
f 868 869 925 924
f 869 870 926 925
f 870 871 927 926
f 871 872 928 927
f 872 873 929 928
f 873 874 930 929
f 874 875 931 930
f 875 876 932 931
f 876 877 933 932
f 877 878 934 933
f 878 879 935 934
f 879 880 936 935
f 880 881 937 936
f 881 882 938 937
f 882 883 939 938
f 883 884 940 939
f 884 885 941 940
f 885 886 942 941
f 886 887 943 942
f 887 888 944 943
f 888 889 945 944
f 889 890 946 945
f 890 891 947 946
f 891 892 948 947
f 892 893 949 948
f 893 894 950 949
f 894 895 951 950
f 895 896 952 951
f 897 898 954 953
f 898 899 955 954
f 899 900 956 955
f 900 901 957 956
f 901 902 958 957
f 902 903 959 958
f 903 904 960 959
f 904 905 961 960
f 905 906 962 961
f 906 907 963 962
f 907 908 964 963
f 908 909 965 964
f 909 910 966 965
f 910 911 967 966
f 911 912 968 967
f 912 913 969 968
f 913 914 970 969
f 914 915 971 970
f 915 916 972 971
f 916 917 973 972
f 917 918 974 973
f 918 919 975 974
f 919 920 976 975
f 920 921 977 976
f 921 922 978 977
f 922 923 979 978
f 923 924 980 979
f 924 925 981 980
f 925 926 982 981
f 926 927 983 982
f 927 928 984 983
f 928 929 985 984
f 929 930 986 985
f 930 931 987 986
f 931 932 988 987
f 932 933 989 988
f 933 934 990 989
f 934 935 991 990
f 935 936 992 991
f 936 937 993 992
f 937 938 994 993
f 938 939 995 994
f 939 940 996 995
f 940 941 997 996
f 941 942 998 997
f 942 943 999 998
f 943 944 1000 999
f 944 945 1001 1000
f 945 946 1002 1001
f 946 947 1003 1002
f 947 948 1004 1003
f 948 949 1005 1004
f 949 950 1006 1005
f 950 951 1007 1006
f 951 952 1008 1007
f 953 954 1010 1009
f 954 955 1011 1010
f 955 956 1012 1011
f 956 957 1013 1012
f 957 958 1014 1013
f 958 959 1015 1014
f 959 960 1016 1015
f 960 961 1017 1016
f 961 962 1018 1017
f 962 963 1019 1018
f 963 964 1020 1019
f 964 965 1021 1020
f 965 966 1022 1021
f 966 967 1023 1022
f 967 968 1024 1023
f 968 969 1025 1024
f 969 970 1026 1025
f 970 971 1027 1026
f 971 972 1028 1027
f 972 973 1029 1028
f 973 974 1030 1029
f 974 975 1031 1030
f 975 976 1032 1031
f 976 977 1033 1032
f 977 978 1034 1033
f 978 979 1035 1034
f 979 980 1036 1035
f 980 981 1037 1036
f 981 982 1038 1037
f 982 983 1039 1038
f 983 984 1040 1039
f 984 985 1041 1040
f 985 986 1042 1041
f 986 987 1043 1042
f 987 988 1044 1043
f 988 989 1045 1044
f 989 990 1046 1045
f 990 991 1047 1046
f 991 992 1048 1047
f 992 993 1049 1048
f 993 994 1050 1049
f 994 995 1051 1050
f 995 996 1052 1051
f 996 997 1053 1052
f 997 998 1054 1053
f 998 999 1055 1054
f 999 1000 1056 1055
f 1000 1001 1057 1056
f 1001 1002 1058 1057
f 1002 1003 1059 1058
f 1003 1004 1060 1059
f 1004 1005 1061 1060
f 1005 1006 1062 1061
f 1006 1007 1063 1062
f 1007 1008 1064 1063
f 1009 1010 1066 1065
f 1010 1011 1067 1066
f 1011 1012 1068 1067
f 1012 1013 1069 1068
f 1013 1014 1070 1069
f 1014 1015 1071 1070
f 1015 1016 1072 1071
f 1016 1017 1073 1072
f 1017 1018 1074 1073
f 1018 1019 1075 1074
f 1019 1020 1076 1075
f 1020 1021 1077 1076
f 1021 1022 1078 1077
f 1022 1023 1079 1078
f 1023 1024 1080 1079
f 1024 1025 1081 1080
f 1025 1026 1082 1081
f 1026 1027 1083 1082
f 1027 1028 1084 1083
f 1028 1029 1085 1084
f 1029 1030 1086 1085
f 1030 1031 1087 1086
f 1031 1032 1088 1087
f 1032 1033 1089 1088
f 1033 1034 1090 1089
f 1034 1035 1091 1090
f 1035 1036 1092 1091
f 1036 1037 1093 1092
f 1037 1038 1094 1093
f 1038 1039 1095 1094
f 1039 1040 1096 1095
f 1040 1041 1097 1096
f 1041 1042 1098 1097
f 1042 1043 1099 1098
f 1043 1044 1100 1099
f 1044 1045 1101 1100
f 1045 1046 1102 1101
f 1046 1047 1103 1102
f 1047 1048 1104 1103
f 1048 1049 1105 1104
f 1049 1050 1106 1105
f 1050 1051 1107 1106
f 1051 1052 1108 1107
f 1052 1053 1109 1108
f 1053 1054 1110 1109
f 1054 1055 1111 1110
f 1055 1056 1112 1111
f 1056 1057 1113 1112
f 1057 1058 1114 1113
f 1058 1059 1115 1114
f 1059 1060 1116 1115
f 1060 1061 1117 1116
f 1061 1062 1118 1117
f 1062 1063 1119 1118
f 1063 1064 1120 1119
f 1065 1066 1122 1121
f 1066 1067 1123 1122
f 1067 1068 1124 1123
f 1068 1069 1125 1124
f 1069 1070 1126 1125
f 1070 1071 1127 1126
f 1071 1072 1128 1127
f 1072 1073 1129 1128
f 1073 1074 1130 1129
f 1074 1075 1131 1130
f 1075 1076 1132 1131
f 1076 1077 1133 1132
f 1077 1078 1134 1133
f 1078 1079 1135 1134
f 1079 1080 1136 1135
f 1080 1081 1137 1136
f 1081 1082 1138 1137
f 1082 1083 1139 1138
f 1083 1084 1140 1139
f 1084 1085 1141 1140
f 1085 1086 1142 1141
f 1086 1087 1143 1142
f 1087 1088 1144 1143
f 1088 1089 1145 1144
f 1089 1090 1146 1145
f 1090 1091 1147 1146
f 1091 1092 1148 1147
f 1092 1093 1149 1148
f 1093 1094 1150 1149
f 1094 1095 1151 1150
f 1095 1096 1152 1151
f 1096 1097 1153 1152
f 1097 1098 1154 1153
f 1098 1099 1155 1154
f 1099 1100 1156 1155
f 1100 1101 1157 1156
f 1101 1102 1158 1157
f 1102 1103 1159 1158
f 1103 1104 1160 1159
f 1104 1105 1161 1160
f 1105 1106 1162 1161
f 1106 1107 1163 1162
f 1107 1108 1164 1163
f 1108 1109 1165 1164
f 1109 1110 1166 1165
f 1110 1111 1167 1166
f 1111 1112 1168 1167
f 1112 1113 1169 1168
f 1113 1114 1170 1169
f 1114 1115 1171 1170
f 1115 1116 1172 1171
f 1116 1117 1173 1172
f 1117 1118 1174 1173
f 1118 1119 1175 1174
f 1119 1120 1176 1175
f 1121 1122 1178 1177
f 1122 1123 1179 1178
f 1123 1124 1180 1179
f 1124 1125 1181 1180
f 1125 1126 1182 1181
f 1126 1127 1183 1182
f 1127 1128 1184 1183
f 1128 1129 1185 1184
f 1129 1130 1186 1185
f 1130 1131 1187 1186
f 1131 1132 1188 1187
f 1132 1133 1189 1188
f 1133 1134 1190 1189
f 1134 1135 1191 1190
f 1135 1136 1192 1191
f 1136 1137 1193 1192
f 1137 1138 1194 1193
f 1138 1139 1195 1194
f 1139 1140 1196 1195
f 1140 1141 1197 1196
f 1141 1142 1198 1197
f 1142 1143 1199 1198
f 1143 1144 1200 1199
f 1144 1145 1201 1200
f 1145 1146 1202 1201
f 1146 1147 1203 1202
f 1147 1148 1204 1203
f 1148 1149 1205 1204
f 1149 1150 1206 1205
f 1150 1151 1207 1206
f 1151 1152 1208 1207
f 1152 1153 1209 1208
f 1153 1154 1210 1209
f 1154 1155 1211 1210
f 1155 1156 1212 1211
f 1156 1157 1213 1212
f 1157 1158 1214 1213
f 1158 1159 1215 1214
f 1159 1160 1216 1215
f 1160 1161 1217 1216
f 1161 1162 1218 1217
f 1162 1163 1219 1218
f 1163 1164 1220 1219
f 1164 1165 1221 1220
f 1165 1166 1222 1221
f 1166 1167 1223 1222
f 1167 1168 1224 1223
f 1168 1169 1225 1224
f 1169 1170 1226 1225
f 1170 1171 1227 1226
f 1171 1172 1228 1227
f 1172 1173 1229 1228
f 1173 1174 1230 1229
f 1174 1175 1231 1230
f 1175 1176 1232 1231
f 1177 1178 1234 1233
f 1178 1179 1235 1234
f 1179 1180 1236 1235
f 1180 1181 1237 1236
f 1181 1182 1238 1237
f 1182 1183 1239 1238
f 1183 1184 1240 1239
f 1184 1185 1241 1240
f 1185 1186 1242 1241
f 1186 1187 1243 1242
f 1187 1188 1244 1243
f 1188 1189 1245 1244
f 1189 1190 1246 1245
f 1190 1191 1247 1246
f 1191 1192 1248 1247
f 1192 1193 1249 1248
f 1193 1194 1250 1249
f 1194 1195 1251 1250
f 1195 1196 1252 1251
f 1196 1197 1253 1252
f 1197 1198 1254 1253
f 1198 1199 1255 1254
f 1199 1200 1256 1255
f 1200 1201 1257 1256
f 1201 1202 1258 1257
f 1202 1203 1259 1258
f 1203 1204 1260 1259
f 1204 1205 1261 1260
f 1205 1206 1262 1261
f 1206 1207 1263 1262
f 1207 1208 1264 1263
f 1208 1209 1265 1264
f 1209 1210 1266 1265
f 1210 1211 1267 1266
f 1211 1212 1268 1267
f 1212 1213 1269 1268
f 1213 1214 1270 1269
f 1214 1215 1271 1270
f 1215 1216 1272 1271
f 1216 1217 1273 1272
f 1217 1218 1274 1273
f 1218 1219 1275 1274
f 1219 1220 1276 1275
f 1220 1221 1277 1276
f 1221 1222 1278 1277
f 1222 1223 1279 1278
f 1223 1224 1280 1279
f 1224 1225 1281 1280
f 1225 1226 1282 1281
f 1226 1227 1283 1282
f 1227 1228 1284 1283
f 1228 1229 1285 1284
f 1229 1230 1286 1285
f 1230 1231 1287 1286
f 1231 1232 1288 1287
