# Block A survey lattice, 0.5 m, bench frame metres
o grid_A
v -4.5061 2.6272 0.0000
v -2.9929 -2.6605 0.0000
v -4.0254 2.7648 0.0000
v -2.5122 -2.5229 0.0000
v -3.5447 2.9024 0.0000
v -2.0315 -2.3854 0.0000
v -3.0640 3.0399 0.0000
v -1.5508 -2.2478 0.0000
v -2.5833 3.1775 0.0000
v -1.0701 -2.1102 0.0000
v -2.1026 3.3151 0.0000
v -0.5894 -1.9727 0.0000
v -1.6219 3.4526 0.0000
v -0.1087 -1.8351 0.0000
v -1.1412 3.5902 0.0000
v 0.3720 -1.6975 0.0000
v -0.6605 3.7278 0.0000
v 0.8527 -1.5600 0.0000
v -0.1798 3.8653 0.0000
v 1.3334 -1.4224 0.0000
v 0.3009 4.0029 0.0000
v 1.8141 -1.2848 0.0000
v 0.7816 4.1405 0.0000
v 2.2948 -1.1473 0.0000
v -4.5061 2.6272 0.0000
v 0.7816 4.1405 0.0000
v -4.3686 2.1465 0.0000
v 0.9192 3.6598 0.0000
v -4.2310 1.6658 0.0000
v 1.0567 3.1791 0.0000
v -4.0934 1.1851 0.0000
v 1.1943 2.6984 0.0000
v -3.9559 0.7044 0.0000
v 1.3319 2.2177 0.0000
v -3.8183 0.2237 0.0000
v 1.4694 1.7370 0.0000
v -3.6807 -0.2570 0.0000
v 1.6070 1.2563 0.0000
v -3.5432 -0.7377 0.0000
v 1.7446 0.7756 0.0000
v -3.4056 -1.2184 0.0000
v 1.8821 0.2948 0.0000
v -3.2680 -1.6991 0.0000
v 2.0197 -0.1859 0.0000
v -3.1305 -2.1798 0.0000
v 2.1573 -0.6666 0.0000
v -2.9929 -2.6605 0.0000
v 2.2948 -1.1473 0.0000
l 1 2
l 3 4
l 5 6
l 7 8
l 9 10
l 11 12
l 13 14
l 15 16
l 17 18
l 19 20
l 21 22
l 23 24
l 25 26
l 27 28
l 29 30
l 31 32
l 33 34
l 35 36
l 37 38
l 39 40
l 41 42
l 43 44
l 45 46
l 47 48
