# Block A surface fracture traces from photos, bench frame metres, on the DEM
o surface_cracks_A
v -4.0336 2.7208 0.0237
v -4.0144 2.7263 0.0230
v -3.9952 2.7318 0.0230
v -3.9705 2.7181 0.0230
v -3.9457 2.7044 0.0230
v -3.9402 2.6852 0.0230
v -3.9347 2.6659 0.0226
v -3.9292 2.6467 0.0222
v -3.9237 2.6275 0.0218
v -3.9182 2.6082 0.0214
v -3.9127 2.5890 0.0210
v -3.9072 2.5698 0.0201
v -3.9017 2.5506 0.0193
v -3.8962 2.5313 0.0184
v -3.8907 2.5121 0.0175
v -3.8852 2.4929 0.0166
v -3.7807 2.1275 0.0071
v -3.7751 2.1083 0.0067
v -3.7696 2.0891 0.0055
v -3.7641 2.0699 0.0043
v -3.7586 2.0506 0.0031
v -3.7531 2.0314 0.0020
v -3.7476 2.0122 0.0008
v -3.7421 1.9929 -0.0001
v -3.9265 2.7099 0.0230
v -3.8605 2.4792 0.0154
v -3.8550 2.4599 0.0143
v -3.8495 2.4407 0.0132
v -3.8440 2.4215 0.0122
v -3.8385 2.4022 0.0111
v -3.8220 2.3446 0.0103
v -3.8164 2.3253 0.0101
v -3.8109 2.3061 0.0098
v -3.8054 2.2869 0.0096
v -3.7999 2.2676 0.0093
v -3.7944 2.2484 0.0091
v -3.7889 2.2292 0.0089
v -3.7834 2.2100 0.0086
v -3.7779 2.1907 0.0082
v -3.7724 2.1715 0.0078
v -3.7669 2.1523 0.0073
v -3.7174 1.9792 -0.0017
v -3.9128 2.7346 0.0230
v -3.8137 2.3885 0.0108
v -3.8082 2.3693 0.0106
v -3.6927 1.9655 -0.0032
v -3.8936 2.7401 0.0248
v -3.7945 2.3940 0.0118
v -3.6679 1.9518 -0.0035
v -3.8743 2.7456 0.0266
v -3.7753 2.3995 0.0128
v -3.6487 1.9573 -0.0032
v -3.8606 2.7704 0.0284
v -3.7560 2.4050 0.0138
v -3.6295 1.9628 -0.0028
v -3.8414 2.7759 0.0302
v -3.7368 2.4105 0.0147
v -3.6103 1.9683 -0.0024
v -3.8221 2.7814 0.0320
v -3.7176 2.4160 0.0157
v -3.5910 1.9738 -0.0020
v -3.8029 2.7869 0.0333
v -3.6984 2.4215 0.0187
v -3.5718 1.9793 -0.0007
v -3.7782 2.7731 0.0346
v -3.6791 2.4270 0.0217
v -3.5471 1.9656 -0.0008
v -3.7590 2.7786 0.0358
v -3.6544 2.4133 0.0241
v -3.5223 1.9518 -0.0010
v -3.7452 2.8034 0.0370
v -3.5031 1.9573 0.0004
v -3.7260 2.8089 0.0382
v -3.4839 1.9628 0.0017
v -3.7068 2.8144 0.0391
v -3.4647 1.9683 0.0051
v -3.6875 2.8199 0.0400
v -3.4454 1.9738 0.0085
v -3.6683 2.8254 0.0409
v -3.4262 1.9793 0.0118
v -3.6491 2.8309 0.0417
v -3.4070 1.9849 0.0152
v -3.6299 2.8364 0.0426
v -3.3877 1.9904 0.0185
v -3.6051 2.8227 0.0433
v -3.5859 2.8282 0.0439
v -3.5667 2.8337 0.0446
v -3.5612 2.8144 0.0445
v -3.5529 2.8584 0.0453
v -3.5364 2.8007 0.0450
v -3.5337 2.8639 0.0460
v -3.5117 2.7870 0.0453
v -3.4870 2.7733 0.0453
v -3.4953 2.8749 0.0466
v -3.4622 2.7595 0.0453
v -3.4760 2.8804 0.0469
v -3.4430 2.7650 0.0456
v -3.4375 2.7458 0.0453
v -3.4320 2.7266 0.0449
v -3.4265 2.7074 0.0442
v -3.4210 2.6881 0.0434
v -3.4155 2.6689 0.0427
v -3.4568 2.8859 0.0471
v -3.4293 2.7898 0.0463
v -3.4321 2.8722 0.0474
v -3.4211 2.8337 0.0473
v -3.4156 2.8145 0.0470
v -3.4073 2.8585 0.0477
v -3.3881 2.8640 0.0481
v -3.3689 2.8695 0.0486
v -3.3552 2.8942 0.0491
v -3.3414 2.9189 0.0497
v -3.3222 2.9244 0.0500
v -3.3030 2.9299 0.0503
v -3.0722 2.9960 0.0542
v -3.0530 3.0015 0.0546
v -3.0338 3.0070 0.0553
v -3.0091 2.9932 0.0558
v -2.9843 2.9795 0.0562
v -2.9018 2.6911 0.0497
v -2.8963 2.6719 0.0493
v -2.8908 2.6526 0.0489
v -2.8853 2.6334 0.0484
v -2.9596 2.9658 0.0566
v -2.9541 2.9466 0.0562
v -2.9486 2.9273 0.0557
v -2.9431 2.9081 0.0553
v -2.9376 2.8889 0.0548
v -2.9321 2.8697 0.0544
v -2.9266 2.8504 0.0540
v -2.9211 2.8312 0.0535
v -2.9156 2.8120 0.0531
v -2.9101 2.7927 0.0526
v -2.9046 2.7735 0.0522
v -2.8991 2.7543 0.0518
v -2.8936 2.7351 0.0515
v -2.8881 2.7158 0.0511
v -2.9404 2.9713 0.0573
v -2.9266 2.9960 0.0583
v -2.9129 3.0208 0.0592
v -2.8992 3.0455 0.0600
v -2.8800 3.0510 0.0606
v -2.8607 3.0565 0.0612
v -1.0725 3.5683 0.1000
v -1.0478 3.5545 0.1011
v -1.0286 3.5600 0.1014
v -1.0038 3.5463 0.1022
v -0.9846 3.5518 0.1025
v -0.9654 3.5573 0.1028
v -0.9461 3.5628 0.1031
v -0.9269 3.5683 0.1034
v -0.9022 3.5546 0.1055
v -0.8830 3.5601 0.1074
v -0.8637 3.5656 0.1093
v -0.8445 3.5711 0.1112
v -0.8390 3.5519 0.1124
v -0.8308 3.5958 0.1115
v -0.8143 3.5381 0.1159
v -0.8088 3.5189 0.1172
v -0.8033 3.4997 0.1186
v -0.7978 3.4805 0.1200
v -0.7923 3.4612 0.1196
v -0.8115 3.6013 0.1131
v -0.7923 3.6068 0.1147
v -0.7731 3.6123 0.1162
v -0.7594 3.6371 0.1169
v -0.7401 3.6426 0.1187
v -0.7264 3.6673 0.1189
v -0.7072 3.6728 0.1198
v -0.6880 3.6783 0.1208
v -0.0727 3.8544 0.1422
v -0.0534 3.8599 0.1426
v -0.0342 3.8654 0.1430
v -0.0095 3.8517 0.1437
v 0.0098 3.8572 0.1441
v 0.0290 3.8627 0.1446
v 0.0482 3.8682 0.1449
v 0.0674 3.8737 0.1453
v 0.0729 3.8545 0.1456
v 0.0784 3.8352 0.1459
v 0.0812 3.8984 0.1453
v 0.1004 3.9039 0.1456
v 0.1389 3.9149 0.1463
v 0.1581 3.9204 0.1467
v 0.1773 3.9259 0.1471
v 0.2020 3.9122 0.1479
v 0.2213 3.9177 0.1483
v 0.2405 3.9232 0.1485
v 0.2597 3.9287 0.1488
v 0.2734 3.9534 0.1484
v 0.2927 3.9589 0.1485
v 0.3119 3.9644 0.1487
v 0.6690 4.0250 0.0969
v 0.6745 4.0058 0.1031
v 0.6992 3.9921 0.0989
v 0.7240 3.9784 0.0946
v 0.7295 3.9591 0.0986
v 0.7350 3.9399 0.1027
v 0.7405 3.9207 0.1067
v 0.7652 3.9070 0.1076
v 0.7707 3.8877 0.1126
v 0.7762 3.8685 0.1176
v 0.7817 3.8493 0.1226
v 0.7872 3.8300 0.1276
v 0.8120 3.8163 0.1244
v 0.8367 3.8026 0.1224
v -1.2318 3.3979 0.1040
v -1.2071 3.3841 0.1048
v -1.1878 3.3896 0.1052
v -1.1713 3.3319 0.1052
v -1.1658 3.3127 0.1050
v -1.1603 3.2935 0.1048
v -1.1796 3.4336 0.1042
v -1.1741 3.4144 0.1047
v -1.1686 3.3951 0.1051
v -1.1631 3.3759 0.1056
v -1.1576 3.3567 0.1054
v -1.1356 3.2798 0.1046
v -1.1301 3.2605 0.1043
v -1.1246 3.2413 0.1040
v -1.1191 3.2221 0.1038
v -1.1136 3.2029 0.1035
v -1.1081 3.1836 0.1032
v -1.1659 3.4583 0.1036
v 0.2571 3.5743 0.1421
v 0.2764 3.5798 0.1423
v 0.2901 3.6046 0.1431
v 0.2653 3.7639 0.1485
v 0.2708 3.7447 0.1479
v 0.2763 3.7254 0.1473
v 0.2818 3.7062 0.1467
v 0.2873 3.6870 0.1461
v 0.3093 3.6101 0.1433
v 0.2790 3.7886 0.1495
v 0.3120 3.6732 0.1456
v 0.3175 3.6540 0.1448
v 0.3230 3.6348 0.1441
v 0.3285 3.6156 0.1434
v 0.3533 3.6018 0.1427
v -0.3884 3.4312 0.1264
v -0.3692 3.4367 0.1270
v -0.3775 3.5383 0.1303
v -0.3720 3.5191 0.1298
v -0.3665 3.4999 0.1292
v -0.3610 3.4806 0.1287
v -0.3555 3.4614 0.1281
v -0.3499 3.4422 0.1276
v -0.3637 3.5631 0.1314
v -0.3307 3.4477 0.1281
v -0.3060 3.4340 0.1281
v -0.2923 3.4587 0.1293
v -0.2730 3.4642 0.1298
v -0.2538 3.4697 0.1305
v -0.2346 3.4752 0.1311
v -0.2429 3.5769 0.1342
v -0.2374 3.5576 0.1337
v -0.2319 3.5384 0.1333
v -0.2209 3.4999 0.1322
v -0.2071 3.5247 0.1333
v -0.2016 3.5054 0.1328
v -0.1961 3.4862 0.1323
v -0.1714 3.4725 0.1325
v -0.1659 3.4533 0.1320
v -0.1412 3.4395 0.1319
v -4.2641 1.9268 0.0059
v -4.2559 1.9708 0.0076
v -4.2503 1.9515 0.0069
v -4.2696 2.0916 0.0121
v -4.2641 2.0724 0.0114
v -4.2586 2.0532 0.0107
v -4.2531 2.0339 0.0100
v -4.2476 2.0147 0.0093
v -4.2421 1.9955 0.0086
v -4.2559 2.1164 0.0131
v -2.8495 2.4356 0.0422
v -2.8440 2.4164 0.0417
v -2.8385 2.3972 0.0413
v -2.8330 2.3780 0.0408
v -2.8275 2.3587 0.0402
v -2.8413 2.4796 0.0436
v -2.8358 2.4604 0.0432
v -2.8027 2.3450 0.0403
v -2.7972 2.3258 0.0397
v -2.8330 2.5236 0.0456
v -2.8275 2.5043 0.0449
v -1.8909 2.7932 0.0765
v -1.8716 2.7987 0.0771
v -1.8524 2.8042 0.0777
v -1.8277 2.7905 0.0780
v -1.8084 2.7960 0.0785
v -1.7892 2.8015 0.0791
v -1.7700 2.8070 0.0796
v -1.7563 2.8317 0.0805
v -1.7370 2.8372 0.0811
v -1.7178 2.8427 0.0818
v -1.6986 2.8482 0.0824
v -1.6738 2.8345 0.0827
v -1.6546 2.8400 0.0833
v -1.6354 2.8455 0.0839
v -1.6162 2.8510 0.0845
v -1.5914 2.8373 0.0846
v -1.5722 2.8428 0.0851
v -0.8882 2.9969 0.0986
v -0.8745 3.0216 0.0992
v -0.8608 3.0464 0.0999
v -0.8415 3.0519 0.1000
v -0.8223 3.0574 0.1001
v -0.7976 3.0437 0.0997
v -0.7783 3.0492 0.0998
v -0.7536 3.0354 0.1010
v -0.7344 3.0409 0.1026
v -0.6794 2.8487 0.0971
v -0.7097 3.0272 0.1036
v -0.6766 2.9118 0.1006
v -0.6711 2.8926 0.1002
v -0.6656 2.8734 0.0994
v -0.6849 3.0135 0.1046
v -0.6794 2.9943 0.1039
v -0.6739 2.9750 0.1035
v -0.6684 2.9558 0.1030
v -0.6629 2.9366 0.1026
v -0.6464 2.8789 0.1010
v -0.6657 3.0190 0.1061
v -0.6217 2.8652 0.1019
v -0.6465 3.0245 0.1069
v -0.6024 2.8707 0.1025
v -0.6272 3.0300 0.1076
v -0.5777 2.8569 0.1025
v -0.6190 3.0739 0.1096
v -0.6135 3.0547 0.1090
v -0.6080 3.0355 0.1084
v -0.5585 2.8624 0.1032
v -0.6108 3.1179 0.1113
v -0.6053 3.0987 0.1108
v -0.5833 3.0218 0.1086
v -0.5393 2.8679 0.1038
v -0.5971 3.1426 0.1126
v -0.5586 3.0080 0.1087
v -0.5778 3.1481 0.1132
v -0.5393 3.0135 0.1093
v -0.5201 3.0190 0.1098
v 0.2710 3.3078 0.1323
v 0.2765 3.2886 0.1315
v 0.2792 3.3518 0.1340
v 0.2847 3.3326 0.1333
v 0.3012 3.2749 0.1310
v 0.2929 3.3765 0.1349
v 0.3259 3.2612 0.1302
v 0.3067 3.4013 0.1356
v 0.3507 3.2474 0.1295
v 0.3259 3.4068 0.1357
v 0.3754 3.2337 0.1289
v 0.3809 3.2145 0.1281
v 0.4056 3.2008 0.1276
v 0.4249 3.2063 0.1279
v 0.4496 3.1925 0.1271
v 0.4551 3.1733 0.1262
v 0.4798 3.1596 0.1255
v -0.4130 3.1537 0.1167
v -0.3883 3.1400 0.1167
v -0.3691 3.1455 0.1173
v -0.3498 3.1510 0.1178
v -0.3306 3.1565 0.1184
v -0.3114 3.1620 0.1190
v -0.2921 3.1675 0.1195
v -0.2674 3.1538 0.1196
v -0.2482 3.1593 0.1202
v -0.2427 3.1400 0.1196
v -0.2372 3.1208 0.1190
v -0.2317 3.1016 0.1184
v -0.2290 3.1648 0.1209
v -0.2069 3.0879 0.1184
v -0.2014 3.0686 0.1179
v -0.1959 3.0494 0.1173
v -0.2152 3.1895 0.1222
v -0.1712 3.0357 0.1173
v -0.1657 3.0165 0.1168
v -0.1492 2.9588 0.1153
v -0.1960 3.1950 0.1229
v -0.1410 3.0027 0.1168
v -0.1355 2.9835 0.1163
v -0.1768 3.2005 0.1234
v -0.1217 3.0082 0.1173
v -0.1575 3.2060 0.1240
v -0.1025 3.0137 0.1177
v -0.1383 3.2115 0.1246
v -0.0833 3.0192 0.1182
v -0.1191 3.2170 0.1252
v -0.0944 3.2033 0.1253
v -1.7946 2.5295 0.0714
v -1.7891 2.5103 0.0710
v -1.7919 2.5927 0.0731
v -1.7864 2.5735 0.0727
v -1.7809 2.5542 0.0723
v -1.7644 2.4965 0.0712
v -1.7891 2.6559 0.0751
v -1.7836 2.6366 0.0747
v -1.7781 2.6174 0.0742
v -1.7396 2.4828 0.0714
v -1.7809 2.6998 0.0766
v -1.7754 2.6806 0.0762
v -1.2041 2.8649 0.0943
v -1.1986 2.8457 0.0939
v -1.1931 2.8265 0.0934
v -1.1876 2.8072 0.0928
v -1.1821 2.7880 0.0923
v -1.1766 2.7688 0.0918
v -1.1436 2.6534 0.0887
v -1.1518 2.7550 0.0918
v -1.1243 2.6589 0.0892
v -1.1271 2.7413 0.0918
v -1.1216 2.7221 0.0913
v -1.1161 2.7029 0.0908
v -1.1106 2.6836 0.0903
v -1.1079 2.7468 0.0922
v -1.0887 2.7523 0.0925
v -1.0749 2.7771 0.0934
v -1.0557 2.7826 0.0937
v -1.0365 2.7881 0.0941
v -1.0172 2.7936 0.0944
v -1.0035 2.8183 0.0949
v -0.9843 2.8238 0.0949
v -0.9651 2.8293 0.0949
v 0.6089 3.3629 0.1317
v 0.6226 3.3877 0.1325
v 0.6418 3.3932 0.1325
v 0.6610 3.3987 0.1326
v 0.6803 3.4042 0.1326
v 0.7050 3.3904 0.1321
v 0.7242 3.3960 0.1324
v 0.7435 3.4015 0.1326
v 0.7682 3.3877 0.1323
v 0.7874 3.3932 0.1325
v 0.8066 3.3987 0.1329
v 0.8259 3.4042 0.1334
v 0.8451 3.4097 0.1338
v 0.8588 3.4345 0.1349
v 0.8643 3.4152 0.1343
v 0.8698 3.3960 0.1336
v 0.8753 3.3768 0.1330
v 0.8726 3.4592 0.1357
v 0.9001 3.3631 0.1328
v 0.9248 3.3493 0.1325
v 0.9495 3.3356 0.1323
v 0.9743 3.3219 0.1320
v -2.5884 2.3231 0.0444
v -2.5829 2.3039 0.0440
v -2.5582 2.2902 0.0442
v -2.5335 2.2764 0.0444
v -2.5198 2.3012 0.0455
v -2.5005 2.3067 0.0463
v -2.4813 2.3122 0.0470
v -2.4621 2.3177 0.0477
v -2.4428 2.3232 0.0485
v -2.4236 2.3287 0.0493
v -2.4044 2.3342 0.0502
v -2.3852 2.3397 0.0510
v -2.3659 2.3452 0.0519
v -2.3467 2.3507 0.0527
v -2.3275 2.3562 0.0533
v -2.3027 2.3425 0.0535
v -2.2890 2.3672 0.0545
v -4.1980 1.6961 -0.0023
v -4.1925 1.6768 -0.0030
v -4.1870 1.6576 -0.0036
v -4.0770 1.2730 -0.0175
v -4.1623 1.6439 -0.0040
v -4.1568 1.6246 -0.0046
v -4.1513 1.6054 -0.0051
v -4.1458 1.5862 -0.0057
v -4.1403 1.5670 -0.0064
v -4.1348 1.5477 -0.0071
v -4.1293 1.5285 -0.0079
v -4.1238 1.5093 -0.0086
v -4.1183 1.4900 -0.0093
v -4.1128 1.4708 -0.0100
v -4.1073 1.4516 -0.0107
v -4.1018 1.4324 -0.0114
v -4.0963 1.4131 -0.0121
v -4.0908 1.3939 -0.0128
v -4.0853 1.3747 -0.0136
v -4.0798 1.3555 -0.0144
v -4.0743 1.3362 -0.0152
v -4.0688 1.3170 -0.0160
v -4.0633 1.2978 -0.0167
v -4.0550 1.3417 -0.0151
v -4.0303 1.3280 -0.0157
v -4.0111 1.3335 -0.0154
v -3.9973 1.3582 -0.0144
v -3.2241 -1.7073 -0.1281
v -3.2186 -1.7265 -0.1289
v -3.1938 -1.7403 -0.1294
v -3.1883 -1.7595 -0.1301
v -3.1828 -1.7787 -0.1309
v -3.1773 -1.7980 -0.1318
v -3.1718 -1.8172 -0.1326
v -3.1663 -1.8364 -0.1335
v -3.1608 -1.8556 -0.1343
v -3.1553 -1.8749 -0.1352
v -3.1498 -1.8941 -0.1360
v -3.1443 -1.9133 -0.1368
v -3.1388 -1.9326 -0.1376
v -3.1333 -1.9518 -0.1385
v -3.1086 -1.9655 -0.1389
v -3.1031 -1.9847 -0.1398
v -3.0783 -1.9985 -0.1404
v -3.0591 -1.9930 -0.1400
v -3.0344 -2.0067 -0.1405
v -3.0151 -2.0012 -0.1401
v -2.9959 -1.9957 -0.1397
v -2.9767 -1.9902 -0.1394
v -2.9575 -1.9847 -0.1389
v -2.9382 -1.9792 -0.1385
v -2.9190 -1.9737 -0.1380
v -2.8998 -1.9682 -0.1376
v -2.8806 -1.9627 -0.1371
v -2.8613 -1.9572 -0.1366
v -2.8366 -1.9709 -0.1369
v -2.8174 -1.9654 -0.1364
v -2.7981 -1.9599 -0.1359
v -2.7789 -1.9544 -0.1354
v -3.5851 0.9353 -0.0293
v -2.7597 -1.9489 -0.1348
v -3.5659 0.9408 -0.0298
v -2.7405 -1.9434 -0.1341
v -3.5466 0.9463 -0.0303
v -2.7212 -1.9379 -0.1334
v -3.5274 0.9518 -0.0307
v -2.7020 -1.9324 -0.1327
v -3.5082 0.9574 -0.0312
v -2.6828 -1.9269 -0.1321
v -3.4889 0.9629 -0.0327
v -2.6635 -1.9214 -0.1314
v -2.5480 -2.3252 -0.1498
v -3.7063 1.7952 -0.0076
v -3.7008 1.7759 -0.0088
v -3.6953 1.7567 -0.0101
v -3.6898 1.7375 -0.0113
v -3.6843 1.7183 -0.0125
v -3.6788 1.6990 -0.0135
v -3.6733 1.6798 -0.0145
v -3.6678 1.6606 -0.0155
v -3.6623 1.6413 -0.0165
v -3.6568 1.6221 -0.0175
v -3.6513 1.6029 -0.0176
v -3.5743 1.3337 -0.0222
v -3.5688 1.3145 -0.0228
v -3.5633 1.2952 -0.0235
v -3.5578 1.2760 -0.0242
v -3.5523 1.2568 -0.0249
v -3.5468 1.2376 -0.0255
v -3.5413 1.2183 -0.0263
v -3.5357 1.1991 -0.0271
v -3.4697 0.9684 -0.0341
v -3.4367 0.8530 -0.0360
v -3.4312 0.8338 -0.0362
v -3.4257 0.8145 -0.0363
v -3.4202 0.7953 -0.0365
v -3.4147 0.7761 -0.0367
v -3.4092 0.7568 -0.0368
v -3.4037 0.7376 -0.0372
v -3.3982 0.7184 -0.0375
v -3.3927 0.6992 -0.0379
v -3.3872 0.6799 -0.0382
v -3.3817 0.6607 -0.0386
v -3.3377 0.5069 -0.0454
v -3.1781 -0.0507 -0.0651
v -2.7269 -1.6274 -0.1181
v -2.7213 -1.6467 -0.1188
v -2.7158 -1.6659 -0.1196
v -2.6443 -1.9159 -0.1307
v -2.5288 -2.3197 -0.1491
v -3.6266 1.5892 -0.0193
v -3.6211 1.5699 -0.0195
v -3.6156 1.5507 -0.0196
v -3.5826 1.4353 -0.0206
v -3.5771 1.4161 -0.0212
v -3.5715 1.3969 -0.0218
v -3.5660 1.3776 -0.0223
v -3.5605 1.3584 -0.0229
v -3.5110 1.1854 -0.0305
v -3.5055 1.1661 -0.0314
v -3.5000 1.1469 -0.0323
v -3.4505 0.9739 -0.0355
v -3.4450 0.9546 -0.0354
v -3.4395 0.9354 -0.0356
v -3.4340 0.9162 -0.0357
v -3.4285 0.8969 -0.0359
v -3.4230 0.8777 -0.0361
v -3.3569 0.6470 -0.0394
v -3.3184 0.5124 -0.0454
v -3.2689 0.3393 -0.0531
v -3.1643 -0.0260 -0.0644
v -3.0268 -0.5067 -0.0796
v -2.6911 -1.6796 -0.1198
v -2.6856 -1.6988 -0.1205
v -2.6251 -1.9104 -0.1300
v -2.5480 -2.1796 -0.1426
v -2.5425 -2.1988 -0.1434
v -2.5370 -2.2180 -0.1443
v -2.5315 -2.2372 -0.1451
v -2.5260 -2.2565 -0.1459
v -2.5205 -2.2757 -0.1467
v -2.5150 -2.2949 -0.1475
v -2.5095 -2.3141 -0.1483
v -3.5908 1.5370 -0.0214
v -3.5853 1.5177 -0.0215
v -3.5688 1.4601 -0.0220
v -3.4753 1.1332 -0.0357
v -3.4698 1.1140 -0.0364
v -3.4313 0.9794 -0.0369
v -3.3322 0.6333 -0.0402
v -3.3267 0.6140 -0.0410
v -3.3212 0.5948 -0.0418
v -3.3047 0.5371 -0.0445
v -3.2442 0.3256 -0.0545
v -3.1451 -0.0205 -0.0642
v -3.0076 -0.5012 -0.0791
v -2.6609 -1.7126 -0.1207
v -2.6554 -1.7318 -0.1214
v -2.6499 -1.7510 -0.1223
v -2.6059 -1.9049 -0.1293
v -2.4903 -2.3086 -0.1476
v -3.5606 1.5040 -0.0233
v -3.5551 1.4848 -0.0235
v -3.5496 1.4656 -0.0236
v -3.4450 1.1002 -0.0397
v -3.4175 1.0041 -0.0390
v -3.2965 0.5811 -0.0426
v -3.2910 0.5618 -0.0435
v -3.2855 0.5426 -0.0444
v -3.2249 0.3311 -0.0549
v -3.1259 -0.0150 -0.0640
v -2.9883 -0.4957 -0.0786
v -2.6251 -1.7648 -0.1225
v -2.5866 -1.8994 -0.1286
v -2.4656 -2.3224 -0.1478
v -3.5304 1.4711 -0.0239
v -3.4203 1.0865 -0.0406
v -3.4038 1.0288 -0.0401
v -3.2662 0.5481 -0.0447
v -3.2057 0.3366 -0.0555
v -3.1122 0.0097 -0.0636
v -3.0626 -0.1633 -0.0666
v -3.0021 -0.3748 -0.0736
v -2.9966 -0.3941 -0.0745
v -2.9746 -0.4710 -0.0777
v -2.6004 -1.7785 -0.1233
v -2.5674 -1.8938 -0.1284
v -2.4463 -2.3169 -0.1472
v -3.5111 1.4766 -0.0242
v -3.3956 1.0728 -0.0414
v -3.3901 1.0536 -0.0410
v -3.2470 0.5536 -0.0449
v -3.1865 0.3421 -0.0560
v -3.0929 0.0152 -0.0634
v -3.0434 -0.1578 -0.0661
v -2.9719 -0.4078 -0.0748
v -2.9554 -0.4655 -0.0774
v -2.6747 -1.4461 -0.1088
v -2.5812 -1.7730 -0.1232
v -2.5482 -1.8883 -0.1283
v -2.4271 -2.3114 -0.1467
v -3.4919 1.4821 -0.0245
v -3.3764 1.0783 -0.0417
v -3.3709 1.0591 -0.0414
v -3.2278 0.5591 -0.0451
v -3.1673 0.3476 -0.0566
v -3.0737 0.0207 -0.0633
v -3.0242 -0.1523 -0.0656
v -2.9471 -0.4215 -0.0753
v -2.9416 -0.4407 -0.0762
v -2.6610 -1.4214 -0.1073
v -2.5620 -1.7675 -0.1232
v -2.5289 -1.8828 -0.1281
v -2.4024 -2.3251 -0.1470
v -3.4727 1.4876 -0.0247
v -3.4122 1.2761 -0.0343
v -3.3626 1.1030 -0.0417
v -3.3461 1.0453 -0.0415
v -3.2086 0.5646 -0.0453
v -3.1535 0.3723 -0.0560
v -3.0545 0.0262 -0.0631
v -3.0105 -0.1276 -0.0648
v -2.9224 -0.4352 -0.0758
v -2.6418 -1.4159 -0.1067
v -2.5427 -1.7620 -0.1231
v -2.5097 -1.8773 -0.1279
v -2.3832 -2.3196 -0.1465
v -3.4535 1.4931 -0.0250
v -3.3874 1.2623 -0.0362
v -3.3489 1.1277 -0.0420
v -3.3214 1.0316 -0.0418
v -3.1893 0.5701 -0.0455
v -3.1343 0.3779 -0.0566
v -3.0353 0.0317 -0.0629
v -3.0022 -0.0836 -0.0640
v -2.9967 -0.1029 -0.0642
v -2.9032 -0.4297 -0.0755
v -2.6226 -1.4104 -0.1061
v -2.5455 -1.6796 -0.1195
v -2.5400 -1.6988 -0.1205
v -2.5180 -1.7757 -0.1239
v -2.4960 -1.8526 -0.1270
v -2.3694 -2.2949 -0.1450
v -3.4287 1.4794 -0.0239
v -3.3627 1.2486 -0.0369
v -3.3352 1.1525 -0.0414
v -3.2967 1.0179 -0.0412
v -3.1701 0.5756 -0.0457
v -3.1206 0.4026 -0.0565
v -3.0160 0.0372 -0.0622
v -2.9885 -0.0589 -0.0629
v -2.8840 -0.4242 -0.0754
v -2.6033 -1.4049 -0.1058
v -2.5153 -1.7125 -0.1214
v -2.4933 -1.7894 -0.1248
v -2.4768 -1.8471 -0.1270
v -2.3502 -2.2894 -0.1442
v -3.4095 1.4849 -0.0223
v -3.3380 1.2349 -0.0376
v -3.3325 1.2157 -0.0388
v -3.3270 1.1964 -0.0401
v -3.3215 1.1772 -0.0405
v -3.2719 1.0042 -0.0404
v -3.1454 0.5619 -0.0476
v -3.1069 0.4273 -0.0566
v -3.0023 0.0620 -0.0616
v -2.9968 0.0428 -0.0615
v -2.9913 0.0235 -0.0616
v -2.9858 0.0043 -0.0617
v -2.9803 -0.0149 -0.0618
v -2.9748 -0.0342 -0.0619
v -2.9693 -0.0534 -0.0620
v -2.8647 -0.4187 -0.0753
v -2.5841 -1.3994 -0.1055
v -2.4905 -1.7262 -0.1222
v -2.4685 -1.8031 -0.1255
v -2.4630 -1.8224 -0.1263
v -2.3310 -2.2839 -0.1434
v -2.2925 -2.4184 -0.1490
v -3.3903 1.4904 -0.0206
v -3.3077 1.2019 -0.0393
v -3.2472 0.9904 -0.0392
v -3.2417 0.9712 -0.0387
v -3.2362 0.9520 -0.0382
v -3.2307 0.9327 -0.0377
v -3.2252 0.9135 -0.0372
v -3.1261 0.5674 -0.0479
v -3.0931 0.4520 -0.0565
v -2.9886 0.0867 -0.0612
v -2.9446 -0.0671 -0.0615
v -2.8455 -0.4132 -0.0752
v -2.5704 -1.3746 -0.1050
v -2.4658 -1.7400 -0.1231
v -2.4438 -1.8169 -0.1263
v -2.3117 -2.2783 -0.1426
v -2.2787 -2.3937 -0.1475
v -3.3710 1.4959 -0.0190
v -3.2885 1.2074 -0.0386
v -3.2280 0.9959 -0.0387
v -3.2005 0.8998 -0.0367
v -3.1014 0.5537 -0.0501
v -3.0794 0.4768 -0.0562
v -2.9693 0.0922 -0.0608
v -2.9198 -0.0808 -0.0611
v -2.8263 -0.4077 -0.0751
v -2.5511 -1.3691 -0.1048
v -2.5456 -1.3884 -0.1050
v -2.5401 -1.4076 -0.1058
v -2.5346 -1.4268 -0.1067
v -2.5291 -1.4460 -0.1076
v -2.5236 -1.4653 -0.1084
v -2.5181 -1.4845 -0.1093
v -2.5126 -1.5037 -0.1104
v -2.5071 -1.5229 -0.1115
v -2.5016 -1.5422 -0.1126
v -2.4411 -1.7537 -0.1239
v -2.4246 -1.8114 -0.1263
v -2.2925 -2.2728 -0.1418
v -2.2650 -2.3690 -0.1458
v -3.3518 1.5014 -0.0174
v -3.2693 1.2129 -0.0378
v -3.2087 1.0014 -0.0382
v -3.1757 0.8861 -0.0361
v -3.0822 0.5592 -0.0504
v -3.0767 0.5400 -0.0525
v -3.0712 0.5207 -0.0540
v -3.0657 0.5015 -0.0555
v -3.0602 0.4823 -0.0571
v -2.9556 0.1169 -0.0608
v -2.9501 0.0977 -0.0603
v -2.8951 -0.0946 -0.0608
v -2.8070 -0.4022 -0.0750
v -2.5374 -1.3444 -0.1045
v -2.4769 -1.5559 -0.1135
v -2.4714 -1.5751 -0.1146
v -2.4164 -1.7674 -0.1248
v -2.4109 -1.7866 -0.1255
v -2.2733 -2.2673 -0.1410
v -2.2513 -2.3443 -0.1441
v -3.3326 1.5069 -0.0146
v -3.2500 1.2184 -0.0358
v -3.1895 1.0069 -0.0368
v -3.1510 0.8723 -0.0345
v -3.0630 0.5647 -0.0503
v -3.0354 0.4686 -0.0580
v -3.0299 0.4493 -0.0593
v -2.9474 0.1609 -0.0610
v -2.9419 0.1417 -0.0604
v -2.9309 0.1032 -0.0592
v -2.8704 -0.1083 -0.0600
v -2.7823 -0.4159 -0.0780
v -2.6723 -0.8005 -0.1014
v -2.6668 -0.8197 -0.1014
v -2.6613 -0.8390 -0.1013
v -2.5237 -1.3197 -0.1047
v -2.5182 -1.3389 -0.1048
v -2.4467 -1.5889 -0.1159
v -2.3916 -1.7811 -0.1262
v -2.2541 -2.2618 -0.1402
v -2.2431 -2.3003 -0.1417
v -2.2375 -2.3195 -0.1424
v -3.3134 1.5124 -0.0119
v -3.2308 1.2240 -0.0338
v -3.1703 1.0124 -0.0355
v -3.1318 0.8778 -0.0332
v -3.0492 0.5894 -0.0478
v -3.0052 0.4356 -0.0592
v -2.9447 0.2241 -0.0612
v -2.9392 0.2049 -0.0609
v -2.9337 0.1856 -0.0606
v -2.9062 0.0895 -0.0572
v -2.8511 -0.1028 -0.0587
v -2.7686 -0.3912 -0.0773
v -2.7631 -0.4104 -0.0795
v -2.7576 -0.4297 -0.0812
v -2.7521 -0.4489 -0.0830
v -2.7466 -0.4681 -0.0847
v -2.7411 -0.4874 -0.0865
v -2.7356 -0.5066 -0.0883
v -2.7301 -0.5258 -0.0898
v -2.7246 -0.5450 -0.0913
v -2.7191 -0.5643 -0.0928
v -2.7136 -0.5835 -0.0943
v -2.7081 -0.6027 -0.0958
v -2.7026 -0.6219 -0.0969
v -2.6971 -0.6412 -0.0981
v -2.6916 -0.6604 -0.0992
v -2.6861 -0.6796 -0.1003
v -2.6805 -0.6989 -0.1014
v -2.6750 -0.7181 -0.1016
v -2.6695 -0.7373 -0.1018
v -2.6640 -0.7565 -0.1020
v -2.6585 -0.7758 -0.1022
v -2.6365 -0.8527 -0.1021
v -2.6310 -0.8719 -0.1020
v -2.6255 -0.8911 -0.1019
v -2.6200 -0.9104 -0.1019
v -2.6145 -0.9296 -0.1019
v -2.6090 -0.9488 -0.1019
v -2.6035 -0.9681 -0.1019
v -2.5980 -0.9873 -0.1019
v -2.5925 -1.0065 -0.1021
v -2.5870 -1.0257 -0.1024
v -2.5815 -1.0450 -0.1026
v -2.5760 -1.0642 -0.1029
v -2.5705 -1.0834 -0.1031
v -2.5650 -1.1027 -0.1033
v -2.5595 -1.1219 -0.1035
v -2.5540 -1.1411 -0.1036
v -2.5485 -1.1603 -0.1038
v -2.5430 -1.1796 -0.1039
v -2.5375 -1.1988 -0.1040
v -2.5320 -1.2180 -0.1041
v -2.5265 -1.2372 -0.1042
v -2.5210 -1.2565 -0.1044
v -2.5155 -1.2757 -0.1045
v -2.5100 -1.2949 -0.1047
v -2.4935 -1.3526 -0.1053
v -2.4219 -1.6026 -0.1172
v -2.3724 -1.7756 -0.1269
v -2.3669 -1.7949 -0.1276
v -2.3614 -1.8141 -0.1283
v -2.3559 -1.8333 -0.1289
v -2.3504 -1.8525 -0.1296
v -2.3449 -1.8718 -0.1300
v -2.3394 -1.8910 -0.1305
v -2.3339 -1.9102 -0.1309
v -2.2348 -2.2563 -0.1394
v -2.2293 -2.2756 -0.1401
v -3.2941 1.5179 -0.0091
v -3.2116 1.2295 -0.0319
v -3.1566 1.0372 -0.0345
v -3.0300 0.5949 -0.0475
v -2.9805 0.4219 -0.0594
v -2.9750 0.4026 -0.0601
v -2.9530 0.3257 -0.0617
v -2.9475 0.3065 -0.0618
v -2.9420 0.2873 -0.0618
v -2.9365 0.2680 -0.0618
v -2.9310 0.2488 -0.0614
v -2.8869 0.0950 -0.0559
v -2.8319 -0.0973 -0.0574
v -2.7824 -0.2703 -0.0667
v -2.7769 -0.2896 -0.0678
v -2.7714 -0.3088 -0.0689
v -2.7659 -0.3280 -0.0713
v -2.7604 -0.3473 -0.0737
v -2.7549 -0.3665 -0.0761
v -2.6888 -0.5972 -0.0972
v -2.6118 -0.8664 -0.1027
v -2.4907 -1.2894 -0.1048
v -2.4687 -1.3663 -0.1059
v -2.3972 -1.6163 -0.1188
v -2.3532 -1.7701 -0.1276
v -2.3091 -1.9240 -0.1315
v -2.3036 -1.9432 -0.1318
v -2.2981 -1.9624 -0.1321
v -2.2926 -1.9816 -0.1324
v -2.2211 -2.2316 -0.1379
v -3.2749 1.5234 -0.0064
v -3.1924 1.2350 -0.0299
v -3.1373 1.0427 -0.0331
v -3.0163 0.6197 -0.0446
v -2.9502 0.3889 -0.0608
v -2.9447 0.3697 -0.0617
v -2.9392 0.3505 -0.0617
v -2.8677 0.1005 -0.0546
v -2.8072 -0.1110 -0.0567
v -2.8017 -0.1302 -0.0579
v -2.7962 -0.1495 -0.0592
v -2.7907 -0.1687 -0.0605
v -2.7852 -0.1879 -0.0618
v -2.7797 -0.2072 -0.0630
v -2.7742 -0.2264 -0.0642
v -2.7687 -0.2456 -0.0654
v -2.7356 -0.3610 -0.0770
v -2.6696 -0.5917 -0.0986
v -2.5926 -0.8609 -0.1033
v -2.4660 -1.3032 -0.1053
v -2.4440 -1.3801 -0.1068
v -2.3725 -1.6300 -0.1205
v -2.3394 -1.7454 -0.1278
v -2.2679 -1.9954 -0.1325
v -2.2624 -2.0146 -0.1328
v -2.2569 -2.0338 -0.1330
v -2.2514 -2.0531 -0.1333
v -2.2074 -2.2069 -0.1366
v -3.2612 1.5481 -0.0027
v -3.1786 1.2597 -0.0265
v -3.1181 1.0482 -0.0318
v -2.9970 0.6252 -0.0442
v -2.9310 0.3944 -0.0606
v -2.8485 0.1060 -0.0532
v -2.7934 -0.0863 -0.0548
v -2.7164 -0.3555 -0.0779
v -2.6504 -0.5862 -0.1000
v -2.5733 -0.8554 -0.1040
v -2.4413 -1.3169 -0.1059
v -2.4193 -1.3938 -0.1076
v -2.4138 -1.4130 -0.1080
v -2.4083 -1.4322 -0.1085
v -2.4028 -1.4515 -0.1089
v -2.3973 -1.4707 -0.1100
v -2.3477 -1.6438 -0.1223
v -2.3202 -1.7399 -0.1285
v -2.2267 -2.0668 -0.1334
v -2.1881 -2.2014 -0.1359
v -3.1649 1.2844 -0.0213
v -3.0494 0.8806 -0.0276
v -2.9778 0.6307 -0.0421
v -2.9118 0.3999 -0.0593
v -2.8292 0.1115 -0.0529
v -2.7742 -0.0808 -0.0548
v -2.6972 -0.3500 -0.0785
v -2.6311 -0.5807 -0.1006
v -2.5541 -0.8499 -0.1043
v -2.4220 -1.3114 -0.1062
v -2.3725 -1.4844 -0.1118
v -2.3670 -1.5037 -0.1129
v -2.3615 -1.5229 -0.1139
v -2.3560 -1.5421 -0.1150
v -2.3505 -1.5613 -0.1164
v -2.3450 -1.5806 -0.1179
v -2.3395 -1.5998 -0.1194
v -2.3340 -1.6190 -0.1208
v -2.3285 -1.6383 -0.1223
v -2.3230 -1.6575 -0.1234
v -2.3065 -1.7152 -0.1268
v -2.2019 -2.0805 -0.1334
v -2.1744 -2.1766 -0.1351
v -3.1457 1.2899 -0.0177
v -3.0246 0.8669 -0.0258
v -2.9641 0.6554 -0.0376
v -2.8926 0.4054 -0.0580
v -2.8100 0.1170 -0.0526
v -2.7550 -0.0753 -0.0548
v -2.6780 -0.3445 -0.0790
v -2.6119 -0.5752 -0.1013
v -2.5349 -0.8444 -0.1045
v -2.4028 -1.3059 -0.1066
v -2.2983 -1.6712 -0.1244
v -2.2928 -1.6904 -0.1254
v -2.1772 -2.0942 -0.1334
v -2.1607 -2.1519 -0.1344
v -2.9999 0.8532 -0.0247
v -2.9504 0.6801 -0.0335
v -2.9449 0.6609 -0.0357
v -2.8733 0.4109 -0.0567
v -2.7908 0.1225 -0.0522
v -2.7358 -0.0698 -0.0548
v -2.6587 -0.3390 -0.0796
v -2.5927 -0.5697 -0.1019
v -2.5157 -0.8389 -0.1048
v -2.3836 -1.3004 -0.1069
v -2.2735 -1.6849 -0.1251
v -2.1525 -2.1080 -0.1334
v -2.1470 -2.1272 -0.1337
v -2.9752 0.8395 -0.0237
v -2.9697 0.8202 -0.0243
v -2.9642 0.8010 -0.0249
v -2.9587 0.7818 -0.0256
v -2.9532 0.7625 -0.0268
v -2.9476 0.7433 -0.0281
v -2.9421 0.7241 -0.0293
v -2.9366 0.7049 -0.0306
v -2.9201 0.6472 -0.0357
v -2.8541 0.4164 -0.0553
v -2.7716 0.1280 -0.0519
v -2.7165 -0.0643 -0.0548
v -2.6395 -0.3335 -0.0801
v -2.5735 -0.5642 -0.1026
v -2.4964 -0.8334 -0.1050
v -2.3644 -1.2949 -0.1072
v -2.2598 -1.6602 -0.1239
v -2.2543 -1.6794 -0.1248
v -2.1277 -2.1217 -0.1334
v -2.9614 0.8642 -0.0215
v -2.8954 0.6334 -0.0353
v -2.8349 0.4219 -0.0540
v -2.7523 0.1335 -0.0515
v -2.6973 -0.0588 -0.0547
v -2.6203 -0.3280 -0.0807
v -2.5542 -0.5587 -0.1032
v -2.4772 -0.8279 -0.1053
v -2.3451 -1.2894 -0.1075
v -2.2461 -1.6355 -0.1230
v -2.2296 -1.6932 -0.1252
v -2.1140 -2.0969 -0.1328
v -2.1085 -2.1162 -0.1331
v -2.9532 0.9081 -0.0191
v -2.9477 0.8889 -0.0193
v -2.8762 0.6389 -0.0336
v -2.8156 0.4274 -0.0509
v -2.7331 0.1390 -0.0514
v -2.6781 -0.0533 -0.0550
v -2.6010 -0.3225 -0.0807
v -2.5350 -0.5532 -0.1021
v -2.4580 -0.8224 -0.1053
v -2.3259 -1.2839 -0.1089
v -2.2324 -1.6107 -0.1215
v -2.2048 -1.7069 -0.1257
v -2.1003 -2.0722 -0.1314
v -2.0838 -2.1299 -0.1323
v -2.9450 0.9521 -0.0168
v -2.9395 0.9329 -0.0171
v -2.8514 0.6252 -0.0336
v -2.7964 0.4329 -0.0478
v -2.7634 0.3176 -0.0501
v -2.7579 0.2983 -0.0502
v -2.7524 0.2791 -0.0502
v -2.7469 0.2599 -0.0503
v -2.7414 0.2407 -0.0504
v -2.7139 0.1445 -0.0512
v -2.6589 -0.0478 -0.0552
v -2.5818 -0.3170 -0.0807
v -2.5158 -0.5477 -0.1009
v -2.4387 -0.8169 -0.1053
v -2.3067 -1.2784 -0.1102
v -2.2186 -1.5860 -0.1197
v -2.1801 -1.7206 -0.1260
v -2.0866 -2.0475 -0.1300
v -2.0646 -2.1244 -0.1312
v -2.8322 0.6307 -0.0319
v -2.7717 0.4192 -0.0450
v -2.7662 0.4000 -0.0456
v -2.7607 0.3808 -0.0462
v -2.7552 0.3615 -0.0468
v -2.7497 0.3423 -0.0473
v -2.7167 0.2269 -0.0497
v -2.7112 0.2077 -0.0501
v -2.7057 0.1885 -0.0504
v -2.7002 0.1692 -0.0507
v -2.6946 0.1500 -0.0511
v -2.6396 -0.0423 -0.0554
v -2.6341 -0.0615 -0.0562
v -2.6286 -0.0807 -0.0577
v -2.6231 -0.0999 -0.0592
v -2.6176 -0.1192 -0.0607
v -2.6121 -0.1384 -0.0622
v -2.6066 -0.1576 -0.0637
v -2.5626 -0.3115 -0.0807
v -2.4966 -0.5422 -0.0998
v -2.4140 -0.8306 -0.1055
v -2.2874 -1.2729 -0.1115
v -2.2049 -1.5613 -0.1181
v -2.1609 -1.7151 -0.1256
v -2.0728 -2.0228 -0.1284
v -2.0453 -2.1189 -0.1302
v -2.8130 0.6362 -0.0302
v -2.6699 0.1363 -0.0514
v -2.6644 0.1171 -0.0515
v -2.6259 -0.0175 -0.0548
v -2.5819 -0.1714 -0.0660
v -2.5764 -0.1906 -0.0683
v -2.5709 -0.2098 -0.0705
v -2.5654 -0.2290 -0.0728
v -2.5599 -0.2483 -0.0751
v -2.5544 -0.2675 -0.0770
v -2.5489 -0.2867 -0.0788
v -2.5434 -0.3060 -0.0807
v -2.4828 -0.5175 -0.0972
v -2.3948 -0.8251 -0.1055
v -2.2682 -1.2674 -0.1128
v -2.1912 -1.5365 -0.1168
v -2.1362 -1.7288 -0.1253
v -2.0701 -1.9596 -0.1263
v -2.0646 -1.9788 -0.1263
v -2.0591 -1.9980 -0.1268
v -2.0261 -2.1134 -0.1291
v -2.7938 0.6417 -0.0285
v -2.6397 0.1033 -0.0517
v -2.6342 0.0841 -0.0518
v -2.6287 0.0649 -0.0520
v -2.6232 0.0457 -0.0521
v -2.6177 0.0264 -0.0530
v -2.6122 0.0072 -0.0540
v -2.5186 -0.3197 -0.0825
v -2.4636 -0.5120 -0.0961
v -2.3756 -0.8196 -0.1056
v -2.2545 -1.2426 -0.1141
v -2.2490 -1.2619 -0.1141
v -2.2435 -1.2811 -0.1141
v -2.1775 -1.5118 -0.1157
v -2.1169 -1.7233 -0.1248
v -2.1114 -1.7426 -0.1248
v -2.1059 -1.7618 -0.1248
v -2.1004 -1.7810 -0.1248
v -2.0949 -1.8002 -0.1248
v -2.0894 -1.8195 -0.1248
v -2.0839 -1.8387 -0.1248
v -2.0784 -1.8579 -0.1248
v -2.0729 -1.8772 -0.1248
v -2.0674 -1.8964 -0.1248
v -2.0619 -1.9156 -0.1249
v -2.0564 -1.9348 -0.1249
v -2.0124 -2.0887 -0.1278
v -2.0069 -2.1079 -0.1281
v -2.0014 -2.1271 -0.1283
v -2.7690 0.6280 -0.0285
v -2.4939 -0.3334 -0.0825
v -2.4444 -0.5065 -0.0947
v -2.3508 -0.8333 -0.1054
v -2.2683 -1.1218 -0.1123
v -2.2628 -1.1410 -0.1128
v -2.2573 -1.1602 -0.1132
v -2.2518 -1.1794 -0.1137
v -2.2463 -1.1987 -0.1141
v -2.2408 -1.2179 -0.1141
v -2.2188 -1.2948 -0.1141
v -2.1637 -1.4871 -0.1150
v -2.0977 -1.7178 -0.1223
v -1.9987 -2.0639 -0.1262
v -1.9766 -2.1408 -0.1275
v -1.9711 -2.1601 -0.1278
v -1.9656 -2.1793 -0.1283
v -2.7498 0.6335 -0.0269
v -2.4692 -0.3471 -0.0821
v -2.4306 -0.4817 -0.0920
v -2.3316 -0.8278 -0.1052
v -2.2546 -1.0970 -0.1119
v -2.1940 -1.3085 -0.1142
v -2.1500 -1.4624 -0.1148
v -2.0785 -1.7123 -0.1197
v -1.9849 -2.0392 -0.1242
v -1.9409 -2.1930 -0.1280
v -1.9354 -2.2123 -0.1286
v -1.9299 -2.2315 -0.1291
v -2.4444 -0.3609 -0.0820
v -2.4169 -0.4570 -0.0894
v -2.3069 -0.8416 -0.1051
v -2.2463 -1.0531 -0.1104
v -2.2408 -1.0723 -0.1112
v -2.1748 -1.3030 -0.1141
v -2.1363 -1.4376 -0.1147
v -2.0592 -1.7068 -0.1172
v -1.9712 -2.0145 -0.1220
v -1.9052 -2.2452 -0.1290
v -2.4197 -0.3746 -0.0821
v -2.4142 -0.3938 -0.0839
v -2.4087 -0.4130 -0.0856
v -2.4032 -0.4323 -0.0868
v -2.3977 -0.4515 -0.0881
v -2.2821 -0.8553 -0.1052
v -2.2326 -1.0283 -0.1095
v -2.1501 -1.3168 -0.1141
v -2.1446 -1.3360 -0.1142
v -2.1391 -1.3552 -0.1142
v -2.1336 -1.3744 -0.1142
v -2.1281 -1.3937 -0.1143
v -2.1226 -1.4129 -0.1144
v -2.1171 -1.4321 -0.1146
v -2.0400 -1.7013 -0.1146
v -1.9575 -1.9897 -0.1198
v -1.8804 -2.2589 -0.1290
v -2.4005 -0.3691 -0.0807
v -2.3785 -0.4460 -0.0868
v -2.2574 -0.8690 -0.1053
v -2.2189 -1.0036 -0.1085
v -2.1308 -1.3113 -0.1141
v -2.0978 -1.4266 -0.1145
v -2.0208 -1.6958 -0.1121
v -1.9437 -1.9650 -0.1174
v -1.8557 -2.2727 -0.1290
v -2.3867 -0.3443 -0.0765
v -2.3537 -0.4597 -0.0852
v -2.3482 -0.4789 -0.0864
v -2.2382 -0.8635 -0.1038
v -2.2052 -0.9789 -0.1069
v -2.1171 -1.2865 -0.1132
v -2.0731 -1.4403 -0.1133
v -2.0016 -1.6903 -0.1105
v -1.9300 -1.9403 -0.1156
v -1.8310 -2.2864 -0.1289
v -2.4281 -0.1273 -0.0575
v -2.3730 -0.3196 -0.0727
v -2.3235 -0.4927 -0.0849
v -2.2134 -0.8772 -0.1032
v -2.1914 -0.9541 -0.1055
v -2.1034 -1.2618 -0.1123
v -2.0539 -1.4348 -0.1121
v -1.9823 -1.6848 -0.1089
v -1.9163 -1.9155 -0.1137
v -1.8117 -2.2809 -0.1281
v -2.4033 -0.1411 -0.0574
v -2.3978 -0.1603 -0.0586
v -2.3593 -0.2949 -0.0693
v -2.2988 -0.5064 -0.0833
v -2.1942 -0.8717 -0.1020
v -2.1887 -0.8910 -0.1026
v -2.1832 -0.9102 -0.1033
v -2.1777 -0.9294 -0.1039
v -2.1722 -0.9486 -0.1046
v -2.0842 -1.2563 -0.1114
v -2.0291 -1.4486 -0.1108
v -1.9631 -1.6793 -0.1073
v -1.9026 -1.8908 -0.1118
v -2.3731 -0.1740 -0.0583
v -2.3456 -0.2702 -0.0658
v -2.2740 -0.5201 -0.0818
v -2.1750 -0.8662 -0.1008
v -2.1475 -0.9624 -0.1044
v -2.0649 -1.2508 -0.1105
v -2.0099 -1.4431 -0.1095
v -1.9439 -1.6738 -0.1057
v -2.3484 -0.1877 -0.0578
v -2.3429 -0.2070 -0.0593
v -2.3374 -0.2262 -0.0608
v -2.3318 -0.2454 -0.0624
v -2.3263 -0.2646 -0.0639
v -2.2493 -0.5338 -0.0806
v -2.1613 -0.8415 -0.0981
v -2.1227 -0.9761 -0.1044
v -2.0457 -1.2453 -0.1096
v -1.9907 -1.4376 -0.1082
v -1.9246 -1.6683 -0.1041
v -2.3291 -0.1822 -0.0561
v -2.3071 -0.2591 -0.0620
v -2.1475 -0.8168 -0.0944
v -2.1035 -0.9706 -0.1028
v -2.0320 -1.2206 -0.1091
v -1.9659 -1.4513 -0.1069
v -1.9164 -1.6243 -0.1032
v -1.9109 -1.6436 -0.1032
v -2.3154 -0.1575 -0.0536
v -2.2879 -0.2536 -0.0601
v -2.1338 -0.7920 -0.0908
v -2.0843 -0.9651 -0.1012
v -2.0128 -1.2150 -0.1086
v -1.9412 -1.4650 -0.1053
v -1.9082 -1.5804 -0.1031
v -1.9027 -1.5996 -0.1027
v -2.2962 -0.1520 -0.0520
v -2.2632 -0.2674 -0.0596
v -2.1201 -0.7673 -0.0873
v -2.0596 -0.9788 -0.1008
v -1.9935 -1.2095 -0.1082
v -1.9165 -1.4787 -0.1036
v -1.9110 -1.4980 -0.1032
v -1.9055 -1.5172 -0.1027
v -1.9000 -1.5364 -0.1025
v -1.8945 -1.5557 -0.1022
v -2.2769 -0.1465 -0.0504
v -2.2439 -0.2619 -0.0576
v -2.1064 -0.7426 -0.0839
v -2.0348 -0.9925 -0.1007
v -2.0293 -1.0118 -0.1020
v -2.0238 -1.0310 -0.1034
v -2.0183 -1.0502 -0.1042
v -2.0128 -1.0694 -0.1051
v -2.0073 -1.0887 -0.1060
v -2.0018 -1.1079 -0.1068
v -1.9963 -1.1271 -0.1077
v -1.9798 -1.1848 -0.1077
v -1.8973 -1.4732 -0.1022
v -2.2247 -0.2564 -0.0557
v -2.0926 -0.7178 -0.0803
v -1.9716 -1.1409 -0.1072
v -1.9661 -1.1601 -0.1072
v -1.9606 -1.1793 -0.1072
v -1.9551 -1.1985 -0.1072
v -1.9496 -1.2178 -0.1072
v -1.9441 -1.2370 -0.1068
v -1.9386 -1.2562 -0.1064
v -1.9331 -1.2755 -0.1060
v -1.9276 -1.2947 -0.1056
v -1.9221 -1.3139 -0.1052
v -1.9166 -1.3331 -0.1047
v -1.9110 -1.3524 -0.1042
v -1.9055 -1.3716 -0.1038
v -1.9000 -1.3908 -0.1033
v -1.8945 -1.4100 -0.1028
v -1.8890 -1.4293 -0.1022
v -1.8835 -1.4485 -0.1015
v -1.8780 -1.4677 -0.1009
v -2.2055 -0.2509 -0.0534
v -2.0789 -0.6931 -0.0760
v -1.9468 -1.1546 -0.1062
v -1.8588 -1.4622 -0.1002
v -2.1917 -0.2261 -0.0501
v -2.0652 -0.6684 -0.0718
v -1.9276 -1.1491 -0.1052
v -1.8396 -1.4567 -0.0996
v -1.9084 -1.1436 -0.1041
v -1.8203 -1.4512 -0.0990
v -1.8947 -1.1188 -0.1029
v -1.8892 -1.1381 -0.1031
v -1.8011 -1.4457 -0.0983
v -1.8809 -1.0941 -0.1016
v -1.8644 -1.1518 -0.1023
v -1.7874 -1.4210 -0.0983
v -1.8672 -1.0694 -0.0984
v -1.8397 -1.1655 -0.1018
v -1.7737 -1.3963 -0.0983
v -1.8535 -1.0447 -0.0952
v -1.8205 -1.1600 -0.1011
v -1.7544 -1.3908 -0.0977
v -1.8508 -0.9815 -0.0889
v -1.8453 -1.0007 -0.0904
v -1.8398 -1.0199 -0.0918
v -1.8012 -1.1545 -0.1004
v -1.7407 -1.3660 -0.0976
v -1.7765 -1.1682 -0.1010
v -1.7600 -1.2259 -0.0996
v -1.7545 -1.2452 -0.0992
v -1.7490 -1.2644 -0.0987
v -1.7435 -1.2836 -0.0984
v -1.7380 -1.3028 -0.0980
v -1.7325 -1.3221 -0.0976
v -1.7270 -1.3413 -0.0972
v -1.7573 -1.1627 -0.1005
v -1.7518 -1.1820 -0.1000
v -1.7463 -1.2012 -0.0995
v -1.7381 -1.1572 -0.0989
v -1.7133 -1.1710 -0.0971
v -1.6941 -1.1655 -0.0957
v -1.6749 -1.1600 -0.0942
v -1.6501 -1.1737 -0.0932
v -1.6309 -1.1682 -0.0912
v -1.6117 -1.1627 -0.0892
v -1.5925 -1.1572 -0.0872
v -1.5484 -1.3110 -0.0907
v -1.5429 -1.3302 -0.0905
v -1.5732 -1.1517 -0.0853
v -1.5182 -1.3440 -0.0896
v -1.5540 -1.1462 -0.0833
v -1.4935 -1.3577 -0.0887
v -1.5348 -1.1407 -0.0817
v -1.4742 -1.3522 -0.0880
v -1.5155 -1.1352 -0.0802
v -1.4550 -1.3467 -0.0873
v -1.4963 -1.1297 -0.0787
v -1.4908 -1.1489 -0.0802
v -1.4853 -1.1681 -0.0817
v -1.4358 -1.3412 -0.0866
v -1.4826 -1.1049 -0.0757
v -1.4606 -1.1818 -0.0813
v -1.4551 -1.2011 -0.0821
v -1.4496 -1.2203 -0.0830
v -1.4441 -1.2395 -0.0839
v -1.4386 -1.2588 -0.0847
v -1.4331 -1.2780 -0.0856
v -1.4276 -1.2972 -0.0857
v -1.4221 -1.3164 -0.0858
v -1.4166 -1.3357 -0.0859
v -1.4111 -1.3549 -0.0860
v -1.4634 -1.0994 -0.0743
v -1.3863 -1.3686 -0.0855
v -1.3616 -1.3823 -0.0851
v -1.3369 -1.3961 -0.0848
v -1.3176 -1.3906 -0.0845
v -1.2929 -1.4043 -0.0846
v -1.2737 -1.3988 -0.0844
v -1.2544 -1.3933 -0.0841
v -1.2572 -1.3109 -0.0815
v -1.2352 -1.3878 -0.0838
v -1.2325 -1.3246 -0.0818
v -1.2270 -1.3438 -0.0824
v -1.2215 -1.3631 -0.0830
v -1.7093 2.3043 0.0668
v -1.7038 2.2850 0.0663
v -1.6983 2.2658 0.0658
v -1.6928 2.2466 0.0653
v -1.6873 2.2273 0.0649
v -1.6818 2.2081 0.0644
v -1.6763 2.1889 0.0639
v -1.6708 2.1697 0.0633
v -1.6653 2.1504 0.0628
v -1.6598 2.1312 0.0622
v -1.6543 2.1120 0.0617
v -1.6488 2.0928 0.0611
v -1.6433 2.0735 0.0605
v -1.6378 2.0543 0.0599
v -1.6323 2.0351 0.0592
v -1.6268 2.0158 0.0586
v -1.6213 1.9966 0.0580
v -1.6158 1.9774 0.0575
v -1.6103 1.9582 0.0570
v -1.6956 2.3290 0.0677
v -1.6764 2.3345 0.0682
v -1.6627 2.3592 0.0692
v -1.6434 2.3647 0.0697
v -1.6187 2.3510 0.0697
v -1.5995 2.3565 0.0704
v -1.5802 2.3620 0.0710
v -1.5555 2.3483 0.0711
v -1.5363 2.3538 0.0716
v -1.5170 2.3593 0.0722
v -1.4978 2.3648 0.0729
v -1.4786 2.3703 0.0735
v -1.4594 2.3758 0.0742
v -1.4401 2.3813 0.0748
v -1.4154 2.3676 0.0749
v -1.3907 2.3538 0.0749
v -1.1325 2.4693 0.0828
v -1.1133 2.4748 0.0831
v -1.0885 2.4611 0.0829
v -1.0693 2.4666 0.0832
v -1.0501 2.4721 0.0836
v -1.0253 2.4584 0.0831
v -1.0061 2.4639 0.0831
v -0.9869 2.4694 0.0831
v -0.9622 2.4557 0.0823
v -0.9567 2.4365 0.0815
v -0.9511 2.4172 0.0806
v -0.9484 2.4804 0.0831
v -0.9264 2.4035 0.0799
v -0.9347 2.5051 0.0839
v -0.9017 2.3898 0.0794
v -0.8962 2.3705 0.0789
v -0.8907 2.3513 0.0783
v -0.9210 2.5299 0.0846
v -0.8659 2.3376 0.0779
v -0.8604 2.3184 0.0773
v -0.5831 2.5850 0.0915
v -0.5584 2.5712 0.0925
v -0.5391 2.5767 0.0939
v -0.5336 2.5575 0.0936
v -0.5281 2.5383 0.0932
v -0.5226 2.5191 0.0928
v -0.5171 2.4998 0.0922
v -0.5116 2.4806 0.0916
v -0.5061 2.4614 0.0911
v -0.5006 2.4421 0.0905
v -0.4951 2.4229 0.0899
v -0.4896 2.4037 0.0893
v -0.4841 2.3845 0.0887
v -0.4786 2.3652 0.0881
v -0.5199 2.5822 0.0946
v -0.4539 2.3515 0.0881
v -0.5007 2.5877 0.0954
v -0.4291 2.3378 0.0881
v -0.4815 2.5932 0.0961
v -0.4099 2.3433 0.0887
v -0.4677 2.6180 0.0975
v -0.4567 2.5795 0.0961
v -0.3907 2.3488 0.0893
v -0.4540 2.6427 0.0990
v -0.4320 2.5658 0.0960
v -0.3715 2.3543 0.0899
v -0.4403 2.6674 0.0999
v -0.4128 2.5713 0.0967
v -0.2809 2.6922 0.1035
v -0.2617 2.6977 0.1041
v -0.2370 2.6840 0.1038
v -0.2178 2.6895 0.1042
v -0.1985 2.6950 0.1047
v -0.1793 2.7005 0.1051
v -0.1546 2.6868 0.1047
v -0.1353 2.6923 0.1051
v -0.1161 2.6978 0.1055
v -0.1106 2.6786 0.1047
v -0.1051 2.6593 0.1039
v -0.0996 2.6401 0.1031
v -0.0969 2.7033 0.1058
v -0.0749 2.6264 0.1027
v -0.0694 2.6072 0.1018
v -0.0832 2.7280 0.1069
v -0.0446 2.5934 0.1014
v -0.0639 2.7335 0.1073
v -0.0199 2.5797 0.1010
v -0.0144 2.5605 0.1001
v -0.0089 2.5413 0.0993
v -0.0447 2.7390 0.1077
v 0.0158 2.5275 0.0987
v 0.0213 2.5083 0.0979
v -0.0255 2.7445 0.1082
v -0.0063 2.7500 0.1086
v 0.0130 2.7555 0.1091
v 0.0322 2.7610 0.1095
v 0.0514 2.7666 0.1098
v 0.0707 2.7721 0.1100
v 0.2108 2.7913 0.1107
v 0.2300 2.7968 0.1110
v 0.2492 2.8023 0.1112
v 0.2684 2.8079 0.1114
v 0.2877 2.8134 0.1116
v 0.3069 2.8189 0.1119
v 0.3261 2.8244 0.1121
v 0.3454 2.8299 0.1124
v 0.3646 2.8354 0.1126
v 0.3838 2.8409 0.1129
v 0.4030 2.8464 0.1132
v 0.4085 2.8271 0.1123
v 0.4140 2.8079 0.1115
v 0.4196 2.7887 0.1106
v 0.4251 2.7695 0.1099
v 0.4306 2.7502 0.1091
v 0.4361 2.7310 0.1083
v 0.4416 2.7118 0.1075
v 0.4746 2.5964 0.1028
v 0.4168 2.8711 0.1143
v 0.4663 2.6980 0.1071
v 0.4828 2.6404 0.1047
v 0.4883 2.6211 0.1039
v 0.4360 2.8766 0.1145
v 0.4910 2.6843 0.1066
v 0.4965 2.6651 0.1059
v 0.4552 2.8821 0.1146
v 0.5103 2.6898 0.1069
v 0.4689 2.9068 0.1154
v 0.5240 2.7146 0.1079
v 0.4882 2.9123 0.1155
v 0.5432 2.7201 0.1082
v 0.5074 2.9178 0.1156
v 0.5624 2.7256 0.1085
v 0.5321 2.9041 0.1152
v 0.5762 2.7503 0.1096
v 0.5569 2.8904 0.1149
v 0.9827 2.9290 0.1201
v 0.9882 2.9098 0.1196
v 0.9937 2.8906 0.1190
v 0.9992 2.8714 0.1185
v 1.0047 2.8521 0.1179
v 1.0102 2.8329 0.1173
v 1.0157 2.8137 0.1168
v 1.0212 2.7944 0.1162
v 1.0267 2.7752 0.1156
v 1.0322 2.7560 0.1150
v 1.0377 2.7368 0.1143
v 0.9689 3.0499 0.1240
v 0.9744 3.0307 0.1235
v 0.9799 3.0115 0.1229
v 0.9854 2.9922 0.1223
v 0.9909 2.9730 0.1218
v 0.9964 2.9538 0.1212
v 1.0624 2.7230 0.1141
v 0.6777 2.9042 0.1158
v 0.6970 2.9097 0.1161
v 0.7162 2.9152 0.1163
v 0.7409 2.9015 0.1161
v 0.7602 2.9070 0.1164
v 0.7794 2.9125 0.1167
v 0.8041 2.8987 0.1166
v 0.8233 2.9042 0.1169
v 0.8426 2.9097 0.1174
v 0.8563 2.9345 0.1183
v -1.9098 2.0597 0.0537
v -1.9043 2.0404 0.0533
v -1.8795 2.0267 0.0535
v -1.8740 2.0075 0.0530
v -1.8685 1.9883 0.0525
v -1.8630 1.9690 0.0519
v -1.8575 1.9498 0.0514
v -1.8328 1.9361 0.0515
v -1.8136 1.9416 0.0521
v -1.7943 1.9471 0.0528
v -1.7696 1.9334 0.0529
v -3.1239 1.6498 0.0103
v -3.1184 1.6306 0.0096
v -3.0936 1.6169 0.0096
v -3.0689 1.6031 0.0096
v -3.0442 1.5894 0.0094
v -3.0249 1.5949 0.0099
v -3.0002 1.5812 0.0098
v -2.9810 1.5867 0.0103
v -2.9618 1.5922 0.0108
v -2.9425 1.5977 0.0111
v -2.9233 1.6032 0.0114
v -2.9041 1.6087 0.0117
v -2.8793 1.5950 0.0115
v -2.8601 1.6005 0.0119
v -1.7888 1.7823 0.0473
v -1.7833 1.7630 0.0468
v -1.7778 1.7438 0.0462
v -1.7723 1.7246 0.0456
v -1.7668 1.7053 0.0449
v -1.7613 1.6861 0.0443
v -1.7558 1.6669 0.0436
v -1.7503 1.6477 0.0430
v -1.7448 1.6284 0.0424
v -1.7750 1.8070 0.0485
v -1.7200 1.6147 0.0424
v -1.7145 1.5955 0.0418
v -1.7090 1.5762 0.0412
v -1.7035 1.5570 0.0406
v -1.6980 1.5378 0.0400
v -1.6925 1.5186 0.0394
v -1.6870 1.4993 0.0388
v -1.6815 1.4801 0.0382
v -1.7613 1.8317 0.0495
v -1.0773 1.9859 0.0634
v -1.0581 1.9914 0.0636
v -1.0389 1.9969 0.0639
v -1.0196 2.0024 0.0641
v -1.0004 2.0079 0.0644
v -0.9812 2.0134 0.0647
v -0.9620 2.0189 0.0651
v -0.9427 2.0244 0.0654
v -0.9180 2.0106 0.0650
v -0.8988 2.0162 0.0654
v -0.8795 2.0217 0.0658
v -0.8603 2.0272 0.0662
v -0.8411 2.0327 0.0665
v -0.8219 2.0382 0.0669
v -0.8081 2.0629 0.0680
v -0.5966 2.1234 0.0737
v -0.5719 2.1097 0.0743
v -0.5527 2.1152 0.0754
v -0.5279 2.1015 0.0760
v -0.5087 2.1070 0.0772
v -0.4895 2.1125 0.0777
v -0.4703 2.1180 0.0782
v -0.4510 2.1235 0.0788
v -0.4318 2.1290 0.0793
v -0.4071 2.1153 0.0793
v -0.3878 2.1208 0.0798
v -0.3823 2.1015 0.0792
v -0.3768 2.0823 0.0787
v -0.3713 2.0631 0.0781
v -0.3658 2.0439 0.0775
v -0.3603 2.0246 0.0768
v -0.3548 2.0054 0.0760
v -0.3493 1.9862 0.0753
v -0.3438 1.9669 0.0745
v -0.3686 2.1263 0.0803
v -0.3549 2.1510 0.0814
v 0.3676 2.3161 0.0903
v 0.3868 2.3216 0.0907
v 0.4115 2.3079 0.0900
v 0.4307 2.3134 0.0904
v 0.4500 2.3189 0.0907
v 0.4692 2.3244 0.0911
v 0.4884 2.3299 0.0915
v 0.5077 2.3354 0.0918
v 0.5269 2.3409 0.0921
v 0.5461 2.3464 0.0925
v 0.5653 2.3519 0.0928
v 0.5791 2.3767 0.0941
v 0.5818 2.4399 0.0969
v 0.5873 2.4206 0.0962
v 0.5928 2.4014 0.0954
v 0.5983 2.3822 0.0945
v 0.6258 2.2860 0.0903
v 0.6313 2.2668 0.0894
v 0.6368 2.2476 0.0885
v 0.6230 2.3685 0.0942
v 0.6285 2.3492 0.0934
v 0.6340 2.3300 0.0925
v 0.6395 2.3108 0.0916
v 0.6615 2.2339 0.0880
v 0.6863 2.2201 0.0875
v 0.6918 2.2009 0.0866
v 0.7083 2.1432 0.0840
v 0.7138 2.1240 0.0831
v 0.7165 2.1872 0.0860
v 0.7220 2.1679 0.0851
v 0.8016 2.3987 0.0968
v 0.8208 2.4042 0.0973
v 0.8400 2.4098 0.0977
v 0.8593 2.4153 0.0982
v 0.8785 2.4208 0.0987
v 0.8977 2.4263 0.0992
v 0.9170 2.4318 0.0997
v 0.9362 2.4373 0.1002
v 0.9554 2.4428 0.1007
v 0.9746 2.4483 0.1012
v 0.9939 2.4538 0.1016
v 1.0131 2.4593 0.1021
v 1.0268 2.4840 0.1033
v 1.0405 2.5087 0.1045
v 1.0543 2.5335 0.1057
v 1.0735 2.5390 0.1062
v 1.0927 2.5445 0.1066
v 1.1120 2.5500 0.1070
v 1.1312 2.5555 0.1075
v 1.1504 2.5610 0.1075
v 1.1751 2.5473 0.1066
v 1.1999 2.5335 0.1058
v -1.5415 1.6450 0.0470
v -1.5360 1.6258 0.0465
v -1.5305 1.6065 0.0459
v -1.5250 1.5873 0.0453
v -1.5195 1.5681 0.0447
v -1.5140 1.5489 0.0441
v -1.5498 1.7466 0.0504
v -1.5442 1.7274 0.0498
v -1.5387 1.7082 0.0492
v -1.5332 1.6890 0.0487
v -1.5277 1.6697 0.0481
v -1.4892 1.5351 0.0440
v -1.4837 1.5159 0.0434
v -1.4782 1.4967 0.0427
v -0.8163 1.8733 0.0604
v -0.8108 1.8541 0.0598
v -0.8053 1.8349 0.0592
v -0.7998 1.8156 0.0585
v -0.7943 1.7964 0.0577
v -0.7888 1.7772 0.0568
v -0.7833 1.7580 0.0559
v -0.7778 1.7387 0.0550
v -0.7530 1.7250 0.0548
v -0.7283 1.7113 0.0547
v -0.7091 1.7168 0.0554
v -2.3050 1.2601 0.0165
v -2.2803 1.2463 0.0166
v -2.2611 1.2518 0.0173
v -2.2473 1.2766 0.0187
v -2.2281 1.2821 0.0193
v -2.2089 1.2876 0.0200
v -2.1897 1.2931 0.0207
v -2.1704 1.2986 0.0213
v -2.1732 1.3810 0.0241
v -2.1677 1.3618 0.0236
v -2.1622 1.3425 0.0231
v -2.1567 1.3233 0.0226
v -2.1512 1.3041 0.0220
v -2.1595 1.4057 0.0252
v -2.1320 1.3096 0.0226
v -2.1458 1.4305 0.0264
v -2.1127 1.3151 0.0232
v -0.4701 1.8268 0.0654
v -0.4509 1.8323 0.0663
v -0.4317 1.8378 0.0673
v -0.4124 1.8433 0.0679
v -0.3932 1.8488 0.0686
v -0.3740 1.8543 0.0693
v -0.3548 1.8598 0.0700
v -0.3355 1.8653 0.0707
v -0.3163 1.8708 0.0707
v -0.2971 1.8763 0.0707
v -0.2778 1.8818 0.0707
v -0.2586 1.8873 0.0707
v -2.7033 1.1253 -0.0015
v -2.6841 1.1308 -0.0011
v -2.6649 1.1363 -0.0007
v -2.6511 1.1610 -0.0000
v -2.6319 1.1665 0.0003
v -2.6127 1.1720 0.0007
v -2.5934 1.1775 0.0012
v -2.5742 1.1830 0.0016
v -2.5550 1.1885 0.0021
v -2.5358 1.1940 0.0025
v -2.5165 1.1995 0.0042
v -2.4973 1.2050 0.0059
v -1.8955 0.9196 0.0119
v -1.8900 0.9004 0.0112
v -1.8845 0.8811 0.0106
v -1.8790 0.8619 0.0099
v -1.9038 1.0212 0.0159
v -1.8983 1.0020 0.0152
v -1.8928 0.9828 0.0145
v -1.8873 0.9635 0.0139
v -1.8818 0.9443 0.0132
v -1.8543 0.8482 0.0098
v -1.9561 1.2767 0.0250
v -1.9506 1.2575 0.0245
v -1.9451 1.2382 0.0239
v -1.9396 1.2190 0.0233
v -1.9341 1.1998 0.0227
v -1.9286 1.1806 0.0221
v -1.9231 1.1613 0.0214
v -1.9176 1.1421 0.0207
v -1.9121 1.1229 0.0200
v -1.9066 1.1036 0.0193
v -1.9011 1.0844 0.0185
v -1.8956 1.0652 0.0178
v -1.8901 1.0460 0.0171
v -1.9589 1.3591 0.0278
v -1.9534 1.3399 0.0273
v -1.9479 1.3207 0.0267
v -1.9424 1.3014 0.0262
v -1.0167 1.4831 0.0424
v -1.0112 1.4639 0.0416
v -1.0002 1.4255 0.0399
v -0.9864 1.4502 0.0409
v -0.9727 1.4749 0.0420
v -0.9535 1.4804 0.0422
v -0.9343 1.4859 0.0426
v -0.9150 1.4914 0.0430
v -0.8958 1.4969 0.0434
v -0.8766 1.5024 0.0438
v -0.8518 1.4887 0.0434
v -0.8326 1.4942 0.0438
v -0.8134 1.4997 0.0442
v -0.7942 1.5052 0.0445
v -0.7749 1.5107 0.0449
v -0.7557 1.5162 0.0453
v -0.7310 1.5025 0.0450
v -0.7117 1.5080 0.0456
v -0.6925 1.5135 0.0462
v -0.6678 1.4998 0.0460
v -0.6623 1.4805 0.0452
v -0.6568 1.4613 0.0444
v -0.6513 1.4421 0.0436
v -0.6458 1.4229 0.0427
v -0.6210 1.4091 0.0424
v -0.5195 1.5630 0.0533
v -0.5002 1.5685 0.0541
v -0.4755 1.5548 0.0542
v -0.4508 1.5411 0.0543
v -0.4453 1.5218 0.0536
v -0.4398 1.5026 0.0529
v -0.4315 1.5466 0.0550
v -0.4150 1.4889 0.0529
v -0.4178 1.5713 0.0564
v -0.3986 1.5768 0.0570
v -0.3794 1.5823 0.0577
v -0.3601 1.5878 0.0584
v -0.3409 1.5933 0.0587
v -0.3217 1.5988 0.0590
v -0.3025 1.6043 0.0592
v -0.2832 1.6098 0.0595
v -0.2640 1.6153 0.0598
v -0.2448 1.6208 0.0598
v -0.2255 1.6263 0.0598
v -0.2008 1.6126 0.0589
v -0.1816 1.6181 0.0588
v -0.1624 1.6236 0.0588
v -0.1541 1.6676 0.0604
v -0.1486 1.6483 0.0595
v 0.1398 1.7309 0.0599
v 0.1590 1.7364 0.0601
v 0.1782 1.7419 0.0602
v 0.1975 1.7474 0.0604
v 0.2167 1.7529 0.0606
v 0.2359 1.7584 0.0609
v 0.2607 1.7447 0.0603
v 0.2799 1.7502 0.0606
v 0.2991 1.7557 0.0609
v 0.3183 1.7612 0.0612
v -2.6152 0.6720 -0.0190
v -2.5960 0.6775 -0.0182
v -2.5767 0.6830 -0.0175
v -2.5575 0.6885 -0.0168
v -2.5878 0.8671 -0.0096
v -2.5823 0.8479 -0.0103
v -2.5768 0.8286 -0.0110
v -2.5713 0.8094 -0.0116
v -2.5658 0.7902 -0.0123
v -2.5603 0.7709 -0.0131
v -2.5548 0.7517 -0.0138
v -2.5493 0.7325 -0.0146
v -2.5438 0.7133 -0.0153
v -2.5383 0.6940 -0.0161
v -2.5191 0.6995 -0.0154
v -2.4998 0.7050 -0.0147
v -2.4751 0.6913 -0.0140
v -2.4559 0.6968 -0.0126
v -2.3570 0.7875 -0.0032
v -2.3323 0.7738 -0.0030
v -2.3268 0.7546 -0.0036
v -2.3213 0.7353 -0.0043
v -2.2966 0.7216 -0.0039
v -2.2773 0.7271 -0.0033
v -2.2581 0.7326 -0.0027
v -2.2389 0.7381 -0.0020
v -2.2196 0.7436 -0.0014
v -2.2004 0.7491 -0.0008
v -2.1812 0.7546 -0.0002
v -2.1620 0.7601 0.0004
v -2.1427 0.7656 0.0010
v -2.1235 0.7711 0.0016
v -2.1043 0.7766 0.0021
v -2.0850 0.7821 0.0028
v -2.0658 0.7876 0.0035
v -2.0466 0.7931 0.0041
v -2.0274 0.7987 0.0048
v -2.0081 0.8042 0.0055
v -1.9889 0.8097 0.0060
v -1.9697 0.8152 0.0065
v -0.8599 1.0079 0.0228
v -0.8462 1.0327 0.0238
v -0.8214 1.0189 0.0231
v -0.8022 1.0245 0.0233
v -0.7830 1.0300 0.0236
v -0.7637 1.0355 0.0238
v -0.7445 1.0410 0.0240
v -0.7253 1.0465 0.0243
v -0.7061 1.0520 0.0246
v -0.6868 1.0575 0.0249
v -0.6676 1.0630 0.0253
v -0.6869 1.2031 0.0320
v -0.6484 1.0685 0.0256
v -0.6622 1.1893 0.0315
v -0.6346 1.0932 0.0268
v -0.6429 1.1948 0.0319
v -0.6154 1.0987 0.0273
v -0.6182 1.1811 0.0314
v -0.6127 1.1619 0.0304
v -0.6072 1.1427 0.0295
v -0.6017 1.1234 0.0286
v -0.5962 1.1042 0.0277
v -0.6045 1.2059 0.0327
v -0.5770 1.1097 0.0281
v -0.5908 1.2306 0.0340
v -0.5577 1.1152 0.0286
v -0.5825 1.2745 0.0362
v -0.5770 1.2553 0.0353
v -0.5330 1.1015 0.0280
v -0.5688 1.2993 0.0379
v -0.5138 1.1070 0.0287
v -0.4890 1.0933 0.0283
v -0.3985 1.2856 0.0431
v -0.3792 1.2911 0.0443
v -0.3600 1.2966 0.0451
v -0.3463 1.3213 0.0470
v -0.3271 1.3268 0.0478
v -0.3078 1.3324 0.0486
v -0.2886 1.3379 0.0494
v -0.2694 1.3434 0.0494
v -0.2501 1.3489 0.0494
v -0.2309 1.3544 0.0494
v -0.2062 1.3406 0.0486
v -0.1870 1.3461 0.0486
v -0.1677 1.3516 0.0485
v -0.1485 1.3571 0.0484
v -0.1293 1.3626 0.0483
v -0.1100 1.3681 0.0482
v -1.2637 1.0380 0.0252
v -1.2390 1.0243 0.0247
v -1.2198 1.0298 0.0249
v -1.2143 1.0105 0.0242
v -1.2088 0.9913 0.0235
v -1.2033 0.9721 0.0228
v -1.1978 0.9529 0.0220
v -1.2061 1.0545 0.0258
v -1.1730 0.9391 0.0214
v -1.1538 0.9446 0.0217
v -0.3489 1.1126 0.0334
v -0.3297 1.1181 0.0345
v -0.3105 1.1236 0.0356
v -0.2913 1.1291 0.0366
v -0.2720 1.1346 0.0377
v -0.2528 1.1401 0.0387
v -0.2281 1.1263 0.0387
v -0.2088 1.1318 0.0390
v -0.1896 1.1373 0.0393
v -0.1704 1.1429 0.0396
v -0.1512 1.1484 0.0398
v -0.1319 1.1539 0.0401
v -0.1127 1.1594 0.0401
v -0.0935 1.1649 0.0401
v -0.0742 1.1704 0.0401
v -0.0687 1.1511 0.0392
v -0.0632 1.1319 0.0384
v -0.0550 1.1759 0.0401
v -0.0413 1.2006 0.0410
v -2.5107 0.4523 -0.0295
v -2.5052 0.4331 -0.0303
v -2.4805 0.4193 -0.0303
v -2.4750 0.4001 -0.0311
v -2.4640 0.3617 -0.0327
v -2.4585 0.3424 -0.0335
v -2.4530 0.3232 -0.0342
v -2.4475 0.3040 -0.0350
v -2.4420 0.2847 -0.0358
v -2.4365 0.2655 -0.0365
v -2.4310 0.2463 -0.0373
v -2.4255 0.2271 -0.0381
v -2.4502 0.3864 -0.0311
v -2.4007 0.2133 -0.0381
v -2.4365 0.4111 -0.0294
v -2.3815 0.2188 -0.0373
v -2.4173 0.4166 -0.0286
v -2.3926 0.4029 -0.0284
v -2.3678 0.3892 -0.0278
v -2.3486 0.3947 -0.0266
v -2.3294 0.4002 -0.0254
v -2.3046 0.3864 -0.0243
v -2.2854 0.3920 -0.0225
v -2.2607 0.3782 -0.0210
v -2.2552 0.3590 -0.0214
v -2.2497 0.3398 -0.0218
v -2.2442 0.3205 -0.0221
v -2.2194 0.3068 -0.0212
v -2.2139 0.2876 -0.0217
v -2.1892 0.2739 -0.0211
v -2.1645 0.2601 -0.0209
v -2.1453 0.2656 -0.0202
v -2.1260 0.2711 -0.0195
v -2.1068 0.2766 -0.0187
v -2.0876 0.2821 -0.0180
v -3.6396 -0.0372 -0.0661
v -3.6341 -0.0564 -0.0669
v -3.6286 -0.0757 -0.0678
v -3.6259 -0.0125 -0.0652
v -3.6039 -0.0894 -0.0683
v -3.5846 -0.0839 -0.0680
v -3.5599 -0.0976 -0.0685
v -3.5407 -0.0921 -0.0682
v -3.5215 -0.0866 -0.0679
v -3.5022 -0.0811 -0.0677
v -3.4885 -0.0564 -0.0668
v -3.4693 -0.0509 -0.0666
v -3.4556 -0.0261 -0.0658
v -3.4363 -0.0206 -0.0656
v -3.4171 -0.0151 -0.0653
v -0.2471 0.6840 0.0095
v -0.2224 0.6703 0.0089
v -0.2032 0.6758 0.0093
v -0.1839 0.6813 0.0097
v -0.1647 0.6868 0.0101
v -0.1455 0.6923 0.0105
v -0.1262 0.6978 0.0109
v -0.1070 0.7033 0.0112
v -0.0878 0.7088 0.0117
v -0.0686 0.7143 0.0121
v -0.0493 0.7198 0.0126
v -0.0301 0.7253 0.0130
v -0.0109 0.7308 0.0135
v 0.0084 0.7363 0.0140
v 0.0331 0.7226 0.0131
v 0.0523 0.7281 0.0135
v 0.0715 0.7336 0.0139
v 0.0963 0.7199 0.0126
v 0.1018 0.7007 0.0115
v 0.1073 0.6814 0.0104
v 0.1320 0.6677 0.0097
v 0.1375 0.6485 0.0086
v 0.1430 0.6293 0.0075
v 0.1485 0.6100 0.0065
v 1.0659 1.0390 0.0232
v 1.0714 1.0198 0.0221
v 1.0769 1.0005 0.0211
v 1.0824 0.9813 0.0202
v 1.0879 0.9621 0.0192
v 1.0934 0.9429 0.0183
v 1.0989 0.9236 0.0173
v 1.1044 0.9044 0.0164
v 1.1099 0.8852 0.0154
v 1.1154 0.8659 0.0145
v 1.1209 0.8467 0.0135
v 1.1264 0.8275 0.0126
v 1.1319 0.8083 0.0116
v 1.1374 0.7890 0.0109
v 1.1429 0.7698 0.0102
v 1.1484 0.7506 0.0094
v 1.1539 0.7313 0.0087
v 1.1594 0.7121 0.0080
v 1.1649 0.6929 0.0073
v 1.1897 0.6792 0.0069
v -3.5872 -0.4383 -0.0812
v -3.5817 -0.4575 -0.0820
v -3.5762 -0.4767 -0.0827
v -3.5707 -0.4960 -0.0835
v -3.5652 -0.5152 -0.0843
v -3.5322 -0.6305 -0.0884
v -3.6010 -0.3174 -0.0766
v -3.5955 -0.3366 -0.0772
v -3.5900 -0.3559 -0.0780
v -3.5845 -0.3751 -0.0787
v -3.5790 -0.3943 -0.0795
v -3.5735 -0.4135 -0.0803
v -3.5405 -0.5289 -0.0849
v -3.5350 -0.5481 -0.0856
v -3.5240 -0.5866 -0.0869
v -3.5185 -0.6058 -0.0876
v -3.5103 -0.5619 -0.0860
v -3.5048 -0.5811 -0.0867
v -3.4855 -0.5756 -0.0865
v -3.4663 -0.5701 -0.0861
v -3.4471 -0.5646 -0.0857
v -3.4278 -0.5591 -0.0854
v -3.4086 -0.5536 -0.0850
v -3.3894 -0.5481 -0.0846
v -3.3702 -0.5426 -0.0844
v -3.3509 -0.5371 -0.0842
v -3.3317 -0.5316 -0.0839
v 0.3023 0.7997 0.0189
v 0.3215 0.8052 0.0190
v 0.3407 0.8107 0.0191
v 0.3655 0.7969 0.0181
v 0.3847 0.8024 0.0182
v 0.4039 0.8079 0.0182
v 0.4231 0.8134 0.0182
v 0.4424 0.8189 0.0182
v 0.4616 0.8244 0.0182
v 0.4808 0.8300 0.0182
v 0.4946 0.8547 0.0193
v 1.2530 0.3852 0.0001
v 1.2337 0.5253 0.0033
v 1.2392 0.5061 0.0029
v 1.2447 0.4869 0.0024
v 1.2502 0.4677 0.0020
v 1.2557 0.4484 0.0016
v 1.2612 0.4292 0.0011
v 1.2667 0.4100 0.0009
v 1.2777 0.3715 0.0004
v 1.2832 0.3523 0.0002
v 1.2887 0.3331 -0.0000
v 1.2942 0.3138 -0.0001
v 1.2997 0.2946 -0.0003
v 1.3052 0.2754 -0.0004
v 1.3107 0.2561 -0.0005
v 1.2474 0.5501 0.0040
v 1.2667 0.5556 0.0043
v 1.2804 0.5803 0.0050
v 1.2941 0.6050 0.0059
v 1.3133 0.6105 0.0064
v 1.3326 0.6160 0.0069
v 1.3518 0.6215 0.0074
v 1.3710 0.6270 0.0079
v 1.3902 0.6325 0.0083
v 1.4095 0.6380 0.0088
v 1.4287 0.6435 0.0092
v 1.4479 0.6491 0.0097
v 1.4617 0.6738 0.0104
v -0.6753 -0.1458 -0.0223
v -0.6698 -0.1650 -0.0231
v -0.6643 -0.1843 -0.0238
v -0.7001 0.0135 -0.0159
v -0.6946 -0.0057 -0.0168
v -0.6891 -0.0249 -0.0176
v -0.6836 -0.0442 -0.0184
v -0.6781 -0.0634 -0.0191
v -0.6726 -0.0826 -0.0198
v -0.6671 -0.1018 -0.0206
v -0.6616 -0.1211 -0.0213
v -3.3836 -1.1497 -0.1067
v -3.3974 -1.0288 -0.1019
v -3.3754 -1.1057 -0.1050
v -3.3699 -1.1250 -0.1057
v -3.3727 -1.0426 -0.1024
v -3.3672 -1.0618 -0.1031
v -3.3617 -1.0810 -0.1039
v -3.3425 -1.0755 -0.1035
v -3.3177 -1.0892 -0.1040
v -3.2985 -1.0837 -0.1037
v -3.2793 -1.0782 -0.1034
v -3.2545 -1.0920 -0.1038
v -3.2353 -1.0865 -0.1035
v -3.2161 -1.0810 -0.1030
v -3.1969 -1.0755 -0.1026
v -3.1776 -1.0699 -0.1021
v -3.1584 -1.0644 -0.1017
v -3.1447 -1.0397 -0.1005
v -3.1585 -0.9188 -0.0967
v -3.1530 -0.9381 -0.0973
v -3.1255 -1.0342 -0.1001
v -3.1282 -0.9518 -0.0974
v -3.1227 -0.9710 -0.0980
v -3.1172 -0.9903 -0.0985
v -3.1117 -1.0095 -0.0991
v -3.1062 -1.0287 -0.0997
v -3.0870 -1.0232 -0.0992
v -3.0678 -1.0177 -0.0988
v -3.0540 -0.9930 -0.0978
v -3.0348 -0.9875 -0.0973
v -3.0211 -0.9627 -0.0962
v -0.0708 -0.3681 -0.0299
v -0.0516 -0.3626 -0.0296
v -0.0324 -0.3571 -0.0293
v -0.0132 -0.3516 -0.0290
v 0.0061 -0.3461 -0.0287
v 0.0033 -0.2636 -0.0258
v 0.0088 -0.2829 -0.0265
v 0.0253 -0.3406 -0.0285
v 0.0335 -0.2966 -0.0269
v 0.0390 -0.3158 -0.0276
v 0.0500 -0.3543 -0.0289
v 0.0555 -0.3735 -0.0296
v 0.0610 -0.3927 -0.0303
v -1.4086 -0.7093 -0.0533
v -1.4031 -0.7285 -0.0542
v -1.3976 -0.7478 -0.0552
v -1.3921 -0.7670 -0.0559
v -1.3866 -0.7862 -0.0566
v -1.3811 -0.8054 -0.0573
v -1.3756 -0.8247 -0.0580
v -1.3508 -0.8384 -0.0582
v -1.3261 -0.8521 -0.0585
v -1.3069 -0.8466 -0.0582
v -1.3014 -0.8658 -0.0590
v -1.2932 -0.8219 -0.0571
v -1.2766 -0.8796 -0.0594
v -1.2711 -0.8988 -0.0602
v -1.2464 -0.9125 -0.0606
v -1.2409 -0.9318 -0.0615
v -1.2162 -0.9455 -0.0620
v -1.2107 -0.9647 -0.0628
v -1.1859 -0.9784 -0.0634
v -1.1612 -0.9922 -0.0639
v -1.1365 -1.0059 -0.0647
v -1.1118 -1.0196 -0.0655
v -1.0925 -1.0141 -0.0653
v -1.0733 -1.0086 -0.0652
v -1.0541 -1.0031 -0.0647
v -1.0348 -0.9976 -0.0642
v -1.0211 -0.9729 -0.0627
v -3.3286 -1.3420 -0.1134
v -3.3231 -1.3612 -0.1141
v -3.3176 -1.3804 -0.1149
v -3.3121 -1.3997 -0.1157
v -3.2874 -1.4134 -0.1162
v -3.2819 -1.4326 -0.1170
v -3.2764 -1.4519 -0.1179
v -3.2516 -1.4656 -0.1184
v -3.2461 -1.4848 -0.1192
v -3.2214 -1.4985 -0.1196
v -3.2022 -1.4930 -0.1192
v -3.1829 -1.4875 -0.1187
v -3.1637 -1.4820 -0.1182
v -3.1390 -1.4957 -0.1185
v -3.1335 -1.5150 -0.1193
v -3.1088 -1.5287 -0.1196
v -3.0840 -1.5424 -0.1199
v -3.0648 -1.5369 -0.1194
v -3.0511 -1.5122 -0.1181
v -3.0318 -1.5067 -0.1176
v -3.0126 -1.5012 -0.1171
v -2.9989 -1.4765 -0.1159
v 1.8658 0.0613 0.0140
v 1.8713 0.0421 0.0139
v 1.8933 -0.0348 0.0136
v 1.8988 -0.0540 0.0135
v 1.8960 0.0284 0.0148
v 1.9015 0.0091 0.0147
v 1.9070 -0.0101 0.0146
v 1.9235 -0.0678 0.0140
v 1.9290 -0.0870 0.0138
v 1.9537 -0.1007 0.0142
v 0.9979 -0.5407 -0.0242
v 1.0859 -0.8483 -0.0295
v 1.0226 -0.5544 -0.0241
v 1.1052 -0.8428 -0.0288
v 1.0474 -0.5681 -0.0239
v 1.1244 -0.8373 -0.0282
v 1.0666 -0.5626 -0.0234
v 1.1381 -0.8126 -0.0273
v 1.0858 -0.5571 -0.0229
v 1.1574 -0.8071 -0.0267
v 1.1105 -0.5709 -0.0227
v 1.1766 -0.8016 -0.0261
v 1.1298 -0.5654 -0.0222
v 1.1353 -0.5846 -0.0225
v 1.1408 -0.6038 -0.0228
v 1.1463 -0.6230 -0.0230
v 1.1518 -0.6423 -0.0233
v 1.1573 -0.6615 -0.0236
v 1.1628 -0.6807 -0.0239
v 1.1683 -0.6999 -0.0242
v 1.1738 -0.7192 -0.0245
v 1.1793 -0.7384 -0.0247
v 1.1848 -0.7576 -0.0250
v 1.1903 -0.7769 -0.0252
v 1.1435 -0.5406 -0.0214
v 1.1572 -0.5159 -0.0205
v 1.1710 -0.4912 -0.0196
v 1.1902 -0.4857 -0.0190
v 1.2094 -0.4802 -0.0184
v 1.2286 -0.4747 -0.0177
v 1.2424 -0.4499 -0.0169
v 1.2616 -0.4444 -0.0163
v 1.2753 -0.4197 -0.0154
v 1.5692 -0.3564 -0.0050
v 1.5885 -0.3509 -0.0042
v 1.6077 -0.3454 -0.0033
v 1.6269 -0.3399 -0.0025
v 1.6462 -0.3344 -0.0017
v 1.6654 -0.3289 -0.0007
v 1.6846 -0.3234 0.0002
v 1.7038 -0.3179 0.0011
v 1.7231 -0.3124 0.0020
v 1.7423 -0.3069 0.0030
v 1.7615 -0.3013 0.0038
v 1.7807 -0.2958 0.0046
v 1.7945 -0.2711 0.0057
v -0.3013 -1.0165 -0.0560
v -0.2958 -1.0357 -0.0566
v -0.2903 -1.0550 -0.0572
v -0.2848 -1.0742 -0.0578
v -0.2793 -1.0934 -0.0585
v -0.2738 -1.1127 -0.0591
v -0.2683 -1.1319 -0.0597
v -0.2628 -1.1511 -0.0603
v -0.2573 -1.1703 -0.0608
v -0.2876 -0.9918 -0.0550
v -1.0235 -1.7641 -0.0923
v -1.0043 -1.7586 -0.0923
v -0.9851 -1.7531 -0.0923
v -0.9658 -1.7476 -0.0923
v -0.9466 -1.7421 -0.0923
v -0.9274 -1.7366 -0.0924
v -0.9082 -1.7310 -0.0924
v -0.9274 -1.5909 -0.0909
v -0.9219 -1.6102 -0.0911
v -0.8889 -1.7255 -0.0924
v -0.8559 -1.8409 -0.0945
v -0.8174 -1.9755 -0.0984
v -0.8972 -1.6239 -0.0913
v -0.8917 -1.6431 -0.0914
v -0.8697 -1.7200 -0.0924
v -0.8477 -1.7970 -0.0938
v -0.8422 -1.8162 -0.0941
v -0.7982 -1.9700 -0.0982
v -0.8670 -1.6569 -0.0916
v -0.8615 -1.6761 -0.0919
v -0.8560 -1.6953 -0.0922
v -0.8505 -1.7145 -0.0925
v -0.8340 -1.7722 -0.0934
v -0.7844 -1.9453 -0.0978
v -0.8312 -1.7090 -0.0925
v -0.8257 -1.7283 -0.0928
v -0.8202 -1.7475 -0.0931
v -0.8147 -1.7667 -0.0935
v -0.7652 -1.9398 -0.0975
v -0.8120 -1.7035 -0.0925
v -0.7955 -1.7612 -0.0935
v -0.7460 -1.9343 -0.0971
v -0.7983 -1.6788 -0.0922
v -0.7708 -1.7749 -0.0938
v -0.7268 -1.9288 -0.0968
v -0.7846 -1.6541 -0.0919
v -0.7460 -1.7887 -0.0940
v -0.7075 -1.9233 -0.0964
v -0.7213 -1.8024 -0.0943
v -0.7158 -1.8216 -0.0945
v -0.7103 -1.8409 -0.0948
v -0.7048 -1.8601 -0.0951
v -0.6993 -1.8793 -0.0954
v -0.6938 -1.8985 -0.0957
v -0.6746 -1.8930 -0.0953
v -0.6553 -1.8875 -0.0950
v -0.6361 -1.8820 -0.0946
v -0.6169 -1.8765 -0.0943
v -0.5977 -1.8710 -0.0937
v -0.5729 -1.8847 -0.0933
v -0.5537 -1.8792 -0.0927
v -0.5345 -1.8737 -0.0921
v -0.5152 -1.8682 -0.0915
v -0.4960 -1.8627 -0.0906
v -0.4768 -1.8572 -0.0897
v -0.4576 -1.8517 -0.0889
v -0.4438 -1.8270 -0.0879
v -0.4686 -1.6677 -0.0818
v -0.4631 -1.6869 -0.0828
v -0.4576 -1.7061 -0.0839
v -0.4521 -1.7254 -0.0849
v -0.4466 -1.7446 -0.0853
v -0.4411 -1.7638 -0.0857
v -0.4356 -1.7830 -0.0862
v -0.4301 -1.8023 -0.0866
v -0.4191 -1.8407 -0.0871
v -0.4659 -1.6045 -0.0783
v -0.4604 -1.6237 -0.0791
v -0.4549 -1.6429 -0.0800
v -0.3944 -1.8545 -0.0863
v -0.3696 -1.8682 -0.0855
v -0.1968 -1.3818 -0.0660
v -0.1913 -1.4011 -0.0666
v -0.1748 -1.4588 -0.0684
v -0.1693 -1.4780 -0.0690
v -0.1638 -1.4972 -0.0697
v -0.1583 -1.5164 -0.0703
v -0.1528 -1.5357 -0.0710
v -0.1665 -1.4148 -0.0667
v -0.1610 -1.4340 -0.0673
v -0.1280 -1.5494 -0.0709
v -3.0508 -2.2402 -0.1507
v -3.0453 -2.2594 -0.1516
v -3.0398 -2.2787 -0.1522
v -3.0342 -2.2979 -0.1528
v -3.0287 -2.3171 -0.1534
v -3.0232 -2.3363 -0.1540
v -3.0177 -2.3556 -0.1546
v -3.0122 -2.3748 -0.1548
v -3.0067 -2.3940 -0.1551
v -2.9820 -2.4078 -0.1553
v -2.9765 -2.4270 -0.1556
v -2.9545 -2.5039 -0.1564
v -2.9490 -2.5231 -0.1566
v -2.9435 -2.5424 -0.1567
v -2.9518 -2.4407 -0.1559
v -2.9463 -2.4599 -0.1561
v -2.9408 -2.4792 -0.1563
v -2.9188 -2.5561 -0.1574
v -2.9325 -2.4352 -0.1558
v -2.8940 -2.5698 -0.1584
v -2.9188 -2.4105 -0.1553
v -2.8693 -2.5835 -0.1593
v -2.8996 -2.4050 -0.1552
v -2.8501 -2.5780 -0.1598
v -2.8804 -2.3995 -0.1551
v -2.8611 -2.3940 -0.1550
v -2.8364 -2.4077 -0.1552
v -2.8172 -2.4022 -0.1550
v -2.7979 -2.3967 -0.1547
v -2.7787 -2.3912 -0.1545
v -2.7595 -2.3857 -0.1543
v 0.3637 -1.4503 -0.0601
v 0.3692 -1.4695 -0.0605
v 0.3747 -1.4887 -0.0609
v 0.3802 -1.5080 -0.0611
v 0.3857 -1.5272 -0.0614
v 0.4132 -1.6233 -0.0621
v 0.4104 -1.5409 -0.0610
v 0.4324 -1.6178 -0.0615
v 0.4352 -1.5546 -0.0606
v 0.4407 -1.5739 -0.0608
v 0.4462 -1.5931 -0.0608
v 0.4654 -1.5876 -0.0603
v 0.4846 -1.5821 -0.0597
v 1.2345 -1.3675 -0.0353
v 1.2400 -1.3867 -0.0355
v 1.2482 -1.3428 -0.0344
v 1.2620 -1.3180 -0.0336
v 1.2757 -1.2933 -0.0328
v 1.2949 -1.2878 -0.0322
v 1.3086 -1.2631 -0.0314
v 1.3114 -1.1999 -0.0302
v 1.3169 -1.2191 -0.0305
v 1.3224 -1.2383 -0.0307
l 1 2 3 4 5 6 7 8 9 10 11 12 13 14 15 16 17 18 19 20 21 22 23 24 25 26 27 28 29 30 31 32 33 34 35 36 37 38 39 40 41 42 43 44 45 46 47 48 49 50 51 52 53 54 55 56 57 58 59 60 61 62 63 64 65 66 67 68 69 70 71 72 73 74 75 76 77 78 79 80 81 82 83 84 85 86 87 88 89 90 91 92 93 94 95 96 97 98 99 100 101 102 103 104 105 106 107 108 109 110 111 112 113 114
l 115 116 117 118 119 120 121 122 123 124 125 126 127 128 129 130 131 132 133 134 135 136 137 138 139 140 141 142 143
l 144 145 146 147 148 149 150 151 152 153 154 155 156 157 158 159 160 161 162 163 164 165 166 167 168 169 170
l 171 172 173 174 175 176 177 178 179 180 181 182
l 183 184 185 186 187 188 189 190 191 192
l 193 194 195 196 197 198 199 200 201 202 203 204 205 206
l 207 208 209 210 211 212 213 214 215 216 217 218 219 220 221 222 223 224
l 225 226 227 228 229 230 231 232 233 234 235 236 237 238 239
l 240 241 242 243 244 245 246 247 248 249 250 251 252 253 254 255 256 257 258 259 260 261 262 263 264
l 265 266 267 268 269 270 271 272 273 274
l 275 276 277 278 279 280 281 282 283 284 285
l 286 287 288 289 290 291 292 293 294 295 296 297 298 299 300 301 302
l 303 304 305 306 307 308 309 310 311 312 313 314 315 316 317 318 319 320 321 322 323 324 325 326 327 328 329 330 331 332 333 334 335 336 337 338 339 340 341
l 342 343 344 345 346 347 348 349 350 351 352 353 354 355 356 357 358
l 359 360 361 362 363 364 365 366 367 368 369 370 371 372 373 374 375 376 377 378 379 380 381 382 383 384 385 386 387 388 389
l 390 391 392 393 394 395 396 397 398 399 400 401
l 402 403 404 405 406 407 408 409 410 411 412 413 414 415 416 417 418 419 420 421 422 423
l 424 425 426 427 428 429 430 431 432 433 434 435 436 437 438 439 440 441 442 443 444 445
l 446 447 448 449 450 451 452 453 454 455 456 457 458 459 460 461 462
l 463 464 465 466 467 468 469 470 471 472 473 474 475 476 477 478 479 480 481 482 483 484 485 486 487 488 489
l 490 491 492 493 494 495 496 497 498 499 500 501 502 503 504 505 506 507 508 509 510 511 512 513 514 515 516 517 518 519 520 521 522 523 524 525 526 527 528 529 530 531 532 533 534 535 536 537 538 539 540 541 542 543 544 545 546 547 548 549 550 551 552 553 554 555 556 557 558 559 560 561 562 563 564 565 566 567 568 569 570 571 572 573 574 575 576 577 578 579 580 581 582 583 584 585 586 587 588 589 590 591 592 593 594 595 596 597 598 599 600 601 602 603 604 605 606 607 608 609 610 611 612 613 614 615 616 617 618 619 620 621 622 623 624 625 626 627 628 629 630 631 632 633 634 635 636 637 638 639 640 641 642 643 644 645 646 647 648 649 650 651 652 653 654 655 656 657 658 659 660 661 662 663 664 665 666 667 668 669 670 671 672 673 674 675 676 677 678 679 680 681 682 683 684 685 686 687 688 689 690 691 692 693 694 695 696 697 698 699 700 701 702 703 704 705 706 707 708 709 710 711 712 713 714 715 716 717 718 719 720 721 722 723 724 725 726 727 728 729 730 731 732 733 734 735 736 737 738 739 740 741 742 743 744 745 746 747 748 749 750 751 752 753 754 755 756 757 758 759 760 761 762 763 764 765 766 767 768 769 770 771 772 773 774 775 776 777 778 779 780 781 782 783 784 785 786 787 788 789 790 791 792 793 794 795 796 797 798 799 800 801 802 803 804 805 806 807 808 809 810 811 812 813 814 815 816 817 818 819 820 821 822 823 824 825 826 827 828 829 830 831 832 833 834 835 836 837 838 839 840 841 842 843 844 845 846 847 848 849 850 851 852 853 854 855 856 857 858 859 860 861 862 863 864 865 866 867 868 869 870 871 872 873 874 875 876 877 878 879 880 881 882 883 884 885 886 887 888 889 890 891 892 893 894 895 896 897 898 899 900 901 902 903 904 905 906 907 908 909 910 911 912 913 914 915 916 917 918 919 920 921 922 923 924 925 926 927 928 929 930 931 932 933 934 935 936 937 938 939 940 941 942 943 944 945 946 947 948 949 950 951 952 953 954 955 956 957 958 959 960 961 962 963 964 965 966 967 968 969 970 971 972 973 974 975 976 977 978 979 980 981 982 983 984 985 986 987 988 989 990 991 992 993 994 995 996 997 998 999 1000 1001 1002 1003 1004 1005 1006 1007 1008 1009 1010 1011 1012 1013 1014 1015 1016 1017 1018 1019 1020 1021 1022 1023 1024 1025 1026 1027 1028 1029 1030 1031 1032 1033 1034 1035 1036 1037 1038 1039 1040 1041 1042 1043 1044 1045 1046 1047 1048 1049 1050 1051 1052 1053 1054 1055 1056 1057 1058 1059 1060 1061 1062 1063 1064 1065 1066 1067 1068 1069 1070 1071 1072 1073 1074 1075 1076 1077 1078 1079 1080 1081 1082 1083 1084 1085 1086 1087 1088 1089 1090 1091 1092 1093 1094 1095 1096 1097 1098 1099 1100 1101 1102 1103 1104 1105 1106 1107 1108 1109 1110 1111 1112 1113 1114 1115 1116 1117 1118 1119 1120 1121 1122 1123 1124 1125 1126 1127 1128 1129 1130 1131 1132 1133 1134 1135 1136 1137 1138 1139 1140 1141 1142 1143 1144 1145 1146 1147 1148 1149 1150 1151 1152 1153 1154 1155 1156 1157 1158 1159 1160 1161 1162 1163 1164 1165 1166 1167 1168 1169 1170 1171 1172 1173 1174 1175 1176 1177 1178 1179 1180 1181 1182 1183 1184 1185 1186 1187 1188 1189 1190 1191 1192 1193 1194 1195 1196 1197 1198 1199 1200 1201 1202 1203 1204 1205 1206 1207 1208 1209 1210 1211 1212 1213 1214 1215 1216 1217 1218 1219 1220 1221 1222 1223 1224 1225 1226 1227 1228 1229 1230 1231 1232 1233 1234 1235 1236 1237 1238 1239 1240 1241 1242 1243 1244 1245 1246 1247 1248 1249 1250 1251 1252 1253 1254 1255 1256 1257 1258 1259 1260 1261 1262 1263 1264 1265 1266 1267 1268 1269 1270 1271 1272 1273 1274 1275 1276 1277 1278 1279 1280 1281 1282 1283 1284 1285 1286 1287 1288 1289 1290 1291 1292 1293 1294 1295 1296 1297 1298 1299 1300 1301 1302 1303 1304 1305 1306 1307 1308 1309 1310 1311 1312 1313 1314 1315 1316 1317 1318 1319 1320 1321 1322 1323 1324 1325 1326 1327 1328 1329 1330 1331 1332 1333 1334 1335 1336 1337 1338 1339 1340 1341 1342 1343 1344 1345 1346 1347 1348 1349 1350 1351 1352 1353 1354 1355 1356 1357 1358 1359 1360 1361 1362 1363 1364 1365 1366 1367 1368 1369 1370 1371 1372 1373 1374 1375 1376 1377 1378 1379 1380 1381 1382 1383 1384 1385 1386 1387 1388 1389 1390 1391 1392 1393 1394 1395 1396 1397 1398 1399 1400 1401 1402 1403 1404 1405 1406 1407 1408 1409 1410 1411 1412 1413 1414 1415 1416 1417 1418 1419 1420
l 1421 1422 1423 1424 1425 1426 1427 1428 1429 1430 1431 1432 1433 1434 1435 1436 1437 1438 1439 1440 1441 1442 1443 1444 1445 1446 1447 1448 1449 1450 1451 1452 1453 1454 1455
l 1456 1457 1458 1459 1460 1461 1462 1463 1464 1465 1466 1467 1468 1469 1470 1471 1472 1473 1474 1475
l 1476 1477 1478 1479 1480 1481 1482 1483 1484 1485 1486 1487 1488 1489 1490 1491 1492 1493 1494 1495 1496 1497 1498 1499 1500 1501 1502 1503
l 1504 1505 1506 1507 1508 1509 1510 1511 1512 1513 1514 1515 1516 1517 1518 1519 1520 1521 1522 1523 1524 1525 1526 1527 1528 1529 1530 1531 1532 1533
l 1534 1535 1536 1537 1538 1539 1540 1541 1542 1543 1544 1545 1546 1547 1548 1549 1550 1551 1552 1553 1554 1555 1556 1557 1558 1559 1560 1561 1562 1563 1564 1565 1566 1567 1568 1569 1570
l 1571 1572 1573 1574 1575 1576 1577 1578 1579 1580 1581 1582 1583 1584 1585 1586 1587 1588
l 1589 1590 1591 1592 1593 1594 1595 1596 1597 1598
l 1599 1600 1601 1602 1603 1604 1605 1606 1607 1608 1609
l 1610 1611 1612 1613 1614 1615 1616 1617 1618 1619 1620 1621 1622 1623
l 1624 1625 1626 1627 1628 1629 1630 1631 1632 1633 1634 1635 1636 1637 1638 1639 1640 1641 1642
l 1643 1644 1645 1646 1647 1648 1649 1650 1651 1652 1653 1654 1655 1656 1657
l 1658 1659 1660 1661 1662 1663 1664 1665 1666 1667 1668 1669 1670 1671 1672 1673 1674 1675 1676 1677 1678
l 1679 1680 1681 1682 1683 1684 1685 1686 1687 1688 1689 1690 1691 1692 1693 1694 1695 1696 1697 1698 1699 1700 1701 1702 1703 1704 1705 1706 1707 1708
l 1709 1710 1711 1712 1713 1714 1715 1716 1717 1718 1719 1720 1721 1722 1723 1724 1725 1726 1727 1728 1729 1730
l 1731 1732 1733 1734 1735 1736 1737 1738 1739 1740 1741 1742 1743 1744
l 1745 1746 1747 1748 1749 1750 1751 1752 1753 1754 1755
l 1756 1757 1758 1759 1760 1761 1762 1763 1764 1765 1766 1767 1768 1769 1770 1771 1772
l 1773 1774 1775 1776 1777 1778 1779 1780 1781 1782 1783 1784
l 1785 1786 1787 1788 1789 1790 1791 1792 1793 1794 1795 1796
l 1797 1798 1799 1800 1801 1802 1803 1804 1805 1806 1807 1808 1809 1810 1811 1812 1813 1814 1815 1816 1817 1818 1819 1820 1821 1822 1823
l 1824 1825 1826 1827 1828 1829 1830 1831 1832 1833 1834 1835 1836 1837 1838 1839 1840 1841 1842 1843 1844 1845 1846 1847 1848
l 1849 1850 1851 1852 1853 1854 1855 1856 1857 1858 1859 1860 1861 1862 1863 1864 1865 1866 1867 1868 1869 1870 1871 1872
l 1873 1874 1875 1876 1877 1878 1879 1880 1881 1882
l 1883 1884 1885 1886 1887 1888 1889 1890 1891 1892 1893 1894 1895 1896 1897 1898 1899 1900
l 1901 1902 1903 1904 1905 1906 1907 1908 1909 1910 1911 1912 1913 1914 1915 1916 1917 1918 1919 1920 1921 1922
l 1923 1924 1925 1926 1927 1928 1929 1930 1931 1932 1933 1934 1935 1936 1937 1938 1939 1940 1941 1942 1943 1944 1945 1946 1947 1948 1949 1950 1951 1952 1953 1954
l 1955 1956 1957 1958 1959 1960 1961 1962 1963 1964 1965 1966 1967 1968 1969 1970
l 1971 1972 1973 1974 1975 1976 1977 1978 1979 1980
l 1981 1982 1983 1984 1985 1986 1987 1988 1989 1990 1991 1992 1993 1994 1995 1996 1997 1998 1999
l 2000 2001 2002 2003 2004 2005 2006 2007 2008 2009 2010 2011 2012 2013 2014 2015 2016 2017 2018 2019 2020 2021 2022 2023 2024 2025 2026 2027 2028 2029 2030 2031 2032 2033 2034
l 2035 2036 2037 2038 2039 2040 2041 2042 2043 2044 2045 2046 2047 2048 2049
l 2050 2051 2052 2053 2054 2055 2056 2057 2058 2059 2060 2061 2062 2063 2064 2065 2066 2067 2068 2069 2070 2071 2072 2073
l 2074 2075 2076 2077 2078 2079 2080 2081 2082 2083 2084 2085 2086 2087 2088 2089 2090 2091 2092 2093
l 2094 2095 2096 2097 2098 2099 2100 2101 2102 2103 2104 2105 2106 2107 2108 2109 2110 2111 2112 2113 2114 2115 2116 2117 2118 2119 2120
l 2121 2122 2123 2124 2125 2126 2127 2128 2129 2130 2131
l 2132 2133 2134 2135 2136 2137 2138 2139 2140 2141 2142 2143 2144 2145 2146 2147 2148 2149 2150 2151 2152 2153 2154 2155 2156 2157 2158 2159
l 2160 2161 2162 2163 2164 2165 2166 2167 2168 2169 2170
l 2171 2172 2173 2174 2175 2176 2177 2178 2179 2180 2181 2182 2183 2184 2185 2186 2187 2188 2189 2190 2191 2192 2193 2194 2195 2196 2197 2198 2199 2200 2201
l 2202 2203 2204 2205 2206 2207 2208 2209 2210 2211 2212 2213 2214
l 2215 2216 2217 2218 2219 2220 2221 2222 2223 2224 2225 2226 2227 2228 2229 2230 2231 2232 2233 2234 2235 2236 2237 2238 2239 2240 2241
l 2242 2243 2244 2245 2246 2247 2248 2249 2250 2251 2252 2253 2254 2255 2256 2257 2258 2259 2260 2261 2262 2263
l 2264 2265 2266 2267 2268 2269 2270 2271 2272 2273
l 2274 2275 2276 2277 2278 2279 2280 2281 2282 2283 2284 2285 2286 2287 2288 2289 2290 2291 2292 2293 2294 2295 2296 2297 2298 2299 2300 2301 2302 2303 2304 2305 2306
l 2307 2308 2309 2310 2311 2312 2313 2314 2315 2316 2317 2318 2319
l 2320 2321 2322 2323 2324 2325 2326 2327 2328 2329
l 2330 2331 2332 2333 2334 2335 2336 2337 2338 2339 2340 2341 2342 2343 2344 2345 2346 2347 2348 2349 2350 2351 2352 2353 2354 2355 2356 2357 2358 2359 2360 2361 2362 2363 2364 2365 2366 2367 2368 2369 2370 2371 2372 2373 2374 2375 2376 2377 2378 2379 2380 2381 2382 2383 2384 2385 2386 2387 2388 2389 2390 2391 2392 2393 2394 2395 2396 2397 2398 2399 2400
l 2401 2402 2403 2404 2405 2406 2407 2408 2409 2410
l 2411 2412 2413 2414 2415 2416 2417 2418 2419 2420 2421 2422 2423 2424 2425 2426 2427 2428 2429 2430 2431 2432 2433 2434 2435 2436 2437 2438 2439 2440 2441
l 2442 2443 2444 2445 2446 2447 2448 2449 2450 2451 2452 2453 2454
l 2455 2456 2457 2458 2459 2460 2461 2462 2463 2464
