# Block A field-sketch surface fractures, chained, on the DEM, bench frame metres
o sketch_cracks_A
v -1.8960 0.3796 -0.0107
v -1.8938 0.3501 -0.0120
v -1.8918 0.2997 -0.0142
v -1.8915 0.2478 -0.0164
v -1.8966 0.1964 -0.0184
v -1.9063 0.1468 -0.0205
v -1.9127 -0.0891 -0.0311
v -1.8937 -0.1190 -0.0321
v -1.8697 -0.1631 -0.0336
v -1.8913 -0.2109 -0.0363
v -1.8937 -0.2646 -0.0390
v -1.9085 -0.3146 -0.0416
v -1.9233 -0.3646 -0.0443
v -1.9099 -0.6042 -0.0569
v -1.9100 -0.6146 -0.0576
v -1.9090 -0.6653 -0.0609
v -1.9051 -0.7151 -0.0644
v -1.9114 -0.7658 -0.0692
v -1.9302 -1.0021 -0.0964
v -1.9290 -1.0351 -0.0990
v -1.9363 -1.0860 -0.1031
v -1.9429 -1.1358 -0.1057
v -1.9186 -1.4024 -0.1042
v -1.9094 -1.4455 -0.1033
v -1.9014 -1.4952 -0.1024
v -1.8893 -1.5448 -0.1018
v -1.8851 -1.5956 -0.1018
v -1.8769 -1.6463 -0.1019
v -1.8613 -1.7771 -0.1049
v -1.8609 -1.7894 -0.1053
v -1.8618 -1.8407 -0.1076
v -1.8586 -1.8918 -0.1104
v -1.8526 -1.9420 -0.1132
v -1.8455 -1.9920 -0.1158
v 1.4350 1.7593 0.0627
v 1.4117 1.7641 0.0631
v 1.3654 1.7842 0.0644
v 1.3164 1.7993 0.0656
v 1.2664 1.8141 0.0667
v 1.2201 1.8341 0.0679
v 1.1688 1.8569 0.0692
v 1.1264 1.8780 0.0705
v 1.0801 1.8981 0.0717
v 1.0338 1.9181 0.0729
v 0.9836 1.9370 0.0740
v 0.9346 1.9521 0.0750
v 0.6607 2.0589 0.0796
v 0.6409 2.0626 0.0796
v 0.5913 2.0868 0.0806
v 0.5458 2.1113 0.0814
v 0.5017 2.1455 0.0827
v 0.4535 2.1649 0.0835
v 0.4042 2.1883 0.0843
v 0.3536 2.1977 0.0844
v 0.2810 2.2477 0.0866
v 0.2544 2.2682 0.0876
v 0.1979 2.2655 0.0874
v 0.1445 2.2742 0.0878
v 0.0949 2.2912 0.0886
v 0.0453 2.3082 0.0891
v -0.0080 2.3200 0.0894
v -0.2075 2.4210 0.0931
v -0.2573 2.4317 0.0934
v -0.3076 2.4329 0.0933
v -0.3613 2.4498 0.0933
v -0.3968 2.4719 0.0935
v -1.1597 -1.9570 -0.1004
v -1.1733 -1.9057 -0.0984
v -1.1823 -1.8563 -0.0965
v -1.1922 -1.8071 -0.0947
v -1.2861 -1.4970 -0.0863
v -1.3021 -1.4485 -0.0854
v -1.3180 -1.4000 -0.0847
v -1.3286 -1.3594 -0.0840
v -1.4111 -1.1365 -0.0754
v -1.4220 -1.0876 -0.0724
v -1.4347 -1.0361 -0.0696
v -1.4436 -0.9866 -0.0669
v -1.4471 -0.9783 -0.0665
v -1.4729 -0.8952 -0.0625
v -1.4747 -0.8926 -0.0624
v -1.4988 -0.8485 -0.0607
v -1.5143 -0.7978 -0.0587
v -1.5233 -0.7484 -0.0561
v -1.5287 -0.6605 -0.0513
v -1.5362 -0.6304 -0.0502
v -1.5573 -0.5823 -0.0485
v -1.5786 -0.5333 -0.0468
v -1.6025 -0.4860 -0.0451
v -1.6235 -0.4380 -0.0430
v -1.6475 -0.3907 -0.0410
v -1.6543 -0.3813 -0.0407
v -1.6800 -0.3387 -0.0392
v -1.7086 -0.2969 -0.0376
v -1.7448 -0.2615 -0.0362
v -1.7856 -0.2316 -0.0353
v -1.8247 -0.2001 -0.0346
v -1.8595 -0.1623 -0.0333
v -1.8668 -0.1623 -0.0335
v -4.5153 1.8487 0.0000
v -4.4678 1.8716 0.0000
v -4.3732 2.1701 0.0142
v -4.3289 2.1932 0.0155
v -4.2867 2.2240 0.0170
v -4.2495 2.2576 0.0185
v -4.2071 2.2874 0.0199
v -4.1660 2.3220 0.0208
v -4.1317 2.3620 0.0216
v -4.0967 2.4032 0.0218
v -4.0617 2.4445 0.0220
v -4.0208 2.4759 0.0211
v -3.9838 2.5104 0.0202
v -3.9746 2.5183 0.0200
v -3.9025 2.5826 0.0205
v -3.8592 2.6127 0.0228
v -3.8147 2.6389 0.0286
v -3.7758 2.6740 0.0331
v -3.7645 2.6782 0.0338
v -3.6911 2.7305 0.0388
v -3.6525 2.7665 0.0408
v -3.6136 2.8015 0.0428
v -3.6000 2.8158 0.0433
v -0.7166 2.9534 0.0997
v -0.6949 2.9212 0.0998
v -0.6630 2.8824 0.1001
v -0.6336 2.8378 0.0995
v -0.6080 2.7921 0.0988
v -0.5723 2.7545 0.0990
v -0.5424 2.7079 0.0983
v -0.5149 2.6627 0.0976
v -0.4791 2.6251 0.0974
v -0.4460 2.5857 0.0966
v -0.4224 2.5394 0.0951
v -0.4032 2.4908 0.0940
v -0.4476 2.4677 0.0924
v -0.4986 2.4531 0.0909
v -0.5410 2.4233 0.0873
v -0.5848 2.3983 0.0836
v -0.8983 2.2982 0.0768
v -0.9499 2.2855 0.0763
v -1.0004 2.2804 0.0759
v -1.0459 2.2757 0.0755
v 0.5888 -1.4337 -0.0544
v 0.6403 -1.4210 -0.0529
v 0.6906 -1.4150 -0.0517
v 0.7436 -1.4112 -0.0502
v 0.7733 -1.4059 -0.0493
v 0.8763 -1.3806 -0.0458
v 0.9296 -1.3705 -0.0440
v 0.9796 -1.3562 -0.0422
v 1.0146 -1.3150 -0.0406
v 1.0284 -1.2652 -0.0394
v 1.0204 -1.2155 -0.0389
v 1.0240 -1.1625 -0.0379
v 1.0237 -1.1106 -0.0367
v 1.0201 -1.0908 -0.0364
v 0.9972 -0.9236 -0.0336
v 0.9861 -0.8738 -0.0327
v 0.9844 -0.8243 -0.0315
v 0.9865 -0.7915 -0.0306
v 0.9984 -0.6622 -0.0276
v 1.0003 -0.6107 -0.0260
v 1.0081 -0.5617 -0.0245
v 1.0005 -0.5316 -0.0239
v -1.9122 0.9086 0.0111
v -1.9204 0.9593 0.0131
v -1.9251 1.0120 0.0153
v -1.9283 1.0194 0.0155
v -1.9063 1.3242 0.0277
v -1.9021 1.3785 0.0299
v -1.9019 1.4326 0.0320
v -1.9064 1.4844 0.0338
v -1.9079 1.5370 0.0357
v -1.9093 1.5418 0.0358
v -1.8694 1.6895 0.0420
v -1.8643 1.7409 0.0441
v -1.8678 1.7929 0.0460
v -1.8756 1.8458 0.0476
v -1.8852 1.8940 0.0489
v -2.4837 2.0879 0.0406
v -2.4720 2.0506 0.0398
v -2.4514 2.0004 0.0387
v -2.4372 1.9472 0.0374
v -2.4230 1.8941 0.0361
v -2.4150 1.8443 0.0346
v -2.4462 1.8042 0.0325
v -2.4914 1.7767 0.0306
v -2.5399 1.7608 0.0287
v -2.5890 1.7436 0.0268
v -2.6416 1.7493 0.0223
v -2.7912 1.6576 0.0136
v -2.8072 1.6593 0.0136
v -2.8556 1.6392 0.0129
v -2.9052 1.6198 0.0120
v -2.9535 1.5998 0.0111
v -3.0054 1.6140 0.0110
v -0.5940 3.0884 0.1107
v -0.5957 3.0578 0.1096
v -0.6114 3.0075 0.1072
v -0.6607 2.9871 0.1048
v -0.7088 2.9661 0.1007
v -0.7584 2.9613 0.0975
v -0.8128 2.9550 0.0972
v -1.0835 2.8942 0.0967
v -1.0873 2.8931 0.0967
v -1.1375 2.8829 0.0961
v -1.1865 2.8689 0.0948
v -1.2343 2.8542 0.0934
v -1.2854 2.8364 0.0917
v -1.3357 2.8231 0.0901
v 0.1122 3.2447 0.1290
v 0.1629 3.2603 0.1300
v 0.2107 3.2750 0.1309
v 0.2608 3.2852 0.1314
v 0.3100 3.2951 0.1317
v 0.3489 3.3229 0.1325
v 0.6472 3.3926 0.1325
v 0.6957 3.4086 0.1328
v 0.7439 3.4255 0.1336
v 0.7900 3.4460 0.1345
v 0.8107 3.4644 0.1353
v -1.0800 2.3731 0.0790
v -1.0758 2.3587 0.0784
v -1.0567 2.3100 0.0767
v -1.0647 2.2578 0.0746
v -1.1079 2.2309 0.0734
v -1.1500 2.2033 0.0724
v -1.2804 2.1358 0.0689
v -1.2946 2.1307 0.0685
v -1.3424 2.1160 0.0673
v -1.3888 2.0964 0.0659
v -1.4392 2.0872 0.0647
v -1.9549 1.9157 0.0481
v -1.9053 1.8987 0.0486
v -1.8722 1.9394 0.0507
v -1.8577 1.9903 0.0528
v -1.8620 2.0453 0.0546
v -1.8756 2.0965 0.0558
v -1.8911 2.1472 0.0570
v -1.9076 2.1976 0.0582
v -1.9232 2.2483 0.0595
v -1.9328 2.2674 0.0598
v -3.4438 2.9313 0.0476
v -3.4779 2.6687 0.0423
v -3.4473 2.7108 0.0442
v -3.4338 2.7583 0.0456
v -2.6507 2.9876 0.0641
v -2.6016 2.9798 0.0649
v -2.5500 2.9884 0.0662
v -2.5033 3.0142 0.0678
v -2.4536 3.0295 0.0690
v -2.4131 3.0588 0.0704
l 1 2 3 4 5 6 7 8 9 10 11 12 13 14 15 16 17 18 19 20 21 22 23 24 25 26 27 28 29 30 31 32 33 34
l 35 36 37 38 39 40 41 42 43 44 45 46 47 48 49 50 51 52 53 54 55 56 57 58 59 60 61 62 63 64 65 66
l 67 68 69 70 71 72 73 74 75 76 77 78 79 80 81 82 83 84 85 86 87 88 89 90 91 92 93 94 95 96 97 98 99
l 100 101 102 103 104 105 106 107 108 109 110 111 112 113 114 115 116 117 118 119 120 121 122
l 123 124 125 126 127 128 129 130 131 132 133 134 135 136 137 138 139 140 141 142
l 143 144 145 146 147 148 149 150 151 152 153 154 155 156 157 158 159 160 161 162 163 164
l 165 166 167 168 169 170 171 172 173 174 175 176 177 178 179
l 180 181 182 183 184 185 186 187 188 189 190 191 192 193 194 195 196
l 197 198 199 200 201 202 203 204 205 206 207 208 209 210
l 211 212 213 214 215 216 217 218 219 220 221
l 222 223 224 225 226 227 228 229 230 231 232
l 233 234 235 236 237 238 239 240 241 242
l 243 244 245 246
l 247 248 249 250 251 252
