0
SECTION
2
ENTITIES
0
3DFACE
8
A2
10
0.000
20
40.000
30
-37.9178
11
10.000
21
40.000
31
-37.9715
12
10.000
22
50.000
32
-42.0108
13
0.000
23
50.000
33
-41.9571
0
3DFACE
8
A2
10
10.000
20
40.000
30
-37.9715
11
20.000
21
40.000
31
-38.0431
12
20.000
22
50.000
32
-42.0824
13
10.000
23
50.000
33
-42.0108
0
3DFACE
8
A2
10
20.000
20
40.000
30
-38.0431
11
30.000
21
40.000
31
-38.1326
12
30.000
22
50.000
32
-42.1719
13
20.000
23
50.000
33
-42.0824
0
3DFACE
8
A2
10
30.000
20
40.000
30
-38.1326
11
40.000
21
40.000
31
-38.2221
12
40.000
22
50.000
32
-42.2614
13
30.000
23
50.000
33
-42.1719
0
3DFACE
8
A2
10
40.000
20
40.000
30
-38.2221
11
50.000
21
40.000
31
-38.3116
12
50.000
22
50.000
32
-42.3509
13
40.000
23
50.000
33
-42.2614
0
3DFACE
8
A2
10
50.000
20
40.000
30
-38.3116
11
60.000
21
40.000
31
-38.4011
12
60.000
22
50.000
32
-42.5881
13
50.000
23
50.000
33
-42.3509
0
3DFACE
8
A2
10
60.000
20
40.000
30
-38.4011
11
70.000
21
40.000
31
-38.4906
12
70.000
22
50.000
32
-42.7998
13
60.000
23
50.000
33
-42.5881
0
3DFACE
8
A2
10
70.000
20
40.000
30
-38.4906
11
80.000
21
40.000
31
-38.5801
12
80.000
22
50.000
32
-42.9859
13
70.000
23
50.000
33
-42.7998
0
3DFACE
8
A2
10
80.000
20
40.000
30
-38.5801
11
90.000
21
40.000
31
-38.6696
12
90.000
22
50.000
32
-43.1464
13
80.000
23
50.000
33
-42.9859
0
3DFACE
8
A2
10
90.000
20
40.000
30
-38.6696
11
100.000
21
40.000
31
-38.7591
12
100.000
22
50.000
32
-43.2813
13
90.000
23
50.000
33
-43.1464
0
3DFACE
8
A2
10
100.000
20
40.000
30
-38.7591
11
110.000
21
40.000
31
-38.8486
12
110.000
22
50.000
32
-43.2429
13
100.000
23
50.000
33
-43.2813
0
3DFACE
8
A2
10
110.000
20
40.000
30
-38.8486
11
120.000
21
40.000
31
-38.9381
12
120.000
22
50.000
32
-43.2045
13
110.000
23
50.000
33
-43.2429
0
3DFACE
8
A2
10
120.000
20
40.000
30
-38.9381
11
130.000
21
40.000
31
-39.1489
12
130.000
22
50.000
32
-43.3140
13
120.000
23
50.000
33
-43.2045
0
3DFACE
8
A2
10
130.000
20
40.000
30
-39.1489
11
140.000
21
40.000
31
-39.3341
12
140.000
22
50.000
32
-43.4286
13
130.000
23
50.000
33
-43.3140
0
3DFACE
8
A2
10
140.000
20
40.000
30
-39.3341
11
150.000
21
40.000
31
-39.4937
12
150.000
22
50.000
32
-43.5485
13
140.000
23
50.000
33
-43.4286
0
3DFACE
8
A2
10
150.000
20
40.000
30
-39.4937
11
160.000
21
40.000
31
-39.6423
12
160.000
22
50.000
32
-43.7122
13
150.000
23
50.000
33
-43.5485
0
3DFACE
8
A2
10
160.000
20
40.000
30
-39.6423
11
170.000
21
40.000
31
-39.7960
12
170.000
22
50.000
32
-43.9301
13
160.000
23
50.000
33
-43.7122
0
3DFACE
8
A2
10
170.000
20
40.000
30
-39.7960
11
180.000
21
40.000
31
-39.8551
12
180.000
22
50.000
32
-44.0624
13
170.000
23
50.000
33
-43.9301
0
3DFACE
8
A2
10
180.000
20
40.000
30
-39.8551
11
190.000
21
40.000
31
-40.0704
12
190.000
22
50.000
32
-44.3537
13
180.000
23
50.000
33
-44.0624
0
3DFACE
8
A2
10
190.000
20
40.000
30
-40.0704
11
200.000
21
40.000
31
-40.3041
12
200.000
22
50.000
32
-44.6547
13
190.000
23
50.000
33
-44.3537
0
3DFACE
8
A2
10
200.000
20
40.000
30
-40.3041
11
210.000
21
40.000
31
-40.5316
12
210.000
22
50.000
32
-44.9266
13
200.000
23
50.000
33
-44.6547
0
3DFACE
8
A2
10
210.000
20
40.000
30
-40.5316
11
220.000
21
40.000
31
-40.7070
12
220.000
22
50.000
32
-45.1488
13
210.000
23
50.000
33
-44.9266
0
3DFACE
8
A2
10
220.000
20
40.000
30
-40.7070
11
230.000
21
40.000
31
-40.8220
12
230.000
22
50.000
32
-45.2959
13
220.000
23
50.000
33
-45.1488
0
3DFACE
8
A2
10
230.000
20
40.000
30
-40.8220
11
240.000
21
40.000
31
-40.7993
12
240.000
22
50.000
32
-45.2786
13
230.000
23
50.000
33
-45.2959
0
3DFACE
8
A2
10
240.000
20
40.000
30
-40.7993
11
250.000
21
40.000
31
-40.7774
12
250.000
22
50.000
32
-45.2623
13
240.000
23
50.000
33
-45.2786
0
3DFACE
8
A2
10
250.000
20
40.000
30
-40.7774
11
260.000
21
40.000
31
-40.6972
12
260.000
22
50.000
32
-45.1002
13
250.000
23
50.000
33
-45.2623
0
3DFACE
8
A2
10
260.000
20
40.000
30
-40.6972
11
270.000
21
40.000
31
-40.6734
12
270.000
22
50.000
32
-44.8878
13
260.000
23
50.000
33
-45.1002
0
3DFACE
8
A2
10
270.000
20
40.000
30
-40.6734
11
280.000
21
40.000
31
-40.6930
12
280.000
22
50.000
32
-44.7286
13
270.000
23
50.000
33
-44.8878
0
3DFACE
8
A2
10
280.000
20
40.000
30
-40.6930
11
290.000
21
40.000
31
-40.7213
12
290.000
22
50.000
32
-44.6284
13
280.000
23
50.000
33
-44.7286
0
3DFACE
8
A2
10
290.000
20
40.000
30
-40.7213
11
300.000
21
40.000
31
-40.8667
12
300.000
22
50.000
32
-44.7645
13
290.000
23
50.000
33
-44.6284
0
3DFACE
8
A2
10
300.000
20
40.000
30
-40.8667
11
310.000
21
40.000
31
-41.1463
12
310.000
22
50.000
32
-45.1566
13
300.000
23
50.000
33
-44.7645
0
3DFACE
8
A2
10
310.000
20
40.000
30
-41.1463
11
320.000
21
40.000
31
-41.4092
12
320.000
22
50.000
32
-45.6090
13
310.000
23
50.000
33
-45.1566
0
3DFACE
8
A2
10
320.000
20
40.000
30
-41.4092
11
330.000
21
40.000
31
-41.5600
12
330.000
22
50.000
32
-45.9409
13
320.000
23
50.000
33
-45.6090
0
3DFACE
8
A2
10
330.000
20
40.000
30
-41.5600
11
340.000
21
40.000
31
-41.6966
12
340.000
22
50.000
32
-46.2322
13
330.000
23
50.000
33
-45.9409
0
3DFACE
8
A2
10
340.000
20
40.000
30
-41.6966
11
350.000
21
40.000
31
-41.7091
12
350.000
22
50.000
32
-46.2705
13
340.000
23
50.000
33
-46.2322
0
3DFACE
8
A2
10
350.000
20
40.000
30
-41.7091
11
360.000
21
40.000
31
-41.5812
12
360.000
22
50.000
32
-46.1146
13
350.000
23
50.000
33
-46.2705
0
3DFACE
8
A2
10
360.000
20
40.000
30
-41.5812
11
370.000
21
40.000
31
-41.4604
12
370.000
22
50.000
32
-45.9561
13
360.000
23
50.000
33
-46.1146
0
3DFACE
8
A2
10
370.000
20
40.000
30
-41.4604
11
380.000
21
40.000
31
-41.4421
12
380.000
22
50.000
32
-45.8905
13
370.000
23
50.000
33
-45.9561
0
3DFACE
8
A2
10
380.000
20
40.000
30
-41.4421
11
390.000
21
40.000
31
-41.4365
12
390.000
22
50.000
32
-45.7765
13
380.000
23
50.000
33
-45.8905
0
3DFACE
8
A2
10
390.000
20
40.000
30
-41.4365
11
400.000
21
40.000
31
-41.4443
12
400.000
22
50.000
32
-45.6892
13
390.000
23
50.000
33
-45.7765
0
3DFACE
8
A2
10
400.000
20
40.000
30
-41.4443
11
410.000
21
40.000
31
-41.5338
12
410.000
22
50.000
32
-45.6969
13
400.000
23
50.000
33
-45.6892
0
3DFACE
8
A2
10
410.000
20
40.000
30
-41.5338
11
420.000
21
40.000
31
-41.6233
12
420.000
22
50.000
32
-45.7179
13
410.000
23
50.000
33
-45.6969
0
3DFACE
8
A2
10
420.000
20
40.000
30
-41.6233
11
430.000
21
40.000
31
-41.7128
12
430.000
22
50.000
32
-45.7521
13
420.000
23
50.000
33
-45.7179
0
3DFACE
8
A2
10
430.000
20
40.000
30
-41.7128
11
440.000
21
40.000
31
-41.8023
12
440.000
22
50.000
32
-45.8416
13
430.000
23
50.000
33
-45.7521
0
3DFACE
8
A2
10
440.000
20
40.000
30
-41.8023
11
450.000
21
40.000
31
-41.8918
12
450.000
22
50.000
32
-45.9311
13
440.000
23
50.000
33
-45.8416
0
3DFACE
8
A2
10
450.000
20
40.000
30
-41.8918
11
460.000
21
40.000
31
-41.9813
12
460.000
22
50.000
32
-46.0206
13
450.000
23
50.000
33
-45.9311
0
3DFACE
8
A2
10
460.000
20
40.000
30
-41.9813
11
470.000
21
40.000
31
-42.0708
12
470.000
22
50.000
32
-46.1101
13
460.000
23
50.000
33
-46.0206
0
3DFACE
8
A2
10
470.000
20
40.000
30
-42.0708
11
480.000
21
40.000
31
-42.1603
12
480.000
22
50.000
32
-46.1996
13
470.000
23
50.000
33
-46.1101
0
3DFACE
8
A2
10
480.000
20
40.000
30
-42.1603
11
490.000
21
40.000
31
-42.2498
12
490.000
22
50.000
32
-46.2891
13
480.000
23
50.000
33
-46.1996
0
3DFACE
8
A2
10
490.000
20
40.000
30
-42.2498
11
500.000
21
40.000
31
-42.3393
12
500.000
22
50.000
32
-46.3786
13
490.000
23
50.000
33
-46.2891
0
3DFACE
8
A2
10
500.000
20
40.000
30
-42.3393
11
510.000
21
40.000
31
-42.4288
12
510.000
22
50.000
32
-46.4681
13
500.000
23
50.000
33
-46.3786
0
3DFACE
8
A2
10
510.000
20
40.000
30
-42.4288
11
520.000
21
40.000
31
-42.5183
12
520.000
22
50.000
32
-46.5577
13
510.000
23
50.000
33
-46.4681
0
3DFACE
8
A2
10
520.000
20
40.000
30
-42.5183
11
530.000
21
40.000
31
-42.6079
12
530.000
22
50.000
32
-46.6472
13
520.000
23
50.000
33
-46.5577
0
3DFACE
8
A2
10
530.000
20
40.000
30
-42.6079
11
540.000
21
40.000
31
-42.6795
12
540.000
22
50.000
32
-46.7188
13
530.000
23
50.000
33
-46.6472
0
3DFACE
8
A2
10
540.000
20
40.000
30
-42.6795
11
550.000
21
40.000
31
-42.7332
12
550.000
22
50.000
32
-46.7725
13
540.000
23
50.000
33
-46.7188
0
3DFACE
8
A2
10
0.000
20
50.000
30
-41.9571
11
10.000
21
50.000
31
-42.0108
12
10.000
22
60.000
32
-47.6682
13
0.000
23
60.000
33
-47.4914
0
3DFACE
8
A2
10
10.000
20
50.000
30
-42.0108
11
20.000
21
50.000
31
-42.0824
12
20.000
22
60.000
32
-47.8373
13
10.000
23
60.000
33
-47.6682
0
3DFACE
8
A2
10
20.000
20
50.000
30
-42.0824
11
30.000
21
50.000
31
-42.1719
12
30.000
22
60.000
32
-47.9987
13
20.000
23
60.000
33
-47.8373
0
3DFACE
8
A2
10
30.000
20
50.000
30
-42.1719
11
40.000
21
50.000
31
-42.2614
12
40.000
22
60.000
32
-48.1345
13
30.000
23
60.000
33
-47.9987
0
3DFACE
8
A2
10
40.000
20
50.000
30
-42.2614
11
50.000
21
50.000
31
-42.3509
12
50.000
22
60.000
32
-48.0961
13
40.000
23
60.000
33
-48.1345
0
3DFACE
8
A2
10
50.000
20
50.000
30
-42.3509
11
60.000
21
50.000
31
-42.5881
12
60.000
22
60.000
32
-48.2054
13
50.000
23
60.000
33
-48.0961
0
3DFACE
8
A2
10
60.000
20
50.000
30
-42.5881
11
70.000
21
50.000
31
-42.7998
12
70.000
22
60.000
32
-48.2892
13
60.000
23
60.000
33
-48.2054
0
3DFACE
8
A2
10
70.000
20
50.000
30
-42.7998
11
80.000
21
50.000
31
-42.9859
12
80.000
22
60.000
32
-48.3474
13
70.000
23
60.000
33
-48.2892
0
3DFACE
8
A2
10
80.000
20
50.000
30
-42.9859
11
90.000
21
50.000
31
-43.1464
12
90.000
22
60.000
32
-48.3878
13
80.000
23
60.000
33
-48.3474
0
3DFACE
8
A2
10
90.000
20
50.000
30
-43.1464
11
100.000
21
50.000
31
-43.2813
12
100.000
22
60.000
32
-48.4334
13
90.000
23
60.000
33
-48.3878
0
3DFACE
8
A2
10
100.000
20
50.000
30
-43.2813
11
110.000
21
50.000
31
-43.2429
12
110.000
22
60.000
32
-48.3365
13
100.000
23
60.000
33
-48.4334
0
3DFACE
8
A2
10
110.000
20
50.000
30
-43.2429
11
120.000
21
50.000
31
-43.2045
12
120.000
22
60.000
32
-48.2705
13
110.000
23
60.000
33
-48.3365
0
3DFACE
8
A2
10
120.000
20
50.000
30
-43.2045
11
130.000
21
50.000
31
-43.3140
12
130.000
22
60.000
32
-48.3830
13
120.000
23
60.000
33
-48.2705
0
3DFACE
8
A2
10
130.000
20
50.000
30
-43.3140
11
140.000
21
50.000
31
-43.4286
12
140.000
22
60.000
32
-48.5405
13
130.000
23
60.000
33
-48.3830
0
3DFACE
8
A2
10
140.000
20
50.000
30
-43.4286
11
150.000
21
50.000
31
-43.5485
12
150.000
22
60.000
32
-48.7416
13
140.000
23
60.000
33
-48.5405
0
3DFACE
8
A2
10
150.000
20
50.000
30
-43.5485
11
160.000
21
50.000
31
-43.7122
12
160.000
22
60.000
32
-48.9946
13
150.000
23
60.000
33
-48.7416
0
3DFACE
8
A2
10
160.000
20
50.000
30
-43.7122
11
170.000
21
50.000
31
-43.9301
12
170.000
22
60.000
32
-49.3067
13
160.000
23
60.000
33
-48.9946
0
3DFACE
8
A2
10
170.000
20
50.000
30
-43.9301
11
180.000
21
50.000
31
-44.0624
12
180.000
22
60.000
32
-49.5378
13
170.000
23
60.000
33
-49.3067
0
3DFACE
8
A2
10
180.000
20
50.000
30
-44.0624
11
190.000
21
50.000
31
-44.3537
12
190.000
22
60.000
32
-49.9138
13
180.000
23
60.000
33
-49.5378
0
3DFACE
8
A2
10
190.000
20
50.000
30
-44.3537
11
200.000
21
50.000
31
-44.6547
12
200.000
22
60.000
32
-50.2523
13
190.000
23
60.000
33
-49.9138
0
3DFACE
8
A2
10
200.000
20
50.000
30
-44.6547
11
210.000
21
50.000
31
-44.9266
12
210.000
22
60.000
32
-50.5547
13
200.000
23
60.000
33
-50.2523
0
3DFACE
8
A2
10
210.000
20
50.000
30
-44.9266
11
220.000
21
50.000
31
-45.1488
12
220.000
22
60.000
32
-50.8234
13
210.000
23
60.000
33
-50.5547
0
3DFACE
8
A2
10
220.000
20
50.000
30
-45.1488
11
230.000
21
50.000
31
-45.2959
12
230.000
22
60.000
32
-51.0329
13
220.000
23
60.000
33
-50.8234
0
3DFACE
8
A2
10
230.000
20
50.000
30
-45.2959
11
240.000
21
50.000
31
-45.2786
12
240.000
22
60.000
32
-51.0652
13
230.000
23
60.000
33
-51.0329
0
3DFACE
8
A2
10
240.000
20
50.000
30
-45.2786
11
250.000
21
50.000
31
-45.2623
12
250.000
22
60.000
32
-51.0955
13
240.000
23
60.000
33
-51.0652
0
3DFACE
8
A2
10
250.000
20
50.000
30
-45.2623
11
260.000
21
50.000
31
-45.1002
12
260.000
22
60.000
32
-50.9068
13
250.000
23
60.000
33
-51.0955
0
3DFACE
8
A2
10
260.000
20
50.000
30
-45.1002
11
270.000
21
50.000
31
-44.8878
12
270.000
22
60.000
32
-50.5429
13
260.000
23
60.000
33
-50.9068
0
3DFACE
8
A2
10
270.000
20
50.000
30
-44.8878
11
280.000
21
50.000
31
-44.7286
12
280.000
22
60.000
32
-50.1290
13
270.000
23
60.000
33
-50.5429
0
3DFACE
8
A2
10
280.000
20
50.000
30
-44.7286
11
290.000
21
50.000
31
-44.6284
12
290.000
22
60.000
32
-49.8799
13
280.000
23
60.000
33
-50.1290
0
3DFACE
8
A2
10
290.000
20
50.000
30
-44.6284
11
300.000
21
50.000
31
-44.7645
12
300.000
22
60.000
32
-49.9893
13
290.000
23
60.000
33
-49.8799
0
3DFACE
8
A2
10
300.000
20
50.000
30
-44.7645
11
310.000
21
50.000
31
-45.1566
12
310.000
22
60.000
32
-50.4617
13
300.000
23
60.000
33
-49.9893
0
3DFACE
8
A2
10
310.000
20
50.000
30
-45.1566
11
320.000
21
50.000
31
-45.6090
12
320.000
22
60.000
32
-51.0902
13
310.000
23
60.000
33
-50.4617
0
3DFACE
8
A2
10
320.000
20
50.000
30
-45.6090
11
330.000
21
50.000
31
-45.9409
12
330.000
22
60.000
32
-51.6717
13
320.000
23
60.000
33
-51.0902
0
3DFACE
8
A2
10
330.000
20
50.000
30
-45.9409
11
340.000
21
50.000
31
-46.2322
12
340.000
22
60.000
32
-52.1169
13
330.000
23
60.000
33
-51.6717
0
3DFACE
8
A2
10
340.000
20
50.000
30
-46.2322
11
350.000
21
50.000
31
-46.2705
12
350.000
22
60.000
32
-52.1937
13
340.000
23
60.000
33
-52.1169
0
3DFACE
8
A2
10
350.000
20
50.000
30
-46.2705
11
360.000
21
50.000
31
-46.1146
12
360.000
22
60.000
32
-52.0224
13
350.000
23
60.000
33
-52.1937
0
3DFACE
8
A2
10
360.000
20
50.000
30
-46.1146
11
370.000
21
50.000
31
-45.9561
12
370.000
22
60.000
32
-51.8388
13
360.000
23
60.000
33
-52.0224
0
3DFACE
8
A2
10
370.000
20
50.000
30
-45.9561
11
380.000
21
50.000
31
-45.8905
12
380.000
22
60.000
32
-51.7384
13
370.000
23
60.000
33
-51.8388
0
3DFACE
8
A2
10
380.000
20
50.000
30
-45.8905
11
390.000
21
50.000
31
-45.7765
12
390.000
22
60.000
32
-51.5716
13
380.000
23
60.000
33
-51.7384
0
3DFACE
8
A2
10
390.000
20
50.000
30
-45.7765
11
400.000
21
50.000
31
-45.6892
12
400.000
22
60.000
32
-51.4178
13
390.000
23
60.000
33
-51.5716
0
3DFACE
8
A2
10
400.000
20
50.000
30
-45.6892
11
410.000
21
50.000
31
-45.6969
12
410.000
22
60.000
32
-51.3591
13
400.000
23
60.000
33
-51.4178
0
3DFACE
8
A2
10
410.000
20
50.000
30
-45.6969
11
420.000
21
50.000
31
-45.7179
12
420.000
22
60.000
32
-51.3137
13
410.000
23
60.000
33
-51.3591
0
3DFACE
8
A2
10
420.000
20
50.000
30
-45.7179
11
430.000
21
50.000
31
-45.7521
12
430.000
22
60.000
32
-51.2794
13
420.000
23
60.000
33
-51.3137
0
3DFACE
8
A2
10
430.000
20
50.000
30
-45.7521
11
440.000
21
50.000
31
-45.8416
12
440.000
22
60.000
32
-51.3136
13
430.000
23
60.000
33
-51.2794
0
3DFACE
8
A2
10
440.000
20
50.000
30
-45.8416
11
450.000
21
50.000
31
-45.9311
12
450.000
22
60.000
32
-51.3611
13
440.000
23
60.000
33
-51.3136
0
3DFACE
8
A2
10
450.000
20
50.000
30
-45.9311
11
460.000
21
50.000
31
-46.0206
12
460.000
22
60.000
32
-51.4218
13
450.000
23
60.000
33
-51.3611
0
3DFACE
8
A2
10
460.000
20
50.000
30
-46.0206
11
470.000
21
50.000
31
-46.1101
12
470.000
22
60.000
32
-51.4959
13
460.000
23
60.000
33
-51.4218
0
3DFACE
8
A2
10
470.000
20
50.000
30
-46.1101
11
480.000
21
50.000
31
-46.1996
12
480.000
22
60.000
32
-51.5854
13
470.000
23
60.000
33
-51.4959
0
3DFACE
8
A2
10
480.000
20
50.000
30
-46.1996
11
490.000
21
50.000
31
-46.2891
12
490.000
22
60.000
32
-51.6749
13
480.000
23
60.000
33
-51.5854
0
3DFACE
8
A2
10
490.000
20
50.000
30
-46.2891
11
500.000
21
50.000
31
-46.3786
12
500.000
22
60.000
32
-51.7644
13
490.000
23
60.000
33
-51.6749
0
3DFACE
8
A2
10
500.000
20
50.000
30
-46.3786
11
510.000
21
50.000
31
-46.4681
12
510.000
22
60.000
32
-51.8539
13
500.000
23
60.000
33
-51.7644
0
3DFACE
8
A2
10
510.000
20
50.000
30
-46.4681
11
520.000
21
50.000
31
-46.5577
12
520.000
22
60.000
32
-51.9434
13
510.000
23
60.000
33
-51.8539
0
3DFACE
8
A2
10
520.000
20
50.000
30
-46.5577
11
530.000
21
50.000
31
-46.6472
12
530.000
22
60.000
32
-52.0329
13
520.000
23
60.000
33
-51.9434
0
3DFACE
8
A2
10
530.000
20
50.000
30
-46.6472
11
540.000
21
50.000
31
-46.7188
12
540.000
22
60.000
32
-52.1045
13
530.000
23
60.000
33
-52.0329
0
3DFACE
8
A2
10
540.000
20
50.000
30
-46.7188
11
550.000
21
50.000
31
-46.7725
12
550.000
22
60.000
32
-52.1582
13
540.000
23
60.000
33
-52.1045
0
3DFACE
8
A2
10
0.000
20
60.000
30
-47.4914
11
10.000
21
60.000
31
-47.6682
12
10.000
22
70.000
32
-54.8559
13
0.000
23
70.000
33
-54.7383
0
3DFACE
8
A2
10
10.000
20
60.000
30
-47.6682
11
20.000
21
60.000
31
-47.8373
12
20.000
22
70.000
32
-54.9462
13
10.000
23
70.000
33
-54.8559
0
3DFACE
8
A2
10
20.000
20
60.000
30
-47.8373
11
30.000
21
60.000
31
-47.9987
12
30.000
22
70.000
32
-55.0091
13
20.000
23
70.000
33
-54.9462
0
3DFACE
8
A2
10
30.000
20
60.000
30
-47.9987
11
40.000
21
60.000
31
-48.1345
12
40.000
22
70.000
32
-55.0464
13
30.000
23
70.000
33
-55.0091
0
3DFACE
8
A2
10
40.000
20
60.000
30
-48.1345
11
50.000
21
60.000
31
-48.0961
12
50.000
22
70.000
32
-54.9095
13
40.000
23
70.000
33
-55.0464
0
3DFACE
8
A2
10
50.000
20
60.000
30
-48.0961
11
60.000
21
60.000
31
-48.2054
12
60.000
22
70.000
32
-54.9203
13
50.000
23
70.000
33
-54.9095
0
3DFACE
8
A2
10
60.000
20
60.000
30
-48.2054
11
70.000
21
60.000
31
-48.2892
12
70.000
22
70.000
32
-54.9056
13
60.000
23
70.000
33
-54.9203
0
3DFACE
8
A2
10
70.000
20
60.000
30
-48.2892
11
80.000
21
60.000
31
-48.3474
12
80.000
22
70.000
32
-54.8652
13
70.000
23
70.000
33
-54.9056
0
3DFACE
8
A2
10
80.000
20
60.000
30
-48.3474
11
90.000
21
60.000
31
-48.3878
12
90.000
22
70.000
32
-54.8320
13
80.000
23
70.000
33
-54.8652
0
3DFACE
8
A2
10
90.000
20
60.000
30
-48.3878
11
100.000
21
60.000
31
-48.4334
12
100.000
22
70.000
32
-54.8289
13
90.000
23
70.000
33
-54.8320
0
3DFACE
8
A2
10
100.000
20
60.000
30
-48.4334
11
110.000
21
60.000
31
-48.3365
12
110.000
22
70.000
32
-54.7082
13
100.000
23
70.000
33
-54.8289
0
3DFACE
8
A2
10
110.000
20
60.000
30
-48.3365
11
120.000
21
60.000
31
-48.2705
12
120.000
22
70.000
32
-54.6433
13
110.000
23
70.000
33
-54.7082
0
3DFACE
8
A2
10
120.000
20
60.000
30
-48.2705
11
130.000
21
60.000
31
-48.3830
12
130.000
22
70.000
32
-54.7819
13
120.000
23
70.000
33
-54.6433
0
3DFACE
8
A2
10
130.000
20
60.000
30
-48.3830
11
140.000
21
60.000
31
-48.5405
12
140.000
22
70.000
32
-55.0017
13
130.000
23
70.000
33
-54.7819
0
3DFACE
8
A2
10
140.000
20
60.000
30
-48.5405
11
150.000
21
60.000
31
-48.7416
12
150.000
22
70.000
32
-55.2684
13
140.000
23
70.000
33
-55.0017
0
3DFACE
8
A2
10
150.000
20
60.000
30
-48.7416
11
160.000
21
60.000
31
-48.9946
12
160.000
22
70.000
32
-55.5918
13
150.000
23
70.000
33
-55.2684
0
3DFACE
8
A2
10
160.000
20
60.000
30
-48.9946
11
170.000
21
60.000
31
-49.3067
12
170.000
22
70.000
32
-55.9789
13
160.000
23
70.000
33
-55.5918
0
3DFACE
8
A2
10
170.000
20
60.000
30
-49.3067
11
180.000
21
60.000
31
-49.5378
12
180.000
22
70.000
32
-56.2895
13
170.000
23
70.000
33
-55.9789
0
3DFACE
8
A2
10
180.000
20
60.000
30
-49.5378
11
190.000
21
60.000
31
-49.9138
12
190.000
22
70.000
32
-56.7112
13
180.000
23
70.000
33
-56.2895
0
3DFACE
8
A2
10
190.000
20
60.000
30
-49.9138
11
200.000
21
60.000
31
-50.2523
12
200.000
22
70.000
32
-57.0833
13
190.000
23
70.000
33
-56.7112
0
3DFACE
8
A2
10
200.000
20
60.000
30
-50.2523
11
210.000
21
60.000
31
-50.5547
12
210.000
22
70.000
32
-57.4159
13
200.000
23
70.000
33
-57.0833
0
3DFACE
8
A2
10
210.000
20
60.000
30
-50.5547
11
220.000
21
60.000
31
-50.8234
12
220.000
22
70.000
32
-57.7307
13
210.000
23
70.000
33
-57.4159
0
3DFACE
8
A2
10
220.000
20
60.000
30
-50.8234
11
230.000
21
60.000
31
-51.0329
12
230.000
22
70.000
32
-58.0023
13
220.000
23
70.000
33
-57.7307
0
3DFACE
8
A2
10
230.000
20
60.000
30
-51.0329
11
240.000
21
60.000
31
-51.0652
12
240.000
22
70.000
32
-58.1151
13
230.000
23
70.000
33
-58.0023
0
3DFACE
8
A2
10
240.000
20
60.000
30
-51.0652
11
250.000
21
60.000
31
-51.0955
12
250.000
22
70.000
32
-58.2333
13
240.000
23
70.000
33
-58.1151
0
3DFACE
8
A2
10
250.000
20
60.000
30
-51.0955
11
260.000
21
60.000
31
-50.9068
12
260.000
22
70.000
32
-58.0736
13
250.000
23
70.000
33
-58.2333
0
3DFACE
8
A2
10
260.000
20
60.000
30
-50.9068
11
270.000
21
60.000
31
-50.5429
12
270.000
22
70.000
32
-57.6168
13
260.000
23
70.000
33
-58.0736
0
3DFACE
8
A2
10
270.000
20
60.000
30
-50.5429
11
280.000
21
60.000
31
-50.1290
12
280.000
22
70.000
32
-56.9634
13
270.000
23
70.000
33
-57.6168
0
3DFACE
8
A2
10
280.000
20
60.000
30
-50.1290
11
290.000
21
60.000
31
-49.8799
12
290.000
22
70.000
32
-56.5625
13
280.000
23
70.000
33
-56.9634
0
3DFACE
8
A2
10
290.000
20
60.000
30
-49.8799
11
300.000
21
60.000
31
-49.9893
12
300.000
22
70.000
32
-56.6274
13
290.000
23
70.000
33
-56.5625
0
3DFACE
8
A2
10
300.000
20
60.000
30
-49.9893
11
310.000
21
60.000
31
-50.4617
12
310.000
22
70.000
32
-57.1483
13
300.000
23
70.000
33
-56.6274
0
3DFACE
8
A2
10
310.000
20
60.000
30
-50.4617
11
320.000
21
60.000
31
-51.0902
12
320.000
22
70.000
32
-57.9176
13
310.000
23
70.000
33
-57.1483
0
3DFACE
8
A2
10
320.000
20
60.000
30
-51.0902
11
330.000
21
60.000
31
-51.6717
12
330.000
22
70.000
32
-58.7571
13
320.000
23
70.000
33
-57.9176
0
3DFACE
8
A2
10
330.000
20
60.000
30
-51.6717
11
340.000
21
60.000
31
-52.1169
12
340.000
22
70.000
32
-59.3432
13
330.000
23
70.000
33
-58.7571
0
3DFACE
8
A2
10
340.000
20
60.000
30
-52.1169
11
350.000
21
60.000
31
-52.1937
12
350.000
22
70.000
32
-59.4696
13
340.000
23
70.000
33
-59.3432
0
3DFACE
8
A2
10
350.000
20
60.000
30
-52.1937
11
360.000
21
60.000
31
-52.0224
12
360.000
22
70.000
32
-59.2955
13
350.000
23
70.000
33
-59.4696
0
3DFACE
8
A2
10
360.000
20
60.000
30
-52.0224
11
370.000
21
60.000
31
-51.8388
12
370.000
22
70.000
32
-59.0994
13
360.000
23
70.000
33
-59.2955
0
3DFACE
8
A2
10
370.000
20
60.000
30
-51.8388
11
380.000
21
60.000
31
-51.7384
12
380.000
22
70.000
32
-58.9769
13
370.000
23
70.000
33
-59.0994
0
3DFACE
8
A2
10
380.000
20
60.000
30
-51.7384
11
390.000
21
60.000
31
-51.5716
12
390.000
22
70.000
32
-58.7782
13
380.000
23
70.000
33
-58.9769
0
3DFACE
8
A2
10
390.000
20
60.000
30
-51.5716
11
400.000
21
60.000
31
-51.4178
12
400.000
22
70.000
32
-58.5599
13
390.000
23
70.000
33
-58.7782
0
3DFACE
8
A2
10
400.000
20
60.000
30
-51.4178
11
410.000
21
60.000
31
-51.3591
12
410.000
22
70.000
32
-58.4321
13
400.000
23
70.000
33
-58.5599
0
3DFACE
8
A2
10
410.000
20
60.000
30
-51.3591
11
420.000
21
60.000
31
-51.3137
12
420.000
22
70.000
32
-58.3148
13
410.000
23
70.000
33
-58.4321
0
3DFACE
8
A2
10
420.000
20
60.000
30
-51.3137
11
430.000
21
60.000
31
-51.2794
12
430.000
22
70.000
32
-58.2110
13
420.000
23
70.000
33
-58.3148
0
3DFACE
8
A2
10
430.000
20
60.000
30
-51.2794
11
440.000
21
60.000
31
-51.3136
12
440.000
22
70.000
32
-58.1766
13
430.000
23
70.000
33
-58.2110
0
3DFACE
8
A2
10
440.000
20
60.000
30
-51.3136
11
450.000
21
60.000
31
-51.3611
12
450.000
22
70.000
32
-58.1683
13
440.000
23
70.000
33
-58.1766
0
3DFACE
8
A2
10
450.000
20
60.000
30
-51.3611
11
460.000
21
60.000
31
-51.4218
12
460.000
22
70.000
32
-58.1898
13
450.000
23
70.000
33
-58.1683
0
3DFACE
8
A2
10
460.000
20
60.000
30
-51.4218
11
470.000
21
60.000
31
-51.4959
12
470.000
22
70.000
32
-58.2404
13
460.000
23
70.000
33
-58.1898
0
3DFACE
8
A2
10
470.000
20
60.000
30
-51.4959
11
480.000
21
60.000
31
-51.5854
12
480.000
22
70.000
32
-58.3176
13
470.000
23
70.000
33
-58.2404
0
3DFACE
8
A2
10
480.000
20
60.000
30
-51.5854
11
490.000
21
60.000
31
-51.6749
12
490.000
22
70.000
32
-58.4071
13
480.000
23
70.000
33
-58.3176
0
3DFACE
8
A2
10
490.000
20
60.000
30
-51.6749
11
500.000
21
60.000
31
-51.7644
12
500.000
22
70.000
32
-58.4966
13
490.000
23
70.000
33
-58.4071
0
3DFACE
8
A2
10
500.000
20
60.000
30
-51.7644
11
510.000
21
60.000
31
-51.8539
12
510.000
22
70.000
32
-58.5861
13
500.000
23
70.000
33
-58.4966
0
3DFACE
8
A2
10
510.000
20
60.000
30
-51.8539
11
520.000
21
60.000
31
-51.9434
12
520.000
22
70.000
32
-58.6756
13
510.000
23
70.000
33
-58.5861
0
3DFACE
8
A2
10
520.000
20
60.000
30
-51.9434
11
530.000
21
60.000
31
-52.0329
12
530.000
22
70.000
32
-58.7651
13
520.000
23
70.000
33
-58.6756
0
3DFACE
8
A2
10
530.000
20
60.000
30
-52.0329
11
540.000
21
60.000
31
-52.1045
12
540.000
22
70.000
32
-58.8367
13
530.000
23
70.000
33
-58.7651
0
3DFACE
8
A2
10
540.000
20
60.000
30
-52.1045
11
550.000
21
60.000
31
-52.1582
12
550.000
22
70.000
32
-58.8904
13
540.000
23
70.000
33
-58.8367
0
3DFACE
8
A2
10
0.000
20
70.000
30
-54.7383
11
10.000
21
70.000
31
-54.8559
12
10.000
22
80.000
32
-62.0910
13
0.000
23
80.000
33
-62.0326
0
3DFACE
8
A2
10
10.000
20
70.000
30
-54.8559
11
20.000
21
70.000
31
-54.9462
12
20.000
22
80.000
32
-62.1025
13
10.000
23
80.000
33
-62.0910
0
3DFACE
8
A2
10
20.000
20
70.000
30
-54.9462
11
30.000
21
70.000
31
-55.0091
12
30.000
22
80.000
32
-62.0668
13
20.000
23
80.000
33
-62.1025
0
3DFACE
8
A2
10
30.000
20
70.000
30
-55.0091
11
40.000
21
70.000
31
-55.0464
12
40.000
22
80.000
32
-62.0056
13
30.000
23
80.000
33
-62.0668
0
3DFACE
8
A2
10
40.000
20
70.000
30
-55.0464
11
50.000
21
70.000
31
-54.9095
12
50.000
22
80.000
32
-61.7702
13
40.000
23
80.000
33
-62.0056
0
3DFACE
8
A2
10
50.000
20
70.000
30
-54.9095
11
60.000
21
70.000
31
-54.9203
12
60.000
22
80.000
32
-61.6825
13
50.000
23
80.000
33
-61.7702
0
3DFACE
8
A2
10
60.000
20
70.000
30
-54.9203
11
70.000
21
70.000
31
-54.9056
12
70.000
22
80.000
32
-61.5692
13
60.000
23
80.000
33
-61.6825
0
3DFACE
8
A2
10
70.000
20
70.000
30
-54.9056
11
80.000
21
70.000
31
-54.8652
12
80.000
22
80.000
32
-61.4304
13
70.000
23
80.000
33
-61.5692
0
3DFACE
8
A2
10
80.000
20
70.000
30
-54.8652
11
90.000
21
70.000
31
-54.8320
12
90.000
22
80.000
32
-61.3236
13
80.000
23
80.000
33
-61.4304
0
3DFACE
8
A2
10
90.000
20
70.000
30
-54.8320
11
100.000
21
70.000
31
-54.8289
12
100.000
22
80.000
32
-61.2718
13
90.000
23
80.000
33
-61.3236
0
3DFACE
8
A2
10
100.000
20
70.000
30
-54.8289
11
110.000
21
70.000
31
-54.7082
12
110.000
22
80.000
32
-61.1274
13
100.000
23
80.000
33
-61.2718
0
3DFACE
8
A2
10
110.000
20
70.000
30
-54.7082
11
120.000
21
70.000
31
-54.6433
12
120.000
22
80.000
32
-61.0636
13
110.000
23
80.000
33
-61.1274
0
3DFACE
8
A2
10
120.000
20
70.000
30
-54.6433
11
130.000
21
70.000
31
-54.7819
12
130.000
22
80.000
32
-61.2284
13
120.000
23
80.000
33
-61.0636
0
3DFACE
8
A2
10
130.000
20
70.000
30
-54.7819
11
140.000
21
70.000
31
-55.0017
12
140.000
22
80.000
32
-61.4771
13
130.000
23
80.000
33
-61.2284
0
3DFACE
8
A2
10
140.000
20
70.000
30
-55.0017
11
150.000
21
70.000
31
-55.2684
12
150.000
22
80.000
32
-61.7774
13
140.000
23
80.000
33
-61.4771
0
3DFACE
8
A2
10
150.000
20
70.000
30
-55.2684
11
160.000
21
70.000
31
-55.5918
12
160.000
22
80.000
32
-62.1391
13
150.000
23
80.000
33
-61.7774
0
3DFACE
8
A2
10
160.000
20
70.000
30
-55.5918
11
170.000
21
70.000
31
-55.9789
12
170.000
22
80.000
32
-62.5692
13
160.000
23
80.000
33
-62.1391
0
3DFACE
8
A2
10
170.000
20
70.000
30
-55.9789
11
180.000
21
70.000
31
-56.2895
12
180.000
22
80.000
32
-62.9275
13
170.000
23
80.000
33
-62.5692
0
3DFACE
8
A2
10
180.000
20
70.000
30
-56.2895
11
190.000
21
70.000
31
-56.7112
12
190.000
22
80.000
32
-63.2738
13
180.000
23
80.000
33
-62.9275
0
3DFACE
8
A2
10
190.000
20
70.000
30
-56.7112
11
200.000
21
70.000
31
-57.0833
12
200.000
22
80.000
32
-63.5606
13
190.000
23
80.000
33
-63.2738
0
3DFACE
8
A2
10
200.000
20
70.000
30
-57.0833
11
210.000
21
70.000
31
-57.4159
12
210.000
22
80.000
32
-63.8281
13
200.000
23
80.000
33
-63.5606
0
3DFACE
8
A2
10
210.000
20
70.000
30
-57.4159
11
220.000
21
70.000
31
-57.7307
12
220.000
22
80.000
32
-64.1361
13
210.000
23
80.000
33
-63.8281
0
3DFACE
8
A2
10
220.000
20
70.000
30
-57.7307
11
230.000
21
70.000
31
-58.0023
12
230.000
22
80.000
32
-64.4206
13
220.000
23
80.000
33
-64.1361
0
3DFACE
8
A2
10
230.000
20
70.000
30
-58.0023
11
240.000
21
70.000
31
-58.1151
12
240.000
22
80.000
32
-64.6906
13
230.000
23
80.000
33
-64.4206
0
3DFACE
8
A2
10
240.000
20
70.000
30
-58.1151
11
250.000
21
70.000
31
-58.2333
12
250.000
22
80.000
32
-64.9946
13
240.000
23
80.000
33
-64.6906
0
3DFACE
8
A2
10
250.000
20
70.000
30
-58.2333
11
260.000
21
70.000
31
-58.0736
12
260.000
22
80.000
32
-65.0010
13
250.000
23
80.000
33
-64.9946
0
3DFACE
8
A2
10
260.000
20
70.000
30
-58.0736
11
270.000
21
70.000
31
-57.6168
12
270.000
22
80.000
32
-64.6339
13
260.000
23
80.000
33
-65.0010
0
3DFACE
8
A2
10
270.000
20
70.000
30
-57.6168
11
280.000
21
70.000
31
-56.9634
12
280.000
22
80.000
32
-63.7652
13
270.000
23
80.000
33
-64.6339
0
3DFACE
8
A2
10
280.000
20
70.000
30
-56.9634
11
290.000
21
70.000
31
-56.5625
12
290.000
22
80.000
32
-63.3834
13
280.000
23
80.000
33
-63.7652
0
3DFACE
8
A2
10
290.000
20
70.000
30
-56.5625
11
300.000
21
70.000
31
-56.6274
12
300.000
22
80.000
32
-63.4018
13
290.000
23
80.000
33
-63.3834
0
3DFACE
8
A2
10
300.000
20
70.000
30
-56.6274
11
310.000
21
70.000
31
-57.1483
12
310.000
22
80.000
32
-63.8440
13
300.000
23
80.000
33
-63.4018
0
3DFACE
8
A2
10
310.000
20
70.000
30
-57.1483
11
320.000
21
70.000
31
-57.9176
12
320.000
22
80.000
32
-64.5430
13
310.000
23
80.000
33
-63.8440
0
3DFACE
8
A2
10
320.000
20
70.000
30
-57.9176
11
330.000
21
70.000
31
-58.7571
12
330.000
22
80.000
32
-65.6889
13
320.000
23
80.000
33
-64.5430
0
3DFACE
8
A2
10
330.000
20
70.000
30
-58.7571
11
340.000
21
70.000
31
-59.3432
12
340.000
22
80.000
32
-66.3138
13
330.000
23
80.000
33
-65.6889
0
3DFACE
8
A2
10
340.000
20
70.000
30
-59.3432
11
350.000
21
70.000
31
-59.4696
12
350.000
22
80.000
32
-66.5211
13
340.000
23
80.000
33
-66.3138
0
3DFACE
8
A2
10
350.000
20
70.000
30
-59.4696
11
360.000
21
70.000
31
-59.2955
12
360.000
22
80.000
32
-66.4651
13
350.000
23
80.000
33
-66.5211
0
3DFACE
8
A2
10
360.000
20
70.000
30
-59.2955
11
370.000
21
70.000
31
-59.0994
12
370.000
22
80.000
32
-66.3729
13
360.000
23
80.000
33
-66.4651
0
3DFACE
8
A2
10
370.000
20
70.000
30
-59.0994
11
380.000
21
70.000
31
-58.9769
12
380.000
22
80.000
32
-66.2387
13
370.000
23
80.000
33
-66.3729
0
3DFACE
8
A2
10
380.000
20
70.000
30
-58.9769
11
390.000
21
70.000
31
-58.7782
12
390.000
22
80.000
32
-66.0177
13
380.000
23
80.000
33
-66.2387
0
3DFACE
8
A2
10
390.000
20
70.000
30
-58.7782
11
400.000
21
70.000
31
-58.5599
12
400.000
22
80.000
32
-65.7578
13
390.000
23
80.000
33
-66.0177
0
3DFACE
8
A2
10
400.000
20
70.000
30
-58.5599
11
410.000
21
70.000
31
-58.4321
12
410.000
22
80.000
32
-65.5587
13
400.000
23
80.000
33
-65.7578
0
3DFACE
8
A2
10
410.000
20
70.000
30
-58.4321
11
420.000
21
70.000
31
-58.3148
12
420.000
22
80.000
32
-65.3702
13
410.000
23
80.000
33
-65.5587
0
3DFACE
8
A2
10
420.000
20
70.000
30
-58.3148
11
430.000
21
70.000
31
-58.2110
12
430.000
22
80.000
32
-65.1951
13
420.000
23
80.000
33
-65.3702
0
3DFACE
8
A2
10
430.000
20
70.000
30
-58.2110
11
440.000
21
70.000
31
-58.1766
12
440.000
22
80.000
32
-65.0818
13
430.000
23
80.000
33
-65.1951
0
3DFACE
8
A2
10
440.000
20
70.000
30
-58.1766
11
450.000
21
70.000
31
-58.1683
12
450.000
22
80.000
32
-65.0089
13
440.000
23
80.000
33
-65.0818
0
3DFACE
8
A2
10
450.000
20
70.000
30
-58.1683
11
460.000
21
70.000
31
-58.1898
12
460.000
22
80.000
32
-64.9800
13
450.000
23
80.000
33
-65.0089
0
3DFACE
8
A2
10
460.000
20
70.000
30
-58.1898
11
470.000
21
70.000
31
-58.2404
12
470.000
22
80.000
32
-64.9945
13
460.000
23
80.000
33
-64.9800
0
3DFACE
8
A2
10
470.000
20
70.000
30
-58.2404
11
480.000
21
70.000
31
-58.3176
12
480.000
22
80.000
32
-65.0497
13
470.000
23
80.000
33
-64.9945
0
3DFACE
8
A2
10
480.000
20
70.000
30
-58.3176
11
490.000
21
70.000
31
-58.4071
12
490.000
22
80.000
32
-65.1392
13
480.000
23
80.000
33
-65.0497
0
3DFACE
8
A2
10
490.000
20
70.000
30
-58.4071
11
500.000
21
70.000
31
-58.4966
12
500.000
22
80.000
32
-65.2287
13
490.000
23
80.000
33
-65.1392
0
3DFACE
8
A2
10
500.000
20
70.000
30
-58.4966
11
510.000
21
70.000
31
-58.5861
12
510.000
22
80.000
32
-65.3182
13
500.000
23
80.000
33
-65.2287
0
3DFACE
8
A2
10
510.000
20
70.000
30
-58.5861
11
520.000
21
70.000
31
-58.6756
12
520.000
22
80.000
32
-65.4078
13
510.000
23
80.000
33
-65.3182
0
3DFACE
8
A2
10
520.000
20
70.000
30
-58.6756
11
530.000
21
70.000
31
-58.7651
12
530.000
22
80.000
32
-65.4973
13
520.000
23
80.000
33
-65.4078
0
3DFACE
8
A2
10
530.000
20
70.000
30
-58.7651
11
540.000
21
70.000
31
-58.8367
12
540.000
22
80.000
32
-65.5689
13
530.000
23
80.000
33
-65.4973
0
3DFACE
8
A2
10
540.000
20
70.000
30
-58.8367
11
550.000
21
70.000
31
-58.8904
12
550.000
22
80.000
32
-65.6226
13
540.000
23
80.000
33
-65.5689
0
3DFACE
8
A2
10
0.000
20
80.000
30
-62.0326
11
10.000
21
80.000
31
-62.0910
12
10.000
22
90.000
32
-69.2814
13
0.000
23
90.000
33
-69.3050
0
3DFACE
8
A2
10
10.000
20
80.000
30
-62.0910
11
20.000
21
80.000
31
-62.1025
12
20.000
22
90.000
32
-69.1793
13
10.000
23
90.000
33
-69.2814
0
3DFACE
8
A2
10
20.000
20
80.000
30
-62.1025
11
30.000
21
80.000
31
-62.0668
12
30.000
22
90.000
32
-68.9986
13
20.000
23
90.000
33
-69.1793
0
3DFACE
8
A2
10
30.000
20
80.000
30
-62.0668
11
40.000
21
80.000
31
-62.0056
12
40.000
22
90.000
32
-68.7801
13
30.000
23
90.000
33
-68.9986
0
3DFACE
8
A2
10
40.000
20
80.000
30
-62.0056
11
50.000
21
80.000
31
-61.7702
12
50.000
22
90.000
32
-68.3874
13
40.000
23
90.000
33
-68.7801
0
3DFACE
8
A2
10
50.000
20
80.000
30
-61.7702
11
60.000
21
80.000
31
-61.6825
12
60.000
22
90.000
32
-68.1425
13
50.000
23
90.000
33
-68.3874
0
3DFACE
8
A2
10
60.000
20
80.000
30
-61.6825
11
70.000
21
80.000
31
-61.5692
12
70.000
22
90.000
32
-67.8719
13
60.000
23
90.000
33
-68.1425
0
3DFACE
8
A2
10
70.000
20
80.000
30
-61.5692
11
80.000
21
80.000
31
-61.4304
12
80.000
22
90.000
32
-67.5634
13
70.000
23
90.000
33
-67.8719
0
3DFACE
8
A2
10
80.000
20
80.000
30
-61.4304
11
90.000
21
80.000
31
-61.3236
12
90.000
22
90.000
32
-67.3589
13
80.000
23
90.000
33
-67.5634
0
3DFACE
8
A2
10
90.000
20
80.000
30
-61.3236
11
100.000
21
80.000
31
-61.2718
12
100.000
22
90.000
32
-67.2696
13
90.000
23
90.000
33
-67.3589
0
3DFACE
8
A2
10
100.000
20
80.000
30
-61.2718
11
110.000
21
80.000
31
-61.1274
12
110.000
22
90.000
32
-67.1479
13
100.000
23
90.000
33
-67.2696
0
3DFACE
8
A2
10
110.000
20
80.000
30
-61.1274
11
120.000
21
80.000
31
-61.0636
12
120.000
22
90.000
32
-67.1670
13
110.000
23
90.000
33
-67.1479
0
3DFACE
8
A2
10
120.000
20
80.000
30
-61.0636
11
130.000
21
80.000
31
-61.2284
12
130.000
22
90.000
32
-67.3659
13
120.000
23
90.000
33
-67.1670
0
3DFACE
8
A2
10
130.000
20
80.000
30
-61.2284
11
140.000
21
80.000
31
-61.4771
12
140.000
22
90.000
32
-67.6170
13
130.000
23
90.000
33
-67.3659
0
3DFACE
8
A2
10
140.000
20
80.000
30
-61.4771
11
150.000
21
80.000
31
-61.7774
12
150.000
22
90.000
32
-67.9194
13
140.000
23
90.000
33
-67.6170
0
3DFACE
8
A2
10
150.000
20
80.000
30
-61.7774
11
160.000
21
80.000
31
-62.1391
12
160.000
22
90.000
32
-68.2754
13
150.000
23
90.000
33
-67.9194
0
3DFACE
8
A2
10
160.000
20
80.000
30
-62.1391
11
170.000
21
80.000
31
-62.5692
12
170.000
22
90.000
32
-68.6757
13
160.000
23
90.000
33
-68.2754
0
3DFACE
8
A2
10
170.000
20
80.000
30
-62.5692
11
180.000
21
80.000
31
-62.9275
12
180.000
22
90.000
32
-69.0801
13
170.000
23
90.000
33
-68.6757
0
3DFACE
8
A2
10
180.000
20
80.000
30
-62.9275
11
190.000
21
80.000
31
-63.2738
12
190.000
22
90.000
32
-69.4623
13
180.000
23
90.000
33
-69.0801
0
3DFACE
8
A2
10
190.000
20
80.000
30
-63.2738
11
200.000
21
80.000
31
-63.5606
12
200.000
22
90.000
32
-69.7563
13
190.000
23
90.000
33
-69.4623
0
3DFACE
8
A2
10
200.000
20
80.000
30
-63.5606
11
210.000
21
80.000
31
-63.8281
12
210.000
22
90.000
32
-70.0102
13
200.000
23
90.000
33
-69.7563
0
3DFACE
8
A2
10
210.000
20
80.000
30
-63.8281
11
220.000
21
80.000
31
-64.1361
12
220.000
22
90.000
32
-70.3303
13
210.000
23
90.000
33
-70.0102
0
3DFACE
8
A2
10
220.000
20
80.000
30
-64.1361
11
230.000
21
80.000
31
-64.4206
12
230.000
22
90.000
32
-70.6997
13
220.000
23
90.000
33
-70.3303
0
3DFACE
8
A2
10
230.000
20
80.000
30
-64.4206
11
240.000
21
80.000
31
-64.6906
12
240.000
22
90.000
32
-71.0859
13
230.000
23
90.000
33
-70.6997
0
3DFACE
8
A2
10
240.000
20
80.000
30
-64.6906
11
250.000
21
80.000
31
-64.9946
12
250.000
22
90.000
32
-71.5015
13
240.000
23
90.000
33
-71.0859
0
3DFACE
8
A2
10
250.000
20
80.000
30
-64.9946
11
260.000
21
80.000
31
-65.0010
12
260.000
22
90.000
32
-71.7043
13
250.000
23
90.000
33
-71.5015
0
3DFACE
8
A2
10
260.000
20
80.000
30
-65.0010
11
270.000
21
80.000
31
-64.6339
12
270.000
22
90.000
32
-71.3983
13
260.000
23
90.000
33
-71.7043
0
3DFACE
8
A2
10
270.000
20
80.000
30
-64.6339
11
280.000
21
80.000
31
-63.7652
12
280.000
22
90.000
32
-70.4210
13
270.000
23
90.000
33
-71.3983
0
3DFACE
8
A2
10
280.000
20
80.000
30
-63.7652
11
290.000
21
80.000
31
-63.3834
12
290.000
22
90.000
32
-70.0010
13
280.000
23
90.000
33
-70.4210
0
3DFACE
8
A2
10
290.000
20
80.000
30
-63.3834
11
300.000
21
80.000
31
-63.4018
12
300.000
22
90.000
32
-69.9404
13
290.000
23
90.000
33
-70.0010
0
3DFACE
8
A2
10
300.000
20
80.000
30
-63.4018
11
310.000
21
80.000
31
-63.8440
12
310.000
22
90.000
32
-70.2747
13
300.000
23
90.000
33
-69.9404
0
3DFACE
8
A2
10
310.000
20
80.000
30
-63.8440
11
320.000
21
80.000
31
-64.5430
12
320.000
22
90.000
32
-70.9702
13
310.000
23
90.000
33
-70.2747
0
3DFACE
8
A2
10
320.000
20
80.000
30
-64.5430
11
330.000
21
80.000
31
-65.6889
12
330.000
22
90.000
32
-72.2203
13
320.000
23
90.000
33
-70.9702
0
3DFACE
8
A2
10
330.000
20
80.000
30
-65.6889
11
340.000
21
80.000
31
-66.3138
12
340.000
22
90.000
32
-72.8790
13
330.000
23
90.000
33
-72.2203
0
3DFACE
8
A2
10
340.000
20
80.000
30
-66.3138
11
350.000
21
80.000
31
-66.5211
12
350.000
22
90.000
32
-73.1712
13
340.000
23
90.000
33
-72.8790
0
3DFACE
8
A2
10
350.000
20
80.000
30
-66.5211
11
360.000
21
80.000
31
-66.4651
12
360.000
22
90.000
32
-73.2101
13
350.000
23
90.000
33
-73.1712
0
3DFACE
8
A2
10
360.000
20
80.000
30
-66.4651
11
370.000
21
80.000
31
-66.3729
12
370.000
22
90.000
32
-73.2961
13
360.000
23
90.000
33
-73.2101
0
3DFACE
8
A2
10
370.000
20
80.000
30
-66.3729
11
380.000
21
80.000
31
-66.2387
12
380.000
22
90.000
32
-73.2190
13
370.000
23
90.000
33
-73.2961
0
3DFACE
8
A2
10
380.000
20
80.000
30
-66.2387
11
390.000
21
80.000
31
-66.0177
12
390.000
22
90.000
32
-73.0847
13
380.000
23
90.000
33
-73.2190
0
3DFACE
8
A2
10
390.000
20
80.000
30
-66.0177
11
400.000
21
80.000
31
-65.7578
12
400.000
22
90.000
32
-72.9023
13
390.000
23
90.000
33
-73.0847
0
3DFACE
8
A2
10
400.000
20
80.000
30
-65.7578
11
410.000
21
80.000
31
-65.5587
12
410.000
22
90.000
32
-72.6998
13
400.000
23
90.000
33
-72.9023
0
3DFACE
8
A2
10
410.000
20
80.000
30
-65.5587
11
420.000
21
80.000
31
-65.3702
12
420.000
22
90.000
32
-72.4065
13
410.000
23
90.000
33
-72.6998
0
3DFACE
8
A2
10
420.000
20
80.000
30
-65.3702
11
430.000
21
80.000
31
-65.1951
12
430.000
22
90.000
32
-72.2373
13
420.000
23
90.000
33
-72.4065
0
3DFACE
8
A2
10
430.000
20
80.000
30
-65.1951
11
440.000
21
80.000
31
-65.0818
12
440.000
22
90.000
32
-72.0398
13
430.000
23
90.000
33
-72.2373
0
3DFACE
8
A2
10
440.000
20
80.000
30
-65.0818
11
450.000
21
80.000
31
-65.0089
12
450.000
22
90.000
32
-71.8857
13
440.000
23
90.000
33
-72.0398
0
3DFACE
8
A2
10
450.000
20
80.000
30
-65.0089
11
460.000
21
80.000
31
-64.9800
12
460.000
22
90.000
32
-71.7912
13
450.000
23
90.000
33
-71.8857
0
3DFACE
8
A2
10
460.000
20
80.000
30
-64.9800
11
470.000
21
80.000
31
-64.9945
12
470.000
22
90.000
32
-71.7581
13
460.000
23
90.000
33
-71.7912
0
3DFACE
8
A2
10
470.000
20
80.000
30
-64.9945
11
480.000
21
80.000
31
-65.0497
12
480.000
22
90.000
32
-71.7819
13
470.000
23
90.000
33
-71.7581
0
3DFACE
8
A2
10
480.000
20
80.000
30
-65.0497
11
490.000
21
80.000
31
-65.1392
12
490.000
22
90.000
32
-71.8714
13
480.000
23
90.000
33
-71.7819
0
3DFACE
8
A2
10
490.000
20
80.000
30
-65.1392
11
500.000
21
80.000
31
-65.2287
12
500.000
22
90.000
32
-71.9609
13
490.000
23
90.000
33
-71.8714
0
3DFACE
8
A2
10
500.000
20
80.000
30
-65.2287
11
510.000
21
80.000
31
-65.3182
12
510.000
22
90.000
32
-72.0504
13
500.000
23
90.000
33
-71.9609
0
3DFACE
8
A2
10
510.000
20
80.000
30
-65.3182
11
520.000
21
80.000
31
-65.4078
12
520.000
22
90.000
32
-72.1399
13
510.000
23
90.000
33
-72.0504
0
3DFACE
8
A2
10
520.000
20
80.000
30
-65.4078
11
530.000
21
80.000
31
-65.4973
12
530.000
22
90.000
32
-72.2294
13
520.000
23
90.000
33
-72.1399
0
3DFACE
8
A2
10
530.000
20
80.000
30
-65.4973
11
540.000
21
80.000
31
-65.5689
12
540.000
22
90.000
32
-72.3010
13
530.000
23
90.000
33
-72.2294
0
3DFACE
8
A2
10
540.000
20
80.000
30
-65.5689
11
550.000
21
80.000
31
-65.6226
12
550.000
22
90.000
32
-72.3547
13
540.000
23
90.000
33
-72.3010
0
3DFACE
8
A2
10
0.000
20
90.000
30
-69.3050
11
10.000
21
90.000
31
-69.2814
12
10.000
22
100.000
32
-76.4467
13
0.000
23
100.000
33
-76.4501
0
3DFACE
8
A2
10
10.000
20
90.000
30
-69.2814
11
20.000
21
90.000
31
-69.1793
12
20.000
22
100.000
32
-76.3334
13
10.000
23
100.000
33
-76.4467
0
3DFACE
8
A2
10
20.000
20
90.000
30
-69.1793
11
30.000
21
90.000
31
-68.9986
12
30.000
22
100.000
32
-76.1101
13
20.000
23
100.000
33
-76.3334
0
3DFACE
8
A2
10
30.000
20
90.000
30
-68.9986
11
40.000
21
90.000
31
-68.7801
12
40.000
22
100.000
32
-75.7478
13
30.000
23
100.000
33
-76.1101
0
3DFACE
8
A2
10
40.000
20
90.000
30
-68.7801
11
50.000
21
90.000
31
-68.3874
12
50.000
22
100.000
32
-75.1978
13
40.000
23
100.000
33
-75.7478
0
3DFACE
8
A2
10
50.000
20
90.000
30
-68.3874
11
60.000
21
90.000
31
-68.1425
12
60.000
22
100.000
32
-74.6478
13
50.000
23
100.000
33
-75.1978
0
3DFACE
8
A2
10
60.000
20
90.000
30
-68.1425
11
70.000
21
90.000
31
-67.8719
12
70.000
22
100.000
32
-74.0842
13
60.000
23
100.000
33
-74.6478
0
3DFACE
8
A2
10
70.000
20
90.000
30
-67.8719
11
80.000
21
90.000
31
-67.5634
12
80.000
22
100.000
32
-73.4219
13
70.000
23
100.000
33
-74.0842
0
3DFACE
8
A2
10
80.000
20
90.000
30
-67.5634
11
90.000
21
90.000
31
-67.3589
12
90.000
22
100.000
32
-72.9639
13
80.000
23
100.000
33
-73.4219
0
3DFACE
8
A2
10
90.000
20
90.000
30
-67.3589
11
100.000
21
90.000
31
-67.2696
12
100.000
22
100.000
32
-72.7216
13
90.000
23
100.000
33
-72.9639
0
3DFACE
8
A2
10
100.000
20
90.000
30
-67.2696
11
110.000
21
90.000
31
-67.1479
12
110.000
22
100.000
32
-72.6950
13
100.000
23
100.000
33
-72.7216
0
3DFACE
8
A2
10
110.000
20
90.000
30
-67.1479
11
120.000
21
90.000
31
-67.1670
12
120.000
22
100.000
32
-72.8977
13
110.000
23
100.000
33
-72.6950
0
3DFACE
8
A2
10
120.000
20
90.000
30
-67.1670
11
130.000
21
90.000
31
-67.3659
12
130.000
22
100.000
32
-73.4148
13
120.000
23
100.000
33
-72.8977
0
3DFACE
8
A2
10
130.000
20
90.000
30
-67.3659
11
140.000
21
90.000
31
-67.6170
12
140.000
22
100.000
32
-73.8941
13
130.000
23
100.000
33
-73.4148
0
3DFACE
8
A2
10
140.000
20
90.000
30
-67.6170
11
150.000
21
90.000
31
-67.9194
12
150.000
22
100.000
32
-74.3297
13
140.000
23
100.000
33
-73.8941
0
3DFACE
8
A2
10
150.000
20
90.000
30
-67.9194
11
160.000
21
90.000
31
-68.2754
12
160.000
22
100.000
32
-74.7183
13
150.000
23
100.000
33
-74.3297
0
3DFACE
8
A2
10
160.000
20
90.000
30
-68.2754
11
170.000
21
90.000
31
-68.6757
12
170.000
22
100.000
32
-75.0687
13
160.000
23
100.000
33
-74.7183
0
3DFACE
8
A2
10
170.000
20
90.000
30
-68.6757
11
180.000
21
90.000
31
-69.0801
12
180.000
22
100.000
32
-75.3808
13
170.000
23
100.000
33
-75.0687
0
3DFACE
8
A2
10
180.000
20
90.000
30
-69.0801
11
190.000
21
90.000
31
-69.4623
12
190.000
22
100.000
32
-75.6899
13
180.000
23
100.000
33
-75.3808
0
3DFACE
8
A2
10
190.000
20
90.000
30
-69.4623
11
200.000
21
90.000
31
-69.7563
12
200.000
22
100.000
32
-75.9370
13
190.000
23
100.000
33
-75.6899
0
3DFACE
8
A2
10
200.000
20
90.000
30
-69.7563
11
210.000
21
90.000
31
-70.0102
12
210.000
22
100.000
32
-76.1755
13
200.000
23
100.000
33
-75.9370
0
3DFACE
8
A2
10
210.000
20
90.000
30
-70.0102
11
220.000
21
90.000
31
-70.3303
12
220.000
22
100.000
32
-76.4940
13
210.000
23
100.000
33
-76.1755
0
3DFACE
8
A2
10
220.000
20
90.000
30
-70.3303
11
230.000
21
90.000
31
-70.6997
12
230.000
22
100.000
32
-76.8925
13
220.000
23
100.000
33
-76.4940
0
3DFACE
8
A2
10
230.000
20
90.000
30
-70.6997
11
240.000
21
90.000
31
-71.0859
12
240.000
22
100.000
32
-77.3021
13
230.000
23
100.000
33
-76.8925
0
3DFACE
8
A2
10
240.000
20
90.000
30
-71.0859
11
250.000
21
90.000
31
-71.5015
12
250.000
22
100.000
32
-77.7835
13
240.000
23
100.000
33
-77.3021
0
3DFACE
8
A2
10
250.000
20
90.000
30
-71.5015
11
260.000
21
90.000
31
-71.7043
12
260.000
22
100.000
32
-78.1313
13
250.000
23
100.000
33
-77.7835
0
3DFACE
8
A2
10
260.000
20
90.000
30
-71.7043
11
270.000
21
90.000
31
-71.3983
12
270.000
22
100.000
32
-77.9519
13
260.000
23
100.000
33
-78.1313
0
3DFACE
8
A2
10
270.000
20
90.000
30
-71.3983
11
280.000
21
90.000
31
-70.4210
12
280.000
22
100.000
32
-76.9404
13
270.000
23
100.000
33
-77.9519
0
3DFACE
8
A2
10
280.000
20
90.000
30
-70.4210
11
290.000
21
90.000
31
-70.0010
12
290.000
22
100.000
32
-76.4926
13
280.000
23
100.000
33
-76.9404
0
3DFACE
8
A2
10
290.000
20
90.000
30
-70.0010
11
300.000
21
90.000
31
-69.9404
12
300.000
22
100.000
32
-76.4536
13
290.000
23
100.000
33
-76.4926
0
3DFACE
8
A2
10
300.000
20
90.000
30
-69.9404
11
310.000
21
90.000
31
-70.2747
12
310.000
22
100.000
32
-76.7016
13
300.000
23
100.000
33
-76.4536
0
3DFACE
8
A2
10
310.000
20
90.000
30
-70.2747
11
320.000
21
90.000
31
-70.9702
12
320.000
22
100.000
32
-77.3295
13
310.000
23
100.000
33
-76.7016
0
3DFACE
8
A2
10
320.000
20
90.000
30
-70.9702
11
330.000
21
90.000
31
-72.2203
12
330.000
22
100.000
32
-78.6595
13
320.000
23
100.000
33
-77.3295
0
3DFACE
8
A2
10
330.000
20
90.000
30
-72.2203
11
340.000
21
90.000
31
-72.8790
12
340.000
22
100.000
32
-79.3777
13
330.000
23
100.000
33
-78.6595
0
3DFACE
8
A2
10
340.000
20
90.000
30
-72.8790
11
350.000
21
90.000
31
-73.1712
12
350.000
22
100.000
32
-79.6346
13
340.000
23
100.000
33
-79.3777
0
3DFACE
8
A2
10
350.000
20
90.000
30
-73.1712
11
360.000
21
90.000
31
-73.2101
12
360.000
22
100.000
32
-79.6636
13
350.000
23
100.000
33
-79.6346
0
3DFACE
8
A2
10
360.000
20
90.000
30
-73.2101
11
370.000
21
90.000
31
-73.2961
12
370.000
22
100.000
32
-79.7368
13
360.000
23
100.000
33
-79.6636
0
3DFACE
8
A2
10
370.000
20
90.000
30
-73.2961
11
380.000
21
90.000
31
-73.2190
12
380.000
22
100.000
32
-79.6750
13
370.000
23
100.000
33
-79.7368
0
3DFACE
8
A2
10
380.000
20
90.000
30
-73.2190
11
390.000
21
90.000
31
-73.0847
12
390.000
22
100.000
32
-79.5871
13
380.000
23
100.000
33
-79.6750
0
3DFACE
8
A2
10
390.000
20
90.000
30
-73.0847
11
400.000
21
90.000
31
-72.9023
12
400.000
22
100.000
32
-79.4025
13
390.000
23
100.000
33
-79.5871
0
3DFACE
8
A2
10
400.000
20
90.000
30
-72.9023
11
410.000
21
90.000
31
-72.6998
12
410.000
22
100.000
32
-79.2333
13
400.000
23
100.000
33
-79.4025
0
3DFACE
8
A2
10
410.000
20
90.000
30
-72.6998
11
420.000
21
90.000
31
-72.4065
12
420.000
22
100.000
32
-79.0445
13
410.000
23
100.000
33
-79.2333
0
3DFACE
8
A2
10
420.000
20
90.000
30
-72.4065
11
430.000
21
90.000
31
-72.2373
12
430.000
22
100.000
32
-78.9415
13
420.000
23
100.000
33
-79.0445
0
3DFACE
8
A2
10
430.000
20
90.000
30
-72.2373
11
440.000
21
90.000
31
-72.0398
12
440.000
22
100.000
32
-78.7564
13
430.000
23
100.000
33
-78.9415
0
3DFACE
8
A2
10
440.000
20
90.000
30
-72.0398
11
450.000
21
90.000
31
-71.8857
12
450.000
22
100.000
32
-78.6666
13
440.000
23
100.000
33
-78.7564
0
3DFACE
8
A2
10
450.000
20
90.000
30
-71.8857
11
460.000
21
90.000
31
-71.7912
12
460.000
22
100.000
32
-78.6036
13
450.000
23
100.000
33
-78.6666
0
3DFACE
8
A2
10
460.000
20
90.000
30
-71.7912
11
470.000
21
90.000
31
-71.7581
12
470.000
22
100.000
32
-78.5341
13
460.000
23
100.000
33
-78.6036
0
3DFACE
8
A2
10
470.000
20
90.000
30
-71.7581
11
480.000
21
90.000
31
-71.7819
12
480.000
22
100.000
32
-78.5141
13
470.000
23
100.000
33
-78.5341
0
3DFACE
8
A2
10
480.000
20
90.000
30
-71.7819
11
490.000
21
90.000
31
-71.8714
12
490.000
22
100.000
32
-78.6036
13
480.000
23
100.000
33
-78.5141
0
3DFACE
8
A2
10
490.000
20
90.000
30
-71.8714
11
500.000
21
90.000
31
-71.9609
12
500.000
22
100.000
32
-78.6931
13
490.000
23
100.000
33
-78.6036
0
3DFACE
8
A2
10
500.000
20
90.000
30
-71.9609
11
510.000
21
90.000
31
-72.0504
12
510.000
22
100.000
32
-78.7826
13
500.000
23
100.000
33
-78.6931
0
3DFACE
8
A2
10
510.000
20
90.000
30
-72.0504
11
520.000
21
90.000
31
-72.1399
12
520.000
22
100.000
32
-78.8721
13
510.000
23
100.000
33
-78.7826
0
3DFACE
8
A2
10
520.000
20
90.000
30
-72.1399
11
530.000
21
90.000
31
-72.2294
12
530.000
22
100.000
32
-78.9616
13
520.000
23
100.000
33
-78.8721
0
3DFACE
8
A2
10
530.000
20
90.000
30
-72.2294
11
540.000
21
90.000
31
-72.3010
12
540.000
22
100.000
32
-79.0332
13
530.000
23
100.000
33
-78.9616
0
3DFACE
8
A2
10
540.000
20
90.000
30
-72.3010
11
550.000
21
90.000
31
-72.3547
12
550.000
22
100.000
32
-79.0869
13
540.000
23
100.000
33
-79.0332
0
3DFACE
8
A2
10
0.000
20
100.000
30
-76.4501
11
10.000
21
100.000
31
-76.4467
12
10.000
22
110.000
32
-83.2382
13
0.000
23
110.000
33
-83.2682
0
3DFACE
8
A2
10
10.000
20
100.000
30
-76.4467
11
20.000
21
100.000
31
-76.3334
12
20.000
22
110.000
32
-83.0923
13
10.000
23
110.000
33
-83.2382
0
3DFACE
8
A2
10
20.000
20
100.000
30
-76.3334
11
30.000
21
100.000
31
-76.1101
12
30.000
22
110.000
32
-82.8306
13
20.000
23
110.000
33
-83.0923
0
3DFACE
8
A2
10
30.000
20
100.000
30
-76.1101
11
40.000
21
100.000
31
-75.7478
12
40.000
22
110.000
32
-82.4065
13
30.000
23
110.000
33
-82.8306
0
3DFACE
8
A2
10
40.000
20
100.000
30
-75.7478
11
50.000
21
100.000
31
-75.1978
12
50.000
22
110.000
32
-81.8419
13
40.000
23
110.000
33
-82.4065
0
3DFACE
8
A2
10
50.000
20
100.000
30
-75.1978
11
60.000
21
100.000
31
-74.6478
12
60.000
22
110.000
32
-81.2477
13
50.000
23
110.000
33
-81.8419
0
3DFACE
8
A2
10
60.000
20
100.000
30
-74.6478
11
70.000
21
100.000
31
-74.0842
12
70.000
22
110.000
32
-80.5716
13
60.000
23
110.000
33
-81.2477
0
3DFACE
8
A2
10
70.000
20
100.000
30
-74.0842
11
80.000
21
100.000
31
-73.4219
12
80.000
22
110.000
32
-79.7623
13
70.000
23
110.000
33
-80.5716
0
3DFACE
8
A2
10
80.000
20
100.000
30
-73.4219
11
90.000
21
100.000
31
-72.9639
12
90.000
22
110.000
32
-79.2126
13
80.000
23
110.000
33
-79.7623
0
3DFACE
8
A2
10
90.000
20
100.000
30
-72.9639
11
100.000
21
100.000
31
-72.7216
12
100.000
22
110.000
32
-78.9226
13
90.000
23
110.000
33
-79.2126
0
3DFACE
8
A2
10
100.000
20
100.000
30
-72.7216
11
110.000
21
100.000
31
-72.6950
12
110.000
22
110.000
32
-78.9072
13
100.000
23
110.000
33
-78.9226
0
3DFACE
8
A2
10
110.000
20
100.000
30
-72.6950
11
120.000
21
100.000
31
-72.8977
12
120.000
22
110.000
32
-79.2333
13
110.000
23
110.000
33
-78.9072
0
3DFACE
8
A2
10
120.000
20
100.000
30
-72.8977
11
130.000
21
100.000
31
-73.4148
12
130.000
22
110.000
32
-79.9525
13
120.000
23
110.000
33
-79.2333
0
3DFACE
8
A2
10
130.000
20
100.000
30
-73.4148
11
140.000
21
100.000
31
-73.8941
12
140.000
22
110.000
32
-80.5506
13
130.000
23
110.000
33
-79.9525
0
3DFACE
8
A2
10
140.000
20
100.000
30
-73.8941
11
150.000
21
100.000
31
-74.3297
12
150.000
22
110.000
32
-80.9977
13
140.000
23
110.000
33
-80.5506
0
3DFACE
8
A2
10
150.000
20
100.000
30
-74.3297
11
160.000
21
100.000
31
-74.7183
12
160.000
22
110.000
32
-81.3291
13
150.000
23
110.000
33
-80.9977
0
3DFACE
8
A2
10
160.000
20
100.000
30
-74.7183
11
170.000
21
100.000
31
-75.0687
12
170.000
22
110.000
32
-81.5678
13
160.000
23
110.000
33
-81.3291
0
3DFACE
8
A2
10
170.000
20
100.000
30
-75.0687
11
180.000
21
100.000
31
-75.3808
12
180.000
22
110.000
32
-81.7301
13
170.000
23
110.000
33
-81.5678
0
3DFACE
8
A2
10
180.000
20
100.000
30
-75.3808
11
190.000
21
100.000
31
-75.6899
12
190.000
22
110.000
32
-81.9216
13
180.000
23
110.000
33
-81.7301
0
3DFACE
8
A2
10
190.000
20
100.000
30
-75.6899
11
200.000
21
100.000
31
-75.9370
12
200.000
22
110.000
32
-82.1203
13
190.000
23
110.000
33
-81.9216
0
3DFACE
8
A2
10
200.000
20
100.000
30
-75.9370
11
210.000
21
100.000
31
-76.1755
12
210.000
22
110.000
32
-82.3409
13
200.000
23
110.000
33
-82.1203
0
3DFACE
8
A2
10
210.000
20
100.000
30
-76.1755
11
220.000
21
100.000
31
-76.4940
12
220.000
22
110.000
32
-82.6577
13
210.000
23
110.000
33
-82.3409
0
3DFACE
8
A2
10
220.000
20
100.000
30
-76.4940
11
230.000
21
100.000
31
-76.8925
12
230.000
22
110.000
32
-83.0034
13
220.000
23
110.000
33
-82.6577
0
3DFACE
8
A2
10
230.000
20
100.000
30
-76.8925
11
240.000
21
100.000
31
-77.3021
12
240.000
22
110.000
32
-83.3339
13
230.000
23
110.000
33
-83.0034
0
3DFACE
8
A2
10
240.000
20
100.000
30
-77.3021
11
250.000
21
100.000
31
-77.7835
12
250.000
22
110.000
32
-83.8544
13
240.000
23
110.000
33
-83.3339
0
3DFACE
8
A2
10
250.000
20
100.000
30
-77.7835
11
260.000
21
100.000
31
-78.1313
12
260.000
22
110.000
32
-84.2813
13
250.000
23
110.000
33
-83.8544
0
3DFACE
8
A2
10
260.000
20
100.000
30
-78.1313
11
270.000
21
100.000
31
-77.9519
12
270.000
22
110.000
32
-84.1809
13
260.000
23
110.000
33
-84.2813
0
3DFACE
8
A2
10
270.000
20
100.000
30
-77.9519
11
280.000
21
100.000
31
-76.9404
12
280.000
22
110.000
32
-83.1594
13
270.000
23
110.000
33
-84.1809
0
3DFACE
8
A2
10
280.000
20
100.000
30
-76.9404
11
290.000
21
100.000
31
-76.4926
12
290.000
22
110.000
32
-82.8408
13
280.000
23
110.000
33
-83.1594
0
3DFACE
8
A2
10
290.000
20
100.000
30
-76.4926
11
300.000
21
100.000
31
-76.4536
12
300.000
22
110.000
32
-82.8364
13
290.000
23
110.000
33
-82.8408
0
3DFACE
8
A2
10
300.000
20
100.000
30
-76.4536
11
310.000
21
100.000
31
-76.7016
12
310.000
22
110.000
32
-83.0349
13
300.000
23
110.000
33
-82.8364
0
3DFACE
8
A2
10
310.000
20
100.000
30
-76.7016
11
320.000
21
100.000
31
-77.3295
12
320.000
22
110.000
32
-83.6207
13
310.000
23
110.000
33
-83.0349
0
3DFACE
8
A2
10
320.000
20
100.000
30
-77.3295
11
330.000
21
100.000
31
-78.6595
12
330.000
22
110.000
32
-85.0361
13
320.000
23
110.000
33
-83.6207
0
3DFACE
8
A2
10
330.000
20
100.000
30
-78.6595
11
340.000
21
100.000
31
-79.3777
12
340.000
22
110.000
32
-85.7071
13
330.000
23
110.000
33
-85.0361
0
3DFACE
8
A2
10
340.000
20
100.000
30
-79.3777
11
350.000
21
100.000
31
-79.6346
12
350.000
22
110.000
32
-85.8769
13
340.000
23
110.000
33
-85.7071
0
3DFACE
8
A2
10
350.000
20
100.000
30
-79.6346
11
360.000
21
100.000
31
-79.6636
12
360.000
22
110.000
32
-85.8599
13
350.000
23
110.000
33
-85.8769
0
3DFACE
8
A2
10
360.000
20
100.000
30
-79.6636
11
370.000
21
100.000
31
-79.7368
12
370.000
22
110.000
32
-85.8765
13
360.000
23
110.000
33
-85.8599
0
3DFACE
8
A2
10
370.000
20
100.000
30
-79.7368
11
380.000
21
100.000
31
-79.6750
12
380.000
22
110.000
32
-85.7679
13
370.000
23
110.000
33
-85.8765
0
3DFACE
8
A2
10
380.000
20
100.000
30
-79.6750
11
390.000
21
100.000
31
-79.5871
12
390.000
22
110.000
32
-85.6867
13
380.000
23
110.000
33
-85.7679
0
3DFACE
8
A2
10
390.000
20
100.000
30
-79.5871
11
400.000
21
100.000
31
-79.4025
12
400.000
22
110.000
32
-85.5330
13
390.000
23
110.000
33
-85.6867
0
3DFACE
8
A2
10
400.000
20
100.000
30
-79.4025
11
410.000
21
100.000
31
-79.2333
12
410.000
22
110.000
32
-85.3613
13
400.000
23
110.000
33
-85.5330
0
3DFACE
8
A2
10
410.000
20
100.000
30
-79.2333
11
420.000
21
100.000
31
-79.0445
12
420.000
22
110.000
32
-85.1367
13
410.000
23
110.000
33
-85.3613
0
3DFACE
8
A2
10
420.000
20
100.000
30
-79.0445
11
430.000
21
100.000
31
-78.9415
12
430.000
22
110.000
32
-85.0182
13
420.000
23
110.000
33
-85.1367
0
3DFACE
8
A2
10
430.000
20
100.000
30
-78.9415
11
440.000
21
100.000
31
-78.7564
12
440.000
22
110.000
32
-84.9375
13
430.000
23
110.000
33
-85.0182
0
3DFACE
8
A2
10
440.000
20
100.000
30
-78.7564
11
450.000
21
100.000
31
-78.6666
12
450.000
22
110.000
32
-84.9442
13
440.000
23
110.000
33
-84.9375
0
3DFACE
8
A2
10
450.000
20
100.000
30
-78.6666
11
460.000
21
100.000
31
-78.6036
12
460.000
22
110.000
32
-85.0143
13
450.000
23
110.000
33
-84.9442
0
3DFACE
8
A2
10
460.000
20
100.000
30
-78.6036
11
470.000
21
100.000
31
-78.5341
12
470.000
22
110.000
32
-85.1142
13
460.000
23
110.000
33
-85.0143
0
3DFACE
8
A2
10
470.000
20
100.000
30
-78.5341
11
480.000
21
100.000
31
-78.5141
12
480.000
22
110.000
32
-85.2463
13
470.000
23
110.000
33
-85.1142
0
3DFACE
8
A2
10
480.000
20
100.000
30
-78.5141
11
490.000
21
100.000
31
-78.6036
12
490.000
22
110.000
32
-85.3358
13
480.000
23
110.000
33
-85.2463
0
3DFACE
8
A2
10
490.000
20
100.000
30
-78.6036
11
500.000
21
100.000
31
-78.6931
12
500.000
22
110.000
32
-85.4253
13
490.000
23
110.000
33
-85.3358
0
3DFACE
8
A2
10
500.000
20
100.000
30
-78.6931
11
510.000
21
100.000
31
-78.7826
12
510.000
22
110.000
32
-85.5148
13
500.000
23
110.000
33
-85.4253
0
3DFACE
8
A2
10
510.000
20
100.000
30
-78.7826
11
520.000
21
100.000
31
-78.8721
12
520.000
22
110.000
32
-85.6043
13
510.000
23
110.000
33
-85.5148
0
3DFACE
8
A2
10
520.000
20
100.000
30
-78.8721
11
530.000
21
100.000
31
-78.9616
12
530.000
22
110.000
32
-85.6938
13
520.000
23
110.000
33
-85.6043
0
3DFACE
8
A2
10
530.000
20
100.000
30
-78.9616
11
540.000
21
100.000
31
-79.0332
12
540.000
22
110.000
32
-85.7654
13
530.000
23
110.000
33
-85.6938
0
3DFACE
8
A2
10
540.000
20
100.000
30
-79.0332
11
550.000
21
100.000
31
-79.0869
12
550.000
22
110.000
32
-85.8191
13
540.000
23
110.000
33
-85.7654
0
3DFACE
8
A2
10
0.000
20
110.000
30
-83.2682
11
10.000
21
110.000
31
-83.2382
12
10.000
22
120.000
32
-89.8479
13
0.000
23
120.000
33
-89.7116
0
3DFACE
8
A2
10
10.000
20
110.000
30
-83.2382
11
20.000
21
110.000
31
-83.0923
12
20.000
22
120.000
32
-89.8725
13
10.000
23
120.000
33
-89.8479
0
3DFACE
8
A2
10
20.000
20
110.000
30
-83.0923
11
30.000
21
110.000
31
-82.8306
12
30.000
22
120.000
32
-89.7695
13
20.000
23
120.000
33
-89.8725
0
3DFACE
8
A2
10
30.000
20
110.000
30
-82.8306
11
40.000
21
110.000
31
-82.4065
12
40.000
22
120.000
32
-89.4546
13
30.000
23
120.000
33
-89.7695
0
3DFACE
8
A2
10
40.000
20
110.000
30
-82.4065
11
50.000
21
110.000
31
-81.8419
12
50.000
22
120.000
32
-88.9252
13
40.000
23
120.000
33
-89.4546
0
3DFACE
8
A2
10
50.000
20
110.000
30
-81.8419
11
60.000
21
110.000
31
-81.2477
12
60.000
22
120.000
32
-88.2221
13
50.000
23
120.000
33
-88.9252
0
3DFACE
8
A2
10
60.000
20
110.000
30
-81.2477
11
70.000
21
110.000
31
-80.5716
12
70.000
22
120.000
32
-87.3780
13
60.000
23
120.000
33
-88.2221
0
3DFACE
8
A2
10
70.000
20
110.000
30
-80.5716
11
80.000
21
110.000
31
-79.7623
12
80.000
22
120.000
32
-86.3656
13
70.000
23
120.000
33
-87.3780
0
3DFACE
8
A2
10
80.000
20
110.000
30
-79.7623
11
90.000
21
110.000
31
-79.2126
12
90.000
22
120.000
32
-85.6364
13
80.000
23
120.000
33
-86.3656
0
3DFACE
8
A2
10
90.000
20
110.000
30
-79.2126
11
100.000
21
110.000
31
-78.9226
12
100.000
22
120.000
32
-85.2064
13
90.000
23
120.000
33
-85.6364
0
3DFACE
8
A2
10
100.000
20
110.000
30
-78.9226
11
110.000
21
110.000
31
-78.9072
12
110.000
22
120.000
32
-85.1246
13
100.000
23
120.000
33
-85.2064
0
3DFACE
8
A2
10
110.000
20
110.000
30
-78.9072
11
120.000
21
110.000
31
-79.2333
12
120.000
22
120.000
32
-85.4509
13
110.000
23
120.000
33
-85.1246
0
3DFACE
8
A2
10
120.000
20
110.000
30
-79.2333
11
130.000
21
110.000
31
-79.9525
12
130.000
22
120.000
32
-86.2289
13
120.000
23
120.000
33
-85.4509
0
3DFACE
8
A2
10
130.000
20
110.000
30
-79.9525
11
140.000
21
110.000
31
-80.5506
12
140.000
22
120.000
32
-86.8718
13
130.000
23
120.000
33
-86.2289
0
3DFACE
8
A2
10
140.000
20
110.000
30
-80.5506
11
150.000
21
110.000
31
-80.9977
12
150.000
22
120.000
32
-87.3504
13
140.000
23
120.000
33
-86.8718
0
3DFACE
8
A2
10
150.000
20
110.000
30
-80.9977
11
160.000
21
110.000
31
-81.3291
12
160.000
22
120.000
32
-87.7121
13
150.000
23
120.000
33
-87.3504
0
3DFACE
8
A2
10
160.000
20
110.000
30
-81.3291
11
170.000
21
110.000
31
-81.5678
12
170.000
22
120.000
32
-87.9371
13
160.000
23
120.000
33
-87.7121
0
3DFACE
8
A2
10
170.000
20
110.000
30
-81.5678
11
180.000
21
110.000
31
-81.7301
12
180.000
22
120.000
32
-88.0547
13
170.000
23
120.000
33
-87.9371
0
3DFACE
8
A2
10
180.000
20
110.000
30
-81.7301
11
190.000
21
110.000
31
-81.9216
12
190.000
22
120.000
32
-88.2020
13
180.000
23
120.000
33
-88.0547
0
3DFACE
8
A2
10
190.000
20
110.000
30
-81.9216
11
200.000
21
110.000
31
-82.1203
12
200.000
22
120.000
32
-88.3580
13
190.000
23
120.000
33
-88.2020
0
3DFACE
8
A2
10
200.000
20
110.000
30
-82.1203
11
210.000
21
110.000
31
-82.3409
12
210.000
22
120.000
32
-88.5254
13
200.000
23
120.000
33
-88.3580
0
3DFACE
8
A2
10
210.000
20
110.000
30
-82.3409
11
220.000
21
110.000
31
-82.6577
12
220.000
22
120.000
32
-88.7708
13
210.000
23
120.000
33
-88.5254
0
3DFACE
8
A2
10
220.000
20
110.000
30
-82.6577
11
230.000
21
110.000
31
-83.0034
12
230.000
22
120.000
32
-88.9814
13
220.000
23
120.000
33
-88.7708
0
3DFACE
8
A2
10
230.000
20
110.000
30
-83.0034
11
240.000
21
110.000
31
-83.3339
12
240.000
22
120.000
32
-89.1967
13
230.000
23
120.000
33
-88.9814
0
3DFACE
8
A2
10
240.000
20
110.000
30
-83.3339
11
250.000
21
110.000
31
-83.8544
12
250.000
22
120.000
32
-89.7295
13
240.000
23
120.000
33
-89.1967
0
3DFACE
8
A2
10
250.000
20
110.000
30
-83.8544
11
260.000
21
110.000
31
-84.2813
12
260.000
22
120.000
32
-90.1693
13
250.000
23
120.000
33
-89.7295
0
3DFACE
8
A2
10
260.000
20
110.000
30
-84.2813
11
270.000
21
110.000
31
-84.1809
12
270.000
22
120.000
32
-90.1038
13
260.000
23
120.000
33
-90.1693
0
3DFACE
8
A2
10
270.000
20
110.000
30
-84.1809
11
280.000
21
110.000
31
-83.1594
12
280.000
22
120.000
32
-89.1741
13
270.000
23
120.000
33
-90.1038
0
3DFACE
8
A2
10
280.000
20
110.000
30
-83.1594
11
290.000
21
110.000
31
-82.8408
12
290.000
22
120.000
32
-89.0711
13
280.000
23
120.000
33
-89.1741
0
3DFACE
8
A2
10
290.000
20
110.000
30
-82.8408
11
300.000
21
110.000
31
-82.8364
12
300.000
22
120.000
32
-89.0986
13
290.000
23
120.000
33
-89.0711
0
3DFACE
8
A2
10
300.000
20
110.000
30
-82.8364
11
310.000
21
110.000
31
-83.0349
12
310.000
22
120.000
32
-89.2809
13
300.000
23
120.000
33
-89.0986
0
3DFACE
8
A2
10
310.000
20
110.000
30
-83.0349
11
320.000
21
110.000
31
-83.6207
12
320.000
22
120.000
32
-89.8664
13
310.000
23
120.000
33
-89.2809
0
3DFACE
8
A2
10
320.000
20
110.000
30
-83.6207
11
330.000
21
110.000
31
-85.0361
12
330.000
22
120.000
32
-91.2946
13
320.000
23
120.000
33
-89.8664
0
3DFACE
8
A2
10
330.000
20
110.000
30
-85.0361
11
340.000
21
110.000
31
-85.7071
12
340.000
22
120.000
32
-91.8239
13
330.000
23
120.000
33
-91.2946
0
3DFACE
8
A2
10
340.000
20
110.000
30
-85.7071
11
350.000
21
110.000
31
-85.8769
12
350.000
22
120.000
32
-91.8719
13
340.000
23
120.000
33
-91.8239
0
3DFACE
8
A2
10
350.000
20
110.000
30
-85.8769
11
360.000
21
110.000
31
-85.8599
12
360.000
22
120.000
32
-91.7760
13
350.000
23
120.000
33
-91.8719
0
3DFACE
8
A2
10
360.000
20
110.000
30
-85.8599
11
370.000
21
110.000
31
-85.8765
12
370.000
22
120.000
32
-91.7234
13
360.000
23
120.000
33
-91.7760
0
3DFACE
8
A2
10
370.000
20
110.000
30
-85.8765
11
380.000
21
110.000
31
-85.7679
12
380.000
22
120.000
32
-91.5554
13
370.000
23
120.000
33
-91.7234
0
3DFACE
8
A2
10
380.000
20
110.000
30
-85.7679
11
390.000
21
110.000
31
-85.6867
12
390.000
22
120.000
32
-91.4244
13
380.000
23
120.000
33
-91.5554
0
3DFACE
8
A2
10
390.000
20
110.000
30
-85.6867
11
400.000
21
110.000
31
-85.5330
12
400.000
22
120.000
32
-91.2900
13
390.000
23
120.000
33
-91.4244
0
3DFACE
8
A2
10
400.000
20
110.000
30
-85.5330
11
410.000
21
110.000
31
-85.3613
12
410.000
22
120.000
32
-91.1833
13
400.000
23
120.000
33
-91.2900
0
3DFACE
8
A2
10
410.000
20
110.000
30
-85.3613
11
420.000
21
110.000
31
-85.1367
12
420.000
22
120.000
32
-90.9948
13
410.000
23
120.000
33
-91.1833
0
3DFACE
8
A2
10
420.000
20
110.000
30
-85.1367
11
430.000
21
110.000
31
-85.0182
12
430.000
22
120.000
32
-90.8789
13
420.000
23
120.000
33
-90.9948
0
3DFACE
8
A2
10
430.000
20
110.000
30
-85.0182
11
440.000
21
110.000
31
-84.9375
12
440.000
22
120.000
32
-91.0034
13
430.000
23
120.000
33
-90.8789
0
3DFACE
8
A2
10
440.000
20
110.000
30
-84.9375
11
450.000
21
110.000
31
-84.9442
12
450.000
22
120.000
32
-91.1825
13
440.000
23
120.000
33
-91.0034
0
3DFACE
8
A2
10
450.000
20
110.000
30
-84.9442
11
460.000
21
110.000
31
-85.0143
12
460.000
22
120.000
32
-91.3837
13
450.000
23
120.000
33
-91.1825
0
3DFACE
8
A2
10
460.000
20
110.000
30
-85.0143
11
470.000
21
110.000
31
-85.1142
12
470.000
22
120.000
32
-91.6467
13
460.000
23
120.000
33
-91.3837
0
3DFACE
8
A2
10
470.000
20
110.000
30
-85.1142
11
480.000
21
110.000
31
-85.2463
12
480.000
22
120.000
32
-91.9784
13
470.000
23
120.000
33
-91.6467
0
3DFACE
8
A2
10
480.000
20
110.000
30
-85.2463
11
490.000
21
110.000
31
-85.3358
12
490.000
22
120.000
32
-92.0680
13
480.000
23
120.000
33
-91.9784
0
3DFACE
8
A2
10
490.000
20
110.000
30
-85.3358
11
500.000
21
110.000
31
-85.4253
12
500.000
22
120.000
32
-92.1575
13
490.000
23
120.000
33
-92.0680
0
3DFACE
8
A2
10
500.000
20
110.000
30
-85.4253
11
510.000
21
110.000
31
-85.5148
12
510.000
22
120.000
32
-92.2470
13
500.000
23
120.000
33
-92.1575
0
3DFACE
8
A2
10
510.000
20
110.000
30
-85.5148
11
520.000
21
110.000
31
-85.6043
12
520.000
22
120.000
32
-92.3365
13
510.000
23
120.000
33
-92.2470
0
3DFACE
8
A2
10
520.000
20
110.000
30
-85.6043
11
530.000
21
110.000
31
-85.6938
12
530.000
22
120.000
32
-92.4260
13
520.000
23
120.000
33
-92.3365
0
3DFACE
8
A2
10
530.000
20
110.000
30
-85.6938
11
540.000
21
110.000
31
-85.7654
12
540.000
22
120.000
32
-92.4976
13
530.000
23
120.000
33
-92.4260
0
3DFACE
8
A2
10
540.000
20
110.000
30
-85.7654
11
550.000
21
110.000
31
-85.8191
12
550.000
22
120.000
32
-92.5513
13
540.000
23
120.000
33
-92.4976
0
3DFACE
8
A2
10
0.000
20
120.000
30
-89.7116
11
10.000
21
120.000
31
-89.8479
12
10.000
22
130.000
32
-96.3711
13
0.000
23
130.000
33
-96.0856
0
3DFACE
8
A2
10
10.000
20
120.000
30
-89.8479
11
20.000
21
120.000
31
-89.8725
12
20.000
22
130.000
32
-96.6022
13
10.000
23
130.000
33
-96.3711
0
3DFACE
8
A2
10
20.000
20
120.000
30
-89.8725
11
30.000
21
120.000
31
-89.7695
12
30.000
22
130.000
32
-96.7093
13
20.000
23
130.000
33
-96.6022
0
3DFACE
8
A2
10
30.000
20
120.000
30
-89.7695
11
40.000
21
120.000
31
-89.4546
12
40.000
22
130.000
32
-96.5189
13
30.000
23
130.000
33
-96.7093
0
3DFACE
8
A2
10
40.000
20
120.000
30
-89.4546
11
50.000
21
120.000
31
-88.9252
12
50.000
22
130.000
32
-96.0162
13
40.000
23
130.000
33
-96.5189
0
3DFACE
8
A2
10
50.000
20
120.000
30
-88.9252
11
60.000
21
120.000
31
-88.2221
12
60.000
22
130.000
32
-95.2423
13
50.000
23
130.000
33
-96.0162
0
3DFACE
8
A2
10
60.000
20
120.000
30
-88.2221
11
70.000
21
120.000
31
-87.3780
12
70.000
22
130.000
32
-94.2217
13
60.000
23
130.000
33
-95.2423
0
3DFACE
8
A2
10
70.000
20
120.000
30
-87.3780
11
80.000
21
120.000
31
-86.3656
12
80.000
22
130.000
32
-92.9770
13
70.000
23
130.000
33
-94.2217
0
3DFACE
8
A2
10
80.000
20
120.000
30
-86.3656
11
90.000
21
120.000
31
-85.6364
12
90.000
22
130.000
32
-92.0985
13
80.000
23
130.000
33
-92.9770
0
3DFACE
8
A2
10
90.000
20
120.000
30
-85.6364
11
100.000
21
120.000
31
-85.2064
12
100.000
22
130.000
32
-91.6263
13
90.000
23
130.000
33
-92.0985
0
3DFACE
8
A2
10
100.000
20
120.000
30
-85.2064
11
110.000
21
120.000
31
-85.1246
12
110.000
22
130.000
32
-91.6112
13
100.000
23
130.000
33
-91.6263
0
3DFACE
8
A2
10
110.000
20
120.000
30
-85.1246
11
120.000
21
120.000
31
-85.4509
12
120.000
22
130.000
32
-92.0962
13
110.000
23
130.000
33
-91.6112
0
3DFACE
8
A2
10
120.000
20
120.000
30
-85.4509
11
130.000
21
120.000
31
-86.2289
12
130.000
22
130.000
32
-93.0790
13
120.000
23
130.000
33
-92.0962
0
3DFACE
8
A2
10
130.000
20
120.000
30
-86.2289
11
140.000
21
120.000
31
-86.8718
12
140.000
22
130.000
32
-93.8389
13
130.000
23
130.000
33
-93.0790
0
3DFACE
8
A2
10
140.000
20
120.000
30
-86.8718
11
150.000
21
120.000
31
-87.3504
12
150.000
22
130.000
32
-94.3448
13
140.000
23
130.000
33
-93.8389
0
3DFACE
8
A2
10
150.000
20
120.000
30
-87.3504
11
160.000
21
120.000
31
-87.7121
12
160.000
22
130.000
32
-94.6440
13
150.000
23
130.000
33
-94.3448
0
3DFACE
8
A2
10
160.000
20
120.000
30
-87.7121
11
170.000
21
120.000
31
-87.9371
12
170.000
22
130.000
32
-94.7291
13
160.000
23
130.000
33
-94.6440
0
3DFACE
8
A2
10
170.000
20
120.000
30
-87.9371
11
180.000
21
120.000
31
-88.0547
12
180.000
22
130.000
32
-94.6786
13
170.000
23
130.000
33
-94.7291
0
3DFACE
8
A2
10
180.000
20
120.000
30
-88.0547
11
190.000
21
120.000
31
-88.2020
12
190.000
22
130.000
32
-94.6656
13
180.000
23
130.000
33
-94.6786
0
3DFACE
8
A2
10
190.000
20
120.000
30
-88.2020
11
200.000
21
120.000
31
-88.3580
12
200.000
22
130.000
32
-94.6952
13
190.000
23
130.000
33
-94.6656
0
3DFACE
8
A2
10
200.000
20
120.000
30
-88.3580
11
210.000
21
120.000
31
-88.5254
12
210.000
22
130.000
32
-94.7204
13
200.000
23
130.000
33
-94.6952
0
3DFACE
8
A2
10
210.000
20
120.000
30
-88.5254
11
220.000
21
120.000
31
-88.7708
12
220.000
22
130.000
32
-94.7507
13
210.000
23
130.000
33
-94.7204
0
3DFACE
8
A2
10
220.000
20
120.000
30
-88.7708
11
230.000
21
120.000
31
-88.9814
12
230.000
22
130.000
32
-94.7507
13
220.000
23
130.000
33
-94.7507
0
3DFACE
8
A2
10
230.000
20
120.000
30
-88.9814
11
240.000
21
120.000
31
-89.1967
12
240.000
22
130.000
32
-94.8649
13
230.000
23
130.000
33
-94.7507
0
3DFACE
8
A2
10
240.000
20
120.000
30
-89.1967
11
250.000
21
120.000
31
-89.7295
12
250.000
22
130.000
32
-95.3875
13
240.000
23
130.000
33
-94.8649
0
3DFACE
8
A2
10
250.000
20
120.000
30
-89.7295
11
260.000
21
120.000
31
-90.1693
12
260.000
22
130.000
32
-95.8480
13
250.000
23
130.000
33
-95.3875
0
3DFACE
8
A2
10
260.000
20
120.000
30
-90.1693
11
270.000
21
120.000
31
-90.1038
12
270.000
22
130.000
32
-95.9099
13
260.000
23
130.000
33
-95.8480
0
3DFACE
8
A2
10
270.000
20
120.000
30
-90.1038
11
280.000
21
120.000
31
-89.1741
12
280.000
22
130.000
32
-95.6824
13
270.000
23
130.000
33
-95.9099
0
3DFACE
8
A2
10
280.000
20
120.000
30
-89.1741
11
290.000
21
120.000
31
-89.0711
12
290.000
22
130.000
32
-95.6496
13
280.000
23
130.000
33
-95.6824
0
3DFACE
8
A2
10
290.000
20
120.000
30
-89.0711
11
300.000
21
120.000
31
-89.0986
12
300.000
22
130.000
32
-95.6440
13
290.000
23
130.000
33
-95.6496
0
3DFACE
8
A2
10
300.000
20
120.000
30
-89.0986
11
310.000
21
120.000
31
-89.2809
12
310.000
22
130.000
32
-95.7992
13
300.000
23
130.000
33
-95.6440
0
3DFACE
8
A2
10
310.000
20
120.000
30
-89.2809
11
320.000
21
120.000
31
-89.8664
12
320.000
22
130.000
32
-96.3449
13
310.000
23
130.000
33
-95.7992
0
3DFACE
8
A2
10
320.000
20
120.000
30
-89.8664
11
330.000
21
120.000
31
-91.2946
12
330.000
22
130.000
32
-97.1755
13
320.000
23
130.000
33
-96.3449
0
3DFACE
8
A2
10
330.000
20
120.000
30
-91.2946
11
340.000
21
120.000
31
-91.8239
12
340.000
22
130.000
32
-97.6411
13
330.000
23
130.000
33
-97.1755
0
3DFACE
8
A2
10
340.000
20
120.000
30
-91.8239
11
350.000
21
120.000
31
-91.8719
12
350.000
22
130.000
32
-97.6167
13
340.000
23
130.000
33
-97.6411
0
3DFACE
8
A2
10
350.000
20
120.000
30
-91.8719
11
360.000
21
120.000
31
-91.7760
12
360.000
22
130.000
32
-97.4295
13
350.000
23
130.000
33
-97.6167
0
3DFACE
8
A2
10
360.000
20
120.000
30
-91.7760
11
370.000
21
120.000
31
-91.7234
12
370.000
22
130.000
32
-97.2963
13
360.000
23
130.000
33
-97.4295
0
3DFACE
8
A2
10
370.000
20
120.000
30
-91.7234
11
380.000
21
120.000
31
-91.5554
12
380.000
22
130.000
32
-97.0583
13
370.000
23
130.000
33
-97.2963
0
3DFACE
8
A2
10
380.000
20
120.000
30
-91.5554
11
390.000
21
120.000
31
-91.4244
12
390.000
22
130.000
32
-96.8680
13
380.000
23
130.000
33
-97.0583
0
3DFACE
8
A2
10
390.000
20
120.000
30
-91.4244
11
400.000
21
120.000
31
-91.2900
12
400.000
22
130.000
32
-96.6936
13
390.000
23
130.000
33
-96.8680
0
3DFACE
8
A2
10
400.000
20
120.000
30
-91.2900
11
410.000
21
120.000
31
-91.1833
12
410.000
22
130.000
32
-96.6138
13
400.000
23
130.000
33
-96.6936
0
3DFACE
8
A2
10
410.000
20
120.000
30
-91.1833
11
420.000
21
120.000
31
-90.9948
12
420.000
22
130.000
32
-96.5246
13
410.000
23
130.000
33
-96.6138
0
3DFACE
8
A2
10
420.000
20
120.000
30
-90.9948
11
430.000
21
120.000
31
-90.8789
12
430.000
22
130.000
32
-96.4748
13
420.000
23
130.000
33
-96.5246
0
3DFACE
8
A2
10
430.000
20
120.000
30
-90.8789
11
440.000
21
120.000
31
-91.0034
12
440.000
22
130.000
32
-96.8670
13
430.000
23
130.000
33
-96.4748
0
3DFACE
8
A2
10
440.000
20
120.000
30
-91.0034
11
450.000
21
120.000
31
-91.1825
12
450.000
22
130.000
32
-97.3160
13
440.000
23
130.000
33
-96.8670
0
3DFACE
8
A2
10
450.000
20
120.000
30
-91.1825
11
460.000
21
120.000
31
-91.3837
12
460.000
22
130.000
32
-97.7519
13
450.000
23
130.000
33
-97.3160
0
3DFACE
8
A2
10
460.000
20
120.000
30
-91.3837
11
470.000
21
120.000
31
-91.6467
12
470.000
22
130.000
32
-98.1793
13
460.000
23
130.000
33
-97.7519
0
3DFACE
8
A2
10
470.000
20
120.000
30
-91.6467
11
480.000
21
120.000
31
-91.9784
12
480.000
22
130.000
32
-98.7106
13
470.000
23
130.000
33
-98.1793
0
3DFACE
8
A2
10
480.000
20
120.000
30
-91.9784
11
490.000
21
120.000
31
-92.0680
12
490.000
22
130.000
32
-98.8001
13
480.000
23
130.000
33
-98.7106
0
3DFACE
8
A2
10
490.000
20
120.000
30
-92.0680
11
500.000
21
120.000
31
-92.1575
12
500.000
22
130.000
32
-98.8896
13
490.000
23
130.000
33
-98.8001
0
3DFACE
8
A2
10
500.000
20
120.000
30
-92.1575
11
510.000
21
120.000
31
-92.2470
12
510.000
22
130.000
32
-98.9791
13
500.000
23
130.000
33
-98.8896
0
3DFACE
8
A2
10
510.000
20
120.000
30
-92.2470
11
520.000
21
120.000
31
-92.3365
12
520.000
22
130.000
32
-99.0686
13
510.000
23
130.000
33
-98.9791
0
3DFACE
8
A2
10
520.000
20
120.000
30
-92.3365
11
530.000
21
120.000
31
-92.4260
12
530.000
22
130.000
32
-99.1582
13
520.000
23
130.000
33
-99.0686
0
3DFACE
8
A2
10
530.000
20
120.000
30
-92.4260
11
540.000
21
120.000
31
-92.4976
12
540.000
22
130.000
32
-99.2298
13
530.000
23
130.000
33
-99.1582
0
3DFACE
8
A2
10
540.000
20
120.000
30
-92.4976
11
550.000
21
120.000
31
-92.5513
12
550.000
22
130.000
32
-99.2835
13
540.000
23
130.000
33
-99.2298
0
3DFACE
8
A2
10
0.000
20
130.000
30
-96.0856
11
10.000
21
130.000
31
-96.3711
12
10.000
22
140.000
32
-103.0327
13
0.000
23
140.000
33
-102.5931
0
3DFACE
8
A2
10
10.000
20
130.000
30
-96.3711
11
20.000
21
130.000
31
-96.6022
12
20.000
22
140.000
32
-103.4722
13
10.000
23
140.000
33
-103.0327
0
3DFACE
8
A2
10
20.000
20
130.000
30
-96.6022
11
30.000
21
130.000
31
-96.7093
12
30.000
22
140.000
32
-103.8419
13
20.000
23
140.000
33
-103.4722
0
3DFACE
8
A2
10
30.000
20
130.000
30
-96.7093
11
40.000
21
130.000
31
-96.5189
12
40.000
22
140.000
32
-103.8795
13
30.000
23
140.000
33
-103.8419
0
3DFACE
8
A2
10
40.000
20
130.000
30
-96.5189
11
50.000
21
130.000
31
-96.0162
12
50.000
22
140.000
32
-103.5602
13
40.000
23
140.000
33
-103.8795
0
3DFACE
8
A2
10
50.000
20
130.000
30
-96.0162
11
60.000
21
130.000
31
-95.2423
12
60.000
22
140.000
32
-102.9257
13
50.000
23
140.000
33
-103.5602
0
3DFACE
8
A2
10
60.000
20
130.000
30
-95.2423
11
70.000
21
130.000
31
-94.2217
12
70.000
22
140.000
32
-101.9911
13
60.000
23
140.000
33
-102.9257
0
3DFACE
8
A2
10
70.000
20
130.000
30
-94.2217
11
80.000
21
130.000
31
-92.9770
12
80.000
22
140.000
32
-100.7538
13
70.000
23
140.000
33
-101.9911
0
3DFACE
8
A2
10
80.000
20
130.000
30
-92.9770
11
90.000
21
130.000
31
-92.0985
12
90.000
22
140.000
32
-99.7667
13
80.000
23
140.000
33
-100.7538
0
3DFACE
8
A2
10
90.000
20
130.000
30
-92.0985
11
100.000
21
130.000
31
-91.6263
12
100.000
22
140.000
32
-99.0818
13
90.000
23
140.000
33
-99.7667
0
3DFACE
8
A2
10
100.000
20
130.000
30
-91.6263
11
110.000
21
130.000
31
-91.6112
12
110.000
22
140.000
32
-98.7497
13
100.000
23
140.000
33
-99.0818
0
3DFACE
8
A2
10
110.000
20
130.000
30
-91.6112
11
120.000
21
130.000
31
-92.0962
12
120.000
22
140.000
32
-98.8482
13
110.000
23
140.000
33
-98.7497
0
3DFACE
8
A2
10
120.000
20
130.000
30
-92.0962
11
130.000
21
130.000
31
-93.0790
12
130.000
22
140.000
32
-99.5011
13
120.000
23
140.000
33
-98.8482
0
3DFACE
8
A2
10
130.000
20
130.000
30
-93.0790
11
140.000
21
130.000
31
-93.8389
12
140.000
22
140.000
32
-100.2758
13
130.000
23
140.000
33
-99.5011
0
3DFACE
8
A2
10
140.000
20
130.000
30
-93.8389
11
150.000
21
130.000
31
-94.3448
12
150.000
22
140.000
32
-100.6303
13
140.000
23
140.000
33
-100.2758
0
3DFACE
8
A2
10
150.000
20
130.000
30
-94.3448
11
160.000
21
130.000
31
-94.6440
12
160.000
22
140.000
32
-101.0706
13
150.000
23
140.000
33
-100.6303
0
3DFACE
8
A2
10
160.000
20
130.000
30
-94.6440
11
170.000
21
130.000
31
-94.7291
12
170.000
22
140.000
32
-101.2074
13
160.000
23
140.000
33
-101.0706
0
3DFACE
8
A2
10
170.000
20
130.000
30
-94.7291
11
180.000
21
130.000
31
-94.6786
12
180.000
22
140.000
32
-101.2529
13
170.000
23
140.000
33
-101.2074
0
3DFACE
8
A2
10
180.000
20
130.000
30
-94.6786
11
190.000
21
130.000
31
-94.6656
12
190.000
22
140.000
32
-101.0798
13
180.000
23
140.000
33
-101.2529
0
3DFACE
8
A2
10
190.000
20
130.000
30
-94.6656
11
200.000
21
130.000
31
-94.6952
12
200.000
22
140.000
32
-101.2237
13
190.000
23
140.000
33
-101.0798
0
3DFACE
8
A2
10
200.000
20
130.000
30
-94.6952
11
210.000
21
130.000
31
-94.7204
12
210.000
22
140.000
32
-101.1800
13
200.000
23
140.000
33
-101.2237
0
3DFACE
8
A2
10
210.000
20
130.000
30
-94.7204
11
220.000
21
130.000
31
-94.7507
12
220.000
22
140.000
32
-101.2530
13
210.000
23
140.000
33
-101.1800
0
3DFACE
8
A2
10
220.000
20
130.000
30
-94.7507
11
230.000
21
130.000
31
-94.7507
12
230.000
22
140.000
32
-101.1407
13
220.000
23
140.000
33
-101.2530
0
3DFACE
8
A2
10
230.000
20
130.000
30
-94.7507
11
240.000
21
130.000
31
-94.8649
12
240.000
22
140.000
32
-101.1510
13
230.000
23
140.000
33
-101.1407
0
3DFACE
8
A2
10
240.000
20
130.000
30
-94.8649
11
250.000
21
130.000
31
-95.3875
12
250.000
22
140.000
32
-101.6817
13
240.000
23
140.000
33
-101.1510
0
3DFACE
8
A2
10
250.000
20
130.000
30
-95.3875
11
260.000
21
130.000
31
-95.8480
12
260.000
22
140.000
32
-101.9929
13
250.000
23
140.000
33
-101.6817
0
3DFACE
8
A2
10
260.000
20
130.000
30
-95.8480
11
270.000
21
130.000
31
-95.9099
12
270.000
22
140.000
32
-101.9920
13
260.000
23
140.000
33
-101.9929
0
3DFACE
8
A2
10
270.000
20
130.000
30
-95.9099
11
280.000
21
130.000
31
-95.6824
12
280.000
22
140.000
32
-102.3204
13
270.000
23
140.000
33
-101.9920
0
3DFACE
8
A2
10
280.000
20
130.000
30
-95.6824
11
290.000
21
130.000
31
-95.6496
12
290.000
22
140.000
32
-102.5959
13
280.000
23
140.000
33
-102.3204
0
3DFACE
8
A2
10
290.000
20
130.000
30
-95.6496
11
300.000
21
130.000
31
-95.6440
12
300.000
22
140.000
32
-102.7033
13
290.000
23
140.000
33
-102.5959
0
3DFACE
8
A2
10
300.000
20
130.000
30
-95.6440
11
310.000
21
130.000
31
-95.7992
12
310.000
22
140.000
32
-102.9806
13
300.000
23
140.000
33
-102.7033
0
3DFACE
8
A2
10
310.000
20
130.000
30
-95.7992
11
320.000
21
130.000
31
-96.3449
12
320.000
22
140.000
32
-103.5753
13
310.000
23
140.000
33
-102.9806
0
3DFACE
8
A2
10
320.000
20
130.000
30
-96.3449
11
330.000
21
130.000
31
-97.1755
12
330.000
22
140.000
32
-103.8816
13
320.000
23
140.000
33
-103.5753
0
3DFACE
8
A2
10
330.000
20
130.000
30
-97.1755
11
340.000
21
130.000
31
-97.6411
12
340.000
22
140.000
32
-103.9561
13
330.000
23
140.000
33
-103.8816
0
3DFACE
8
A2
10
340.000
20
130.000
30
-97.6411
11
350.000
21
130.000
31
-97.6167
12
350.000
22
140.000
32
-103.5909
13
340.000
23
140.000
33
-103.9561
0
3DFACE
8
A2
10
350.000
20
130.000
30
-97.6167
11
360.000
21
130.000
31
-97.4295
12
360.000
22
140.000
32
-103.1947
13
350.000
23
140.000
33
-103.5909
0
3DFACE
8
A2
10
360.000
20
130.000
30
-97.4295
11
370.000
21
130.000
31
-97.2963
12
370.000
22
140.000
32
-102.7861
13
360.000
23
140.000
33
-103.1947
0
3DFACE
8
A2
10
370.000
20
130.000
30
-97.2963
11
380.000
21
130.000
31
-97.0583
12
380.000
22
140.000
32
-102.4162
13
370.000
23
140.000
33
-102.7861
0
3DFACE
8
A2
10
380.000
20
130.000
30
-97.0583
11
390.000
21
130.000
31
-96.8680
12
390.000
22
140.000
32
-102.1421
13
380.000
23
140.000
33
-102.4162
0
3DFACE
8
A2
10
390.000
20
130.000
30
-96.8680
11
400.000
21
130.000
31
-96.6936
12
400.000
22
140.000
32
-101.8892
13
390.000
23
140.000
33
-102.1421
0
3DFACE
8
A2
10
400.000
20
130.000
30
-96.6936
11
410.000
21
130.000
31
-96.6138
12
410.000
22
140.000
32
-101.7313
13
400.000
23
140.000
33
-101.8892
0
3DFACE
8
A2
10
410.000
20
130.000
30
-96.6138
11
420.000
21
130.000
31
-96.5246
12
420.000
22
140.000
32
-101.7034
13
410.000
23
140.000
33
-101.7313
0
3DFACE
8
A2
10
420.000
20
130.000
30
-96.5246
11
430.000
21
130.000
31
-96.4748
12
430.000
22
140.000
32
-101.8205
13
420.000
23
140.000
33
-101.7034
0
3DFACE
8
A2
10
430.000
20
130.000
30
-96.4748
11
440.000
21
130.000
31
-96.8670
12
440.000
22
140.000
32
-102.5381
13
430.000
23
140.000
33
-101.8205
0
3DFACE
8
A2
10
440.000
20
130.000
30
-96.8670
11
450.000
21
130.000
31
-97.3160
12
450.000
22
140.000
32
-103.3257
13
440.000
23
140.000
33
-102.5381
0
3DFACE
8
A2
10
450.000
20
130.000
30
-97.3160
11
460.000
21
130.000
31
-97.7519
12
460.000
22
140.000
32
-104.1011
13
450.000
23
140.000
33
-103.3257
0
3DFACE
8
A2
10
460.000
20
130.000
30
-97.7519
11
470.000
21
130.000
31
-98.1793
12
470.000
22
140.000
32
-104.8280
13
460.000
23
140.000
33
-104.1011
0
3DFACE
8
A2
10
470.000
20
130.000
30
-98.1793
11
480.000
21
130.000
31
-98.7106
12
480.000
22
140.000
32
-105.4428
13
470.000
23
140.000
33
-104.8280
0
3DFACE
8
A2
10
480.000
20
130.000
30
-98.7106
11
490.000
21
130.000
31
-98.8001
12
490.000
22
140.000
32
-105.5323
13
480.000
23
140.000
33
-105.4428
0
3DFACE
8
A2
10
490.000
20
130.000
30
-98.8001
11
500.000
21
130.000
31
-98.8896
12
500.000
22
140.000
32
-105.6218
13
490.000
23
140.000
33
-105.5323
0
3DFACE
8
A2
10
500.000
20
130.000
30
-98.8896
11
510.000
21
130.000
31
-98.9791
12
510.000
22
140.000
32
-105.7113
13
500.000
23
140.000
33
-105.6218
0
3DFACE
8
A2
10
510.000
20
130.000
30
-98.9791
11
520.000
21
130.000
31
-99.0686
12
520.000
22
140.000
32
-105.8008
13
510.000
23
140.000
33
-105.7113
0
3DFACE
8
A2
10
520.000
20
130.000
30
-99.0686
11
530.000
21
130.000
31
-99.1582
12
530.000
22
140.000
32
-105.8903
13
520.000
23
140.000
33
-105.8008
0
3DFACE
8
A2
10
530.000
20
130.000
30
-99.1582
11
540.000
21
130.000
31
-99.2298
12
540.000
22
140.000
32
-105.9619
13
530.000
23
140.000
33
-105.8903
0
3DFACE
8
A2
10
540.000
20
130.000
30
-99.2298
11
550.000
21
130.000
31
-99.2835
12
550.000
22
140.000
32
-106.0156
13
540.000
23
140.000
33
-105.9619
0
3DFACE
8
A2
10
0.000
20
140.000
30
-102.5931
11
10.000
21
140.000
31
-103.0327
12
10.000
22
150.000
32
-109.6843
13
0.000
23
150.000
33
-109.2000
0
3DFACE
8
A2
10
10.000
20
140.000
30
-103.0327
11
20.000
21
140.000
31
-103.4722
12
20.000
22
150.000
32
-110.2258
13
10.000
23
150.000
33
-109.6843
0
3DFACE
8
A2
10
20.000
20
140.000
30
-103.4722
11
30.000
21
140.000
31
-103.8419
12
30.000
22
150.000
32
-110.7548
13
20.000
23
150.000
33
-110.2258
0
3DFACE
8
A2
10
30.000
20
140.000
30
-103.8419
11
40.000
21
140.000
31
-103.8795
12
40.000
22
150.000
32
-110.9617
13
30.000
23
150.000
33
-110.7548
0
3DFACE
8
A2
10
40.000
20
140.000
30
-103.8795
11
50.000
21
140.000
31
-103.5602
12
50.000
22
150.000
32
-110.7291
13
40.000
23
150.000
33
-110.9617
0
3DFACE
8
A2
10
50.000
20
140.000
30
-103.5602
11
60.000
21
140.000
31
-102.9257
12
60.000
22
150.000
32
-110.0815
13
50.000
23
150.000
33
-110.7291
0
3DFACE
8
A2
10
60.000
20
140.000
30
-102.9257
11
70.000
21
140.000
31
-101.9911
12
70.000
22
150.000
32
-109.0453
13
60.000
23
150.000
33
-110.0815
0
3DFACE
8
A2
10
70.000
20
140.000
30
-101.9911
11
80.000
21
140.000
31
-100.7538
12
80.000
22
150.000
32
-107.6870
13
70.000
23
150.000
33
-109.0453
0
3DFACE
8
A2
10
80.000
20
140.000
30
-100.7538
11
90.000
21
140.000
31
-99.7667
12
90.000
22
150.000
32
-106.6450
13
80.000
23
150.000
33
-107.6870
0
3DFACE
8
A2
10
90.000
20
140.000
30
-99.7667
11
100.000
21
140.000
31
-99.0818
12
100.000
22
150.000
32
-105.9711
13
90.000
23
150.000
33
-106.6450
0
3DFACE
8
A2
10
100.000
20
140.000
30
-99.0818
11
110.000
21
140.000
31
-98.7497
12
110.000
22
150.000
32
-105.7160
13
100.000
23
150.000
33
-105.9711
0
3DFACE
8
A2
10
110.000
20
140.000
30
-98.7497
11
120.000
21
140.000
31
-98.8482
12
120.000
22
150.000
32
-105.9486
13
110.000
23
150.000
33
-105.7160
0
3DFACE
8
A2
10
120.000
20
140.000
30
-98.8482
11
130.000
21
140.000
31
-99.5011
12
130.000
22
150.000
32
-106.7270
13
120.000
23
150.000
33
-105.9486
0
3DFACE
8
A2
10
130.000
20
140.000
30
-99.5011
11
140.000
21
140.000
31
-100.2758
12
140.000
22
150.000
32
-107.2666
13
130.000
23
150.000
33
-106.7270
0
3DFACE
8
A2
10
140.000
20
140.000
30
-100.2758
11
150.000
21
140.000
31
-100.6303
12
150.000
22
150.000
32
-107.4181
13
140.000
23
150.000
33
-107.2666
0
3DFACE
8
A2
10
150.000
20
140.000
30
-100.6303
11
160.000
21
140.000
31
-101.0706
12
160.000
22
150.000
32
-107.8403
13
150.000
23
150.000
33
-107.4181
0
3DFACE
8
A2
10
160.000
20
140.000
30
-101.0706
11
170.000
21
140.000
31
-101.2074
12
170.000
22
150.000
32
-107.8958
13
160.000
23
150.000
33
-107.8403
0
3DFACE
8
A2
10
170.000
20
140.000
30
-101.2074
11
180.000
21
140.000
31
-101.2529
12
180.000
22
150.000
32
-107.8041
13
170.000
23
150.000
33
-107.8958
0
3DFACE
8
A2
10
180.000
20
140.000
30
-101.2529
11
190.000
21
140.000
31
-101.0798
12
190.000
22
150.000
32
-107.8342
13
180.000
23
150.000
33
-107.8041
0
3DFACE
8
A2
10
190.000
20
140.000
30
-101.0798
11
200.000
21
140.000
31
-101.2237
12
200.000
22
150.000
32
-108.1513
13
190.000
23
150.000
33
-107.8342
0
3DFACE
8
A2
10
200.000
20
140.000
30
-101.2237
11
210.000
21
140.000
31
-101.1800
12
210.000
22
150.000
32
-108.0878
13
200.000
23
150.000
33
-108.1513
0
3DFACE
8
A2
10
210.000
20
140.000
30
-101.1800
11
220.000
21
140.000
31
-101.2530
12
220.000
22
150.000
32
-108.1744
13
210.000
23
150.000
33
-108.0878
0
3DFACE
8
A2
10
220.000
20
140.000
30
-101.2530
11
230.000
21
140.000
31
-101.1407
12
230.000
22
150.000
32
-108.0683
13
220.000
23
150.000
33
-108.1744
0
3DFACE
8
A2
10
230.000
20
140.000
30
-101.1407
11
240.000
21
140.000
31
-101.1510
12
240.000
22
150.000
32
-108.0828
13
230.000
23
150.000
33
-108.0683
0
3DFACE
8
A2
10
240.000
20
140.000
30
-101.1510
11
250.000
21
140.000
31
-101.6817
12
250.000
22
150.000
32
-108.5917
13
240.000
23
150.000
33
-108.0828
0
3DFACE
8
A2
10
250.000
20
140.000
30
-101.6817
11
260.000
21
140.000
31
-101.9929
12
260.000
22
150.000
32
-108.9929
13
250.000
23
150.000
33
-108.5917
0
3DFACE
8
A2
10
260.000
20
140.000
30
-101.9929
11
270.000
21
140.000
31
-101.9920
12
270.000
22
150.000
32
-108.8321
13
260.000
23
150.000
33
-108.9929
0
3DFACE
8
A2
10
270.000
20
140.000
30
-101.9920
11
280.000
21
140.000
31
-102.3204
12
280.000
22
150.000
32
-109.0171
13
270.000
23
150.000
33
-108.8321
0
3DFACE
8
A2
10
280.000
20
140.000
30
-102.3204
11
290.000
21
140.000
31
-102.5959
12
290.000
22
150.000
32
-109.6728
13
280.000
23
150.000
33
-109.0171
0
3DFACE
8
A2
10
290.000
20
140.000
30
-102.5959
11
300.000
21
140.000
31
-102.7033
12
300.000
22
150.000
32
-109.9166
13
290.000
23
150.000
33
-109.6728
0
3DFACE
8
A2
10
300.000
20
140.000
30
-102.7033
11
310.000
21
140.000
31
-102.9806
12
310.000
22
150.000
32
-110.1545
13
300.000
23
150.000
33
-109.9166
0
3DFACE
8
A2
10
310.000
20
140.000
30
-102.9806
11
320.000
21
140.000
31
-103.5753
12
320.000
22
150.000
32
-110.9302
13
310.000
23
150.000
33
-110.1545
0
3DFACE
8
A2
10
320.000
20
140.000
30
-103.5753
11
330.000
21
140.000
31
-103.8816
12
330.000
22
150.000
32
-111.3843
13
320.000
23
150.000
33
-110.9302
0
3DFACE
8
A2
10
330.000
20
140.000
30
-103.8816
11
340.000
21
140.000
31
-103.9561
12
340.000
22
150.000
32
-111.0603
13
330.000
23
150.000
33
-111.3843
0
3DFACE
8
A2
10
340.000
20
140.000
30
-103.9561
11
350.000
21
140.000
31
-103.5909
12
350.000
22
150.000
32
-110.5204
13
340.000
23
150.000
33
-111.0603
0
3DFACE
8
A2
10
350.000
20
140.000
30
-103.5909
11
360.000
21
140.000
31
-103.1947
12
360.000
22
150.000
32
-109.9779
13
350.000
23
150.000
33
-110.5204
0
3DFACE
8
A2
10
360.000
20
140.000
30
-103.1947
11
370.000
21
140.000
31
-102.7861
12
370.000
22
150.000
32
-109.4357
13
360.000
23
150.000
33
-109.9779
0
3DFACE
8
A2
10
370.000
20
140.000
30
-102.7861
11
380.000
21
140.000
31
-102.4162
12
380.000
22
150.000
32
-108.9116
13
370.000
23
150.000
33
-109.4357
0
3DFACE
8
A2
10
380.000
20
140.000
30
-102.4162
11
390.000
21
140.000
31
-102.1421
12
390.000
22
150.000
32
-108.3757
13
380.000
23
150.000
33
-108.9116
0
3DFACE
8
A2
10
390.000
20
140.000
30
-102.1421
11
400.000
21
140.000
31
-101.8892
12
400.000
22
150.000
32
-107.9041
13
390.000
23
150.000
33
-108.3757
0
3DFACE
8
A2
10
400.000
20
140.000
30
-101.8892
11
410.000
21
140.000
31
-101.7313
12
410.000
22
150.000
32
-107.4913
13
400.000
23
150.000
33
-107.9041
0
3DFACE
8
A2
10
410.000
20
140.000
30
-101.7313
11
420.000
21
140.000
31
-101.7034
12
420.000
22
150.000
32
-107.1423
13
410.000
23
150.000
33
-107.4913
0
3DFACE
8
A2
10
420.000
20
140.000
30
-101.7034
11
430.000
21
140.000
31
-101.8205
12
430.000
22
150.000
32
-107.0249
13
420.000
23
150.000
33
-107.1423
0
3DFACE
8
A2
10
430.000
20
140.000
30
-101.8205
11
440.000
21
140.000
31
-102.5381
12
440.000
22
150.000
32
-108.0005
13
430.000
23
150.000
33
-107.0249
0
3DFACE
8
A2
10
440.000
20
140.000
30
-102.5381
11
450.000
21
140.000
31
-103.3257
12
450.000
22
150.000
32
-109.0235
13
440.000
23
150.000
33
-108.0005
0
3DFACE
8
A2
10
450.000
20
140.000
30
-103.3257
11
460.000
21
140.000
31
-104.1011
12
460.000
22
150.000
32
-110.0909
13
450.000
23
150.000
33
-109.0235
0
3DFACE
8
A2
10
460.000
20
140.000
30
-104.1011
11
470.000
21
140.000
31
-104.8280
12
470.000
22
150.000
32
-111.1967
13
460.000
23
150.000
33
-110.0909
0
3DFACE
8
A2
10
470.000
20
140.000
30
-104.8280
11
480.000
21
140.000
31
-105.4428
12
480.000
22
150.000
32
-112.1750
13
470.000
23
150.000
33
-111.1967
0
3DFACE
8
A2
10
480.000
20
140.000
30
-105.4428
11
490.000
21
140.000
31
-105.5323
12
490.000
22
150.000
32
-112.2645
13
480.000
23
150.000
33
-112.1750
0
3DFACE
8
A2
10
490.000
20
140.000
30
-105.5323
11
500.000
21
140.000
31
-105.6218
12
500.000
22
150.000
32
-112.3540
13
490.000
23
150.000
33
-112.2645
0
3DFACE
8
A2
10
500.000
20
140.000
30
-105.6218
11
510.000
21
140.000
31
-105.7113
12
510.000
22
150.000
32
-112.4435
13
500.000
23
150.000
33
-112.3540
0
3DFACE
8
A2
10
510.000
20
140.000
30
-105.7113
11
520.000
21
140.000
31
-105.8008
12
520.000
22
150.000
32
-112.5330
13
510.000
23
150.000
33
-112.4435
0
3DFACE
8
A2
10
520.000
20
140.000
30
-105.8008
11
530.000
21
140.000
31
-105.8903
12
530.000
22
150.000
32
-112.6225
13
520.000
23
150.000
33
-112.5330
0
3DFACE
8
A2
10
530.000
20
140.000
30
-105.8903
11
540.000
21
140.000
31
-105.9619
12
540.000
22
150.000
32
-112.6941
13
530.000
23
150.000
33
-112.6225
0
3DFACE
8
A2
10
540.000
20
140.000
30
-105.9619
11
550.000
21
140.000
31
-106.0156
12
550.000
22
150.000
32
-112.7478
13
540.000
23
150.000
33
-112.6941
0
3DFACE
8
A2
10
0.000
20
150.000
30
-109.2000
11
10.000
21
150.000
31
-109.6843
12
10.000
22
160.000
32
-116.4263
13
0.000
23
160.000
33
-115.9611
0
3DFACE
8
A2
10
10.000
20
150.000
30
-109.6843
11
20.000
21
150.000
31
-110.2258
12
20.000
22
160.000
32
-117.0036
13
10.000
23
160.000
33
-116.4263
0
3DFACE
8
A2
10
20.000
20
150.000
30
-110.2258
11
30.000
21
150.000
31
-110.7548
12
30.000
22
160.000
32
-117.6198
13
20.000
23
160.000
33
-117.0036
0
3DFACE
8
A2
10
30.000
20
150.000
30
-110.7548
11
40.000
21
150.000
31
-110.9617
12
40.000
22
160.000
32
-117.8602
13
30.000
23
160.000
33
-117.6198
0
3DFACE
8
A2
10
40.000
20
150.000
30
-110.9617
11
50.000
21
150.000
31
-110.7291
12
50.000
22
160.000
32
-117.6834
13
40.000
23
160.000
33
-117.8602
0
3DFACE
8
A2
10
50.000
20
150.000
30
-110.7291
11
60.000
21
150.000
31
-110.0815
12
60.000
22
160.000
32
-117.0156
13
50.000
23
160.000
33
-117.6834
0
3DFACE
8
A2
10
60.000
20
150.000
30
-110.0815
11
70.000
21
150.000
31
-109.0453
12
70.000
22
160.000
32
-115.9242
13
60.000
23
160.000
33
-117.0156
0
3DFACE
8
A2
10
70.000
20
150.000
30
-109.0453
11
80.000
21
150.000
31
-107.6870
12
80.000
22
160.000
32
-114.4455
13
70.000
23
160.000
33
-115.9242
0
3DFACE
8
A2
10
80.000
20
150.000
30
-107.6870
11
90.000
21
150.000
31
-106.6450
12
90.000
22
160.000
32
-113.2962
13
80.000
23
160.000
33
-114.4455
0
3DFACE
8
A2
10
90.000
20
150.000
30
-106.6450
11
100.000
21
150.000
31
-105.9711
12
100.000
22
160.000
32
-112.5184
13
90.000
23
160.000
33
-113.2962
0
3DFACE
8
A2
10
100.000
20
150.000
30
-105.9711
11
110.000
21
150.000
31
-105.7160
12
110.000
22
160.000
32
-112.1490
13
100.000
23
160.000
33
-112.5184
0
3DFACE
8
A2
10
110.000
20
150.000
30
-105.7160
11
120.000
21
150.000
31
-105.9486
12
120.000
22
160.000
32
-112.2034
13
110.000
23
160.000
33
-112.1490
0
3DFACE
8
A2
10
120.000
20
150.000
30
-105.9486
11
130.000
21
150.000
31
-106.7270
12
130.000
22
160.000
32
-112.7735
13
120.000
23
160.000
33
-112.2034
0
3DFACE
8
A2
10
130.000
20
150.000
30
-106.7270
11
140.000
21
150.000
31
-107.2666
12
140.000
22
160.000
32
-113.1736
13
130.000
23
160.000
33
-112.7735
0
3DFACE
8
A2
10
140.000
20
150.000
30
-107.2666
11
150.000
21
150.000
31
-107.4181
12
150.000
22
160.000
32
-113.5351
13
140.000
23
160.000
33
-113.1736
0
3DFACE
8
A2
10
150.000
20
150.000
30
-107.4181
11
160.000
21
150.000
31
-107.8403
12
160.000
22
160.000
32
-114.1983
13
150.000
23
160.000
33
-113.5351
0
3DFACE
8
A2
10
160.000
20
150.000
30
-107.8403
11
170.000
21
150.000
31
-107.8958
12
170.000
22
160.000
32
-114.5219
13
160.000
23
160.000
33
-114.1983
0
3DFACE
8
A2
10
170.000
20
150.000
30
-107.8958
11
180.000
21
150.000
31
-107.8041
12
180.000
22
160.000
32
-114.7414
13
170.000
23
160.000
33
-114.5219
0
3DFACE
8
A2
10
180.000
20
150.000
30
-107.8041
11
190.000
21
150.000
31
-107.8342
12
190.000
22
160.000
32
-115.0620
13
180.000
23
160.000
33
-114.7414
0
3DFACE
8
A2
10
190.000
20
150.000
30
-107.8342
11
200.000
21
150.000
31
-108.1513
12
200.000
22
160.000
32
-115.3895
13
190.000
23
160.000
33
-115.0620
0
3DFACE
8
A2
10
200.000
20
150.000
30
-108.1513
11
210.000
21
150.000
31
-108.0878
12
210.000
22
160.000
32
-115.3647
13
200.000
23
160.000
33
-115.3895
0
3DFACE
8
A2
10
210.000
20
150.000
30
-108.0878
11
220.000
21
150.000
31
-108.1744
12
220.000
22
160.000
32
-115.5030
13
210.000
23
160.000
33
-115.3647
0
3DFACE
8
A2
10
220.000
20
150.000
30
-108.1744
11
230.000
21
150.000
31
-108.0683
12
230.000
22
160.000
32
-115.4965
13
220.000
23
160.000
33
-115.5030
0
3DFACE
8
A2
10
230.000
20
150.000
30
-108.0683
11
240.000
21
150.000
31
-108.0828
12
240.000
22
160.000
32
-115.6324
13
230.000
23
160.000
33
-115.4965
0
3DFACE
8
A2
10
240.000
20
150.000
30
-108.0828
11
250.000
21
150.000
31
-108.5917
12
250.000
22
160.000
32
-116.1294
13
240.000
23
160.000
33
-115.6324
0
3DFACE
8
A2
10
250.000
20
150.000
30
-108.5917
11
260.000
21
150.000
31
-108.9929
12
260.000
22
160.000
32
-116.5885
13
250.000
23
160.000
33
-116.1294
0
3DFACE
8
A2
10
260.000
20
150.000
30
-108.9929
11
270.000
21
150.000
31
-108.8321
12
270.000
22
160.000
32
-116.7222
13
260.000
23
160.000
33
-116.5885
0
3DFACE
8
A2
10
270.000
20
150.000
30
-108.8321
11
280.000
21
150.000
31
-109.0171
12
280.000
22
160.000
32
-116.9515
13
270.000
23
160.000
33
-116.7222
0
3DFACE
8
A2
10
280.000
20
150.000
30
-109.0171
11
290.000
21
150.000
31
-109.6728
12
290.000
22
160.000
32
-117.8639
13
280.000
23
160.000
33
-116.9515
0
3DFACE
8
A2
10
290.000
20
150.000
30
-109.6728
11
300.000
21
150.000
31
-109.9166
12
300.000
22
160.000
32
-118.2962
13
290.000
23
160.000
33
-117.8639
0
3DFACE
8
A2
10
300.000
20
150.000
30
-109.9166
11
310.000
21
150.000
31
-110.1545
12
310.000
22
160.000
32
-118.6040
13
300.000
23
160.000
33
-118.2962
0
3DFACE
8
A2
10
310.000
20
150.000
30
-110.1545
11
320.000
21
150.000
31
-110.9302
12
320.000
22
160.000
32
-119.1765
13
310.000
23
160.000
33
-118.6040
0
3DFACE
8
A2
10
320.000
20
150.000
30
-110.9302
11
330.000
21
150.000
31
-111.3843
12
330.000
22
160.000
32
-119.6099
13
320.000
23
160.000
33
-119.1765
0
3DFACE
8
A2
10
330.000
20
150.000
30
-111.3843
11
340.000
21
150.000
31
-111.0603
12
340.000
22
160.000
32
-118.9951
13
330.000
23
160.000
33
-119.6099
0
3DFACE
8
A2
10
340.000
20
150.000
30
-111.0603
11
350.000
21
150.000
31
-110.5204
12
350.000
22
160.000
32
-118.3196
13
340.000
23
160.000
33
-118.9951
0
3DFACE
8
A2
10
350.000
20
150.000
30
-110.5204
11
360.000
21
150.000
31
-109.9779
12
360.000
22
160.000
32
-117.6544
13
350.000
23
160.000
33
-118.3196
0
3DFACE
8
A2
10
360.000
20
150.000
30
-109.9779
11
370.000
21
150.000
31
-109.4357
12
370.000
22
160.000
32
-117.0096
13
360.000
23
160.000
33
-117.6544
0
3DFACE
8
A2
10
370.000
20
150.000
30
-109.4357
11
380.000
21
150.000
31
-108.9116
12
380.000
22
160.000
32
-116.3831
13
370.000
23
160.000
33
-117.0096
0
3DFACE
8
A2
10
380.000
20
150.000
30
-108.9116
11
390.000
21
150.000
31
-108.3757
12
390.000
22
160.000
32
-115.7091
13
380.000
23
160.000
33
-116.3831
0
3DFACE
8
A2
10
390.000
20
150.000
30
-108.3757
11
400.000
21
150.000
31
-107.9041
12
400.000
22
160.000
32
-115.0888
13
390.000
23
160.000
33
-115.7091
0
3DFACE
8
A2
10
400.000
20
150.000
30
-107.9041
11
410.000
21
150.000
31
-107.4913
12
410.000
22
160.000
32
-114.5607
13
400.000
23
160.000
33
-115.0888
0
3DFACE
8
A2
10
410.000
20
150.000
30
-107.4913
11
420.000
21
150.000
31
-107.1423
12
420.000
22
160.000
32
-114.2050
13
410.000
23
160.000
33
-114.5607
0
3DFACE
8
A2
10
420.000
20
150.000
30
-107.1423
11
430.000
21
150.000
31
-107.0249
12
430.000
22
160.000
32
-113.8645
13
420.000
23
160.000
33
-114.2050
0
3DFACE
8
A2
10
430.000
20
150.000
30
-107.0249
11
440.000
21
150.000
31
-108.0005
12
440.000
22
160.000
32
-114.7893
13
430.000
23
160.000
33
-113.8645
0
3DFACE
8
A2
10
440.000
20
150.000
30
-108.0005
11
450.000
21
150.000
31
-109.0235
12
450.000
22
160.000
32
-115.7927
13
440.000
23
160.000
33
-114.7893
0
3DFACE
8
A2
10
450.000
20
150.000
30
-109.0235
11
460.000
21
150.000
31
-110.0909
12
460.000
22
160.000
32
-116.8275
13
450.000
23
160.000
33
-115.7927
0
3DFACE
8
A2
10
460.000
20
150.000
30
-110.0909
11
470.000
21
150.000
31
-111.1967
12
470.000
22
160.000
32
-117.8126
13
460.000
23
160.000
33
-116.8275
0
3DFACE
8
A2
10
470.000
20
150.000
30
-111.1967
11
480.000
21
150.000
31
-112.1750
12
480.000
22
160.000
32
-118.9072
13
470.000
23
160.000
33
-117.8126
0
3DFACE
8
A2
10
480.000
20
150.000
30
-112.1750
11
490.000
21
150.000
31
-112.2645
12
490.000
22
160.000
32
-118.9967
13
480.000
23
160.000
33
-118.9072
0
3DFACE
8
A2
10
490.000
20
150.000
30
-112.2645
11
500.000
21
150.000
31
-112.3540
12
500.000
22
160.000
32
-119.0862
13
490.000
23
160.000
33
-118.9967
0
3DFACE
8
A2
10
500.000
20
150.000
30
-112.3540
11
510.000
21
150.000
31
-112.4435
12
510.000
22
160.000
32
-119.1757
13
500.000
23
160.000
33
-119.0862
0
3DFACE
8
A2
10
510.000
20
150.000
30
-112.4435
11
520.000
21
150.000
31
-112.5330
12
520.000
22
160.000
32
-119.2652
13
510.000
23
160.000
33
-119.1757
0
3DFACE
8
A2
10
520.000
20
150.000
30
-112.5330
11
530.000
21
150.000
31
-112.6225
12
530.000
22
160.000
32
-119.3547
13
520.000
23
160.000
33
-119.2652
0
3DFACE
8
A2
10
530.000
20
150.000
30
-112.6225
11
540.000
21
150.000
31
-112.6941
12
540.000
22
160.000
32
-119.4263
13
530.000
23
160.000
33
-119.3547
0
3DFACE
8
A2
10
540.000
20
150.000
30
-112.6941
11
550.000
21
150.000
31
-112.7478
12
550.000
22
160.000
32
-119.4800
13
540.000
23
160.000
33
-119.4263
0
3DFACE
8
A2
10
0.000
20
160.000
30
-115.9611
11
10.000
21
160.000
31
-116.4263
12
10.000
22
170.000
32
-123.2868
13
0.000
23
170.000
33
-122.8866
0
3DFACE
8
A2
10
10.000
20
160.000
30
-116.4263
11
20.000
21
160.000
31
-117.0036
12
20.000
22
170.000
32
-123.8321
13
10.000
23
170.000
33
-123.2868
0
3DFACE
8
A2
10
20.000
20
160.000
30
-117.0036
11
30.000
21
160.000
31
-117.6198
12
30.000
22
170.000
32
-124.4675
13
20.000
23
170.000
33
-123.8321
0
3DFACE
8
A2
10
30.000
20
160.000
30
-117.6198
11
40.000
21
160.000
31
-117.8602
12
40.000
22
170.000
32
-124.6946
13
30.000
23
170.000
33
-124.4675
0
3DFACE
8
A2
10
40.000
20
160.000
30
-117.8602
11
50.000
21
160.000
31
-117.6834
12
50.000
22
170.000
32
-124.4964
13
40.000
23
170.000
33
-124.6946
0
3DFACE
8
A2
10
50.000
20
160.000
30
-117.6834
11
60.000
21
160.000
31
-117.0156
12
60.000
22
170.000
32
-123.8692
13
50.000
23
170.000
33
-124.4964
0
3DFACE
8
A2
10
60.000
20
160.000
30
-117.0156
11
70.000
21
160.000
31
-115.9242
12
70.000
22
170.000
32
-122.7916
13
60.000
23
170.000
33
-123.8692
0
3DFACE
8
A2
10
70.000
20
160.000
30
-115.9242
11
80.000
21
160.000
31
-114.4455
12
80.000
22
170.000
32
-121.2738
13
70.000
23
170.000
33
-122.7916
0
3DFACE
8
A2
10
80.000
20
160.000
30
-114.4455
11
90.000
21
160.000
31
-113.2962
12
90.000
22
170.000
32
-120.0957
13
80.000
23
170.000
33
-121.2738
0
3DFACE
8
A2
10
90.000
20
160.000
30
-113.2962
11
100.000
21
160.000
31
-112.5184
12
100.000
22
170.000
32
-119.2832
13
90.000
23
170.000
33
-120.0957
0
3DFACE
8
A2
10
100.000
20
160.000
30
-112.5184
11
110.000
21
160.000
31
-112.1490
12
110.000
22
170.000
32
-118.8391
13
100.000
23
170.000
33
-119.2832
0
3DFACE
8
A2
10
110.000
20
160.000
30
-112.1490
11
120.000
21
160.000
31
-112.2034
12
120.000
22
170.000
32
-118.8319
13
110.000
23
170.000
33
-118.8391
0
3DFACE
8
A2
10
120.000
20
160.000
30
-112.2034
11
130.000
21
160.000
31
-112.7735
12
130.000
22
170.000
32
-119.3917
13
120.000
23
170.000
33
-118.8319
0
3DFACE
8
A2
10
130.000
20
160.000
30
-112.7735
11
140.000
21
160.000
31
-113.1736
12
140.000
22
170.000
32
-119.9834
13
130.000
23
170.000
33
-119.3917
0
3DFACE
8
A2
10
140.000
20
160.000
30
-113.1736
11
150.000
21
160.000
31
-113.5351
12
150.000
22
170.000
32
-120.5329
13
140.000
23
170.000
33
-119.9834
0
3DFACE
8
A2
10
150.000
20
160.000
30
-113.5351
11
160.000
21
160.000
31
-114.1983
12
160.000
22
170.000
32
-121.3603
13
150.000
23
170.000
33
-120.5329
0
3DFACE
8
A2
10
160.000
20
160.000
30
-114.1983
11
170.000
21
160.000
31
-114.5219
12
170.000
22
170.000
32
-121.8595
13
160.000
23
170.000
33
-121.3603
0
3DFACE
8
A2
10
170.000
20
160.000
30
-114.5219
11
180.000
21
160.000
31
-114.7414
12
180.000
22
170.000
32
-122.2359
13
170.000
23
170.000
33
-121.8595
0
3DFACE
8
A2
10
180.000
20
160.000
30
-114.7414
11
190.000
21
160.000
31
-115.0620
12
190.000
22
170.000
32
-122.5540
13
180.000
23
170.000
33
-122.2359
0
3DFACE
8
A2
10
190.000
20
160.000
30
-115.0620
11
200.000
21
160.000
31
-115.3895
12
200.000
22
170.000
32
-122.9345
13
190.000
23
170.000
33
-122.5540
0
3DFACE
8
A2
10
200.000
20
160.000
30
-115.3895
11
210.000
21
160.000
31
-115.3647
12
210.000
22
170.000
32
-123.0284
13
200.000
23
170.000
33
-122.9345
0
3DFACE
8
A2
10
210.000
20
160.000
30
-115.3647
11
220.000
21
160.000
31
-115.5030
12
220.000
22
170.000
32
-123.3012
13
210.000
23
170.000
33
-123.0284
0
3DFACE
8
A2
10
220.000
20
160.000
30
-115.5030
11
230.000
21
160.000
31
-115.4965
12
230.000
22
170.000
32
-123.4769
13
220.000
23
170.000
33
-123.3012
0
3DFACE
8
A2
10
230.000
20
160.000
30
-115.4965
11
240.000
21
160.000
31
-115.6324
12
240.000
22
170.000
32
-123.7569
13
230.000
23
170.000
33
-123.4769
0
3DFACE
8
A2
10
240.000
20
160.000
30
-115.6324
11
250.000
21
160.000
31
-116.1294
12
250.000
22
170.000
32
-124.2563
13
240.000
23
170.000
33
-123.7569
0
3DFACE
8
A2
10
250.000
20
160.000
30
-116.1294
11
260.000
21
160.000
31
-116.5885
12
260.000
22
170.000
32
-124.7847
13
250.000
23
170.000
33
-124.2563
0
3DFACE
8
A2
10
260.000
20
160.000
30
-116.5885
11
270.000
21
160.000
31
-116.7222
12
270.000
22
170.000
32
-125.1463
13
260.000
23
170.000
33
-124.7847
0
3DFACE
8
A2
10
270.000
20
160.000
30
-116.7222
11
280.000
21
160.000
31
-116.9515
12
280.000
22
170.000
32
-125.8096
13
270.000
23
170.000
33
-125.1463
0
3DFACE
8
A2
10
280.000
20
160.000
30
-116.9515
11
290.000
21
160.000
31
-117.8639
12
290.000
22
170.000
32
-126.8819
13
280.000
23
170.000
33
-125.8096
0
3DFACE
8
A2
10
290.000
20
160.000
30
-117.8639
11
300.000
21
160.000
31
-118.2962
12
300.000
22
170.000
32
-127.4947
13
290.000
23
170.000
33
-126.8819
0
3DFACE
8
A2
10
300.000
20
160.000
30
-118.2962
11
310.000
21
160.000
31
-118.6040
12
310.000
22
170.000
32
-127.8667
13
300.000
23
170.000
33
-127.4947
0
3DFACE
8
A2
10
310.000
20
160.000
30
-118.6040
11
320.000
21
160.000
31
-119.1765
12
320.000
22
170.000
32
-128.2739
13
310.000
23
170.000
33
-127.8667
0
3DFACE
8
A2
10
320.000
20
160.000
30
-119.1765
11
330.000
21
160.000
31
-119.6099
12
330.000
22
170.000
32
-128.2298
13
320.000
23
170.000
33
-128.2739
0
3DFACE
8
A2
10
330.000
20
160.000
30
-119.6099
11
340.000
21
160.000
31
-118.9951
12
340.000
22
170.000
32
-127.3944
13
330.000
23
170.000
33
-128.2298
0
3DFACE
8
A2
10
340.000
20
160.000
30
-118.9951
11
350.000
21
160.000
31
-118.3196
12
350.000
22
170.000
32
-126.5553
13
340.000
23
170.000
33
-127.3944
0
3DFACE
8
A2
10
350.000
20
160.000
30
-118.3196
11
360.000
21
160.000
31
-117.6544
12
360.000
22
170.000
32
-125.7209
13
350.000
23
170.000
33
-126.5553
0
3DFACE
8
A2
10
360.000
20
160.000
30
-117.6544
11
370.000
21
160.000
31
-117.0096
12
370.000
22
170.000
32
-124.8924
13
360.000
23
170.000
33
-125.7209
0
3DFACE
8
A2
10
370.000
20
160.000
30
-117.0096
11
380.000
21
160.000
31
-116.3831
12
380.000
22
170.000
32
-124.0704
13
370.000
23
170.000
33
-124.8924
0
3DFACE
8
A2
10
380.000
20
160.000
30
-116.3831
11
390.000
21
160.000
31
-115.7091
12
390.000
22
170.000
32
-123.2009
13
380.000
23
170.000
33
-124.0704
0
3DFACE
8
A2
10
390.000
20
160.000
30
-115.7091
11
400.000
21
160.000
31
-115.0888
12
400.000
22
170.000
32
-122.3489
13
390.000
23
170.000
33
-123.2009
0
3DFACE
8
A2
10
400.000
20
160.000
30
-115.0888
11
410.000
21
160.000
31
-114.5607
12
410.000
22
170.000
32
-121.5478
13
400.000
23
170.000
33
-122.3489
0
3DFACE
8
A2
10
410.000
20
160.000
30
-114.5607
11
420.000
21
160.000
31
-114.2050
12
420.000
22
170.000
32
-120.9507
13
410.000
23
170.000
33
-121.5478
0
3DFACE
8
A2
10
420.000
20
160.000
30
-114.2050
11
430.000
21
160.000
31
-113.8645
12
430.000
22
170.000
32
-120.4000
13
420.000
23
170.000
33
-120.9507
0
3DFACE
8
A2
10
430.000
20
160.000
30
-113.8645
11
440.000
21
160.000
31
-114.7893
12
440.000
22
170.000
32
-121.2510
13
430.000
23
170.000
33
-120.4000
0
3DFACE
8
A2
10
440.000
20
160.000
30
-114.7893
11
450.000
21
160.000
31
-115.7927
12
450.000
22
170.000
32
-122.2561
13
440.000
23
170.000
33
-121.2510
0
3DFACE
8
A2
10
450.000
20
160.000
30
-115.7927
11
460.000
21
160.000
31
-116.8275
12
460.000
22
170.000
32
-123.3729
13
450.000
23
170.000
33
-122.2561
0
3DFACE
8
A2
10
460.000
20
160.000
30
-116.8275
11
470.000
21
160.000
31
-117.8126
12
470.000
22
170.000
32
-124.4475
13
460.000
23
170.000
33
-123.3729
0
3DFACE
8
A2
10
470.000
20
160.000
30
-117.8126
11
480.000
21
160.000
31
-118.9072
12
480.000
22
170.000
32
-125.6393
13
470.000
23
170.000
33
-124.4475
0
3DFACE
8
A2
10
480.000
20
160.000
30
-118.9072
11
490.000
21
160.000
31
-118.9967
12
490.000
22
170.000
32
-125.7288
13
480.000
23
170.000
33
-125.6393
0
3DFACE
8
A2
10
490.000
20
160.000
30
-118.9967
11
500.000
21
160.000
31
-119.0862
12
500.000
22
170.000
32
-125.8184
13
490.000
23
170.000
33
-125.7288
0
3DFACE
8
A2
10
500.000
20
160.000
30
-119.0862
11
510.000
21
160.000
31
-119.1757
12
510.000
22
170.000
32
-125.9079
13
500.000
23
170.000
33
-125.8184
0
3DFACE
8
A2
10
510.000
20
160.000
30
-119.1757
11
520.000
21
160.000
31
-119.2652
12
520.000
22
170.000
32
-125.9974
13
510.000
23
170.000
33
-125.9079
0
3DFACE
8
A2
10
520.000
20
160.000
30
-119.2652
11
530.000
21
160.000
31
-119.3547
12
530.000
22
170.000
32
-126.0869
13
520.000
23
170.000
33
-125.9974
0
3DFACE
8
A2
10
530.000
20
160.000
30
-119.3547
11
540.000
21
160.000
31
-119.4263
12
540.000
22
170.000
32
-126.1585
13
530.000
23
170.000
33
-126.0869
0
3DFACE
8
A2
10
540.000
20
160.000
30
-119.4263
11
550.000
21
160.000
31
-119.4800
12
550.000
22
170.000
32
-126.2122
13
540.000
23
170.000
33
-126.1585
0
3DFACE
8
A2
10
0.000
20
170.000
30
-122.8866
11
10.000
21
170.000
31
-123.2868
12
10.000
22
180.000
32
-130.1430
13
0.000
23
180.000
33
-129.7733
0
3DFACE
8
A2
10
10.000
20
170.000
30
-123.2868
11
20.000
21
170.000
31
-123.8321
12
20.000
22
180.000
32
-130.6366
13
10.000
23
180.000
33
-130.1430
0
3DFACE
8
A2
10
20.000
20
170.000
30
-123.8321
11
30.000
21
170.000
31
-124.4675
12
30.000
22
180.000
32
-131.2504
13
20.000
23
180.000
33
-130.6366
0
3DFACE
8
A2
10
30.000
20
170.000
30
-124.4675
11
40.000
21
170.000
31
-124.6946
12
40.000
22
180.000
32
-131.4594
13
30.000
23
180.000
33
-131.2504
0
3DFACE
8
A2
10
40.000
20
170.000
30
-124.6946
11
50.000
21
170.000
31
-124.4964
12
50.000
22
180.000
32
-131.2563
13
40.000
23
180.000
33
-131.4594
0
3DFACE
8
A2
10
50.000
20
170.000
30
-124.4964
11
60.000
21
170.000
31
-123.8692
12
60.000
22
180.000
32
-130.6336
13
50.000
23
180.000
33
-131.2563
0
3DFACE
8
A2
10
60.000
20
170.000
30
-123.8692
11
70.000
21
170.000
31
-122.7916
12
70.000
22
180.000
32
-129.5819
13
60.000
23
180.000
33
-130.6336
0
3DFACE
8
A2
10
70.000
20
170.000
30
-122.7916
11
80.000
21
170.000
31
-121.2738
12
80.000
22
180.000
32
-128.0636
13
70.000
23
180.000
33
-129.5819
0
3DFACE
8
A2
10
80.000
20
170.000
30
-121.2738
11
90.000
21
170.000
31
-120.0957
12
90.000
22
180.000
32
-126.9061
13
80.000
23
180.000
33
-128.0636
0
3DFACE
8
A2
10
90.000
20
170.000
30
-120.0957
11
100.000
21
170.000
31
-119.2832
12
100.000
22
180.000
32
-126.1136
13
90.000
23
180.000
33
-126.9061
0
3DFACE
8
A2
10
100.000
20
170.000
30
-119.2832
11
110.000
21
170.000
31
-118.8391
12
110.000
22
180.000
32
-125.6908
13
100.000
23
180.000
33
-126.1136
0
3DFACE
8
A2
10
110.000
20
170.000
30
-118.8391
11
120.000
21
170.000
31
-118.8319
12
120.000
22
180.000
32
-125.7229
13
110.000
23
180.000
33
-125.6908
0
3DFACE
8
A2
10
120.000
20
170.000
30
-118.8319
11
130.000
21
170.000
31
-119.3917
12
130.000
22
180.000
32
-126.3860
13
120.000
23
180.000
33
-125.7229
0
3DFACE
8
A2
10
130.000
20
170.000
30
-119.3917
11
140.000
21
170.000
31
-119.9834
12
140.000
22
180.000
32
-127.0705
13
130.000
23
180.000
33
-126.3860
0
3DFACE
8
A2
10
140.000
20
170.000
30
-119.9834
11
150.000
21
170.000
31
-120.5329
12
150.000
22
180.000
32
-127.6988
13
140.000
23
180.000
33
-127.0705
0
3DFACE
8
A2
10
150.000
20
170.000
30
-120.5329
11
160.000
21
170.000
31
-121.3603
12
160.000
22
180.000
32
-128.6297
13
150.000
23
180.000
33
-127.6988
0
3DFACE
8
A2
10
160.000
20
170.000
30
-121.3603
11
170.000
21
170.000
31
-121.8595
12
170.000
22
180.000
32
-129.2600
13
160.000
23
180.000
33
-128.6297
0
3DFACE
8
A2
10
170.000
20
170.000
30
-121.8595
11
180.000
21
170.000
31
-122.2359
12
180.000
22
180.000
32
-129.7459
13
170.000
23
180.000
33
-129.2600
0
3DFACE
8
A2
10
180.000
20
170.000
30
-122.2359
11
190.000
21
170.000
31
-122.5540
12
190.000
22
180.000
32
-130.2174
13
180.000
23
180.000
33
-129.7459
0
3DFACE
8
A2
10
190.000
20
170.000
30
-122.5540
11
200.000
21
170.000
31
-122.9345
12
200.000
22
180.000
32
-130.7848
13
190.000
23
180.000
33
-130.2174
0
3DFACE
8
A2
10
200.000
20
170.000
30
-122.9345
11
210.000
21
170.000
31
-123.0284
12
210.000
22
180.000
32
-131.1005
13
200.000
23
180.000
33
-130.7848
0
3DFACE
8
A2
10
210.000
20
170.000
30
-123.0284
11
220.000
21
170.000
31
-123.3012
12
220.000
22
180.000
32
-131.6518
13
210.000
23
180.000
33
-131.1005
0
3DFACE
8
A2
10
220.000
20
170.000
30
-123.3012
11
230.000
21
170.000
31
-123.4769
12
230.000
22
180.000
32
-132.0857
13
220.000
23
180.000
33
-131.6518
0
3DFACE
8
A2
10
230.000
20
170.000
30
-123.4769
11
240.000
21
170.000
31
-123.7569
12
240.000
22
180.000
32
-132.4954
13
230.000
23
180.000
33
-132.0857
0
3DFACE
8
A2
10
240.000
20
170.000
30
-123.7569
11
250.000
21
170.000
31
-124.2563
12
250.000
22
180.000
32
-133.0043
13
240.000
23
180.000
33
-132.4954
0
3DFACE
8
A2
10
250.000
20
170.000
30
-124.2563
11
260.000
21
170.000
31
-124.7847
12
260.000
22
180.000
32
-133.5048
13
250.000
23
180.000
33
-133.0043
0
3DFACE
8
A2
10
260.000
20
170.000
30
-124.7847
11
270.000
21
170.000
31
-125.1463
12
270.000
22
180.000
32
-133.7966
13
260.000
23
180.000
33
-133.5048
0
3DFACE
8
A2
10
270.000
20
170.000
30
-125.1463
11
280.000
21
170.000
31
-125.8096
12
280.000
22
180.000
32
-134.1943
13
270.000
23
180.000
33
-133.7966
0
3DFACE
8
A2
10
280.000
20
170.000
30
-125.8096
11
290.000
21
170.000
31
-126.8819
12
290.000
22
180.000
32
-135.3325
13
280.000
23
180.000
33
-134.1943
0
3DFACE
8
A2
10
290.000
20
170.000
30
-126.8819
11
300.000
21
170.000
31
-127.4947
12
300.000
22
180.000
32
-136.0815
13
290.000
23
180.000
33
-135.3325
0
3DFACE
8
A2
10
300.000
20
170.000
30
-127.4947
11
310.000
21
170.000
31
-127.8667
12
310.000
22
180.000
32
-136.5377
13
300.000
23
180.000
33
-136.0815
0
3DFACE
8
A2
10
310.000
20
170.000
30
-127.8667
11
320.000
21
170.000
31
-128.2739
12
320.000
22
180.000
32
-136.9435
13
310.000
23
180.000
33
-136.5377
0
3DFACE
8
A2
10
320.000
20
170.000
30
-128.2739
11
330.000
21
170.000
31
-128.2298
12
330.000
22
180.000
32
-137.0440
13
320.000
23
180.000
33
-136.9435
0
3DFACE
8
A2
10
330.000
20
170.000
30
-128.2298
11
340.000
21
170.000
31
-127.3944
12
340.000
22
180.000
32
-136.0866
13
330.000
23
180.000
33
-137.0440
0
3DFACE
8
A2
10
340.000
20
170.000
30
-127.3944
11
350.000
21
170.000
31
-126.5553
12
350.000
22
180.000
32
-135.1253
13
340.000
23
180.000
33
-136.0866
0
3DFACE
8
A2
10
350.000
20
170.000
30
-126.5553
11
360.000
21
170.000
31
-125.7209
12
360.000
22
180.000
32
-134.1688
13
350.000
23
180.000
33
-135.1253
0
3DFACE
8
A2
10
360.000
20
170.000
30
-125.7209
11
370.000
21
170.000
31
-124.8924
12
370.000
22
180.000
32
-133.2181
13
360.000
23
180.000
33
-134.1688
0
3DFACE
8
A2
10
370.000
20
170.000
30
-124.8924
11
380.000
21
170.000
31
-124.0704
12
380.000
22
180.000
32
-132.2739
13
370.000
23
180.000
33
-133.2181
0
3DFACE
8
A2
10
380.000
20
170.000
30
-124.0704
11
390.000
21
170.000
31
-123.2009
12
390.000
22
180.000
32
-131.2823
13
380.000
23
180.000
33
-132.2739
0
3DFACE
8
A2
10
390.000
20
170.000
30
-123.2009
11
400.000
21
170.000
31
-122.3489
12
400.000
22
180.000
32
-130.3081
13
390.000
23
180.000
33
-131.2823
0
3DFACE
8
A2
10
400.000
20
170.000
30
-122.3489
11
410.000
21
170.000
31
-121.5478
12
410.000
22
180.000
32
-129.3476
13
400.000
23
180.000
33
-130.3081
0
3DFACE
8
A2
10
410.000
20
170.000
30
-121.5478
11
420.000
21
170.000
31
-120.9507
12
420.000
22
180.000
32
-128.5187
13
410.000
23
180.000
33
-129.3476
0
3DFACE
8
A2
10
420.000
20
170.000
30
-120.9507
11
430.000
21
170.000
31
-120.4000
12
430.000
22
180.000
32
-127.7694
13
420.000
23
180.000
33
-128.5187
0
3DFACE
8
A2
10
430.000
20
170.000
30
-120.4000
11
440.000
21
170.000
31
-121.2510
12
440.000
22
180.000
32
-128.3995
13
430.000
23
180.000
33
-127.7694
0
3DFACE
8
A2
10
440.000
20
170.000
30
-121.2510
11
450.000
21
170.000
31
-122.2561
12
450.000
22
180.000
32
-129.2080
13
440.000
23
180.000
33
-128.3995
0
3DFACE
8
A2
10
450.000
20
170.000
30
-122.2561
11
460.000
21
170.000
31
-123.3729
12
460.000
22
180.000
32
-130.1899
13
450.000
23
180.000
33
-129.2080
0
3DFACE
8
A2
10
460.000
20
170.000
30
-123.3729
11
470.000
21
170.000
31
-124.4475
12
470.000
22
180.000
32
-131.2265
13
460.000
23
180.000
33
-130.1899
0
3DFACE
8
A2
10
470.000
20
170.000
30
-124.4475
11
480.000
21
170.000
31
-125.6393
12
480.000
22
180.000
32
-132.3715
13
470.000
23
180.000
33
-131.2265
0
3DFACE
8
A2
10
480.000
20
170.000
30
-125.6393
11
490.000
21
170.000
31
-125.7288
12
490.000
22
180.000
32
-132.4610
13
480.000
23
180.000
33
-132.3715
0
3DFACE
8
A2
10
490.000
20
170.000
30
-125.7288
11
500.000
21
170.000
31
-125.8184
12
500.000
22
180.000
32
-132.5505
13
490.000
23
180.000
33
-132.4610
0
3DFACE
8
A2
10
500.000
20
170.000
30
-125.8184
11
510.000
21
170.000
31
-125.9079
12
510.000
22
180.000
32
-132.6400
13
500.000
23
180.000
33
-132.5505
0
3DFACE
8
A2
10
510.000
20
170.000
30
-125.9079
11
520.000
21
170.000
31
-125.9974
12
520.000
22
180.000
32
-132.7295
13
510.000
23
180.000
33
-132.6400
0
3DFACE
8
A2
10
520.000
20
170.000
30
-125.9974
11
530.000
21
170.000
31
-126.0869
12
530.000
22
180.000
32
-132.8190
13
520.000
23
180.000
33
-132.7295
0
3DFACE
8
A2
10
530.000
20
170.000
30
-126.0869
11
540.000
21
170.000
31
-126.1585
12
540.000
22
180.000
32
-132.8907
13
530.000
23
180.000
33
-132.8190
0
3DFACE
8
A2
10
540.000
20
170.000
30
-126.1585
11
550.000
21
170.000
31
-126.2122
12
550.000
22
180.000
32
-132.9444
13
540.000
23
180.000
33
-132.8907
0
3DFACE
8
A2
10
0.000
20
180.000
30
-129.7733
11
10.000
21
180.000
31
-130.1430
12
10.000
22
190.000
32
-136.9434
13
0.000
23
190.000
33
-136.6037
0
3DFACE
8
A2
10
10.000
20
180.000
30
-130.1430
11
20.000
21
180.000
31
-130.6366
12
20.000
22
190.000
32
-137.3982
13
10.000
23
190.000
33
-136.9434
0
3DFACE
8
A2
10
20.000
20
180.000
30
-130.6366
11
30.000
21
180.000
31
-131.2504
12
30.000
22
190.000
32
-137.9646
13
20.000
23
190.000
33
-137.3982
0
3DFACE
8
A2
10
30.000
20
180.000
30
-131.2504
11
40.000
21
180.000
31
-131.4594
12
40.000
22
190.000
32
-138.0966
13
30.000
23
190.000
33
-137.9646
0
3DFACE
8
A2
10
40.000
20
180.000
30
-131.4594
11
50.000
21
180.000
31
-131.2563
12
50.000
22
190.000
32
-137.7849
13
40.000
23
190.000
33
-138.0966
0
3DFACE
8
A2
10
50.000
20
180.000
30
-131.2563
11
60.000
21
180.000
31
-130.6336
12
60.000
22
190.000
32
-137.0214
13
50.000
23
190.000
33
-137.7849
0
3DFACE
8
A2
10
60.000
20
180.000
30
-130.6336
11
70.000
21
180.000
31
-129.5819
12
70.000
22
190.000
32
-135.8060
13
60.000
23
190.000
33
-137.0214
0
3DFACE
8
A2
10
70.000
20
180.000
30
-129.5819
11
80.000
21
180.000
31
-128.0636
12
80.000
22
190.000
32
-134.1386
13
70.000
23
190.000
33
-135.8060
0
3DFACE
8
A2
10
80.000
20
180.000
30
-128.0636
11
90.000
21
180.000
31
-126.9061
12
90.000
22
190.000
32
-133.0053
13
80.000
23
190.000
33
-134.1386
0
3DFACE
8
A2
10
90.000
20
180.000
30
-126.9061
11
100.000
21
180.000
31
-126.1136
12
100.000
22
190.000
32
-132.4100
13
90.000
23
190.000
33
-133.0053
0
3DFACE
8
A2
10
100.000
20
180.000
30
-126.1136
11
110.000
21
180.000
31
-125.6908
12
110.000
22
190.000
32
-132.3575
13
100.000
23
190.000
33
-132.4100
0
3DFACE
8
A2
10
110.000
20
180.000
30
-125.6908
11
120.000
21
180.000
31
-125.7229
12
120.000
22
190.000
32
-132.8983
13
110.000
23
190.000
33
-132.3575
0
3DFACE
8
A2
10
120.000
20
180.000
30
-125.7229
11
130.000
21
180.000
31
-126.3860
12
130.000
22
190.000
32
-134.0702
13
120.000
23
190.000
33
-132.8983
0
3DFACE
8
A2
10
130.000
20
180.000
30
-126.3860
11
140.000
21
180.000
31
-127.0705
12
140.000
22
190.000
32
-134.8752
13
130.000
23
190.000
33
-134.0702
0
3DFACE
8
A2
10
140.000
20
180.000
30
-127.0705
11
150.000
21
180.000
31
-127.6988
12
150.000
22
190.000
32
-135.7531
13
140.000
23
190.000
33
-134.8752
0
3DFACE
8
A2
10
150.000
20
180.000
30
-127.6988
11
160.000
21
180.000
31
-128.6297
12
160.000
22
190.000
32
-136.6151
13
150.000
23
190.000
33
-135.7531
0
3DFACE
8
A2
10
160.000
20
180.000
30
-128.6297
11
170.000
21
180.000
31
-129.2600
12
170.000
22
190.000
32
-137.2396
13
160.000
23
190.000
33
-136.6151
0
3DFACE
8
A2
10
170.000
20
180.000
30
-129.2600
11
180.000
21
180.000
31
-129.7459
12
180.000
22
190.000
32
-137.6494
13
170.000
23
190.000
33
-137.2396
0
3DFACE
8
A2
10
180.000
20
180.000
30
-129.7459
11
190.000
21
180.000
31
-130.2174
12
190.000
22
190.000
32
-138.3328
13
180.000
23
190.000
33
-137.6494
0
3DFACE
8
A2
10
190.000
20
180.000
30
-130.2174
11
200.000
21
180.000
31
-130.7848
12
200.000
22
190.000
32
-138.8623
13
190.000
23
190.000
33
-138.3328
0
3DFACE
8
A2
10
200.000
20
180.000
30
-130.7848
11
210.000
21
180.000
31
-131.1005
12
210.000
22
190.000
32
-139.3267
13
200.000
23
190.000
33
-138.8623
0
3DFACE
8
A2
10
210.000
20
180.000
30
-131.1005
11
220.000
21
180.000
31
-131.6518
12
220.000
22
190.000
32
-139.8992
13
210.000
23
190.000
33
-139.3267
0
3DFACE
8
A2
10
220.000
20
180.000
30
-131.6518
11
230.000
21
180.000
31
-132.0857
12
230.000
22
190.000
32
-140.4933
13
220.000
23
190.000
33
-139.8992
0
3DFACE
8
A2
10
230.000
20
180.000
30
-132.0857
11
240.000
21
180.000
31
-132.4954
12
240.000
22
190.000
32
-141.0356
13
230.000
23
190.000
33
-140.4933
0
3DFACE
8
A2
10
240.000
20
180.000
30
-132.4954
11
250.000
21
180.000
31
-133.0043
12
250.000
22
190.000
32
-141.5696
13
240.000
23
190.000
33
-141.0356
0
3DFACE
8
A2
10
250.000
20
180.000
30
-133.0043
11
260.000
21
180.000
31
-133.5048
12
260.000
22
190.000
32
-142.2548
13
250.000
23
190.000
33
-141.5696
0
3DFACE
8
A2
10
260.000
20
180.000
30
-133.5048
11
270.000
21
180.000
31
-133.7966
12
270.000
22
190.000
32
-142.7820
13
260.000
23
190.000
33
-142.2548
0
3DFACE
8
A2
10
270.000
20
180.000
30
-133.7966
11
280.000
21
180.000
31
-134.1943
12
280.000
22
190.000
32
-142.9934
13
270.000
23
190.000
33
-142.7820
0
3DFACE
8
A2
10
280.000
20
180.000
30
-134.1943
11
290.000
21
180.000
31
-135.3325
12
290.000
22
190.000
32
-144.0507
13
280.000
23
190.000
33
-142.9934
0
3DFACE
8
A2
10
290.000
20
180.000
30
-135.3325
11
300.000
21
180.000
31
-136.0815
12
300.000
22
190.000
32
-144.8074
13
290.000
23
190.000
33
-144.0507
0
3DFACE
8
A2
10
300.000
20
180.000
30
-136.0815
11
310.000
21
180.000
31
-136.5377
12
310.000
22
190.000
32
-145.1036
13
300.000
23
190.000
33
-144.8074
0
3DFACE
8
A2
10
310.000
20
180.000
30
-136.5377
11
320.000
21
180.000
31
-136.9435
12
320.000
22
190.000
32
-145.2487
13
310.000
23
190.000
33
-145.1036
0
3DFACE
8
A2
10
320.000
20
180.000
30
-136.9435
11
330.000
21
180.000
31
-137.0440
12
330.000
22
190.000
32
-145.4275
13
320.000
23
190.000
33
-145.2487
0
3DFACE
8
A2
10
330.000
20
180.000
30
-137.0440
11
340.000
21
180.000
31
-136.0866
12
340.000
22
190.000
32
-144.5001
13
330.000
23
190.000
33
-145.4275
0
3DFACE
8
A2
10
340.000
20
180.000
30
-136.0866
11
350.000
21
180.000
31
-135.1253
12
350.000
22
190.000
32
-143.5581
13
340.000
23
190.000
33
-144.5001
0
3DFACE
8
A2
10
350.000
20
180.000
30
-135.1253
11
360.000
21
180.000
31
-134.1688
12
360.000
22
190.000
32
-142.6015
13
350.000
23
190.000
33
-143.5581
0
3DFACE
8
A2
10
360.000
20
180.000
30
-134.1688
11
370.000
21
180.000
31
-133.2181
12
370.000
22
190.000
32
-141.6301
13
360.000
23
190.000
33
-142.6015
0
3DFACE
8
A2
10
370.000
20
180.000
30
-133.2181
11
380.000
21
180.000
31
-132.2739
12
380.000
22
190.000
32
-140.6451
13
370.000
23
190.000
33
-141.6301
0
3DFACE
8
A2
10
380.000
20
180.000
30
-132.2739
11
390.000
21
180.000
31
-131.2823
12
390.000
22
190.000
32
-139.5224
13
380.000
23
190.000
33
-140.6451
0
3DFACE
8
A2
10
390.000
20
180.000
30
-131.2823
11
400.000
21
180.000
31
-130.3081
12
400.000
22
190.000
32
-138.4074
13
390.000
23
190.000
33
-139.5224
0
3DFACE
8
A2
10
400.000
20
180.000
30
-130.3081
11
410.000
21
180.000
31
-129.3476
12
410.000
22
190.000
32
-137.3052
13
400.000
23
190.000
33
-138.4074
0
3DFACE
8
A2
10
410.000
20
180.000
30
-129.3476
11
420.000
21
180.000
31
-128.5187
12
420.000
22
190.000
32
-136.2964
13
410.000
23
190.000
33
-137.3052
0
3DFACE
8
A2
10
420.000
20
180.000
30
-128.5187
11
430.000
21
180.000
31
-127.7694
12
430.000
22
190.000
32
-135.1510
13
420.000
23
190.000
33
-136.2964
0
3DFACE
8
A2
10
430.000
20
180.000
30
-127.7694
11
440.000
21
180.000
31
-128.3995
12
440.000
22
190.000
32
-135.5359
13
430.000
23
190.000
33
-135.1510
0
3DFACE
8
A2
10
440.000
20
180.000
30
-128.3995
11
450.000
21
180.000
31
-129.2080
12
450.000
22
190.000
32
-136.1277
13
440.000
23
190.000
33
-135.5359
0
3DFACE
8
A2
10
450.000
20
180.000
30
-129.2080
11
460.000
21
180.000
31
-130.1899
12
460.000
22
190.000
32
-136.9213
13
450.000
23
190.000
33
-136.1277
0
3DFACE
8
A2
10
460.000
20
180.000
30
-130.1899
11
470.000
21
180.000
31
-131.2265
12
470.000
22
190.000
32
-137.8360
13
460.000
23
190.000
33
-136.9213
0
3DFACE
8
A2
10
470.000
20
180.000
30
-131.2265
11
480.000
21
180.000
31
-132.3715
12
480.000
22
190.000
32
-139.1037
13
470.000
23
190.000
33
-137.8360
0
3DFACE
8
A2
10
480.000
20
180.000
30
-132.3715
11
490.000
21
180.000
31
-132.4610
12
490.000
22
190.000
32
-139.1932
13
480.000
23
190.000
33
-139.1037
0
3DFACE
8
A2
10
490.000
20
180.000
30
-132.4610
11
500.000
21
180.000
31
-132.5505
12
500.000
22
190.000
32
-139.2827
13
490.000
23
190.000
33
-139.1932
0
3DFACE
8
A2
10
500.000
20
180.000
30
-132.5505
11
510.000
21
180.000
31
-132.6400
12
510.000
22
190.000
32
-139.3722
13
500.000
23
190.000
33
-139.2827
0
3DFACE
8
A2
10
510.000
20
180.000
30
-132.6400
11
520.000
21
180.000
31
-132.7295
12
520.000
22
190.000
32
-139.4617
13
510.000
23
190.000
33
-139.3722
0
3DFACE
8
A2
10
520.000
20
180.000
30
-132.7295
11
530.000
21
180.000
31
-132.8190
12
530.000
22
190.000
32
-139.5512
13
520.000
23
190.000
33
-139.4617
0
3DFACE
8
A2
10
530.000
20
180.000
30
-132.8190
11
540.000
21
180.000
31
-132.8907
12
540.000
22
190.000
32
-139.6228
13
530.000
23
190.000
33
-139.5512
0
3DFACE
8
A2
10
540.000
20
180.000
30
-132.8907
11
550.000
21
180.000
31
-132.9444
12
550.000
22
190.000
32
-139.6765
13
540.000
23
190.000
33
-139.6228
0
3DFACE
8
A2
10
0.000
20
190.000
30
-136.6037
11
10.000
21
190.000
31
-136.9434
12
10.000
22
200.000
32
-143.7465
13
0.000
23
200.000
33
-143.5026
0
3DFACE
8
A2
10
10.000
20
190.000
30
-136.9434
11
20.000
21
190.000
31
-137.3982
12
20.000
22
200.000
32
-144.0526
13
10.000
23
200.000
33
-143.7465
0
3DFACE
8
A2
10
20.000
20
190.000
30
-137.3982
11
30.000
21
190.000
31
-137.9646
12
30.000
22
200.000
32
-144.4557
13
20.000
23
200.000
33
-144.0526
0
3DFACE
8
A2
10
30.000
20
190.000
30
-137.9646
11
40.000
21
190.000
31
-138.0966
12
40.000
22
200.000
32
-144.5059
13
30.000
23
200.000
33
-144.4557
0
3DFACE
8
A2
10
40.000
20
190.000
30
-138.0966
11
50.000
21
190.000
31
-137.7849
12
50.000
22
200.000
32
-144.1819
13
40.000
23
200.000
33
-144.5059
0
3DFACE
8
A2
10
50.000
20
190.000
30
-137.7849
11
60.000
21
190.000
31
-137.0214
12
60.000
22
200.000
32
-143.4973
13
50.000
23
200.000
33
-144.1819
0
3DFACE
8
A2
10
60.000
20
190.000
30
-137.0214
11
70.000
21
190.000
31
-135.8060
12
70.000
22
200.000
32
-142.4396
13
60.000
23
200.000
33
-143.4973
0
3DFACE
8
A2
10
70.000
20
190.000
30
-135.8060
11
80.000
21
190.000
31
-134.1386
12
80.000
22
200.000
32
-140.9558
13
70.000
23
200.000
33
-142.4396
0
3DFACE
8
A2
10
80.000
20
190.000
30
-134.1386
11
90.000
21
190.000
31
-133.0053
12
90.000
22
200.000
32
-139.9209
13
80.000
23
200.000
33
-140.9558
0
3DFACE
8
A2
10
90.000
20
190.000
30
-133.0053
11
100.000
21
190.000
31
-132.4100
12
100.000
22
200.000
32
-139.3752
13
90.000
23
200.000
33
-139.9209
0
3DFACE
8
A2
10
100.000
20
190.000
30
-132.4100
11
110.000
21
190.000
31
-132.3575
12
110.000
22
200.000
32
-139.3600
13
100.000
23
200.000
33
-139.3752
0
3DFACE
8
A2
10
110.000
20
190.000
30
-132.3575
11
120.000
21
190.000
31
-132.8983
12
120.000
22
200.000
32
-139.9095
13
110.000
23
200.000
33
-139.3600
0
3DFACE
8
A2
10
120.000
20
190.000
30
-132.8983
11
130.000
21
190.000
31
-134.0702
12
130.000
22
200.000
32
-141.0731
13
120.000
23
200.000
33
-139.9095
0
3DFACE
8
A2
10
130.000
20
190.000
30
-134.0702
11
140.000
21
190.000
31
-134.8752
12
140.000
22
200.000
32
-142.2242
13
130.000
23
200.000
33
-141.0731
0
3DFACE
8
A2
10
140.000
20
190.000
30
-134.8752
11
150.000
21
190.000
31
-135.7531
12
150.000
22
200.000
32
-143.4356
13
140.000
23
200.000
33
-142.2242
0
3DFACE
8
A2
10
150.000
20
190.000
30
-135.7531
11
160.000
21
190.000
31
-136.6151
12
160.000
22
200.000
32
-144.4468
13
150.000
23
200.000
33
-143.4356
0
3DFACE
8
A2
10
160.000
20
190.000
30
-136.6151
11
170.000
21
190.000
31
-137.2396
12
170.000
22
200.000
32
-145.2723
13
160.000
23
200.000
33
-144.4468
0
3DFACE
8
A2
10
170.000
20
190.000
30
-137.2396
11
180.000
21
190.000
31
-137.6494
12
180.000
22
200.000
32
-145.9275
13
170.000
23
200.000
33
-145.2723
0
3DFACE
8
A2
10
180.000
20
190.000
30
-137.6494
11
190.000
21
190.000
31
-138.3328
12
190.000
22
200.000
32
-146.5139
13
180.000
23
200.000
33
-145.9275
0
3DFACE
8
A2
10
190.000
20
190.000
30
-138.3328
11
200.000
21
190.000
31
-138.8623
12
200.000
22
200.000
32
-146.9592
13
190.000
23
200.000
33
-146.5139
0
3DFACE
8
A2
10
200.000
20
190.000
30
-138.8623
11
210.000
21
190.000
31
-139.3267
12
210.000
22
200.000
32
-147.5235
13
200.000
23
200.000
33
-146.9592
0
3DFACE
8
A2
10
210.000
20
190.000
30
-139.3267
11
220.000
21
190.000
31
-139.8992
12
220.000
22
200.000
32
-148.1466
13
210.000
23
200.000
33
-147.5235
0
3DFACE
8
A2
10
220.000
20
190.000
30
-139.8992
11
230.000
21
190.000
31
-140.4933
12
230.000
22
200.000
32
-148.7826
13
220.000
23
200.000
33
-148.1466
0
3DFACE
8
A2
10
230.000
20
190.000
30
-140.4933
11
240.000
21
190.000
31
-141.0356
12
240.000
22
200.000
32
-149.4012
13
230.000
23
200.000
33
-148.7826
0
3DFACE
8
A2
10
240.000
20
190.000
30
-141.0356
11
250.000
21
190.000
31
-141.5696
12
250.000
22
200.000
32
-149.9949
13
240.000
23
200.000
33
-149.4012
0
3DFACE
8
A2
10
250.000
20
190.000
30
-141.5696
11
260.000
21
190.000
31
-142.2548
12
260.000
22
200.000
32
-150.6363
13
250.000
23
200.000
33
-149.9949
0
3DFACE
8
A2
10
260.000
20
190.000
30
-142.2548
11
270.000
21
190.000
31
-142.7820
12
270.000
22
200.000
32
-151.4947
13
260.000
23
200.000
33
-150.6363
0
3DFACE
8
A2
10
270.000
20
190.000
30
-142.7820
11
280.000
21
190.000
31
-142.9934
12
280.000
22
200.000
32
-152.1923
13
270.000
23
200.000
33
-151.4947
0
3DFACE
8
A2
10
280.000
20
190.000
30
-142.9934
11
290.000
21
190.000
31
-144.0507
12
290.000
22
200.000
32
-153.0888
13
280.000
23
200.000
33
-152.1923
0
3DFACE
8
A2
10
290.000
20
190.000
30
-144.0507
11
300.000
21
190.000
31
-144.8074
12
300.000
22
200.000
32
-153.6932
13
290.000
23
200.000
33
-153.0888
0
3DFACE
8
A2
10
300.000
20
190.000
30
-144.8074
11
310.000
21
190.000
31
-145.1036
12
310.000
22
200.000
32
-153.9329
13
300.000
23
200.000
33
-153.6932
0
3DFACE
8
A2
10
310.000
20
190.000
30
-145.1036
11
320.000
21
190.000
31
-145.2487
12
320.000
22
200.000
32
-153.6388
13
310.000
23
200.000
33
-153.9329
0
3DFACE
8
A2
10
320.000
20
190.000
30
-145.2487
11
330.000
21
190.000
31
-145.4275
12
330.000
22
200.000
32
-153.1856
13
320.000
23
200.000
33
-153.6388
0
3DFACE
8
A2
10
330.000
20
190.000
30
-145.4275
11
340.000
21
190.000
31
-144.5001
12
340.000
22
200.000
32
-152.2191
13
330.000
23
200.000
33
-153.1856
0
3DFACE
8
A2
10
340.000
20
190.000
30
-144.5001
11
350.000
21
190.000
31
-143.5581
12
350.000
22
200.000
32
-151.2380
13
340.000
23
200.000
33
-152.2191
0
3DFACE
8
A2
10
350.000
20
190.000
30
-143.5581
11
360.000
21
190.000
31
-142.6015
12
360.000
22
200.000
32
-150.2422
13
350.000
23
200.000
33
-151.2380
0
3DFACE
8
A2
10
360.000
20
190.000
30
-142.6015
11
370.000
21
190.000
31
-141.6301
12
370.000
22
200.000
32
-149.2317
13
360.000
23
200.000
33
-150.2422
0
3DFACE
8
A2
10
370.000
20
190.000
30
-141.6301
11
380.000
21
190.000
31
-140.6451
12
380.000
22
200.000
32
-148.2095
13
370.000
23
200.000
33
-149.2317
0
3DFACE
8
A2
10
380.000
20
190.000
30
-140.6451
11
390.000
21
190.000
31
-139.5224
12
390.000
22
200.000
32
-147.1872
13
380.000
23
200.000
33
-148.2095
0
3DFACE
8
A2
10
390.000
20
190.000
30
-139.5224
11
400.000
21
190.000
31
-138.4074
12
400.000
22
200.000
32
-146.1649
13
390.000
23
200.000
33
-147.1872
0
3DFACE
8
A2
10
400.000
20
190.000
30
-138.4074
11
410.000
21
190.000
31
-137.3052
12
410.000
22
200.000
32
-145.1427
13
400.000
23
200.000
33
-146.1649
0
3DFACE
8
A2
10
410.000
20
190.000
30
-137.3052
11
420.000
21
190.000
31
-136.2964
12
420.000
22
200.000
32
-144.1956
13
410.000
23
200.000
33
-145.1427
0
3DFACE
8
A2
10
420.000
20
190.000
30
-136.2964
11
430.000
21
190.000
31
-135.1510
12
430.000
22
200.000
32
-143.0505
13
420.000
23
200.000
33
-144.1956
0
3DFACE
8
A2
10
430.000
20
190.000
30
-135.1510
11
440.000
21
190.000
31
-135.5359
12
440.000
22
200.000
32
-143.1533
13
430.000
23
200.000
33
-143.0505
0
3DFACE
8
A2
10
440.000
20
190.000
30
-135.5359
11
450.000
21
190.000
31
-136.1277
12
450.000
22
200.000
32
-143.4785
13
440.000
23
200.000
33
-143.1533
0
3DFACE
8
A2
10
450.000
20
190.000
30
-136.1277
11
460.000
21
190.000
31
-136.9213
12
460.000
22
200.000
32
-144.0261
13
450.000
23
200.000
33
-143.4785
0
3DFACE
8
A2
10
460.000
20
190.000
30
-136.9213
11
470.000
21
190.000
31
-137.8360
12
470.000
22
200.000
32
-144.7207
13
460.000
23
200.000
33
-144.0261
0
3DFACE
8
A2
10
470.000
20
190.000
30
-137.8360
11
480.000
21
190.000
31
-139.1037
12
480.000
22
200.000
32
-145.8359
13
470.000
23
200.000
33
-144.7207
0
3DFACE
8
A2
10
480.000
20
190.000
30
-139.1037
11
490.000
21
190.000
31
-139.1932
12
490.000
22
200.000
32
-145.9254
13
480.000
23
200.000
33
-145.8359
0
3DFACE
8
A2
10
490.000
20
190.000
30
-139.1932
11
500.000
21
190.000
31
-139.2827
12
500.000
22
200.000
32
-146.0149
13
490.000
23
200.000
33
-145.9254
0
3DFACE
8
A2
10
500.000
20
190.000
30
-139.2827
11
510.000
21
190.000
31
-139.3722
12
510.000
22
200.000
32
-146.1044
13
500.000
23
200.000
33
-146.0149
0
3DFACE
8
A2
10
510.000
20
190.000
30
-139.3722
11
520.000
21
190.000
31
-139.4617
12
520.000
22
200.000
32
-146.1939
13
510.000
23
200.000
33
-146.1044
0
3DFACE
8
A2
10
520.000
20
190.000
30
-139.4617
11
530.000
21
190.000
31
-139.5512
12
530.000
22
200.000
32
-146.2834
13
520.000
23
200.000
33
-146.1939
0
3DFACE
8
A2
10
530.000
20
190.000
30
-139.5512
11
540.000
21
190.000
31
-139.6228
12
540.000
22
200.000
32
-146.3550
13
530.000
23
200.000
33
-146.2834
0
3DFACE
8
A2
10
540.000
20
190.000
30
-139.6228
11
550.000
21
190.000
31
-139.6765
12
550.000
22
200.000
32
-146.4087
13
540.000
23
200.000
33
-146.3550
0
3DFACE
8
A2
10
0.000
20
200.000
30
-143.5026
11
10.000
21
200.000
31
-143.7465
12
10.000
22
210.000
32
-149.7967
13
0.000
23
210.000
33
-149.7275
0
3DFACE
8
A2
10
10.000
20
200.000
30
-143.7465
11
20.000
21
200.000
31
-144.0526
12
20.000
22
210.000
32
-149.9159
13
10.000
23
210.000
33
-149.7967
0
3DFACE
8
A2
10
20.000
20
200.000
30
-144.0526
11
30.000
21
200.000
31
-144.4557
12
30.000
22
210.000
32
-150.1232
13
20.000
23
210.000
33
-149.9159
0
3DFACE
8
A2
10
30.000
20
200.000
30
-144.4557
11
40.000
21
200.000
31
-144.5059
12
40.000
22
210.000
32
-150.1597
13
30.000
23
210.000
33
-150.1232
0
3DFACE
8
A2
10
40.000
20
200.000
30
-144.5059
11
50.000
21
200.000
31
-144.1819
12
50.000
22
210.000
32
-149.9778
13
40.000
23
210.000
33
-150.1597
0
3DFACE
8
A2
10
50.000
20
200.000
30
-144.1819
11
60.000
21
200.000
31
-143.4973
12
60.000
22
210.000
32
-149.5409
13
50.000
23
210.000
33
-149.9778
0
3DFACE
8
A2
10
60.000
20
200.000
30
-143.4973
11
70.000
21
200.000
31
-142.4396
12
70.000
22
210.000
32
-148.7817
13
60.000
23
210.000
33
-149.5409
0
3DFACE
8
A2
10
70.000
20
200.000
30
-142.4396
11
80.000
21
200.000
31
-140.9558
12
80.000
22
210.000
32
-147.6364
13
70.000
23
210.000
33
-148.7817
0
3DFACE
8
A2
10
80.000
20
200.000
30
-140.9558
11
90.000
21
200.000
31
-139.9209
12
90.000
22
210.000
32
-146.9194
13
80.000
23
210.000
33
-147.6364
0
3DFACE
8
A2
10
90.000
20
200.000
30
-139.9209
11
100.000
21
200.000
31
-139.3752
12
100.000
22
210.000
32
-146.6692
13
90.000
23
210.000
33
-146.9194
0
3DFACE
8
A2
10
100.000
20
200.000
30
-139.3752
11
110.000
21
200.000
31
-139.3600
12
110.000
22
210.000
32
-146.9259
13
100.000
23
210.000
33
-146.6692
0
3DFACE
8
A2
10
110.000
20
200.000
30
-139.3600
11
120.000
21
200.000
31
-139.9095
12
120.000
22
210.000
32
-147.7672
13
110.000
23
210.000
33
-146.9259
0
3DFACE
8
A2
10
120.000
20
200.000
30
-139.9095
11
130.000
21
200.000
31
-141.0731
12
130.000
22
210.000
32
-149.2469
13
120.000
23
210.000
33
-147.7672
0
3DFACE
8
A2
10
130.000
20
200.000
30
-141.0731
11
140.000
21
200.000
31
-142.2242
12
140.000
22
210.000
32
-150.6481
13
130.000
23
210.000
33
-149.2469
0
3DFACE
8
A2
10
140.000
20
200.000
30
-142.2242
11
150.000
21
200.000
31
-143.4356
12
150.000
22
210.000
32
-151.7877
13
140.000
23
210.000
33
-150.6481
0
3DFACE
8
A2
10
150.000
20
200.000
30
-143.4356
11
160.000
21
200.000
31
-144.4468
12
160.000
22
210.000
32
-152.7156
13
150.000
23
210.000
33
-151.7877
0
3DFACE
8
A2
10
160.000
20
200.000
30
-144.4468
11
170.000
21
200.000
31
-145.2723
12
170.000
22
210.000
32
-153.4488
13
160.000
23
210.000
33
-152.7156
0
3DFACE
8
A2
10
170.000
20
200.000
30
-145.2723
11
180.000
21
200.000
31
-145.9275
12
180.000
22
210.000
32
-153.9726
13
170.000
23
210.000
33
-153.4488
0
3DFACE
8
A2
10
180.000
20
200.000
30
-145.9275
11
190.000
21
200.000
31
-146.5139
12
190.000
22
210.000
32
-154.4280
13
180.000
23
210.000
33
-153.9726
0
3DFACE
8
A2
10
190.000
20
200.000
30
-146.5139
11
200.000
21
200.000
31
-146.9592
12
200.000
22
210.000
32
-154.9966
13
190.000
23
210.000
33
-154.4280
0
3DFACE
8
A2
10
200.000
20
200.000
30
-146.9592
11
210.000
21
200.000
31
-147.5235
12
210.000
22
210.000
32
-155.6283
13
200.000
23
210.000
33
-154.9966
0
3DFACE
8
A2
10
210.000
20
200.000
30
-147.5235
11
220.000
21
200.000
31
-148.1466
12
220.000
22
210.000
32
-156.2698
13
210.000
23
210.000
33
-155.6283
0
3DFACE
8
A2
10
220.000
20
200.000
30
-148.1466
11
230.000
21
200.000
31
-148.7826
12
230.000
22
210.000
32
-156.9074
13
220.000
23
210.000
33
-156.2698
0
3DFACE
8
A2
10
230.000
20
200.000
30
-148.7826
11
240.000
21
200.000
31
-149.4012
12
240.000
22
210.000
32
-157.5434
13
230.000
23
210.000
33
-156.9074
0
3DFACE
8
A2
10
240.000
20
200.000
30
-149.4012
11
250.000
21
200.000
31
-149.9949
12
250.000
22
210.000
32
-158.1725
13
240.000
23
210.000
33
-157.5434
0
3DFACE
8
A2
10
250.000
20
200.000
30
-149.9949
11
260.000
21
200.000
31
-150.6363
12
260.000
22
210.000
32
-158.8127
13
250.000
23
210.000
33
-158.1725
0
3DFACE
8
A2
10
260.000
20
200.000
30
-150.6363
11
270.000
21
200.000
31
-151.4947
12
270.000
22
210.000
32
-159.5584
13
260.000
23
210.000
33
-158.8127
0
3DFACE
8
A2
10
270.000
20
200.000
30
-151.4947
11
280.000
21
200.000
31
-152.1923
12
280.000
22
210.000
32
-160.5856
13
270.000
23
210.000
33
-159.5584
0
3DFACE
8
A2
10
280.000
20
200.000
30
-152.1923
11
290.000
21
200.000
31
-153.0888
12
290.000
22
210.000
32
-161.2880
13
280.000
23
210.000
33
-160.5856
0
3DFACE
8
A2
10
290.000
20
200.000
30
-153.0888
11
300.000
21
200.000
31
-153.6932
12
300.000
22
210.000
32
-161.6724
13
290.000
23
210.000
33
-161.2880
0
3DFACE
8
A2
10
300.000
20
200.000
30
-153.6932
11
310.000
21
200.000
31
-153.9329
12
310.000
22
210.000
32
-161.7210
13
300.000
23
210.000
33
-161.6724
0
3DFACE
8
A2
10
310.000
20
200.000
30
-153.9329
11
320.000
21
200.000
31
-153.6388
12
320.000
22
210.000
32
-161.3392
13
310.000
23
210.000
33
-161.7210
0
3DFACE
8
A2
10
320.000
20
200.000
30
-153.6388
11
330.000
21
200.000
31
-153.1856
12
330.000
22
210.000
32
-160.3483
13
320.000
23
210.000
33
-161.3392
0
3DFACE
8
A2
10
330.000
20
200.000
30
-153.1856
11
340.000
21
200.000
31
-152.2191
12
340.000
22
210.000
32
-159.3427
13
330.000
23
210.000
33
-160.3483
0
3DFACE
8
A2
10
340.000
20
200.000
30
-152.2191
11
350.000
21
200.000
31
-151.2380
12
350.000
22
210.000
32
-158.3223
13
340.000
23
210.000
33
-159.3427
0
3DFACE
8
A2
10
350.000
20
200.000
30
-151.2380
11
360.000
21
200.000
31
-150.2422
12
360.000
22
210.000
32
-157.2873
13
350.000
23
210.000
33
-158.3223
0
3DFACE
8
A2
10
360.000
20
200.000
30
-150.2422
11
370.000
21
200.000
31
-149.2317
12
370.000
22
210.000
32
-156.2376
13
360.000
23
210.000
33
-157.2873
0
3DFACE
8
A2
10
370.000
20
200.000
30
-149.2317
11
380.000
21
200.000
31
-148.2095
12
380.000
22
210.000
32
-155.1762
13
370.000
23
210.000
33
-156.2376
0
3DFACE
8
A2
10
380.000
20
200.000
30
-148.2095
11
390.000
21
200.000
31
-147.1872
12
390.000
22
210.000
32
-154.1147
13
380.000
23
210.000
33
-155.1762
0
3DFACE
8
A2
10
390.000
20
200.000
30
-147.1872
11
400.000
21
200.000
31
-146.1649
12
400.000
22
210.000
32
-153.0533
13
390.000
23
210.000
33
-154.1147
0
3DFACE
8
A2
10
400.000
20
200.000
30
-146.1649
11
410.000
21
200.000
31
-145.1427
12
410.000
22
210.000
32
-151.9918
13
400.000
23
210.000
33
-153.0533
0
3DFACE
8
A2
10
410.000
20
200.000
30
-145.1427
11
420.000
21
200.000
31
-144.1956
12
420.000
22
210.000
32
-150.9303
13
410.000
23
210.000
33
-151.9918
0
3DFACE
8
A2
10
420.000
20
200.000
30
-144.1956
11
430.000
21
200.000
31
-143.0505
12
430.000
22
210.000
32
-149.8689
13
420.000
23
210.000
33
-150.9303
0
3DFACE
8
A2
10
430.000
20
200.000
30
-143.0505
11
440.000
21
200.000
31
-143.1533
12
440.000
22
210.000
32
-149.9483
13
430.000
23
210.000
33
-149.8689
0
3DFACE
8
A2
10
440.000
20
200.000
30
-143.1533
11
450.000
21
200.000
31
-143.4785
12
450.000
22
210.000
32
-150.2580
13
440.000
23
210.000
33
-149.9483
0
3DFACE
8
A2
10
450.000
20
200.000
30
-143.4785
11
460.000
21
200.000
31
-144.0261
12
460.000
22
210.000
32
-150.7978
13
450.000
23
210.000
33
-150.2580
0
3DFACE
8
A2
10
460.000
20
200.000
30
-144.0261
11
470.000
21
200.000
31
-144.7207
12
470.000
22
210.000
32
-151.5678
13
460.000
23
210.000
33
-150.7978
0
3DFACE
8
A2
10
470.000
20
200.000
30
-144.7207
11
480.000
21
200.000
31
-145.8359
12
480.000
22
210.000
32
-152.5681
13
470.000
23
210.000
33
-151.5678
0
3DFACE
8
A2
10
480.000
20
200.000
30
-145.8359
11
490.000
21
200.000
31
-145.9254
12
490.000
22
210.000
32
-152.6576
13
480.000
23
210.000
33
-152.5681
0
3DFACE
8
A2
10
490.000
20
200.000
30
-145.9254
11
500.000
21
200.000
31
-146.0149
12
500.000
22
210.000
32
-152.7471
13
490.000
23
210.000
33
-152.6576
0
3DFACE
8
A2
10
500.000
20
200.000
30
-146.0149
11
510.000
21
200.000
31
-146.1044
12
510.000
22
210.000
32
-152.8366
13
500.000
23
210.000
33
-152.7471
0
3DFACE
8
A2
10
510.000
20
200.000
30
-146.1044
11
520.000
21
200.000
31
-146.1939
12
520.000
22
210.000
32
-152.9261
13
510.000
23
210.000
33
-152.8366
0
3DFACE
8
A2
10
520.000
20
200.000
30
-146.1939
11
530.000
21
200.000
31
-146.2834
12
530.000
22
210.000
32
-153.0156
13
520.000
23
210.000
33
-152.9261
0
3DFACE
8
A2
10
530.000
20
200.000
30
-146.2834
11
540.000
21
200.000
31
-146.3550
12
540.000
22
210.000
32
-153.0872
13
530.000
23
210.000
33
-153.0156
0
3DFACE
8
A2
10
540.000
20
200.000
30
-146.3550
11
550.000
21
200.000
31
-146.4087
12
550.000
22
210.000
32
-153.1409
13
540.000
23
210.000
33
-153.0872
0
3DFACE
8
A2
10
0.000
20
210.000
30
-149.7275
11
10.000
21
210.000
31
-149.7967
12
10.000
22
220.000
32
-156.0675
13
0.000
23
220.000
33
-156.0404
0
3DFACE
8
A2
10
10.000
20
210.000
30
-149.7967
11
20.000
21
210.000
31
-149.9159
12
20.000
22
220.000
32
-156.1271
13
10.000
23
220.000
33
-156.0675
0
3DFACE
8
A2
10
20.000
20
210.000
30
-149.9159
11
30.000
21
210.000
31
-150.1232
12
30.000
22
220.000
32
-156.2548
13
20.000
23
220.000
33
-156.1271
0
3DFACE
8
A2
10
30.000
20
210.000
30
-150.1232
11
40.000
21
210.000
31
-150.1597
12
40.000
22
220.000
32
-156.2939
13
30.000
23
220.000
33
-156.2548
0
3DFACE
8
A2
10
40.000
20
210.000
30
-150.1597
11
50.000
21
210.000
31
-149.9778
12
50.000
22
220.000
32
-156.1968
13
40.000
23
220.000
33
-156.2939
0
3DFACE
8
A2
10
50.000
20
210.000
30
-149.9778
11
60.000
21
210.000
31
-149.5409
12
60.000
22
220.000
32
-155.9268
13
50.000
23
220.000
33
-156.1968
0
3DFACE
8
A2
10
60.000
20
210.000
30
-149.5409
11
70.000
21
210.000
31
-148.7817
12
70.000
22
220.000
32
-155.4202
13
60.000
23
220.000
33
-155.9268
0
3DFACE
8
A2
10
70.000
20
210.000
30
-148.7817
11
80.000
21
210.000
31
-147.6364
12
80.000
22
220.000
32
-154.6156
13
70.000
23
220.000
33
-155.4202
0
3DFACE
8
A2
10
80.000
20
210.000
30
-147.6364
11
90.000
21
210.000
31
-146.9194
12
90.000
22
220.000
32
-154.1806
13
80.000
23
220.000
33
-154.6156
0
3DFACE
8
A2
10
90.000
20
210.000
30
-146.9194
11
100.000
21
210.000
31
-146.6692
12
100.000
22
220.000
32
-154.1539
13
90.000
23
220.000
33
-154.1806
0
3DFACE
8
A2
10
100.000
20
210.000
30
-146.6692
11
110.000
21
210.000
31
-146.9259
12
110.000
22
220.000
32
-154.5754
13
100.000
23
220.000
33
-154.1539
0
3DFACE
8
A2
10
110.000
20
210.000
30
-146.9259
11
120.000
21
210.000
31
-147.7672
12
120.000
22
220.000
32
-155.4770
13
110.000
23
220.000
33
-154.5754
0
3DFACE
8
A2
10
120.000
20
210.000
30
-147.7672
11
130.000
21
210.000
31
-149.2469
12
130.000
22
220.000
32
-156.8821
13
120.000
23
220.000
33
-155.4770
0
3DFACE
8
A2
10
130.000
20
210.000
30
-149.2469
11
140.000
21
210.000
31
-150.6481
12
140.000
22
220.000
32
-157.9846
13
130.000
23
220.000
33
-156.8821
0
3DFACE
8
A2
10
140.000
20
210.000
30
-150.6481
11
150.000
21
210.000
31
-151.7877
12
150.000
22
220.000
32
-158.8390
13
140.000
23
220.000
33
-157.9846
0
3DFACE
8
A2
10
150.000
20
210.000
30
-151.7877
11
160.000
21
210.000
31
-152.7156
12
160.000
22
220.000
32
-159.5021
13
150.000
23
220.000
33
-158.8390
0
3DFACE
8
A2
10
160.000
20
210.000
30
-152.7156
11
170.000
21
210.000
31
-153.4488
12
170.000
22
220.000
32
-159.9985
13
160.000
23
220.000
33
-159.5021
0
3DFACE
8
A2
10
170.000
20
210.000
30
-153.4488
11
180.000
21
210.000
31
-153.9726
12
180.000
22
220.000
32
-160.3305
13
170.000
23
220.000
33
-159.9985
0
3DFACE
8
A2
10
180.000
20
210.000
30
-153.9726
11
190.000
21
210.000
31
-154.4280
12
190.000
22
220.000
32
-160.7870
13
180.000
23
220.000
33
-160.3305
0
3DFACE
8
A2
10
190.000
20
210.000
30
-154.4280
11
200.000
21
210.000
31
-154.9966
12
200.000
22
220.000
32
-161.3115
13
190.000
23
220.000
33
-160.7870
0
3DFACE
8
A2
10
200.000
20
210.000
30
-154.9966
11
210.000
21
210.000
31
-155.6283
12
210.000
22
220.000
32
-161.8477
13
200.000
23
220.000
33
-161.3115
0
3DFACE
8
A2
10
210.000
20
210.000
30
-155.6283
11
220.000
21
210.000
31
-156.2698
12
220.000
22
220.000
32
-162.3798
13
210.000
23
220.000
33
-161.8477
0
3DFACE
8
A2
10
220.000
20
210.000
30
-156.2698
11
230.000
21
210.000
31
-156.9074
12
230.000
22
220.000
32
-162.9081
13
220.000
23
220.000
33
-162.3798
0
3DFACE
8
A2
10
230.000
20
210.000
30
-156.9074
11
240.000
21
210.000
31
-157.5434
12
240.000
22
220.000
32
-163.4348
13
230.000
23
220.000
33
-162.9081
0
3DFACE
8
A2
10
240.000
20
210.000
30
-157.5434
11
250.000
21
210.000
31
-158.1725
12
250.000
22
220.000
32
-163.9615
13
240.000
23
220.000
33
-163.4348
0
3DFACE
8
A2
10
250.000
20
210.000
30
-158.1725
11
260.000
21
210.000
31
-158.8127
12
260.000
22
220.000
32
-164.4904
13
250.000
23
220.000
33
-163.9615
0
3DFACE
8
A2
10
260.000
20
210.000
30
-158.8127
11
270.000
21
210.000
31
-159.5584
12
270.000
22
220.000
32
-165.0663
13
260.000
23
220.000
33
-164.4904
0
3DFACE
8
A2
10
270.000
20
210.000
30
-159.5584
11
280.000
21
210.000
31
-160.5856
12
280.000
22
220.000
32
-165.8072
13
270.000
23
220.000
33
-165.0663
0
3DFACE
8
A2
10
280.000
20
210.000
30
-160.5856
11
290.000
21
210.000
31
-161.2880
12
290.000
22
220.000
32
-166.2858
13
280.000
23
220.000
33
-165.8072
0
3DFACE
8
A2
10
290.000
20
210.000
30
-161.2880
11
300.000
21
210.000
31
-161.6724
12
300.000
22
220.000
32
-166.5023
13
290.000
23
220.000
33
-166.2858
0
3DFACE
8
A2
10
300.000
20
210.000
30
-161.6724
11
310.000
21
210.000
31
-161.7210
12
310.000
22
220.000
32
-166.4544
13
300.000
23
220.000
33
-166.5023
0
3DFACE
8
A2
10
310.000
20
210.000
30
-161.7210
11
320.000
21
210.000
31
-161.3392
12
320.000
22
220.000
32
-166.0974
13
310.000
23
220.000
33
-166.4544
0
3DFACE
8
A2
10
320.000
20
210.000
30
-161.3392
11
330.000
21
210.000
31
-160.3483
12
330.000
22
220.000
32
-165.3131
13
320.000
23
220.000
33
-166.0974
0
3DFACE
8
A2
10
330.000
20
210.000
30
-160.3483
11
340.000
21
210.000
31
-159.3427
12
340.000
22
220.000
32
-164.5289
13
330.000
23
220.000
33
-165.3131
0
3DFACE
8
A2
10
340.000
20
210.000
30
-159.3427
11
350.000
21
210.000
31
-158.3223
12
350.000
22
220.000
32
-163.7446
13
340.000
23
220.000
33
-164.5289
0
3DFACE
8
A2
10
350.000
20
210.000
30
-158.3223
11
360.000
21
210.000
31
-157.2873
12
360.000
22
220.000
32
-162.9603
13
350.000
23
220.000
33
-163.7446
0
3DFACE
8
A2
10
360.000
20
210.000
30
-157.2873
11
370.000
21
210.000
31
-156.2376
12
370.000
22
220.000
32
-162.1760
13
360.000
23
220.000
33
-162.9603
0
3DFACE
8
A2
10
370.000
20
210.000
30
-156.2376
11
380.000
21
210.000
31
-155.1762
12
380.000
22
220.000
32
-161.3916
13
370.000
23
220.000
33
-162.1760
0
3DFACE
8
A2
10
380.000
20
210.000
30
-155.1762
11
390.000
21
210.000
31
-154.1147
12
390.000
22
220.000
32
-160.6072
13
380.000
23
220.000
33
-161.3916
0
3DFACE
8
A2
10
390.000
20
210.000
30
-154.1147
11
400.000
21
210.000
31
-153.0533
12
400.000
22
220.000
32
-159.8229
13
390.000
23
220.000
33
-160.6072
0
3DFACE
8
A2
10
400.000
20
210.000
30
-153.0533
11
410.000
21
210.000
31
-151.9918
12
410.000
22
220.000
32
-159.0385
13
400.000
23
220.000
33
-159.8229
0
3DFACE
8
A2
10
410.000
20
210.000
30
-151.9918
11
420.000
21
210.000
31
-150.9303
12
420.000
22
220.000
32
-158.2542
13
410.000
23
220.000
33
-159.0385
0
3DFACE
8
A2
10
420.000
20
210.000
30
-150.9303
11
430.000
21
210.000
31
-149.8689
12
430.000
22
220.000
32
-157.4698
13
420.000
23
220.000
33
-158.2542
0
3DFACE
8
A2
10
430.000
20
210.000
30
-149.8689
11
440.000
21
210.000
31
-149.9483
12
440.000
22
220.000
32
-157.4863
13
430.000
23
220.000
33
-157.4698
0
3DFACE
8
A2
10
440.000
20
210.000
30
-149.9483
11
450.000
21
210.000
31
-150.2580
12
450.000
22
220.000
32
-157.6776
13
440.000
23
220.000
33
-157.4863
0
3DFACE
8
A2
10
450.000
20
210.000
30
-150.2580
11
460.000
21
210.000
31
-150.7978
12
460.000
22
220.000
32
-158.0437
13
450.000
23
220.000
33
-157.6776
0
3DFACE
8
A2
10
460.000
20
210.000
30
-150.7978
11
470.000
21
210.000
31
-151.5678
12
470.000
22
220.000
32
-158.5846
13
460.000
23
220.000
33
-158.0437
0
3DFACE
8
A2
10
470.000
20
210.000
30
-151.5678
11
480.000
21
210.000
31
-152.5681
12
480.000
22
220.000
32
-159.3002
13
470.000
23
220.000
33
-158.5846
0
3DFACE
8
A2
10
480.000
20
210.000
30
-152.5681
11
490.000
21
210.000
31
-152.6576
12
490.000
22
220.000
32
-159.3897
13
480.000
23
220.000
33
-159.3002
0
3DFACE
8
A2
10
490.000
20
210.000
30
-152.6576
11
500.000
21
210.000
31
-152.7471
12
500.000
22
220.000
32
-159.4792
13
490.000
23
220.000
33
-159.3897
0
3DFACE
8
A2
10
500.000
20
210.000
30
-152.7471
11
510.000
21
210.000
31
-152.8366
12
510.000
22
220.000
32
-159.5687
13
500.000
23
220.000
33
-159.4792
0
3DFACE
8
A2
10
510.000
20
210.000
30
-152.8366
11
520.000
21
210.000
31
-152.9261
12
520.000
22
220.000
32
-159.6583
13
510.000
23
220.000
33
-159.5687
0
3DFACE
8
A2
10
520.000
20
210.000
30
-152.9261
11
530.000
21
210.000
31
-153.0156
12
530.000
22
220.000
32
-159.7478
13
520.000
23
220.000
33
-159.6583
0
3DFACE
8
A2
10
530.000
20
210.000
30
-153.0156
11
540.000
21
210.000
31
-153.0872
12
540.000
22
220.000
32
-159.8194
13
530.000
23
220.000
33
-159.7478
0
3DFACE
8
A2
10
540.000
20
210.000
30
-153.0872
11
550.000
21
210.000
31
-153.1409
12
550.000
22
220.000
32
-159.8731
13
540.000
23
220.000
33
-159.8194
0
3DFACE
8
A2
10
0.000
20
220.000
30
-156.0404
11
10.000
21
220.000
31
-156.0675
12
10.000
22
230.000
32
-162.3817
13
0.000
23
230.000
33
-162.4141
0
3DFACE
8
A2
10
10.000
20
220.000
30
-156.0675
11
20.000
21
220.000
31
-156.1271
12
20.000
22
230.000
32
-162.3653
13
10.000
23
230.000
33
-162.3817
0
3DFACE
8
A2
10
20.000
20
220.000
30
-156.1271
11
30.000
21
220.000
31
-156.2548
12
30.000
22
230.000
32
-162.4031
13
20.000
23
230.000
33
-162.3653
0
3DFACE
8
A2
10
30.000
20
220.000
30
-156.2548
11
40.000
21
220.000
31
-156.2939
12
40.000
22
230.000
32
-162.4344
13
30.000
23
230.000
33
-162.4031
0
3DFACE
8
A2
10
40.000
20
220.000
30
-156.2939
11
50.000
21
220.000
31
-156.1968
12
50.000
22
230.000
32
-162.4139
13
40.000
23
230.000
33
-162.4344
0
3DFACE
8
A2
10
50.000
20
220.000
30
-156.1968
11
60.000
21
220.000
31
-155.9268
12
60.000
22
230.000
32
-162.3087
13
50.000
23
230.000
33
-162.4139
0
3DFACE
8
A2
10
60.000
20
220.000
30
-155.9268
11
70.000
21
220.000
31
-155.4202
12
70.000
22
230.000
32
-162.0513
13
60.000
23
230.000
33
-162.3087
0
3DFACE
8
A2
10
70.000
20
220.000
30
-155.4202
11
80.000
21
220.000
31
-154.6156
12
80.000
22
230.000
32
-161.5780
13
70.000
23
230.000
33
-162.0513
0
3DFACE
8
A2
10
80.000
20
220.000
30
-154.6156
11
90.000
21
220.000
31
-154.1806
12
90.000
22
230.000
32
-161.3453
13
80.000
23
230.000
33
-161.5780
0
3DFACE
8
A2
10
90.000
20
220.000
30
-154.1806
11
100.000
21
220.000
31
-154.1539
12
100.000
22
230.000
32
-161.3893
13
90.000
23
230.000
33
-161.3453
0
3DFACE
8
A2
10
100.000
20
220.000
30
-154.1539
11
110.000
21
220.000
31
-154.5754
12
110.000
22
230.000
32
-161.7466
13
100.000
23
230.000
33
-161.3893
0
3DFACE
8
A2
10
110.000
20
220.000
30
-154.5754
11
120.000
21
220.000
31
-155.4770
12
120.000
22
230.000
32
-162.4491
13
110.000
23
230.000
33
-161.7466
0
3DFACE
8
A2
10
120.000
20
220.000
30
-155.4770
11
130.000
21
220.000
31
-156.8821
12
130.000
22
230.000
32
-163.5200
13
120.000
23
230.000
33
-162.4491
0
3DFACE
8
A2
10
130.000
20
220.000
30
-156.8821
11
140.000
21
220.000
31
-157.9846
12
140.000
22
230.000
32
-164.3836
13
130.000
23
230.000
33
-163.5200
0
3DFACE
8
A2
10
140.000
20
220.000
30
-157.9846
11
150.000
21
220.000
31
-158.8390
12
150.000
22
230.000
32
-165.0984
13
140.000
23
230.000
33
-164.3836
0
3DFACE
8
A2
10
150.000
20
220.000
30
-158.8390
11
160.000
21
220.000
31
-159.5021
12
160.000
22
230.000
32
-165.6823
13
150.000
23
230.000
33
-165.0984
0
3DFACE
8
A2
10
160.000
20
220.000
30
-159.5021
11
170.000
21
220.000
31
-159.9985
12
170.000
22
230.000
32
-166.1444
13
160.000
23
230.000
33
-165.6823
0
3DFACE
8
A2
10
170.000
20
220.000
30
-159.9985
11
180.000
21
220.000
31
-160.3305
12
180.000
22
230.000
32
-166.4873
13
170.000
23
230.000
33
-166.1444
0
3DFACE
8
A2
10
180.000
20
220.000
30
-160.3305
11
190.000
21
220.000
31
-160.7870
12
190.000
22
230.000
32
-166.9040
13
180.000
23
230.000
33
-166.4873
0
3DFACE
8
A2
10
190.000
20
220.000
30
-160.7870
11
200.000
21
220.000
31
-161.3115
12
200.000
22
230.000
32
-167.3347
13
190.000
23
230.000
33
-166.9040
0
3DFACE
8
A2
10
200.000
20
220.000
30
-161.3115
11
210.000
21
220.000
31
-161.8477
12
210.000
22
230.000
32
-167.7615
13
200.000
23
230.000
33
-167.3347
0
3DFACE
8
A2
10
210.000
20
220.000
30
-161.8477
11
220.000
21
220.000
31
-162.3798
12
220.000
22
230.000
32
-168.1844
13
210.000
23
230.000
33
-167.7615
0
3DFACE
8
A2
10
220.000
20
220.000
30
-162.3798
11
230.000
21
220.000
31
-162.9081
12
230.000
22
230.000
32
-168.6034
13
220.000
23
230.000
33
-168.1844
0
3DFACE
8
A2
10
230.000
20
220.000
30
-162.9081
11
240.000
21
220.000
31
-163.4348
12
240.000
22
230.000
32
-169.0208
13
230.000
23
230.000
33
-168.6034
0
3DFACE
8
A2
10
240.000
20
220.000
30
-163.4348
11
250.000
21
220.000
31
-163.9615
12
250.000
22
230.000
32
-169.4382
13
240.000
23
230.000
33
-169.0208
0
3DFACE
8
A2
10
250.000
20
220.000
30
-163.9615
11
260.000
21
220.000
31
-164.4904
12
260.000
22
230.000
32
-169.8556
13
250.000
23
230.000
33
-169.4382
0
3DFACE
8
A2
10
260.000
20
220.000
30
-164.4904
11
270.000
21
220.000
31
-165.0663
12
270.000
22
230.000
32
-170.2843
13
260.000
23
230.000
33
-169.8556
0
3DFACE
8
A2
10
270.000
20
220.000
30
-165.0663
11
280.000
21
220.000
31
-165.8072
12
280.000
22
230.000
32
-170.7959
13
270.000
23
230.000
33
-170.2843
0
3DFACE
8
A2
10
280.000
20
220.000
30
-165.8072
11
290.000
21
220.000
31
-166.2858
12
290.000
22
230.000
32
-171.1079
13
280.000
23
230.000
33
-170.7959
0
3DFACE
8
A2
10
290.000
20
220.000
30
-166.2858
11
300.000
21
220.000
31
-166.5023
12
300.000
22
230.000
32
-171.2203
13
290.000
23
230.000
33
-171.1079
0
3DFACE
8
A2
10
300.000
20
220.000
30
-166.5023
11
310.000
21
220.000
31
-166.4544
12
310.000
22
230.000
32
-171.1332
13
300.000
23
230.000
33
-171.2203
0
3DFACE
8
A2
10
310.000
20
220.000
30
-166.4544
11
320.000
21
220.000
31
-166.0974
12
320.000
22
230.000
32
-170.8352
13
310.000
23
230.000
33
-171.1332
0
3DFACE
8
A2
10
320.000
20
220.000
30
-166.0974
11
330.000
21
220.000
31
-165.3131
12
330.000
22
230.000
32
-170.2548
13
320.000
23
230.000
33
-170.8352
0
3DFACE
8
A2
10
330.000
20
220.000
30
-165.3131
11
340.000
21
220.000
31
-164.5289
12
340.000
22
230.000
32
-169.6743
13
330.000
23
230.000
33
-170.2548
0
3DFACE
8
A2
10
340.000
20
220.000
30
-164.5289
11
350.000
21
220.000
31
-163.7446
12
350.000
22
230.000
32
-169.0938
13
340.000
23
230.000
33
-169.6743
0
3DFACE
8
A2
10
350.000
20
220.000
30
-163.7446
11
360.000
21
220.000
31
-162.9603
12
360.000
22
230.000
32
-168.5132
13
350.000
23
230.000
33
-169.0938
0
3DFACE
8
A2
10
360.000
20
220.000
30
-162.9603
11
370.000
21
220.000
31
-162.1760
12
370.000
22
230.000
32
-167.9327
13
360.000
23
230.000
33
-168.5132
0
3DFACE
8
A2
10
370.000
20
220.000
30
-162.1760
11
380.000
21
220.000
31
-161.3916
12
380.000
22
230.000
32
-167.3521
13
370.000
23
230.000
33
-167.9327
0
3DFACE
8
A2
10
380.000
20
220.000
30
-161.3916
11
390.000
21
220.000
31
-160.6072
12
390.000
22
230.000
32
-166.7715
13
380.000
23
230.000
33
-167.3521
0
3DFACE
8
A2
10
390.000
20
220.000
30
-160.6072
11
400.000
21
220.000
31
-159.8229
12
400.000
22
230.000
32
-166.1909
13
390.000
23
230.000
33
-166.7715
0
3DFACE
8
A2
10
400.000
20
220.000
30
-159.8229
11
410.000
21
220.000
31
-159.0385
12
410.000
22
230.000
32
-165.6103
13
400.000
23
230.000
33
-166.1909
0
3DFACE
8
A2
10
410.000
20
220.000
30
-159.0385
11
420.000
21
220.000
31
-158.2542
12
420.000
22
230.000
32
-165.0297
13
410.000
23
230.000
33
-165.6103
0
3DFACE
8
A2
10
420.000
20
220.000
30
-158.2542
11
430.000
21
220.000
31
-157.4698
12
430.000
22
230.000
32
-164.4491
13
420.000
23
230.000
33
-165.0297
0
3DFACE
8
A2
10
430.000
20
220.000
30
-157.4698
11
440.000
21
220.000
31
-157.4863
12
440.000
22
230.000
32
-164.4977
13
430.000
23
230.000
33
-164.4491
0
3DFACE
8
A2
10
440.000
20
220.000
30
-157.4863
11
450.000
21
220.000
31
-157.6776
12
450.000
22
230.000
32
-164.6804
13
440.000
23
230.000
33
-164.4977
0
3DFACE
8
A2
10
450.000
20
220.000
30
-157.6776
11
460.000
21
220.000
31
-158.0437
12
460.000
22
230.000
32
-164.9970
13
450.000
23
230.000
33
-164.6804
0
3DFACE
8
A2
10
460.000
20
220.000
30
-158.0437
11
470.000
21
220.000
31
-158.5846
12
470.000
22
230.000
32
-165.4477
13
460.000
23
230.000
33
-164.9970
0
3DFACE
8
A2
10
470.000
20
220.000
30
-158.5846
11
480.000
21
220.000
31
-159.3002
12
480.000
22
230.000
32
-166.0324
13
470.000
23
230.000
33
-165.4477
0
3DFACE
8
A2
10
480.000
20
220.000
30
-159.3002
11
490.000
21
220.000
31
-159.3897
12
490.000
22
230.000
32
-166.1219
13
480.000
23
230.000
33
-166.0324
0
3DFACE
8
A2
10
490.000
20
220.000
30
-159.3897
11
500.000
21
220.000
31
-159.4792
12
500.000
22
230.000
32
-166.2114
13
490.000
23
230.000
33
-166.1219
0
3DFACE
8
A2
10
500.000
20
220.000
30
-159.4792
11
510.000
21
220.000
31
-159.5687
12
510.000
22
230.000
32
-166.3009
13
500.000
23
230.000
33
-166.2114
0
3DFACE
8
A2
10
510.000
20
220.000
30
-159.5687
11
520.000
21
220.000
31
-159.6583
12
520.000
22
230.000
32
-166.3904
13
510.000
23
230.000
33
-166.3009
0
3DFACE
8
A2
10
520.000
20
220.000
30
-159.6583
11
530.000
21
220.000
31
-159.7478
12
530.000
22
230.000
32
-166.4799
13
520.000
23
230.000
33
-166.3904
0
3DFACE
8
A2
10
530.000
20
220.000
30
-159.7478
11
540.000
21
220.000
31
-159.8194
12
540.000
22
230.000
32
-166.5515
13
530.000
23
230.000
33
-166.4799
0
3DFACE
8
A2
10
540.000
20
220.000
30
-159.8194
11
550.000
21
220.000
31
-159.8731
12
550.000
22
230.000
32
-166.6052
13
540.000
23
230.000
33
-166.5515
0
3DFACE
8
A2
10
0.000
20
230.000
30
-162.4141
11
10.000
21
230.000
31
-162.3817
12
10.000
22
240.000
32
-168.6580
13
0.000
23
240.000
33
-168.7325
0
3DFACE
8
A2
10
10.000
20
230.000
30
-162.3817
11
20.000
21
230.000
31
-162.3653
12
20.000
22
240.000
32
-168.5856
13
10.000
23
240.000
33
-168.6580
0
3DFACE
8
A2
10
20.000
20
230.000
30
-162.3653
11
30.000
21
230.000
31
-162.4031
12
30.000
22
240.000
32
-168.5532
13
20.000
23
240.000
33
-168.5856
0
3DFACE
8
A2
10
30.000
20
230.000
30
-162.4031
11
40.000
21
230.000
31
-162.4344
12
40.000
22
240.000
32
-168.5908
13
30.000
23
240.000
33
-168.5532
0
3DFACE
8
A2
10
40.000
20
230.000
30
-162.4344
11
50.000
21
230.000
31
-162.4139
12
50.000
22
240.000
32
-168.6528
13
40.000
23
240.000
33
-168.5908
0
3DFACE
8
A2
10
50.000
20
230.000
30
-162.4139
11
60.000
21
230.000
31
-162.3087
12
60.000
22
240.000
32
-168.7063
13
50.000
23
240.000
33
-168.6528
0
3DFACE
8
A2
10
60.000
20
230.000
30
-162.3087
11
70.000
21
230.000
31
-162.0513
12
70.000
22
240.000
32
-168.6839
13
60.000
23
240.000
33
-168.7063
0
3DFACE
8
A2
10
70.000
20
230.000
30
-162.0513
11
80.000
21
230.000
31
-161.5780
12
80.000
22
240.000
32
-168.5219
13
70.000
23
240.000
33
-168.6839
0
3DFACE
8
A2
10
80.000
20
230.000
30
-161.5780
11
90.000
21
230.000
31
-161.3453
12
90.000
22
240.000
32
-168.4713
13
80.000
23
240.000
33
-168.5219
0
3DFACE
8
A2
10
90.000
20
230.000
30
-161.3453
11
100.000
21
230.000
31
-161.3893
12
100.000
22
240.000
32
-168.5683
13
90.000
23
240.000
33
-168.4713
0
3DFACE
8
A2
10
100.000
20
230.000
30
-161.3893
11
110.000
21
230.000
31
-161.7466
12
110.000
22
240.000
32
-168.8496
13
100.000
23
240.000
33
-168.5683
0
3DFACE
8
A2
10
110.000
20
230.000
30
-161.7466
11
120.000
21
230.000
31
-162.4491
12
120.000
22
240.000
32
-169.3469
13
110.000
23
240.000
33
-168.8496
0
3DFACE
8
A2
10
120.000
20
230.000
30
-162.4491
11
130.000
21
230.000
31
-163.5200
12
130.000
22
240.000
32
-170.0836
13
120.000
23
240.000
33
-169.3469
0
3DFACE
8
A2
10
130.000
20
230.000
30
-163.5200
11
140.000
21
230.000
31
-164.3836
12
140.000
22
240.000
32
-170.7139
13
130.000
23
240.000
33
-170.0836
0
3DFACE
8
A2
10
140.000
20
230.000
30
-164.3836
11
150.000
21
230.000
31
-165.0984
12
150.000
22
240.000
32
-171.2583
13
140.000
23
240.000
33
-170.7139
0
3DFACE
8
A2
10
150.000
20
230.000
30
-165.0984
11
160.000
21
230.000
31
-165.6823
12
160.000
22
240.000
32
-171.7166
13
150.000
23
240.000
33
-171.2583
0
3DFACE
8
A2
10
160.000
20
230.000
30
-165.6823
11
170.000
21
230.000
31
-166.1444
12
170.000
22
240.000
32
-172.0983
13
160.000
23
240.000
33
-171.7166
0
3DFACE
8
A2
10
170.000
20
230.000
30
-166.1444
11
180.000
21
230.000
31
-166.4873
12
180.000
22
240.000
32
-172.4057
13
170.000
23
240.000
33
-172.0983
0
3DFACE
8
A2
10
180.000
20
230.000
30
-166.4873
11
190.000
21
230.000
31
-166.9040
12
190.000
22
240.000
32
-172.7310
13
180.000
23
240.000
33
-172.4057
0
3DFACE
8
A2
10
190.000
20
230.000
30
-166.9040
11
200.000
21
230.000
31
-167.3347
12
200.000
22
240.000
32
-173.0525
13
190.000
23
240.000
33
-172.7310
0
3DFACE
8
A2
10
200.000
20
230.000
30
-167.3347
11
210.000
21
230.000
31
-167.7615
12
210.000
22
240.000
32
-173.3700
13
200.000
23
240.000
33
-173.0525
0
3DFACE
8
A2
10
210.000
20
230.000
30
-167.7615
11
220.000
21
230.000
31
-168.1844
12
220.000
22
240.000
32
-173.6836
13
210.000
23
240.000
33
-173.3700
0
3DFACE
8
A2
10
220.000
20
230.000
30
-168.1844
11
230.000
21
230.000
31
-168.6034
12
230.000
22
240.000
32
-173.9932
13
220.000
23
240.000
33
-173.6836
0
3DFACE
8
A2
10
230.000
20
230.000
30
-168.6034
11
240.000
21
230.000
31
-169.0208
12
240.000
22
240.000
32
-174.3013
13
230.000
23
240.000
33
-173.9932
0
3DFACE
8
A2
10
240.000
20
230.000
30
-169.0208
11
250.000
21
230.000
31
-169.4382
12
250.000
22
240.000
32
-174.6094
13
240.000
23
240.000
33
-174.3013
0
3DFACE
8
A2
10
250.000
20
230.000
30
-169.4382
11
260.000
21
230.000
31
-169.8556
12
260.000
22
240.000
32
-174.9176
13
250.000
23
240.000
33
-174.6094
0
3DFACE
8
A2
10
260.000
20
230.000
30
-169.8556
11
270.000
21
230.000
31
-170.2843
12
270.000
22
240.000
32
-175.2257
13
260.000
23
240.000
33
-174.9176
0
3DFACE
8
A2
10
270.000
20
230.000
30
-170.2843
11
280.000
21
230.000
31
-170.7959
12
280.000
22
240.000
32
-175.5541
13
270.000
23
240.000
33
-175.2257
0
3DFACE
8
A2
10
280.000
20
230.000
30
-170.7959
11
290.000
21
230.000
31
-171.1079
12
290.000
22
240.000
32
-175.7495
13
280.000
23
240.000
33
-175.5541
0
3DFACE
8
A2
10
290.000
20
230.000
30
-171.1079
11
300.000
21
230.000
31
-171.2203
12
300.000
22
240.000
32
-175.8119
13
290.000
23
240.000
33
-175.7495
0
3DFACE
8
A2
10
300.000
20
230.000
30
-171.2203
11
310.000
21
230.000
31
-171.1332
12
310.000
22
240.000
32
-175.7412
13
300.000
23
240.000
33
-175.8119
0
3DFACE
8
A2
10
310.000
20
230.000
30
-171.1332
11
320.000
21
230.000
31
-170.8352
12
320.000
22
240.000
32
-175.5374
13
310.000
23
240.000
33
-175.7412
0
3DFACE
8
A2
10
320.000
20
230.000
30
-170.8352
11
330.000
21
230.000
31
-170.2548
12
330.000
22
240.000
32
-175.1804
13
320.000
23
240.000
33
-175.5374
0
3DFACE
8
A2
10
330.000
20
230.000
30
-170.2548
11
340.000
21
230.000
31
-169.6743
12
340.000
22
240.000
32
-174.8232
13
330.000
23
240.000
33
-175.1804
0
3DFACE
8
A2
10
340.000
20
230.000
30
-169.6743
11
350.000
21
230.000
31
-169.0938
12
350.000
22
240.000
32
-174.4661
13
340.000
23
240.000
33
-174.8232
0
3DFACE
8
A2
10
350.000
20
230.000
30
-169.0938
11
360.000
21
230.000
31
-168.5132
12
360.000
22
240.000
32
-174.1089
13
350.000
23
240.000
33
-174.4661
0
3DFACE
8
A2
10
360.000
20
230.000
30
-168.5132
11
370.000
21
230.000
31
-167.9327
12
370.000
22
240.000
32
-173.7517
13
360.000
23
240.000
33
-174.1089
0
3DFACE
8
A2
10
370.000
20
230.000
30
-167.9327
11
380.000
21
230.000
31
-167.3521
12
380.000
22
240.000
32
-173.3945
13
370.000
23
240.000
33
-173.7517
0
3DFACE
8
A2
10
380.000
20
230.000
30
-167.3521
11
390.000
21
230.000
31
-166.7715
12
390.000
22
240.000
32
-173.0373
13
380.000
23
240.000
33
-173.3945
0
3DFACE
8
A2
10
390.000
20
230.000
30
-166.7715
11
400.000
21
230.000
31
-166.1909
12
400.000
22
240.000
32
-172.6801
13
390.000
23
240.000
33
-173.0373
0
3DFACE
8
A2
10
400.000
20
230.000
30
-166.1909
11
410.000
21
230.000
31
-165.6103
12
410.000
22
240.000
32
-172.3228
13
400.000
23
240.000
33
-172.6801
0
3DFACE
8
A2
10
410.000
20
230.000
30
-165.6103
11
420.000
21
230.000
31
-165.0297
12
420.000
22
240.000
32
-171.9656
13
410.000
23
240.000
33
-172.3228
0
3DFACE
8
A2
10
420.000
20
230.000
30
-165.0297
11
430.000
21
230.000
31
-164.4491
12
430.000
22
240.000
32
-171.6084
13
420.000
23
240.000
33
-171.9656
0
3DFACE
8
A2
10
430.000
20
230.000
30
-164.4491
11
440.000
21
230.000
31
-164.4977
12
440.000
22
240.000
32
-171.6609
13
430.000
23
240.000
33
-171.6084
0
3DFACE
8
A2
10
440.000
20
230.000
30
-164.4977
11
450.000
21
230.000
31
-164.6804
12
450.000
22
240.000
32
-171.8028
13
440.000
23
240.000
33
-171.6609
0
3DFACE
8
A2
10
450.000
20
230.000
30
-164.6804
11
460.000
21
230.000
31
-164.9970
12
460.000
22
240.000
32
-172.0341
13
450.000
23
240.000
33
-171.8028
0
3DFACE
8
A2
10
460.000
20
230.000
30
-164.9970
11
470.000
21
230.000
31
-165.4477
12
470.000
22
240.000
32
-172.3547
13
460.000
23
240.000
33
-172.0341
0
3DFACE
8
A2
10
470.000
20
230.000
30
-165.4477
11
480.000
21
230.000
31
-166.0324
12
480.000
22
240.000
32
-172.7646
13
470.000
23
240.000
33
-172.3547
0
3DFACE
8
A2
10
480.000
20
230.000
30
-166.0324
11
490.000
21
230.000
31
-166.1219
12
490.000
22
240.000
32
-172.8541
13
480.000
23
240.000
33
-172.7646
0
3DFACE
8
A2
10
490.000
20
230.000
30
-166.1219
11
500.000
21
230.000
31
-166.2114
12
500.000
22
240.000
32
-172.9436
13
490.000
23
240.000
33
-172.8541
0
3DFACE
8
A2
10
500.000
20
230.000
30
-166.2114
11
510.000
21
230.000
31
-166.3009
12
510.000
22
240.000
32
-173.0331
13
500.000
23
240.000
33
-172.9436
0
3DFACE
8
A2
10
510.000
20
230.000
30
-166.3009
11
520.000
21
230.000
31
-166.3904
12
520.000
22
240.000
32
-173.1226
13
510.000
23
240.000
33
-173.0331
0
3DFACE
8
A2
10
520.000
20
230.000
30
-166.3904
11
530.000
21
230.000
31
-166.4799
12
530.000
22
240.000
32
-173.2121
13
520.000
23
240.000
33
-173.1226
0
3DFACE
8
A2
10
530.000
20
230.000
30
-166.4799
11
540.000
21
230.000
31
-166.5515
12
540.000
22
240.000
32
-173.2837
13
530.000
23
240.000
33
-173.2121
0
3DFACE
8
A2
10
540.000
20
230.000
30
-166.5515
11
550.000
21
230.000
31
-166.6052
12
550.000
22
240.000
32
-173.3374
13
540.000
23
240.000
33
-173.2837
0
3DFACE
8
A2
10
0.000
20
240.000
30
-168.7325
11
10.000
21
240.000
31
-168.6580
12
10.000
22
250.000
32
-173.6204
13
0.000
23
250.000
33
-173.6640
0
3DFACE
8
A2
10
10.000
20
240.000
30
-168.6580
11
20.000
21
240.000
31
-168.5856
12
20.000
22
250.000
32
-173.6058
13
10.000
23
250.000
33
-173.6204
0
3DFACE
8
A2
10
20.000
20
240.000
30
-168.5856
11
30.000
21
240.000
31
-168.5532
12
30.000
22
250.000
32
-173.6202
13
20.000
23
250.000
33
-173.6058
0
3DFACE
8
A2
10
30.000
20
240.000
30
-168.5532
11
40.000
21
240.000
31
-168.5908
12
40.000
22
250.000
32
-173.7138
13
30.000
23
250.000
33
-173.6202
0
3DFACE
8
A2
10
40.000
20
240.000
30
-168.5908
11
50.000
21
240.000
31
-168.6528
12
50.000
22
250.000
32
-173.8588
13
40.000
23
250.000
33
-173.7138
0
3DFACE
8
A2
10
50.000
20
240.000
30
-168.6528
11
60.000
21
240.000
31
-168.7063
12
60.000
22
250.000
32
-174.0038
13
50.000
23
250.000
33
-173.8588
0
3DFACE
8
A2
10
60.000
20
240.000
30
-168.7063
11
70.000
21
240.000
31
-168.6839
12
70.000
22
250.000
32
-174.0961
13
60.000
23
250.000
33
-174.0038
0
3DFACE
8
A2
10
70.000
20
240.000
30
-168.6839
11
80.000
21
240.000
31
-168.5219
12
80.000
22
250.000
32
-174.1287
13
70.000
23
250.000
33
-174.0961
0
3DFACE
8
A2
10
80.000
20
240.000
30
-168.5219
11
90.000
21
240.000
31
-168.4713
12
90.000
22
250.000
32
-174.2171
13
80.000
23
250.000
33
-174.1287
0
3DFACE
8
A2
10
90.000
20
240.000
30
-168.4713
11
100.000
21
240.000
31
-168.5683
12
100.000
22
250.000
32
-174.3612
13
90.000
23
250.000
33
-174.2171
0
3DFACE
8
A2
10
100.000
20
240.000
30
-168.5683
11
110.000
21
240.000
31
-168.8496
12
110.000
22
250.000
32
-174.5610
13
100.000
23
250.000
33
-174.3612
0
3DFACE
8
A2
10
110.000
20
240.000
30
-168.8496
11
120.000
21
240.000
31
-169.3469
12
120.000
22
250.000
32
-174.8599
13
110.000
23
250.000
33
-174.5610
0
3DFACE
8
A2
10
120.000
20
240.000
30
-169.3469
11
130.000
21
240.000
31
-170.0836
12
130.000
22
250.000
32
-175.2624
13
120.000
23
250.000
33
-174.8599
0
3DFACE
8
A2
10
130.000
20
240.000
30
-170.0836
11
140.000
21
240.000
31
-170.7139
12
140.000
22
250.000
32
-175.6240
13
130.000
23
250.000
33
-175.2624
0
3DFACE
8
A2
10
140.000
20
240.000
30
-170.7139
11
150.000
21
240.000
31
-171.2583
12
150.000
22
250.000
32
-175.9445
13
140.000
23
250.000
33
-175.6240
0
3DFACE
8
A2
10
150.000
20
240.000
30
-171.2583
11
160.000
21
240.000
31
-171.7166
12
160.000
22
250.000
32
-176.2240
13
150.000
23
250.000
33
-175.9445
0
3DFACE
8
A2
10
160.000
20
240.000
30
-171.7166
11
170.000
21
240.000
31
-172.0983
12
170.000
22
250.000
32
-176.4717
13
160.000
23
250.000
33
-176.2240
0
3DFACE
8
A2
10
170.000
20
240.000
30
-172.0983
11
180.000
21
240.000
31
-172.4057
12
180.000
22
250.000
32
-176.6901
13
170.000
23
250.000
33
-176.4717
0
3DFACE
8
A2
10
180.000
20
240.000
30
-172.4057
11
190.000
21
240.000
31
-172.7310
12
190.000
22
250.000
32
-176.9062
13
180.000
23
250.000
33
-176.6901
0
3DFACE
8
A2
10
190.000
20
240.000
30
-172.7310
11
200.000
21
240.000
31
-173.0525
12
200.000
22
250.000
32
-177.1183
13
190.000
23
250.000
33
-176.9062
0
3DFACE
8
A2
10
200.000
20
240.000
30
-173.0525
11
210.000
21
240.000
31
-173.3700
12
210.000
22
250.000
32
-177.3265
13
200.000
23
250.000
33
-177.1183
0
3DFACE
8
A2
10
210.000
20
240.000
30
-173.3700
11
220.000
21
240.000
31
-173.6836
12
220.000
22
250.000
32
-177.5308
13
210.000
23
250.000
33
-177.3265
0
3DFACE
8
A2
10
220.000
20
240.000
30
-173.6836
11
230.000
21
240.000
31
-173.9932
12
230.000
22
250.000
32
-177.7312
13
220.000
23
250.000
33
-177.5308
0
3DFACE
8
A2
10
230.000
20
240.000
30
-173.9932
11
240.000
21
240.000
31
-174.3013
12
240.000
22
250.000
32
-177.9300
13
230.000
23
250.000
33
-177.7312
0
3DFACE
8
A2
10
240.000
20
240.000
30
-174.3013
11
250.000
21
240.000
31
-174.6094
12
250.000
22
250.000
32
-178.1288
13
240.000
23
250.000
33
-177.9300
0
3DFACE
8
A2
10
250.000
20
240.000
30
-174.6094
11
260.000
21
240.000
31
-174.9176
12
260.000
22
250.000
32
-178.3276
13
250.000
23
250.000
33
-178.1288
0
3DFACE
8
A2
10
260.000
20
240.000
30
-174.9176
11
270.000
21
240.000
31
-175.2257
12
270.000
22
250.000
32
-178.5264
13
260.000
23
250.000
33
-178.3276
0
3DFACE
8
A2
10
270.000
20
240.000
30
-175.2257
11
280.000
21
240.000
31
-175.5541
12
280.000
22
250.000
32
-178.7252
13
270.000
23
250.000
33
-178.5264
0
3DFACE
8
A2
10
280.000
20
240.000
30
-175.5541
11
290.000
21
240.000
31
-175.7495
12
290.000
22
250.000
32
-178.8575
13
280.000
23
250.000
33
-178.7252
0
3DFACE
8
A2
10
290.000
20
240.000
30
-175.7495
11
300.000
21
240.000
31
-175.8119
12
300.000
22
250.000
32
-178.9232
13
290.000
23
250.000
33
-178.8575
0
3DFACE
8
A2
10
300.000
20
240.000
30
-175.8119
11
310.000
21
240.000
31
-175.7412
12
310.000
22
250.000
32
-178.9224
13
300.000
23
250.000
33
-178.9232
0
3DFACE
8
A2
10
310.000
20
240.000
30
-175.7412
11
320.000
21
240.000
31
-175.5374
12
320.000
22
250.000
32
-178.8551
13
310.000
23
250.000
33
-178.9224
0
3DFACE
8
A2
10
320.000
20
240.000
30
-175.5374
11
330.000
21
240.000
31
-175.1804
12
330.000
22
250.000
32
-178.7212
13
320.000
23
250.000
33
-178.8551
0
3DFACE
8
A2
10
330.000
20
240.000
30
-175.1804
11
340.000
21
240.000
31
-174.8232
12
340.000
22
250.000
32
-178.5874
13
330.000
23
250.000
33
-178.7212
0
3DFACE
8
A2
10
340.000
20
240.000
30
-174.8232
11
350.000
21
240.000
31
-174.4661
12
350.000
22
250.000
32
-178.4535
13
340.000
23
250.000
33
-178.5874
0
3DFACE
8
A2
10
350.000
20
240.000
30
-174.4661
11
360.000
21
240.000
31
-174.1089
12
360.000
22
250.000
32
-178.3196
13
350.000
23
250.000
33
-178.4535
0
3DFACE
8
A2
10
360.000
20
240.000
30
-174.1089
11
370.000
21
240.000
31
-173.7517
12
370.000
22
250.000
32
-178.1858
13
360.000
23
250.000
33
-178.3196
0
3DFACE
8
A2
10
370.000
20
240.000
30
-173.7517
11
380.000
21
240.000
31
-173.3945
12
380.000
22
250.000
32
-178.0519
13
370.000
23
250.000
33
-178.1858
0
3DFACE
8
A2
10
380.000
20
240.000
30
-173.3945
11
390.000
21
240.000
31
-173.0373
12
390.000
22
250.000
32
-177.9181
13
380.000
23
250.000
33
-178.0519
0
3DFACE
8
A2
10
390.000
20
240.000
30
-173.0373
11
400.000
21
240.000
31
-172.6801
12
400.000
22
250.000
32
-177.7842
13
390.000
23
250.000
33
-177.9181
0
3DFACE
8
A2
10
400.000
20
240.000
30
-172.6801
11
410.000
21
240.000
31
-172.3228
12
410.000
22
250.000
32
-177.6503
13
400.000
23
250.000
33
-177.7842
0
3DFACE
8
A2
10
410.000
20
240.000
30
-172.3228
11
420.000
21
240.000
31
-171.9656
12
420.000
22
250.000
32
-177.5165
13
410.000
23
250.000
33
-177.6503
0
3DFACE
8
A2
10
420.000
20
240.000
30
-171.9656
11
430.000
21
240.000
31
-171.6084
12
430.000
22
250.000
32
-177.3826
13
420.000
23
250.000
33
-177.5165
0
3DFACE
8
A2
10
430.000
20
240.000
30
-171.6084
11
440.000
21
240.000
31
-171.6609
12
440.000
22
250.000
32
-177.4468
13
430.000
23
250.000
33
-177.3826
0
3DFACE
8
A2
10
440.000
20
240.000
30
-171.6609
11
450.000
21
240.000
31
-171.8028
12
450.000
22
250.000
32
-177.5557
13
440.000
23
250.000
33
-177.4468
0
3DFACE
8
A2
10
450.000
20
240.000
30
-171.8028
11
460.000
21
240.000
31
-172.0341
12
460.000
22
250.000
32
-177.7092
13
450.000
23
250.000
33
-177.5557
0
3DFACE
8
A2
10
460.000
20
240.000
30
-172.0341
11
470.000
21
240.000
31
-172.3547
12
470.000
22
250.000
32
-177.9074
13
460.000
23
250.000
33
-177.7092
0
3DFACE
8
A2
10
470.000
20
240.000
30
-172.3547
11
480.000
21
240.000
31
-172.7646
12
480.000
22
250.000
32
-178.1503
13
470.000
23
250.000
33
-177.9074
0
3DFACE
8
A2
10
480.000
20
240.000
30
-172.7646
11
490.000
21
240.000
31
-172.8541
12
490.000
22
250.000
32
-178.2398
13
480.000
23
250.000
33
-178.1503
0
3DFACE
8
A2
10
490.000
20
240.000
30
-172.8541
11
500.000
21
240.000
31
-172.9436
12
500.000
22
250.000
32
-178.3293
13
490.000
23
250.000
33
-178.2398
0
3DFACE
8
A2
10
500.000
20
240.000
30
-172.9436
11
510.000
21
240.000
31
-173.0331
12
510.000
22
250.000
32
-178.4188
13
500.000
23
250.000
33
-178.3293
0
3DFACE
8
A2
10
510.000
20
240.000
30
-173.0331
11
520.000
21
240.000
31
-173.1226
12
520.000
22
250.000
32
-178.5084
13
510.000
23
250.000
33
-178.4188
0
3DFACE
8
A2
10
520.000
20
240.000
30
-173.1226
11
530.000
21
240.000
31
-173.2121
12
530.000
22
250.000
32
-178.5979
13
520.000
23
250.000
33
-178.5084
0
3DFACE
8
A2
10
530.000
20
240.000
30
-173.2121
11
540.000
21
240.000
31
-173.2837
12
540.000
22
250.000
32
-178.6695
13
530.000
23
250.000
33
-178.5979
0
3DFACE
8
A2
10
540.000
20
240.000
30
-173.2837
11
550.000
21
240.000
31
-173.3374
12
550.000
22
250.000
32
-178.7232
13
540.000
23
250.000
33
-178.6695
0
3DFACE
8
A2
10
0.000
20
250.000
30
-173.6640
11
10.000
21
250.000
31
-173.6204
12
10.000
22
260.000
32
-178.0008
13
0.000
23
260.000
33
-177.9471
0
3DFACE
8
A2
10
10.000
20
250.000
30
-173.6204
11
20.000
21
250.000
31
-173.6058
12
20.000
22
260.000
32
-178.0724
13
10.000
23
260.000
33
-178.0008
0
3DFACE
8
A2
10
20.000
20
250.000
30
-173.6058
11
30.000
21
250.000
31
-173.6202
12
30.000
22
260.000
32
-178.1619
13
20.000
23
260.000
33
-178.0724
0
3DFACE
8
A2
10
30.000
20
250.000
30
-173.6202
11
40.000
21
250.000
31
-173.7138
12
40.000
22
260.000
32
-178.2514
13
30.000
23
260.000
33
-178.1619
0
3DFACE
8
A2
10
40.000
20
250.000
30
-173.7138
11
50.000
21
250.000
31
-173.8588
12
50.000
22
260.000
32
-178.3409
13
40.000
23
260.000
33
-178.2514
0
3DFACE
8
A2
10
50.000
20
250.000
30
-173.8588
11
60.000
21
250.000
31
-174.0038
12
60.000
22
260.000
32
-178.4304
13
50.000
23
260.000
33
-178.3409
0
3DFACE
8
A2
10
60.000
20
250.000
30
-174.0038
11
70.000
21
250.000
31
-174.0961
12
70.000
22
260.000
32
-178.5199
13
60.000
23
260.000
33
-178.4304
0
3DFACE
8
A2
10
70.000
20
250.000
30
-174.0961
11
80.000
21
250.000
31
-174.1287
12
80.000
22
260.000
32
-178.6094
13
70.000
23
260.000
33
-178.5199
0
3DFACE
8
A2
10
80.000
20
250.000
30
-174.1287
11
90.000
21
250.000
31
-174.2171
12
90.000
22
260.000
32
-178.6989
13
80.000
23
260.000
33
-178.6094
0
3DFACE
8
A2
10
90.000
20
250.000
30
-174.2171
11
100.000
21
250.000
31
-174.3612
12
100.000
22
260.000
32
-178.7884
13
90.000
23
260.000
33
-178.6989
0
3DFACE
8
A2
10
100.000
20
250.000
30
-174.3612
11
110.000
21
250.000
31
-174.5610
12
110.000
22
260.000
32
-178.8779
13
100.000
23
260.000
33
-178.7884
0
3DFACE
8
A2
10
110.000
20
250.000
30
-174.5610
11
120.000
21
250.000
31
-174.8599
12
120.000
22
260.000
32
-178.9674
13
110.000
23
260.000
33
-178.8779
0
3DFACE
8
A2
10
120.000
20
250.000
30
-174.8599
11
130.000
21
250.000
31
-175.2624
12
130.000
22
260.000
32
-179.0569
13
120.000
23
260.000
33
-178.9674
0
3DFACE
8
A2
10
130.000
20
250.000
30
-175.2624
11
140.000
21
250.000
31
-175.6240
12
140.000
22
260.000
32
-179.1465
13
130.000
23
260.000
33
-179.0569
0
3DFACE
8
A2
10
140.000
20
250.000
30
-175.6240
11
150.000
21
250.000
31
-175.9445
12
150.000
22
260.000
32
-179.2360
13
140.000
23
260.000
33
-179.1465
0
3DFACE
8
A2
10
150.000
20
250.000
30
-175.9445
11
160.000
21
250.000
31
-176.2240
12
160.000
22
260.000
32
-179.3255
13
150.000
23
260.000
33
-179.2360
0
3DFACE
8
A2
10
160.000
20
250.000
30
-176.2240
11
170.000
21
250.000
31
-176.4717
12
170.000
22
260.000
32
-179.4150
13
160.000
23
260.000
33
-179.3255
0
3DFACE
8
A2
10
170.000
20
250.000
30
-176.4717
11
180.000
21
250.000
31
-176.6901
12
180.000
22
260.000
32
-179.5045
13
170.000
23
260.000
33
-179.4150
0
3DFACE
8
A2
10
180.000
20
250.000
30
-176.6901
11
190.000
21
250.000
31
-176.9062
12
190.000
22
260.000
32
-179.5940
13
180.000
23
260.000
33
-179.5045
0
3DFACE
8
A2
10
190.000
20
250.000
30
-176.9062
11
200.000
21
250.000
31
-177.1183
12
200.000
22
260.000
32
-179.6835
13
190.000
23
260.000
33
-179.5940
0
3DFACE
8
A2
10
200.000
20
250.000
30
-177.1183
11
210.000
21
250.000
31
-177.3265
12
210.000
22
260.000
32
-179.7730
13
200.000
23
260.000
33
-179.6835
0
3DFACE
8
A2
10
210.000
20
250.000
30
-177.3265
11
220.000
21
250.000
31
-177.5308
12
220.000
22
260.000
32
-179.8625
13
210.000
23
260.000
33
-179.7730
0
3DFACE
8
A2
10
220.000
20
250.000
30
-177.5308
11
230.000
21
250.000
31
-177.7312
12
230.000
22
260.000
32
-179.9520
13
220.000
23
260.000
33
-179.8625
0
3DFACE
8
A2
10
230.000
20
250.000
30
-177.7312
11
240.000
21
250.000
31
-177.9300
12
240.000
22
260.000
32
-180.0415
13
230.000
23
260.000
33
-179.9520
0
3DFACE
8
A2
10
240.000
20
250.000
30
-177.9300
11
250.000
21
250.000
31
-178.1288
12
250.000
22
260.000
32
-180.1310
13
240.000
23
260.000
33
-180.0415
0
3DFACE
8
A2
10
250.000
20
250.000
30
-178.1288
11
260.000
21
250.000
31
-178.3276
12
260.000
22
260.000
32
-180.2205
13
250.000
23
260.000
33
-180.1310
0
3DFACE
8
A2
10
260.000
20
250.000
30
-178.3276
11
270.000
21
250.000
31
-178.5264
12
270.000
22
260.000
32
-180.3100
13
260.000
23
260.000
33
-180.2205
0
3DFACE
8
A2
10
270.000
20
250.000
30
-178.5264
11
280.000
21
250.000
31
-178.7252
12
280.000
22
260.000
32
-180.3995
13
270.000
23
260.000
33
-180.3100
0
3DFACE
8
A2
10
280.000
20
250.000
30
-178.7252
11
290.000
21
250.000
31
-178.8575
12
290.000
22
260.000
32
-180.4890
13
280.000
23
260.000
33
-180.3995
0
3DFACE
8
A2
10
290.000
20
250.000
30
-178.8575
11
300.000
21
250.000
31
-178.9232
12
300.000
22
260.000
32
-180.5785
13
290.000
23
260.000
33
-180.4890
0
3DFACE
8
A2
10
300.000
20
250.000
30
-178.9232
11
310.000
21
250.000
31
-178.9224
12
310.000
22
260.000
32
-180.6680
13
300.000
23
260.000
33
-180.5785
0
3DFACE
8
A2
10
310.000
20
250.000
30
-178.9224
11
320.000
21
250.000
31
-178.8551
12
320.000
22
260.000
32
-180.7576
13
310.000
23
260.000
33
-180.6680
0
3DFACE
8
A2
10
320.000
20
250.000
30
-178.8551
11
330.000
21
250.000
31
-178.7212
12
330.000
22
260.000
32
-180.8471
13
320.000
23
260.000
33
-180.7576
0
3DFACE
8
A2
10
330.000
20
250.000
30
-178.7212
11
340.000
21
250.000
31
-178.5874
12
340.000
22
260.000
32
-180.9366
13
330.000
23
260.000
33
-180.8471
0
3DFACE
8
A2
10
340.000
20
250.000
30
-178.5874
11
350.000
21
250.000
31
-178.4535
12
350.000
22
260.000
32
-181.0261
13
340.000
23
260.000
33
-180.9366
0
3DFACE
8
A2
10
350.000
20
250.000
30
-178.4535
11
360.000
21
250.000
31
-178.3196
12
360.000
22
260.000
32
-181.1156
13
350.000
23
260.000
33
-181.0261
0
3DFACE
8
A2
10
360.000
20
250.000
30
-178.3196
11
370.000
21
250.000
31
-178.1858
12
370.000
22
260.000
32
-181.2051
13
360.000
23
260.000
33
-181.1156
0
3DFACE
8
A2
10
370.000
20
250.000
30
-178.1858
11
380.000
21
250.000
31
-178.0519
12
380.000
22
260.000
32
-181.2946
13
370.000
23
260.000
33
-181.2051
0
3DFACE
8
A2
10
380.000
20
250.000
30
-178.0519
11
390.000
21
250.000
31
-177.9181
12
390.000
22
260.000
32
-181.3841
13
380.000
23
260.000
33
-181.2946
0
3DFACE
8
A2
10
390.000
20
250.000
30
-177.9181
11
400.000
21
250.000
31
-177.7842
12
400.000
22
260.000
32
-181.4736
13
390.000
23
260.000
33
-181.3841
0
3DFACE
8
A2
10
400.000
20
250.000
30
-177.7842
11
410.000
21
250.000
31
-177.6503
12
410.000
22
260.000
32
-181.5631
13
400.000
23
260.000
33
-181.4736
0
3DFACE
8
A2
10
410.000
20
250.000
30
-177.6503
11
420.000
21
250.000
31
-177.5165
12
420.000
22
260.000
32
-181.6526
13
410.000
23
260.000
33
-181.5631
0
3DFACE
8
A2
10
420.000
20
250.000
30
-177.5165
11
430.000
21
250.000
31
-177.3826
12
430.000
22
260.000
32
-181.7421
13
420.000
23
260.000
33
-181.6526
0
3DFACE
8
A2
10
430.000
20
250.000
30
-177.3826
11
440.000
21
250.000
31
-177.4468
12
440.000
22
260.000
32
-181.8316
13
430.000
23
260.000
33
-181.7421
0
3DFACE
8
A2
10
440.000
20
250.000
30
-177.4468
11
450.000
21
250.000
31
-177.5557
12
450.000
22
260.000
32
-181.9211
13
440.000
23
260.000
33
-181.8316
0
3DFACE
8
A2
10
450.000
20
250.000
30
-177.5557
11
460.000
21
250.000
31
-177.7092
12
460.000
22
260.000
32
-182.0106
13
450.000
23
260.000
33
-181.9211
0
3DFACE
8
A2
10
460.000
20
250.000
30
-177.7092
11
470.000
21
250.000
31
-177.9074
12
470.000
22
260.000
32
-182.1001
13
460.000
23
260.000
33
-182.0106
0
3DFACE
8
A2
10
470.000
20
250.000
30
-177.9074
11
480.000
21
250.000
31
-178.1503
12
480.000
22
260.000
32
-182.1896
13
470.000
23
260.000
33
-182.1001
0
3DFACE
8
A2
10
480.000
20
250.000
30
-178.1503
11
490.000
21
250.000
31
-178.2398
12
490.000
22
260.000
32
-182.2791
13
480.000
23
260.000
33
-182.1896
0
3DFACE
8
A2
10
490.000
20
250.000
30
-178.2398
11
500.000
21
250.000
31
-178.3293
12
500.000
22
260.000
32
-182.3687
13
490.000
23
260.000
33
-182.2791
0
3DFACE
8
A2
10
500.000
20
250.000
30
-178.3293
11
510.000
21
250.000
31
-178.4188
12
510.000
22
260.000
32
-182.4582
13
500.000
23
260.000
33
-182.3687
0
3DFACE
8
A2
10
510.000
20
250.000
30
-178.4188
11
520.000
21
250.000
31
-178.5084
12
520.000
22
260.000
32
-182.5477
13
510.000
23
260.000
33
-182.4582
0
3DFACE
8
A2
10
520.000
20
250.000
30
-178.5084
11
530.000
21
250.000
31
-178.5979
12
530.000
22
260.000
32
-182.6372
13
520.000
23
260.000
33
-182.5477
0
3DFACE
8
A2
10
530.000
20
250.000
30
-178.5979
11
540.000
21
250.000
31
-178.6695
12
540.000
22
260.000
32
-182.7088
13
530.000
23
260.000
33
-182.6372
0
3DFACE
8
A2
10
540.000
20
250.000
30
-178.6695
11
550.000
21
250.000
31
-178.7232
12
550.000
22
260.000
32
-182.7625
13
540.000
23
260.000
33
-182.7088
0
ENDSEC
0
EOF
