# Kuppam GPR fracture surface B1, metres, z negative = depth below block top
o B1
v 6.5000 0.0000 -0.5950
v 6.6000 0.0000 -0.5978
v 6.7000 0.0000 -0.6021
v 6.8000 0.0000 -0.6080
v 6.9000 0.0000 -0.6138
v 7.0000 0.0000 -0.6218
v 7.1000 0.0000 -0.6289
v 7.2000 0.0000 -0.6355
v 7.3000 0.0000 -0.6408
v 7.4000 0.0000 -0.6466
v 7.5000 0.0000 -0.6528
v 7.6000 0.0000 -0.6617
v 7.7000 0.0000 -0.6714
v 7.8000 0.0000 -0.6829
v 7.9000 0.0000 -0.6936
v 8.0000 0.0000 -0.7025
v 8.1000 0.0000 -0.7086
v 8.2000 0.0000 -0.7136
v 8.3000 0.0000 -0.7186
v 8.4000 0.0000 -0.7255
v 8.5000 0.0000 -0.7340
v 8.6000 0.0000 -0.7468
v 8.7000 0.0000 -0.7640
v 8.8000 0.0000 -0.7841
v 8.9000 0.0000 -0.8053
v 9.0000 0.0000 -0.8252
v 9.1000 0.0000 -0.8411
v 9.2000 0.0000 -0.8520
v 9.3000 0.0000 -0.8594
v 9.4000 0.0000 -0.8627
v 9.5000 0.0000 -0.8647
v 6.5000 0.1000 -0.5927
v 6.6000 0.1000 -0.5961
v 6.7000 0.1000 -0.6011
v 6.8000 0.1000 -0.6076
v 6.9000 0.1000 -0.6140
v 7.0000 0.1000 -0.6219
v 7.1000 0.1000 -0.6288
v 7.2000 0.1000 -0.6354
v 7.3000 0.1000 -0.6410
v 7.4000 0.1000 -0.6473
v 7.5000 0.1000 -0.6544
v 7.6000 0.1000 -0.6642
v 7.7000 0.1000 -0.6747
v 7.8000 0.1000 -0.6867
v 7.9000 0.1000 -0.6978
v 8.0000 0.1000 -0.7070
v 8.1000 0.1000 -0.7132
v 8.2000 0.1000 -0.7181
v 8.3000 0.1000 -0.7228
v 8.4000 0.1000 -0.7291
v 8.5000 0.1000 -0.7370
v 8.6000 0.1000 -0.7488
v 8.7000 0.1000 -0.7645
v 8.8000 0.1000 -0.7822
v 8.9000 0.1000 -0.8011
v 9.0000 0.1000 -0.8191
v 9.1000 0.1000 -0.8338
v 9.2000 0.1000 -0.8446
v 9.3000 0.1000 -0.8530
v 9.4000 0.1000 -0.8575
v 9.5000 0.1000 -0.8604
v 6.5000 0.2000 -0.5897
v 6.6000 0.2000 -0.5939
v 6.7000 0.2000 -0.5996
v 6.8000 0.2000 -0.6071
v 6.9000 0.2000 -0.6144
v 7.0000 0.2000 -0.6221
v 7.1000 0.2000 -0.6286
v 7.2000 0.2000 -0.6353
v 7.3000 0.2000 -0.6413
v 7.4000 0.2000 -0.6483
v 7.5000 0.2000 -0.6566
v 7.6000 0.2000 -0.6675
v 7.7000 0.2000 -0.6790
v 7.8000 0.2000 -0.6918
v 7.9000 0.2000 -0.7034
v 8.0000 0.2000 -0.7129
v 8.1000 0.2000 -0.7194
v 8.2000 0.2000 -0.7241
v 8.3000 0.2000 -0.7283
v 8.4000 0.2000 -0.7338
v 8.5000 0.2000 -0.7410
v 8.6000 0.2000 -0.7515
v 8.7000 0.2000 -0.7650
v 8.8000 0.2000 -0.7796
v 8.9000 0.2000 -0.7955
v 9.0000 0.2000 -0.8109
v 9.1000 0.2000 -0.8241
v 9.2000 0.2000 -0.8347
v 9.3000 0.2000 -0.8445
v 9.4000 0.2000 -0.8506
v 9.5000 0.2000 -0.8547
v 6.5000 0.3000 -0.5858
v 6.6000 0.3000 -0.5911
v 6.7000 0.3000 -0.5978
v 6.8000 0.3000 -0.6066
v 6.9000 0.3000 -0.6148
v 7.0000 0.3000 -0.6224
v 7.1000 0.3000 -0.6285
v 7.2000 0.3000 -0.6352
v 7.3000 0.3000 -0.6416
v 7.4000 0.3000 -0.6496
v 7.5000 0.3000 -0.6593
v 7.6000 0.3000 -0.6717
v 7.7000 0.3000 -0.6845
v 7.8000 0.3000 -0.6981
v 7.9000 0.3000 -0.7105
v 8.0000 0.3000 -0.7204
v 8.1000 0.3000 -0.7271
v 8.2000 0.3000 -0.7316
v 8.3000 0.3000 -0.7353
v 8.4000 0.3000 -0.7398
v 8.5000 0.3000 -0.7460
v 8.6000 0.3000 -0.7548
v 8.7000 0.3000 -0.7656
v 8.8000 0.3000 -0.7763
v 8.9000 0.3000 -0.7884
v 9.0000 0.3000 -0.8005
v 9.1000 0.3000 -0.8118
v 9.2000 0.3000 -0.8224
v 9.3000 0.3000 -0.8339
v 9.4000 0.3000 -0.8418
v 9.5000 0.3000 -0.8475
v 6.5000 0.4000 -0.5801
v 6.6000 0.4000 -0.5862
v 6.7000 0.4000 -0.5938
v 6.8000 0.4000 -0.6036
v 6.9000 0.4000 -0.6127
v 7.0000 0.4000 -0.6204
v 7.1000 0.4000 -0.6265
v 7.2000 0.4000 -0.6336
v 7.3000 0.4000 -0.6408
v 7.4000 0.4000 -0.6497
v 7.5000 0.4000 -0.6606
v 7.6000 0.4000 -0.6741
v 7.7000 0.4000 -0.6877
v 7.8000 0.4000 -0.7014
v 7.9000 0.4000 -0.7137
v 8.0000 0.4000 -0.7235
v 8.1000 0.4000 -0.7301
v 8.2000 0.4000 -0.7343
v 8.3000 0.4000 -0.7377
v 8.4000 0.4000 -0.7418
v 8.5000 0.4000 -0.7476
v 8.6000 0.4000 -0.7553
v 8.7000 0.4000 -0.7643
v 8.8000 0.4000 -0.7724
v 8.9000 0.4000 -0.7818
v 9.0000 0.4000 -0.7917
v 9.1000 0.4000 -0.8018
v 9.2000 0.4000 -0.8125
v 9.3000 0.4000 -0.8253
v 9.4000 0.4000 -0.8348
v 9.5000 0.4000 -0.8417
v 6.5000 0.5000 -0.5723
v 6.6000 0.5000 -0.5791
v 6.7000 0.5000 -0.5876
v 6.8000 0.5000 -0.5981
v 6.9000 0.5000 -0.6081
v 7.0000 0.5000 -0.6162
v 7.1000 0.5000 -0.6228
v 7.2000 0.5000 -0.6306
v 7.3000 0.5000 -0.6388
v 7.4000 0.5000 -0.6487
v 7.5000 0.5000 -0.6607
v 7.6000 0.5000 -0.6748
v 7.7000 0.5000 -0.6886
v 7.8000 0.5000 -0.7016
v 7.9000 0.5000 -0.7132
v 8.0000 0.5000 -0.7223
v 8.1000 0.5000 -0.7284
v 8.2000 0.5000 -0.7322
v 8.3000 0.5000 -0.7357
v 8.4000 0.5000 -0.7398
v 8.5000 0.5000 -0.7457
v 8.6000 0.5000 -0.7532
v 8.7000 0.5000 -0.7612
v 8.8000 0.5000 -0.7679
v 8.9000 0.5000 -0.7759
v 9.0000 0.5000 -0.7845
v 9.1000 0.5000 -0.7941
v 9.2000 0.5000 -0.8052
v 9.3000 0.5000 -0.8189
v 9.4000 0.5000 -0.8295
v 9.5000 0.5000 -0.8374
v 6.5000 0.6000 -0.5626
v 6.6000 0.6000 -0.5699
v 6.7000 0.6000 -0.5790
v 6.8000 0.6000 -0.5903
v 6.9000 0.6000 -0.6010
v 7.0000 0.6000 -0.6098
v 7.1000 0.6000 -0.6171
v 7.2000 0.6000 -0.6260
v 7.3000 0.6000 -0.6355
v 7.4000 0.6000 -0.6465
v 7.5000 0.6000 -0.6594
v 7.6000 0.6000 -0.6738
v 7.7000 0.6000 -0.6872
v 7.8000 0.6000 -0.6988
v 7.9000 0.6000 -0.7090
v 8.0000 0.6000 -0.7167
v 8.1000 0.6000 -0.7218
v 8.2000 0.6000 -0.7251
v 8.3000 0.6000 -0.7291
v 8.4000 0.6000 -0.7338
v 8.5000 0.6000 -0.7403
v 8.6000 0.6000 -0.7482
v 8.7000 0.6000 -0.7562
v 8.8000 0.6000 -0.7628
v 8.9000 0.6000 -0.7704
v 9.0000 0.6000 -0.7789
v 9.1000 0.6000 -0.7886
v 9.2000 0.6000 -0.8002
v 9.3000 0.6000 -0.8146
v 9.4000 0.6000 -0.8260
v 9.5000 0.6000 -0.8345
v 6.5000 0.7000 -0.5509
v 6.6000 0.7000 -0.5586
v 6.7000 0.7000 -0.5683
v 6.8000 0.7000 -0.5799
v 6.9000 0.7000 -0.5913
v 7.0000 0.7000 -0.6010
v 7.1000 0.7000 -0.6096
v 7.2000 0.7000 -0.6199
v 7.3000 0.7000 -0.6311
v 7.4000 0.7000 -0.6433
v 7.5000 0.7000 -0.6567
v 7.6000 0.7000 -0.6711
v 7.7000 0.7000 -0.6836
v 7.8000 0.7000 -0.6930
v 7.9000 0.7000 -0.7009
v 8.0000 0.7000 -0.7067
v 8.1000 0.7000 -0.7104
v 8.2000 0.7000 -0.7131
v 8.3000 0.7000 -0.7180
v 8.4000 0.7000 -0.7238
v 8.5000 0.7000 -0.7315
v 8.6000 0.7000 -0.7405
v 8.7000 0.7000 -0.7494
v 8.8000 0.7000 -0.7571
v 8.9000 0.7000 -0.7657
v 9.0000 0.7000 -0.7750
v 9.1000 0.7000 -0.7854
v 9.2000 0.7000 -0.7978
v 9.3000 0.7000 -0.8125
v 9.4000 0.7000 -0.8243
v 9.5000 0.7000 -0.8331
v 6.5000 0.8000 -0.5373
v 6.6000 0.8000 -0.5451
v 6.7000 0.8000 -0.5552
v 6.8000 0.8000 -0.5672
v 6.9000 0.8000 -0.5792
v 7.0000 0.8000 -0.5901
v 7.1000 0.8000 -0.6003
v 7.2000 0.8000 -0.6123
v 7.3000 0.8000 -0.6254
v 7.4000 0.8000 -0.6389
v 7.5000 0.8000 -0.6528
v 7.6000 0.8000 -0.6666
v 7.7000 0.8000 -0.6775
v 7.8000 0.8000 -0.6840
v 7.9000 0.8000 -0.6889
v 8.0000 0.8000 -0.6922
v 8.1000 0.8000 -0.6940
v 8.2000 0.8000 -0.6963
v 8.3000 0.8000 -0.7023
v 8.4000 0.8000 -0.7098
v 8.5000 0.8000 -0.7192
v 8.6000 0.8000 -0.7301
v 8.7000 0.8000 -0.7410
v 8.8000 0.8000 -0.7510
v 8.9000 0.8000 -0.7616
v 9.0000 0.8000 -0.7728
v 9.1000 0.8000 -0.7846
v 9.2000 0.8000 -0.7978
v 9.3000 0.8000 -0.8125
v 9.4000 0.8000 -0.8243
v 9.5000 0.8000 -0.8331
v 6.5000 0.9000 -0.5298
v 6.6000 0.9000 -0.5374
v 6.7000 0.9000 -0.5476
v 6.8000 0.9000 -0.5593
v 6.9000 0.9000 -0.5710
v 7.0000 0.9000 -0.5820
v 7.1000 0.9000 -0.5927
v 7.2000 0.9000 -0.6053
v 7.3000 0.9000 -0.6193
v 7.4000 0.9000 -0.6335
v 7.5000 0.9000 -0.6474
v 7.6000 0.9000 -0.6609
v 7.7000 0.9000 -0.6707
v 7.8000 0.9000 -0.6753
v 7.9000 0.9000 -0.6784
v 8.0000 0.9000 -0.6804
v 8.1000 0.9000 -0.6814
v 8.2000 0.9000 -0.6837
v 8.3000 0.9000 -0.6909
v 8.4000 0.9000 -0.7001
v 8.5000 0.9000 -0.7109
v 8.6000 0.9000 -0.7235
v 8.7000 0.9000 -0.7360
v 8.8000 0.9000 -0.7480
v 8.9000 0.9000 -0.7602
v 9.0000 0.9000 -0.7726
v 9.1000 0.9000 -0.7853
v 9.2000 0.9000 -0.7988
v 9.3000 0.9000 -0.8131
v 9.4000 0.9000 -0.8246
v 9.5000 0.9000 -0.8333
v 6.5000 1.0000 -0.5285
v 6.6000 1.0000 -0.5357
v 6.7000 1.0000 -0.5453
v 6.8000 1.0000 -0.5562
v 6.9000 1.0000 -0.5668
v 7.0000 1.0000 -0.5769
v 7.1000 1.0000 -0.5869
v 7.2000 1.0000 -0.5990
v 7.3000 1.0000 -0.6128
v 7.4000 1.0000 -0.6270
v 7.5000 1.0000 -0.6407
v 7.6000 1.0000 -0.6538
v 7.7000 1.0000 -0.6630
v 7.8000 1.0000 -0.6668
v 7.9000 1.0000 -0.6693
v 8.0000 1.0000 -0.6712
v 8.1000 1.0000 -0.6724
v 8.2000 1.0000 -0.6755
v 8.3000 1.0000 -0.6840
v 8.4000 1.0000 -0.6946
v 8.5000 1.0000 -0.7067
v 8.6000 1.0000 -0.7206
v 8.7000 1.0000 -0.7346
v 8.8000 1.0000 -0.7480
v 8.9000 1.0000 -0.7613
v 9.0000 1.0000 -0.7746
v 9.1000 1.0000 -0.7876
v 9.2000 1.0000 -0.8008
v 9.3000 1.0000 -0.8144
v 9.4000 1.0000 -0.8254
v 9.5000 1.0000 -0.8336
v 6.5000 1.1000 -0.5333
v 6.6000 1.1000 -0.5398
v 6.7000 1.1000 -0.5485
v 6.8000 1.1000 -0.5580
v 6.9000 1.1000 -0.5665
v 7.0000 1.1000 -0.5746
v 7.1000 1.1000 -0.5829
v 7.2000 1.1000 -0.5933
v 7.3000 1.1000 -0.6058
v 7.4000 1.1000 -0.6195
v 7.5000 1.1000 -0.6327
v 7.6000 1.1000 -0.6453
v 7.7000 1.1000 -0.6544
v 7.8000 1.1000 -0.6585
v 7.9000 1.1000 -0.6615
v 8.0000 1.1000 -0.6644
v 8.1000 1.1000 -0.6671
v 8.2000 1.1000 -0.6717
v 8.3000 1.1000 -0.6815
v 8.4000 1.1000 -0.6933
v 8.5000 1.1000 -0.7065
v 8.6000 1.1000 -0.7216
v 8.7000 1.1000 -0.7367
v 8.8000 1.1000 -0.7511
v 8.9000 1.1000 -0.7651
v 9.0000 1.1000 -0.7786
v 9.1000 1.1000 -0.7914
v 9.2000 1.1000 -0.8037
v 9.3000 1.1000 -0.8163
v 9.4000 1.1000 -0.8265
v 9.5000 1.1000 -0.8341
v 6.5000 1.2000 -0.5443
v 6.6000 1.2000 -0.5498
v 6.7000 1.2000 -0.5570
v 6.8000 1.2000 -0.5646
v 6.9000 1.2000 -0.5702
v 7.0000 1.2000 -0.5752
v 7.1000 1.2000 -0.5806
v 7.2000 1.2000 -0.5882
v 7.3000 1.2000 -0.5984
v 7.4000 1.2000 -0.6110
v 7.5000 1.2000 -0.6233
v 7.6000 1.2000 -0.6355
v 7.7000 1.2000 -0.6450
v 7.8000 1.2000 -0.6503
v 7.9000 1.2000 -0.6552
v 8.0000 1.2000 -0.6603
v 8.1000 1.2000 -0.6653
v 8.2000 1.2000 -0.6722
v 8.3000 1.2000 -0.6834
v 8.4000 1.2000 -0.6963
v 8.5000 1.2000 -0.7104
v 8.6000 1.2000 -0.7263
v 8.7000 1.2000 -0.7422
v 8.8000 1.2000 -0.7573
v 8.9000 1.2000 -0.7714
v 9.0000 1.2000 -0.7847
v 9.1000 1.2000 -0.7967
v 9.2000 1.2000 -0.8077
v 9.3000 1.2000 -0.8188
v 9.4000 1.2000 -0.8280
v 9.5000 1.2000 -0.8348
v 6.5000 1.3000 -0.5615
v 6.6000 1.3000 -0.5656
v 6.7000 1.3000 -0.5709
v 6.8000 1.3000 -0.5759
v 6.9000 1.3000 -0.5777
v 7.0000 1.3000 -0.5786
v 7.1000 1.3000 -0.5801
v 7.2000 1.3000 -0.5837
v 7.3000 1.3000 -0.5906
v 7.4000 1.3000 -0.6014
v 7.5000 1.3000 -0.6126
v 7.6000 1.3000 -0.6244
v 7.7000 1.3000 -0.6347
v 7.8000 1.3000 -0.6423
v 7.9000 1.3000 -0.6503
v 8.0000 1.3000 -0.6588
v 8.1000 1.3000 -0.6674
v 8.2000 1.3000 -0.6770
v 8.3000 1.3000 -0.6898
v 8.4000 1.3000 -0.7035
v 8.5000 1.3000 -0.7182
v 8.6000 1.3000 -0.7347
v 8.7000 1.3000 -0.7512
v 8.8000 1.3000 -0.7665
v 8.9000 1.3000 -0.7803
v 9.0000 1.3000 -0.7929
v 9.1000 1.3000 -0.8035
v 9.2000 1.3000 -0.8125
v 9.3000 1.3000 -0.8218
v 9.4000 1.3000 -0.8297
v 9.5000 1.3000 -0.8356
v 6.5000 1.4000 -0.5753
v 6.6000 1.4000 -0.5784
v 6.7000 1.4000 -0.5822
v 6.8000 1.4000 -0.5851
v 6.9000 1.4000 -0.5836
v 7.0000 1.4000 -0.5812
v 7.1000 1.4000 -0.5794
v 7.2000 1.4000 -0.5798
v 7.3000 1.4000 -0.5840
v 7.4000 1.4000 -0.5934
v 7.5000 1.4000 -0.6036
v 7.6000 1.4000 -0.6149
v 7.7000 1.4000 -0.6256
v 7.8000 1.4000 -0.6348
v 7.9000 1.4000 -0.6451
v 8.0000 1.4000 -0.6564
v 8.1000 1.4000 -0.6677
v 8.2000 1.4000 -0.6796
v 8.3000 1.4000 -0.6937
v 8.4000 1.4000 -0.7081
v 8.5000 1.4000 -0.7232
v 8.6000 1.4000 -0.7399
v 8.7000 1.4000 -0.7567
v 8.8000 1.4000 -0.7721
v 8.9000 1.4000 -0.7856
v 9.0000 1.4000 -0.7977
v 9.1000 1.4000 -0.8075
v 9.2000 1.4000 -0.8154
v 9.3000 1.4000 -0.8236
v 9.4000 1.4000 -0.8308
v 9.5000 1.4000 -0.8361
v 6.5000 1.5000 -0.5857
v 6.6000 1.5000 -0.5881
v 6.7000 1.5000 -0.5907
v 6.8000 1.5000 -0.5920
v 6.9000 1.5000 -0.5880
v 7.0000 1.5000 -0.5828
v 7.1000 1.5000 -0.5785
v 7.2000 1.5000 -0.5765
v 7.3000 1.5000 -0.5787
v 7.4000 1.5000 -0.5870
v 7.5000 1.5000 -0.5963
v 7.6000 1.5000 -0.6070
v 7.7000 1.5000 -0.6177
v 7.8000 1.5000 -0.6278
v 7.9000 1.5000 -0.6398
v 8.0000 1.5000 -0.6531
v 8.1000 1.5000 -0.6665
v 8.2000 1.5000 -0.6802
v 8.3000 1.5000 -0.6951
v 8.4000 1.5000 -0.7100
v 8.5000 1.5000 -0.7252
v 8.6000 1.5000 -0.7420
v 8.7000 1.5000 -0.7588
v 8.8000 1.5000 -0.7741
v 8.9000 1.5000 -0.7873
v 9.0000 1.5000 -0.7993
v 9.1000 1.5000 -0.8088
v 9.2000 1.5000 -0.8163
v 9.3000 1.5000 -0.8241
v 9.4000 1.5000 -0.8312
v 9.5000 1.5000 -0.8363
v 6.5000 1.6000 -0.5928
v 6.6000 1.6000 -0.5946
v 6.7000 1.6000 -0.5966
v 6.8000 1.6000 -0.5967
v 6.9000 1.6000 -0.5907
v 7.0000 1.6000 -0.5836
v 7.1000 1.6000 -0.5775
v 7.2000 1.6000 -0.5737
v 7.3000 1.6000 -0.5747
v 7.4000 1.6000 -0.5821
v 7.5000 1.6000 -0.5908
v 7.6000 1.6000 -0.6006
v 7.7000 1.6000 -0.6111
v 7.8000 1.6000 -0.6216
v 7.9000 1.6000 -0.6344
v 8.0000 1.6000 -0.6489
v 8.1000 1.6000 -0.6637
v 8.2000 1.6000 -0.6786
v 8.3000 1.6000 -0.6941
v 8.4000 1.6000 -0.7092
v 8.5000 1.6000 -0.7243
v 8.6000 1.6000 -0.7408
v 8.7000 1.6000 -0.7573
v 8.8000 1.6000 -0.7724
v 8.9000 1.6000 -0.7854
v 9.0000 1.6000 -0.7976
v 9.1000 1.6000 -0.8074
v 9.2000 1.6000 -0.8153
v 9.3000 1.6000 -0.8235
v 9.4000 1.6000 -0.8308
v 9.5000 1.6000 -0.8361
v 6.5000 1.7000 -0.5964
v 6.6000 1.7000 -0.5982
v 6.7000 1.7000 -0.5999
v 6.8000 1.7000 -0.5991
v 6.9000 1.7000 -0.5919
v 7.0000 1.7000 -0.5835
v 7.1000 1.7000 -0.5764
v 7.2000 1.7000 -0.5715
v 7.3000 1.7000 -0.5719
v 7.4000 1.7000 -0.5788
v 7.5000 1.7000 -0.5869
v 7.6000 1.7000 -0.5959
v 7.7000 1.7000 -0.6057
v 7.8000 1.7000 -0.6159
v 7.9000 1.7000 -0.6289
v 8.0000 1.7000 -0.6439
v 8.1000 1.7000 -0.6594
v 8.2000 1.7000 -0.6748
v 8.3000 1.7000 -0.6905
v 8.4000 1.7000 -0.7057
v 8.5000 1.7000 -0.7206
v 8.6000 1.7000 -0.7365
v 8.7000 1.7000 -0.7524
v 8.8000 1.7000 -0.7671
v 8.9000 1.7000 -0.7801
v 9.0000 1.7000 -0.7927
v 9.1000 1.7000 -0.8033
v 9.2000 1.7000 -0.8123
v 9.3000 1.7000 -0.8216
v 9.4000 1.7000 -0.8297
v 9.5000 1.7000 -0.8356
v 6.5000 1.8000 -0.5967
v 6.6000 1.8000 -0.5986
v 6.7000 1.8000 -0.6005
v 6.8000 1.8000 -0.5994
v 6.9000 1.8000 -0.5916
v 7.0000 1.8000 -0.5826
v 7.1000 1.8000 -0.5752
v 7.2000 1.8000 -0.5700
v 7.3000 1.8000 -0.5703
v 7.4000 1.8000 -0.5770
v 7.5000 1.8000 -0.5848
v 7.6000 1.8000 -0.5928
v 7.7000 1.8000 -0.6015
v 7.8000 1.8000 -0.6109
v 7.9000 1.8000 -0.6233
v 8.0000 1.8000 -0.6380
v 8.1000 1.8000 -0.6535
v 8.2000 1.8000 -0.6690
v 8.3000 1.8000 -0.6845
v 8.4000 1.8000 -0.6996
v 8.5000 1.8000 -0.7139
v 8.6000 1.8000 -0.7289
v 8.7000 1.8000 -0.7440
v 8.8000 1.8000 -0.7582
v 8.9000 1.8000 -0.7712
v 9.0000 1.8000 -0.7845
v 9.1000 1.8000 -0.7966
v 9.2000 1.8000 -0.8075
v 9.3000 1.8000 -0.8186
v 9.4000 1.8000 -0.8280
v 9.5000 1.8000 -0.8348
v 6.5000 1.9000 -0.5900
v 6.6000 1.9000 -0.5921
v 6.7000 1.9000 -0.5944
v 6.8000 1.9000 -0.5936
v 6.9000 1.9000 -0.5863
v 7.0000 1.9000 -0.5778
v 7.1000 1.9000 -0.5710
v 7.2000 1.9000 -0.5665
v 7.3000 1.9000 -0.5674
v 7.4000 1.9000 -0.5741
v 7.5000 1.9000 -0.5820
v 7.6000 1.9000 -0.5895
v 7.7000 1.9000 -0.5977
v 7.8000 1.9000 -0.6068
v 7.9000 1.9000 -0.6191
v 8.0000 1.9000 -0.6340
v 8.1000 1.9000 -0.6499
v 8.2000 1.9000 -0.6659
v 8.3000 1.9000 -0.6818
v 8.4000 1.9000 -0.6971
v 8.5000 1.9000 -0.7114
v 8.6000 1.9000 -0.7260
v 8.7000 1.9000 -0.7405
v 8.8000 1.9000 -0.7546
v 8.9000 1.9000 -0.7679
v 9.0000 1.9000 -0.7819
v 9.1000 1.9000 -0.7951
v 9.2000 1.9000 -0.8075
v 9.3000 1.9000 -0.8200
v 9.4000 1.9000 -0.8301
v 9.5000 1.9000 -0.8376
v 6.5000 2.0000 -0.5761
v 6.6000 2.0000 -0.5787
v 6.7000 2.0000 -0.5815
v 6.8000 2.0000 -0.5816
v 6.9000 2.0000 -0.5758
v 7.0000 2.0000 -0.5690
v 7.1000 2.0000 -0.5639
v 7.2000 2.0000 -0.5608
v 7.3000 2.0000 -0.5628
v 7.4000 2.0000 -0.5701
v 7.5000 2.0000 -0.5784
v 7.6000 2.0000 -0.5860
v 7.7000 2.0000 -0.5942
v 7.8000 2.0000 -0.6036
v 7.9000 2.0000 -0.6163
v 8.0000 2.0000 -0.6318
v 8.1000 2.0000 -0.6486
v 8.2000 2.0000 -0.6656
v 8.3000 2.0000 -0.6822
v 8.4000 2.0000 -0.6983
v 8.5000 2.0000 -0.7130
v 8.6000 2.0000 -0.7276
v 8.7000 2.0000 -0.7421
v 8.8000 2.0000 -0.7564
v 8.9000 2.0000 -0.7702
v 9.0000 2.0000 -0.7849
v 9.1000 2.0000 -0.7990
v 9.2000 2.0000 -0.8125
v 9.3000 2.0000 -0.8257
v 9.4000 2.0000 -0.8362
v 9.5000 2.0000 -0.8439
v 6.5000 2.1000 -0.5552
v 6.6000 2.1000 -0.5583
v 6.7000 2.1000 -0.5620
v 6.8000 2.1000 -0.5635
v 6.9000 2.1000 -0.5603
v 7.0000 2.1000 -0.5562
v 7.1000 2.1000 -0.5537
v 7.2000 2.1000 -0.5529
v 7.3000 2.1000 -0.5568
v 7.4000 2.1000 -0.5649
v 7.5000 2.1000 -0.5740
v 7.6000 2.1000 -0.5822
v 7.7000 2.1000 -0.5910
v 7.8000 2.1000 -0.6013
v 7.9000 2.1000 -0.6148
v 8.0000 2.1000 -0.6315
v 8.1000 2.1000 -0.6495
v 8.2000 2.1000 -0.6680
v 8.3000 2.1000 -0.6859
v 8.4000 2.1000 -0.7032
v 8.5000 2.1000 -0.7187
v 8.6000 2.1000 -0.7338
v 8.7000 2.1000 -0.7486
v 8.8000 2.1000 -0.7636
v 8.9000 2.1000 -0.7780
v 9.0000 2.1000 -0.7933
v 9.1000 2.1000 -0.8082
v 9.2000 2.1000 -0.8225
v 9.3000 2.1000 -0.8358
v 9.4000 2.1000 -0.8463
v 9.5000 2.1000 -0.8539
v 6.5000 2.2000 -0.5272
v 6.6000 2.2000 -0.5309
v 6.7000 2.2000 -0.5357
v 6.8000 2.2000 -0.5393
v 6.9000 2.2000 -0.5396
v 7.0000 2.2000 -0.5394
v 7.1000 2.2000 -0.5405
v 7.2000 2.2000 -0.5430
v 7.3000 2.2000 -0.5491
v 7.4000 2.2000 -0.5586
v 7.5000 2.2000 -0.5688
v 7.6000 2.2000 -0.5783
v 7.7000 2.2000 -0.5882
v 7.8000 2.2000 -0.5999
v 7.9000 2.2000 -0.6148
v 8.0000 2.2000 -0.6330
v 8.1000 2.2000 -0.6527
v 8.2000 2.2000 -0.6732
v 8.3000 2.2000 -0.6928
v 8.4000 2.2000 -0.7117
v 8.5000 2.2000 -0.7286
v 8.6000 2.2000 -0.7446
v 8.7000 2.2000 -0.7603
v 8.8000 2.2000 -0.7762
v 8.9000 2.2000 -0.7915
v 9.0000 2.2000 -0.8074
v 9.1000 2.2000 -0.8228
v 9.2000 2.2000 -0.8374
v 9.3000 2.2000 -0.8505
v 9.4000 2.2000 -0.8605
v 9.5000 2.2000 -0.8676
v 6.5000 2.3000 -0.4921
v 6.6000 2.3000 -0.4966
v 6.7000 2.3000 -0.5027
v 6.8000 2.3000 -0.5090
v 6.9000 2.3000 -0.5139
v 7.0000 2.3000 -0.5187
v 7.1000 2.3000 -0.5243
v 7.2000 2.3000 -0.5309
v 7.3000 2.3000 -0.5400
v 7.4000 2.3000 -0.5512
v 7.5000 2.3000 -0.5629
v 7.6000 2.3000 -0.5741
v 7.7000 2.3000 -0.5857
v 7.8000 2.3000 -0.5994
v 7.9000 2.3000 -0.6162
v 8.0000 2.3000 -0.6363
v 8.1000 2.3000 -0.6582
v 8.2000 2.3000 -0.6811
v 8.3000 2.3000 -0.7030
v 8.4000 2.3000 -0.7239
v 8.5000 2.3000 -0.7427
v 8.6000 2.3000 -0.7601
v 8.7000 2.3000 -0.7770
v 8.8000 2.3000 -0.7942
v 8.9000 2.3000 -0.8105
v 9.0000 2.3000 -0.8269
v 9.1000 2.3000 -0.8427
v 9.2000 2.3000 -0.8573
v 9.3000 2.3000 -0.8695
v 9.4000 2.3000 -0.8788
v 9.5000 2.3000 -0.8851
v 6.5000 2.4000 -0.4708
v 6.6000 2.4000 -0.4760
v 6.7000 2.4000 -0.4834
v 6.8000 2.4000 -0.4921
v 6.9000 2.4000 -0.5006
v 7.0000 2.4000 -0.5091
v 7.1000 2.4000 -0.5179
v 7.2000 2.4000 -0.5272
v 7.3000 2.4000 -0.5380
v 7.4000 2.4000 -0.5501
v 7.5000 2.4000 -0.5628
v 7.6000 2.4000 -0.5754
v 7.7000 2.4000 -0.5883
v 7.8000 2.4000 -0.6038
v 7.9000 2.4000 -0.6219
v 8.0000 2.4000 -0.6431
v 8.1000 2.4000 -0.6659
v 8.2000 2.4000 -0.6901
v 8.3000 2.4000 -0.7128
v 8.4000 2.4000 -0.7347
v 8.5000 2.4000 -0.7544
v 8.6000 2.4000 -0.7725
v 8.7000 2.4000 -0.7900
v 8.8000 2.4000 -0.8081
v 8.9000 2.4000 -0.8247
v 9.0000 2.4000 -0.8413
v 9.1000 2.4000 -0.8570
v 9.2000 2.4000 -0.8711
v 9.3000 2.4000 -0.8824
v 9.4000 2.4000 -0.8909
v 9.5000 2.4000 -0.8965
v 6.5000 2.5000 -0.4632
v 6.6000 2.5000 -0.4693
v 6.7000 2.5000 -0.4779
v 6.8000 2.5000 -0.4885
v 6.9000 2.5000 -0.4997
v 7.0000 2.5000 -0.5107
v 7.1000 2.5000 -0.5213
v 7.2000 2.5000 -0.5320
v 7.3000 2.5000 -0.5433
v 7.4000 2.5000 -0.5555
v 7.5000 2.5000 -0.5685
v 7.6000 2.5000 -0.5822
v 7.7000 2.5000 -0.5962
v 7.8000 2.5000 -0.6129
v 7.9000 2.5000 -0.6319
v 8.0000 2.5000 -0.6533
v 8.1000 2.5000 -0.6761
v 8.2000 2.5000 -0.7001
v 8.3000 2.5000 -0.7224
v 8.4000 2.5000 -0.7441
v 8.5000 2.5000 -0.7637
v 8.6000 2.5000 -0.7818
v 8.7000 2.5000 -0.7994
v 8.8000 2.5000 -0.8177
v 8.9000 2.5000 -0.8343
v 9.0000 2.5000 -0.8504
v 9.1000 2.5000 -0.8655
v 9.2000 2.5000 -0.8789
v 9.3000 2.5000 -0.8891
v 9.4000 2.5000 -0.8968
v 9.5000 2.5000 -0.9020
v 6.5000 2.6000 -0.4693
v 6.6000 2.6000 -0.4763
v 6.7000 2.6000 -0.4861
v 6.8000 2.6000 -0.4982
v 6.9000 2.6000 -0.5112
v 7.0000 2.6000 -0.5235
v 7.1000 2.6000 -0.5346
v 7.2000 2.6000 -0.5452
v 7.3000 2.6000 -0.5559
v 7.4000 2.6000 -0.5674
v 7.5000 2.6000 -0.5801
v 7.6000 2.6000 -0.5945
v 7.7000 2.6000 -0.6094
v 7.8000 2.6000 -0.6270
v 7.9000 2.6000 -0.6462
v 8.0000 2.6000 -0.6671
v 8.1000 2.6000 -0.6887
v 8.2000 2.6000 -0.7112
v 8.3000 2.6000 -0.7318
v 8.4000 2.6000 -0.7522
v 8.5000 2.6000 -0.7707
v 8.6000 2.6000 -0.7879
v 8.7000 2.6000 -0.8051
v 8.8000 2.6000 -0.8232
v 8.9000 2.6000 -0.8392
v 9.0000 2.6000 -0.8543
v 9.1000 2.6000 -0.8684
v 9.2000 2.6000 -0.8805
v 9.3000 2.6000 -0.8896
v 9.4000 2.6000 -0.8966
v 9.5000 2.6000 -0.9014
v 6.5000 2.7000 -0.4892
v 6.6000 2.7000 -0.4971
v 6.7000 2.7000 -0.5081
v 6.8000 2.7000 -0.5214
v 6.9000 2.7000 -0.5351
v 7.0000 2.7000 -0.5474
v 7.1000 2.7000 -0.5577
v 7.2000 2.7000 -0.5668
v 7.3000 2.7000 -0.5759
v 7.4000 2.7000 -0.5856
v 7.5000 2.7000 -0.5976
v 7.6000 2.7000 -0.6123
v 7.7000 2.7000 -0.6278
v 7.8000 2.7000 -0.6458
v 7.9000 2.7000 -0.6646
v 8.0000 2.7000 -0.6843
v 8.1000 2.7000 -0.7036
v 8.2000 2.7000 -0.7234
v 8.3000 2.7000 -0.7410
v 8.4000 2.7000 -0.7588
v 8.5000 2.7000 -0.7751
v 8.6000 2.7000 -0.7908
v 8.7000 2.7000 -0.8071
v 8.8000 2.7000 -0.8244
v 8.9000 2.7000 -0.8393
v 9.0000 2.7000 -0.8529
v 9.1000 2.7000 -0.8654
v 9.2000 2.7000 -0.8760
v 9.3000 2.7000 -0.8838
v 9.4000 2.7000 -0.8902
v 9.5000 2.7000 -0.8947
v 6.5000 2.8000 -0.5228
v 6.6000 2.8000 -0.5318
v 6.7000 2.8000 -0.5438
v 6.8000 2.8000 -0.5578
v 6.9000 2.8000 -0.5713
v 7.0000 2.8000 -0.5825
v 7.1000 2.8000 -0.5905
v 7.2000 2.8000 -0.5968
v 7.3000 2.8000 -0.6030
v 7.4000 2.8000 -0.6103
v 7.5000 2.8000 -0.6209
v 7.6000 2.8000 -0.6355
v 7.7000 2.8000 -0.6513
v 7.8000 2.8000 -0.6693
v 7.9000 2.8000 -0.6872
v 8.0000 2.8000 -0.7049
v 8.1000 2.8000 -0.7207
v 8.2000 2.8000 -0.7364
v 8.3000 2.8000 -0.7498
v 8.4000 2.8000 -0.7640
v 8.5000 2.8000 -0.7771
v 8.6000 2.8000 -0.7905
v 8.7000 2.8000 -0.8053
v 8.8000 2.8000 -0.8213
v 8.9000 2.8000 -0.8345
v 9.0000 2.8000 -0.8461
v 9.1000 2.8000 -0.8566
v 9.2000 2.8000 -0.8653
v 9.3000 2.8000 -0.8718
v 9.4000 2.8000 -0.8776
v 9.5000 2.8000 -0.8820
v 6.5000 2.9000 -0.5475
v 6.6000 2.9000 -0.5572
v 6.7000 2.9000 -0.5697
v 6.8000 2.9000 -0.5838
v 6.9000 2.9000 -0.5967
v 7.0000 2.9000 -0.6065
v 7.1000 2.9000 -0.6127
v 7.2000 2.9000 -0.6172
v 7.3000 2.9000 -0.6218
v 7.4000 2.9000 -0.6279
v 7.5000 2.9000 -0.6379
v 7.6000 2.9000 -0.6528
v 7.7000 2.9000 -0.6689
v 7.8000 2.9000 -0.6866
v 7.9000 2.9000 -0.7036
v 8.0000 2.9000 -0.7195
v 8.1000 2.9000 -0.7327
v 8.2000 2.9000 -0.7454
v 8.3000 2.9000 -0.7560
v 8.4000 2.9000 -0.7679
v 8.5000 2.9000 -0.7792
v 8.6000 2.9000 -0.7914
v 8.7000 2.9000 -0.8053
v 8.8000 2.9000 -0.8203
v 8.9000 2.9000 -0.8323
v 9.0000 2.9000 -0.8422
v 9.1000 2.9000 -0.8512
v 9.2000 2.9000 -0.8584
v 9.3000 2.9000 -0.8640
v 9.4000 2.9000 -0.8693
v 9.5000 2.9000 -0.8737
v 6.5000 3.0000 -0.5631
v 6.6000 3.0000 -0.5733
v 6.7000 3.0000 -0.5859
v 6.8000 3.0000 -0.5994
v 6.9000 3.0000 -0.6112
v 7.0000 3.0000 -0.6197
v 7.1000 3.0000 -0.6245
v 7.2000 3.0000 -0.6279
v 7.3000 3.0000 -0.6321
v 7.4000 3.0000 -0.6382
v 7.5000 3.0000 -0.6486
v 7.6000 3.0000 -0.6640
v 7.7000 3.0000 -0.6804
v 7.8000 3.0000 -0.6978
v 7.9000 3.0000 -0.7138
v 8.0000 3.0000 -0.7281
v 8.1000 3.0000 -0.7395
v 8.2000 3.0000 -0.7503
v 8.3000 3.0000 -0.7595
v 8.4000 3.0000 -0.7706
v 8.5000 3.0000 -0.7815
v 8.6000 3.0000 -0.7936
v 8.7000 3.0000 -0.8071
v 8.8000 3.0000 -0.8214
v 8.9000 3.0000 -0.8325
v 9.0000 3.0000 -0.8413
v 9.1000 3.0000 -0.8491
v 9.2000 3.0000 -0.8554
v 9.3000 3.0000 -0.8605
v 9.4000 3.0000 -0.8654
v 9.5000 3.0000 -0.8696
v 6.5000 3.1000 -0.5698
v 6.6000 3.1000 -0.5801
v 6.7000 3.1000 -0.5923
v 6.8000 3.1000 -0.6048
v 6.9000 3.1000 -0.6150
v 7.0000 3.1000 -0.6220
v 7.1000 3.1000 -0.6257
v 7.2000 3.1000 -0.6290
v 7.3000 3.1000 -0.6339
v 7.4000 3.1000 -0.6413
v 7.5000 3.1000 -0.6529
v 7.6000 3.1000 -0.6692
v 7.7000 3.1000 -0.6858
v 7.8000 3.1000 -0.7028
v 7.9000 3.1000 -0.7178
v 8.0000 3.1000 -0.7308
v 8.1000 3.1000 -0.7411
v 8.2000 3.1000 -0.7510
v 8.3000 3.1000 -0.7602
v 8.4000 3.1000 -0.7719
v 8.5000 3.1000 -0.7840
v 8.6000 3.1000 -0.7969
v 8.7000 3.1000 -0.8108
v 8.8000 3.1000 -0.8247
v 8.9000 3.1000 -0.8353
v 9.0000 3.1000 -0.8433
v 9.1000 3.1000 -0.8504
v 9.2000 3.1000 -0.8562
v 9.3000 3.1000 -0.8612
v 9.4000 3.1000 -0.8660
v 9.5000 3.1000 -0.8699
v 6.5000 3.2000 -0.5675
v 6.6000 3.2000 -0.5776
v 6.7000 3.2000 -0.5891
v 6.8000 3.2000 -0.5998
v 6.9000 3.2000 -0.6079
v 7.0000 3.2000 -0.6134
v 7.1000 3.2000 -0.6165
v 7.2000 3.2000 -0.6204
v 7.3000 3.2000 -0.6272
v 7.4000 3.2000 -0.6371
v 7.5000 3.2000 -0.6509
v 7.6000 3.2000 -0.6683
v 7.7000 3.2000 -0.6852
v 7.8000 3.2000 -0.7016
v 7.9000 3.2000 -0.7156
v 8.0000 3.2000 -0.7274
v 8.1000 3.2000 -0.7374
v 8.2000 3.2000 -0.7476
v 8.3000 3.2000 -0.7584
v 8.4000 3.2000 -0.7721
v 8.5000 3.2000 -0.7867
v 8.6000 3.2000 -0.8016
v 8.7000 3.2000 -0.8164
v 8.8000 3.2000 -0.8302
v 8.9000 3.2000 -0.8406
v 9.0000 3.2000 -0.8483
v 9.1000 3.2000 -0.8551
v 9.2000 3.2000 -0.8610
v 9.3000 3.2000 -0.8663
v 9.4000 3.2000 -0.8709
v 9.5000 3.2000 -0.8745
v 6.5000 3.3000 -0.5562
v 6.6000 3.3000 -0.5659
v 6.7000 3.3000 -0.5761
v 6.8000 3.3000 -0.5844
v 6.9000 3.3000 -0.5901
v 7.0000 3.3000 -0.5940
v 7.1000 3.3000 -0.5968
v 7.2000 3.3000 -0.6023
v 7.3000 3.3000 -0.6123
v 7.4000 3.3000 -0.6258
v 7.5000 3.3000 -0.6427
v 7.6000 3.3000 -0.6613
v 7.7000 3.3000 -0.6786
v 7.8000 3.3000 -0.6945
v 7.9000 3.3000 -0.7074
v 8.0000 3.3000 -0.7182
v 8.1000 3.3000 -0.7287
v 8.2000 3.3000 -0.7402
v 8.3000 3.3000 -0.7539
v 8.4000 3.3000 -0.7712
v 8.5000 3.3000 -0.7898
v 8.6000 3.3000 -0.8077
v 8.7000 3.3000 -0.8240
v 8.8000 3.3000 -0.8379
v 8.9000 3.3000 -0.8486
v 9.0000 3.3000 -0.8564
v 9.1000 3.3000 -0.8632
v 9.2000 3.3000 -0.8696
v 9.3000 3.3000 -0.8756
v 9.4000 3.3000 -0.8802
v 9.5000 3.3000 -0.8834
v 6.5000 3.4000 -0.5481
v 6.6000 3.4000 -0.5570
v 6.7000 3.4000 -0.5661
v 6.8000 3.4000 -0.5725
v 6.9000 3.4000 -0.5763
v 7.0000 3.4000 -0.5791
v 7.1000 3.4000 -0.5818
v 7.2000 3.4000 -0.5884
v 7.3000 3.4000 -0.6006
v 7.4000 3.4000 -0.6169
v 7.5000 3.4000 -0.6359
v 7.6000 3.4000 -0.6554
v 7.7000 3.4000 -0.6731
v 7.8000 3.4000 -0.6886
v 7.9000 3.4000 -0.7009
v 8.0000 3.4000 -0.7113
v 8.1000 3.4000 -0.7226
v 8.2000 3.4000 -0.7356
v 8.3000 3.4000 -0.7516
v 8.4000 3.4000 -0.7716
v 8.5000 3.4000 -0.7928
v 8.6000 3.4000 -0.8126
v 8.7000 3.4000 -0.8297
v 8.8000 3.4000 -0.8435
v 8.9000 3.4000 -0.8542
v 9.0000 3.4000 -0.8623
v 9.1000 3.4000 -0.8693
v 9.2000 3.4000 -0.8763
v 9.3000 3.4000 -0.8829
v 9.4000 3.4000 -0.8876
v 9.5000 3.4000 -0.8906
v 6.5000 3.5000 -0.5431
v 6.6000 3.5000 -0.5511
v 6.7000 3.5000 -0.5589
v 6.8000 3.5000 -0.5638
v 6.9000 3.5000 -0.5663
v 7.0000 3.5000 -0.5685
v 7.1000 3.5000 -0.5714
v 7.2000 3.5000 -0.5788
v 7.3000 3.5000 -0.5923
v 7.4000 3.5000 -0.6103
v 7.5000 3.5000 -0.6307
v 7.6000 3.5000 -0.6507
v 7.7000 3.5000 -0.6685
v 7.8000 3.5000 -0.6839
v 7.9000 3.5000 -0.6962
v 8.0000 3.5000 -0.7067
v 8.1000 3.5000 -0.7191
v 8.2000 3.5000 -0.7336
v 8.3000 3.5000 -0.7516
v 8.4000 3.5000 -0.7732
v 8.5000 3.5000 -0.7959
v 8.6000 3.5000 -0.8165
v 8.7000 3.5000 -0.8335
v 8.8000 3.5000 -0.8469
v 8.9000 3.5000 -0.8575
v 9.0000 3.5000 -0.8659
v 9.1000 3.5000 -0.8734
v 9.2000 3.5000 -0.8811
v 9.3000 3.5000 -0.8882
v 9.4000 3.5000 -0.8931
v 9.5000 3.5000 -0.8959
v 6.5000 3.6000 -0.5414
v 6.6000 3.6000 -0.5480
v 6.7000 3.6000 -0.5545
v 6.8000 3.6000 -0.5585
v 6.9000 3.6000 -0.5602
v 7.0000 3.6000 -0.5622
v 7.1000 3.6000 -0.5656
v 7.2000 3.6000 -0.5735
v 7.3000 3.6000 -0.5874
v 7.4000 3.6000 -0.6062
v 7.5000 3.6000 -0.6272
v 7.6000 3.6000 -0.6471
v 7.7000 3.6000 -0.6649
v 7.8000 3.6000 -0.6805
v 7.9000 3.6000 -0.6932
v 8.0000 3.6000 -0.7045
v 8.1000 3.6000 -0.7182
v 8.2000 3.6000 -0.7344
v 8.3000 3.6000 -0.7539
v 8.4000 3.6000 -0.7762
v 8.5000 3.6000 -0.7991
v 8.6000 3.6000 -0.8193
v 8.7000 3.6000 -0.8355
v 8.8000 3.6000 -0.8481
v 8.9000 3.6000 -0.8584
v 9.0000 3.6000 -0.8672
v 9.1000 3.6000 -0.8753
v 9.2000 3.6000 -0.8838
v 9.3000 3.6000 -0.8915
v 9.4000 3.6000 -0.8967
v 9.5000 3.6000 -0.8995
v 6.5000 3.7000 -0.5429
v 6.6000 3.7000 -0.5479
v 6.7000 3.7000 -0.5531
v 6.8000 3.7000 -0.5564
v 6.9000 3.7000 -0.5580
v 7.0000 3.7000 -0.5603
v 7.1000 3.7000 -0.5643
v 7.2000 3.7000 -0.5725
v 7.3000 3.7000 -0.5859
v 7.4000 3.7000 -0.6044
v 7.5000 3.7000 -0.6252
v 7.6000 3.7000 -0.6447
v 7.7000 3.7000 -0.6623
v 7.8000 3.7000 -0.6783
v 7.9000 3.7000 -0.6918
v 8.0000 3.7000 -0.7045
v 8.1000 3.7000 -0.7199
v 8.2000 3.7000 -0.7379
v 8.3000 3.7000 -0.7584
v 8.4000 3.7000 -0.7805
v 8.5000 3.7000 -0.8022
v 8.6000 3.7000 -0.8211
v 8.7000 3.7000 -0.8355
v 8.8000 3.7000 -0.8470
v 8.9000 3.7000 -0.8570
v 9.0000 3.7000 -0.8663
v 9.1000 3.7000 -0.8751
v 9.2000 3.7000 -0.8846
v 9.3000 3.7000 -0.8929
v 9.4000 3.7000 -0.8982
v 9.5000 3.7000 -0.9011
v 6.5000 3.8000 -0.5475
v 6.6000 3.8000 -0.5507
v 6.7000 3.8000 -0.5544
v 6.8000 3.8000 -0.5576
v 6.9000 3.8000 -0.5597
v 7.0000 3.8000 -0.5627
v 7.1000 3.8000 -0.5676
v 7.2000 3.8000 -0.5757
v 7.3000 3.8000 -0.5876
v 7.4000 3.8000 -0.6050
v 7.5000 3.8000 -0.6247
v 7.6000 3.8000 -0.6434
v 7.7000 3.8000 -0.6608
v 7.8000 3.8000 -0.6774
v 7.9000 3.8000 -0.6923
v 8.0000 3.8000 -0.7069
v 8.1000 3.8000 -0.7244
v 8.2000 3.8000 -0.7442
v 8.3000 3.8000 -0.7651
v 8.4000 3.8000 -0.7861
v 8.5000 3.8000 -0.8054
v 8.6000 3.8000 -0.8217
v 8.7000 3.8000 -0.8336
v 8.8000 3.8000 -0.8437
v 8.9000 3.8000 -0.8532
v 9.0000 3.8000 -0.8632
v 9.1000 3.8000 -0.8728
v 9.2000 3.8000 -0.8834
v 9.3000 3.8000 -0.8922
v 9.4000 3.8000 -0.8979
v 9.5000 3.8000 -0.9009
v 6.5000 3.9000 -0.5509
v 6.6000 3.9000 -0.5526
v 6.7000 3.9000 -0.5553
v 6.8000 3.9000 -0.5585
v 6.9000 3.9000 -0.5610
v 7.0000 3.9000 -0.5647
v 7.1000 3.9000 -0.5704
v 7.2000 3.9000 -0.5785
v 7.3000 3.9000 -0.5892
v 7.4000 3.9000 -0.6052
v 7.5000 3.9000 -0.6237
v 7.6000 3.9000 -0.6413
v 7.7000 3.9000 -0.6582
v 7.8000 3.9000 -0.6751
v 7.9000 3.9000 -0.6909
v 8.0000 3.9000 -0.7070
v 8.1000 3.9000 -0.7259
v 8.2000 3.9000 -0.7470
v 8.3000 3.9000 -0.7681
v 8.4000 3.9000 -0.7880
v 8.5000 3.9000 -0.8054
v 8.6000 3.9000 -0.8198
v 8.7000 3.9000 -0.8299
v 8.8000 3.9000 -0.8391
v 8.9000 3.9000 -0.8483
v 9.0000 3.9000 -0.8585
v 9.1000 3.9000 -0.8686
v 9.2000 3.9000 -0.8797
v 9.3000 3.9000 -0.8889
v 9.4000 3.9000 -0.8948
v 9.5000 3.9000 -0.8981
v 6.5000 4.0000 -0.5529
v 6.6000 4.0000 -0.5538
v 6.7000 4.0000 -0.5557
v 6.8000 4.0000 -0.5591
v 6.9000 4.0000 -0.5622
v 7.0000 4.0000 -0.5664
v 7.1000 4.0000 -0.5728
v 7.2000 4.0000 -0.5810
v 7.3000 4.0000 -0.5905
v 7.4000 4.0000 -0.6051
v 7.5000 4.0000 -0.6221
v 7.6000 4.0000 -0.6384
v 7.7000 4.0000 -0.6546
v 7.8000 4.0000 -0.6715
v 7.9000 4.0000 -0.6878
v 8.0000 4.0000 -0.7048
v 8.1000 4.0000 -0.7245
v 8.2000 4.0000 -0.7462
v 8.3000 4.0000 -0.7672
v 8.4000 4.0000 -0.7863
v 8.5000 4.0000 -0.8023
v 8.6000 4.0000 -0.8155
v 8.7000 4.0000 -0.8247
v 8.8000 4.0000 -0.8333
v 8.9000 4.0000 -0.8422
v 9.0000 4.0000 -0.8524
v 9.1000 4.0000 -0.8624
v 9.2000 4.0000 -0.8736
v 9.3000 4.0000 -0.8830
v 9.4000 4.0000 -0.8891
v 9.5000 4.0000 -0.8928
v 6.5000 4.1000 -0.5536
v 6.6000 4.1000 -0.5541
v 6.7000 4.1000 -0.5558
v 6.8000 4.1000 -0.5594
v 6.9000 4.1000 -0.5631
v 7.0000 4.1000 -0.5678
v 7.1000 4.1000 -0.5749
v 7.2000 4.1000 -0.5831
v 7.3000 4.1000 -0.5916
v 7.4000 4.1000 -0.6046
v 7.5000 4.1000 -0.6200
v 7.6000 4.1000 -0.6347
v 7.7000 4.1000 -0.6500
v 7.8000 4.1000 -0.6666
v 7.9000 4.1000 -0.6831
v 8.0000 4.1000 -0.7004
v 8.1000 4.1000 -0.7204
v 8.2000 4.1000 -0.7420
v 8.3000 4.1000 -0.7625
v 8.4000 4.1000 -0.7809
v 8.5000 4.1000 -0.7961
v 8.6000 4.1000 -0.8087
v 8.7000 4.1000 -0.8177
v 8.8000 4.1000 -0.8262
v 8.9000 4.1000 -0.8349
v 9.0000 4.1000 -0.8447
v 9.1000 4.1000 -0.8543
v 9.2000 4.1000 -0.8651
v 9.3000 4.1000 -0.8748
v 9.4000 4.1000 -0.8817
v 9.5000 4.1000 -0.8864
v 6.5000 4.2000 -0.5530
v 6.6000 4.2000 -0.5537
v 6.7000 4.2000 -0.5554
v 6.8000 4.2000 -0.5595
v 6.9000 4.2000 -0.5639
v 7.0000 4.2000 -0.5690
v 7.1000 4.2000 -0.5766
v 7.2000 4.2000 -0.5849
v 7.3000 4.2000 -0.5925
v 7.4000 4.2000 -0.6037
v 7.5000 4.2000 -0.6173
v 7.6000 4.2000 -0.6302
v 7.7000 4.2000 -0.6443
v 7.8000 4.2000 -0.6603
v 7.9000 4.2000 -0.6766
v 8.0000 4.2000 -0.6937
v 8.1000 4.2000 -0.7134
v 8.2000 4.2000 -0.7343
v 8.3000 4.2000 -0.7541
v 8.4000 4.2000 -0.7718
v 8.5000 4.2000 -0.7868
v 8.6000 4.2000 -0.7994
v 8.7000 4.2000 -0.8090
v 8.8000 4.2000 -0.8180
v 8.9000 4.2000 -0.8266
v 9.0000 4.2000 -0.8356
v 9.1000 4.2000 -0.8443
v 9.2000 4.2000 -0.8540
v 9.3000 4.2000 -0.8648
v 9.4000 4.2000 -0.8733
v 9.5000 4.2000 -0.8799
v 6.5000 4.3000 -0.5511
v 6.6000 4.3000 -0.5525
v 6.7000 4.3000 -0.5546
v 6.8000 4.3000 -0.5593
v 6.9000 4.3000 -0.5645
v 7.0000 4.3000 -0.5699
v 7.1000 4.3000 -0.5779
v 7.2000 4.3000 -0.5863
v 7.3000 4.3000 -0.5931
v 7.4000 4.3000 -0.6024
v 7.5000 4.3000 -0.6139
v 7.6000 4.3000 -0.6248
v 7.7000 4.3000 -0.6375
v 7.8000 4.3000 -0.6525
v 7.9000 4.3000 -0.6683
v 8.0000 4.3000 -0.6847
v 8.1000 4.3000 -0.7035
v 8.2000 4.3000 -0.7230
v 8.3000 4.3000 -0.7419
v 8.4000 4.3000 -0.7590
v 8.5000 4.3000 -0.7744
v 8.6000 4.3000 -0.7877
v 8.7000 4.3000 -0.7988
v 8.8000 4.3000 -0.8085
v 8.9000 4.3000 -0.8172
v 9.0000 4.3000 -0.8251
v 9.1000 4.3000 -0.8324
v 9.2000 4.3000 -0.8406
v 9.3000 4.3000 -0.8530
v 9.4000 4.3000 -0.8637
v 9.5000 4.3000 -0.8733
v 6.5000 4.4000 -0.5498
v 6.6000 4.4000 -0.5520
v 6.7000 4.4000 -0.5549
v 6.8000 4.4000 -0.5605
v 6.9000 4.4000 -0.5666
v 7.0000 4.4000 -0.5726
v 7.1000 4.4000 -0.5812
v 7.2000 4.4000 -0.5899
v 7.3000 4.4000 -0.5965
v 7.4000 4.4000 -0.6045
v 7.5000 4.4000 -0.6147
v 7.6000 4.4000 -0.6245
v 7.7000 4.4000 -0.6364
v 7.8000 4.4000 -0.6510
v 7.9000 4.4000 -0.6666
v 8.0000 4.4000 -0.6826
v 8.1000 4.4000 -0.7005
v 8.2000 4.4000 -0.7189
v 8.3000 4.4000 -0.7368
v 8.4000 4.4000 -0.7533
v 8.5000 4.4000 -0.7687
v 8.6000 4.4000 -0.7824
v 8.7000 4.4000 -0.7946
v 8.8000 4.4000 -0.8053
v 8.9000 4.4000 -0.8144
v 9.0000 4.4000 -0.8220
v 9.1000 4.4000 -0.8288
v 9.2000 4.4000 -0.8362
v 9.3000 4.4000 -0.8495
v 9.4000 4.4000 -0.8617
v 9.5000 4.4000 -0.8731
v 6.5000 4.5000 -0.5490
v 6.6000 4.5000 -0.5522
v 6.7000 4.5000 -0.5560
v 6.8000 4.5000 -0.5628
v 6.9000 4.5000 -0.5702
v 7.0000 4.5000 -0.5772
v 7.1000 4.5000 -0.5864
v 7.2000 4.5000 -0.5957
v 7.3000 4.5000 -0.6024
v 7.4000 4.5000 -0.6099
v 7.5000 4.5000 -0.6197
v 7.6000 4.5000 -0.6291
v 7.7000 4.5000 -0.6411
v 7.8000 4.5000 -0.6557
v 7.9000 4.5000 -0.6714
v 8.0000 4.5000 -0.6872
v 8.1000 4.5000 -0.7046
v 8.2000 4.5000 -0.7220
v 8.3000 4.5000 -0.7389
v 8.4000 4.5000 -0.7546
v 8.5000 4.5000 -0.7696
v 8.6000 4.5000 -0.7835
v 8.7000 4.5000 -0.7964
v 8.8000 4.5000 -0.8083
v 8.9000 4.5000 -0.8183
v 9.0000 4.5000 -0.8264
v 9.1000 4.5000 -0.8336
v 9.2000 4.5000 -0.8409
v 9.3000 4.5000 -0.8545
v 9.4000 4.5000 -0.8672
v 9.5000 4.5000 -0.8791
v 6.5000 4.6000 -0.5488
v 6.6000 4.6000 -0.5530
v 6.7000 4.6000 -0.5581
v 6.8000 4.6000 -0.5663
v 6.9000 4.6000 -0.5753
v 7.0000 4.6000 -0.5836
v 7.1000 4.6000 -0.5936
v 7.2000 4.6000 -0.6035
v 7.3000 4.6000 -0.6109
v 7.4000 4.6000 -0.6187
v 7.5000 4.6000 -0.6287
v 7.6000 4.6000 -0.6388
v 7.7000 4.6000 -0.6514
v 7.8000 4.6000 -0.6666
v 7.9000 4.6000 -0.6828
v 8.0000 4.6000 -0.6986
v 8.1000 4.6000 -0.7155
v 8.2000 4.6000 -0.7322
v 8.3000 4.6000 -0.7481
v 8.4000 4.6000 -0.7628
v 8.5000 4.6000 -0.7773
v 8.6000 4.6000 -0.7910
v 8.7000 4.6000 -0.8044
v 8.8000 4.6000 -0.8174
v 8.9000 4.6000 -0.8287
v 9.0000 4.6000 -0.8382
v 9.1000 4.6000 -0.8466
v 9.2000 4.6000 -0.8546
v 9.3000 4.6000 -0.8677
v 9.4000 4.6000 -0.8798
v 9.5000 4.6000 -0.8910
v 6.5000 4.7000 -0.5492
v 6.6000 4.7000 -0.5545
v 6.7000 4.7000 -0.5610
v 6.8000 4.7000 -0.5711
v 6.9000 4.7000 -0.5818
v 7.0000 4.7000 -0.5918
v 7.1000 4.7000 -0.6027
v 7.2000 4.7000 -0.6135
v 7.3000 4.7000 -0.6220
v 7.4000 4.7000 -0.6307
v 7.5000 4.7000 -0.6417
v 7.6000 4.7000 -0.6534
v 7.7000 4.7000 -0.6676
v 7.8000 4.7000 -0.6837
v 7.9000 4.7000 -0.7007
v 8.0000 4.7000 -0.7168
v 8.1000 4.7000 -0.7335
v 8.2000 4.7000 -0.7495
v 8.3000 4.7000 -0.7644
v 8.4000 4.7000 -0.7780
v 8.5000 4.7000 -0.7916
v 8.6000 4.7000 -0.8049
v 8.7000 4.7000 -0.8183
v 8.8000 4.7000 -0.8326
v 8.9000 4.7000 -0.8457
v 9.0000 4.7000 -0.8574
v 9.1000 4.7000 -0.8680
v 9.2000 4.7000 -0.8773
v 9.3000 4.7000 -0.8894
v 9.4000 4.7000 -0.8998
v 9.5000 4.7000 -0.9091
v 6.5000 4.8000 -0.5501
v 6.6000 4.8000 -0.5566
v 6.7000 4.8000 -0.5649
v 6.8000 4.8000 -0.5770
v 6.9000 4.8000 -0.5898
v 7.0000 4.8000 -0.6018
v 7.1000 4.8000 -0.6137
v 7.2000 4.8000 -0.6255
v 7.3000 4.8000 -0.6357
v 7.4000 4.8000 -0.6462
v 7.5000 4.8000 -0.6591
v 7.6000 4.8000 -0.6732
v 7.7000 4.8000 -0.6895
v 7.8000 4.8000 -0.7071
v 7.9000 4.8000 -0.7253
v 8.0000 4.8000 -0.7419
v 8.1000 4.8000 -0.7584
v 8.2000 4.8000 -0.7740
v 8.3000 4.8000 -0.7877
v 8.4000 4.8000 -0.8000
v 8.5000 4.8000 -0.8125
v 8.6000 4.8000 -0.8251
v 8.7000 4.8000 -0.8383
v 8.8000 4.8000 -0.8539
v 8.9000 4.8000 -0.8693
v 9.0000 4.8000 -0.8840
v 9.1000 4.8000 -0.8977
v 9.2000 4.8000 -0.9091
v 9.3000 4.8000 -0.9194
v 9.4000 4.8000 -0.9274
v 9.5000 4.8000 -0.9336
v 6.5000 4.9000 -0.5529
v 6.6000 4.9000 -0.5603
v 6.7000 4.9000 -0.5700
v 6.8000 4.9000 -0.5837
v 6.9000 4.9000 -0.5980
v 7.0000 4.9000 -0.6116
v 7.1000 4.9000 -0.6245
v 7.2000 4.9000 -0.6371
v 7.3000 4.9000 -0.6485
v 7.4000 4.9000 -0.6603
v 7.5000 4.9000 -0.6745
v 7.6000 4.9000 -0.6904
v 7.7000 4.9000 -0.7084
v 7.8000 4.9000 -0.7270
v 7.9000 4.9000 -0.7461
v 8.0000 4.9000 -0.7628
v 8.1000 4.9000 -0.7790
v 8.2000 4.9000 -0.7941
v 8.3000 4.9000 -0.8067
v 8.4000 4.9000 -0.8179
v 8.5000 4.9000 -0.8296
v 8.6000 4.9000 -0.8415
v 8.7000 4.9000 -0.8547
v 8.8000 4.9000 -0.8714
v 8.9000 4.9000 -0.8885
v 9.0000 4.9000 -0.9054
v 9.1000 4.9000 -0.9212
v 9.2000 4.9000 -0.9338
v 9.3000 4.9000 -0.9429
v 9.4000 4.9000 -0.9490
v 9.5000 4.9000 -0.9529
v 6.5000 5.0000 -0.5575
v 6.6000 5.0000 -0.5656
v 6.7000 5.0000 -0.5764
v 6.8000 5.0000 -0.5912
v 6.9000 5.0000 -0.6066
v 7.0000 5.0000 -0.6213
v 7.1000 5.0000 -0.6349
v 7.2000 5.0000 -0.6480
v 7.3000 5.0000 -0.6603
v 7.4000 5.0000 -0.6731
v 7.5000 5.0000 -0.6881
v 7.6000 5.0000 -0.7052
v 7.7000 5.0000 -0.7242
v 7.8000 5.0000 -0.7435
v 7.9000 5.0000 -0.7630
v 8.0000 5.0000 -0.7797
v 8.1000 5.0000 -0.7955
v 8.2000 5.0000 -0.8098
v 8.3000 5.0000 -0.8214
v 8.4000 5.0000 -0.8317
v 8.5000 5.0000 -0.8427
v 8.6000 5.0000 -0.8543
v 8.7000 5.0000 -0.8676
v 8.8000 5.0000 -0.8850
v 8.9000 5.0000 -0.9033
v 9.0000 5.0000 -0.9215
v 9.1000 5.0000 -0.9384
v 9.2000 5.0000 -0.9516
v 9.3000 5.0000 -0.9594
v 9.4000 5.0000 -0.9637
v 9.5000 5.0000 -0.9657
v 6.5000 5.1000 -0.5640
v 6.6000 5.1000 -0.5726
v 6.7000 5.1000 -0.5841
v 6.8000 5.1000 -0.5995
v 6.9000 5.1000 -0.6155
v 7.0000 5.1000 -0.6309
v 7.1000 5.1000 -0.6450
v 7.2000 5.1000 -0.6585
v 7.3000 5.1000 -0.6713
v 7.4000 5.1000 -0.6846
v 7.5000 5.1000 -0.6999
v 7.6000 5.1000 -0.7175
v 7.7000 5.1000 -0.7370
v 7.8000 5.1000 -0.7566
v 7.9000 5.1000 -0.7761
v 8.0000 5.1000 -0.7926
v 8.1000 5.1000 -0.8078
v 8.2000 5.1000 -0.8213
v 8.3000 5.1000 -0.8319
v 8.4000 5.1000 -0.8414
v 8.5000 5.1000 -0.8520
v 8.6000 5.1000 -0.8633
v 8.7000 5.1000 -0.8768
v 8.8000 5.1000 -0.8948
v 8.9000 5.1000 -0.9137
v 9.0000 5.1000 -0.9325
v 9.1000 5.1000 -0.9495
v 9.2000 5.1000 -0.9625
v 9.3000 5.1000 -0.9676
v 9.4000 5.1000 -0.9692
v 9.5000 5.1000 -0.9685
v 6.5000 5.2000 -0.5725
v 6.6000 5.2000 -0.5813
v 6.7000 5.2000 -0.5931
v 6.8000 5.2000 -0.6087
v 6.9000 5.2000 -0.6247
v 7.0000 5.2000 -0.6403
v 7.1000 5.2000 -0.6549
v 7.2000 5.2000 -0.6683
v 7.3000 5.2000 -0.6813
v 7.4000 5.2000 -0.6947
v 7.5000 5.2000 -0.7099
v 7.6000 5.2000 -0.7273
v 7.7000 5.2000 -0.7468
v 7.8000 5.2000 -0.7662
v 7.9000 5.2000 -0.7853
v 8.0000 5.2000 -0.8014
v 8.1000 5.2000 -0.8160
v 8.2000 5.2000 -0.8285
v 8.3000 5.2000 -0.8382
v 8.4000 5.2000 -0.8472
v 8.5000 5.2000 -0.8575
v 8.6000 5.2000 -0.8687
v 8.7000 5.2000 -0.8825
v 8.8000 5.2000 -0.9007
v 8.9000 5.2000 -0.9197
v 9.0000 5.2000 -0.9382
v 9.1000 5.2000 -0.9544
v 9.2000 5.2000 -0.9664
v 9.3000 5.2000 -0.9689
v 9.4000 5.2000 -0.9678
v 9.5000 5.2000 -0.9648
v 6.5000 5.3000 -0.5827
v 6.6000 5.3000 -0.5916
v 6.7000 5.3000 -0.6034
v 6.8000 5.3000 -0.6187
v 6.9000 5.3000 -0.6342
v 7.0000 5.3000 -0.6496
v 7.1000 5.3000 -0.6644
v 7.2000 5.3000 -0.6775
v 7.3000 5.3000 -0.6904
v 7.4000 5.3000 -0.7035
v 7.5000 5.3000 -0.7181
v 7.6000 5.3000 -0.7346
v 7.7000 5.3000 -0.7535
v 7.8000 5.3000 -0.7723
v 7.9000 5.3000 -0.7906
v 8.0000 5.3000 -0.8062
v 8.1000 5.3000 -0.8200
v 8.2000 5.3000 -0.8314
v 8.3000 5.3000 -0.8404
v 8.4000 5.3000 -0.8492
v 8.5000 5.3000 -0.8593
v 8.6000 5.3000 -0.8704
v 8.7000 5.3000 -0.8847
v 8.8000 5.3000 -0.9028
v 8.9000 5.3000 -0.9213
v 9.0000 5.3000 -0.9386
v 9.1000 5.3000 -0.9531
v 9.2000 5.3000 -0.9634
v 9.3000 5.3000 -0.9632
v 9.4000 5.3000 -0.9596
v 9.5000 5.3000 -0.9546
v 6.5000 5.4000 -0.5900
v 6.6000 5.4000 -0.5981
v 6.7000 5.4000 -0.6090
v 6.8000 5.4000 -0.6233
v 6.9000 5.4000 -0.6379
v 7.0000 5.4000 -0.6527
v 7.1000 5.4000 -0.6679
v 7.2000 5.4000 -0.6812
v 7.3000 5.4000 -0.6945
v 7.4000 5.4000 -0.7080
v 7.5000 5.4000 -0.7226
v 7.6000 5.4000 -0.7388
v 7.7000 5.4000 -0.7574
v 7.8000 5.4000 -0.7760
v 7.9000 5.4000 -0.7938
v 8.0000 5.4000 -0.8090
v 8.1000 5.4000 -0.8222
v 8.2000 5.4000 -0.8327
v 8.3000 5.4000 -0.8409
v 8.4000 5.4000 -0.8492
v 8.5000 5.4000 -0.8590
v 8.6000 5.4000 -0.8696
v 8.7000 5.4000 -0.8836
v 8.8000 5.4000 -0.9009
v 8.9000 5.4000 -0.9185
v 9.0000 5.4000 -0.9345
v 9.1000 5.4000 -0.9473
v 9.2000 5.4000 -0.9562
v 9.3000 5.4000 -0.9547
v 9.4000 5.4000 -0.9500
v 9.5000 5.4000 -0.9442
v 6.5000 5.5000 -0.5942
v 6.6000 5.5000 -0.6009
v 6.7000 5.5000 -0.6102
v 6.8000 5.5000 -0.6225
v 6.9000 5.5000 -0.6355
v 7.0000 5.5000 -0.6496
v 7.1000 5.5000 -0.6652
v 7.2000 5.5000 -0.6793
v 7.3000 5.5000 -0.6936
v 7.4000 5.5000 -0.7082
v 7.5000 5.5000 -0.7234
v 7.6000 5.5000 -0.7399
v 7.7000 5.5000 -0.7585
v 7.8000 5.5000 -0.7772
v 7.9000 5.5000 -0.7947
v 8.0000 5.5000 -0.8098
v 8.1000 5.5000 -0.8225
v 8.2000 5.5000 -0.8324
v 8.3000 5.5000 -0.8398
v 8.4000 5.5000 -0.8475
v 8.5000 5.5000 -0.8565
v 8.6000 5.5000 -0.8662
v 8.7000 5.5000 -0.8794
v 8.8000 5.5000 -0.8952
v 8.9000 5.5000 -0.9113
v 9.0000 5.5000 -0.9256
v 9.1000 5.5000 -0.9371
v 9.2000 5.5000 -0.9448
v 9.3000 5.5000 -0.9438
v 9.4000 5.5000 -0.9398
v 9.5000 5.5000 -0.9348
v 6.5000 5.6000 -0.5955
v 6.6000 5.6000 -0.6001
v 6.7000 5.6000 -0.6068
v 6.8000 5.6000 -0.6165
v 6.9000 5.6000 -0.6273
v 7.0000 5.6000 -0.6404
v 7.1000 5.6000 -0.6564
v 7.2000 5.6000 -0.6718
v 7.3000 5.6000 -0.6877
v 7.4000 5.6000 -0.7040
v 7.5000 5.6000 -0.7206
v 7.6000 5.6000 -0.7379
v 7.7000 5.6000 -0.7568
v 7.8000 5.6000 -0.7758
v 7.9000 5.6000 -0.7934
v 8.0000 5.6000 -0.8085
v 8.1000 5.6000 -0.8210
v 8.2000 5.6000 -0.8304
v 8.3000 5.6000 -0.8370
v 8.4000 5.6000 -0.8439
v 8.5000 5.6000 -0.8519
v 8.6000 5.6000 -0.8604
v 8.7000 5.6000 -0.8720
v 8.8000 5.6000 -0.8857
v 8.9000 5.6000 -0.8999
v 9.0000 5.6000 -0.9123
v 9.1000 5.6000 -0.9223
v 9.2000 5.6000 -0.9291
v 9.3000 5.6000 -0.9314
v 9.4000 5.6000 -0.9307
v 9.5000 5.6000 -0.9291
v 6.5000 5.7000 -0.5937
v 6.6000 5.7000 -0.5955
v 6.7000 5.7000 -0.5988
v 6.8000 5.7000 -0.6051
v 6.9000 5.7000 -0.6131
v 7.0000 5.7000 -0.6250
v 7.1000 5.7000 -0.6415
v 7.2000 5.7000 -0.6588
v 7.3000 5.7000 -0.6769
v 7.4000 5.7000 -0.6956
v 7.5000 5.7000 -0.7141
v 7.6000 5.7000 -0.7327
v 7.7000 5.7000 -0.7523
v 7.8000 5.7000 -0.7720
v 7.9000 5.7000 -0.7899
v 8.0000 5.7000 -0.8052
v 8.1000 5.7000 -0.8175
v 8.2000 5.7000 -0.8266
v 8.3000 5.7000 -0.8326
v 8.4000 5.7000 -0.8384
v 8.5000 5.7000 -0.8452
v 8.6000 5.7000 -0.8521
v 8.7000 5.7000 -0.8616
v 8.8000 5.7000 -0.8727
v 8.9000 5.7000 -0.8844
v 9.0000 5.7000 -0.8946
v 9.1000 5.7000 -0.9033
v 9.2000 5.7000 -0.9093
v 9.3000 5.7000 -0.9158
v 9.4000 5.7000 -0.9193
v 9.5000 5.7000 -0.9219
v 6.5000 5.8000 -0.5889
v 6.6000 5.8000 -0.5872
v 6.7000 5.8000 -0.5863
v 6.8000 5.8000 -0.5883
v 6.9000 5.8000 -0.5930
v 7.0000 5.8000 -0.6035
v 7.1000 5.8000 -0.6206
v 7.2000 5.8000 -0.6402
v 7.3000 5.8000 -0.6611
v 7.4000 5.8000 -0.6830
v 7.5000 5.8000 -0.7040
v 7.6000 5.8000 -0.7246
v 7.7000 5.8000 -0.7451
v 7.8000 5.8000 -0.7658
v 7.9000 5.8000 -0.7843
v 8.0000 5.8000 -0.7998
v 8.1000 5.8000 -0.8121
v 8.2000 5.8000 -0.8212
v 8.3000 5.8000 -0.8263
v 8.4000 5.8000 -0.8309
v 8.5000 5.8000 -0.8363
v 8.6000 5.8000 -0.8414
v 8.7000 5.8000 -0.8482
v 8.8000 5.8000 -0.8560
v 8.9000 5.8000 -0.8646
v 9.0000 5.8000 -0.8725
v 9.1000 5.8000 -0.8798
v 9.2000 5.8000 -0.8853
v 9.3000 5.8000 -0.8969
v 9.4000 5.8000 -0.9057
v 9.5000 5.8000 -0.9133
v 6.5000 5.9000 -0.5851
v 6.6000 5.9000 -0.5806
v 6.7000 5.9000 -0.5762
v 6.8000 5.9000 -0.5748
v 6.9000 5.9000 -0.5769
v 7.0000 5.9000 -0.5862
v 7.1000 5.9000 -0.6039
v 7.2000 5.9000 -0.6254
v 7.3000 5.9000 -0.6486
v 7.4000 5.9000 -0.6729
v 7.5000 5.9000 -0.6960
v 7.6000 5.9000 -0.7180
v 7.7000 5.9000 -0.7393
v 7.8000 5.9000 -0.7608
v 7.9000 5.9000 -0.7797
v 8.0000 5.9000 -0.7955
v 8.1000 5.9000 -0.8077
v 8.2000 5.9000 -0.8169
v 8.3000 5.9000 -0.8213
v 8.4000 5.9000 -0.8248
v 8.5000 5.9000 -0.8292
v 8.6000 5.9000 -0.8328
v 8.7000 5.9000 -0.8375
v 8.8000 5.9000 -0.8427
v 8.9000 5.9000 -0.8490
v 9.0000 5.9000 -0.8549
v 9.1000 5.9000 -0.8611
v 9.2000 5.9000 -0.8662
v 9.3000 5.9000 -0.8819
v 9.4000 5.9000 -0.8949
v 9.5000 5.9000 -0.9064
v 6.5000 6.0000 -0.5823
v 6.6000 6.0000 -0.5756
v 6.7000 6.0000 -0.5687
v 6.8000 6.0000 -0.5647
v 6.9000 6.0000 -0.5647
v 7.0000 6.0000 -0.5732
v 7.1000 6.0000 -0.5914
v 7.2000 6.0000 -0.6142
v 7.3000 6.0000 -0.6391
v 7.4000 6.0000 -0.6653
v 7.5000 6.0000 -0.6901
v 7.6000 6.0000 -0.7132
v 7.7000 6.0000 -0.7349
v 7.8000 6.0000 -0.7570
v 7.9000 6.0000 -0.7763
v 8.0000 6.0000 -0.7922
v 8.1000 6.0000 -0.8045
v 8.2000 6.0000 -0.8136
v 8.3000 6.0000 -0.8176
v 8.4000 6.0000 -0.8203
v 8.5000 6.0000 -0.8240
v 8.6000 6.0000 -0.8265
v 8.7000 6.0000 -0.8296
v 8.8000 6.0000 -0.8329
v 8.9000 6.0000 -0.8373
v 9.0000 6.0000 -0.8418
v 9.1000 6.0000 -0.8471
v 9.2000 6.0000 -0.8518
v 9.3000 6.0000 -0.8706
v 9.4000 6.0000 -0.8867
v 9.5000 6.0000 -0.9012
f 1 2 33 32
f 2 3 34 33
f 3 4 35 34
f 4 5 36 35
f 5 6 37 36
f 6 7 38 37
f 7 8 39 38
f 8 9 40 39
f 9 10 41 40
f 10 11 42 41
f 11 12 43 42
f 12 13 44 43
f 13 14 45 44
f 14 15 46 45
f 15 16 47 46
f 16 17 48 47
f 17 18 49 48
f 18 19 50 49
f 19 20 51 50
f 20 21 52 51
f 21 22 53 52
f 22 23 54 53
f 23 24 55 54
f 24 25 56 55
f 25 26 57 56
f 26 27 58 57
f 27 28 59 58
f 28 29 60 59
f 29 30 61 60
f 30 31 62 61
f 32 33 64 63
f 33 34 65 64
f 34 35 66 65
f 35 36 67 66
f 36 37 68 67
f 37 38 69 68
f 38 39 70 69
f 39 40 71 70
f 40 41 72 71
f 41 42 73 72
f 42 43 74 73
f 43 44 75 74
f 44 45 76 75
f 45 46 77 76
f 46 47 78 77
f 47 48 79 78
f 48 49 80 79
f 49 50 81 80
f 50 51 82 81
f 51 52 83 82
f 52 53 84 83
f 53 54 85 84
f 54 55 86 85
f 55 56 87 86
f 56 57 88 87
f 57 58 89 88
f 58 59 90 89
f 59 60 91 90
f 60 61 92 91
f 61 62 93 92
f 63 64 95 94
f 64 65 96 95
f 65 66 97 96
f 66 67 98 97
f 67 68 99 98
f 68 69 100 99
f 69 70 101 100
f 70 71 102 101
f 71 72 103 102
f 72 73 104 103
f 73 74 105 104
f 74 75 106 105
f 75 76 107 106
f 76 77 108 107
f 77 78 109 108
f 78 79 110 109
f 79 80 111 110
f 80 81 112 111
f 81 82 113 112
f 82 83 114 113
f 83 84 115 114
f 84 85 116 115
f 85 86 117 116
f 86 87 118 117
f 87 88 119 118
f 88 89 120 119
f 89 90 121 120
f 90 91 122 121
f 91 92 123 122
f 92 93 124 123
f 94 95 126 125
f 95 96 127 126
f 96 97 128 127
f 97 98 129 128
f 98 99 130 129
f 99 100 131 130
f 100 101 132 131
f 101 102 133 132
f 102 103 134 133
f 103 104 135 134
f 104 105 136 135
f 105 106 137 136
f 106 107 138 137
f 107 108 139 138
f 108 109 140 139
f 109 110 141 140
f 110 111 142 141
f 111 112 143 142
f 112 113 144 143
f 113 114 145 144
f 114 115 146 145
f 115 116 147 146
f 116 117 148 147
f 117 118 149 148
f 118 119 150 149
f 119 120 151 150
f 120 121 152 151
f 121 122 153 152
f 122 123 154 153
f 123 124 155 154
f 125 126 157 156
f 126 127 158 157
f 127 128 159 158
f 128 129 160 159
f 129 130 161 160
f 130 131 162 161
f 131 132 163 162
f 132 133 164 163
f 133 134 165 164
f 134 135 166 165
f 135 136 167 166
f 136 137 168 167
f 137 138 169 168
f 138 139 170 169
f 139 140 171 170
f 140 141 172 171
f 141 142 173 172
f 142 143 174 173
f 143 144 175 174
f 144 145 176 175
f 145 146 177 176
f 146 147 178 177
f 147 148 179 178
f 148 149 180 179
f 149 150 181 180
f 150 151 182 181
f 151 152 183 182
f 152 153 184 183
f 153 154 185 184
f 154 155 186 185
f 156 157 188 187
f 157 158 189 188
f 158 159 190 189
f 159 160 191 190
f 160 161 192 191
f 161 162 193 192
f 162 163 194 193
f 163 164 195 194
f 164 165 196 195
f 165 166 197 196
f 166 167 198 197
f 167 168 199 198
f 168 169 200 199
f 169 170 201 200
f 170 171 202 201
f 171 172 203 202
f 172 173 204 203
f 173 174 205 204
f 174 175 206 205
f 175 176 207 206
f 176 177 208 207
f 177 178 209 208
f 178 179 210 209
f 179 180 211 210
f 180 181 212 211
f 181 182 213 212
f 182 183 214 213
f 183 184 215 214
f 184 185 216 215
f 185 186 217 216
f 187 188 219 218
f 188 189 220 219
f 189 190 221 220
f 190 191 222 221
f 191 192 223 222
f 192 193 224 223
f 193 194 225 224
f 194 195 226 225
f 195 196 227 226
f 196 197 228 227
f 197 198 229 228
f 198 199 230 229
f 199 200 231 230
f 200 201 232 231
f 201 202 233 232
f 202 203 234 233
f 203 204 235 234
f 204 205 236 235
f 205 206 237 236
f 206 207 238 237
f 207 208 239 238
f 208 209 240 239
f 209 210 241 240
f 210 211 242 241
f 211 212 243 242
f 212 213 244 243
f 213 214 245 244
f 214 215 246 245
f 215 216 247 246
f 216 217 248 247
f 218 219 250 249
f 219 220 251 250
f 220 221 252 251
f 221 222 253 252
f 222 223 254 253
f 223 224 255 254
f 224 225 256 255
f 225 226 257 256
f 226 227 258 257
f 227 228 259 258
f 228 229 260 259
f 229 230 261 260
f 230 231 262 261
f 231 232 263 262
f 232 233 264 263
f 233 234 265 264
f 234 235 266 265
f 235 236 267 266
f 236 237 268 267
f 237 238 269 268
f 238 239 270 269
f 239 240 271 270
f 240 241 272 271
f 241 242 273 272
f 242 243 274 273
f 243 244 275 274
f 244 245 276 275
f 245 246 277 276
f 246 247 278 277
f 247 248 279 278
f 249 250 281 280
f 250 251 282 281
f 251 252 283 282
f 252 253 284 283
f 253 254 285 284
f 254 255 286 285
f 255 256 287 286
f 256 257 288 287
f 257 258 289 288
f 258 259 290 289
f 259 260 291 290
f 260 261 292 291
f 261 262 293 292
f 262 263 294 293
f 263 264 295 294
f 264 265 296 295
f 265 266 297 296
f 266 267 298 297
f 267 268 299 298
f 268 269 300 299
f 269 270 301 300
f 270 271 302 301
f 271 272 303 302
f 272 273 304 303
f 273 274 305 304
f 274 275 306 305
f 275 276 307 306
f 276 277 308 307
f 277 278 309 308
f 278 279 310 309
f 280 281 312 311
f 281 282 313 312
f 282 283 314 313
f 283 284 315 314
f 284 285 316 315
f 285 286 317 316
f 286 287 318 317
f 287 288 319 318
f 288 289 320 319
f 289 290 321 320
f 290 291 322 321
f 291 292 323 322
f 292 293 324 323
f 293 294 325 324
f 294 295 326 325
f 295 296 327 326
f 296 297 328 327
f 297 298 329 328
f 298 299 330 329
f 299 300 331 330
f 300 301 332 331
f 301 302 333 332
f 302 303 334 333
f 303 304 335 334
f 304 305 336 335
f 305 306 337 336
f 306 307 338 337
f 307 308 339 338
f 308 309 340 339
f 309 310 341 340
f 311 312 343 342
f 312 313 344 343
f 313 314 345 344
f 314 315 346 345
f 315 316 347 346
f 316 317 348 347
f 317 318 349 348
f 318 319 350 349
f 319 320 351 350
f 320 321 352 351
f 321 322 353 352
f 322 323 354 353
f 323 324 355 354
f 324 325 356 355
f 325 326 357 356
f 326 327 358 357
f 327 328 359 358
f 328 329 360 359
f 329 330 361 360
f 330 331 362 361
f 331 332 363 362
f 332 333 364 363
f 333 334 365 364
f 334 335 366 365
f 335 336 367 366
f 336 337 368 367
f 337 338 369 368
f 338 339 370 369
f 339 340 371 370
f 340 341 372 371
f 342 343 374 373
f 343 344 375 374
f 344 345 376 375
f 345 346 377 376
f 346 347 378 377
f 347 348 379 378
f 348 349 380 379
f 349 350 381 380
f 350 351 382 381
f 351 352 383 382
f 352 353 384 383
f 353 354 385 384
f 354 355 386 385
f 355 356 387 386
f 356 357 388 387
f 357 358 389 388
f 358 359 390 389
f 359 360 391 390
f 360 361 392 391
f 361 362 393 392
f 362 363 394 393
f 363 364 395 394
f 364 365 396 395
f 365 366 397 396
f 366 367 398 397
f 367 368 399 398
f 368 369 400 399
f 369 370 401 400
f 370 371 402 401
f 371 372 403 402
f 373 374 405 404
f 374 375 406 405
f 375 376 407 406
f 376 377 408 407
f 377 378 409 408
f 378 379 410 409
f 379 380 411 410
f 380 381 412 411
f 381 382 413 412
f 382 383 414 413
f 383 384 415 414
f 384 385 416 415
f 385 386 417 416
f 386 387 418 417
f 387 388 419 418
f 388 389 420 419
f 389 390 421 420
f 390 391 422 421
f 391 392 423 422
f 392 393 424 423
f 393 394 425 424
f 394 395 426 425
f 395 396 427 426
f 396 397 428 427
f 397 398 429 428
f 398 399 430 429
f 399 400 431 430
f 400 401 432 431
f 401 402 433 432
f 402 403 434 433
f 404 405 436 435
f 405 406 437 436
f 406 407 438 437
f 407 408 439 438
f 408 409 440 439
f 409 410 441 440
f 410 411 442 441
f 411 412 443 442
f 412 413 444 443
f 413 414 445 444
f 414 415 446 445
f 415 416 447 446
f 416 417 448 447
f 417 418 449 448
f 418 419 450 449
f 419 420 451 450
f 420 421 452 451
f 421 422 453 452
f 422 423 454 453
f 423 424 455 454
f 424 425 456 455
f 425 426 457 456
f 426 427 458 457
f 427 428 459 458
f 428 429 460 459
f 429 430 461 460
f 430 431 462 461
f 431 432 463 462
f 432 433 464 463
f 433 434 465 464
f 435 436 467 466
f 436 437 468 467
f 437 438 469 468
f 438 439 470 469
f 439 440 471 470
f 440 441 472 471
f 441 442 473 472
f 442 443 474 473
f 443 444 475 474
f 444 445 476 475
f 445 446 477 476
f 446 447 478 477
f 447 448 479 478
f 448 449 480 479
f 449 450 481 480
f 450 451 482 481
f 451 452 483 482
f 452 453 484 483
f 453 454 485 484
f 454 455 486 485
f 455 456 487 486
f 456 457 488 487
f 457 458 489 488
f 458 459 490 489
f 459 460 491 490
f 460 461 492 491
f 461 462 493 492
f 462 463 494 493
f 463 464 495 494
f 464 465 496 495
f 466 467 498 497
f 467 468 499 498
f 468 469 500 499
f 469 470 501 500
f 470 471 502 501
f 471 472 503 502
f 472 473 504 503
f 473 474 505 504
f 474 475 506 505
f 475 476 507 506
f 476 477 508 507
f 477 478 509 508
f 478 479 510 509
f 479 480 511 510
f 480 481 512 511
f 481 482 513 512
f 482 483 514 513
f 483 484 515 514
f 484 485 516 515
f 485 486 517 516
f 486 487 518 517
f 487 488 519 518
f 488 489 520 519
f 489 490 521 520
f 490 491 522 521
f 491 492 523 522
f 492 493 524 523
f 493 494 525 524
f 494 495 526 525
f 495 496 527 526
f 497 498 529 528
f 498 499 530 529
f 499 500 531 530
f 500 501 532 531
f 501 502 533 532
f 502 503 534 533
f 503 504 535 534
f 504 505 536 535
f 505 506 537 536
f 506 507 538 537
f 507 508 539 538
f 508 509 540 539
f 509 510 541 540
f 510 511 542 541
f 511 512 543 542
f 512 513 544 543
f 513 514 545 544
f 514 515 546 545
f 515 516 547 546
f 516 517 548 547
f 517 518 549 548
f 518 519 550 549
f 519 520 551 550
f 520 521 552 551
f 521 522 553 552
f 522 523 554 553
f 523 524 555 554
f 524 525 556 555
f 525 526 557 556
f 526 527 558 557
f 528 529 560 559
f 529 530 561 560
f 530 531 562 561
f 531 532 563 562
f 532 533 564 563
f 533 534 565 564
f 534 535 566 565
f 535 536 567 566
f 536 537 568 567
f 537 538 569 568
f 538 539 570 569
f 539 540 571 570
f 540 541 572 571
f 541 542 573 572
f 542 543 574 573
f 543 544 575 574
f 544 545 576 575
f 545 546 577 576
f 546 547 578 577
f 547 548 579 578
f 548 549 580 579
f 549 550 581 580
f 550 551 582 581
f 551 552 583 582
f 552 553 584 583
f 553 554 585 584
f 554 555 586 585
f 555 556 587 586
f 556 557 588 587
f 557 558 589 588
f 559 560 591 590
f 560 561 592 591
f 561 562 593 592
f 562 563 594 593
f 563 564 595 594
f 564 565 596 595
f 565 566 597 596
f 566 567 598 597
f 567 568 599 598
f 568 569 600 599
f 569 570 601 600
f 570 571 602 601
f 571 572 603 602
f 572 573 604 603
f 573 574 605 604
f 574 575 606 605
f 575 576 607 606
f 576 577 608 607
f 577 578 609 608
f 578 579 610 609
f 579 580 611 610
f 580 581 612 611
f 581 582 613 612
f 582 583 614 613
f 583 584 615 614
f 584 585 616 615
f 585 586 617 616
f 586 587 618 617
f 587 588 619 618
f 588 589 620 619
f 590 591 622 621
f 591 592 623 622
f 592 593 624 623
f 593 594 625 624
f 594 595 626 625
f 595 596 627 626
f 596 597 628 627
f 597 598 629 628
f 598 599 630 629
f 599 600 631 630
f 600 601 632 631
f 601 602 633 632
f 602 603 634 633
f 603 604 635 634
f 604 605 636 635
f 605 606 637 636
f 606 607 638 637
f 607 608 639 638
f 608 609 640 639
f 609 610 641 640
f 610 611 642 641
f 611 612 643 642
f 612 613 644 643
f 613 614 645 644
f 614 615 646 645
f 615 616 647 646
f 616 617 648 647
f 617 618 649 648
f 618 619 650 649
f 619 620 651 650
f 621 622 653 652
f 622 623 654 653
f 623 624 655 654
f 624 625 656 655
f 625 626 657 656
f 626 627 658 657
f 627 628 659 658
f 628 629 660 659
f 629 630 661 660
f 630 631 662 661
f 631 632 663 662
f 632 633 664 663
f 633 634 665 664
f 634 635 666 665
f 635 636 667 666
f 636 637 668 667
f 637 638 669 668
f 638 639 670 669
f 639 640 671 670
f 640 641 672 671
f 641 642 673 672
f 642 643 674 673
f 643 644 675 674
f 644 645 676 675
f 645 646 677 676
f 646 647 678 677
f 647 648 679 678
f 648 649 680 679
f 649 650 681 680
f 650 651 682 681
f 652 653 684 683
f 653 654 685 684
f 654 655 686 685
f 655 656 687 686
f 656 657 688 687
f 657 658 689 688
f 658 659 690 689
f 659 660 691 690
f 660 661 692 691
f 661 662 693 692
f 662 663 694 693
f 663 664 695 694
f 664 665 696 695
f 665 666 697 696
f 666 667 698 697
f 667 668 699 698
f 668 669 700 699
f 669 670 701 700
f 670 671 702 701
f 671 672 703 702
f 672 673 704 703
f 673 674 705 704
f 674 675 706 705
f 675 676 707 706
f 676 677 708 707
f 677 678 709 708
f 678 679 710 709
f 679 680 711 710
f 680 681 712 711
f 681 682 713 712
f 683 684 715 714
f 684 685 716 715
f 685 686 717 716
f 686 687 718 717
f 687 688 719 718
f 688 689 720 719
f 689 690 721 720
f 690 691 722 721
f 691 692 723 722
f 692 693 724 723
f 693 694 725 724
f 694 695 726 725
f 695 696 727 726
f 696 697 728 727
f 697 698 729 728
f 698 699 730 729
f 699 700 731 730
f 700 701 732 731
f 701 702 733 732
f 702 703 734 733
f 703 704 735 734
f 704 705 736 735
f 705 706 737 736
f 706 707 738 737
f 707 708 739 738
f 708 709 740 739
f 709 710 741 740
f 710 711 742 741
f 711 712 743 742
f 712 713 744 743
f 714 715 746 745
f 715 716 747 746
f 716 717 748 747
f 717 718 749 748
f 718 719 750 749
f 719 720 751 750
f 720 721 752 751
f 721 722 753 752
f 722 723 754 753
f 723 724 755 754
f 724 725 756 755
f 725 726 757 756
f 726 727 758 757
f 727 728 759 758
f 728 729 760 759
f 729 730 761 760
f 730 731 762 761
f 731 732 763 762
f 732 733 764 763
f 733 734 765 764
f 734 735 766 765
f 735 736 767 766
f 736 737 768 767
f 737 738 769 768
f 738 739 770 769
f 739 740 771 770
f 740 741 772 771
f 741 742 773 772
f 742 743 774 773
f 743 744 775 774
f 745 746 777 776
f 746 747 778 777
f 747 748 779 778
f 748 749 780 779
f 749 750 781 780
f 750 751 782 781
f 751 752 783 782
f 752 753 784 783
f 753 754 785 784
f 754 755 786 785
f 755 756 787 786
f 756 757 788 787
f 757 758 789 788
f 758 759 790 789
f 759 760 791 790
f 760 761 792 791
f 761 762 793 792
f 762 763 794 793
f 763 764 795 794
f 764 765 796 795
f 765 766 797 796
f 766 767 798 797
f 767 768 799 798
f 768 769 800 799
f 769 770 801 800
f 770 771 802 801
f 771 772 803 802
f 772 773 804 803
f 773 774 805 804
f 774 775 806 805
f 776 777 808 807
f 777 778 809 808
f 778 779 810 809
f 779 780 811 810
f 780 781 812 811
f 781 782 813 812
f 782 783 814 813
f 783 784 815 814
f 784 785 816 815
f 785 786 817 816
f 786 787 818 817
f 787 788 819 818
f 788 789 820 819
f 789 790 821 820
f 790 791 822 821
f 791 792 823 822
f 792 793 824 823
f 793 794 825 824
f 794 795 826 825
f 795 796 827 826
f 796 797 828 827
f 797 798 829 828
f 798 799 830 829
f 799 800 831 830
f 800 801 832 831
f 801 802 833 832
f 802 803 834 833
f 803 804 835 834
f 804 805 836 835
f 805 806 837 836
f 807 808 839 838
f 808 809 840 839
f 809 810 841 840
f 810 811 842 841
f 811 812 843 842
f 812 813 844 843
f 813 814 845 844
f 814 815 846 845
f 815 816 847 846
f 816 817 848 847
f 817 818 849 848
f 818 819 850 849
f 819 820 851 850
f 820 821 852 851
f 821 822 853 852
f 822 823 854 853
f 823 824 855 854
f 824 825 856 855
f 825 826 857 856
f 826 827 858 857
f 827 828 859 858
f 828 829 860 859
f 829 830 861 860
f 830 831 862 861
f 831 832 863 862
f 832 833 864 863
f 833 834 865 864
f 834 835 866 865
f 835 836 867 866
f 836 837 868 867
f 838 839 870 869
f 839 840 871 870
f 840 841 872 871
f 841 842 873 872
f 842 843 874 873
f 843 844 875 874
f 844 845 876 875
f 845 846 877 876
f 846 847 878 877
f 847 848 879 878
f 848 849 880 879
f 849 850 881 880
f 850 851 882 881
f 851 852 883 882
f 852 853 884 883
f 853 854 885 884
f 854 855 886 885
f 855 856 887 886
f 856 857 888 887
f 857 858 889 888
f 858 859 890 889
f 859 860 891 890
f 860 861 892 891
f 861 862 893 892
f 862 863 894 893
f 863 864 895 894
f 864 865 896 895
f 865 866 897 896
f 866 867 898 897
f 867 868 899 898
f 869 870 901 900
f 870 871 902 901
f 871 872 903 902
f 872 873 904 903
f 873 874 905 904
f 874 875 906 905
f 875 876 907 906
f 876 877 908 907
f 877 878 909 908
f 878 879 910 909
f 879 880 911 910
f 880 881 912 911
f 881 882 913 912
f 882 883 914 913
f 883 884 915 914
f 884 885 916 915
f 885 886 917 916
f 886 887 918 917
f 887 888 919 918
f 888 889 920 919
f 889 890 921 920
f 890 891 922 921
f 891 892 923 922
f 892 893 924 923
f 893 894 925 924
f 894 895 926 925
f 895 896 927 926
f 896 897 928 927
f 897 898 929 928
f 898 899 930 929
f 900 901 932 931
f 901 902 933 932
f 902 903 934 933
f 903 904 935 934
f 904 905 936 935
f 905 906 937 936
f 906 907 938 937
f 907 908 939 938
f 908 909 940 939
f 909 910 941 940
f 910 911 942 941
f 911 912 943 942
f 912 913 944 943
f 913 914 945 944
f 914 915 946 945
f 915 916 947 946
f 916 917 948 947
f 917 918 949 948
f 918 919 950 949
f 919 920 951 950
f 920 921 952 951
f 921 922 953 952
f 922 923 954 953
f 923 924 955 954
f 924 925 956 955
f 925 926 957 956
f 926 927 958 957
f 927 928 959 958
f 928 929 960 959
f 929 930 961 960
f 931 932 963 962
f 932 933 964 963
f 933 934 965 964
f 934 935 966 965
f 935 936 967 966
f 936 937 968 967
f 937 938 969 968
f 938 939 970 969
f 939 940 971 970
f 940 941 972 971
f 941 942 973 972
f 942 943 974 973
f 943 944 975 974
f 944 945 976 975
f 945 946 977 976
f 946 947 978 977
f 947 948 979 978
f 948 949 980 979
f 949 950 981 980
f 950 951 982 981
f 951 952 983 982
f 952 953 984 983
f 953 954 985 984
f 954 955 986 985
f 955 956 987 986
f 956 957 988 987
f 957 958 989 988
f 958 959 990 989
f 959 960 991 990
f 960 961 992 991
f 962 963 994 993
f 963 964 995 994
f 964 965 996 995
f 965 966 997 996
f 966 967 998 997
f 967 968 999 998
f 968 969 1000 999
f 969 970 1001 1000
f 970 971 1002 1001
f 971 972 1003 1002
f 972 973 1004 1003
f 973 974 1005 1004
f 974 975 1006 1005
f 975 976 1007 1006
f 976 977 1008 1007
f 977 978 1009 1008
f 978 979 1010 1009
f 979 980 1011 1010
f 980 981 1012 1011
f 981 982 1013 1012
f 982 983 1014 1013
f 983 984 1015 1014
f 984 985 1016 1015
f 985 986 1017 1016
f 986 987 1018 1017
f 987 988 1019 1018
f 988 989 1020 1019
f 989 990 1021 1020
f 990 991 1022 1021
f 991 992 1023 1022
f 993 994 1025 1024
f 994 995 1026 1025
f 995 996 1027 1026
f 996 997 1028 1027
f 997 998 1029 1028
f 998 999 1030 1029
f 999 1000 1031 1030
f 1000 1001 1032 1031
f 1001 1002 1033 1032
f 1002 1003 1034 1033
f 1003 1004 1035 1034
f 1004 1005 1036 1035
f 1005 1006 1037 1036
f 1006 1007 1038 1037
f 1007 1008 1039 1038
f 1008 1009 1040 1039
f 1009 1010 1041 1040
f 1010 1011 1042 1041
f 1011 1012 1043 1042
f 1012 1013 1044 1043
f 1013 1014 1045 1044
f 1014 1015 1046 1045
f 1015 1016 1047 1046
f 1016 1017 1048 1047
f 1017 1018 1049 1048
f 1018 1019 1050 1049
f 1019 1020 1051 1050
f 1020 1021 1052 1051
f 1021 1022 1053 1052
f 1022 1023 1054 1053
f 1024 1025 1056 1055
f 1025 1026 1057 1056
f 1026 1027 1058 1057
f 1027 1028 1059 1058
f 1028 1029 1060 1059
f 1029 1030 1061 1060
f 1030 1031 1062 1061
f 1031 1032 1063 1062
f 1032 1033 1064 1063
f 1033 1034 1065 1064
f 1034 1035 1066 1065
f 1035 1036 1067 1066
f 1036 1037 1068 1067
f 1037 1038 1069 1068
f 1038 1039 1070 1069
f 1039 1040 1071 1070
f 1040 1041 1072 1071
f 1041 1042 1073 1072
f 1042 1043 1074 1073
f 1043 1044 1075 1074
f 1044 1045 1076 1075
f 1045 1046 1077 1076
f 1046 1047 1078 1077
f 1047 1048 1079 1078
f 1048 1049 1080 1079
f 1049 1050 1081 1080
f 1050 1051 1082 1081
f 1051 1052 1083 1082
f 1052 1053 1084 1083
f 1053 1054 1085 1084
f 1055 1056 1087 1086
f 1056 1057 1088 1087
f 1057 1058 1089 1088
f 1058 1059 1090 1089
f 1059 1060 1091 1090
f 1060 1061 1092 1091
f 1061 1062 1093 1092
f 1062 1063 1094 1093
f 1063 1064 1095 1094
f 1064 1065 1096 1095
f 1065 1066 1097 1096
f 1066 1067 1098 1097
f 1067 1068 1099 1098
f 1068 1069 1100 1099
f 1069 1070 1101 1100
f 1070 1071 1102 1101
f 1071 1072 1103 1102
f 1072 1073 1104 1103
f 1073 1074 1105 1104
f 1074 1075 1106 1105
f 1075 1076 1107 1106
f 1076 1077 1108 1107
f 1077 1078 1109 1108
f 1078 1079 1110 1109
f 1079 1080 1111 1110
f 1080 1081 1112 1111
f 1081 1082 1113 1112
f 1082 1083 1114 1113
f 1083 1084 1115 1114
f 1084 1085 1116 1115
f 1086 1087 1118 1117
f 1087 1088 1119 1118
f 1088 1089 1120 1119
f 1089 1090 1121 1120
f 1090 1091 1122 1121
f 1091 1092 1123 1122
f 1092 1093 1124 1123
f 1093 1094 1125 1124
f 1094 1095 1126 1125
f 1095 1096 1127 1126
f 1096 1097 1128 1127
f 1097 1098 1129 1128
f 1098 1099 1130 1129
f 1099 1100 1131 1130
f 1100 1101 1132 1131
f 1101 1102 1133 1132
f 1102 1103 1134 1133
f 1103 1104 1135 1134
f 1104 1105 1136 1135
f 1105 1106 1137 1136
f 1106 1107 1138 1137
f 1107 1108 1139 1138
f 1108 1109 1140 1139
f 1109 1110 1141 1140
f 1110 1111 1142 1141
f 1111 1112 1143 1142
f 1112 1113 1144 1143
f 1113 1114 1145 1144
f 1114 1115 1146 1145
f 1115 1116 1147 1146
f 1117 1118 1149 1148
f 1118 1119 1150 1149
f 1119 1120 1151 1150
f 1120 1121 1152 1151
f 1121 1122 1153 1152
f 1122 1123 1154 1153
f 1123 1124 1155 1154
f 1124 1125 1156 1155
f 1125 1126 1157 1156
f 1126 1127 1158 1157
f 1127 1128 1159 1158
f 1128 1129 1160 1159
f 1129 1130 1161 1160
f 1130 1131 1162 1161
f 1131 1132 1163 1162
f 1132 1133 1164 1163
f 1133 1134 1165 1164
f 1134 1135 1166 1165
f 1135 1136 1167 1166
f 1136 1137 1168 1167
f 1137 1138 1169 1168
f 1138 1139 1170 1169
f 1139 1140 1171 1170
f 1140 1141 1172 1171
f 1141 1142 1173 1172
f 1142 1143 1174 1173
f 1143 1144 1175 1174
f 1144 1145 1176 1175
f 1145 1146 1177 1176
f 1146 1147 1178 1177
f 1148 1149 1180 1179
f 1149 1150 1181 1180
f 1150 1151 1182 1181
f 1151 1152 1183 1182
f 1152 1153 1184 1183
f 1153 1154 1185 1184
f 1154 1155 1186 1185
f 1155 1156 1187 1186
f 1156 1157 1188 1187
f 1157 1158 1189 1188
f 1158 1159 1190 1189
f 1159 1160 1191 1190
f 1160 1161 1192 1191
f 1161 1162 1193 1192
f 1162 1163 1194 1193
f 1163 1164 1195 1194
f 1164 1165 1196 1195
f 1165 1166 1197 1196
f 1166 1167 1198 1197
f 1167 1168 1199 1198
f 1168 1169 1200 1199
f 1169 1170 1201 1200
f 1170 1171 1202 1201
f 1171 1172 1203 1202
f 1172 1173 1204 1203
f 1173 1174 1205 1204
f 1174 1175 1206 1205
f 1175 1176 1207 1206
f 1176 1177 1208 1207
f 1177 1178 1209 1208
f 1179 1180 1211 1210
f 1180 1181 1212 1211
f 1181 1182 1213 1212
f 1182 1183 1214 1213
f 1183 1184 1215 1214
f 1184 1185 1216 1215
f 1185 1186 1217 1216
f 1186 1187 1218 1217
f 1187 1188 1219 1218
f 1188 1189 1220 1219
f 1189 1190 1221 1220
f 1190 1191 1222 1221
f 1191 1192 1223 1222
f 1192 1193 1224 1223
f 1193 1194 1225 1224
f 1194 1195 1226 1225
f 1195 1196 1227 1226
f 1196 1197 1228 1227
f 1197 1198 1229 1228
f 1198 1199 1230 1229
f 1199 1200 1231 1230
f 1200 1201 1232 1231
f 1201 1202 1233 1232
f 1202 1203 1234 1233
f 1203 1204 1235 1234
f 1204 1205 1236 1235
f 1205 1206 1237 1236
f 1206 1207 1238 1237
f 1207 1208 1239 1238
f 1208 1209 1240 1239
f 1210 1211 1242 1241
f 1211 1212 1243 1242
f 1212 1213 1244 1243
f 1213 1214 1245 1244
f 1214 1215 1246 1245
f 1215 1216 1247 1246
f 1216 1217 1248 1247
f 1217 1218 1249 1248
f 1218 1219 1250 1249
f 1219 1220 1251 1250
f 1220 1221 1252 1251
f 1221 1222 1253 1252
f 1222 1223 1254 1253
f 1223 1224 1255 1254
f 1224 1225 1256 1255
f 1225 1226 1257 1256
f 1226 1227 1258 1257
f 1227 1228 1259 1258
f 1228 1229 1260 1259
f 1229 1230 1261 1260
f 1230 1231 1262 1261
f 1231 1232 1263 1262
f 1232 1233 1264 1263
f 1233 1234 1265 1264
f 1234 1235 1266 1265
f 1235 1236 1267 1266
f 1236 1237 1268 1267
f 1237 1238 1269 1268
f 1238 1239 1270 1269
f 1239 1240 1271 1270
f 1241 1242 1273 1272
f 1242 1243 1274 1273
f 1243 1244 1275 1274
f 1244 1245 1276 1275
f 1245 1246 1277 1276
f 1246 1247 1278 1277
f 1247 1248 1279 1278
f 1248 1249 1280 1279
f 1249 1250 1281 1280
f 1250 1251 1282 1281
f 1251 1252 1283 1282
f 1252 1253 1284 1283
f 1253 1254 1285 1284
f 1254 1255 1286 1285
f 1255 1256 1287 1286
f 1256 1257 1288 1287
f 1257 1258 1289 1288
f 1258 1259 1290 1289
f 1259 1260 1291 1290
f 1260 1261 1292 1291
f 1261 1262 1293 1292
f 1262 1263 1294 1293
f 1263 1264 1295 1294
f 1264 1265 1296 1295
f 1265 1266 1297 1296
f 1266 1267 1298 1297
f 1267 1268 1299 1298
f 1268 1269 1300 1299
f 1269 1270 1301 1300
f 1270 1271 1302 1301
f 1272 1273 1304 1303
f 1273 1274 1305 1304
f 1274 1275 1306 1305
f 1275 1276 1307 1306
f 1276 1277 1308 1307
f 1277 1278 1309 1308
f 1278 1279 1310 1309
f 1279 1280 1311 1310
f 1280 1281 1312 1311
f 1281 1282 1313 1312
f 1282 1283 1314 1313
f 1283 1284 1315 1314
f 1284 1285 1316 1315
f 1285 1286 1317 1316
f 1286 1287 1318 1317
f 1287 1288 1319 1318
f 1288 1289 1320 1319
f 1289 1290 1321 1320
f 1290 1291 1322 1321
f 1291 1292 1323 1322
f 1292 1293 1324 1323
f 1293 1294 1325 1324
f 1294 1295 1326 1325
f 1295 1296 1327 1326
f 1296 1297 1328 1327
f 1297 1298 1329 1328
f 1298 1299 1330 1329
f 1299 1300 1331 1330
f 1300 1301 1332 1331
f 1301 1302 1333 1332
f 1303 1304 1335 1334
f 1304 1305 1336 1335
f 1305 1306 1337 1336
f 1306 1307 1338 1337
f 1307 1308 1339 1338
f 1308 1309 1340 1339
f 1309 1310 1341 1340
f 1310 1311 1342 1341
f 1311 1312 1343 1342
f 1312 1313 1344 1343
f 1313 1314 1345 1344
f 1314 1315 1346 1345
f 1315 1316 1347 1346
f 1316 1317 1348 1347
f 1317 1318 1349 1348
f 1318 1319 1350 1349
f 1319 1320 1351 1350
f 1320 1321 1352 1351
f 1321 1322 1353 1352
f 1322 1323 1354 1353
f 1323 1324 1355 1354
f 1324 1325 1356 1355
f 1325 1326 1357 1356
f 1326 1327 1358 1357
f 1327 1328 1359 1358
f 1328 1329 1360 1359
f 1329 1330 1361 1360
f 1330 1331 1362 1361
f 1331 1332 1363 1362
f 1332 1333 1364 1363
f 1334 1335 1366 1365
f 1335 1336 1367 1366
f 1336 1337 1368 1367
f 1337 1338 1369 1368
f 1338 1339 1370 1369
f 1339 1340 1371 1370
f 1340 1341 1372 1371
f 1341 1342 1373 1372
f 1342 1343 1374 1373
f 1343 1344 1375 1374
f 1344 1345 1376 1375
f 1345 1346 1377 1376
f 1346 1347 1378 1377
f 1347 1348 1379 1378
f 1348 1349 1380 1379
f 1349 1350 1381 1380
f 1350 1351 1382 1381
f 1351 1352 1383 1382
f 1352 1353 1384 1383
f 1353 1354 1385 1384
f 1354 1355 1386 1385
f 1355 1356 1387 1386
f 1356 1357 1388 1387
f 1357 1358 1389 1388
f 1358 1359 1390 1389
f 1359 1360 1391 1390
f 1360 1361 1392 1391
f 1361 1362 1393 1392
f 1362 1363 1394 1393
f 1363 1364 1395 1394
f 1365 1366 1397 1396
f 1366 1367 1398 1397
f 1367 1368 1399 1398
f 1368 1369 1400 1399
f 1369 1370 1401 1400
f 1370 1371 1402 1401
f 1371 1372 1403 1402
f 1372 1373 1404 1403
f 1373 1374 1405 1404
f 1374 1375 1406 1405
f 1375 1376 1407 1406
f 1376 1377 1408 1407
f 1377 1378 1409 1408
f 1378 1379 1410 1409
f 1379 1380 1411 1410
f 1380 1381 1412 1411
f 1381 1382 1413 1412
f 1382 1383 1414 1413
f 1383 1384 1415 1414
f 1384 1385 1416 1415
f 1385 1386 1417 1416
f 1386 1387 1418 1417
f 1387 1388 1419 1418
f 1388 1389 1420 1419
f 1389 1390 1421 1420
f 1390 1391 1422 1421
f 1391 1392 1423 1422
f 1392 1393 1424 1423
f 1393 1394 1425 1424
f 1394 1395 1426 1425
f 1396 1397 1428 1427
f 1397 1398 1429 1428
f 1398 1399 1430 1429
f 1399 1400 1431 1430
f 1400 1401 1432 1431
f 1401 1402 1433 1432
f 1402 1403 1434 1433
f 1403 1404 1435 1434
f 1404 1405 1436 1435
f 1405 1406 1437 1436
f 1406 1407 1438 1437
f 1407 1408 1439 1438
f 1408 1409 1440 1439
f 1409 1410 1441 1440
f 1410 1411 1442 1441
f 1411 1412 1443 1442
f 1412 1413 1444 1443
f 1413 1414 1445 1444
f 1414 1415 1446 1445
f 1415 1416 1447 1446
f 1416 1417 1448 1447
f 1417 1418 1449 1448
f 1418 1419 1450 1449
f 1419 1420 1451 1450
f 1420 1421 1452 1451
f 1421 1422 1453 1452
f 1422 1423 1454 1453
f 1423 1424 1455 1454
f 1424 1425 1456 1455
f 1425 1426 1457 1456
f 1427 1428 1459 1458
f 1428 1429 1460 1459
f 1429 1430 1461 1460
f 1430 1431 1462 1461
f 1431 1432 1463 1462
f 1432 1433 1464 1463
f 1433 1434 1465 1464
f 1434 1435 1466 1465
f 1435 1436 1467 1466
f 1436 1437 1468 1467
f 1437 1438 1469 1468
f 1438 1439 1470 1469
f 1439 1440 1471 1470
f 1440 1441 1472 1471
f 1441 1442 1473 1472
f 1442 1443 1474 1473
f 1443 1444 1475 1474
f 1444 1445 1476 1475
f 1445 1446 1477 1476
f 1446 1447 1478 1477
f 1447 1448 1479 1478
f 1448 1449 1480 1479
f 1449 1450 1481 1480
f 1450 1451 1482 1481
f 1451 1452 1483 1482
f 1452 1453 1484 1483
f 1453 1454 1485 1484
f 1454 1455 1486 1485
f 1455 1456 1487 1486
f 1456 1457 1488 1487
f 1458 1459 1490 1489
f 1459 1460 1491 1490
f 1460 1461 1492 1491
f 1461 1462 1493 1492
f 1462 1463 1494 1493
f 1463 1464 1495 1494
f 1464 1465 1496 1495
f 1465 1466 1497 1496
f 1466 1467 1498 1497
f 1467 1468 1499 1498
f 1468 1469 1500 1499
f 1469 1470 1501 1500
f 1470 1471 1502 1501
f 1471 1472 1503 1502
f 1472 1473 1504 1503
f 1473 1474 1505 1504
f 1474 1475 1506 1505
f 1475 1476 1507 1506
f 1476 1477 1508 1507
f 1477 1478 1509 1508
f 1478 1479 1510 1509
f 1479 1480 1511 1510
f 1480 1481 1512 1511
f 1481 1482 1513 1512
f 1482 1483 1514 1513
f 1483 1484 1515 1514
f 1484 1485 1516 1515
f 1485 1486 1517 1516
f 1486 1487 1518 1517
f 1487 1488 1519 1518
f 1489 1490 1521 1520
f 1490 1491 1522 1521
f 1491 1492 1523 1522
f 1492 1493 1524 1523
f 1493 1494 1525 1524
f 1494 1495 1526 1525
f 1495 1496 1527 1526
f 1496 1497 1528 1527
f 1497 1498 1529 1528
f 1498 1499 1530 1529
f 1499 1500 1531 1530
f 1500 1501 1532 1531
f 1501 1502 1533 1532
f 1502 1503 1534 1533
f 1503 1504 1535 1534
f 1504 1505 1536 1535
f 1505 1506 1537 1536
f 1506 1507 1538 1537
f 1507 1508 1539 1538
f 1508 1509 1540 1539
f 1509 1510 1541 1540
f 1510 1511 1542 1541
f 1511 1512 1543 1542
f 1512 1513 1544 1543
f 1513 1514 1545 1544
f 1514 1515 1546 1545
f 1515 1516 1547 1546
f 1516 1517 1548 1547
f 1517 1518 1549 1548
f 1518 1519 1550 1549
f 1520 1521 1552 1551
f 1521 1522 1553 1552
f 1522 1523 1554 1553
f 1523 1524 1555 1554
f 1524 1525 1556 1555
f 1525 1526 1557 1556
f 1526 1527 1558 1557
f 1527 1528 1559 1558
f 1528 1529 1560 1559
f 1529 1530 1561 1560
f 1530 1531 1562 1561
f 1531 1532 1563 1562
f 1532 1533 1564 1563
f 1533 1534 1565 1564
f 1534 1535 1566 1565
f 1535 1536 1567 1566
f 1536 1537 1568 1567
f 1537 1538 1569 1568
f 1538 1539 1570 1569
f 1539 1540 1571 1570
f 1540 1541 1572 1571
f 1541 1542 1573 1572
f 1542 1543 1574 1573
f 1543 1544 1575 1574
f 1544 1545 1576 1575
f 1545 1546 1577 1576
f 1546 1547 1578 1577
f 1547 1548 1579 1578
f 1548 1549 1580 1579
f 1549 1550 1581 1580
f 1551 1552 1583 1582
f 1552 1553 1584 1583
f 1553 1554 1585 1584
f 1554 1555 1586 1585
f 1555 1556 1587 1586
f 1556 1557 1588 1587
f 1557 1558 1589 1588
f 1558 1559 1590 1589
f 1559 1560 1591 1590
f 1560 1561 1592 1591
f 1561 1562 1593 1592
f 1562 1563 1594 1593
f 1563 1564 1595 1594
f 1564 1565 1596 1595
f 1565 1566 1597 1596
f 1566 1567 1598 1597
f 1567 1568 1599 1598
f 1568 1569 1600 1599
f 1569 1570 1601 1600
f 1570 1571 1602 1601
f 1571 1572 1603 1602
f 1572 1573 1604 1603
f 1573 1574 1605 1604
f 1574 1575 1606 1605
f 1575 1576 1607 1606
f 1576 1577 1608 1607
f 1577 1578 1609 1608
f 1578 1579 1610 1609
f 1579 1580 1611 1610
f 1580 1581 1612 1611
f 1582 1583 1614 1613
f 1583 1584 1615 1614
f 1584 1585 1616 1615
f 1585 1586 1617 1616
f 1586 1587 1618 1617
f 1587 1588 1619 1618
f 1588 1589 1620 1619
f 1589 1590 1621 1620
f 1590 1591 1622 1621
f 1591 1592 1623 1622
f 1592 1593 1624 1623
f 1593 1594 1625 1624
f 1594 1595 1626 1625
f 1595 1596 1627 1626
f 1596 1597 1628 1627
f 1597 1598 1629 1628
f 1598 1599 1630 1629
f 1599 1600 1631 1630
f 1600 1601 1632 1631
f 1601 1602 1633 1632
f 1602 1603 1634 1633
f 1603 1604 1635 1634
f 1604 1605 1636 1635
f 1605 1606 1637 1636
f 1606 1607 1638 1637
f 1607 1608 1639 1638
f 1608 1609 1640 1639
f 1609 1610 1641 1640
f 1610 1611 1642 1641
f 1611 1612 1643 1642
f 1613 1614 1645 1644
f 1614 1615 1646 1645
f 1615 1616 1647 1646
f 1616 1617 1648 1647
f 1617 1618 1649 1648
f 1618 1619 1650 1649
f 1619 1620 1651 1650
f 1620 1621 1652 1651
f 1621 1622 1653 1652
f 1622 1623 1654 1653
f 1623 1624 1655 1654
f 1624 1625 1656 1655
f 1625 1626 1657 1656
f 1626 1627 1658 1657
f 1627 1628 1659 1658
f 1628 1629 1660 1659
f 1629 1630 1661 1660
f 1630 1631 1662 1661
f 1631 1632 1663 1662
f 1632 1633 1664 1663
f 1633 1634 1665 1664
f 1634 1635 1666 1665
f 1635 1636 1667 1666
f 1636 1637 1668 1667
f 1637 1638 1669 1668
f 1638 1639 1670 1669
f 1639 1640 1671 1670
f 1640 1641 1672 1671
f 1641 1642 1673 1672
f 1642 1643 1674 1673
f 1644 1645 1676 1675
f 1645 1646 1677 1676
f 1646 1647 1678 1677
f 1647 1648 1679 1678
f 1648 1649 1680 1679
f 1649 1650 1681 1680
f 1650 1651 1682 1681
f 1651 1652 1683 1682
f 1652 1653 1684 1683
f 1653 1654 1685 1684
f 1654 1655 1686 1685
f 1655 1656 1687 1686
f 1656 1657 1688 1687
f 1657 1658 1689 1688
f 1658 1659 1690 1689
f 1659 1660 1691 1690
f 1660 1661 1692 1691
f 1661 1662 1693 1692
f 1662 1663 1694 1693
f 1663 1664 1695 1694
f 1664 1665 1696 1695
f 1665 1666 1697 1696
f 1666 1667 1698 1697
f 1667 1668 1699 1698
f 1668 1669 1700 1699
f 1669 1670 1701 1700
f 1670 1671 1702 1701
f 1671 1672 1703 1702
f 1672 1673 1704 1703
f 1673 1674 1705 1704
f 1675 1676 1707 1706
f 1676 1677 1708 1707
f 1677 1678 1709 1708
f 1678 1679 1710 1709
f 1679 1680 1711 1710
f 1680 1681 1712 1711
f 1681 1682 1713 1712
f 1682 1683 1714 1713
f 1683 1684 1715 1714
f 1684 1685 1716 1715
f 1685 1686 1717 1716
f 1686 1687 1718 1717
f 1687 1688 1719 1718
f 1688 1689 1720 1719
f 1689 1690 1721 1720
f 1690 1691 1722 1721
f 1691 1692 1723 1722
f 1692 1693 1724 1723
f 1693 1694 1725 1724
f 1694 1695 1726 1725
f 1695 1696 1727 1726
f 1696 1697 1728 1727
f 1697 1698 1729 1728
f 1698 1699 1730 1729
f 1699 1700 1731 1730
f 1700 1701 1732 1731
f 1701 1702 1733 1732
f 1702 1703 1734 1733
f 1703 1704 1735 1734
f 1704 1705 1736 1735
f 1706 1707 1738 1737
f 1707 1708 1739 1738
f 1708 1709 1740 1739
f 1709 1710 1741 1740
f 1710 1711 1742 1741
f 1711 1712 1743 1742
f 1712 1713 1744 1743
f 1713 1714 1745 1744
f 1714 1715 1746 1745
f 1715 1716 1747 1746
f 1716 1717 1748 1747
f 1717 1718 1749 1748
f 1718 1719 1750 1749
f 1719 1720 1751 1750
f 1720 1721 1752 1751
f 1721 1722 1753 1752
f 1722 1723 1754 1753
f 1723 1724 1755 1754
f 1724 1725 1756 1755
f 1725 1726 1757 1756
f 1726 1727 1758 1757
f 1727 1728 1759 1758
f 1728 1729 1760 1759
f 1729 1730 1761 1760
f 1730 1731 1762 1761
f 1731 1732 1763 1762
f 1732 1733 1764 1763
f 1733 1734 1765 1764
f 1734 1735 1766 1765
f 1735 1736 1767 1766
f 1737 1738 1769 1768
f 1738 1739 1770 1769
f 1739 1740 1771 1770
f 1740 1741 1772 1771
f 1741 1742 1773 1772
f 1742 1743 1774 1773
f 1743 1744 1775 1774
f 1744 1745 1776 1775
f 1745 1746 1777 1776
f 1746 1747 1778 1777
f 1747 1748 1779 1778
f 1748 1749 1780 1779
f 1749 1750 1781 1780
f 1750 1751 1782 1781
f 1751 1752 1783 1782
f 1752 1753 1784 1783
f 1753 1754 1785 1784
f 1754 1755 1786 1785
f 1755 1756 1787 1786
f 1756 1757 1788 1787
f 1757 1758 1789 1788
f 1758 1759 1790 1789
f 1759 1760 1791 1790
f 1760 1761 1792 1791
f 1761 1762 1793 1792
f 1762 1763 1794 1793
f 1763 1764 1795 1794
f 1764 1765 1796 1795
f 1765 1766 1797 1796
f 1766 1767 1798 1797
f 1768 1769 1800 1799
f 1769 1770 1801 1800
f 1770 1771 1802 1801
f 1771 1772 1803 1802
f 1772 1773 1804 1803
f 1773 1774 1805 1804
f 1774 1775 1806 1805
f 1775 1776 1807 1806
f 1776 1777 1808 1807
f 1777 1778 1809 1808
f 1778 1779 1810 1809
f 1779 1780 1811 1810
f 1780 1781 1812 1811
f 1781 1782 1813 1812
f 1782 1783 1814 1813
f 1783 1784 1815 1814
f 1784 1785 1816 1815
f 1785 1786 1817 1816
f 1786 1787 1818 1817
f 1787 1788 1819 1818
f 1788 1789 1820 1819
f 1789 1790 1821 1820
f 1790 1791 1822 1821
f 1791 1792 1823 1822
f 1792 1793 1824 1823
f 1793 1794 1825 1824
f 1794 1795 1826 1825
f 1795 1796 1827 1826
f 1796 1797 1828 1827
f 1797 1798 1829 1828
f 1799 1800 1831 1830
f 1800 1801 1832 1831
f 1801 1802 1833 1832
f 1802 1803 1834 1833
f 1803 1804 1835 1834
f 1804 1805 1836 1835
f 1805 1806 1837 1836
f 1806 1807 1838 1837
f 1807 1808 1839 1838
f 1808 1809 1840 1839
f 1809 1810 1841 1840
f 1810 1811 1842 1841
f 1811 1812 1843 1842
f 1812 1813 1844 1843
f 1813 1814 1845 1844
f 1814 1815 1846 1845
f 1815 1816 1847 1846
f 1816 1817 1848 1847
f 1817 1818 1849 1848
f 1818 1819 1850 1849
f 1819 1820 1851 1850
f 1820 1821 1852 1851
f 1821 1822 1853 1852
f 1822 1823 1854 1853
f 1823 1824 1855 1854
f 1824 1825 1856 1855
f 1825 1826 1857 1856
f 1826 1827 1858 1857
f 1827 1828 1859 1858
f 1828 1829 1860 1859
f 1830 1831 1862 1861
f 1831 1832 1863 1862
f 1832 1833 1864 1863
f 1833 1834 1865 1864
f 1834 1835 1866 1865
f 1835 1836 1867 1866
f 1836 1837 1868 1867
f 1837 1838 1869 1868
f 1838 1839 1870 1869
f 1839 1840 1871 1870
f 1840 1841 1872 1871
f 1841 1842 1873 1872
f 1842 1843 1874 1873
f 1843 1844 1875 1874
f 1844 1845 1876 1875
f 1845 1846 1877 1876
f 1846 1847 1878 1877
f 1847 1848 1879 1878
f 1848 1849 1880 1879
f 1849 1850 1881 1880
f 1850 1851 1882 1881
f 1851 1852 1883 1882
f 1852 1853 1884 1883
f 1853 1854 1885 1884
f 1854 1855 1886 1885
f 1855 1856 1887 1886
f 1856 1857 1888 1887
f 1857 1858 1889 1888
f 1858 1859 1890 1889
f 1859 1860 1891 1890
