# Block C surface fracture traces from photos, bench frame metres, on the DEM
o surface_cracks_C
v 5.8210 2.3664 -0.0610
v 5.8358 2.3423 -0.0645
v 5.8506 2.3182 -0.0680
v 5.8654 2.2941 -0.0714
v 5.8006 2.0217 -0.0635
v 5.8849 2.2895 -0.0754
v 5.8294 2.0560 -0.0699
v 5.8247 2.0365 -0.0692
v 5.8997 2.2654 -0.0823
v 5.8534 2.0708 -0.0754
v 5.9146 2.2413 -0.0886
v 5.8822 2.1051 -0.0818
v 5.8775 2.0857 -0.0806
v 5.9294 2.2172 -0.0944
v 5.9062 2.1199 -0.0881
v 5.9442 2.1931 -0.0997
v 5.9350 2.1542 -0.0968
v 5.9303 2.1348 -0.0950
v 5.9590 2.1690 -0.1045
v 5.9785 2.1644 -0.1091
v 5.9933 2.1403 -0.1120
v 6.0082 2.1162 -0.1154
v 6.0230 2.0922 -0.1191
v 6.0378 2.0681 -0.1232
v 6.0526 2.0440 -0.1229
v 6.0675 2.0199 -0.1223
v 6.0869 2.0153 -0.1231
v 6.1018 1.9912 -0.1227
v 6.1166 1.9671 -0.1222
v 6.2898 2.0904 -0.1263
v 6.2852 2.0709 -0.1251
v 6.3185 2.1246 -0.1280
v 6.3139 2.1052 -0.1268
v 6.3472 2.1589 -0.1296
v 6.3426 2.1395 -0.1284
v 6.3713 2.1738 -0.1300
v 6.3954 2.1886 -0.1300
v 6.4195 2.2034 -0.1301
v 6.4390 2.1988 -0.1291
v 6.4630 2.2136 -0.1291
v 6.4825 2.2090 -0.1281
v 6.5020 2.2043 -0.1277
v 8.2578 1.3754 -0.0816
v 8.2958 1.4486 -0.0853
v 8.2911 1.4292 -0.0843
v 8.2865 1.4097 -0.0833
v 8.2819 1.3903 -0.0825
v 8.3060 1.4051 -0.0835
v 8.3254 1.4005 -0.0838
v 8.3449 1.3958 -0.0840
v 8.3597 1.3718 -0.0837
v 8.3791 1.3671 -0.0843
v 2.8534 2.6818 -0.0513
v 2.8728 2.6772 -0.0511
v 2.8923 2.6725 -0.0509
v 2.9118 2.6679 -0.0507
v 2.9266 2.6438 -0.0507
v 2.9460 2.6392 -0.0505
v 2.9655 2.6346 -0.0503
v 2.9850 2.6299 -0.0501
v 3.0090 2.6448 -0.0495
v 3.0285 2.6401 -0.0493
v 3.0480 2.6355 -0.0490
v 3.0674 2.6309 -0.0488
v 3.0869 2.6262 -0.0485
v 3.1063 2.6216 -0.0483
v 3.1212 2.5975 -0.0482
v 3.1406 2.5929 -0.0480
v 3.1601 2.5883 -0.0477
v 3.1795 2.5836 -0.0475
v 3.2036 2.5985 -0.0468
v 3.2323 2.6328 -0.0459
v 3.2277 2.6133 -0.0461
v 3.2231 2.5938 -0.0464
v 3.2425 2.5892 -0.0461
v 3.2620 2.5846 -0.0457
v 3.2814 2.5800 -0.0453
v 2.5421 2.7559 -0.0568
v 2.5569 2.7318 -0.0565
v 2.5764 2.7271 -0.0561
v 2.5958 2.7225 -0.0557
v 2.6153 2.7179 -0.0553
v 2.6347 2.7133 -0.0549
v 2.6542 2.7086 -0.0546
v 2.6736 2.7040 -0.0542
v 2.6931 2.6994 -0.0538
v 2.7126 2.6947 -0.0535
v 2.7320 2.6901 -0.0533
v 7.6343 1.1743 -0.0643
v 7.6537 1.1697 -0.0642
v 7.6732 1.1650 -0.0642
v 7.7065 1.2188 -0.0667
v 7.7019 1.1993 -0.0660
v 7.6973 1.1799 -0.0652
v 7.6927 1.1604 -0.0644
v 7.7353 1.2531 -0.0685
v 7.7306 1.2336 -0.0674
v 7.7075 1.1363 -0.0639
v 7.6797 1.0196 -0.0630
v 7.7593 1.2679 -0.0695
v 7.7223 1.1122 -0.0639
v 7.7038 1.0344 -0.0632
v 7.7881 1.3022 -0.0717
v 7.7834 1.2827 -0.0706
v 7.7371 1.0881 -0.0640
v 7.7325 1.0687 -0.0638
v 7.7279 1.0492 -0.0636
v 7.8122 1.3170 -0.0728
v 7.8362 1.3318 -0.0740
v 7.8603 1.3467 -0.0751
v 7.8844 1.3615 -0.0761
v 2.8210 2.5456 -0.0533
v 2.8164 2.5261 -0.0536
v 2.8117 2.5067 -0.0539
v 2.8071 2.4872 -0.0542
v 2.8025 2.4678 -0.0545
v 2.7978 2.4483 -0.0548
v 2.7932 2.4289 -0.0551
v 2.8080 2.4048 -0.0552
v 2.8229 2.3807 -0.0552
v 2.8182 2.3612 -0.0553
v 2.8331 2.3371 -0.0553
v 2.8479 2.3131 -0.0553
v 2.8627 2.2890 -0.0553
v 2.8775 2.2649 -0.0553
v 2.8924 2.2408 -0.0551
v 2.9118 2.2362 -0.0546
v 2.9313 2.2315 -0.0541
v 2.9507 2.2269 -0.0535
v 2.9702 2.2223 -0.0530
v 2.9850 2.1982 -0.0525
v 3.0045 2.1936 -0.0522
v 3.0239 2.1889 -0.0519
v 3.0434 2.1843 -0.0516
v 3.0629 2.1797 -0.0513
v 3.0823 2.1750 -0.0510
v 3.1064 2.1899 -0.0510
v 3.1351 2.2242 -0.0508
v 3.1305 2.2047 -0.0509
v 3.1212 2.1658 -0.0510
v 5.7933 1.8179 -0.0719
v 5.7886 1.7984 -0.0720
v 5.7840 1.7790 -0.0719
v 5.7562 1.6622 -0.0702
v 5.7988 1.7549 -0.0793
v 5.7942 1.7354 -0.0792
v 5.7896 1.7160 -0.0791
v 5.7849 1.6965 -0.0789
v 5.7803 1.6771 -0.0782
v 5.8090 1.7113 -0.0864
v 5.8285 1.7067 -0.0938
v 5.8479 1.7021 -0.1012
v 5.8674 1.6975 -0.1017
v 5.8869 1.6928 -0.1022
v 5.9063 1.6882 -0.1027
v 5.9258 1.6836 -0.1032
v 5.9452 1.6789 -0.1037
v 5.9647 1.6743 -0.1036
v 6.0119 1.7864 -0.1089
v 6.0073 1.7670 -0.1080
v 6.0027 1.7475 -0.1071
v 5.9980 1.7281 -0.1062
v 5.9934 1.7086 -0.1053
v 5.9888 1.6891 -0.1044
v 5.9841 1.6697 -0.1034
v 5.9795 1.6502 -0.1025
v 5.9749 1.6308 -0.1019
v 5.9703 1.6113 -0.1012
v 5.9656 1.5919 -0.1006
v 5.9610 1.5724 -0.0999
v 5.9564 1.5529 -0.0993
v 4.7065 1.8297 -0.0647
v 4.7019 1.8103 -0.0655
v 4.6509 1.5963 -0.0683
v 4.7352 1.8640 -0.0630
v 4.7306 1.8446 -0.0638
v 4.7167 1.7862 -0.0664
v 4.6750 1.6111 -0.0684
v 4.6287 1.4165 -0.0675
v 4.6241 1.3971 -0.0676
v 4.6195 1.3776 -0.0676
v 4.7593 1.8789 -0.0622
v 4.7315 1.7621 -0.0672
v 4.7269 1.7427 -0.0681
v 4.7176 1.7037 -0.0683
v 4.7130 1.6843 -0.0684
v 4.7084 1.6648 -0.0685
v 4.7037 1.6454 -0.0686
v 4.6991 1.6259 -0.0685
v 4.6945 1.6065 -0.0684
v 4.6899 1.5870 -0.0683
v 4.6575 1.4508 -0.0674
v 4.6528 1.4313 -0.0675
v 4.6343 1.3535 -0.0681
v 4.6297 1.3341 -0.0681
v 4.6251 1.3146 -0.0682
v 4.6204 1.2952 -0.0682
v 4.6158 1.2757 -0.0683
v 4.6112 1.2562 -0.0683
v 4.7834 1.8937 -0.0606
v 4.7417 1.7186 -0.0672
v 4.7047 1.5629 -0.0672
v 4.6908 1.5045 -0.0669
v 4.6862 1.4851 -0.0668
v 4.6815 1.4656 -0.0667
v 4.6260 1.2322 -0.0682
v 4.8075 1.9085 -0.0592
v 4.7195 1.5388 -0.0662
v 4.7149 1.5194 -0.0661
v 4.6408 1.2081 -0.0681
v 4.8316 1.9233 -0.0579
v 4.6603 1.2034 -0.0681
v 4.8510 1.9187 -0.0572
v 4.6797 1.1988 -0.0681
v 4.8705 1.9141 -0.0566
v 4.6992 1.1942 -0.0681
v 7.1933 1.1353 -0.0667
v 7.2405 1.2474 -0.0664
v 7.2127 1.1307 -0.0663
v 7.2554 1.2233 -0.0658
v 7.2415 1.1650 -0.0657
v 7.2368 1.1455 -0.0656
v 7.2748 1.2187 -0.0654
v 7.2655 1.1798 -0.0654
v 7.2896 1.1946 -0.0651
v 7.3091 1.1900 -0.0647
v 7.3285 1.1854 -0.0644
v 7.3573 1.2196 -0.0646
v 7.3526 1.2002 -0.0643
v 7.3480 1.1807 -0.0641
v 7.3952 1.2928 -0.0691
v 7.3906 1.2734 -0.0679
v 7.3860 1.2539 -0.0668
v 7.3813 1.2345 -0.0656
v 7.3675 1.1761 -0.0638
v 7.4193 1.3077 -0.0702
v 7.3869 1.1715 -0.0635
v 7.4388 1.3030 -0.0701
v 7.4064 1.1668 -0.0632
v 7.4258 1.1622 -0.0629
v 7.4453 1.1576 -0.0626
v 7.4647 1.1530 -0.0623
v 7.4888 1.1678 -0.0628
v 7.5129 1.1826 -0.0634
v 6.6865 1.3381 -0.0720
v 6.7013 1.3140 -0.0719
v 6.7208 1.3094 -0.0719
v 6.7680 1.4215 -0.0743
v 6.7634 1.4021 -0.0735
v 6.7402 1.3048 -0.0719
v 6.7782 1.3780 -0.0726
v 6.7736 1.3585 -0.0719
v 6.7689 1.3391 -0.0719
v 6.7643 1.3196 -0.0718
v 6.7550 1.2807 -0.0718
v 6.7745 1.2761 -0.0718
v 6.7940 1.2714 -0.0715
v 6.8134 1.2668 -0.0713
v 6.8282 1.2427 -0.0710
v 8.0837 0.9029 -0.0589
v 8.1031 0.8983 -0.0587
v 8.1550 1.0298 -0.0645
v 8.1272 0.9131 -0.0594
v 8.1698 1.0058 -0.0636
v 8.1467 0.9085 -0.0595
v 8.1847 0.9817 -0.0627
v 8.1800 0.9622 -0.0619
v 8.1754 0.9428 -0.0611
v 8.1708 0.9233 -0.0603
v 8.1661 0.9038 -0.0595
v 8.1856 0.8992 -0.0595
v 8.2050 0.8946 -0.0596
v 8.2199 0.8705 -0.0589
v 8.2393 0.8659 -0.0589
v 8.2588 0.8612 -0.0590
v 8.2829 0.8761 -0.0597
v 4.1969 1.8482 -0.0646
v 4.2118 1.8241 -0.0648
v 4.2312 1.8195 -0.0647
v 4.2507 1.8148 -0.0645
v 4.2701 1.8102 -0.0643
v 4.2896 1.8056 -0.0641
v 4.3090 1.8010 -0.0639
v 4.3285 1.7963 -0.0637
v 4.3480 1.7917 -0.0637
v 4.3674 1.7871 -0.0637
v 4.3915 1.8019 -0.0635
v 4.4110 1.7973 -0.0635
v 4.4304 1.7926 -0.0635
v 4.4499 1.7880 -0.0635
v 4.4693 1.7834 -0.0635
v 4.4934 1.7982 -0.0635
v 4.5129 1.7936 -0.0635
v 4.5323 1.7890 -0.0635
v 4.5518 1.7843 -0.0644
v 5.6090 1.3889 -0.0434
v 5.6043 1.3694 -0.0432
v 5.6192 1.3453 -0.0486
v 5.6340 1.3213 -0.0541
v 5.6294 1.3018 -0.0553
v 5.6247 1.2823 -0.0565
v 5.6155 1.2434 -0.0590
v 5.5599 1.0100 -0.0607
v 5.6396 1.2583 -0.0639
v 5.5840 1.0248 -0.0674
v 5.6590 1.2536 -0.0671
v 5.6035 1.0202 -0.0676
v 5.6738 1.2295 -0.0709
v 5.6229 1.0155 -0.0678
v 5.6933 1.2249 -0.0737
v 5.6424 1.0109 -0.0681
v 5.7128 1.2203 -0.0765
v 5.6618 1.0063 -0.0683
v 5.7322 1.2157 -0.0793
v 5.6859 1.0211 -0.0699
v 5.7517 1.2110 -0.0795
v 5.7054 1.0165 -0.0704
v 5.7711 1.2064 -0.0797
v 5.7295 1.0313 -0.0721
v 5.7952 1.2212 -0.0809
v 5.7906 1.2018 -0.0799
v 5.7860 1.1823 -0.0788
v 5.7813 1.1629 -0.0782
v 5.7674 1.1045 -0.0765
v 5.7628 1.0850 -0.0759
v 5.7582 1.0656 -0.0748
v 5.7536 1.0461 -0.0736
v 5.8286 1.2750 -0.0850
v 5.8239 1.2555 -0.0838
v 5.8193 1.2361 -0.0825
v 5.7962 1.1388 -0.0777
v 5.7915 1.1193 -0.0771
v 5.8526 1.2898 -0.0864
v 6.4661 0.6710 -0.0416
v 6.4809 0.6469 -0.0391
v 6.4763 0.6275 -0.0357
v 6.4717 0.6080 -0.0322
v 6.4670 0.5886 -0.0297
v 6.4624 0.5691 -0.0272
v 6.6207 1.1482 -0.0725
v 6.6161 1.1287 -0.0729
v 6.6115 1.1093 -0.0732
v 6.6068 1.0898 -0.0735
v 6.6022 1.0704 -0.0736
v 6.5976 1.0509 -0.0736
v 6.5004 0.6423 -0.0398
v 6.6124 1.0268 -0.0750
v 6.5198 0.6377 -0.0405
v 6.6272 1.0027 -0.0766
v 6.5439 0.6525 -0.0468
v 6.6421 0.9786 -0.0781
v 6.5634 0.6479 -0.0489
v 6.6615 0.9740 -0.0795
v 6.5828 0.6432 -0.0510
v 6.6810 0.9694 -0.0809
v 6.6023 0.6386 -0.0531
v 6.6958 0.9453 -0.0828
v 6.6217 0.6340 -0.0552
v 6.7153 0.9407 -0.0847
v 6.6412 0.6294 -0.0559
v 6.7301 0.9166 -0.0869
v 6.6606 0.6247 -0.0567
v 6.7495 0.9119 -0.0887
v 6.6940 0.6785 -0.0793
v 6.6894 0.6590 -0.0782
v 6.6847 0.6395 -0.0678
v 6.7690 0.9073 -0.0905
v 6.7366 0.7711 -0.0858
v 6.7320 0.7517 -0.0844
v 6.7273 0.7322 -0.0834
v 6.7227 0.7127 -0.0825
v 6.7181 0.6933 -0.0815
v 6.7885 0.9027 -0.0923
v 6.7607 0.7859 -0.0884
v 6.8125 0.9175 -0.0920
v 6.8079 0.8981 -0.0923
v 6.8033 0.8786 -0.0925
v 6.7987 0.8591 -0.0928
v 6.7848 0.8008 -0.0904
v 6.8459 0.9713 -0.0895
v 6.8413 0.9518 -0.0906
v 6.8366 0.9323 -0.0917
v 6.8135 0.8351 -0.0931
v 6.8089 0.8156 -0.0919
v 6.8042 0.7961 -0.0908
v 6.8746 1.0055 -0.0879
v 6.8700 0.9861 -0.0888
v 6.8607 0.9472 -0.0907
v 6.8237 0.7915 -0.0912
v 6.8987 1.0204 -0.0877
v 6.8802 0.9425 -0.0909
v 6.8431 0.7869 -0.0916
v 6.8996 0.9379 -0.0910
v 6.8626 0.7823 -0.0921
v 6.9191 0.9333 -0.0908
v 6.8821 0.7776 -0.0914
v 6.9385 0.9287 -0.0906
v 6.9015 0.7730 -0.0908
v 6.9580 0.9240 -0.0904
v 6.9210 0.7684 -0.0902
v 6.9775 0.9194 -0.0902
v 6.9404 0.7637 -0.0895
v 6.9923 0.8953 -0.0912
v 6.9599 0.7591 -0.0889
v 7.0117 0.8907 -0.0899
v 6.9793 0.7545 -0.0881
v 7.0312 0.8861 -0.0887
v 6.9988 0.7499 -0.0872
v 7.0460 0.8620 -0.0875
v 7.0183 0.7452 -0.0864
v 7.0609 0.8379 -0.0863
v 7.0562 0.8184 -0.0864
v 7.0516 0.7990 -0.0864
v 7.0470 0.7795 -0.0865
v 7.0423 0.7601 -0.0860
v 7.0377 0.7406 -0.0856
v 7.0525 0.7165 -0.0845
v 7.0674 0.6924 -0.0830
v 7.0868 0.6878 -0.0818
v 7.1063 0.6832 -0.0806
v 7.1257 0.6785 -0.0794
v 7.1452 0.6739 -0.0782
v 7.1646 0.6693 -0.0764
v 7.1841 0.6646 -0.0747
v 7.2036 0.6600 -0.0730
v 7.2230 0.6554 -0.0713
v 7.2795 0.8064 -0.0728
v 7.2749 0.7870 -0.0728
v 7.2425 0.6508 -0.0696
v 7.2897 0.7629 -0.0720
v 7.2619 0.6461 -0.0684
v 7.3045 0.7388 -0.0712
v 7.2860 0.6610 -0.0682
v 7.3194 0.7147 -0.0704
v 7.3147 0.6952 -0.0693
v 7.3101 0.6758 -0.0682
v 7.3055 0.6563 -0.0670
v 7.3434 0.7295 -0.0696
v 7.3203 0.6322 -0.0647
v 7.3861 0.8222 -0.0677
v 7.3814 0.8027 -0.0688
v 7.3768 0.7833 -0.0688
v 7.3722 0.7638 -0.0688
v 7.3675 0.7444 -0.0688
v 7.4101 0.8370 -0.0660
v 7.8187 0.7398 -0.0557
v 7.7586 0.4869 -0.0356
v 7.8382 0.7352 -0.0541
v 7.7826 0.5017 -0.0355
v 7.8623 0.7500 -0.0538
v 7.8576 0.7305 -0.0524
v 7.8067 0.5165 -0.0359
v 7.8956 0.8037 -0.0566
v 7.8910 0.7843 -0.0554
v 7.8864 0.7648 -0.0538
v 7.8725 0.7065 -0.0492
v 7.8678 0.6870 -0.0476
v 7.8354 0.5508 -0.0363
v 7.8308 0.5313 -0.0357
v 7.9197 0.8186 -0.0565
v 7.8827 0.6629 -0.0450
v 7.8780 0.6435 -0.0432
v 7.8734 0.6240 -0.0414
v 7.8595 0.5656 -0.0370
v 7.8882 0.5999 -0.0394
v 7.8836 0.5805 -0.0377
v 4.3749 1.5592 -0.0644
v 4.3897 1.5351 -0.0644
v 4.4045 1.5110 -0.0645
v 4.3999 1.4915 -0.0645
v 4.3953 1.4721 -0.0645
v 4.3906 1.4526 -0.0645
v 4.3860 1.4332 -0.0645
v 4.4008 1.4091 -0.0645
v 4.3962 1.3896 -0.0643
v 4.4110 1.3655 -0.0641
v 4.4064 1.3461 -0.0640
v 4.4018 1.3266 -0.0638
v 4.3971 1.3072 -0.0636
v 4.4120 1.2831 -0.0632
v 4.4314 1.2784 -0.0636
v 2.9573 1.6497 -0.0552
v 2.9527 1.6303 -0.0553
v 3.0231 1.8397 -0.0546
v 3.0184 1.8202 -0.0547
v 3.0138 1.8007 -0.0547
v 3.0092 1.7813 -0.0548
v 3.0046 1.7618 -0.0549
v 2.9999 1.7424 -0.0549
v 2.9953 1.7229 -0.0550
v 2.9907 1.7035 -0.0551
v 2.9860 1.6840 -0.0552
v 2.9814 1.6645 -0.0553
v 3.0472 1.8545 -0.0546
v 3.0666 1.8499 -0.0547
v 8.2524 0.5750 -0.0518
v 8.2672 0.5509 -0.0528
v 8.2820 0.5268 -0.0541
v 8.2774 0.5073 -0.0547
v 8.2450 0.3711 -0.0561
v 8.2922 0.4832 -0.0562
v 8.2644 0.3665 -0.0570
v 8.3070 0.4592 -0.0574
v 8.3024 0.4397 -0.0577
v 8.2931 0.4008 -0.0581
v 8.2885 0.3813 -0.0583
v 8.3172 0.4156 -0.0589
v 8.3413 0.4304 -0.0591
v 8.3654 0.4453 -0.0594
v 8.3941 0.4796 -0.0592
v 8.3895 0.4601 -0.0598
v 7.9726 0.4359 -0.0347
v 8.0198 0.5481 -0.0415
v 8.0152 0.5286 -0.0403
v 8.0106 0.5091 -0.0390
v 8.0059 0.4897 -0.0378
v 8.0013 0.4702 -0.0365
v 7.9967 0.4508 -0.0353
v 8.0208 0.4656 -0.0370
v 8.0356 0.4415 -0.0379
v 8.0550 0.4369 -0.0402
v 8.0699 0.4128 -0.0425
v 7.3427 -0.0515 -0.0071
v 7.3621 -0.0561 -0.0085
v 7.3816 -0.0608 -0.0099
v 7.3964 -0.0848 -0.0096
v 7.4112 -0.1089 -0.0096
v 7.4261 -0.1330 -0.0099
v 7.4122 -0.1914 -0.0064
v 7.4075 -0.2108 -0.0052
v 7.5751 0.4072 -0.0345
v 7.4409 -0.1571 -0.0101
v 7.4363 -0.1766 -0.0087
v 7.5900 0.3831 -0.0347
v 7.4650 -0.1423 -0.0129
v 7.6048 0.3590 -0.0338
v 7.4844 -0.1469 -0.0129
v 7.6196 0.3349 -0.0329
v 7.5039 -0.1515 -0.0129
v 7.6391 0.3303 -0.0324
v 7.5280 -0.1367 -0.0141
v 7.6585 0.3256 -0.0320
v 7.6169 0.1505 -0.0276
v 7.5474 -0.1413 -0.0142
v 7.6780 0.3210 -0.0316
v 7.6409 0.1654 -0.0296
v 7.5669 -0.1460 -0.0144
v 7.7021 0.3358 -0.0320
v 7.6604 0.1607 -0.0296
v 7.5910 -0.1311 -0.0157
v 7.7215 0.3312 -0.0318
v 7.6799 0.1561 -0.0297
v 7.6151 -0.1163 -0.0170
v 7.7363 0.3071 -0.0314
v 7.6993 0.1515 -0.0298
v 7.6623 -0.0042 -0.0248
v 7.6577 -0.0236 -0.0237
v 7.6530 -0.0431 -0.0225
v 7.6484 -0.0626 -0.0213
v 7.6438 -0.0820 -0.0201
v 7.6391 -0.1015 -0.0185
v 7.7512 0.2830 -0.0313
v 7.7188 0.1468 -0.0299
v 7.7141 0.1274 -0.0294
v 7.7095 0.1079 -0.0290
v 7.7049 0.0885 -0.0285
v 7.7003 0.0690 -0.0281
v 7.6956 0.0496 -0.0276
v 7.6910 0.0301 -0.0272
v 7.6864 0.0106 -0.0267
v 7.7660 0.2589 -0.0313
v 7.7614 0.2395 -0.0313
v 7.7567 0.2200 -0.0313
v 7.7521 0.2006 -0.0313
v 7.7475 0.1811 -0.0309
v 7.7429 0.1617 -0.0304
v 5.4822 0.5967 -0.0393
v 5.4970 0.5726 -0.0385
v 5.5165 0.5680 -0.0399
v 5.5405 0.5828 -0.0430
v 5.6248 0.8506 -0.0603
v 5.5600 0.5782 -0.0443
v 5.6443 0.8460 -0.0617
v 5.5933 0.6320 -0.0493
v 5.5887 0.6125 -0.0484
v 5.5841 0.5930 -0.0470
v 5.5748 0.5541 -0.0441
v 5.6637 0.8414 -0.0617
v 5.6221 0.6662 -0.0510
v 5.6174 0.6468 -0.0500
v 5.6785 0.8173 -0.0600
v 5.6739 0.7978 -0.0582
v 5.6693 0.7784 -0.0571
v 5.6647 0.7589 -0.0561
v 5.6600 0.7394 -0.0550
v 5.6554 0.7200 -0.0540
v 5.6508 0.7005 -0.0529
v 5.6461 0.6811 -0.0519
v 5.7026 0.8321 -0.0617
v 7.9309 0.2608 -0.0329
v 7.9457 0.2367 -0.0334
v 7.9606 0.2127 -0.0340
v 7.9559 0.1932 -0.0340
v 7.9708 0.1691 -0.0365
v 7.9856 0.1450 -0.0390
v 8.0004 0.1209 -0.0394
v 8.0199 0.1163 -0.0417
v 8.0393 0.1117 -0.0439
v 8.0588 0.1071 -0.0443
v 8.0783 0.1024 -0.0447
v 8.0931 0.0783 -0.0431
v 8.1125 0.0737 -0.0437
v 8.1320 0.0691 -0.0443
v 8.1515 0.0645 -0.0434
v 8.1709 0.0598 -0.0426
v 8.1857 0.0357 -0.0392
v 8.2006 0.0117 -0.0351
v 8.1959 -0.0078 -0.0322
v 8.2108 -0.0319 -0.0289
v 8.2061 -0.0513 -0.0274
v 4.5084 0.9106 -0.0539
v 4.5232 0.8866 -0.0530
v 4.5186 0.8671 -0.0521
v 4.5140 0.8476 -0.0515
v 4.5093 0.8282 -0.0509
v 4.5047 0.8087 -0.0503
v 4.5195 0.7846 -0.0501
v 4.5344 0.7606 -0.0497
v 4.5538 0.7559 -0.0500
v 4.5733 0.7513 -0.0503
v 4.5927 0.7467 -0.0506
v 4.6122 0.7420 -0.0516
v 4.6316 0.7374 -0.0525
v 4.6650 0.7912 -0.0552
v 4.6604 0.7717 -0.0546
v 4.6557 0.7522 -0.0540
v 4.6511 0.7328 -0.0535
v 4.7030 0.8644 -0.0575
v 4.6983 0.8449 -0.0568
v 4.6937 0.8254 -0.0561
v 4.6891 0.8060 -0.0558
v 4.6659 0.7087 -0.0543
v 4.6807 0.6846 -0.0554
v 2.9732 1.1114 -0.0563
v 2.9926 1.1068 -0.0561
v 3.0121 1.1022 -0.0559
v 3.0315 1.0975 -0.0558
v 3.0510 1.0929 -0.0559
v 3.0705 1.0883 -0.0560
v 3.0899 1.0837 -0.0562
v 3.1094 1.0790 -0.0563
v 3.1288 1.0744 -0.0564
v 3.1483 1.0698 -0.0567
v 3.1677 1.0651 -0.0569
v 3.1872 1.0605 -0.0572
v 3.2067 1.0559 -0.0575
v 3.2261 1.0513 -0.0577
v 3.2456 1.0466 -0.0579
v 3.2650 1.0420 -0.0582
v 3.2845 1.0374 -0.0584
v 3.3039 1.0327 -0.0586
v 3.3280 1.0476 -0.0592
v 6.8321 0.0494 0.0070
v 6.8516 0.0448 0.0067
v 6.8711 0.0401 0.0064
v 6.8905 0.0355 0.0061
v 6.9100 0.0309 0.0055
v 6.9294 0.0263 0.0049
v 6.9489 0.0216 0.0043
v 6.9683 0.0170 0.0037
v 6.9878 0.0124 0.0031
v 7.0073 0.0077 0.0028
v 7.0267 0.0031 0.0025
v 7.0462 -0.0015 0.0021
v 7.0656 -0.0061 0.0018
v 7.0851 -0.0108 0.0015
v 7.1045 -0.0154 0.0012
v 7.1240 -0.0200 0.0010
v 7.1435 -0.0247 0.0007
v 7.1629 -0.0293 0.0005
v 7.1824 -0.0339 0.0002
v 7.1777 -0.0534 0.0007
v 7.1731 -0.0728 0.0012
v 7.1685 -0.0923 0.0014
v 7.1639 -0.1117 0.0016
v 7.2018 -0.0385 -0.0003
v 7.2213 -0.0432 -0.0009
v 4.9180 0.2992 -0.0397
v 4.9134 0.2798 -0.0397
v 4.9087 0.2603 -0.0397
v 4.9041 0.2409 -0.0395
v 4.8995 0.2214 -0.0393
v 4.8948 0.2019 -0.0391
v 4.8902 0.1825 -0.0388
v 4.9421 0.3141 -0.0375
v 4.9050 0.1584 -0.0364
v 4.9662 0.3289 -0.0353
v 4.9615 0.3094 -0.0353
v 4.9245 0.1538 -0.0343
v 4.9903 0.3437 -0.0331
v 4.9764 0.2853 -0.0331
v 4.9440 0.1491 -0.0321
v 5.0143 0.3585 -0.0308
v 4.9912 0.2613 -0.0309
v 4.9588 0.1251 -0.0290
v 5.0338 0.3539 -0.0289
v 5.0106 0.2566 -0.0290
v 5.0532 0.3493 -0.0271
v 5.0255 0.2325 -0.0271
v 5.0727 0.3447 -0.0252
v 5.0922 0.3400 -0.0234
v 5.1116 0.3354 -0.0215
v 5.1357 0.3502 -0.0203
v 5.1552 0.3456 -0.0191
v 5.1792 0.3604 -0.0180
v 5.2033 0.3753 -0.0171
v 4.5789 0.2566 -0.0354
v 4.5743 0.2371 -0.0345
v 4.6493 0.4660 -0.0516
v 4.6447 0.4465 -0.0506
v 4.6400 0.4270 -0.0496
v 4.6354 0.4076 -0.0479
v 4.6123 0.3103 -0.0402
v 4.6076 0.2908 -0.0392
v 4.6030 0.2714 -0.0382
v 4.6734 0.4808 -0.0527
v 4.6502 0.3835 -0.0473
v 4.6456 0.3640 -0.0459
v 4.6410 0.3446 -0.0446
v 4.6363 0.3251 -0.0432
v 4.6317 0.3057 -0.0421
v 4.6465 0.2816 -0.0429
v 4.6614 0.2575 -0.0435
v 4.6808 0.2529 -0.0452
v 7.7690 -0.8519 0.0329
v 7.8069 -0.7787 0.0294
v 7.8023 -0.7982 0.0306
v 7.7977 -0.8176 0.0318
v 7.7931 -0.8371 0.0330
v 7.8310 -0.7639 0.0290
v 7.8783 -0.6518 0.0247
v 7.8736 -0.6712 0.0256
v 7.8690 -0.6907 0.0264
v 7.8644 -0.7101 0.0273
v 7.8597 -0.7296 0.0281
v 7.8551 -0.7490 0.0290
v 7.8505 -0.7685 0.0302
v 7.9116 -0.5980 0.0235
v 7.9070 -0.6175 0.0242
v 7.9023 -0.6369 0.0248
v 7.8699 -0.7731 0.0315
v 7.9357 -0.5832 0.0235
v 7.8894 -0.7778 0.0327
v 7.9644 -0.5489 0.0218
v 7.9598 -0.5684 0.0234
v 7.9089 -0.7824 0.0340
v 7.9931 -0.5146 0.0191
v 7.9885 -0.5341 0.0208
v 7.9237 -0.8065 0.0364
v 8.0218 -0.4803 0.0163
v 8.0172 -0.4998 0.0180
v 7.9431 -0.8111 0.0374
v 8.0552 -0.4266 0.0124
v 8.0506 -0.4461 0.0138
v 8.0459 -0.4655 0.0153
v 7.9580 -0.8352 0.0391
v 8.0793 -0.4118 0.0116
v 7.9774 -0.8398 0.0398
v 5.8686 -0.1120 0.0106
v 5.8927 -0.0971 0.0094
v 5.9122 -0.1018 0.0094
v 5.9409 -0.0675 0.0078
v 5.9363 -0.0869 0.0080
v 5.9696 -0.0332 0.0077
v 5.9650 -0.0527 0.0080
v 5.9844 -0.0573 0.0083
v 6.0039 -0.0619 0.0086
v 6.0233 -0.0665 0.0089
v 6.0428 -0.0712 0.0092
v 6.0576 -0.0953 0.0105
v 6.0771 -0.0999 0.0113
v 5.7408 -0.3899 0.0243
v 5.7881 -0.2778 0.0197
v 5.7834 -0.2973 0.0203
v 5.7603 -0.3946 0.0254
v 5.8168 -0.2435 0.0186
v 5.8121 -0.2630 0.0197
v 5.7983 -0.3214 0.0221
v 5.7936 -0.3408 0.0229
v 5.7890 -0.3603 0.0237
v 5.7844 -0.3797 0.0252
v 5.7797 -0.3992 0.0267
v 5.8409 -0.2287 0.0178
v 5.7992 -0.4038 0.0280
v 5.8187 -0.4084 0.0293
v 5.8427 -0.3936 0.0297
v 5.8622 -0.3982 0.0311
v 5.8863 -0.3834 0.0309
v 5.9104 -0.3686 0.0298
v 5.9391 -0.3343 0.0271
v 5.9345 -0.3538 0.0288
v 6.6424 -0.7483 0.0374
v 6.6711 -0.7140 0.0352
v 6.6664 -0.7335 0.0359
v 6.6572 -0.7724 0.0373
v 6.6952 -0.6992 0.0335
v 6.6720 -0.7965 0.0369
v 6.7192 -0.6844 0.0317
v 6.6915 -0.8011 0.0358
v 6.7433 -0.6696 0.0298
v 6.7063 -0.8252 0.0337
v 6.7674 -0.6547 0.0282
v 6.7257 -0.8298 0.0314
v 6.7869 -0.6594 0.0274
v 6.7406 -0.8539 0.0292
v 6.7359 -0.8734 0.0292
v 6.7313 -0.8928 0.0293
v 6.7267 -0.9123 0.0296
v 6.8063 -0.6640 0.0266
v 6.7415 -0.9364 0.0277
v 6.8350 -0.6297 0.0256
v 6.8304 -0.6492 0.0257
v 6.7610 -0.9410 0.0256
v 6.8591 -0.6149 0.0255
v 6.7758 -0.9651 0.0256
v 6.8832 -0.6000 0.0254
v 6.7953 -0.9697 0.0250
v 6.9073 -0.5852 0.0253
v 6.8147 -0.9744 0.0245
v 6.9314 -0.5704 0.0252
v 6.8295 -0.9984 0.0245
v 6.9555 -0.5556 0.0252
v 6.8490 -1.0031 0.0240
v 6.8444 -1.0225 0.0245
v 6.8397 -1.0420 0.0250
v 6.8685 -1.0077 0.0240
v 6.8546 -1.0661 0.0256
v 6.8925 -0.9929 0.0235
v 6.8694 -1.0902 0.0262
v 6.9166 -0.9780 0.0230
v 6.8889 -1.0948 0.0262
v 2.4295 0.2951 -0.0734
v 2.4489 0.2905 -0.0730
v 2.4684 0.2858 -0.0726
v 2.4878 0.2812 -0.0722
v 2.5073 0.2766 -0.0719
v 2.5267 0.2720 -0.0715
v 2.5462 0.2673 -0.0711
v 2.5610 0.2432 -0.0708
v 2.5805 0.2386 -0.0705
v 2.5999 0.2340 -0.0701
v 2.6518 0.3656 -0.0682
v 2.6472 0.3461 -0.0685
v 2.6425 0.3266 -0.0687
v 2.6379 0.3072 -0.0690
v 2.6333 0.2877 -0.0692
v 2.6287 0.2683 -0.0694
v 2.6240 0.2488 -0.0696
v 2.6759 0.3804 -0.0674
v 4.3854 -0.2113 -0.0302
v 4.4094 -0.1965 -0.0298
v 4.4335 -0.1817 -0.0294
v 4.4622 -0.1474 -0.0292
v 4.4576 -0.1669 -0.0292
v 4.5048 -0.0548 -0.0299
v 4.5002 -0.0742 -0.0297
v 4.4956 -0.0937 -0.0295
v 4.4910 -0.1131 -0.0294
v 4.4863 -0.1326 -0.0292
v 2.7751 0.1923 -0.0653
v 2.7945 0.1877 -0.0647
v 2.8140 0.1831 -0.0642
v 2.8288 0.1590 -0.0640
v 2.8483 0.1544 -0.0635
v 2.8677 0.1497 -0.0630
v 2.8872 0.1451 -0.0625
v 2.9066 0.1405 -0.0620
v 2.9261 0.1358 -0.0615
v 2.9455 0.1312 -0.0610
v 2.9650 0.1266 -0.0605
v 2.9845 0.1219 -0.0600
v 3.0039 0.1173 -0.0594
v 3.0234 0.1127 -0.0589
v 3.0428 0.1081 -0.0583
v 3.0623 0.1034 -0.0577
v 3.0817 0.0988 -0.0571
v 3.1243 0.1915 -0.0551
v 3.1197 0.1720 -0.0552
v 3.1058 0.1136 -0.0562
v 3.1345 0.1479 -0.0551
v 3.1299 0.1285 -0.0554
v 3.4273 -0.0040 -0.0493
v 3.4468 -0.0086 -0.0488
v 3.4662 -0.0132 -0.0484
v 3.4857 -0.0179 -0.0479
v 3.5005 -0.0420 -0.0478
v 3.5200 -0.0466 -0.0474
v 3.5394 -0.0512 -0.0471
v 3.5589 -0.0558 -0.0468
v 3.5784 -0.0605 -0.0464
v 3.5978 -0.0651 -0.0458
v 5.7372 -0.9236 0.0388
v 5.7567 -0.9282 0.0396
v 5.7808 -0.9134 0.0411
v 5.8048 -0.8986 0.0428
v 5.8289 -0.8837 0.0446
v 5.8484 -0.8884 0.0456
v 5.8725 -0.8735 0.0478
v 5.9151 -0.7809 0.0507
v 5.8966 -0.8587 0.0496
v 5.9299 -0.8050 0.0517
v 5.9253 -0.8244 0.0513
v 5.9206 -0.8439 0.0509
v 5.9401 -0.8485 0.0517
v 5.9596 -0.8531 0.0525
v 5.9790 -0.8578 0.0529
v 6.1198 -0.8707 0.0556
v 6.0550 -1.1431 0.0441
v 6.1393 -0.8753 0.0559
v 6.0791 -1.1283 0.0441
v 6.1588 -0.8800 0.0561
v 6.1541 -0.8994 0.0561
v 6.1495 -0.9189 0.0560
v 6.1449 -0.9383 0.0560
v 6.1402 -0.9578 0.0559
v 6.1356 -0.9773 0.0535
v 6.1310 -0.9967 0.0512
v 6.1263 -1.0162 0.0488
v 6.1217 -1.0356 0.0465
v 6.1171 -1.0551 0.0441
v 6.1032 -1.1135 0.0441
v 6.1828 -0.8651 0.0562
v 6.1319 -1.0792 0.0439
v 6.1273 -1.0986 0.0439
v 6.1227 -1.1181 0.0439
v 6.2023 -0.8698 0.0562
v 6.1421 -1.1227 0.0436
v 6.2218 -0.8744 0.0562
v 6.1616 -1.1273 0.0434
v 6.2412 -0.8790 0.0562
v 6.1810 -1.1320 0.0431
v 6.2607 -0.8837 0.0562
v 6.2005 -1.1366 0.0429
v 6.2801 -0.8883 0.0561
v 6.2199 -1.1412 0.0418
v 6.2996 -0.8929 0.0560
v 6.2394 -1.1459 0.0407
v 6.3190 -0.8975 0.0558
v 6.2589 -1.1505 0.0397
v 6.3385 -0.9022 0.0557
v 6.2737 -1.1746 0.0386
v 6.3579 -0.9068 0.0556
v 6.2885 -1.1987 0.0375
v 6.3774 -0.9114 0.0539
v 6.4015 -0.8966 0.0519
v 6.4209 -0.9012 0.0504
v 6.4404 -0.9059 0.0489
v 6.4599 -0.9105 0.0475
v 5.0581 -0.9265 0.0074
v 5.1146 -0.7755 0.0075
v 5.1100 -0.7949 0.0076
v 5.1053 -0.8144 0.0077
v 5.0776 -0.9311 0.0083
v 5.1202 -0.8385 0.0088
v 5.1155 -0.8579 0.0088
v 5.1016 -0.9163 0.0088
v 5.1304 -0.8820 0.0098
v 5.1257 -0.9015 0.0098
v 5.1498 -0.8866 0.0110
v 5.1693 -0.8913 0.0122
v 5.1887 -0.8959 0.0134
v 5.2128 -0.8811 0.0144
v 5.2323 -0.8857 0.0156
v 5.8067 -1.0635 0.0432
v 5.8262 -1.0681 0.0433
v 5.8456 -1.0727 0.0435
v 5.8651 -1.0774 0.0437
v 5.8845 -1.0820 0.0439
v 5.9133 -1.0477 0.0441
v 5.9086 -1.0672 0.0441
v 5.9040 -1.0866 0.0441
v 5.9373 -1.0329 0.0441
v 5.9188 -1.1107 0.0441
v 6.6526 -1.2236 0.0287
v 6.6480 -1.2431 0.0288
v 6.6767 -1.2088 0.0285
v 6.6628 -1.2672 0.0287
v 6.6582 -1.2866 0.0287
v 6.6962 -1.2134 0.0284
v 6.6730 -1.3107 0.0295
v 6.7156 -1.2180 0.0285
v 6.7351 -1.2227 0.0286
v 6.7545 -1.2273 0.0287
v 6.7740 -1.2319 0.0288
v 6.7888 -1.2560 0.0293
v 6.5007 -1.5164 0.0426
v 6.4961 -1.5359 0.0427
v 6.4915 -1.5553 0.0429
v 6.4868 -1.5748 0.0428
v 6.5248 -1.5016 0.0421
v 6.5489 -1.4867 0.0418
v 6.5730 -1.4719 0.0414
v 6.5971 -1.4571 0.0395
v 6.6212 -1.4423 0.0377
v 6.6406 -1.4469 0.0376
v 2.8919 -0.6989 -0.0622
v 2.8873 -0.7184 -0.0624
v 2.8503 -0.8740 -0.0631
v 2.8457 -0.8935 -0.0631
v 2.9021 -0.7425 -0.0622
v 2.8975 -0.7619 -0.0623
v 2.8929 -0.7814 -0.0625
v 2.8883 -0.8008 -0.0627
v 2.8836 -0.8203 -0.0627
v 2.8790 -0.8398 -0.0627
v 2.8744 -0.8592 -0.0627
v 1.5717 -0.6315 -0.0889
v 1.5912 -0.6361 -0.0887
v 1.6106 -0.6408 -0.0885
v 1.6301 -0.6454 -0.0883
v 1.6495 -0.6500 -0.0880
v 1.6690 -0.6547 -0.0878
v 1.6884 -0.6593 -0.0876
v 1.7079 -0.6639 -0.0873
v 1.7274 -0.6686 -0.0871
v 1.7468 -0.6732 -0.0869
v 1.7663 -0.6778 -0.0866
v 1.7857 -0.6824 -0.0864
v 1.8098 -0.6676 -0.0860
v 1.8293 -0.6722 -0.0856
v 1.8487 -0.6769 -0.0852
v 2.8040 -1.0686 -0.0625
v 2.7994 -1.0881 -0.0624
v 2.7947 -1.1075 -0.0624
v 2.7901 -1.1270 -0.0624
v 2.7855 -1.1464 -0.0624
v 2.7716 -1.2048 -0.0626
v 2.7670 -1.2243 -0.0627
v 2.7623 -1.2437 -0.0629
v 2.7577 -1.2632 -0.0631
v 2.7531 -1.2826 -0.0632
v 2.7484 -1.3021 -0.0633
v 2.7438 -1.3216 -0.0633
v 2.8327 -1.0343 -0.0624
v 2.8281 -1.0538 -0.0622
v 2.8003 -1.1705 -0.0619
v 2.7957 -1.1900 -0.0619
v 2.7586 -1.3456 -0.0630
v 5.3270 -1.9567 0.0378
v 5.3557 -1.9224 0.0391
v 5.3510 -1.9419 0.0388
v 5.3798 -1.9076 0.0402
v 5.3992 -1.9122 0.0411
v 5.4418 -1.8195 0.0452
v 5.4372 -1.8390 0.0447
v 5.4326 -1.8585 0.0442
v 5.4279 -1.8779 0.0437
v 5.4233 -1.8974 0.0432
v 5.4187 -1.9168 0.0427
v 5.4752 -1.7658 0.0480
v 5.4705 -1.7853 0.0474
v 5.4659 -1.8047 0.0469
v 5.4335 -1.9409 0.0440
v 5.4992 -1.7510 0.0495
v 5.4530 -1.9455 0.0456
v 5.5233 -1.7361 0.0509
v 5.4724 -1.9502 0.0472
v 5.5474 -1.7213 0.0524
v 5.5715 -1.7065 0.0533
v 5.2557 -2.5154 0.0307
v 5.2752 -2.5200 0.0305
v 5.2946 -2.5246 0.0303
v 5.3141 -2.5293 0.0302
v 5.3335 -2.5339 0.0300
v 5.3576 -2.5191 0.0296
v 5.3771 -2.5237 0.0286
v 5.4058 -2.4894 0.0285
v 5.4012 -2.5089 0.0281
v 5.4299 -2.4746 0.0285
v 5.4493 -2.4792 0.0281
v 5.4734 -2.4644 0.0286
v 5.4929 -2.4690 0.0292
v 5.5170 -2.4542 0.0312
v 5.5827 -2.2642 0.0462
v 5.5781 -2.2837 0.0453
v 5.5364 -2.4588 0.0319
v 5.5929 -2.3078 0.0445
v 5.5883 -2.3272 0.0437
v 5.5837 -2.3467 0.0428
v 5.5559 -2.4634 0.0327
v 5.5985 -2.3708 0.0420
v 5.5939 -2.3902 0.0403
v 5.5892 -2.4097 0.0386
v 5.5846 -2.4291 0.0369
v 5.5800 -2.4486 0.0352
v 5.6087 -2.4143 0.0381
v 5.6281 -2.4189 0.0376
v 5.6476 -2.4236 0.0371
v 5.6671 -2.4282 0.0365
v 5.6865 -2.4328 0.0360
v 5.7060 -2.4375 0.0357
v 5.7254 -2.4421 0.0354
v 5.6884 -2.5977 0.0290
v 5.6838 -2.6172 0.0286
v 5.7449 -2.4467 0.0352
v 5.7402 -2.4662 0.0347
v 5.7356 -2.4856 0.0343
v 5.7310 -2.5051 0.0339
v 5.7264 -2.5245 0.0331
v 5.7217 -2.5440 0.0324
v 5.7171 -2.5635 0.0316
v 5.7125 -2.5829 0.0309
v 5.7690 -2.4319 0.0352
v 5.8116 -2.3392 0.0380
v 5.8069 -2.3587 0.0372
v 5.8023 -2.3782 0.0365
v 5.7977 -2.3976 0.0357
v 5.7930 -2.4171 0.0349
v 5.7884 -2.4365 0.0347
v 5.8264 -2.3633 0.0372
v 5.8032 -2.4606 0.0349
v 5.8505 -2.3485 0.0379
v 5.8181 -2.4847 0.0351
v 5.8699 -2.3531 0.0378
v 5.8329 -2.5088 0.0354
v 5.8894 -2.3578 0.0377
v 5.8524 -2.5134 0.0358
v 5.9089 -2.3624 0.0376
v 5.9283 -2.3670 0.0378
v 5.9478 -2.3716 0.0379
v 5.9672 -2.3763 0.0381
v 5.9913 -2.3614 0.0383
v 6.0108 -2.3661 0.0384
v 6.0302 -2.3707 0.0384
v 5.6949 -2.7432 0.0294
v 5.7144 -2.7478 0.0303
v 5.7338 -2.7525 0.0309
v 5.7533 -2.7571 0.0314
v 5.7681 -2.7812 0.0324
v 5.7876 -2.7858 0.0329
v 5.8024 -2.8099 0.0336
v 5.8218 -2.8145 0.0344
v 5.8413 -2.8192 0.0351
v 5.8608 -2.8238 0.0359
v 5.8756 -2.8479 0.0367
v 5.8950 -2.8525 0.0374
v 5.3336 -2.9656 0.0452
v 5.3531 -2.9702 0.0453
v 5.3725 -2.9749 0.0452
v 5.3966 -2.9601 0.0448
v 5.4670 -2.7507 0.0280
v 5.4624 -2.7701 0.0304
v 5.4161 -2.9647 0.0447
v 5.4772 -2.7942 0.0314
v 5.4726 -2.8137 0.0337
v 5.4679 -2.8331 0.0361
v 5.4633 -2.8526 0.0384
v 5.4587 -2.8720 0.0396
v 5.4540 -2.8915 0.0408
v 5.4494 -2.9109 0.0419
v 5.4448 -2.9304 0.0431
v 5.4402 -2.9499 0.0443
v 5.4355 -2.9693 0.0446
v 5.4503 -2.9934 0.0448
v 5.4457 -3.0129 0.0450
v 5.4411 -3.0323 0.0453
v 5.4559 -3.0564 0.0450
v 5.4513 -3.0759 0.0451
v 5.4467 -3.0953 0.0451
v 3.1785 -2.4323 -0.0457
v 3.1933 -2.4564 -0.0453
v 3.2128 -2.4610 -0.0446
v 3.2323 -2.4657 -0.0440
v 3.2517 -2.4703 -0.0434
v 3.2712 -2.4749 -0.0428
v 3.2906 -2.4796 -0.0422
v 3.3101 -2.4842 -0.0417
v 3.3295 -2.4888 -0.0411
v 3.3490 -2.4934 -0.0405
v 3.3685 -2.4981 -0.0400
v 3.3879 -2.5027 -0.0394
v 3.4120 -2.4879 -0.0388
v 4.5684 -3.0714 0.0079
v 4.5878 -3.0760 0.0090
v 4.6119 -3.0612 0.0100
v 4.6314 -3.0658 0.0111
v 4.6508 -3.0704 0.0121
v 4.6703 -3.0751 0.0132
v 4.6944 -3.0602 0.0142
v 4.7138 -3.0649 0.0152
v 4.7379 -3.0500 0.0165
v 4.7574 -3.0547 0.0179
v 4.7768 -3.0593 0.0193
v 4.7963 -3.0639 0.0207
v 3.5298 -3.0299 -0.0383
v 3.5446 -3.0539 -0.0379
v 3.5640 -3.0586 -0.0372
v 3.5835 -3.0632 -0.0366
v 3.6030 -3.0678 -0.0360
v 3.6224 -3.0725 -0.0355
v 3.6465 -3.0576 -0.0347
v 3.6660 -3.0623 -0.0342
v 3.6854 -3.0669 -0.0336
v 3.7049 -3.0715 -0.0328
v 3.7243 -3.0761 -0.0320
v 3.7438 -3.0808 -0.0312
v 3.7679 -3.0659 -0.0303
v 3.7873 -3.0706 -0.0295
v 3.8068 -3.0752 -0.0285
v 3.8309 -3.0604 -0.0274
v 3.8503 -3.0650 -0.0264
v 3.8698 -3.0696 -0.0255
v 3.8892 -3.0743 -0.0246
v 3.9087 -3.0789 -0.0241
v 3.9282 -3.0835 -0.0235
v 3.9476 -3.0882 -0.0230
v 3.9671 -3.0928 -0.0225
v 3.9912 -3.0780 -0.0218
v 4.0106 -3.0826 -0.0208
v 4.0301 -3.0872 -0.0198
v 4.0495 -3.0918 -0.0188
v 4.0690 -3.0965 -0.0179
v 4.0931 -3.0816 -0.0168
v 4.1125 -3.0863 -0.0158
v 4.1366 -3.0714 -0.0147
v 4.1561 -3.0761 -0.0136
v 4.1755 -3.0807 -0.0126
v 4.1950 -3.0853 -0.0115
v 4.2144 -3.0900 -0.0106
v 4.2385 -3.0751 -0.0096
v 4.2580 -3.0798 -0.0087
v 4.2774 -3.0844 -0.0077
v 4.2969 -3.0890 -0.0068
v 4.3164 -3.0936 -0.0059
v 4.3404 -3.0788 -0.0051
v 4.3599 -3.0834 -0.0043
v 4.3794 -3.0881 -0.0034
v 4.3988 -3.0927 -0.0026
v 4.4229 -3.0779 -0.0013
v 4.4470 -3.0631 0.0001
v 3.0202 -3.0114 -0.0543
v 3.0396 -3.0160 -0.0538
v 3.0591 -3.0207 -0.0534
v 3.0786 -3.0253 -0.0529
v 3.1026 -3.0105 -0.0519
v 3.1221 -3.0151 -0.0514
v 3.1416 -3.0197 -0.0508
v 3.1610 -3.0244 -0.0503
v 3.1805 -3.0290 -0.0498
v 3.1999 -3.0336 -0.0493
v 3.2194 -3.0382 -0.0488
v 3.2435 -3.0234 -0.0479
v 3.2629 -3.0280 -0.0474
v 3.2824 -3.0327 -0.0469
v 3.3018 -3.0373 -0.0463
v 3.3213 -3.0419 -0.0457
v 3.3408 -3.0466 -0.0452
v 3.3648 -3.0317 -0.0441
v 3.3843 -3.0364 -0.0435
v 3.4038 -3.0410 -0.0428
v 3.4232 -3.0456 -0.0421
v 5.2402 -3.7040 0.0466
v 5.2355 -3.7235 0.0466
v 5.2309 -3.7430 0.0466
v 5.2263 -3.7624 0.0467
v 5.2216 -3.7819 0.0467
v 5.2170 -3.8013 0.0467
v 5.2124 -3.8208 0.0467
v 5.2078 -3.8402 0.0467
v 5.2031 -3.8597 0.0467
v 5.1985 -3.8792 0.0467
v 5.1939 -3.8986 0.0468
v 1.7046 -3.3563 -0.0886
v 1.7000 -3.3757 -0.0885
v 1.6954 -3.3952 -0.0884
v 1.7102 -3.4193 -0.0879
v 1.7056 -3.4387 -0.0876
v 1.7010 -3.4582 -0.0872
v 1.6963 -3.4777 -0.0869
v 1.6917 -3.4971 -0.0865
v 1.6871 -3.5166 -0.0862
v 1.6824 -3.5360 -0.0858
v 1.6778 -3.5555 -0.0855
v 0.5114 -3.7919 -0.0766
v 0.5355 -3.7771 -0.0765
v 0.5688 -3.7234 -0.0763
v 0.5642 -3.7428 -0.0763
v 0.5596 -3.7623 -0.0765
v 0.6022 -3.6696 -0.0766
v 0.5976 -3.6891 -0.0766
v 0.5929 -3.7085 -0.0766
v 0.6263 -3.6548 -0.0770
v 0.7059 -3.4065 -0.0808
v 0.7013 -3.4259 -0.0805
v 0.6966 -3.4454 -0.0802
v 0.6920 -3.4649 -0.0800
v 0.6874 -3.4843 -0.0797
v 0.6828 -3.5038 -0.0794
v 0.6781 -3.5232 -0.0790
v 0.6735 -3.5427 -0.0787
v 0.6504 -3.6400 -0.0776
v 0.6883 -3.5668 -0.0787
v 0.6837 -3.5862 -0.0785
v 0.6791 -3.6057 -0.0783
v 0.6744 -3.6251 -0.0782
v 4.7539 -4.4518 0.0452
v 4.7733 -4.4564 0.0464
v 4.7928 -4.4611 0.0476
v 4.8123 -4.4657 0.0478
v 4.8317 -4.4703 0.0480
v 4.8512 -4.4749 0.0482
v 4.8706 -4.4796 0.0484
v 4.8901 -4.4842 0.0486
v 4.9095 -4.4888 0.0486
v 4.9290 -4.4935 0.0486
v 2.3236 -4.0381 -0.0642
v 2.3385 -4.0622 -0.0634
v 2.3579 -4.0668 -0.0631
v 2.3774 -4.0714 -0.0627
v 2.3968 -4.0760 -0.0624
v 2.4163 -4.0807 -0.0620
v 2.4358 -4.0853 -0.0613
v 2.4598 -4.0705 -0.0608
v 2.4793 -4.0751 -0.0602
v 2.5034 -4.0603 -0.0598
v 2.5228 -4.0649 -0.0591
v 2.5423 -4.0695 -0.0586
v 2.5664 -4.0547 -0.0584
v 1.9447 -3.9890 -0.0722
v 1.9401 -4.0085 -0.0719
v 1.9688 -3.9742 -0.0723
v 1.9549 -4.0326 -0.0712
v 1.9929 -3.9594 -0.0723
v 1.9697 -4.0567 -0.0704
v 2.0123 -3.9640 -0.0720
v 1.9846 -4.0807 -0.0695
v 2.0318 -3.9686 -0.0717
v 2.0086 -4.0659 -0.0695
v 2.0513 -3.9733 -0.0712
v 2.0281 -4.0705 -0.0690
v 2.0707 -3.9779 -0.0707
v 2.0568 -4.0363 -0.0695
v 2.0522 -4.0557 -0.0690
v 2.0902 -3.9825 -0.0702
v 2.0855 -4.0020 -0.0699
v 2.0809 -4.0214 -0.0695
v 2.1096 -3.9871 -0.0697
v 2.1291 -3.9918 -0.0692
v 2.1485 -3.9964 -0.0687
v 2.1634 -4.0205 -0.0678
v 1.3546 -4.1364 -0.0739
v 1.3787 -4.1216 -0.0740
v 1.4213 -4.0290 -0.0753
v 1.4166 -4.0484 -0.0749
v 1.4120 -4.0679 -0.0747
v 1.4074 -4.0873 -0.0745
v 1.4027 -4.1068 -0.0742
v 1.4453 -4.0141 -0.0756
v 1.4694 -3.9993 -0.0759
v 1.4981 -3.9650 -0.0766
v 1.4935 -3.9845 -0.0762
v 0.9061 -3.9475 -0.0766
v 0.9256 -3.9521 -0.0765
v 0.9450 -3.9568 -0.0765
v 0.9645 -3.9614 -0.0764
v 0.9839 -3.9660 -0.0763
v 0.9988 -3.9901 -0.0760
v 1.0182 -3.9947 -0.0759
v 1.0377 -3.9994 -0.0757
v 1.0331 -4.0188 -0.0755
v 1.0618 -3.9845 -0.0758
v 1.0479 -4.0429 -0.0752
v 1.0433 -4.0624 -0.0750
v 1.0386 -4.0818 -0.0750
v 1.0859 -3.9697 -0.0758
v 2.2079 -4.5245 -0.0608
v 2.2227 -4.5486 -0.0607
v 2.2376 -4.5727 -0.0647
v 2.2524 -4.5967 -0.0682
v 2.2478 -4.6162 -0.0725
v 2.2246 -4.7135 -0.0965
v 2.2626 -4.6403 -0.0754
v 2.2441 -4.7181 -0.0962
v 2.2774 -4.6644 -0.0778
v 2.2728 -4.6838 -0.0839
v 2.2682 -4.7033 -0.0899
v 2.2876 -4.7079 -0.0889
v 2.3071 -4.7126 -0.0879
v 2.3265 -4.7172 -0.0868
v 2.3460 -4.7218 -0.0858
v 2.3655 -4.7264 -0.0848
v 2.3895 -4.7116 -0.0763
v 2.4183 -4.6773 -0.0659
v 2.4136 -4.6968 -0.0686
v 0.1955 -4.1691 -0.1235
v 0.2104 -4.1931 -0.1261
v 0.2252 -4.2172 -0.1285
v 0.2206 -4.2367 -0.1306
v 0.2159 -4.2561 -0.1328
v 0.2308 -4.2802 -0.1346
v 0.2456 -4.3043 -0.1357
v 0.2697 -4.2895 -0.1341
v 0.2891 -4.2941 -0.1339
v 0.3086 -4.2988 -0.1336
v 1.0924 -4.5469 -0.1242
v 1.1119 -4.5515 -0.1242
v 1.1360 -4.5367 -0.1226
v 1.1601 -4.5219 -0.1211
v 1.1795 -4.5265 -0.1211
v 1.1990 -4.5311 -0.1216
v 1.2184 -4.5358 -0.1221
v 1.2379 -4.5404 -0.1225
v 1.2527 -4.5645 -0.1246
v 1.2676 -4.5886 -0.1266
v 1.2870 -4.5932 -0.1287
v 1.2824 -4.6127 -0.1304
v 1.2778 -4.6321 -0.1321
v 1.3065 -4.5978 -0.1308
v 1.3306 -4.5830 -0.1308
v 1.3546 -4.5682 -0.1304
v 1.3834 -4.5339 -0.1270
v 1.3787 -4.5534 -0.1297
v 1.4074 -4.5191 -0.1265
v 1.4269 -4.5237 -0.1288
v 1.4464 -4.5283 -0.1310
v 1.4658 -4.5330 -0.1333
v 1.4899 -4.5181 -0.1331
v 1.5140 -4.5033 -0.1327
v 6.6145 -5.9635 0.0155
v 6.6386 -5.9487 0.0148
v 6.6581 -5.9533 0.0125
v 6.6821 -5.9385 0.0124
v 6.7386 -5.7874 0.0247
v 6.7340 -5.8069 0.0242
v 6.7294 -5.8264 0.0237
v 6.7247 -5.8458 0.0215
v 6.7201 -5.8653 0.0193
v 6.7155 -5.8847 0.0171
v 6.7109 -5.9042 0.0149
v 6.7062 -5.9236 0.0127
v 6.7257 -5.9283 0.0086
v 6.7405 -5.9524 0.0019
v 6.7600 -5.9570 -0.0023
v 6.7794 -5.9616 -0.0065
v 6.7989 -5.9662 -0.0108
v 6.8230 -5.9514 -0.0108
v 6.8424 -5.9560 -0.0135
v 0.5634 -4.5238 -0.1445
v 0.5875 -4.5090 -0.1444
v 0.6070 -4.5136 -0.1445
v 0.6264 -4.5183 -0.1446
v 0.6783 -4.3867 -0.1401
v 0.6598 -4.4645 -0.1430
v 0.6551 -4.4840 -0.1437
v 0.6505 -4.5034 -0.1442
v 0.6459 -4.5229 -0.1447
v 0.6931 -4.4108 -0.1408
v 0.6885 -4.4302 -0.1415
v 0.6838 -4.4497 -0.1423
v 0.6607 -4.5470 -0.1454
v 0.7126 -4.4154 -0.1400
v 0.6802 -4.5516 -0.1456
v 0.7320 -4.4200 -0.1391
v 0.7468 -4.4441 -0.1396
v 0.7663 -4.4488 -0.1389
v 0.7904 -4.4339 -0.1365
v 6.2772 -5.7393 0.0356
v 6.2967 -5.7440 0.0352
v 6.2782 -5.8218 0.0367
v 6.2735 -5.8413 0.0371
v 6.2689 -5.8607 0.0374
v 6.3161 -5.7486 0.0348
v 6.3115 -5.7681 0.0352
v 6.3069 -5.7875 0.0356
v 6.3023 -5.8070 0.0360
v 6.2837 -5.8848 0.0374
v 6.3356 -5.7532 0.0344
v 6.3032 -5.8894 0.0371
v 6.3551 -5.7579 0.0341
v 6.3699 -5.7820 0.0340
v 6.3893 -5.7866 0.0336
v 6.4088 -5.7912 0.0332
v 6.4283 -5.7958 0.0328
v 6.4477 -5.8005 0.0322
v 6.4672 -5.8051 0.0316
v 6.4625 -5.8246 0.0316
v 6.4579 -5.8440 0.0316
v 6.4913 -5.7903 0.0311
v 6.4727 -5.8681 0.0308
v 6.4681 -5.8876 0.0299
v 6.4829 -5.9116 0.0277
v 6.4978 -5.9357 0.0250
v 6.5172 -5.9404 0.0236
v 2.6258 -5.0145 -0.1040
v 2.6499 -4.9997 -0.0991
v 2.6833 -4.9460 -0.0887
v 2.6786 -4.9654 -0.0919
v 2.6740 -4.9849 -0.0943
v 2.6935 -4.9895 -0.0920
v 2.7129 -4.9941 -0.0897
v 2.7324 -4.9988 -0.0895
v 2.7518 -5.0034 -0.0892
v 2.7713 -5.0080 -0.0890
v 2.7861 -5.0321 -0.0900
v 2.8056 -5.0367 -0.0895
v 2.8250 -5.0414 -0.0891
v 2.8445 -5.0460 -0.0887
v 2.8640 -5.0506 -0.0883
v 2.8834 -5.0553 -0.0879
v 2.9029 -5.0599 -0.0875
l 1 2 3 4 5 6 7 8 9 10 11 12 13 14 15 16 17 18 19 20 21 22 23 24 25 26 27 28 29
l 30 31 32 33 34 35 36 37 38 39 40 41 42
l 43 44 45 46 47 48 49 50 51 52
l 53 54 55 56 57 58 59 60 61 62 63 64 65 66 67 68 69 70 71 72 73 74 75 76 77
l 78 79 80 81 82 83 84 85 86 87 88
l 89 90 91 92 93 94 95 96 97 98 99 100 101 102 103 104 105 106 107 108 109 110 111
l 112 113 114 115 116 117 118 119 120 121 122 123 124 125 126 127 128 129 130 131 132 133 134 135 136 137 138 139 140
l 141 142 143 144 145 146 147 148 149 150 151 152 153 154 155 156 157 158 159 160 161 162 163 164 165 166 167 168 169 170 171
l 172 173 174 175 176 177 178 179 180 181 182 183 184 185 186 187 188 189 190 191 192 193 194 195 196 197 198 199 200 201 202 203 204 205 206 207 208 209 210 211 212 213 214 215 216
l 217 218 219 220 221 222 223 224 225 226 227 228 229 230 231 232 233 234 235 236 237 238 239 240 241 242 243 244
l 245 246 247 248 249 250 251 252 253 254 255 256 257 258 259
l 260 261 262 263 264 265 266 267 268 269 270 271 272 273 274 275 276
l 277 278 279 280 281 282 283 284 285 286 287 288 289 290 291 292 293 294 295
l 296 297 298 299 300 301 302 303 304 305 306 307 308 309 310 311 312 313 314 315 316 317 318 319 320 321 322 323 324 325 326 327 328 329 330 331 332 333
l 334 335 336 337 338 339 340 341 342 343 344 345 346 347 348 349 350 351 352 353 354 355 356 357 358 359 360 361 362 363 364 365 366 367 368 369 370 371 372 373 374 375 376 377 378 379 380 381 382 383 384 385 386 387 388 389 390 391 392 393 394 395 396 397 398 399 400 401 402 403 404 405 406 407 408 409 410 411 412 413 414 415 416 417 418 419 420 421 422 423 424 425 426 427 428 429 430 431 432 433 434 435 436 437 438 439 440 441 442 443 444 445
l 446 447 448 449 450 451 452 453 454 455 456 457 458 459 460 461 462 463 464 465 466
l 467 468 469 470 471 472 473 474 475 476 477 478 479 480 481
l 482 483 484 485 486 487 488 489 490 491 492 493 494 495
l 496 497 498 499 500 501 502 503 504 505 506 507 508 509 510 511
l 512 513 514 515 516 517 518 519 520 521 522
l 523 524 525 526 527 528 529 530 531 532 533 534 535 536 537 538 539 540 541 542 543 544 545 546 547 548 549 550 551 552 553 554 555 556 557 558 559 560 561 562 563 564 565 566 567 568 569 570 571 572 573 574 575 576
l 577 578 579 580 581 582 583 584 585 586 587 588 589 590 591 592 593 594 595 596 597 598 599
l 600 601 602 603 604 605 606 607 608 609 610 611 612 613 614 615 616 617 618 619 620
l 621 622 623 624 625 626 627 628 629 630 631 632 633 634 635 636 637 638 639 640 641 642 643
l 644 645 646 647 648 649 650 651 652 653 654 655 656 657 658 659 660 661 662
l 663 664 665 666 667 668 669 670 671 672 673 674 675 676 677 678 679 680 681 682 683 684 685 686 687
l 688 689 690 691 692 693 694 695 696 697 698 699 700 701 702 703 704 705 706 707 708 709 710 711 712 713 714 715 716
l 717 718 719 720 721 722 723 724 725 726 727 728 729 730 731 732 733 734
l 735 736 737 738 739 740 741 742 743 744 745 746 747 748 749 750 751 752 753 754 755 756 757 758 759 760 761 762 763 764 765 766 767 768
l 769 770 771 772 773 774 775 776 777 778 779 780 781
l 782 783 784 785 786 787 788 789 790 791 792 793 794 795 796 797 798 799 800 801
l 802 803 804 805 806 807 808 809 810 811 812 813 814 815 816 817 818 819 820 821 822 823 824 825 826 827 828 829 830 831 832 833 834 835 836 837 838 839 840 841
l 842 843 844 845 846 847 848 849 850 851 852 853 854 855 856 857 858 859
l 860 861 862 863 864 865 866 867 868 869
l 870 871 872 873 874 875 876 877 878 879 880 881 882 883 884 885 886 887 888 889 890 891
l 892 893 894 895 896 897 898 899 900 901
l 902 903 904 905 906 907 908 909 910 911 912 913 914 915 916
l 917 918 919 920 921 922 923 924 925 926 927 928 929 930 931 932 933 934 935 936 937 938 939 940 941 942 943 944 945 946 947 948 949 950 951 952 953 954 955 956 957 958
l 959 960 961 962 963 964 965 966 967 968 969 970 971 972 973
l 974 975 976 977 978 979 980 981 982 983
l 984 985 986 987 988 989 990 991 992 993 994 995
l 996 997 998 999 1000 1001 1002 1003 1004 1005
l 1006 1007 1008 1009 1010 1011 1012 1013 1014 1015 1016
l 1017 1018 1019 1020 1021 1022 1023 1024 1025 1026 1027 1028 1029 1030 1031
l 1032 1033 1034 1035 1036 1037 1038 1039 1040 1041 1042 1043 1044 1045 1046 1047 1048
l 1049 1050 1051 1052 1053 1054 1055 1056 1057 1058 1059 1060 1061 1062 1063 1064 1065 1066 1067 1068 1069
l 1070 1071 1072 1073 1074 1075 1076 1077 1078 1079 1080 1081 1082 1083 1084 1085 1086 1087 1088 1089 1090 1091 1092 1093 1094 1095 1096 1097 1098 1099 1100 1101 1102 1103 1104 1105 1106 1107 1108 1109 1110 1111 1112 1113 1114 1115 1116 1117 1118 1119 1120 1121 1122 1123 1124 1125 1126 1127 1128 1129 1130 1131 1132 1133 1134
l 1135 1136 1137 1138 1139 1140 1141 1142 1143 1144 1145 1146
l 1147 1148 1149 1150 1151 1152 1153 1154 1155 1156 1157 1158 1159 1160 1161 1162 1163 1164 1165 1166 1167 1168 1169
l 1170 1171 1172 1173 1174 1175 1176 1177 1178 1179 1180 1181 1182
l 1183 1184 1185 1186 1187 1188 1189 1190 1191 1192 1193 1194
l 1195 1196 1197 1198 1199 1200 1201 1202 1203 1204 1205 1206 1207 1208 1209 1210 1211 1212 1213 1214 1215 1216 1217 1218 1219 1220 1221 1222 1223 1224 1225 1226 1227 1228 1229 1230 1231 1232 1233 1234 1235 1236 1237 1238 1239 1240
l 1241 1242 1243 1244 1245 1246 1247 1248 1249 1250 1251 1252 1253 1254 1255 1256 1257 1258 1259 1260 1261
l 1262 1263 1264 1265 1266 1267 1268 1269 1270 1271 1272
l 1273 1274 1275 1276 1277 1278 1279 1280 1281 1282 1283
l 1284 1285 1286 1287 1288 1289 1290 1291 1292 1293 1294 1295 1296 1297 1298 1299 1300 1301 1302 1303 1304 1305
l 1306 1307 1308 1309 1310 1311 1312 1313 1314 1315
l 1316 1317 1318 1319 1320 1321 1322 1323 1324 1325 1326 1327 1328
l 1329 1330 1331 1332 1333 1334 1335 1336 1337 1338 1339 1340 1341 1342 1343 1344 1345 1346 1347 1348 1349 1350
l 1351 1352 1353 1354 1355 1356 1357 1358 1359 1360 1361
l 1362 1363 1364 1365 1366 1367 1368 1369 1370 1371 1372 1373 1374 1375
l 1376 1377 1378 1379 1380 1381 1382 1383 1384 1385 1386 1387 1388 1389 1390 1391 1392 1393 1394
l 1395 1396 1397 1398 1399 1400 1401 1402 1403 1404
l 1405 1406 1407 1408 1409 1410 1411 1412 1413 1414 1415 1416 1417 1418 1419 1420 1421 1422 1423 1424 1425 1426 1427 1428
l 1429 1430 1431 1432 1433 1434 1435 1436 1437 1438 1439 1440 1441 1442 1443 1444 1445 1446 1447
l 1448 1449 1450 1451 1452 1453 1454 1455 1456 1457 1458 1459 1460 1461 1462 1463 1464 1465 1466
l 1467 1468 1469 1470 1471 1472 1473 1474 1475 1476 1477 1478 1479 1480 1481 1482 1483 1484 1485 1486 1487 1488 1489 1490 1491 1492 1493
l 1494 1495 1496 1497 1498 1499 1500 1501 1502 1503 1504 1505 1506 1507 1508 1509 1510
