# Block C survey lattice, 0.5 m, bench frame metres
o grid_C
v 1.9194 3.3357 0.0000
v 0.0677 -4.4470 0.0000
v 2.4058 3.2200 0.0000
v 0.5542 -4.5628 0.0000
v 2.8922 3.1043 0.0000
v 1.0406 -4.6785 0.0000
v 3.3787 2.9886 0.0000
v 1.5270 -4.7942 0.0000
v 3.8651 2.8728 0.0000
v 2.0134 -4.9099 0.0000
v 4.3515 2.7571 0.0000
v 2.4998 -5.0257 0.0000
v 4.8379 2.6414 0.0000
v 2.9863 -5.1414 0.0000
v 5.3243 2.5256 0.0000
v 3.4727 -5.2571 0.0000
v 5.8108 2.4099 0.0000
v 3.9591 -5.3729 0.0000
v 6.2972 2.2942 0.0000
v 4.4455 -5.4886 0.0000
v 6.7836 2.1785 0.0000
v 4.9320 -5.6043 0.0000
v 7.2700 2.0627 0.0000
v 5.4184 -5.7200 0.0000
v 7.7565 1.9470 0.0000
v 5.9048 -5.8358 0.0000
v 8.2429 1.8313 0.0000
v 6.3912 -5.9515 0.0000
v 8.7293 1.7155 0.0000
v 6.8777 -6.0672 0.0000
v 1.9194 3.3357 0.0000
v 8.7293 1.7155 0.0000
v 1.8037 2.8493 0.0000
v 8.6136 1.2291 0.0000
v 1.6879 2.3629 0.0000
v 8.4978 0.7427 0.0000
v 1.5722 1.8765 0.0000
v 8.3821 0.2563 0.0000
v 1.4565 1.3900 0.0000
v 8.2664 -0.2301 0.0000
v 1.3407 0.9036 0.0000
v 8.1507 -0.7166 0.0000
v 1.2250 0.4172 0.0000
v 8.0349 -1.2030 0.0000
v 1.1093 -0.0692 0.0000
v 7.9192 -1.6894 0.0000
v 0.9936 -0.5556 0.0000
v 7.8035 -2.1758 0.0000
v 0.8778 -1.0421 0.0000
v 7.6877 -2.6623 0.0000
v 0.7621 -1.5285 0.0000
v 7.5720 -3.1487 0.0000
v 0.6464 -2.0149 0.0000
v 7.4563 -3.6351 0.0000
v 0.5306 -2.5013 0.0000
v 7.3406 -4.1215 0.0000
v 0.4149 -2.9878 0.0000
v 7.2248 -4.6080 0.0000
v 0.2992 -3.4742 0.0000
v 7.1091 -5.0944 0.0000
v 0.1835 -3.9606 0.0000
v 6.9934 -5.5808 0.0000
v 0.0677 -4.4470 0.0000
v 6.8777 -6.0672 0.0000
l 1 2
l 3 4
l 5 6
l 7 8
l 9 10
l 11 12
l 13 14
l 15 16
l 17 18
l 19 20
l 21 22
l 23 24
l 25 26
l 27 28
l 29 30
l 31 32
l 33 34
l 35 36
l 37 38
l 39 40
l 41 42
l 43 44
l 45 46
l 47 48
l 49 50
l 51 52
l 53 54
l 55 56
l 57 58
l 59 60
l 61 62
l 63 64
