# B1, bench frame metres, z up, depth negative
o B1
v -1.4478 -2.9151 -0.5950
v -1.4436 -3.0150 -0.5978
v -1.4394 -3.1149 -0.6021
v -1.4351 -3.2148 -0.6080
v -1.4309 -3.3147 -0.6138
v -1.4266 -3.4146 -0.6218
v -1.4224 -3.5145 -0.6289
v -1.4181 -3.6144 -0.6355
v -1.4139 -3.7143 -0.6408
v -1.4096 -3.8143 -0.6466
v -1.4054 -3.9142 -0.6528
v -1.4012 -4.0141 -0.6617
v -1.3969 -4.1140 -0.6714
v -1.3927 -4.2139 -0.6829
v -1.3884 -4.3138 -0.6936
v -1.3842 -4.4137 -0.7025
v -1.3799 -4.5136 -0.7086
v -1.3757 -4.6135 -0.7136
v -1.3714 -4.7134 -0.7186
v -1.3672 -4.8134 -0.7255
v -1.3630 -4.9133 -0.7340
v -1.3587 -5.0132 -0.7468
v -1.3545 -5.1131 -0.7640
v -1.3502 -5.2130 -0.7841
v -1.3460 -5.3129 -0.8053
v -1.3417 -5.4128 -0.8252
v -1.3375 -5.5127 -0.8411
v -1.3333 -5.6126 -0.8520
v -1.3290 -5.7125 -0.8594
v -1.3248 -5.8125 -0.8627
v -1.3205 -5.9124 -0.8647
v -1.3479 -2.9108 -0.5927
v -1.3437 -3.0107 -0.5961
v -1.3394 -3.1106 -0.6011
v -1.3352 -3.2106 -0.6076
v -1.3310 -3.3105 -0.6140
v -1.3267 -3.4104 -0.6219
v -1.3225 -3.5103 -0.6288
v -1.3182 -3.6102 -0.6354
v -1.3140 -3.7101 -0.6410
v -1.3097 -3.8100 -0.6473
v -1.3055 -3.9099 -0.6544
v -1.3012 -4.0098 -0.6642
v -1.2970 -4.1097 -0.6747
v -1.2928 -4.2097 -0.6867
v -1.2885 -4.3096 -0.6978
v -1.2843 -4.4095 -0.7070
v -1.2800 -4.5094 -0.7132
v -1.2758 -4.6093 -0.7181
v -1.2715 -4.7092 -0.7228
v -1.2673 -4.8091 -0.7291
v -1.2631 -4.9090 -0.7370
v -1.2588 -5.0089 -0.7488
v -1.2546 -5.1088 -0.7645
v -1.2503 -5.2088 -0.7822
v -1.2461 -5.3087 -0.8011
v -1.2418 -5.4086 -0.8191
v -1.2376 -5.5085 -0.8338
v -1.2333 -5.6084 -0.8446
v -1.2291 -5.7083 -0.8530
v -1.2249 -5.8082 -0.8575
v -1.2206 -5.9081 -0.8604
v -1.2480 -2.9066 -0.5897
v -1.2438 -3.0065 -0.5939
v -1.2395 -3.1064 -0.5996
v -1.2353 -3.2063 -0.6071
v -1.2310 -3.3062 -0.6144
v -1.2268 -3.4061 -0.6221
v -1.2226 -3.5060 -0.6286
v -1.2183 -3.6060 -0.6353
v -1.2141 -3.7059 -0.6413
v -1.2098 -3.8058 -0.6483
v -1.2056 -3.9057 -0.6566
v -1.2013 -4.0056 -0.6675
v -1.1971 -4.1055 -0.6790
v -1.1928 -4.2054 -0.6918
v -1.1886 -4.3053 -0.7034
v -1.1844 -4.4052 -0.7129
v -1.1801 -4.5051 -0.7194
v -1.1759 -4.6051 -0.7241
v -1.1716 -4.7050 -0.7283
v -1.1674 -4.8049 -0.7338
v -1.1631 -4.9048 -0.7410
v -1.1589 -5.0047 -0.7515
v -1.1547 -5.1046 -0.7650
v -1.1504 -5.2045 -0.7796
v -1.1462 -5.3044 -0.7955
v -1.1419 -5.4043 -0.8109
v -1.1377 -5.5042 -0.8241
v -1.1334 -5.6041 -0.8347
v -1.1292 -5.7041 -0.8445
v -1.1249 -5.8040 -0.8506
v -1.1207 -5.9039 -0.8547
v -1.1481 -2.9023 -0.5858
v -1.1439 -3.0022 -0.5911
v -1.1396 -3.1022 -0.5978
v -1.1354 -3.2021 -0.6066
v -1.1311 -3.3020 -0.6148
v -1.1269 -3.4019 -0.6224
v -1.1226 -3.5018 -0.6285
v -1.1184 -3.6017 -0.6352
v -1.1142 -3.7016 -0.6416
v -1.1099 -3.8015 -0.6496
v -1.1057 -3.9014 -0.6593
v -1.1014 -4.0013 -0.6717
v -1.0972 -4.1013 -0.6845
v -1.0929 -4.2012 -0.6981
v -1.0887 -4.3011 -0.7105
v -1.0845 -4.4010 -0.7204
v -1.0802 -4.5009 -0.7271
v -1.0760 -4.6008 -0.7316
v -1.0717 -4.7007 -0.7353
v -1.0675 -4.8006 -0.7398
v -1.0632 -4.9005 -0.7460
v -1.0590 -5.0004 -0.7548
v -1.0547 -5.1004 -0.7656
v -1.0505 -5.2003 -0.7763
v -1.0463 -5.3002 -0.7884
v -1.0420 -5.4001 -0.8005
v -1.0378 -5.5000 -0.8118
v -1.0335 -5.5999 -0.8224
v -1.0293 -5.6998 -0.8339
v -1.0250 -5.7997 -0.8418
v -1.0208 -5.8996 -0.8475
v -1.0482 -2.8981 -0.5801
v -1.0440 -2.9980 -0.5862
v -1.0397 -3.0979 -0.5938
v -1.0355 -3.1978 -0.6036
v -1.0312 -3.2977 -0.6127
v -1.0270 -3.3976 -0.6204
v -1.0227 -3.4976 -0.6265
v -1.0185 -3.5975 -0.6336
v -1.0142 -3.6974 -0.6408
v -1.0100 -3.7973 -0.6497
v -1.0058 -3.8972 -0.6606
v -1.0015 -3.9971 -0.6741
v -0.9973 -4.0970 -0.6877
v -0.9930 -4.1969 -0.7014
v -0.9888 -4.2968 -0.7137
v -0.9845 -4.3967 -0.7235
v -0.9803 -4.4967 -0.7301
v -0.9761 -4.5966 -0.7343
v -0.9718 -4.6965 -0.7377
v -0.9676 -4.7964 -0.7418
v -0.9633 -4.8963 -0.7476
v -0.9591 -4.9962 -0.7553
v -0.9548 -5.0961 -0.7643
v -0.9506 -5.1960 -0.7724
v -0.9463 -5.2959 -0.7818
v -0.9421 -5.3958 -0.7917
v -0.9379 -5.4958 -0.8018
v -0.9336 -5.5957 -0.8125
v -0.9294 -5.6956 -0.8253
v -0.9251 -5.7955 -0.8348
v -0.9209 -5.8954 -0.8417
v -0.9483 -2.8939 -0.5723
v -0.9440 -2.9938 -0.5791
v -0.9398 -3.0937 -0.5876
v -0.9356 -3.1936 -0.5981
v -0.9313 -3.2935 -0.6081
v -0.9271 -3.3934 -0.6162
v -0.9228 -3.4933 -0.6228
v -0.9186 -3.5932 -0.6306
v -0.9143 -3.6931 -0.6388
v -0.9101 -3.7930 -0.6487
v -0.9059 -3.8929 -0.6607
v -0.9016 -3.9929 -0.6748
v -0.8974 -4.0928 -0.6886
v -0.8931 -4.1927 -0.7016
v -0.8889 -4.2926 -0.7132
v -0.8846 -4.3925 -0.7223
v -0.8804 -4.4924 -0.7284
v -0.8761 -4.5923 -0.7322
v -0.8719 -4.6922 -0.7357
v -0.8677 -4.7921 -0.7398
v -0.8634 -4.8920 -0.7457
v -0.8592 -4.9920 -0.7532
v -0.8549 -5.0919 -0.7612
v -0.8507 -5.1918 -0.7679
v -0.8464 -5.2917 -0.7759
v -0.8422 -5.3916 -0.7845
v -0.8379 -5.4915 -0.7941
v -0.8337 -5.5914 -0.8052
v -0.8295 -5.6913 -0.8189
v -0.8252 -5.7912 -0.8295
v -0.8210 -5.8911 -0.8374
v -0.8484 -2.8896 -0.5626
v -0.8441 -2.9895 -0.5699
v -0.8399 -3.0894 -0.5790
v -0.8356 -3.1893 -0.5903
v -0.8314 -3.2892 -0.6010
v -0.8272 -3.3892 -0.6098
v -0.8229 -3.4891 -0.6171
v -0.8187 -3.5890 -0.6260
v -0.8144 -3.6889 -0.6355
v -0.8102 -3.7888 -0.6465
v -0.8059 -3.8887 -0.6594
v -0.8017 -3.9886 -0.6738
v -0.7975 -4.0885 -0.6872
v -0.7932 -4.1884 -0.6988
v -0.7890 -4.2883 -0.7090
v -0.7847 -4.3883 -0.7167
v -0.7805 -4.4882 -0.7218
v -0.7762 -4.5881 -0.7251
v -0.7720 -4.6880 -0.7291
v -0.7677 -4.7879 -0.7338
v -0.7635 -4.8878 -0.7403
v -0.7593 -4.9877 -0.7482
v -0.7550 -5.0876 -0.7562
v -0.7508 -5.1875 -0.7628
v -0.7465 -5.2874 -0.7704
v -0.7423 -5.3874 -0.7789
v -0.7380 -5.4873 -0.7886
v -0.7338 -5.5872 -0.8002
v -0.7296 -5.6871 -0.8146
v -0.7253 -5.7870 -0.8260
v -0.7211 -5.8869 -0.8345
v -0.7485 -2.8854 -0.5509
v -0.7442 -2.9853 -0.5586
v -0.7400 -3.0852 -0.5683
v -0.7357 -3.1851 -0.5799
v -0.7315 -3.2850 -0.5913
v -0.7272 -3.3849 -0.6010
v -0.7230 -3.4848 -0.6096
v -0.7188 -3.5847 -0.6199
v -0.7145 -3.6846 -0.6311
v -0.7103 -3.7846 -0.6433
v -0.7060 -3.8845 -0.6567
v -0.7018 -3.9844 -0.6711
v -0.6975 -4.0843 -0.6836
v -0.6933 -4.1842 -0.6930
v -0.6891 -4.2841 -0.7009
v -0.6848 -4.3840 -0.7067
v -0.6806 -4.4839 -0.7104
v -0.6763 -4.5838 -0.7131
v -0.6721 -4.6837 -0.7180
v -0.6678 -4.7837 -0.7238
v -0.6636 -4.8836 -0.7315
v -0.6593 -4.9835 -0.7405
v -0.6551 -5.0834 -0.7494
v -0.6509 -5.1833 -0.7571
v -0.6466 -5.2832 -0.7657
v -0.6424 -5.3831 -0.7750
v -0.6381 -5.4830 -0.7854
v -0.6339 -5.5829 -0.7978
v -0.6296 -5.6828 -0.8125
v -0.6254 -5.7827 -0.8243
v -0.6212 -5.8827 -0.8331
v -0.6486 -2.8811 -0.5373
v -0.6443 -2.9810 -0.5451
v -0.6401 -3.0809 -0.5552
v -0.6358 -3.1808 -0.5672
v -0.6316 -3.2808 -0.5792
v -0.6273 -3.3807 -0.5901
v -0.6231 -3.4806 -0.6003
v -0.6189 -3.5805 -0.6123
v -0.6146 -3.6804 -0.6254
v -0.6104 -3.7803 -0.6389
v -0.6061 -3.8802 -0.6528
v -0.6019 -3.9801 -0.6666
v -0.5976 -4.0800 -0.6775
v -0.5934 -4.1799 -0.6840
v -0.5891 -4.2799 -0.6889
v -0.5849 -4.3798 -0.6922
v -0.5807 -4.4797 -0.6940
v -0.5764 -4.5796 -0.6963
v -0.5722 -4.6795 -0.7023
v -0.5679 -4.7794 -0.7098
v -0.5637 -4.8793 -0.7192
v -0.5594 -4.9792 -0.7301
v -0.5552 -5.0791 -0.7410
v -0.5509 -5.1790 -0.7510
v -0.5467 -5.2790 -0.7616
v -0.5425 -5.3789 -0.7728
v -0.5382 -5.4788 -0.7846
v -0.5340 -5.5787 -0.7978
v -0.5297 -5.6786 -0.8125
v -0.5255 -5.7785 -0.8243
v -0.5212 -5.8784 -0.8331
v -0.5486 -2.8769 -0.5298
v -0.5444 -2.9768 -0.5374
v -0.5402 -3.0767 -0.5476
v -0.5359 -3.1766 -0.5593
v -0.5317 -3.2765 -0.5710
v -0.5274 -3.3764 -0.5820
v -0.5232 -3.4763 -0.5927
v -0.5189 -3.5762 -0.6053
v -0.5147 -3.6762 -0.6193
v -0.5105 -3.7761 -0.6335
v -0.5062 -3.8760 -0.6474
v -0.5020 -3.9759 -0.6609
v -0.4977 -4.0758 -0.6707
v -0.4935 -4.1757 -0.6753
v -0.4892 -4.2756 -0.6784
v -0.4850 -4.3755 -0.6804
v -0.4807 -4.4754 -0.6814
v -0.4765 -4.5753 -0.6837
v -0.4723 -4.6753 -0.6909
v -0.4680 -4.7752 -0.7001
v -0.4638 -4.8751 -0.7109
v -0.4595 -4.9750 -0.7235
v -0.4553 -5.0749 -0.7360
v -0.4510 -5.1748 -0.7480
v -0.4468 -5.2747 -0.7602
v -0.4426 -5.3746 -0.7726
v -0.4383 -5.4745 -0.7853
v -0.4341 -5.5744 -0.7988
v -0.4298 -5.6744 -0.8131
v -0.4256 -5.7743 -0.8246
v -0.4213 -5.8742 -0.8333
v -0.4487 -2.8726 -0.5285
v -0.4445 -2.9725 -0.5357
v -0.4403 -3.0725 -0.5453
v -0.4360 -3.1724 -0.5562
v -0.4318 -3.2723 -0.5668
v -0.4275 -3.3722 -0.5769
v -0.4233 -3.4721 -0.5869
v -0.4190 -3.5720 -0.5990
v -0.4148 -3.6719 -0.6128
v -0.4105 -3.7718 -0.6270
v -0.4063 -3.8717 -0.6407
v -0.4021 -3.9716 -0.6538
v -0.3978 -4.0715 -0.6630
v -0.3936 -4.1715 -0.6668
v -0.3893 -4.2714 -0.6693
v -0.3851 -4.3713 -0.6712
v -0.3808 -4.4712 -0.6724
v -0.3766 -4.5711 -0.6755
v -0.3723 -4.6710 -0.6840
v -0.3681 -4.7709 -0.6946
v -0.3639 -4.8708 -0.7067
v -0.3596 -4.9707 -0.7206
v -0.3554 -5.0706 -0.7346
v -0.3511 -5.1706 -0.7480
v -0.3469 -5.2705 -0.7613
v -0.3426 -5.3704 -0.7746
v -0.3384 -5.4703 -0.7876
v -0.3342 -5.5702 -0.8008
v -0.3299 -5.6701 -0.8144
v -0.3257 -5.7700 -0.8254
v -0.3214 -5.8699 -0.8336
v -0.3488 -2.8684 -0.5333
v -0.3446 -2.9683 -0.5398
v -0.3403 -3.0682 -0.5485
v -0.3361 -3.1681 -0.5580
v -0.3319 -3.2680 -0.5665
v -0.3276 -3.3679 -0.5746
v -0.3234 -3.4678 -0.5829
v -0.3191 -3.5678 -0.5933
v -0.3149 -3.6677 -0.6058
v -0.3106 -3.7676 -0.6195
v -0.3064 -3.8675 -0.6327
v -0.3021 -3.9674 -0.6453
v -0.2979 -4.0673 -0.6544
v -0.2937 -4.1672 -0.6585
v -0.2894 -4.2671 -0.6615
v -0.2852 -4.3670 -0.6644
v -0.2809 -4.4669 -0.6671
v -0.2767 -4.5669 -0.6717
v -0.2724 -4.6668 -0.6815
v -0.2682 -4.7667 -0.6933
v -0.2640 -4.8666 -0.7065
v -0.2597 -4.9665 -0.7216
v -0.2555 -5.0664 -0.7367
v -0.2512 -5.1663 -0.7511
v -0.2470 -5.2662 -0.7651
v -0.2427 -5.3661 -0.7786
v -0.2385 -5.4660 -0.7914
v -0.2342 -5.5660 -0.8037
v -0.2300 -5.6659 -0.8163
v -0.2258 -5.7658 -0.8265
v -0.2215 -5.8657 -0.8341
v -0.2489 -2.8641 -0.5443
v -0.2447 -2.9641 -0.5498
v -0.2404 -3.0640 -0.5570
v -0.2362 -3.1639 -0.5646
v -0.2319 -3.2638 -0.5702
v -0.2277 -3.3637 -0.5752
v -0.2235 -3.4636 -0.5806
v -0.2192 -3.5635 -0.5882
v -0.2150 -3.6634 -0.5984
v -0.2107 -3.7633 -0.6110
v -0.2065 -3.8632 -0.6233
v -0.2022 -3.9632 -0.6355
v -0.1980 -4.0631 -0.6450
v -0.1937 -4.1630 -0.6503
v -0.1895 -4.2629 -0.6552
v -0.1853 -4.3628 -0.6603
v -0.1810 -4.4627 -0.6653
v -0.1768 -4.5626 -0.6722
v -0.1725 -4.6625 -0.6834
v -0.1683 -4.7624 -0.6963
v -0.1640 -4.8623 -0.7104
v -0.1598 -4.9623 -0.7263
v -0.1556 -5.0622 -0.7422
v -0.1513 -5.1621 -0.7573
v -0.1471 -5.2620 -0.7714
v -0.1428 -5.3619 -0.7847
v -0.1386 -5.4618 -0.7967
v -0.1343 -5.5617 -0.8077
v -0.1301 -5.6616 -0.8188
v -0.1258 -5.7615 -0.8280
v -0.1216 -5.8614 -0.8348
v -0.1490 -2.8599 -0.5615
v -0.1448 -2.9598 -0.5656
v -0.1405 -3.0597 -0.5709
v -0.1363 -3.1596 -0.5759
v -0.1320 -3.2595 -0.5777
v -0.1278 -3.3594 -0.5786
v -0.1235 -3.4594 -0.5801
v -0.1193 -3.5593 -0.5837
v -0.1151 -3.6592 -0.5906
v -0.1108 -3.7591 -0.6014
v -0.1066 -3.8590 -0.6126
v -0.1023 -3.9589 -0.6244
v -0.0981 -4.0588 -0.6347
v -0.0938 -4.1587 -0.6423
v -0.0896 -4.2586 -0.6503
v -0.0854 -4.3585 -0.6588
v -0.0811 -4.4585 -0.6674
v -0.0769 -4.5584 -0.6770
v -0.0726 -4.6583 -0.6898
v -0.0684 -4.7582 -0.7035
v -0.0641 -4.8581 -0.7182
v -0.0599 -4.9580 -0.7347
v -0.0556 -5.0579 -0.7512
v -0.0514 -5.1578 -0.7665
v -0.0472 -5.2577 -0.7803
v -0.0429 -5.3576 -0.7929
v -0.0387 -5.4576 -0.8035
v -0.0344 -5.5575 -0.8125
v -0.0302 -5.6574 -0.8218
v -0.0259 -5.7573 -0.8297
v -0.0217 -5.8572 -0.8356
v -0.0491 -2.8557 -0.5753
v -0.0449 -2.9556 -0.5784
v -0.0406 -3.0555 -0.5822
v -0.0364 -3.1554 -0.5851
v -0.0321 -3.2553 -0.5836
v -0.0279 -3.3552 -0.5812
v -0.0236 -3.4551 -0.5794
v -0.0194 -3.5550 -0.5798
v -0.0151 -3.6549 -0.5840
v -0.0109 -3.7548 -0.5934
v -0.0067 -3.8548 -0.6036
v -0.0024 -3.9547 -0.6149
v 0.0018 -4.0546 -0.6256
v 0.0061 -4.1545 -0.6348
v 0.0103 -4.2544 -0.6451
v 0.0146 -4.3543 -0.6564
v 0.0188 -4.4542 -0.6677
v 0.0230 -4.5541 -0.6796
v 0.0273 -4.6540 -0.6937
v 0.0315 -4.7539 -0.7081
v 0.0358 -4.8539 -0.7232
v 0.0400 -4.9538 -0.7399
v 0.0443 -5.0537 -0.7567
v 0.0485 -5.1536 -0.7721
v 0.0528 -5.2535 -0.7856
v 0.0570 -5.3534 -0.7977
v 0.0612 -5.4533 -0.8075
v 0.0655 -5.5532 -0.8154
v 0.0697 -5.6531 -0.8236
v 0.0740 -5.7530 -0.8308
v 0.0782 -5.8530 -0.8361
v 0.0508 -2.8514 -0.5857
v 0.0551 -2.9513 -0.5881
v 0.0593 -3.0512 -0.5907
v 0.0635 -3.1511 -0.5920
v 0.0678 -3.2511 -0.5880
v 0.0720 -3.3510 -0.5828
v 0.0763 -3.4509 -0.5785
v 0.0805 -3.5508 -0.5765
v 0.0848 -3.6507 -0.5787
v 0.0890 -3.7506 -0.5870
v 0.0932 -3.8505 -0.5963
v 0.0975 -3.9504 -0.6070
v 0.1017 -4.0503 -0.6177
v 0.1060 -4.1502 -0.6278
v 0.1102 -4.2501 -0.6398
v 0.1145 -4.3501 -0.6531
v 0.1187 -4.4500 -0.6665
v 0.1230 -4.5499 -0.6802
v 0.1272 -4.6498 -0.6951
v 0.1314 -4.7497 -0.7100
v 0.1357 -4.8496 -0.7252
v 0.1399 -4.9495 -0.7420
v 0.1442 -5.0494 -0.7588
v 0.1484 -5.1493 -0.7741
v 0.1527 -5.2492 -0.7873
v 0.1569 -5.3492 -0.7993
v 0.1612 -5.4491 -0.8088
v 0.1654 -5.5490 -0.8163
v 0.1696 -5.6489 -0.8241
v 0.1739 -5.7488 -0.8312
v 0.1781 -5.8487 -0.8363
v 0.1507 -2.8472 -0.5928
v 0.1550 -2.9471 -0.5946
v 0.1592 -3.0470 -0.5966
v 0.1635 -3.1469 -0.5967
v 0.1677 -3.2468 -0.5907
v 0.1719 -3.3467 -0.5836
v 0.1762 -3.4466 -0.5775
v 0.1804 -3.5465 -0.5737
v 0.1847 -3.6464 -0.5747
v 0.1889 -3.7464 -0.5821
v 0.1932 -3.8463 -0.5908
v 0.1974 -3.9462 -0.6006
v 0.2016 -4.0461 -0.6111
v 0.2059 -4.1460 -0.6216
v 0.2101 -4.2459 -0.6344
v 0.2144 -4.3458 -0.6489
v 0.2186 -4.4457 -0.6637
v 0.2229 -4.5456 -0.6786
v 0.2271 -4.6455 -0.6941
v 0.2314 -4.7455 -0.7092
v 0.2356 -4.8454 -0.7243
v 0.2398 -4.9453 -0.7408
v 0.2441 -5.0452 -0.7573
v 0.2483 -5.1451 -0.7724
v 0.2526 -5.2450 -0.7854
v 0.2568 -5.3449 -0.7976
v 0.2611 -5.4448 -0.8074
v 0.2653 -5.5447 -0.8153
v 0.2695 -5.6446 -0.8235
v 0.2738 -5.7446 -0.8308
v 0.2780 -5.8445 -0.8361
v 0.2506 -2.8429 -0.5964
v 0.2549 -2.9428 -0.5982
v 0.2591 -3.0427 -0.5999
v 0.2634 -3.1427 -0.5991
v 0.2676 -3.2426 -0.5919
v 0.2718 -3.3425 -0.5835
v 0.2761 -3.4424 -0.5764
v 0.2803 -3.5423 -0.5715
v 0.2846 -3.6422 -0.5719
v 0.2888 -3.7421 -0.5788
v 0.2931 -3.8420 -0.5869
v 0.2973 -3.9419 -0.5959
v 0.3016 -4.0418 -0.6057
v 0.3058 -4.1418 -0.6159
v 0.3100 -4.2417 -0.6289
v 0.3143 -4.3416 -0.6439
v 0.3185 -4.4415 -0.6594
v 0.3228 -4.5414 -0.6748
v 0.3270 -4.6413 -0.6905
v 0.3313 -4.7412 -0.7057
v 0.3355 -4.8411 -0.7206
v 0.3398 -4.9410 -0.7365
v 0.3440 -5.0409 -0.7524
v 0.3482 -5.1409 -0.7671
v 0.3525 -5.2408 -0.7801
v 0.3567 -5.3407 -0.7927
v 0.3610 -5.4406 -0.8033
v 0.3652 -5.5405 -0.8123
v 0.3695 -5.6404 -0.8216
v 0.3737 -5.7403 -0.8297
v 0.3779 -5.8402 -0.8356
v 0.3505 -2.8387 -0.5967
v 0.3548 -2.9386 -0.5986
v 0.3590 -3.0385 -0.6005
v 0.3633 -3.1384 -0.5994
v 0.3675 -3.2383 -0.5916
v 0.3718 -3.3382 -0.5826
v 0.3760 -3.4381 -0.5752
v 0.3802 -3.5380 -0.5700
v 0.3845 -3.6380 -0.5703
v 0.3887 -3.7379 -0.5770
v 0.3930 -3.8378 -0.5848
v 0.3972 -3.9377 -0.5928
v 0.4015 -4.0376 -0.6015
v 0.4057 -4.1375 -0.6109
v 0.4100 -4.2374 -0.6233
v 0.4142 -4.3373 -0.6380
v 0.4184 -4.4372 -0.6535
v 0.4227 -4.5371 -0.6690
v 0.4269 -4.6371 -0.6845
v 0.4312 -4.7370 -0.6996
v 0.4354 -4.8369 -0.7139
v 0.4397 -4.9368 -0.7289
v 0.4439 -5.0367 -0.7440
v 0.4481 -5.1366 -0.7582
v 0.4524 -5.2365 -0.7712
v 0.4566 -5.3364 -0.7845
v 0.4609 -5.4363 -0.7966
v 0.4651 -5.5362 -0.8075
v 0.4694 -5.6362 -0.8186
v 0.4736 -5.7361 -0.8280
v 0.4779 -5.8360 -0.8348
v 0.4504 -2.8344 -0.5900
v 0.4547 -2.9343 -0.5921
v 0.4589 -3.0343 -0.5944
v 0.4632 -3.1342 -0.5936
v 0.4674 -3.2341 -0.5863
v 0.4717 -3.3340 -0.5778
v 0.4759 -3.4339 -0.5710
v 0.4802 -3.5338 -0.5665
v 0.4844 -3.6337 -0.5674
v 0.4886 -3.7336 -0.5741
v 0.4929 -3.8335 -0.5820
v 0.4971 -3.9334 -0.5895
v 0.5014 -4.0334 -0.5977
v 0.5056 -4.1333 -0.6068
v 0.5099 -4.2332 -0.6191
v 0.5141 -4.3331 -0.6340
v 0.5184 -4.4330 -0.6499
v 0.5226 -4.5329 -0.6659
v 0.5268 -4.6328 -0.6818
v 0.5311 -4.7327 -0.6971
v 0.5353 -4.8326 -0.7114
v 0.5396 -4.9325 -0.7260
v 0.5438 -5.0325 -0.7405
v 0.5481 -5.1324 -0.7546
v 0.5523 -5.2323 -0.7679
v 0.5565 -5.3322 -0.7819
v 0.5608 -5.4321 -0.7951
v 0.5650 -5.5320 -0.8075
v 0.5693 -5.6319 -0.8200
v 0.5735 -5.7318 -0.8301
v 0.5778 -5.8317 -0.8376
v 0.5504 -2.8302 -0.5761
v 0.5546 -2.9301 -0.5787
v 0.5588 -3.0300 -0.5815
v 0.5631 -3.1299 -0.5816
v 0.5673 -3.2298 -0.5758
v 0.5716 -3.3297 -0.5690
v 0.5758 -3.4297 -0.5639
v 0.5801 -3.5296 -0.5608
v 0.5843 -3.6295 -0.5628
v 0.5886 -3.7294 -0.5701
v 0.5928 -3.8293 -0.5784
v 0.5970 -3.9292 -0.5860
v 0.6013 -4.0291 -0.5942
v 0.6055 -4.1290 -0.6036
v 0.6098 -4.2289 -0.6163
v 0.6140 -4.3288 -0.6318
v 0.6183 -4.4288 -0.6486
v 0.6225 -4.5287 -0.6656
v 0.6267 -4.6286 -0.6822
v 0.6310 -4.7285 -0.6983
v 0.6352 -4.8284 -0.7130
v 0.6395 -4.9283 -0.7276
v 0.6437 -5.0282 -0.7421
v 0.6480 -5.1281 -0.7564
v 0.6522 -5.2280 -0.7702
v 0.6565 -5.3279 -0.7849
v 0.6607 -5.4278 -0.7990
v 0.6649 -5.5278 -0.8125
v 0.6692 -5.6277 -0.8257
v 0.6734 -5.7276 -0.8362
v 0.6777 -5.8275 -0.8439
v 0.6503 -2.8259 -0.5552
v 0.6545 -2.9259 -0.5583
v 0.6588 -3.0258 -0.5620
v 0.6630 -3.1257 -0.5635
v 0.6672 -3.2256 -0.5603
v 0.6715 -3.3255 -0.5562
v 0.6757 -3.4254 -0.5537
v 0.6800 -3.5253 -0.5529
v 0.6842 -3.6252 -0.5568
v 0.6885 -3.7251 -0.5649
v 0.6927 -3.8250 -0.5740
v 0.6970 -3.9250 -0.5822
v 0.7012 -4.0249 -0.5910
v 0.7054 -4.1248 -0.6013
v 0.7097 -4.2247 -0.6148
v 0.7139 -4.3246 -0.6315
v 0.7182 -4.4245 -0.6495
v 0.7224 -4.5244 -0.6680
v 0.7267 -4.6243 -0.6859
v 0.7309 -4.7242 -0.7032
v 0.7351 -4.8241 -0.7187
v 0.7394 -4.9241 -0.7338
v 0.7436 -5.0240 -0.7486
v 0.7479 -5.1239 -0.7636
v 0.7521 -5.2238 -0.7780
v 0.7564 -5.3237 -0.7933
v 0.7606 -5.4236 -0.8082
v 0.7649 -5.5235 -0.8225
v 0.7691 -5.6234 -0.8358
v 0.7733 -5.7233 -0.8463
v 0.7776 -5.8232 -0.8539
v 0.7502 -2.8217 -0.5272
v 0.7544 -2.9216 -0.5309
v 0.7587 -3.0215 -0.5357
v 0.7629 -3.1214 -0.5393
v 0.7672 -3.2213 -0.5396
v 0.7714 -3.3213 -0.5394
v 0.7756 -3.4212 -0.5405
v 0.7799 -3.5211 -0.5430
v 0.7841 -3.6210 -0.5491
v 0.7884 -3.7209 -0.5586
v 0.7926 -3.8208 -0.5688
v 0.7969 -3.9207 -0.5783
v 0.8011 -4.0206 -0.5882
v 0.8053 -4.1205 -0.5999
v 0.8096 -4.2204 -0.6148
v 0.8138 -4.3204 -0.6330
v 0.8181 -4.4203 -0.6527
v 0.8223 -4.5202 -0.6732
v 0.8266 -4.6201 -0.6928
v 0.8308 -4.7200 -0.7117
v 0.8351 -4.8199 -0.7286
v 0.8393 -4.9198 -0.7446
v 0.8435 -5.0197 -0.7603
v 0.8478 -5.1196 -0.7762
v 0.8520 -5.2195 -0.7915
v 0.8563 -5.3195 -0.8074
v 0.8605 -5.4194 -0.8228
v 0.8648 -5.5193 -0.8374
v 0.8690 -5.6192 -0.8505
v 0.8733 -5.7191 -0.8605
v 0.8775 -5.8190 -0.8676
v 0.8501 -2.8175 -0.4921
v 0.8543 -2.9174 -0.4966
v 0.8586 -3.0173 -0.5027
v 0.8628 -3.1172 -0.5090
v 0.8671 -3.2171 -0.5139
v 0.8713 -3.3170 -0.5187
v 0.8756 -3.4169 -0.5243
v 0.8798 -3.5168 -0.5309
v 0.8840 -3.6167 -0.5400
v 0.8883 -3.7166 -0.5512
v 0.8925 -3.8166 -0.5629
v 0.8968 -3.9165 -0.5741
v 0.9010 -4.0164 -0.5857
v 0.9053 -4.1163 -0.5994
v 0.9095 -4.2162 -0.6162
v 0.9137 -4.3161 -0.6363
v 0.9180 -4.4160 -0.6582
v 0.9222 -4.5159 -0.6811
v 0.9265 -4.6158 -0.7030
v 0.9307 -4.7157 -0.7239
v 0.9350 -4.8157 -0.7427
v 0.9392 -4.9156 -0.7601
v 0.9435 -5.0155 -0.7770
v 0.9477 -5.1154 -0.7942
v 0.9519 -5.2153 -0.8105
v 0.9562 -5.3152 -0.8269
v 0.9604 -5.4151 -0.8427
v 0.9647 -5.5150 -0.8573
v 0.9689 -5.6149 -0.8695
v 0.9732 -5.7148 -0.8788
v 0.9774 -5.8148 -0.8851
v 0.9500 -2.8132 -0.4708
v 0.9542 -2.9131 -0.4760
v 0.9585 -3.0130 -0.4834
v 0.9627 -3.1129 -0.4921
v 0.9670 -3.2129 -0.5006
v 0.9712 -3.3128 -0.5091
v 0.9755 -3.4127 -0.5179
v 0.9797 -3.5126 -0.5272
v 0.9840 -3.6125 -0.5380
v 0.9882 -3.7124 -0.5501
v 0.9924 -3.8123 -0.5628
v 0.9967 -3.9122 -0.5754
v 1.0009 -4.0121 -0.5883
v 1.0052 -4.1120 -0.6038
v 1.0094 -4.2120 -0.6219
v 1.0137 -4.3119 -0.6431
v 1.0179 -4.4118 -0.6659
v 1.0221 -4.5117 -0.6901
v 1.0264 -4.6116 -0.7128
v 1.0306 -4.7115 -0.7347
v 1.0349 -4.8114 -0.7544
v 1.0391 -4.9113 -0.7725
v 1.0434 -5.0112 -0.7900
v 1.0476 -5.1111 -0.8081
v 1.0519 -5.2111 -0.8247
v 1.0561 -5.3110 -0.8413
v 1.0603 -5.4109 -0.8570
v 1.0646 -5.5108 -0.8711
v 1.0688 -5.6107 -0.8824
v 1.0731 -5.7106 -0.8909
v 1.0773 -5.8105 -0.8965
v 1.0499 -2.8090 -0.4632
v 1.0542 -2.9089 -0.4693
v 1.0584 -3.0088 -0.4779
v 1.0626 -3.1087 -0.4885
v 1.0669 -3.2086 -0.4997
v 1.0711 -3.3085 -0.5107
v 1.0754 -3.4084 -0.5213
v 1.0796 -3.5083 -0.5320
v 1.0839 -3.6083 -0.5433
v 1.0881 -3.7082 -0.5555
v 1.0923 -3.8081 -0.5685
v 1.0966 -3.9080 -0.5822
v 1.1008 -4.0079 -0.5962
v 1.1051 -4.1078 -0.6129
v 1.1093 -4.2077 -0.6319
v 1.1136 -4.3076 -0.6533
v 1.1178 -4.4075 -0.6761
v 1.1221 -4.5074 -0.7001
v 1.1263 -4.6074 -0.7224
v 1.1305 -4.7073 -0.7441
v 1.1348 -4.8072 -0.7637
v 1.1390 -4.9071 -0.7818
v 1.1433 -5.0070 -0.7994
v 1.1475 -5.1069 -0.8177
v 1.1518 -5.2068 -0.8343
v 1.1560 -5.3067 -0.8504
v 1.1603 -5.4066 -0.8655
v 1.1645 -5.5065 -0.8789
v 1.1687 -5.6064 -0.8891
v 1.1730 -5.7064 -0.8968
v 1.1772 -5.8063 -0.9020
v 1.1498 -2.8047 -0.4693
v 1.1541 -2.9046 -0.4763
v 1.1583 -3.0045 -0.4861
v 1.1626 -3.1045 -0.4982
v 1.1668 -3.2044 -0.5112
v 1.1710 -3.3043 -0.5235
v 1.1753 -3.4042 -0.5346
v 1.1795 -3.5041 -0.5452
v 1.1838 -3.6040 -0.5559
v 1.1880 -3.7039 -0.5674
v 1.1923 -3.8038 -0.5801
v 1.1965 -3.9037 -0.5945
v 1.2007 -4.0036 -0.6094
v 1.2050 -4.1036 -0.6270
v 1.2092 -4.2035 -0.6462
v 1.2135 -4.3034 -0.6671
v 1.2177 -4.4033 -0.6887
v 1.2220 -4.5032 -0.7112
v 1.2262 -4.6031 -0.7318
v 1.2305 -4.7030 -0.7522
v 1.2347 -4.8029 -0.7707
v 1.2389 -4.9028 -0.7879
v 1.2432 -5.0027 -0.8051
v 1.2474 -5.1027 -0.8232
v 1.2517 -5.2026 -0.8392
v 1.2559 -5.3025 -0.8543
v 1.2602 -5.4024 -0.8684
v 1.2644 -5.5023 -0.8805
v 1.2686 -5.6022 -0.8896
v 1.2729 -5.7021 -0.8966
v 1.2771 -5.8020 -0.9014
v 1.2497 -2.8005 -0.4892
v 1.2540 -2.9004 -0.4971
v 1.2582 -3.0003 -0.5081
v 1.2625 -3.1002 -0.5214
v 1.2667 -3.2001 -0.5351
v 1.2709 -3.3000 -0.5474
v 1.2752 -3.3999 -0.5577
v 1.2794 -3.4999 -0.5668
v 1.2837 -3.5998 -0.5759
v 1.2879 -3.6997 -0.5856
v 1.2922 -3.7996 -0.5976
v 1.2964 -3.8995 -0.6123
v 1.3007 -3.9994 -0.6278
v 1.3049 -4.0993 -0.6458
v 1.3091 -4.1992 -0.6646
v 1.3134 -4.2991 -0.6843
v 1.3176 -4.3990 -0.7036
v 1.3219 -4.4990 -0.7234
v 1.3261 -4.5989 -0.7410
v 1.3304 -4.6988 -0.7588
v 1.3346 -4.7987 -0.7751
v 1.3389 -4.8986 -0.7908
v 1.3431 -4.9985 -0.8071
v 1.3473 -5.0984 -0.8244
v 1.3516 -5.1983 -0.8393
v 1.3558 -5.2982 -0.8529
v 1.3601 -5.3981 -0.8654
v 1.3643 -5.4981 -0.8760
v 1.3686 -5.5980 -0.8838
v 1.3728 -5.6979 -0.8902
v 1.3770 -5.7978 -0.8947
v 1.3496 -2.7962 -0.5228
v 1.3539 -2.8962 -0.5318
v 1.3581 -2.9961 -0.5438
v 1.3624 -3.0960 -0.5578
v 1.3666 -3.1959 -0.5713
v 1.3709 -3.2958 -0.5825
v 1.3751 -3.3957 -0.5905
v 1.3793 -3.4956 -0.5968
v 1.3836 -3.5955 -0.6030
v 1.3878 -3.6954 -0.6103
v 1.3921 -3.7953 -0.6209
v 1.3963 -3.8952 -0.6355
v 1.4006 -3.9952 -0.6513
v 1.4048 -4.0951 -0.6693
v 1.4091 -4.1950 -0.6872
v 1.4133 -4.2949 -0.7049
v 1.4175 -4.3948 -0.7207
v 1.4218 -4.4947 -0.7364
v 1.4260 -4.5946 -0.7498
v 1.4303 -4.6945 -0.7640
v 1.4345 -4.7944 -0.7771
v 1.4388 -4.8943 -0.7905
v 1.4430 -4.9943 -0.8053
v 1.4472 -5.0942 -0.8213
v 1.4515 -5.1941 -0.8345
v 1.4557 -5.2940 -0.8461
v 1.4600 -5.3939 -0.8566
v 1.4642 -5.4938 -0.8653
v 1.4685 -5.5937 -0.8718
v 1.4727 -5.6936 -0.8776
v 1.4770 -5.7935 -0.8820
v 1.4495 -2.7920 -0.5475
v 1.4538 -2.8919 -0.5572
v 1.4580 -2.9918 -0.5697
v 1.4623 -3.0917 -0.5838
v 1.4665 -3.1916 -0.5967
v 1.4708 -3.2915 -0.6065
v 1.4750 -3.3915 -0.6127
v 1.4793 -3.4914 -0.6172
v 1.4835 -3.5913 -0.6218
v 1.4877 -3.6912 -0.6279
v 1.4920 -3.7911 -0.6379
v 1.4962 -3.8910 -0.6528
v 1.5005 -3.9909 -0.6689
v 1.5047 -4.0908 -0.6866
v 1.5090 -4.1907 -0.7036
v 1.5132 -4.2906 -0.7195
v 1.5175 -4.3906 -0.7327
v 1.5217 -4.4905 -0.7454
v 1.5259 -4.5904 -0.7560
v 1.5302 -4.6903 -0.7679
v 1.5344 -4.7902 -0.7792
v 1.5387 -4.8901 -0.7914
v 1.5429 -4.9900 -0.8053
v 1.5472 -5.0899 -0.8203
v 1.5514 -5.1898 -0.8323
v 1.5556 -5.2897 -0.8422
v 1.5599 -5.3897 -0.8512
v 1.5641 -5.4896 -0.8584
v 1.5684 -5.5895 -0.8640
v 1.5726 -5.6894 -0.8693
v 1.5769 -5.7893 -0.8737
v 1.5495 -2.7878 -0.5631
v 1.5537 -2.8877 -0.5733
v 1.5579 -2.9876 -0.5859
v 1.5622 -3.0875 -0.5994
v 1.5664 -3.1874 -0.6112
v 1.5707 -3.2873 -0.6197
v 1.5749 -3.3872 -0.6245
v 1.5792 -3.4871 -0.6279
v 1.5834 -3.5870 -0.6321
v 1.5877 -3.6869 -0.6382
v 1.5919 -3.7869 -0.6486
v 1.5961 -3.8868 -0.6640
v 1.6004 -3.9867 -0.6804
v 1.6046 -4.0866 -0.6978
v 1.6089 -4.1865 -0.7138
v 1.6131 -4.2864 -0.7281
v 1.6174 -4.3863 -0.7395
v 1.6216 -4.4862 -0.7503
v 1.6258 -4.5861 -0.7595
v 1.6301 -4.6860 -0.7706
v 1.6343 -4.7860 -0.7815
v 1.6386 -4.8859 -0.7936
v 1.6428 -4.9858 -0.8071
v 1.6471 -5.0857 -0.8214
v 1.6513 -5.1856 -0.8325
v 1.6556 -5.2855 -0.8413
v 1.6598 -5.3854 -0.8491
v 1.6640 -5.4853 -0.8554
v 1.6683 -5.5852 -0.8605
v 1.6725 -5.6851 -0.8654
v 1.6768 -5.7851 -0.8696
v 1.6494 -2.7835 -0.5698
v 1.6536 -2.8834 -0.5801
v 1.6579 -2.9833 -0.5923
v 1.6621 -3.0832 -0.6048
v 1.6663 -3.1831 -0.6150
v 1.6706 -3.2831 -0.6220
v 1.6748 -3.3830 -0.6257
v 1.6791 -3.4829 -0.6290
v 1.6833 -3.5828 -0.6339
v 1.6876 -3.6827 -0.6413
v 1.6918 -3.7826 -0.6529
v 1.6961 -3.8825 -0.6692
v 1.7003 -3.9824 -0.6858
v 1.7045 -4.0823 -0.7028
v 1.7088 -4.1822 -0.7178
v 1.7130 -4.2822 -0.7308
v 1.7173 -4.3821 -0.7411
v 1.7215 -4.4820 -0.7510
v 1.7258 -4.5819 -0.7602
v 1.7300 -4.6818 -0.7719
v 1.7342 -4.7817 -0.7840
v 1.7385 -4.8816 -0.7969
v 1.7427 -4.9815 -0.8108
v 1.7470 -5.0814 -0.8247
v 1.7512 -5.1813 -0.8353
v 1.7555 -5.2813 -0.8433
v 1.7597 -5.3812 -0.8504
v 1.7640 -5.4811 -0.8562
v 1.7682 -5.5810 -0.8612
v 1.7724 -5.6809 -0.8660
v 1.7767 -5.7808 -0.8699
v 1.7493 -2.7793 -0.5675
v 1.7535 -2.8792 -0.5776
v 1.7578 -2.9791 -0.5891
v 1.7620 -3.0790 -0.5998
v 1.7663 -3.1789 -0.6079
v 1.7705 -3.2788 -0.6134
v 1.7747 -3.3787 -0.6165
v 1.7790 -3.4786 -0.6204
v 1.7832 -3.5785 -0.6272
v 1.7875 -3.6785 -0.6371
v 1.7917 -3.7784 -0.6509
v 1.7960 -3.8783 -0.6683
v 1.8002 -3.9782 -0.6852
v 1.8044 -4.0781 -0.7016
v 1.8087 -4.1780 -0.7156
v 1.8129 -4.2779 -0.7274
v 1.8172 -4.3778 -0.7374
v 1.8214 -4.4777 -0.7476
v 1.8257 -4.5776 -0.7584
v 1.8299 -4.6776 -0.7721
v 1.8342 -4.7775 -0.7867
v 1.8384 -4.8774 -0.8016
v 1.8426 -4.9773 -0.8164
v 1.8469 -5.0772 -0.8302
v 1.8511 -5.1771 -0.8406
v 1.8554 -5.2770 -0.8483
v 1.8596 -5.3769 -0.8551
v 1.8639 -5.4768 -0.8610
v 1.8681 -5.5767 -0.8663
v 1.8724 -5.6767 -0.8709
v 1.8766 -5.7766 -0.8745
v 1.8492 -2.7750 -0.5562
v 1.8534 -2.8749 -0.5659
v 1.8577 -2.9748 -0.5761
v 1.8619 -3.0748 -0.5844
v 1.8662 -3.1747 -0.5901
v 1.8704 -3.2746 -0.5940
v 1.8747 -3.3745 -0.5968
v 1.8789 -3.4744 -0.6023
v 1.8831 -3.5743 -0.6123
v 1.8874 -3.6742 -0.6258
v 1.8916 -3.7741 -0.6427
v 1.8959 -3.8740 -0.6613
v 1.9001 -3.9739 -0.6786
v 1.9044 -4.0739 -0.6945
v 1.9086 -4.1738 -0.7074
v 1.9128 -4.2737 -0.7182
v 1.9171 -4.3736 -0.7287
v 1.9213 -4.4735 -0.7402
v 1.9256 -4.5734 -0.7539
v 1.9298 -4.6733 -0.7712
v 1.9341 -4.7732 -0.7898
v 1.9383 -4.8731 -0.8077
v 1.9426 -4.9730 -0.8240
v 1.9468 -5.0729 -0.8379
v 1.9510 -5.1729 -0.8486
v 1.9553 -5.2728 -0.8564
v 1.9595 -5.3727 -0.8632
v 1.9638 -5.4726 -0.8696
v 1.9680 -5.5725 -0.8756
v 1.9723 -5.6724 -0.8802
v 1.9765 -5.7723 -0.8834
v 1.9491 -2.7708 -0.5481
v 1.9533 -2.8707 -0.5570
v 1.9576 -2.9706 -0.5661
v 1.9618 -3.0705 -0.5725
v 1.9661 -3.1704 -0.5763
v 1.9703 -3.2703 -0.5791
v 1.9746 -3.3702 -0.5818
v 1.9788 -3.4701 -0.5884
v 1.9830 -3.5701 -0.6006
v 1.9873 -3.6700 -0.6169
v 1.9915 -3.7699 -0.6359
v 1.9958 -3.8698 -0.6554
v 2.0000 -3.9697 -0.6731
v 2.0043 -4.0696 -0.6886
v 2.0085 -4.1695 -0.7009
v 2.0128 -4.2694 -0.7113
v 2.0170 -4.3693 -0.7226
v 2.0212 -4.4692 -0.7356
v 2.0255 -4.5692 -0.7516
v 2.0297 -4.6691 -0.7716
v 2.0340 -4.7690 -0.7928
v 2.0382 -4.8689 -0.8126
v 2.0425 -4.9688 -0.8297
v 2.0467 -5.0687 -0.8435
v 2.0510 -5.1686 -0.8542
v 2.0552 -5.2685 -0.8623
v 2.0594 -5.3684 -0.8693
v 2.0637 -5.4683 -0.8763
v 2.0679 -5.5683 -0.8829
v 2.0722 -5.6682 -0.8876
v 2.0764 -5.7681 -0.8906
v 2.0490 -2.7665 -0.5431
v 2.0533 -2.8664 -0.5511
v 2.0575 -2.9664 -0.5589
v 2.0617 -3.0663 -0.5638
v 2.0660 -3.1662 -0.5663
v 2.0702 -3.2661 -0.5685
v 2.0745 -3.3660 -0.5714
v 2.0787 -3.4659 -0.5788
v 2.0830 -3.5658 -0.5923
v 2.0872 -3.6657 -0.6103
v 2.0914 -3.7656 -0.6307
v 2.0957 -3.8655 -0.6507
v 2.0999 -3.9655 -0.6685
v 2.1042 -4.0654 -0.6839
v 2.1084 -4.1653 -0.6962
v 2.1127 -4.2652 -0.7067
v 2.1169 -4.3651 -0.7191
v 2.1212 -4.4650 -0.7336
v 2.1254 -4.5649 -0.7516
v 2.1296 -4.6648 -0.7732
v 2.1339 -4.7647 -0.7959
v 2.1381 -4.8646 -0.8165
v 2.1424 -4.9646 -0.8335
v 2.1466 -5.0645 -0.8469
v 2.1509 -5.1644 -0.8575
v 2.1551 -5.2643 -0.8659
v 2.1593 -5.3642 -0.8734
v 2.1636 -5.4641 -0.8811
v 2.1678 -5.5640 -0.8882
v 2.1721 -5.6639 -0.8931
v 2.1763 -5.7638 -0.8959
v 2.1489 -2.7623 -0.5414
v 2.1532 -2.8622 -0.5480
v 2.1574 -2.9621 -0.5545
v 2.1616 -3.0620 -0.5585
v 2.1659 -3.1619 -0.5602
v 2.1701 -3.2618 -0.5622
v 2.1744 -3.3617 -0.5656
v 2.1786 -3.4617 -0.5735
v 2.1829 -3.5616 -0.5874
v 2.1871 -3.6615 -0.6062
v 2.1914 -3.7614 -0.6272
v 2.1956 -3.8613 -0.6471
v 2.1998 -3.9612 -0.6649
v 2.2041 -4.0611 -0.6805
v 2.2083 -4.1610 -0.6932
v 2.2126 -4.2609 -0.7045
v 2.2168 -4.3608 -0.7182
v 2.2211 -4.4608 -0.7344
v 2.2253 -4.5607 -0.7539
v 2.2296 -4.6606 -0.7762
v 2.2338 -4.7605 -0.7991
v 2.2380 -4.8604 -0.8193
v 2.2423 -4.9603 -0.8355
v 2.2465 -5.0602 -0.8481
v 2.2508 -5.1601 -0.8584
v 2.2550 -5.2600 -0.8672
v 2.2593 -5.3599 -0.8753
v 2.2635 -5.4599 -0.8838
v 2.2677 -5.5598 -0.8915
v 2.2720 -5.6597 -0.8967
v 2.2762 -5.7596 -0.8995
v 2.2488 -2.7580 -0.5429
v 2.2531 -2.8580 -0.5479
v 2.2573 -2.9579 -0.5531
v 2.2616 -3.0578 -0.5564
v 2.2658 -3.1577 -0.5580
v 2.2700 -3.2576 -0.5603
v 2.2743 -3.3575 -0.5643
v 2.2785 -3.4574 -0.5725
v 2.2828 -3.5573 -0.5859
v 2.2870 -3.6572 -0.6044
v 2.2913 -3.7571 -0.6252
v 2.2955 -3.8571 -0.6447
v 2.2998 -3.9570 -0.6623
v 2.3040 -4.0569 -0.6783
v 2.3082 -4.1568 -0.6918
v 2.3125 -4.2567 -0.7045
v 2.3167 -4.3566 -0.7199
v 2.3210 -4.4565 -0.7379
v 2.3252 -4.5564 -0.7584
v 2.3295 -4.6563 -0.7805
v 2.3337 -4.7562 -0.8022
v 2.3379 -4.8562 -0.8211
v 2.3422 -4.9561 -0.8355
v 2.3464 -5.0560 -0.8470
v 2.3507 -5.1559 -0.8570
v 2.3549 -5.2558 -0.8663
v 2.3592 -5.3557 -0.8751
v 2.3634 -5.4556 -0.8846
v 2.3677 -5.5555 -0.8929
v 2.3719 -5.6554 -0.8982
v 2.3761 -5.7553 -0.9011
v 2.3487 -2.7538 -0.5475
v 2.3530 -2.8537 -0.5507
v 2.3572 -2.9536 -0.5544
v 2.3615 -3.0535 -0.5576
v 2.3657 -3.1534 -0.5597
v 2.3700 -3.2534 -0.5627
v 2.3742 -3.3533 -0.5676
v 2.3784 -3.4532 -0.5757
v 2.3827 -3.5531 -0.5876
v 2.3869 -3.6530 -0.6050
v 2.3912 -3.7529 -0.6247
v 2.3954 -3.8528 -0.6434
v 2.3997 -3.9527 -0.6608
v 2.4039 -4.0526 -0.6774
v 2.4082 -4.1525 -0.6923
v 2.4124 -4.2525 -0.7069
v 2.4166 -4.3524 -0.7244
v 2.4209 -4.4523 -0.7442
v 2.4251 -4.5522 -0.7651
v 2.4294 -4.6521 -0.7861
v 2.4336 -4.7520 -0.8054
v 2.4379 -4.8519 -0.8217
v 2.4421 -4.9518 -0.8336
v 2.4463 -5.0517 -0.8437
v 2.4506 -5.1516 -0.8532
v 2.4548 -5.2515 -0.8632
v 2.4591 -5.3515 -0.8728
v 2.4633 -5.4514 -0.8834
v 2.4676 -5.5513 -0.8922
v 2.4718 -5.6512 -0.8979
v 2.4761 -5.7511 -0.9009
v 2.4486 -2.7496 -0.5509
v 2.4529 -2.8495 -0.5526
v 2.4571 -2.9494 -0.5553
v 2.4614 -3.0493 -0.5585
v 2.4656 -3.1492 -0.5610
v 2.4699 -3.2491 -0.5647
v 2.4741 -3.3490 -0.5704
v 2.4784 -3.4489 -0.5785
v 2.4826 -3.5488 -0.5892
v 2.4868 -3.6487 -0.6052
v 2.4911 -3.7487 -0.6237
v 2.4953 -3.8486 -0.6413
v 2.4996 -3.9485 -0.6582
v 2.5038 -4.0484 -0.6751
v 2.5081 -4.1483 -0.6909
v 2.5123 -4.2482 -0.7070
v 2.5166 -4.3481 -0.7259
v 2.5208 -4.4480 -0.7470
v 2.5250 -4.5479 -0.7681
v 2.5293 -4.6478 -0.7880
v 2.5335 -4.7478 -0.8054
v 2.5378 -4.8477 -0.8198
v 2.5420 -4.9476 -0.8299
v 2.5463 -5.0475 -0.8391
v 2.5505 -5.1474 -0.8483
v 2.5547 -5.2473 -0.8585
v 2.5590 -5.3472 -0.8686
v 2.5632 -5.4471 -0.8797
v 2.5675 -5.5470 -0.8889
v 2.5717 -5.6469 -0.8948
v 2.5760 -5.7469 -0.8981
v 2.5486 -2.7453 -0.5529
v 2.5528 -2.8452 -0.5538
v 2.5570 -2.9451 -0.5557
v 2.5613 -3.0450 -0.5591
v 2.5655 -3.1450 -0.5622
v 2.5698 -3.2449 -0.5664
v 2.5740 -3.3448 -0.5728
v 2.5783 -3.4447 -0.5810
v 2.5825 -3.5446 -0.5905
v 2.5868 -3.6445 -0.6051
v 2.5910 -3.7444 -0.6221
v 2.5952 -3.8443 -0.6384
v 2.5995 -3.9442 -0.6546
v 2.6037 -4.0441 -0.6715
v 2.6080 -4.1441 -0.6878
v 2.6122 -4.2440 -0.7048
v 2.6165 -4.3439 -0.7245
v 2.6207 -4.4438 -0.7462
v 2.6249 -4.5437 -0.7672
v 2.6292 -4.6436 -0.7863
v 2.6334 -4.7435 -0.8023
v 2.6377 -4.8434 -0.8155
v 2.6419 -4.9433 -0.8247
v 2.6462 -5.0432 -0.8333
v 2.6504 -5.1432 -0.8422
v 2.6547 -5.2431 -0.8524
v 2.6589 -5.3430 -0.8624
v 2.6631 -5.4429 -0.8736
v 2.6674 -5.5428 -0.8830
v 2.6716 -5.6427 -0.8891
v 2.6759 -5.7426 -0.8928
v 2.6485 -2.7411 -0.5536
v 2.6527 -2.8410 -0.5541
v 2.6570 -2.9409 -0.5558
v 2.6612 -3.0408 -0.5594
v 2.6654 -3.1407 -0.5631
v 2.6697 -3.2406 -0.5678
v 2.6739 -3.3405 -0.5749
v 2.6782 -3.4404 -0.5831
v 2.6824 -3.5403 -0.5916
v 2.6867 -3.6403 -0.6046
v 2.6909 -3.7402 -0.6200
v 2.6952 -3.8401 -0.6347
v 2.6994 -3.9400 -0.6500
v 2.7036 -4.0399 -0.6666
v 2.7079 -4.1398 -0.6831
v 2.7121 -4.2397 -0.7004
v 2.7164 -4.3396 -0.7204
v 2.7206 -4.4395 -0.7420
v 2.7249 -4.5394 -0.7625
v 2.7291 -4.6394 -0.7809
v 2.7333 -4.7393 -0.7961
v 2.7376 -4.8392 -0.8087
v 2.7418 -4.9391 -0.8177
v 2.7461 -5.0390 -0.8262
v 2.7503 -5.1389 -0.8349
v 2.7546 -5.2388 -0.8447
v 2.7588 -5.3387 -0.8543
v 2.7631 -5.4386 -0.8651
v 2.7673 -5.5385 -0.8748
v 2.7715 -5.6385 -0.8817
v 2.7758 -5.7384 -0.8864
v 2.7484 -2.7368 -0.5530
v 2.7526 -2.8367 -0.5537
v 2.7569 -2.9366 -0.5554
v 2.7611 -3.0366 -0.5595
v 2.7654 -3.1365 -0.5639
v 2.7696 -3.2364 -0.5690
v 2.7738 -3.3363 -0.5766
v 2.7781 -3.4362 -0.5849
v 2.7823 -3.5361 -0.5925
v 2.7866 -3.6360 -0.6037
v 2.7908 -3.7359 -0.6173
v 2.7951 -3.8358 -0.6302
v 2.7993 -3.9357 -0.6443
v 2.8035 -4.0357 -0.6603
v 2.8078 -4.1356 -0.6766
v 2.8120 -4.2355 -0.6937
v 2.8163 -4.3354 -0.7134
v 2.8205 -4.4353 -0.7343
v 2.8248 -4.5352 -0.7541
v 2.8290 -4.6351 -0.7718
v 2.8333 -4.7350 -0.7868
v 2.8375 -4.8349 -0.7994
v 2.8417 -4.9348 -0.8090
v 2.8460 -5.0348 -0.8180
v 2.8502 -5.1347 -0.8266
v 2.8545 -5.2346 -0.8356
v 2.8587 -5.3345 -0.8443
v 2.8630 -5.4344 -0.8540
v 2.8672 -5.5343 -0.8648
v 2.8715 -5.6342 -0.8733
v 2.8757 -5.7341 -0.8799
v 2.8483 -2.7326 -0.5511
v 2.8525 -2.8325 -0.5525
v 2.8568 -2.9324 -0.5546
v 2.8610 -3.0323 -0.5593
v 2.8653 -3.1322 -0.5645
v 2.8695 -3.2321 -0.5699
v 2.8738 -3.3320 -0.5779
v 2.8780 -3.4320 -0.5863
v 2.8822 -3.5319 -0.5931
v 2.8865 -3.6318 -0.6024
v 2.8907 -3.7317 -0.6139
v 2.8950 -3.8316 -0.6248
v 2.8992 -3.9315 -0.6375
v 2.9035 -4.0314 -0.6525
v 2.9077 -4.1313 -0.6683
v 2.9119 -4.2312 -0.6847
v 2.9162 -4.3311 -0.7035
v 2.9204 -4.4311 -0.7230
v 2.9247 -4.5310 -0.7419
v 2.9289 -4.6309 -0.7590
v 2.9332 -4.7308 -0.7744
v 2.9374 -4.8307 -0.7877
v 2.9417 -4.9306 -0.7988
v 2.9459 -5.0305 -0.8085
v 2.9501 -5.1304 -0.8172
v 2.9544 -5.2303 -0.8251
v 2.9586 -5.3302 -0.8324
v 2.9629 -5.4302 -0.8406
v 2.9671 -5.5301 -0.8530
v 2.9714 -5.6300 -0.8637
v 2.9756 -5.7299 -0.8733
v 2.9482 -2.7283 -0.5498
v 2.9524 -2.8282 -0.5520
v 2.9567 -2.9282 -0.5549
v 2.9609 -3.0281 -0.5605
v 2.9652 -3.1280 -0.5666
v 2.9694 -3.2279 -0.5726
v 2.9737 -3.3278 -0.5812
v 2.9779 -3.4277 -0.5899
v 2.9821 -3.5276 -0.5965
v 2.9864 -3.6275 -0.6045
v 2.9906 -3.7274 -0.6147
v 2.9949 -3.8273 -0.6245
v 2.9991 -3.9273 -0.6364
v 3.0034 -4.0272 -0.6510
v 3.0076 -4.1271 -0.6666
v 3.0119 -4.2270 -0.6826
v 3.0161 -4.3269 -0.7005
v 3.0203 -4.4268 -0.7189
v 3.0246 -4.5267 -0.7368
v 3.0288 -4.6266 -0.7533
v 3.0331 -4.7265 -0.7687
v 3.0373 -4.8264 -0.7824
v 3.0416 -4.9264 -0.7946
v 3.0458 -5.0263 -0.8053
v 3.0501 -5.1262 -0.8144
v 3.0543 -5.2261 -0.8220
v 3.0585 -5.3260 -0.8288
v 3.0628 -5.4259 -0.8362
v 3.0670 -5.5258 -0.8495
v 3.0713 -5.6257 -0.8617
v 3.0755 -5.7256 -0.8731
v 3.0481 -2.7241 -0.5490
v 3.0524 -2.8240 -0.5522
v 3.0566 -2.9239 -0.5560
v 3.0608 -3.0238 -0.5628
v 3.0651 -3.1237 -0.5702
v 3.0693 -3.2236 -0.5772
v 3.0736 -3.3236 -0.5864
v 3.0778 -3.4235 -0.5957
v 3.0821 -3.5234 -0.6024
v 3.0863 -3.6233 -0.6099
v 3.0905 -3.7232 -0.6197
v 3.0948 -3.8231 -0.6291
v 3.0990 -3.9230 -0.6411
v 3.1033 -4.0229 -0.6557
v 3.1075 -4.1228 -0.6714
v 3.1118 -4.2227 -0.6872
v 3.1160 -4.3227 -0.7046
v 3.1203 -4.4226 -0.7220
v 3.1245 -4.5225 -0.7389
v 3.1287 -4.6224 -0.7546
v 3.1330 -4.7223 -0.7696
v 3.1372 -4.8222 -0.7835
v 3.1415 -4.9221 -0.7964
v 3.1457 -5.0220 -0.8083
v 3.1500 -5.1219 -0.8183
v 3.1542 -5.2218 -0.8264
v 3.1584 -5.3218 -0.8336
v 3.1627 -5.4217 -0.8409
v 3.1669 -5.5216 -0.8545
v 3.1712 -5.6215 -0.8672
v 3.1754 -5.7214 -0.8791
v 3.1480 -2.7199 -0.5488
v 3.1523 -2.8198 -0.5530
v 3.1565 -2.9197 -0.5581
v 3.1607 -3.0196 -0.5663
v 3.1650 -3.1195 -0.5753
v 3.1692 -3.2194 -0.5836
v 3.1735 -3.3193 -0.5936
v 3.1777 -3.4192 -0.6035
v 3.1820 -3.5191 -0.6109
v 3.1862 -3.6190 -0.6187
v 3.1905 -3.7189 -0.6287
v 3.1947 -3.8189 -0.6388
v 3.1989 -3.9188 -0.6514
v 3.2032 -4.0187 -0.6666
v 3.2074 -4.1186 -0.6828
v 3.2117 -4.2185 -0.6986
v 3.2159 -4.3184 -0.7155
v 3.2202 -4.4183 -0.7322
v 3.2244 -4.5182 -0.7481
v 3.2287 -4.6181 -0.7628
v 3.2329 -4.7180 -0.7773
v 3.2371 -4.8180 -0.7910
v 3.2414 -4.9179 -0.8044
v 3.2456 -5.0178 -0.8174
v 3.2499 -5.1177 -0.8287
v 3.2541 -5.2176 -0.8382
v 3.2584 -5.3175 -0.8466
v 3.2626 -5.4174 -0.8546
v 3.2668 -5.5173 -0.8677
v 3.2711 -5.6172 -0.8798
v 3.2753 -5.7171 -0.8910
v 3.2479 -2.7156 -0.5492
v 3.2522 -2.8155 -0.5545
v 3.2564 -2.9154 -0.5610
v 3.2607 -3.0153 -0.5711
v 3.2649 -3.1152 -0.5818
v 3.2691 -3.2152 -0.5918
v 3.2734 -3.3151 -0.6027
v 3.2776 -3.4150 -0.6135
v 3.2819 -3.5149 -0.6220
v 3.2861 -3.6148 -0.6307
v 3.2904 -3.7147 -0.6417
v 3.2946 -3.8146 -0.6534
v 3.2989 -3.9145 -0.6676
v 3.3031 -4.0144 -0.6837
v 3.3073 -4.1143 -0.7007
v 3.3116 -4.2143 -0.7168
v 3.3158 -4.3142 -0.7335
v 3.3201 -4.4141 -0.7495
v 3.3243 -4.5140 -0.7644
v 3.3286 -4.6139 -0.7780
v 3.3328 -4.7138 -0.7916
v 3.3370 -4.8137 -0.8049
v 3.3413 -4.9136 -0.8183
v 3.3455 -5.0135 -0.8326
v 3.3498 -5.1134 -0.8457
v 3.3540 -5.2134 -0.8574
v 3.3583 -5.3133 -0.8680
v 3.3625 -5.4132 -0.8773
v 3.3668 -5.5131 -0.8894
v 3.3710 -5.6130 -0.8998
v 3.3752 -5.7129 -0.9091
v 3.3478 -2.7114 -0.5501
v 3.3521 -2.8113 -0.5566
v 3.3563 -2.9112 -0.5649
v 3.3606 -3.0111 -0.5770
v 3.3648 -3.1110 -0.5898
v 3.3691 -3.2109 -0.6018
v 3.3733 -3.3108 -0.6137
v 3.3775 -3.4107 -0.6255
v 3.3818 -3.5106 -0.6357
v 3.3860 -3.6106 -0.6462
v 3.3903 -3.7105 -0.6591
v 3.3945 -3.8104 -0.6732
v 3.3988 -3.9103 -0.6895
v 3.4030 -4.0102 -0.7071
v 3.4073 -4.1101 -0.7253
v 3.4115 -4.2100 -0.7419
v 3.4157 -4.3099 -0.7584
v 3.4200 -4.4098 -0.7740
v 3.4242 -4.5097 -0.7877
v 3.4285 -4.6097 -0.8000
v 3.4327 -4.7096 -0.8125
v 3.4370 -4.8095 -0.8251
v 3.4412 -4.9094 -0.8383
v 3.4454 -5.0093 -0.8539
v 3.4497 -5.1092 -0.8693
v 3.4539 -5.2091 -0.8840
v 3.4582 -5.3090 -0.8977
v 3.4624 -5.4089 -0.9091
v 3.4667 -5.5088 -0.9194
v 3.4709 -5.6088 -0.9274
v 3.4752 -5.7087 -0.9336
v 3.4477 -2.7071 -0.5529
v 3.4520 -2.8070 -0.5603
v 3.4562 -2.9069 -0.5700
v 3.4605 -3.0068 -0.5837
v 3.4647 -3.1068 -0.5980
v 3.4690 -3.2067 -0.6116
v 3.4732 -3.3066 -0.6245
v 3.4775 -3.4065 -0.6371
v 3.4817 -3.5064 -0.6485
v 3.4859 -3.6063 -0.6603
v 3.4902 -3.7062 -0.6745
v 3.4944 -3.8061 -0.6904
v 3.4987 -3.9060 -0.7084
v 3.5029 -4.0059 -0.7270
v 3.5072 -4.1059 -0.7461
v 3.5114 -4.2058 -0.7628
v 3.5156 -4.3057 -0.7790
v 3.5199 -4.4056 -0.7941
v 3.5241 -4.5055 -0.8067
v 3.5284 -4.6054 -0.8179
v 3.5326 -4.7053 -0.8296
v 3.5369 -4.8052 -0.8415
v 3.5411 -4.9051 -0.8547
v 3.5454 -5.0050 -0.8714
v 3.5496 -5.1050 -0.8885
v 3.5538 -5.2049 -0.9054
v 3.5581 -5.3048 -0.9212
v 3.5623 -5.4047 -0.9338
v 3.5666 -5.5046 -0.9429
v 3.5708 -5.6045 -0.9490
v 3.5751 -5.7044 -0.9529
v 3.5477 -2.7029 -0.5575
v 3.5519 -2.8028 -0.5656
v 3.5561 -2.9027 -0.5764
v 3.5604 -3.0026 -0.5912
v 3.5646 -3.1025 -0.6066
v 3.5689 -3.2024 -0.6213
v 3.5731 -3.3023 -0.6349
v 3.5774 -3.4022 -0.6480
v 3.5816 -3.5022 -0.6603
v 3.5859 -3.6021 -0.6731
v 3.5901 -3.7020 -0.6881
v 3.5943 -3.8019 -0.7052
v 3.5986 -3.9018 -0.7242
v 3.6028 -4.0017 -0.7435
v 3.6071 -4.1016 -0.7630
v 3.6113 -4.2015 -0.7797
v 3.6156 -4.3014 -0.7955
v 3.6198 -4.4013 -0.8098
v 3.6240 -4.5013 -0.8214
v 3.6283 -4.6012 -0.8317
v 3.6325 -4.7011 -0.8427
v 3.6368 -4.8010 -0.8543
v 3.6410 -4.9009 -0.8676
v 3.6453 -5.0008 -0.8850
v 3.6495 -5.1007 -0.9033
v 3.6538 -5.2006 -0.9215
v 3.6580 -5.3005 -0.9384
v 3.6622 -5.4004 -0.9516
v 3.6665 -5.5004 -0.9594
v 3.6707 -5.6003 -0.9637
v 3.6750 -5.7002 -0.9657
v 3.6476 -2.6986 -0.5640
v 3.6518 -2.7985 -0.5726
v 3.6561 -2.8985 -0.5841
v 3.6603 -2.9984 -0.5995
v 3.6645 -3.0983 -0.6155
v 3.6688 -3.1982 -0.6309
v 3.6730 -3.2981 -0.6450
v 3.6773 -3.3980 -0.6585
v 3.6815 -3.4979 -0.6713
v 3.6858 -3.5978 -0.6846
v 3.6900 -3.6977 -0.6999
v 3.6942 -3.7976 -0.7175
v 3.6985 -3.8976 -0.7370
v 3.7027 -3.9975 -0.7566
v 3.7070 -4.0974 -0.7761
v 3.7112 -4.1973 -0.7926
v 3.7155 -4.2972 -0.8078
v 3.7197 -4.3971 -0.8213
v 3.7240 -4.4970 -0.8319
v 3.7282 -4.5969 -0.8414
v 3.7324 -4.6968 -0.8520
v 3.7367 -4.7967 -0.8633
v 3.7409 -4.8966 -0.8768
v 3.7452 -4.9966 -0.8948
v 3.7494 -5.0965 -0.9137
v 3.7537 -5.1964 -0.9325
v 3.7579 -5.2963 -0.9495
v 3.7622 -5.3962 -0.9625
v 3.7664 -5.4961 -0.9676
v 3.7706 -5.5960 -0.9692
v 3.7749 -5.6959 -0.9685
v 3.7475 -2.6944 -0.5725
v 3.7517 -2.7943 -0.5813
v 3.7560 -2.8942 -0.5931
v 3.7602 -2.9941 -0.6087
v 3.7645 -3.0940 -0.6247
v 3.7687 -3.1939 -0.6403
v 3.7729 -3.2938 -0.6549
v 3.7772 -3.3938 -0.6683
v 3.7814 -3.4937 -0.6813
v 3.7857 -3.5936 -0.6947
v 3.7899 -3.6935 -0.7099
v 3.7942 -3.7934 -0.7273
v 3.7984 -3.8933 -0.7468
v 3.8026 -3.9932 -0.7662
v 3.8069 -4.0931 -0.7853
v 3.8111 -4.1930 -0.8014
v 3.8154 -4.2929 -0.8160
v 3.8196 -4.3929 -0.8285
v 3.8239 -4.4928 -0.8382
v 3.8281 -4.5927 -0.8472
v 3.8324 -4.6926 -0.8575
v 3.8366 -4.7925 -0.8687
v 3.8408 -4.8924 -0.8825
v 3.8451 -4.9923 -0.9007
v 3.8493 -5.0922 -0.9197
v 3.8536 -5.1921 -0.9382
v 3.8578 -5.2920 -0.9544
v 3.8621 -5.3920 -0.9664
v 3.8663 -5.4919 -0.9689
v 3.8705 -5.5918 -0.9678
v 3.8748 -5.6917 -0.9648
v 3.8474 -2.6901 -0.5827
v 3.8516 -2.7901 -0.5916
v 3.8559 -2.8900 -0.6034
v 3.8601 -2.9899 -0.6187
v 3.8644 -3.0898 -0.6342
v 3.8686 -3.1897 -0.6496
v 3.8728 -3.2896 -0.6644
v 3.8771 -3.3895 -0.6775
v 3.8813 -3.4894 -0.6904
v 3.8856 -3.5893 -0.7035
v 3.8898 -3.6892 -0.7181
v 3.8941 -3.7892 -0.7346
v 3.8983 -3.8891 -0.7535
v 3.9026 -3.9890 -0.7723
v 3.9068 -4.0889 -0.7906
v 3.9110 -4.1888 -0.8062
v 3.9153 -4.2887 -0.8200
v 3.9195 -4.3886 -0.8314
v 3.9238 -4.4885 -0.8404
v 3.9280 -4.5884 -0.8492
v 3.9323 -4.6883 -0.8593
v 3.9365 -4.7883 -0.8704
v 3.9408 -4.8882 -0.8847
v 3.9450 -4.9881 -0.9028
v 3.9492 -5.0880 -0.9213
v 3.9535 -5.1879 -0.9386
v 3.9577 -5.2878 -0.9531
v 3.9620 -5.3877 -0.9634
v 3.9662 -5.4876 -0.9632
v 3.9705 -5.5875 -0.9596
v 3.9747 -5.6874 -0.9546
v 3.9473 -2.6859 -0.5900
v 3.9515 -2.7858 -0.5981
v 3.9558 -2.8857 -0.6090
v 3.9600 -2.9856 -0.6233
v 3.9643 -3.0855 -0.6379
v 3.9685 -3.1854 -0.6527
v 3.9728 -3.2854 -0.6679
v 3.9770 -3.3853 -0.6812
v 3.9812 -3.4852 -0.6945
v 3.9855 -3.5851 -0.7080
v 3.9897 -3.6850 -0.7226
v 3.9940 -3.7849 -0.7388
v 3.9982 -3.8848 -0.7574
v 4.0025 -3.9847 -0.7760
v 4.0067 -4.0846 -0.7938
v 4.0110 -4.1845 -0.8090
v 4.0152 -4.2845 -0.8222
v 4.0194 -4.3844 -0.8327
v 4.0237 -4.4843 -0.8409
v 4.0279 -4.5842 -0.8492
v 4.0322 -4.6841 -0.8590
v 4.0364 -4.7840 -0.8696
v 4.0407 -4.8839 -0.8836
v 4.0449 -4.9838 -0.9009
v 4.0491 -5.0837 -0.9185
v 4.0534 -5.1836 -0.9345
v 4.0576 -5.2836 -0.9473
v 4.0619 -5.3835 -0.9562
v 4.0661 -5.4834 -0.9547
v 4.0704 -5.5833 -0.9500
v 4.0746 -5.6832 -0.9442
v 4.0472 -2.6817 -0.5942
v 4.0515 -2.7816 -0.6009
v 4.0557 -2.8815 -0.6102
v 4.0599 -2.9814 -0.6225
v 4.0642 -3.0813 -0.6355
v 4.0684 -3.1812 -0.6496
v 4.0727 -3.2811 -0.6652
v 4.0769 -3.3810 -0.6793
v 4.0812 -3.4809 -0.6936
v 4.0854 -3.5808 -0.7082
v 4.0896 -3.6808 -0.7234
v 4.0939 -3.7807 -0.7399
v 4.0981 -3.8806 -0.7585
v 4.1024 -3.9805 -0.7772
v 4.1066 -4.0804 -0.7947
v 4.1109 -4.1803 -0.8098
v 4.1151 -4.2802 -0.8225
v 4.1194 -4.3801 -0.8324
v 4.1236 -4.4800 -0.8398
v 4.1278 -4.5799 -0.8475
v 4.1321 -4.6799 -0.8565
v 4.1363 -4.7798 -0.8662
v 4.1406 -4.8797 -0.8794
v 4.1448 -4.9796 -0.8952
v 4.1491 -5.0795 -0.9113
v 4.1533 -5.1794 -0.9256
v 4.1575 -5.2793 -0.9371
v 4.1618 -5.3792 -0.9448
v 4.1660 -5.4791 -0.9438
v 4.1703 -5.5790 -0.9398
v 4.1745 -5.6790 -0.9348
v 4.1471 -2.6774 -0.5955
v 4.1514 -2.7773 -0.6001
v 4.1556 -2.8772 -0.6068
v 4.1598 -2.9771 -0.6165
v 4.1641 -3.0771 -0.6273
v 4.1683 -3.1770 -0.6404
v 4.1726 -3.2769 -0.6564
v 4.1768 -3.3768 -0.6718
v 4.1811 -3.4767 -0.6877
v 4.1853 -3.5766 -0.7040
v 4.1896 -3.6765 -0.7206
v 4.1938 -3.7764 -0.7379
v 4.1980 -3.8763 -0.7568
v 4.2023 -3.9762 -0.7758
v 4.2065 -4.0762 -0.7934
v 4.2108 -4.1761 -0.8085
v 4.2150 -4.2760 -0.8210
v 4.2193 -4.3759 -0.8304
v 4.2235 -4.4758 -0.8370
v 4.2278 -4.5757 -0.8439
v 4.2320 -4.6756 -0.8519
v 4.2362 -4.7755 -0.8604
v 4.2405 -4.8754 -0.8720
v 4.2447 -4.9753 -0.8857
v 4.2490 -5.0752 -0.8999
v 4.2532 -5.1752 -0.9123
v 4.2575 -5.2751 -0.9223
v 4.2617 -5.3750 -0.9291
v 4.2659 -5.4749 -0.9314
v 4.2702 -5.5748 -0.9307
v 4.2744 -5.6747 -0.9291
v 4.2470 -2.6732 -0.5937
v 4.2513 -2.7731 -0.5955
v 4.2555 -2.8730 -0.5988
v 4.2598 -2.9729 -0.6051
v 4.2640 -3.0728 -0.6131
v 4.2682 -3.1727 -0.6250
v 4.2725 -3.2726 -0.6415
v 4.2767 -3.3725 -0.6588
v 4.2810 -3.4724 -0.6769
v 4.2852 -3.5724 -0.6956
v 4.2895 -3.6723 -0.7141
v 4.2937 -3.7722 -0.7327
v 4.2980 -3.8721 -0.7523
v 4.3022 -3.9720 -0.7720
v 4.3064 -4.0719 -0.7899
v 4.3107 -4.1718 -0.8052
v 4.3149 -4.2717 -0.8175
v 4.3192 -4.3716 -0.8266
v 4.3234 -4.4715 -0.8326
v 4.3277 -4.5715 -0.8384
v 4.3319 -4.6714 -0.8452
v 4.3361 -4.7713 -0.8521
v 4.3404 -4.8712 -0.8616
v 4.3446 -4.9711 -0.8727
v 4.3489 -5.0710 -0.8844
v 4.3531 -5.1709 -0.8946
v 4.3574 -5.2708 -0.9033
v 4.3616 -5.3707 -0.9093
v 4.3659 -5.4706 -0.9158
v 4.3701 -5.5706 -0.9193
v 4.3743 -5.6705 -0.9219
v 4.3469 -2.6689 -0.5889
v 4.3512 -2.7688 -0.5872
v 4.3554 -2.8687 -0.5863
v 4.3597 -2.9687 -0.5883
v 4.3639 -3.0686 -0.5930
v 4.3682 -3.1685 -0.6035
v 4.3724 -3.2684 -0.6206
v 4.3766 -3.3683 -0.6402
v 4.3809 -3.4682 -0.6611
v 4.3851 -3.5681 -0.6830
v 4.3894 -3.6680 -0.7040
v 4.3936 -3.7679 -0.7246
v 4.3979 -3.8678 -0.7451
v 4.4021 -3.9678 -0.7658
v 4.4064 -4.0677 -0.7843
v 4.4106 -4.1676 -0.7998
v 4.4148 -4.2675 -0.8121
v 4.4191 -4.3674 -0.8212
v 4.4233 -4.4673 -0.8263
v 4.4276 -4.5672 -0.8309
v 4.4318 -4.6671 -0.8363
v 4.4361 -4.7670 -0.8414
v 4.4403 -4.8669 -0.8482
v 4.4445 -4.9669 -0.8560
v 4.4488 -5.0668 -0.8646
v 4.4530 -5.1667 -0.8725
v 4.4573 -5.2666 -0.8798
v 4.4615 -5.3665 -0.8853
v 4.4658 -5.4664 -0.8969
v 4.4700 -5.5663 -0.9057
v 4.4743 -5.6662 -0.9133
v 4.4468 -2.6647 -0.5851
v 4.4511 -2.7646 -0.5806
v 4.4553 -2.8645 -0.5762
v 4.4596 -2.9644 -0.5748
v 4.4638 -3.0643 -0.5769
v 4.4681 -3.1642 -0.5862
v 4.4723 -3.2641 -0.6039
v 4.4766 -3.3640 -0.6254
v 4.4808 -3.4640 -0.6486
v 4.4850 -3.5639 -0.6729
v 4.4893 -3.6638 -0.6960
v 4.4935 -3.7637 -0.7180
v 4.4978 -3.8636 -0.7393
v 4.5020 -3.9635 -0.7608
v 4.5063 -4.0634 -0.7797
v 4.5105 -4.1633 -0.7955
v 4.5147 -4.2632 -0.8077
v 4.5190 -4.3631 -0.8169
v 4.5232 -4.4631 -0.8213
v 4.5275 -4.5630 -0.8248
v 4.5317 -4.6629 -0.8292
v 4.5360 -4.7628 -0.8328
v 4.5402 -4.8627 -0.8375
v 4.5445 -4.9626 -0.8427
v 4.5487 -5.0625 -0.8490
v 4.5529 -5.1624 -0.8549
v 4.5572 -5.2623 -0.8611
v 4.5614 -5.3622 -0.8662
v 4.5657 -5.4622 -0.8819
v 4.5699 -5.5621 -0.8949
v 4.5742 -5.6620 -0.9064
v 4.5468 -2.6604 -0.5823
v 4.5510 -2.7603 -0.5756
v 4.5552 -2.8603 -0.5687
v 4.5595 -2.9602 -0.5647
v 4.5637 -3.0601 -0.5647
v 4.5680 -3.1600 -0.5732
v 4.5722 -3.2599 -0.5914
v 4.5765 -3.3598 -0.6142
v 4.5807 -3.4597 -0.6391
v 4.5850 -3.5596 -0.6653
v 4.5892 -3.6595 -0.6901
v 4.5934 -3.7594 -0.7132
v 4.5977 -3.8594 -0.7349
v 4.6019 -3.9593 -0.7570
v 4.6062 -4.0592 -0.7763
v 4.6104 -4.1591 -0.7922
v 4.6147 -4.2590 -0.8045
v 4.6189 -4.3589 -0.8136
v 4.6231 -4.4588 -0.8176
v 4.6274 -4.5587 -0.8203
v 4.6316 -4.6586 -0.8240
v 4.6359 -4.7585 -0.8265
v 4.6401 -4.8585 -0.8296
v 4.6444 -4.9584 -0.8329
v 4.6486 -5.0583 -0.8373
v 4.6529 -5.1582 -0.8418
v 4.6571 -5.2581 -0.8471
v 4.6613 -5.3580 -0.8518
v 4.6656 -5.4579 -0.8706
v 4.6698 -5.5578 -0.8867
v 4.6741 -5.6577 -0.9012
f 1 2 33 32
f 2 3 34 33
f 3 4 35 34
f 4 5 36 35
f 5 6 37 36
f 6 7 38 37
f 7 8 39 38
f 8 9 40 39
f 9 10 41 40
f 10 11 42 41
f 11 12 43 42
f 12 13 44 43
f 13 14 45 44
f 14 15 46 45
f 15 16 47 46
f 16 17 48 47
f 17 18 49 48
f 18 19 50 49
f 19 20 51 50
f 20 21 52 51
f 21 22 53 52
f 22 23 54 53
f 23 24 55 54
f 24 25 56 55
f 25 26 57 56
f 26 27 58 57
f 27 28 59 58
f 28 29 60 59
f 29 30 61 60
f 30 31 62 61
f 32 33 64 63
f 33 34 65 64
f 34 35 66 65
f 35 36 67 66
f 36 37 68 67
f 37 38 69 68
f 38 39 70 69
f 39 40 71 70
f 40 41 72 71
f 41 42 73 72
f 42 43 74 73
f 43 44 75 74
f 44 45 76 75
f 45 46 77 76
f 46 47 78 77
f 47 48 79 78
f 48 49 80 79
f 49 50 81 80
f 50 51 82 81
f 51 52 83 82
f 52 53 84 83
f 53 54 85 84
f 54 55 86 85
f 55 56 87 86
f 56 57 88 87
f 57 58 89 88
f 58 59 90 89
f 59 60 91 90
f 60 61 92 91
f 61 62 93 92
f 63 64 95 94
f 64 65 96 95
f 65 66 97 96
f 66 67 98 97
f 67 68 99 98
f 68 69 100 99
f 69 70 101 100
f 70 71 102 101
f 71 72 103 102
f 72 73 104 103
f 73 74 105 104
f 74 75 106 105
f 75 76 107 106
f 76 77 108 107
f 77 78 109 108
f 78 79 110 109
f 79 80 111 110
f 80 81 112 111
f 81 82 113 112
f 82 83 114 113
f 83 84 115 114
f 84 85 116 115
f 85 86 117 116
f 86 87 118 117
f 87 88 119 118
f 88 89 120 119
f 89 90 121 120
f 90 91 122 121
f 91 92 123 122
f 92 93 124 123
f 94 95 126 125
f 95 96 127 126
f 96 97 128 127
f 97 98 129 128
f 98 99 130 129
f 99 100 131 130
f 100 101 132 131
f 101 102 133 132
f 102 103 134 133
f 103 104 135 134
f 104 105 136 135
f 105 106 137 136
f 106 107 138 137
f 107 108 139 138
f 108 109 140 139
f 109 110 141 140
f 110 111 142 141
f 111 112 143 142
f 112 113 144 143
f 113 114 145 144
f 114 115 146 145
f 115 116 147 146
f 116 117 148 147
f 117 118 149 148
f 118 119 150 149
f 119 120 151 150
f 120 121 152 151
f 121 122 153 152
f 122 123 154 153
f 123 124 155 154
f 125 126 157 156
f 126 127 158 157
f 127 128 159 158
f 128 129 160 159
f 129 130 161 160
f 130 131 162 161
f 131 132 163 162
f 132 133 164 163
f 133 134 165 164
f 134 135 166 165
f 135 136 167 166
f 136 137 168 167
f 137 138 169 168
f 138 139 170 169
f 139 140 171 170
f 140 141 172 171
f 141 142 173 172
f 142 143 174 173
f 143 144 175 174
f 144 145 176 175
f 145 146 177 176
f 146 147 178 177
f 147 148 179 178
f 148 149 180 179
f 149 150 181 180
f 150 151 182 181
f 151 152 183 182
f 152 153 184 183
f 153 154 185 184
f 154 155 186 185
f 156 157 188 187
f 157 158 189 188
f 158 159 190 189
f 159 160 191 190
f 160 161 192 191
f 161 162 193 192
f 162 163 194 193
f 163 164 195 194
f 164 165 196 195
f 165 166 197 196
f 166 167 198 197
f 167 168 199 198
f 168 169 200 199
f 169 170 201 200
f 170 171 202 201
f 171 172 203 202
f 172 173 204 203
f 173 174 205 204
f 174 175 206 205
f 175 176 207 206
f 176 177 208 207
f 177 178 209 208
f 178 179 210 209
f 179 180 211 210
f 180 181 212 211
f 181 182 213 212
f 182 183 214 213
f 183 184 215 214
f 184 185 216 215
f 185 186 217 216
f 187 188 219 218
f 188 189 220 219
f 189 190 221 220
f 190 191 222 221
f 191 192 223 222
f 192 193 224 223
f 193 194 225 224
f 194 195 226 225
f 195 196 227 226
f 196 197 228 227
f 197 198 229 228
f 198 199 230 229
f 199 200 231 230
f 200 201 232 231
f 201 202 233 232
f 202 203 234 233
f 203 204 235 234
f 204 205 236 235
f 205 206 237 236
f 206 207 238 237
f 207 208 239 238
f 208 209 240 239
f 209 210 241 240
f 210 211 242 241
f 211 212 243 242
f 212 213 244 243
f 213 214 245 244
f 214 215 246 245
f 215 216 247 246
f 216 217 248 247
f 218 219 250 249
f 219 220 251 250
f 220 221 252 251
f 221 222 253 252
f 222 223 254 253
f 223 224 255 254
f 224 225 256 255
f 225 226 257 256
f 226 227 258 257
f 227 228 259 258
f 228 229 260 259
f 229 230 261 260
f 230 231 262 261
f 231 232 263 262
f 232 233 264 263
f 233 234 265 264
f 234 235 266 265
f 235 236 267 266
f 236 237 268 267
f 237 238 269 268
f 238 239 270 269
f 239 240 271 270
f 240 241 272 271
f 241 242 273 272
f 242 243 274 273
f 243 244 275 274
f 244 245 276 275
f 245 246 277 276
f 246 247 278 277
f 247 248 279 278
f 249 250 281 280
f 250 251 282 281
f 251 252 283 282
f 252 253 284 283
f 253 254 285 284
f 254 255 286 285
f 255 256 287 286
f 256 257 288 287
f 257 258 289 288
f 258 259 290 289
f 259 260 291 290
f 260 261 292 291
f 261 262 293 292
f 262 263 294 293
f 263 264 295 294
f 264 265 296 295
f 265 266 297 296
f 266 267 298 297
f 267 268 299 298
f 268 269 300 299
f 269 270 301 300
f 270 271 302 301
f 271 272 303 302
f 272 273 304 303
f 273 274 305 304
f 274 275 306 305
f 275 276 307 306
f 276 277 308 307
f 277 278 309 308
f 278 279 310 309
f 280 281 312 311
f 281 282 313 312
f 282 283 314 313
f 283 284 315 314
f 284 285 316 315
f 285 286 317 316
f 286 287 318 317
f 287 288 319 318
f 288 289 320 319
f 289 290 321 320
f 290 291 322 321
f 291 292 323 322
f 292 293 324 323
f 293 294 325 324
f 294 295 326 325
f 295 296 327 326
f 296 297 328 327
f 297 298 329 328
f 298 299 330 329
f 299 300 331 330
f 300 301 332 331
f 301 302 333 332
f 302 303 334 333
f 303 304 335 334
f 304 305 336 335
f 305 306 337 336
f 306 307 338 337
f 307 308 339 338
f 308 309 340 339
f 309 310 341 340
f 311 312 343 342
f 312 313 344 343
f 313 314 345 344
f 314 315 346 345
f 315 316 347 346
f 316 317 348 347
f 317 318 349 348
f 318 319 350 349
f 319 320 351 350
f 320 321 352 351
f 321 322 353 352
f 322 323 354 353
f 323 324 355 354
f 324 325 356 355
f 325 326 357 356
f 326 327 358 357
f 327 328 359 358
f 328 329 360 359
f 329 330 361 360
f 330 331 362 361
f 331 332 363 362
f 332 333 364 363
f 333 334 365 364
f 334 335 366 365
f 335 336 367 366
f 336 337 368 367
f 337 338 369 368
f 338 339 370 369
f 339 340 371 370
f 340 341 372 371
f 342 343 374 373
f 343 344 375 374
f 344 345 376 375
f 345 346 377 376
f 346 347 378 377
f 347 348 379 378
f 348 349 380 379
f 349 350 381 380
f 350 351 382 381
f 351 352 383 382
f 352 353 384 383
f 353 354 385 384
f 354 355 386 385
f 355 356 387 386
f 356 357 388 387
f 357 358 389 388
f 358 359 390 389
f 359 360 391 390
f 360 361 392 391
f 361 362 393 392
f 362 363 394 393
f 363 364 395 394
f 364 365 396 395
f 365 366 397 396
f 366 367 398 397
f 367 368 399 398
f 368 369 400 399
f 369 370 401 400
f 370 371 402 401
f 371 372 403 402
f 373 374 405 404
f 374 375 406 405
f 375 376 407 406
f 376 377 408 407
f 377 378 409 408
f 378 379 410 409
f 379 380 411 410
f 380 381 412 411
f 381 382 413 412
f 382 383 414 413
f 383 384 415 414
f 384 385 416 415
f 385 386 417 416
f 386 387 418 417
f 387 388 419 418
f 388 389 420 419
f 389 390 421 420
f 390 391 422 421
f 391 392 423 422
f 392 393 424 423
f 393 394 425 424
f 394 395 426 425
f 395 396 427 426
f 396 397 428 427
f 397 398 429 428
f 398 399 430 429
f 399 400 431 430
f 400 401 432 431
f 401 402 433 432
f 402 403 434 433
f 404 405 436 435
f 405 406 437 436
f 406 407 438 437
f 407 408 439 438
f 408 409 440 439
f 409 410 441 440
f 410 411 442 441
f 411 412 443 442
f 412 413 444 443
f 413 414 445 444
f 414 415 446 445
f 415 416 447 446
f 416 417 448 447
f 417 418 449 448
f 418 419 450 449
f 419 420 451 450
f 420 421 452 451
f 421 422 453 452
f 422 423 454 453
f 423 424 455 454
f 424 425 456 455
f 425 426 457 456
f 426 427 458 457
f 427 428 459 458
f 428 429 460 459
f 429 430 461 460
f 430 431 462 461
f 431 432 463 462
f 432 433 464 463
f 433 434 465 464
f 435 436 467 466
f 436 437 468 467
f 437 438 469 468
f 438 439 470 469
f 439 440 471 470
f 440 441 472 471
f 441 442 473 472
f 442 443 474 473
f 443 444 475 474
f 444 445 476 475
f 445 446 477 476
f 446 447 478 477
f 447 448 479 478
f 448 449 480 479
f 449 450 481 480
f 450 451 482 481
f 451 452 483 482
f 452 453 484 483
f 453 454 485 484
f 454 455 486 485
f 455 456 487 486
f 456 457 488 487
f 457 458 489 488
f 458 459 490 489
f 459 460 491 490
f 460 461 492 491
f 461 462 493 492
f 462 463 494 493
f 463 464 495 494
f 464 465 496 495
f 466 467 498 497
f 467 468 499 498
f 468 469 500 499
f 469 470 501 500
f 470 471 502 501
f 471 472 503 502
f 472 473 504 503
f 473 474 505 504
f 474 475 506 505
f 475 476 507 506
f 476 477 508 507
f 477 478 509 508
f 478 479 510 509
f 479 480 511 510
f 480 481 512 511
f 481 482 513 512
f 482 483 514 513
f 483 484 515 514
f 484 485 516 515
f 485 486 517 516
f 486 487 518 517
f 487 488 519 518
f 488 489 520 519
f 489 490 521 520
f 490 491 522 521
f 491 492 523 522
f 492 493 524 523
f 493 494 525 524
f 494 495 526 525
f 495 496 527 526
f 497 498 529 528
f 498 499 530 529
f 499 500 531 530
f 500 501 532 531
f 501 502 533 532
f 502 503 534 533
f 503 504 535 534
f 504 505 536 535
f 505 506 537 536
f 506 507 538 537
f 507 508 539 538
f 508 509 540 539
f 509 510 541 540
f 510 511 542 541
f 511 512 543 542
f 512 513 544 543
f 513 514 545 544
f 514 515 546 545
f 515 516 547 546
f 516 517 548 547
f 517 518 549 548
f 518 519 550 549
f 519 520 551 550
f 520 521 552 551
f 521 522 553 552
f 522 523 554 553
f 523 524 555 554
f 524 525 556 555
f 525 526 557 556
f 526 527 558 557
f 528 529 560 559
f 529 530 561 560
f 530 531 562 561
f 531 532 563 562
f 532 533 564 563
f 533 534 565 564
f 534 535 566 565
f 535 536 567 566
f 536 537 568 567
f 537 538 569 568
f 538 539 570 569
f 539 540 571 570
f 540 541 572 571
f 541 542 573 572
f 542 543 574 573
f 543 544 575 574
f 544 545 576 575
f 545 546 577 576
f 546 547 578 577
f 547 548 579 578
f 548 549 580 579
f 549 550 581 580
f 550 551 582 581
f 551 552 583 582
f 552 553 584 583
f 553 554 585 584
f 554 555 586 585
f 555 556 587 586
f 556 557 588 587
f 557 558 589 588
f 559 560 591 590
f 560 561 592 591
f 561 562 593 592
f 562 563 594 593
f 563 564 595 594
f 564 565 596 595
f 565 566 597 596
f 566 567 598 597
f 567 568 599 598
f 568 569 600 599
f 569 570 601 600
f 570 571 602 601
f 571 572 603 602
f 572 573 604 603
f 573 574 605 604
f 574 575 606 605
f 575 576 607 606
f 576 577 608 607
f 577 578 609 608
f 578 579 610 609
f 579 580 611 610
f 580 581 612 611
f 581 582 613 612
f 582 583 614 613
f 583 584 615 614
f 584 585 616 615
f 585 586 617 616
f 586 587 618 617
f 587 588 619 618
f 588 589 620 619
f 590 591 622 621
f 591 592 623 622
f 592 593 624 623
f 593 594 625 624
f 594 595 626 625
f 595 596 627 626
f 596 597 628 627
f 597 598 629 628
f 598 599 630 629
f 599 600 631 630
f 600 601 632 631
f 601 602 633 632
f 602 603 634 633
f 603 604 635 634
f 604 605 636 635
f 605 606 637 636
f 606 607 638 637
f 607 608 639 638
f 608 609 640 639
f 609 610 641 640
f 610 611 642 641
f 611 612 643 642
f 612 613 644 643
f 613 614 645 644
f 614 615 646 645
f 615 616 647 646
f 616 617 648 647
f 617 618 649 648
f 618 619 650 649
f 619 620 651 650
f 621 622 653 652
f 622 623 654 653
f 623 624 655 654
f 624 625 656 655
f 625 626 657 656
f 626 627 658 657
f 627 628 659 658
f 628 629 660 659
f 629 630 661 660
f 630 631 662 661
f 631 632 663 662
f 632 633 664 663
f 633 634 665 664
f 634 635 666 665
f 635 636 667 666
f 636 637 668 667
f 637 638 669 668
f 638 639 670 669
f 639 640 671 670
f 640 641 672 671
f 641 642 673 672
f 642 643 674 673
f 643 644 675 674
f 644 645 676 675
f 645 646 677 676
f 646 647 678 677
f 647 648 679 678
f 648 649 680 679
f 649 650 681 680
f 650 651 682 681
f 652 653 684 683
f 653 654 685 684
f 654 655 686 685
f 655 656 687 686
f 656 657 688 687
f 657 658 689 688
f 658 659 690 689
f 659 660 691 690
f 660 661 692 691
f 661 662 693 692
f 662 663 694 693
f 663 664 695 694
f 664 665 696 695
f 665 666 697 696
f 666 667 698 697
f 667 668 699 698
f 668 669 700 699
f 669 670 701 700
f 670 671 702 701
f 671 672 703 702
f 672 673 704 703
f 673 674 705 704
f 674 675 706 705
f 675 676 707 706
f 676 677 708 707
f 677 678 709 708
f 678 679 710 709
f 679 680 711 710
f 680 681 712 711
f 681 682 713 712
f 683 684 715 714
f 684 685 716 715
f 685 686 717 716
f 686 687 718 717
f 687 688 719 718
f 688 689 720 719
f 689 690 721 720
f 690 691 722 721
f 691 692 723 722
f 692 693 724 723
f 693 694 725 724
f 694 695 726 725
f 695 696 727 726
f 696 697 728 727
f 697 698 729 728
f 698 699 730 729
f 699 700 731 730
f 700 701 732 731
f 701 702 733 732
f 702 703 734 733
f 703 704 735 734
f 704 705 736 735
f 705 706 737 736
f 706 707 738 737
f 707 708 739 738
f 708 709 740 739
f 709 710 741 740
f 710 711 742 741
f 711 712 743 742
f 712 713 744 743
f 714 715 746 745
f 715 716 747 746
f 716 717 748 747
f 717 718 749 748
f 718 719 750 749
f 719 720 751 750
f 720 721 752 751
f 721 722 753 752
f 722 723 754 753
f 723 724 755 754
f 724 725 756 755
f 725 726 757 756
f 726 727 758 757
f 727 728 759 758
f 728 729 760 759
f 729 730 761 760
f 730 731 762 761
f 731 732 763 762
f 732 733 764 763
f 733 734 765 764
f 734 735 766 765
f 735 736 767 766
f 736 737 768 767
f 737 738 769 768
f 738 739 770 769
f 739 740 771 770
f 740 741 772 771
f 741 742 773 772
f 742 743 774 773
f 743 744 775 774
f 745 746 777 776
f 746 747 778 777
f 747 748 779 778
f 748 749 780 779
f 749 750 781 780
f 750 751 782 781
f 751 752 783 782
f 752 753 784 783
f 753 754 785 784
f 754 755 786 785
f 755 756 787 786
f 756 757 788 787
f 757 758 789 788
f 758 759 790 789
f 759 760 791 790
f 760 761 792 791
f 761 762 793 792
f 762 763 794 793
f 763 764 795 794
f 764 765 796 795
f 765 766 797 796
f 766 767 798 797
f 767 768 799 798
f 768 769 800 799
f 769 770 801 800
f 770 771 802 801
f 771 772 803 802
f 772 773 804 803
f 773 774 805 804
f 774 775 806 805
f 776 777 808 807
f 777 778 809 808
f 778 779 810 809
f 779 780 811 810
f 780 781 812 811
f 781 782 813 812
f 782 783 814 813
f 783 784 815 814
f 784 785 816 815
f 785 786 817 816
f 786 787 818 817
f 787 788 819 818
f 788 789 820 819
f 789 790 821 820
f 790 791 822 821
f 791 792 823 822
f 792 793 824 823
f 793 794 825 824
f 794 795 826 825
f 795 796 827 826
f 796 797 828 827
f 797 798 829 828
f 798 799 830 829
f 799 800 831 830
f 800 801 832 831
f 801 802 833 832
f 802 803 834 833
f 803 804 835 834
f 804 805 836 835
f 805 806 837 836
f 807 808 839 838
f 808 809 840 839
f 809 810 841 840
f 810 811 842 841
f 811 812 843 842
f 812 813 844 843
f 813 814 845 844
f 814 815 846 845
f 815 816 847 846
f 816 817 848 847
f 817 818 849 848
f 818 819 850 849
f 819 820 851 850
f 820 821 852 851
f 821 822 853 852
f 822 823 854 853
f 823 824 855 854
f 824 825 856 855
f 825 826 857 856
f 826 827 858 857
f 827 828 859 858
f 828 829 860 859
f 829 830 861 860
f 830 831 862 861
f 831 832 863 862
f 832 833 864 863
f 833 834 865 864
f 834 835 866 865
f 835 836 867 866
f 836 837 868 867
f 838 839 870 869
f 839 840 871 870
f 840 841 872 871
f 841 842 873 872
f 842 843 874 873
f 843 844 875 874
f 844 845 876 875
f 845 846 877 876
f 846 847 878 877
f 847 848 879 878
f 848 849 880 879
f 849 850 881 880
f 850 851 882 881
f 851 852 883 882
f 852 853 884 883
f 853 854 885 884
f 854 855 886 885
f 855 856 887 886
f 856 857 888 887
f 857 858 889 888
f 858 859 890 889
f 859 860 891 890
f 860 861 892 891
f 861 862 893 892
f 862 863 894 893
f 863 864 895 894
f 864 865 896 895
f 865 866 897 896
f 866 867 898 897
f 867 868 899 898
f 869 870 901 900
f 870 871 902 901
f 871 872 903 902
f 872 873 904 903
f 873 874 905 904
f 874 875 906 905
f 875 876 907 906
f 876 877 908 907
f 877 878 909 908
f 878 879 910 909
f 879 880 911 910
f 880 881 912 911
f 881 882 913 912
f 882 883 914 913
f 883 884 915 914
f 884 885 916 915
f 885 886 917 916
f 886 887 918 917
f 887 888 919 918
f 888 889 920 919
f 889 890 921 920
f 890 891 922 921
f 891 892 923 922
f 892 893 924 923
f 893 894 925 924
f 894 895 926 925
f 895 896 927 926
f 896 897 928 927
f 897 898 929 928
f 898 899 930 929
f 900 901 932 931
f 901 902 933 932
f 902 903 934 933
f 903 904 935 934
f 904 905 936 935
f 905 906 937 936
f 906 907 938 937
f 907 908 939 938
f 908 909 940 939
f 909 910 941 940
f 910 911 942 941
f 911 912 943 942
f 912 913 944 943
f 913 914 945 944
f 914 915 946 945
f 915 916 947 946
f 916 917 948 947
f 917 918 949 948
f 918 919 950 949
f 919 920 951 950
f 920 921 952 951
f 921 922 953 952
f 922 923 954 953
f 923 924 955 954
f 924 925 956 955
f 925 926 957 956
f 926 927 958 957
f 927 928 959 958
f 928 929 960 959
f 929 930 961 960
f 931 932 963 962
f 932 933 964 963
f 933 934 965 964
f 934 935 966 965
f 935 936 967 966
f 936 937 968 967
f 937 938 969 968
f 938 939 970 969
f 939 940 971 970
f 940 941 972 971
f 941 942 973 972
f 942 943 974 973
f 943 944 975 974
f 944 945 976 975
f 945 946 977 976
f 946 947 978 977
f 947 948 979 978
f 948 949 980 979
f 949 950 981 980
f 950 951 982 981
f 951 952 983 982
f 952 953 984 983
f 953 954 985 984
f 954 955 986 985
f 955 956 987 986
f 956 957 988 987
f 957 958 989 988
f 958 959 990 989
f 959 960 991 990
f 960 961 992 991
f 962 963 994 993
f 963 964 995 994
f 964 965 996 995
f 965 966 997 996
f 966 967 998 997
f 967 968 999 998
f 968 969 1000 999
f 969 970 1001 1000
f 970 971 1002 1001
f 971 972 1003 1002
f 972 973 1004 1003
f 973 974 1005 1004
f 974 975 1006 1005
f 975 976 1007 1006
f 976 977 1008 1007
f 977 978 1009 1008
f 978 979 1010 1009
f 979 980 1011 1010
f 980 981 1012 1011
f 981 982 1013 1012
f 982 983 1014 1013
f 983 984 1015 1014
f 984 985 1016 1015
f 985 986 1017 1016
f 986 987 1018 1017
f 987 988 1019 1018
f 988 989 1020 1019
f 989 990 1021 1020
f 990 991 1022 1021
f 991 992 1023 1022
f 993 994 1025 1024
f 994 995 1026 1025
f 995 996 1027 1026
f 996 997 1028 1027
f 997 998 1029 1028
f 998 999 1030 1029
f 999 1000 1031 1030
f 1000 1001 1032 1031
f 1001 1002 1033 1032
f 1002 1003 1034 1033
f 1003 1004 1035 1034
f 1004 1005 1036 1035
f 1005 1006 1037 1036
f 1006 1007 1038 1037
f 1007 1008 1039 1038
f 1008 1009 1040 1039
f 1009 1010 1041 1040
f 1010 1011 1042 1041
f 1011 1012 1043 1042
f 1012 1013 1044 1043
f 1013 1014 1045 1044
f 1014 1015 1046 1045
f 1015 1016 1047 1046
f 1016 1017 1048 1047
f 1017 1018 1049 1048
f 1018 1019 1050 1049
f 1019 1020 1051 1050
f 1020 1021 1052 1051
f 1021 1022 1053 1052
f 1022 1023 1054 1053
f 1024 1025 1056 1055
f 1025 1026 1057 1056
f 1026 1027 1058 1057
f 1027 1028 1059 1058
f 1028 1029 1060 1059
f 1029 1030 1061 1060
f 1030 1031 1062 1061
f 1031 1032 1063 1062
f 1032 1033 1064 1063
f 1033 1034 1065 1064
f 1034 1035 1066 1065
f 1035 1036 1067 1066
f 1036 1037 1068 1067
f 1037 1038 1069 1068
f 1038 1039 1070 1069
f 1039 1040 1071 1070
f 1040 1041 1072 1071
f 1041 1042 1073 1072
f 1042 1043 1074 1073
f 1043 1044 1075 1074
f 1044 1045 1076 1075
f 1045 1046 1077 1076
f 1046 1047 1078 1077
f 1047 1048 1079 1078
f 1048 1049 1080 1079
f 1049 1050 1081 1080
f 1050 1051 1082 1081
f 1051 1052 1083 1082
f 1052 1053 1084 1083
f 1053 1054 1085 1084
f 1055 1056 1087 1086
f 1056 1057 1088 1087
f 1057 1058 1089 1088
f 1058 1059 1090 1089
f 1059 1060 1091 1090
f 1060 1061 1092 1091
f 1061 1062 1093 1092
f 1062 1063 1094 1093
f 1063 1064 1095 1094
f 1064 1065 1096 1095
f 1065 1066 1097 1096
f 1066 1067 1098 1097
f 1067 1068 1099 1098
f 1068 1069 1100 1099
f 1069 1070 1101 1100
f 1070 1071 1102 1101
f 1071 1072 1103 1102
f 1072 1073 1104 1103
f 1073 1074 1105 1104
f 1074 1075 1106 1105
f 1075 1076 1107 1106
f 1076 1077 1108 1107
f 1077 1078 1109 1108
f 1078 1079 1110 1109
f 1079 1080 1111 1110
f 1080 1081 1112 1111
f 1081 1082 1113 1112
f 1082 1083 1114 1113
f 1083 1084 1115 1114
f 1084 1085 1116 1115
f 1086 1087 1118 1117
f 1087 1088 1119 1118
f 1088 1089 1120 1119
f 1089 1090 1121 1120
f 1090 1091 1122 1121
f 1091 1092 1123 1122
f 1092 1093 1124 1123
f 1093 1094 1125 1124
f 1094 1095 1126 1125
f 1095 1096 1127 1126
f 1096 1097 1128 1127
f 1097 1098 1129 1128
f 1098 1099 1130 1129
f 1099 1100 1131 1130
f 1100 1101 1132 1131
f 1101 1102 1133 1132
f 1102 1103 1134 1133
f 1103 1104 1135 1134
f 1104 1105 1136 1135
f 1105 1106 1137 1136
f 1106 1107 1138 1137
f 1107 1108 1139 1138
f 1108 1109 1140 1139
f 1109 1110 1141 1140
f 1110 1111 1142 1141
f 1111 1112 1143 1142
f 1112 1113 1144 1143
f 1113 1114 1145 1144
f 1114 1115 1146 1145
f 1115 1116 1147 1146
f 1117 1118 1149 1148
f 1118 1119 1150 1149
f 1119 1120 1151 1150
f 1120 1121 1152 1151
f 1121 1122 1153 1152
f 1122 1123 1154 1153
f 1123 1124 1155 1154
f 1124 1125 1156 1155
f 1125 1126 1157 1156
f 1126 1127 1158 1157
f 1127 1128 1159 1158
f 1128 1129 1160 1159
f 1129 1130 1161 1160
f 1130 1131 1162 1161
f 1131 1132 1163 1162
f 1132 1133 1164 1163
f 1133 1134 1165 1164
f 1134 1135 1166 1165
f 1135 1136 1167 1166
f 1136 1137 1168 1167
f 1137 1138 1169 1168
f 1138 1139 1170 1169
f 1139 1140 1171 1170
f 1140 1141 1172 1171
f 1141 1142 1173 1172
f 1142 1143 1174 1173
f 1143 1144 1175 1174
f 1144 1145 1176 1175
f 1145 1146 1177 1176
f 1146 1147 1178 1177
f 1148 1149 1180 1179
f 1149 1150 1181 1180
f 1150 1151 1182 1181
f 1151 1152 1183 1182
f 1152 1153 1184 1183
f 1153 1154 1185 1184
f 1154 1155 1186 1185
f 1155 1156 1187 1186
f 1156 1157 1188 1187
f 1157 1158 1189 1188
f 1158 1159 1190 1189
f 1159 1160 1191 1190
f 1160 1161 1192 1191
f 1161 1162 1193 1192
f 1162 1163 1194 1193
f 1163 1164 1195 1194
f 1164 1165 1196 1195
f 1165 1166 1197 1196
f 1166 1167 1198 1197
f 1167 1168 1199 1198
f 1168 1169 1200 1199
f 1169 1170 1201 1200
f 1170 1171 1202 1201
f 1171 1172 1203 1202
f 1172 1173 1204 1203
f 1173 1174 1205 1204
f 1174 1175 1206 1205
f 1175 1176 1207 1206
f 1176 1177 1208 1207
f 1177 1178 1209 1208
f 1179 1180 1211 1210
f 1180 1181 1212 1211
f 1181 1182 1213 1212
f 1182 1183 1214 1213
f 1183 1184 1215 1214
f 1184 1185 1216 1215
f 1185 1186 1217 1216
f 1186 1187 1218 1217
f 1187 1188 1219 1218
f 1188 1189 1220 1219
f 1189 1190 1221 1220
f 1190 1191 1222 1221
f 1191 1192 1223 1222
f 1192 1193 1224 1223
f 1193 1194 1225 1224
f 1194 1195 1226 1225
f 1195 1196 1227 1226
f 1196 1197 1228 1227
f 1197 1198 1229 1228
f 1198 1199 1230 1229
f 1199 1200 1231 1230
f 1200 1201 1232 1231
f 1201 1202 1233 1232
f 1202 1203 1234 1233
f 1203 1204 1235 1234
f 1204 1205 1236 1235
f 1205 1206 1237 1236
f 1206 1207 1238 1237
f 1207 1208 1239 1238
f 1208 1209 1240 1239
f 1210 1211 1242 1241
f 1211 1212 1243 1242
f 1212 1213 1244 1243
f 1213 1214 1245 1244
f 1214 1215 1246 1245
f 1215 1216 1247 1246
f 1216 1217 1248 1247
f 1217 1218 1249 1248
f 1218 1219 1250 1249
f 1219 1220 1251 1250
f 1220 1221 1252 1251
f 1221 1222 1253 1252
f 1222 1223 1254 1253
f 1223 1224 1255 1254
f 1224 1225 1256 1255
f 1225 1226 1257 1256
f 1226 1227 1258 1257
f 1227 1228 1259 1258
f 1228 1229 1260 1259
f 1229 1230 1261 1260
f 1230 1231 1262 1261
f 1231 1232 1263 1262
f 1232 1233 1264 1263
f 1233 1234 1265 1264
f 1234 1235 1266 1265
f 1235 1236 1267 1266
f 1236 1237 1268 1267
f 1237 1238 1269 1268
f 1238 1239 1270 1269
f 1239 1240 1271 1270
f 1241 1242 1273 1272
f 1242 1243 1274 1273
f 1243 1244 1275 1274
f 1244 1245 1276 1275
f 1245 1246 1277 1276
f 1246 1247 1278 1277
f 1247 1248 1279 1278
f 1248 1249 1280 1279
f 1249 1250 1281 1280
f 1250 1251 1282 1281
f 1251 1252 1283 1282
f 1252 1253 1284 1283
f 1253 1254 1285 1284
f 1254 1255 1286 1285
f 1255 1256 1287 1286
f 1256 1257 1288 1287
f 1257 1258 1289 1288
f 1258 1259 1290 1289
f 1259 1260 1291 1290
f 1260 1261 1292 1291
f 1261 1262 1293 1292
f 1262 1263 1294 1293
f 1263 1264 1295 1294
f 1264 1265 1296 1295
f 1265 1266 1297 1296
f 1266 1267 1298 1297
f 1267 1268 1299 1298
f 1268 1269 1300 1299
f 1269 1270 1301 1300
f 1270 1271 1302 1301
f 1272 1273 1304 1303
f 1273 1274 1305 1304
f 1274 1275 1306 1305
f 1275 1276 1307 1306
f 1276 1277 1308 1307
f 1277 1278 1309 1308
f 1278 1279 1310 1309
f 1279 1280 1311 1310
f 1280 1281 1312 1311
f 1281 1282 1313 1312
f 1282 1283 1314 1313
f 1283 1284 1315 1314
f 1284 1285 1316 1315
f 1285 1286 1317 1316
f 1286 1287 1318 1317
f 1287 1288 1319 1318
f 1288 1289 1320 1319
f 1289 1290 1321 1320
f 1290 1291 1322 1321
f 1291 1292 1323 1322
f 1292 1293 1324 1323
f 1293 1294 1325 1324
f 1294 1295 1326 1325
f 1295 1296 1327 1326
f 1296 1297 1328 1327
f 1297 1298 1329 1328
f 1298 1299 1330 1329
f 1299 1300 1331 1330
f 1300 1301 1332 1331
f 1301 1302 1333 1332
f 1303 1304 1335 1334
f 1304 1305 1336 1335
f 1305 1306 1337 1336
f 1306 1307 1338 1337
f 1307 1308 1339 1338
f 1308 1309 1340 1339
f 1309 1310 1341 1340
f 1310 1311 1342 1341
f 1311 1312 1343 1342
f 1312 1313 1344 1343
f 1313 1314 1345 1344
f 1314 1315 1346 1345
f 1315 1316 1347 1346
f 1316 1317 1348 1347
f 1317 1318 1349 1348
f 1318 1319 1350 1349
f 1319 1320 1351 1350
f 1320 1321 1352 1351
f 1321 1322 1353 1352
f 1322 1323 1354 1353
f 1323 1324 1355 1354
f 1324 1325 1356 1355
f 1325 1326 1357 1356
f 1326 1327 1358 1357
f 1327 1328 1359 1358
f 1328 1329 1360 1359
f 1329 1330 1361 1360
f 1330 1331 1362 1361
f 1331 1332 1363 1362
f 1332 1333 1364 1363
f 1334 1335 1366 1365
f 1335 1336 1367 1366
f 1336 1337 1368 1367
f 1337 1338 1369 1368
f 1338 1339 1370 1369
f 1339 1340 1371 1370
f 1340 1341 1372 1371
f 1341 1342 1373 1372
f 1342 1343 1374 1373
f 1343 1344 1375 1374
f 1344 1345 1376 1375
f 1345 1346 1377 1376
f 1346 1347 1378 1377
f 1347 1348 1379 1378
f 1348 1349 1380 1379
f 1349 1350 1381 1380
f 1350 1351 1382 1381
f 1351 1352 1383 1382
f 1352 1353 1384 1383
f 1353 1354 1385 1384
f 1354 1355 1386 1385
f 1355 1356 1387 1386
f 1356 1357 1388 1387
f 1357 1358 1389 1388
f 1358 1359 1390 1389
f 1359 1360 1391 1390
f 1360 1361 1392 1391
f 1361 1362 1393 1392
f 1362 1363 1394 1393
f 1363 1364 1395 1394
f 1365 1366 1397 1396
f 1366 1367 1398 1397
f 1367 1368 1399 1398
f 1368 1369 1400 1399
f 1369 1370 1401 1400
f 1370 1371 1402 1401
f 1371 1372 1403 1402
f 1372 1373 1404 1403
f 1373 1374 1405 1404
f 1374 1375 1406 1405
f 1375 1376 1407 1406
f 1376 1377 1408 1407
f 1377 1378 1409 1408
f 1378 1379 1410 1409
f 1379 1380 1411 1410
f 1380 1381 1412 1411
f 1381 1382 1413 1412
f 1382 1383 1414 1413
f 1383 1384 1415 1414
f 1384 1385 1416 1415
f 1385 1386 1417 1416
f 1386 1387 1418 1417
f 1387 1388 1419 1418
f 1388 1389 1420 1419
f 1389 1390 1421 1420
f 1390 1391 1422 1421
f 1391 1392 1423 1422
f 1392 1393 1424 1423
f 1393 1394 1425 1424
f 1394 1395 1426 1425
f 1396 1397 1428 1427
f 1397 1398 1429 1428
f 1398 1399 1430 1429
f 1399 1400 1431 1430
f 1400 1401 1432 1431
f 1401 1402 1433 1432
f 1402 1403 1434 1433
f 1403 1404 1435 1434
f 1404 1405 1436 1435
f 1405 1406 1437 1436
f 1406 1407 1438 1437
f 1407 1408 1439 1438
f 1408 1409 1440 1439
f 1409 1410 1441 1440
f 1410 1411 1442 1441
f 1411 1412 1443 1442
f 1412 1413 1444 1443
f 1413 1414 1445 1444
f 1414 1415 1446 1445
f 1415 1416 1447 1446
f 1416 1417 1448 1447
f 1417 1418 1449 1448
f 1418 1419 1450 1449
f 1419 1420 1451 1450
f 1420 1421 1452 1451
f 1421 1422 1453 1452
f 1422 1423 1454 1453
f 1423 1424 1455 1454
f 1424 1425 1456 1455
f 1425 1426 1457 1456
f 1427 1428 1459 1458
f 1428 1429 1460 1459
f 1429 1430 1461 1460
f 1430 1431 1462 1461
f 1431 1432 1463 1462
f 1432 1433 1464 1463
f 1433 1434 1465 1464
f 1434 1435 1466 1465
f 1435 1436 1467 1466
f 1436 1437 1468 1467
f 1437 1438 1469 1468
f 1438 1439 1470 1469
f 1439 1440 1471 1470
f 1440 1441 1472 1471
f 1441 1442 1473 1472
f 1442 1443 1474 1473
f 1443 1444 1475 1474
f 1444 1445 1476 1475
f 1445 1446 1477 1476
f 1446 1447 1478 1477
f 1447 1448 1479 1478
f 1448 1449 1480 1479
f 1449 1450 1481 1480
f 1450 1451 1482 1481
f 1451 1452 1483 1482
f 1452 1453 1484 1483
f 1453 1454 1485 1484
f 1454 1455 1486 1485
f 1455 1456 1487 1486
f 1456 1457 1488 1487
f 1458 1459 1490 1489
f 1459 1460 1491 1490
f 1460 1461 1492 1491
f 1461 1462 1493 1492
f 1462 1463 1494 1493
f 1463 1464 1495 1494
f 1464 1465 1496 1495
f 1465 1466 1497 1496
f 1466 1467 1498 1497
f 1467 1468 1499 1498
f 1468 1469 1500 1499
f 1469 1470 1501 1500
f 1470 1471 1502 1501
f 1471 1472 1503 1502
f 1472 1473 1504 1503
f 1473 1474 1505 1504
f 1474 1475 1506 1505
f 1475 1476 1507 1506
f 1476 1477 1508 1507
f 1477 1478 1509 1508
f 1478 1479 1510 1509
f 1479 1480 1511 1510
f 1480 1481 1512 1511
f 1481 1482 1513 1512
f 1482 1483 1514 1513
f 1483 1484 1515 1514
f 1484 1485 1516 1515
f 1485 1486 1517 1516
f 1486 1487 1518 1517
f 1487 1488 1519 1518
f 1489 1490 1521 1520
f 1490 1491 1522 1521
f 1491 1492 1523 1522
f 1492 1493 1524 1523
f 1493 1494 1525 1524
f 1494 1495 1526 1525
f 1495 1496 1527 1526
f 1496 1497 1528 1527
f 1497 1498 1529 1528
f 1498 1499 1530 1529
f 1499 1500 1531 1530
f 1500 1501 1532 1531
f 1501 1502 1533 1532
f 1502 1503 1534 1533
f 1503 1504 1535 1534
f 1504 1505 1536 1535
f 1505 1506 1537 1536
f 1506 1507 1538 1537
f 1507 1508 1539 1538
f 1508 1509 1540 1539
f 1509 1510 1541 1540
f 1510 1511 1542 1541
f 1511 1512 1543 1542
f 1512 1513 1544 1543
f 1513 1514 1545 1544
f 1514 1515 1546 1545
f 1515 1516 1547 1546
f 1516 1517 1548 1547
f 1517 1518 1549 1548
f 1518 1519 1550 1549
f 1520 1521 1552 1551
f 1521 1522 1553 1552
f 1522 1523 1554 1553
f 1523 1524 1555 1554
f 1524 1525 1556 1555
f 1525 1526 1557 1556
f 1526 1527 1558 1557
f 1527 1528 1559 1558
f 1528 1529 1560 1559
f 1529 1530 1561 1560
f 1530 1531 1562 1561
f 1531 1532 1563 1562
f 1532 1533 1564 1563
f 1533 1534 1565 1564
f 1534 1535 1566 1565
f 1535 1536 1567 1566
f 1536 1537 1568 1567
f 1537 1538 1569 1568
f 1538 1539 1570 1569
f 1539 1540 1571 1570
f 1540 1541 1572 1571
f 1541 1542 1573 1572
f 1542 1543 1574 1573
f 1543 1544 1575 1574
f 1544 1545 1576 1575
f 1545 1546 1577 1576
f 1546 1547 1578 1577
f 1547 1548 1579 1578
f 1548 1549 1580 1579
f 1549 1550 1581 1580
f 1551 1552 1583 1582
f 1552 1553 1584 1583
f 1553 1554 1585 1584
f 1554 1555 1586 1585
f 1555 1556 1587 1586
f 1556 1557 1588 1587
f 1557 1558 1589 1588
f 1558 1559 1590 1589
f 1559 1560 1591 1590
f 1560 1561 1592 1591
f 1561 1562 1593 1592
f 1562 1563 1594 1593
f 1563 1564 1595 1594
f 1564 1565 1596 1595
f 1565 1566 1597 1596
f 1566 1567 1598 1597
f 1567 1568 1599 1598
f 1568 1569 1600 1599
f 1569 1570 1601 1600
f 1570 1571 1602 1601
f 1571 1572 1603 1602
f 1572 1573 1604 1603
f 1573 1574 1605 1604
f 1574 1575 1606 1605
f 1575 1576 1607 1606
f 1576 1577 1608 1607
f 1577 1578 1609 1608
f 1578 1579 1610 1609
f 1579 1580 1611 1610
f 1580 1581 1612 1611
f 1582 1583 1614 1613
f 1583 1584 1615 1614
f 1584 1585 1616 1615
f 1585 1586 1617 1616
f 1586 1587 1618 1617
f 1587 1588 1619 1618
f 1588 1589 1620 1619
f 1589 1590 1621 1620
f 1590 1591 1622 1621
f 1591 1592 1623 1622
f 1592 1593 1624 1623
f 1593 1594 1625 1624
f 1594 1595 1626 1625
f 1595 1596 1627 1626
f 1596 1597 1628 1627
f 1597 1598 1629 1628
f 1598 1599 1630 1629
f 1599 1600 1631 1630
f 1600 1601 1632 1631
f 1601 1602 1633 1632
f 1602 1603 1634 1633
f 1603 1604 1635 1634
f 1604 1605 1636 1635
f 1605 1606 1637 1636
f 1606 1607 1638 1637
f 1607 1608 1639 1638
f 1608 1609 1640 1639
f 1609 1610 1641 1640
f 1610 1611 1642 1641
f 1611 1612 1643 1642
f 1613 1614 1645 1644
f 1614 1615 1646 1645
f 1615 1616 1647 1646
f 1616 1617 1648 1647
f 1617 1618 1649 1648
f 1618 1619 1650 1649
f 1619 1620 1651 1650
f 1620 1621 1652 1651
f 1621 1622 1653 1652
f 1622 1623 1654 1653
f 1623 1624 1655 1654
f 1624 1625 1656 1655
f 1625 1626 1657 1656
f 1626 1627 1658 1657
f 1627 1628 1659 1658
f 1628 1629 1660 1659
f 1629 1630 1661 1660
f 1630 1631 1662 1661
f 1631 1632 1663 1662
f 1632 1633 1664 1663
f 1633 1634 1665 1664
f 1634 1635 1666 1665
f 1635 1636 1667 1666
f 1636 1637 1668 1667
f 1637 1638 1669 1668
f 1638 1639 1670 1669
f 1639 1640 1671 1670
f 1640 1641 1672 1671
f 1641 1642 1673 1672
f 1642 1643 1674 1673
f 1644 1645 1676 1675
f 1645 1646 1677 1676
f 1646 1647 1678 1677
f 1647 1648 1679 1678
f 1648 1649 1680 1679
f 1649 1650 1681 1680
f 1650 1651 1682 1681
f 1651 1652 1683 1682
f 1652 1653 1684 1683
f 1653 1654 1685 1684
f 1654 1655 1686 1685
f 1655 1656 1687 1686
f 1656 1657 1688 1687
f 1657 1658 1689 1688
f 1658 1659 1690 1689
f 1659 1660 1691 1690
f 1660 1661 1692 1691
f 1661 1662 1693 1692
f 1662 1663 1694 1693
f 1663 1664 1695 1694
f 1664 1665 1696 1695
f 1665 1666 1697 1696
f 1666 1667 1698 1697
f 1667 1668 1699 1698
f 1668 1669 1700 1699
f 1669 1670 1701 1700
f 1670 1671 1702 1701
f 1671 1672 1703 1702
f 1672 1673 1704 1703
f 1673 1674 1705 1704
f 1675 1676 1707 1706
f 1676 1677 1708 1707
f 1677 1678 1709 1708
f 1678 1679 1710 1709
f 1679 1680 1711 1710
f 1680 1681 1712 1711
f 1681 1682 1713 1712
f 1682 1683 1714 1713
f 1683 1684 1715 1714
f 1684 1685 1716 1715
f 1685 1686 1717 1716
f 1686 1687 1718 1717
f 1687 1688 1719 1718
f 1688 1689 1720 1719
f 1689 1690 1721 1720
f 1690 1691 1722 1721
f 1691 1692 1723 1722
f 1692 1693 1724 1723
f 1693 1694 1725 1724
f 1694 1695 1726 1725
f 1695 1696 1727 1726
f 1696 1697 1728 1727
f 1697 1698 1729 1728
f 1698 1699 1730 1729
f 1699 1700 1731 1730
f 1700 1701 1732 1731
f 1701 1702 1733 1732
f 1702 1703 1734 1733
f 1703 1704 1735 1734
f 1704 1705 1736 1735
f 1706 1707 1738 1737
f 1707 1708 1739 1738
f 1708 1709 1740 1739
f 1709 1710 1741 1740
f 1710 1711 1742 1741
f 1711 1712 1743 1742
f 1712 1713 1744 1743
f 1713 1714 1745 1744
f 1714 1715 1746 1745
f 1715 1716 1747 1746
f 1716 1717 1748 1747
f 1717 1718 1749 1748
f 1718 1719 1750 1749
f 1719 1720 1751 1750
f 1720 1721 1752 1751
f 1721 1722 1753 1752
f 1722 1723 1754 1753
f 1723 1724 1755 1754
f 1724 1725 1756 1755
f 1725 1726 1757 1756
f 1726 1727 1758 1757
f 1727 1728 1759 1758
f 1728 1729 1760 1759
f 1729 1730 1761 1760
f 1730 1731 1762 1761
f 1731 1732 1763 1762
f 1732 1733 1764 1763
f 1733 1734 1765 1764
f 1734 1735 1766 1765
f 1735 1736 1767 1766
f 1737 1738 1769 1768
f 1738 1739 1770 1769
f 1739 1740 1771 1770
f 1740 1741 1772 1771
f 1741 1742 1773 1772
f 1742 1743 1774 1773
f 1743 1744 1775 1774
f 1744 1745 1776 1775
f 1745 1746 1777 1776
f 1746 1747 1778 1777
f 1747 1748 1779 1778
f 1748 1749 1780 1779
f 1749 1750 1781 1780
f 1750 1751 1782 1781
f 1751 1752 1783 1782
f 1752 1753 1784 1783
f 1753 1754 1785 1784
f 1754 1755 1786 1785
f 1755 1756 1787 1786
f 1756 1757 1788 1787
f 1757 1758 1789 1788
f 1758 1759 1790 1789
f 1759 1760 1791 1790
f 1760 1761 1792 1791
f 1761 1762 1793 1792
f 1762 1763 1794 1793
f 1763 1764 1795 1794
f 1764 1765 1796 1795
f 1765 1766 1797 1796
f 1766 1767 1798 1797
f 1768 1769 1800 1799
f 1769 1770 1801 1800
f 1770 1771 1802 1801
f 1771 1772 1803 1802
f 1772 1773 1804 1803
f 1773 1774 1805 1804
f 1774 1775 1806 1805
f 1775 1776 1807 1806
f 1776 1777 1808 1807
f 1777 1778 1809 1808
f 1778 1779 1810 1809
f 1779 1780 1811 1810
f 1780 1781 1812 1811
f 1781 1782 1813 1812
f 1782 1783 1814 1813
f 1783 1784 1815 1814
f 1784 1785 1816 1815
f 1785 1786 1817 1816
f 1786 1787 1818 1817
f 1787 1788 1819 1818
f 1788 1789 1820 1819
f 1789 1790 1821 1820
f 1790 1791 1822 1821
f 1791 1792 1823 1822
f 1792 1793 1824 1823
f 1793 1794 1825 1824
f 1794 1795 1826 1825
f 1795 1796 1827 1826
f 1796 1797 1828 1827
f 1797 1798 1829 1828
f 1799 1800 1831 1830
f 1800 1801 1832 1831
f 1801 1802 1833 1832
f 1802 1803 1834 1833
f 1803 1804 1835 1834
f 1804 1805 1836 1835
f 1805 1806 1837 1836
f 1806 1807 1838 1837
f 1807 1808 1839 1838
f 1808 1809 1840 1839
f 1809 1810 1841 1840
f 1810 1811 1842 1841
f 1811 1812 1843 1842
f 1812 1813 1844 1843
f 1813 1814 1845 1844
f 1814 1815 1846 1845
f 1815 1816 1847 1846
f 1816 1817 1848 1847
f 1817 1818 1849 1848
f 1818 1819 1850 1849
f 1819 1820 1851 1850
f 1820 1821 1852 1851
f 1821 1822 1853 1852
f 1822 1823 1854 1853
f 1823 1824 1855 1854
f 1824 1825 1856 1855
f 1825 1826 1857 1856
f 1826 1827 1858 1857
f 1827 1828 1859 1858
f 1828 1829 1860 1859
f 1830 1831 1862 1861
f 1831 1832 1863 1862
f 1832 1833 1864 1863
f 1833 1834 1865 1864
f 1834 1835 1866 1865
f 1835 1836 1867 1866
f 1836 1837 1868 1867
f 1837 1838 1869 1868
f 1838 1839 1870 1869
f 1839 1840 1871 1870
f 1840 1841 1872 1871
f 1841 1842 1873 1872
f 1842 1843 1874 1873
f 1843 1844 1875 1874
f 1844 1845 1876 1875
f 1845 1846 1877 1876
f 1846 1847 1878 1877
f 1847 1848 1879 1878
f 1848 1849 1880 1879
f 1849 1850 1881 1880
f 1850 1851 1882 1881
f 1851 1852 1883 1882
f 1852 1853 1884 1883
f 1853 1854 1885 1884
f 1854 1855 1886 1885
f 1855 1856 1887 1886
f 1856 1857 1888 1887
f 1857 1858 1889 1888
f 1858 1859 1890 1889
f 1859 1860 1891 1890
