# Block B survey lattice, 0.5 m, bench frame metres
o grid_B
v -1.7237 3.5791 0.0000
v 4.2709 3.8337 0.0000
v -1.7025 3.0795 0.0000
v 4.2921 3.3342 0.0000
v -1.6813 2.5800 0.0000
v 4.3133 2.8346 0.0000
v -1.6600 2.0804 0.0000
v 4.3346 2.3351 0.0000
v -1.6388 1.5809 0.0000
v 4.3558 1.8355 0.0000
v -1.6176 1.0813 0.0000
v 4.3770 1.3360 0.0000
v -1.5964 0.5818 0.0000
v 4.3982 0.8364 0.0000
v -1.5752 0.0822 0.0000
v 4.4194 0.3369 0.0000
v -1.5539 -0.4173 0.0000
v 4.4407 -0.1627 0.0000
v -1.5327 -0.9169 0.0000
v 4.4619 -0.6622 0.0000
v -1.5115 -1.4164 0.0000
v 4.4831 -1.1618 0.0000
v -1.4903 -1.9160 0.0000
v 4.5043 -1.6613 0.0000
v -1.4691 -2.4155 0.0000
v 4.5255 -2.1609 0.0000
v -1.4478 -2.9151 0.0000
v 4.5468 -2.6604 0.0000
v -1.4266 -3.4146 0.0000
v 4.5680 -3.1600 0.0000
v -1.4054 -3.9142 0.0000
v 4.5892 -3.6595 0.0000
v -1.3842 -4.4137 0.0000
v 4.6104 -4.1591 0.0000
v -1.3630 -4.9133 0.0000
v 4.6316 -4.6586 0.0000
v -1.3417 -5.4128 0.0000
v 4.6529 -5.1582 0.0000
v -1.3205 -5.9124 0.0000
v 4.6741 -5.6577 0.0000
v -1.7237 3.5791 0.0000
v -1.3205 -5.9124 0.0000
v -1.2241 3.6003 0.0000
v -0.8210 -5.8911 0.0000
v -0.7246 3.6215 0.0000
v -0.3214 -5.8699 0.0000
v -0.2250 3.6427 0.0000
v 0.1781 -5.8487 0.0000
v 0.2745 3.6640 0.0000
v 0.6777 -5.8275 0.0000
v 0.7741 3.6852 0.0000
v 1.1772 -5.8063 0.0000
v 1.2736 3.7064 0.0000
v 1.6768 -5.7851 0.0000
v 1.7732 3.7276 0.0000
v 2.1763 -5.7638 0.0000
v 2.2727 3.7488 0.0000
v 2.6759 -5.7426 0.0000
v 2.7723 3.7700 0.0000
v 3.1754 -5.7214 0.0000
v 3.2718 3.7913 0.0000
v 3.6750 -5.7002 0.0000
v 3.7714 3.8125 0.0000
v 4.1745 -5.6790 0.0000
v 4.2709 3.8337 0.0000
v 4.6741 -5.6577 0.0000
l 1 2
l 3 4
l 5 6
l 7 8
l 9 10
l 11 12
l 13 14
l 15 16
l 17 18
l 19 20
l 21 22
l 23 24
l 25 26
l 27 28
l 29 30
l 31 32
l 33 34
l 35 36
l 37 38
l 39 40
l 41 42
l 43 44
l 45 46
l 47 48
l 49 50
l 51 52
l 53 54
l 55 56
l 57 58
l 59 60
l 61 62
l 63 64
l 65 66
