# Block B field-sketch surface fractures, chained, on the DEM, bench frame metres
o sketch_cracks_B
v -0.0262 -0.5906 0.0017
v -0.0189 -0.5983 0.0020
v 0.0141 -0.6440 0.0033
v 0.0393 -0.6950 0.0047
v 0.0652 -0.7399 0.0063
v 0.1705 -0.8866 0.0101
v 0.1830 -0.9201 0.0102
v 0.1992 -0.9724 0.0103
v 0.2154 -1.0248 0.0104
v 0.2644 -1.2349 0.0107
v 0.2841 -1.2751 0.0111
v 0.3051 -1.3222 0.0115
v 0.3213 -1.3726 0.0115
v 0.3335 -1.4231 0.0113
v 0.3456 -1.4747 0.0109
v 0.3608 -1.5261 0.0106
v 0.3995 -1.6575 0.0109
v 0.4157 -1.7089 0.0117
v 0.4339 -1.7612 0.0124
v 0.4511 -1.8135 0.0129
v 0.4713 -1.8647 0.0135
v 0.4885 -1.9160 0.0140
v 0.5893 -2.0979 0.0178
v 0.6023 -2.1203 0.0183
v 0.6295 -2.1712 0.0194
v 0.6564 -2.2171 0.0205
v 0.6824 -2.2621 0.0221
v 0.8412 -2.5366 0.0282
v 0.8432 -2.5605 0.0276
v 0.8622 -2.6078 0.0271
v 0.8822 -2.6550 0.0263
v 0.9072 -2.7019 0.0255
v 0.9313 -2.7490 0.0257
v 0.9718 -2.7843 0.0273
v 1.0408 -2.8294 0.0302
v 1.0583 -2.8406 0.0311
v 1.1035 -2.8698 0.0338
v 1.1490 -2.9039 0.0370
v 1.1895 -2.9372 0.0398
v 1.2300 -2.9715 0.0427
v 1.2752 -2.9996 0.0456
v 1.4325 -3.0730 0.0557
v 1.4437 -3.0785 0.0566
v 1.4889 -3.1066 0.0587
v 1.5354 -3.1407 0.0595
v 1.5759 -3.1750 0.0599
v 1.6145 -3.2104 0.0599
v 1.7746 -3.3047 0.0580
v 1.7999 -3.3106 0.0571
v 1.8422 -3.3398 0.0547
v 1.8845 -3.3701 0.0517
v 2.1377 -3.4654 0.0501
v 2.1522 -3.4748 0.0511
v 2.1947 -3.5100 0.0543
v 2.2430 -3.5400 0.0563
v 2.2967 -3.5547 0.0574
v 2.3334 -3.5952 0.0576
v 2.3760 -3.6304 0.0580
v 2.4299 -3.6502 0.0584
v 2.4841 -3.6549 0.0587
v 1.8917 1.9490 0.0604
v 1.9156 1.9521 0.0611
v 1.9652 1.9642 0.0625
v 2.0151 1.9903 0.0638
v 2.0580 2.0162 0.0647
v 2.1073 2.0353 0.0659
v 2.1565 2.0544 0.0671
v 2.4375 2.1304 0.0757
v 2.4442 2.1377 0.0757
v 2.4949 2.1478 0.0778
v 2.5462 2.1650 0.0797
v 2.5975 2.1822 0.0808
v 2.6478 2.1994 0.0821
v 2.6994 2.2096 0.0836
v 2.7504 2.2347 0.0848
v 2.8521 2.3151 0.0869
v 2.8775 2.3282 0.0876
v 2.9231 2.3622 0.0888
v 2.9735 2.3783 0.0901
v 3.0186 2.4003 0.0908
v 3.0637 2.4232 0.0915
v 3.1133 2.4333 0.0927
v 3.1639 2.4435 0.0942
v 3.2135 2.4536 0.0956
v 3.2634 2.4577 0.0974
v 3.4855 2.4601 0.1046
v 3.5361 2.4703 0.1060
v 3.5860 2.4734 0.1074
v 3.6359 2.4765 0.1088
v 3.6908 2.4809 0.1104
v 3.7447 2.4842 0.1119
v 3.9395 2.4934 0.1178
v 3.9856 2.5154 0.1181
v 4.0242 2.5491 0.1174
v 4.0324 2.5684 0.1168
v 3.3233 3.4742 0.0751
v 3.3381 3.4568 0.0759
v 3.3680 3.4120 0.0777
v 3.2029 3.7883 0.0624
v 3.2838 3.7918 0.0639
v 3.3527 3.7947 0.0659
v 3.4436 3.7986 0.0683
v 3.5346 3.8024 0.0701
v 3.5794 3.7603 0.0723
v 3.5856 3.7095 0.0740
v 3.5978 3.6580 0.0759
v 3.6138 3.6106 0.0777
v 3.6427 3.5658 0.0794
v 3.6776 3.5212 0.0811
v 3.7126 3.4767 0.0840
v 3.7424 3.4329 0.0867
v 3.7666 3.3819 0.0891
v 3.8230 3.2562 0.0943
v 3.8412 3.2059 0.0960
v 3.8690 3.1630 0.0978
v 3.9059 3.1196 0.0997
v 3.9307 3.0766 0.1010
v 3.9559 3.0266 0.1029
v 3.9857 2.9838 0.1046
v 4.0109 2.9339 0.1058
v 4.0260 2.8835 0.1071
v 4.0626 2.8470 0.1088
v 4.1323 2.7849 0.1124
v 4.1592 2.7410 0.1145
v 4.1921 2.6973 0.1167
v 4.1946 2.6854 0.1170
v -0.9987 1.0496 -0.0547
v -0.9791 1.0124 -0.0535
v -0.9529 0.9614 -0.0524
v -0.9270 0.9175 -0.0512
v -0.9001 0.8736 -0.0499
v -0.8672 0.8279 -0.0480
v -0.8351 0.7793 -0.0453
v -0.8160 0.7300 -0.0429
v -0.7969 0.6818 -0.0413
v -0.7838 0.6333 -0.0406
v -0.7775 0.5775 -0.0399
v -0.7633 0.5261 -0.0385
v -0.7491 0.4746 -0.0373
v -0.7290 0.4274 -0.0354
v -0.7091 0.3813 -0.0338
v -0.6888 0.3291 -0.0324
v -0.6754 0.2946 -0.0314
v -0.6684 0.2719 -0.0309
v -0.6551 0.2194 -0.0295
v -0.6282 0.1735 -0.0275
v -0.5828 0.1424 -0.0252
v -0.5555 0.1115 -0.0241
v -0.5261 0.0797 -0.0232
v -0.4932 0.0361 -0.0223
v -0.4633 -0.0077 -0.0215
v -0.4297 -0.0453 -0.0199
v -0.4129 -0.0646 -0.0191
v -0.3878 -0.0895 -0.0176
v -0.3617 -0.1395 -0.0161
v -0.3317 -0.1842 -0.0138
v -0.3018 -0.2280 -0.0116
v -0.2760 -0.2720 -0.0099
v 0.5957 1.3565 0.0173
v 0.5715 1.4095 0.0155
v 0.5582 1.4620 0.0142
v 0.5510 1.5147 0.0134
v 0.5487 1.5677 0.0129
v 0.5355 1.6192 0.0117
v 0.5529 1.6570 0.0119
v 0.5304 1.6450 0.0111
v 0.5156 1.6644 0.0102
v 0.5073 1.7191 0.0084
v 0.4723 1.7646 0.0061
v 0.4308 1.7989 0.0039
v 0.3833 1.8329 0.0015
v 0.3391 1.8601 -0.0007
v 0.2885 1.8729 -0.0031
v 0.2541 1.8354 -0.0038
v 0.2144 1.8037 -0.0053
v 0.0059 1.7879 -0.0164
v -0.0447 1.7777 -0.0179
v -0.0874 1.7459 -0.0188
v -0.1314 1.7220 -0.0198
v -0.1450 1.7344 -0.0203
v -0.2521 1.7579 -0.0275
v -0.2992 1.7839 -0.0302
v -0.3508 1.7967 -0.0328
v -0.4018 1.7946 -0.0343
v -0.4453 1.8067 -0.0357
v -0.8704 1.7526 -0.0548
v -0.9138 1.7838 -0.0565
v -0.8980 1.8365 -0.0560
v -0.8832 1.8892 -0.0554
v -0.8704 1.9418 -0.0551
v -0.8514 1.9887 -0.0545
v -0.8313 2.0346 -0.0541
v -0.8186 2.0871 -0.0538
v -0.8199 2.1421 -0.0541
v -0.8281 2.1938 -0.0545
v -0.8363 2.2455 -0.0551
v -0.8295 2.2969 -0.0552
v -0.8297 2.3489 -0.0557
v -0.8378 2.3996 -0.0564
v -0.8530 2.4510 -0.0570
v -0.8809 2.4949 -0.0579
v -0.9031 2.5450 -0.0588
v -0.9173 2.5964 -0.0595
v -0.9392 2.6415 -0.0612
v -0.9603 2.6917 -0.0634
v -0.9814 2.7408 -0.0652
v -0.9956 2.7903 -0.0665
v -1.0017 2.8401 -0.0670
v -1.0158 2.8895 -0.0676
v -1.0229 2.9392 -0.0681
v -1.0390 2.9876 -0.0691
v -1.0620 3.0357 -0.0703
v -1.0841 3.0838 -0.0712
v 2.0384 -3.9310 0.0508
v 2.0286 -3.9835 0.0509
v 2.0036 -4.0306 0.0506
v 1.9857 -4.0794 0.0511
v 1.9750 -4.1099 0.0514
v 1.8113 -4.3571 0.0453
v 1.7687 -4.3909 0.0436
v 1.7249 -4.4198 0.0419
v 1.6855 -4.4585 0.0404
v 1.6458 -4.4912 0.0392
v 1.5990 -4.5202 0.0384
v 1.5518 -4.5392 0.0383
v 1.5093 -4.5530 0.0384
v 1.2383 -4.6046 0.0394
v 1.1837 -4.6149 0.0372
v 1.1288 -4.6203 0.0343
v 1.0739 -4.6216 0.0303
v 1.0189 -4.6229 0.0265
v 1.0028 -4.6226 0.0258
v -0.0060 3.6220 -0.0380
v -0.0414 3.5845 -0.0387
v -0.0603 3.5356 -0.0389
v -0.0793 3.4878 -0.0391
v -0.1085 3.4445 -0.0398
v -0.1407 3.4011 -0.0415
v -0.1597 3.3532 -0.0424
v -0.1816 3.3043 -0.0426
v -0.2201 3.2666 -0.0434
v -0.2523 3.2232 -0.0435
v -0.2742 3.1752 -0.0434
v -0.2892 3.1265 -0.0430
v -0.3081 3.0767 -0.0429
v -0.3240 3.0270 -0.0427
v -0.3429 2.9761 -0.0424
v -0.3677 2.9240 -0.0427
v -0.3958 2.8788 -0.0433
v -0.4292 2.8403 -0.0443
v -0.4573 2.7951 -0.0449
v -0.4781 2.7432 -0.0448
v -0.5019 2.6911 -0.0453
v -0.5059 2.6910 -0.0455
v -0.5629 2.5964 -0.0472
v -0.5921 2.5522 -0.0479
v -0.6286 2.5166 -0.0491
v -0.6581 2.4793 -0.0501
v -1.9024 2.1082 0.0000
v -1.8942 2.1255 0.0000
v -1.8471 2.1495 0.0000
v -1.6770 2.4801 -0.0885
v -1.6739 2.4071 -0.0885
v -1.6717 2.3562 -0.0885
v -1.6512 2.4151 -0.0880
v -1.6364 2.4678 -0.0877
v -1.6247 2.5203 -0.0874
v -1.6122 2.5799 -0.0873
v -1.6003 2.6305 -0.0872
v -1.5905 2.6819 -0.0869
v -1.2630 -4.8169 -0.1437
v -1.2134 -4.8288 -0.1413
v -1.1612 -4.8316 -0.1380
v -1.1089 -4.8384 -0.1356
v -1.0557 -4.8412 -0.1327
v -1.0036 -4.8430 -0.1278
v -0.9516 -4.8417 -0.1234
v -0.8990 -4.8315 -0.1205
v -0.8499 -4.8104 -0.1162
v -0.7975 -4.7942 -0.1093
v -0.7514 -4.7732 -0.1045
v -0.6990 -4.7569 -0.1015
v -0.6465 -4.7447 -0.0987
v -0.5941 -4.7285 -0.0963
v -0.5479 -4.7085 -0.0932
v -0.4999 -4.6854 -0.0886
v -0.4519 -4.6594 -0.0847
v -0.4415 -4.6459 -0.0840
v 0.8491 -0.1781 0.0436
v 0.8338 -0.1247 0.0428
v 0.8196 -0.0723 0.0422
v 0.8053 -0.0188 0.0416
v 0.7971 0.0329 0.0413
v 0.7839 0.0833 0.0408
v 0.7757 0.1350 0.0397
v 0.7603 0.4277 0.0365
v 0.7522 0.4774 0.0356
v 0.7430 0.5280 0.0348
v 0.7349 0.5787 0.0342
v 0.7257 0.6304 0.0333
v 0.7254 0.6364 0.0333
v -1.4463 -2.9520 -0.0713
v -1.6592 -3.6407 0.0000
v -1.7075 -3.6127 0.0000
v -1.7130 -3.6009 0.0000
v 2.0154 -3.7889 0.0485
v 1.9832 -3.8323 0.0466
v 1.9383 -3.8602 0.0425
v 1.8903 -3.8853 0.0391
v 1.8465 -3.9132 0.0386
v 1.8100 -3.9497 0.0369
v 1.7616 -3.9658 0.0359
v 1.7177 -3.9907 0.0357
v 1.6728 -4.0186 0.0356
v 1.6332 -4.0513 0.0357
v 1.5871 -4.0753 0.0357
v 1.5379 -4.0934 0.0356
v 1.4840 -4.0967 0.0357
v 1.4790 -4.0969 0.0357
v -0.4670 -4.4929 -0.0848
v -0.4611 -4.5367 -0.0847
v -0.4539 -4.5894 -0.0847
v -0.4416 -4.6419 -0.0840
v -0.3881 -4.6547 -0.0808
v -0.3364 -4.6685 -0.0769
v -0.2009 -4.7008 -0.0662
v -0.1757 -4.7047 -0.0642
v -0.1260 -4.6986 -0.0601
v -0.0758 -4.7015 -0.0559
v -0.0254 -4.7093 -0.0523
v 0.0281 -4.7201 -0.0484
v 0.8966 -4.1477 0.0188
v 0.8430 -4.1580 0.0147
v 0.7890 -4.1593 0.0105
v 0.7352 -4.1656 0.0063
v 0.6872 -4.1666 0.0025
v 0.4569 -4.1874 -0.0128
v 0.4050 -4.1906 -0.0162
v 0.3541 -4.1938 -0.0209
v 0.3380 -4.1934 -0.0223
v -1.1511 1.4094 -0.0662
v -1.1642 1.4589 -0.0671
v -1.1733 1.5086 -0.0678
v -1.2186 1.5377 -0.0701
v -1.2698 1.5405 -0.0726
v -1.3207 1.5373 -0.0749
v -1.3444 1.5293 -0.0761
v -1.3820 1.5207 -0.0781
v -1.4326 1.5106 -0.0807
v -1.4830 1.4954 -0.0829
v -1.5075 1.5054 -0.0841
v -1.5787 3.1338 -0.0854
v -1.5789 3.1859 -0.0850
v -1.5840 3.2367 -0.0849
v -1.5892 3.2885 -0.0848
v -1.6004 3.3401 -0.0848
v -1.6246 3.3901 -0.0850
v -1.6468 3.4412 -0.0848
v -1.6707 3.4862 -0.0847
v -1.6889 3.5375 -0.0845
v -1.2828 3.5448 -0.0784
v -1.2950 3.5963 -0.0790
v -1.2792 3.3187 -0.0773
v -1.2914 3.3702 -0.0775
v -1.3012 3.3878 -0.0777
v 0.1463 3.4313 -0.0289
v 0.1294 3.3795 -0.0290
v 0.1356 3.6581 -0.0337
v 0.1636 3.6592 -0.0320
v 4.2974 2.8089 0.1155
v 4.2630 2.7714 0.1161
v 4.2370 2.7223 0.1172
v 4.1976 2.6856 0.1171
v 4.1867 2.6361 0.1181
v 4.1439 2.6062 0.1185
v 4.1102 2.5748 0.1193
v 0.3084 2.1130 -0.0063
v 0.2973 2.1616 -0.0079
v 0.2901 2.2133 -0.0091
v 0.2729 2.2636 -0.0107
v 0.2528 2.3138 -0.0124
v 0.2416 2.3654 -0.0135
v 0.2312 2.3970 -0.0142
v 0.9018 1.8559 0.0201
v 0.8533 1.8659 0.0177
v 0.8026 1.8587 0.0160
v 0.7529 1.8516 0.0144
v 0.7031 1.8445 0.0131
v 0.6564 1.8135 0.0123
v 0.6350 1.7976 0.0116
v -1.1307 1.6125 -0.0659
v -1.1116 1.6583 -0.0648
v -1.0773 1.6988 -0.0630
v -1.0348 1.7336 -0.0612
v -0.9866 1.7547 -0.0594
v -0.9335 1.7760 -0.0572
v -0.9208 1.7835 -0.0567
v 2.8468 1.1909 0.1068
v 2.7990 1.2079 0.1047
v 2.7466 1.2167 0.1028
v 2.6932 1.2244 0.1010
v 2.6398 1.2331 0.0990
v 2.5923 1.2431 0.0972
v 1.0022 -1.4027 0.0444
v 0.9903 -1.4533 0.0433
v 0.9845 -1.5036 0.0422
v 0.9786 -1.5539 0.0407
v 0.9787 -1.6049 0.0394
v 0.9669 -1.6555 0.0381
l 1 2 3 4 5 6 7 8 9 10 11 12 13 14 15 16 17 18 19 20 21 22 23 24 25 26 27 28 29 30 31 32 33 34 35 36 37 38 39 40 41 42 43 44 45 46 47 48 49 50 51 52 53 54 55 56 57 58 59 60
l 61 62 63 64 65 66 67 68 69 70 71 72 73 74 75 76 77 78 79 80 81 82 83 84 85 86 87 88 89 90 91 92 93 94 95
l 96 97 98 99 100 101 102 103 104 105 106 107 108 109 110 111 112 113 114 115 116 117 118 119 120 121 122 123 124 125 126
l 127 128 129 130 131 132 133 134 135 136 137 138 139 140 141 142 143 144 145 146 147 148 149 150 151 152 153 154 155 156 157 158
l 159 160 161 162 163 164 165 166 167 168 169 170 171 172 173 174 175 176 177 178 179 180 181 182 183 184 185
l 186 187 188 189 190 191 192 193 194 195 196 197 198 199 200 201 202 203 204 205 206 207 208 209 210 211 212 213
l 214 215 216 217 218 219 220 221 222 223 224 225 226 227 228 229 230 231 232
l 233 234 235 236 237 238 239 240 241 242 243 244 245 246 247 248 249 250 251 252 253 254 255 256 257 258
l 259 260 261 262 263 264 265 266 267 268 269 270
l 271 272 273 274 275 276 277 278 279 280 281 282 283 284 285 286 287 288
l 289 290 291 292 293 294 295 296 297 298 299 300 301
l 302 303 304 305
l 306 307 308 309 310 311 312 313 314 315 316 317 318 319
l 320 321 322 323 324 325 326 327 328 329 330 331
l 332 333 334 335 336 337 338 339 340
l 341 342 343 344 345 346 347 348 349 350 351
l 352 353 354 355 356 357 358 359 360
l 361 362 363 364 365
l 366 367 368 369
l 370 371 372 373 374 375 376
l 377 378 379 380 381 382 383
l 384 385 386 387 388 389 390
l 391 392 393 394 395 396 397
l 398 399 400 401 402 403
l 404 405 406 407 408 409
