0
SECTION
2
ENTITIES
0
3DFACE
8
A2
10
-3.29684
20
3.44817
30
-6.28128
11
-3.16655
21
3.48421
31
-6.30551
12
-3.12144
22
3.34879
32
-6.26595
13
-3.25173
23
3.31275
33
-6.24172
0
3DFACE
8
A2
10
-3.16655
20
3.48421
30
-6.30551
11
-3.03625
21
3.52008
31
-6.32995
12
-2.99114
22
3.38466
32
-6.29039
13
-3.12144
23
3.34879
33
-6.26595
0
3DFACE
8
A2
10
-3.03625
20
3.52008
30
-6.32995
11
-2.90593
21
3.55578
31
-6.35461
12
-2.86082
22
3.42035
32
-6.31504
13
-2.99114
23
3.38466
33
-6.29039
0
3DFACE
8
A2
10
-2.90593
20
3.55578
30
-6.35461
11
-2.77562
21
3.59148
31
-6.37926
12
-2.73051
22
3.45605
32
-6.33970
13
-2.86082
23
3.42035
33
-6.31504
0
3DFACE
8
A2
10
-2.77562
20
3.59148
30
-6.37926
11
-2.64531
21
3.62717
31
-6.40391
12
-2.60020
22
3.49174
32
-6.36435
13
-2.73051
23
3.45605
33
-6.33970
0
3DFACE
8
A2
10
-2.64531
20
3.62717
30
-6.40391
11
-2.51500
21
3.66287
31
-6.42857
12
-2.46982
22
3.52615
32
-6.39061
13
-2.60020
23
3.49174
33
-6.36435
0
3DFACE
8
A2
10
-2.51500
20
3.66287
30
-6.42857
11
-2.38468
21
3.69856
31
-6.45322
12
-2.33945
22
3.56082
32
-6.41655
13
-2.46982
23
3.52615
33
-6.39061
0
3DFACE
8
A2
10
-2.38468
20
3.69856
30
-6.45322
11
-2.25437
21
3.73426
31
-6.47788
12
-2.20909
22
3.59565
32
-6.44228
13
-2.33945
23
3.56082
33
-6.41655
0
3DFACE
8
A2
10
-2.25437
20
3.73426
30
-6.47788
11
-2.12406
21
3.76996
31
-6.50253
12
-2.07875
22
3.63075
32
-6.46768
13
-2.20909
23
3.59565
33
-6.44228
0
3DFACE
8
A2
10
-2.12406
20
3.76996
30
-6.50253
11
-1.99375
21
3.80565
31
-6.52719
12
-1.94842
22
3.66610
32
-6.49276
13
-2.07875
23
3.63075
33
-6.46768
0
3DFACE
8
A2
10
-1.99375
20
3.80565
30
-6.52719
11
-1.86344
21
3.84135
31
-6.55184
12
-1.81817
22
3.70291
32
-6.51603
13
-1.94842
23
3.66610
33
-6.49276
0
3DFACE
8
A2
10
-1.86344
20
3.84135
30
-6.55184
11
-1.73312
21
3.87705
31
-6.57650
12
-1.68791
22
3.73973
32
-6.53929
13
-1.81817
23
3.70291
33
-6.51603
0
3DFACE
8
A2
10
-1.73312
20
3.87705
30
-6.57650
11
-1.60276
21
3.91171
31
-6.60243
12
-1.55759
22
3.77525
32
-6.56416
13
-1.68791
23
3.73973
33
-6.53929
0
3DFACE
8
A2
10
-1.60276
20
3.91171
30
-6.60243
11
-1.47240
21
3.94663
31
-6.62805
12
-1.42727
22
3.81069
32
-6.58913
13
-1.55759
23
3.77525
33
-6.56416
0
3DFACE
8
A2
10
-1.47240
20
3.94663
30
-6.62805
11
-1.34206
21
3.98173
31
-6.65346
12
-1.29694
22
3.84613
32
-6.61411
13
-1.42727
23
3.81069
33
-6.58913
0
3DFACE
8
A2
10
-1.34206
20
3.98173
30
-6.65346
11
-1.21172
21
4.01691
31
-6.67875
12
-1.16659
22
3.88122
32
-6.63951
13
-1.29694
23
3.84613
33
-6.61411
0
3DFACE
8
A2
10
-1.21172
20
4.01691
30
-6.67875
11
-1.08137
21
4.05200
31
-6.70416
12
-1.03622
22
3.91580
32
-6.66556
13
-1.16659
23
3.88122
33
-6.63951
0
3DFACE
8
A2
10
-1.08137
20
4.05200
30
-6.70416
11
-0.95107
21
4.08796
31
-6.72849
12
-0.90589
22
3.95115
32
-6.69064
13
-1.03622
23
3.91580
33
-6.66556
0
3DFACE
8
A2
10
-0.95107
20
4.08796
30
-6.72849
11
-0.82071
21
4.12262
31
-6.75443
12
-0.77549
22
3.98513
32
-6.71743
13
-0.90589
23
3.95115
33
-6.69064
0
3DFACE
8
A2
10
-0.82071
20
4.12262
30
-6.75443
11
-0.69033
21
4.15711
31
-6.78058
12
-0.64508
22
4.01902
32
-6.74434
13
-0.77549
23
3.98513
33
-6.71743
0
3DFACE
8
A2
10
-0.69033
20
4.15711
30
-6.78058
11
-0.55995
21
4.19161
31
-6.80673
12
-0.51468
22
4.05308
32
-6.77102
13
-0.64508
23
4.01902
33
-6.74434
0
3DFACE
8
A2
10
-0.55995
20
4.19161
30
-6.80673
11
-0.42960
21
4.22653
31
-6.83235
12
-0.38431
22
4.08766
32
-6.79707
13
-0.51468
23
4.05308
33
-6.77102
0
3DFACE
8
A2
10
-0.42960
20
4.22653
30
-6.83235
11
-0.29928
21
4.26205
31
-6.85722
12
-0.25397
22
4.12284
32
-6.82236
13
-0.38431
23
4.08766
33
-6.79707
0
3DFACE
8
A2
10
-0.29928
20
4.26205
30
-6.85722
11
-0.16902
21
4.29870
31
-6.88070
12
-0.12370
22
4.15949
32
-6.84584
13
-0.25397
23
4.12284
33
-6.82236
0
3DFACE
8
A2
10
-0.16902
20
4.29870
30
-6.88070
11
-0.03875
21
4.33534
31
-6.90417
12
0.00656
22
4.19613
32
-6.86932
13
-0.12370
23
4.15949
33
-6.84584
0
3DFACE
8
A2
10
-0.03875
20
4.33534
30
-6.90417
11
0.09148
21
4.37250
31
-6.92701
12
0.13675
22
4.23397
32
-6.89130
13
0.00656
23
4.19613
33
-6.86932
0
3DFACE
8
A2
10
0.09148
20
4.37250
30
-6.92701
11
0.22174
21
4.40923
31
-6.95038
12
0.26693
22
4.27225
32
-6.91274
13
0.13675
23
4.23397
33
-6.89130
0
3DFACE
8
A2
10
0.22174
20
4.40923
30
-6.95038
11
0.35202
21
4.44552
31
-6.97428
12
0.39712
22
4.31010
32
-6.93472
13
0.26693
23
4.27225
33
-6.91274
0
3DFACE
8
A2
10
0.35202
20
4.44552
30
-6.97428
11
0.48230
21
4.48174
31
-6.99830
12
0.52735
22
4.34743
32
-6.95735
13
0.39712
23
4.31010
33
-6.93472
0
3DFACE
8
A2
10
0.48230
20
4.48174
30
-6.99830
11
0.61264
21
4.51692
31
-7.02359
12
0.65768
22
4.38278
32
-6.98243
13
0.52735
23
4.34743
33
-6.95735
0
3DFACE
8
A2
10
0.61264
20
4.51692
30
-7.02359
11
0.74304
21
4.55098
31
-7.05028
12
0.78814
22
4.41581
32
-7.01040
13
0.65768
23
4.38278
33
-6.98243
0
3DFACE
8
A2
10
0.74304
20
4.55098
30
-7.05028
11
0.87343
21
4.58521
31
-7.07675
12
0.91861
22
4.44841
32
-7.03891
13
0.78814
23
4.41581
33
-7.01040
0
3DFACE
8
A2
10
0.87343
20
4.58521
30
-7.07675
11
1.00377
21
4.62039
31
-7.10205
12
1.04904
22
4.48204
32
-7.06613
13
0.91861
23
4.44841
33
-7.03891
0
3DFACE
8
A2
10
1.00377
20
4.62039
30
-7.10205
11
1.13411
21
4.65566
31
-7.12724
12
1.17944
22
4.51602
32
-7.09292
13
1.04904
23
4.48204
33
-7.06613
0
3DFACE
8
A2
10
1.13411
20
4.65566
30
-7.12724
11
1.26438
21
4.69205
31
-7.15104
12
1.30973
22
4.55215
32
-7.11704
13
1.17944
23
4.51602
33
-7.09292
0
3DFACE
8
A2
10
1.26438
20
4.69205
30
-7.15104
11
1.39459
21
4.72963
31
-7.17334
12
1.43993
22
4.58999
32
-7.13902
13
1.30973
23
4.55215
33
-7.11704
0
3DFACE
8
A2
10
1.39459
20
4.72963
30
-7.17334
11
1.52481
21
4.76714
31
-7.19575
12
1.57013
22
4.62775
32
-7.16111
13
1.43993
23
4.58999
33
-7.13902
0
3DFACE
8
A2
10
1.52481
20
4.76714
30
-7.19575
11
1.65507
21
4.80378
31
-7.21922
12
1.70037
22
4.66483
32
-7.18405
13
1.57013
23
4.62775
33
-7.16111
0
3DFACE
8
A2
10
1.65507
20
4.80378
30
-7.21922
11
1.78534
21
4.84025
31
-7.24292
12
1.83059
22
4.70224
32
-7.20656
13
1.70037
23
4.66483
33
-7.18405
0
3DFACE
8
A2
10
1.78534
20
4.84025
30
-7.24292
11
1.91561
21
4.87672
31
-7.26661
12
1.96082
22
4.73949
32
-7.22929
13
1.83059
23
4.70224
33
-7.20656
0
3DFACE
8
A2
10
1.91561
20
4.87672
30
-7.26661
11
2.04592
21
4.91241
31
-7.29126
12
2.09109
22
4.77587
32
-7.25309
13
1.96082
23
4.73949
33
-7.22929
0
3DFACE
8
A2
10
2.04592
20
4.91241
30
-7.29126
11
2.17624
21
4.94811
31
-7.31592
12
2.22137
22
4.81217
32
-7.27700
13
2.09109
23
4.77587
33
-7.25309
0
3DFACE
8
A2
10
2.17624
20
4.94811
30
-7.31592
11
2.30655
21
4.98381
31
-7.34057
12
2.35166
22
4.84838
32
-7.30101
13
2.22137
23
4.81217
33
-7.27700
0
3DFACE
8
A2
10
2.30655
20
4.98381
30
-7.34057
11
2.43686
21
5.01950
31
-7.36523
12
2.48197
22
4.88408
32
-7.32566
13
2.35166
23
4.84838
33
-7.30101
0
3DFACE
8
A2
10
2.43686
20
5.01950
30
-7.36523
11
2.56717
21
5.05520
31
-7.38988
12
2.61228
22
4.91977
32
-7.35032
13
2.48197
23
4.88408
33
-7.32566
0
3DFACE
8
A2
10
2.56717
20
5.05520
30
-7.38988
11
2.69748
21
5.09090
31
-7.41453
12
2.74259
22
4.95547
32
-7.37497
13
2.61228
23
4.91977
33
-7.35032
0
3DFACE
8
A2
10
2.69748
20
5.09090
30
-7.41453
11
2.82780
21
5.12659
31
-7.43919
12
2.87291
22
4.99117
32
-7.39963
13
2.74259
23
4.95547
33
-7.37497
0
3DFACE
8
A2
10
2.82780
20
5.12659
30
-7.43919
11
2.95811
21
5.16229
31
-7.46384
12
3.00322
22
5.02686
32
-7.42428
13
2.87291
23
4.99117
33
-7.39963
0
3DFACE
8
A2
10
2.95811
20
5.16229
30
-7.46384
11
3.08842
21
5.19799
31
-7.48850
12
3.13353
22
5.06256
32
-7.44894
13
3.00322
23
5.02686
33
-7.42428
0
3DFACE
8
A2
10
3.08842
20
5.19799
30
-7.48850
11
3.21873
21
5.23368
31
-7.51315
12
3.26384
22
5.09826
32
-7.47359
13
3.13353
23
5.06256
33
-7.44894
0
3DFACE
8
A2
10
3.21873
20
5.23368
30
-7.51315
11
3.34905
21
5.26938
31
-7.53781
12
3.39415
22
5.13395
32
-7.49825
13
3.26384
23
5.09826
33
-7.47359
0
3DFACE
8
A2
10
3.34905
20
5.26938
30
-7.53781
11
3.47936
21
5.30508
31
-7.56246
12
3.52447
22
5.16965
32
-7.52290
13
3.39415
23
5.13395
33
-7.49825
0
3DFACE
8
A2
10
3.47936
20
5.30508
30
-7.56246
11
3.60967
21
5.34077
31
-7.58712
12
3.65478
22
5.20534
32
-7.54756
13
3.52447
23
5.16965
33
-7.52290
0
3DFACE
8
A2
10
3.60967
20
5.34077
30
-7.58712
11
3.73997
21
5.37664
31
-7.61156
12
3.78508
22
5.24121
32
-7.57200
13
3.65478
23
5.20534
33
-7.54756
0
3DFACE
8
A2
10
3.73997
20
5.37664
30
-7.61156
11
3.87027
21
5.41268
31
-7.63578
12
3.91538
22
5.27725
32
-7.59622
13
3.78508
23
5.24121
33
-7.57200
0
3DFACE
8
A2
10
-3.25173
20
3.31275
30
-6.24172
11
-3.12144
21
3.34879
31
-6.26595
12
-3.07558
22
3.19943
32
-6.24372
13
-3.20594
23
3.16451
33
-6.21810
0
3DFACE
8
A2
10
-3.12144
20
3.34879
30
-6.26595
11
-2.99114
21
3.38466
31
-6.29039
12
-2.94523
22
3.23444
32
-6.26923
13
-3.07558
23
3.19943
33
-6.24372
0
3DFACE
8
A2
10
-2.99114
20
3.38466
30
-6.29039
11
-2.86082
21
3.42035
31
-6.31504
12
-2.81489
22
3.26953
32
-6.29464
13
-2.94523
23
3.23444
33
-6.26923
0
3DFACE
8
A2
10
-2.86082
20
3.42035
30
-6.31504
11
-2.73051
21
3.45605
31
-6.33970
12
-2.68456
22
3.30489
32
-6.31972
13
-2.81489
23
3.26953
33
-6.29464
0
3DFACE
8
A2
10
-2.73051
20
3.45605
30
-6.33970
11
-2.60020
21
3.49174
31
-6.36435
12
-2.55430
22
3.34161
32
-6.34309
13
-2.68456
23
3.30489
33
-6.31972
0
3DFACE
8
A2
10
-2.60020
20
3.49174
30
-6.36435
11
-2.46982
21
3.52615
31
-6.39061
12
-2.42398
22
3.37714
32
-6.36796
13
-2.55430
23
3.34161
33
-6.34309
0
3DFACE
8
A2
10
-2.46982
20
3.52615
30
-6.39061
11
-2.33945
21
3.56082
31
-6.41655
12
-2.29367
22
3.41292
32
-6.39250
13
-2.42398
23
3.37714
33
-6.36796
0
3DFACE
8
A2
10
-2.33945
20
3.56082
30
-6.41655
11
-2.20909
21
3.59565
31
-6.44228
12
-2.16338
22
3.44888
32
-6.41684
13
-2.29367
23
3.41292
33
-6.39250
0
3DFACE
8
A2
10
-2.20909
20
3.59565
30
-6.44228
11
-2.07875
21
3.63075
31
-6.46768
12
-2.03309
22
3.48500
32
-6.44096
13
-2.16338
23
3.44888
33
-6.41684
0
3DFACE
8
A2
10
-2.07875
20
3.63075
30
-6.46768
11
-1.94842
21
3.66610
31
-6.49276
12
-1.90280
22
3.52113
32
-6.46508
13
-2.03309
23
3.48500
33
-6.44096
0
3DFACE
8
A2
10
-1.94842
20
3.66610
30
-6.49276
11
-1.81817
21
3.70291
31
-6.51603
12
-1.77257
22
3.55837
32
-6.48781
13
-1.90280
23
3.52113
33
-6.46508
0
3DFACE
8
A2
10
-1.81817
20
3.70291
30
-6.51603
11
-1.68791
21
3.73973
31
-6.53929
12
-1.64233
22
3.59544
32
-6.51075
13
-1.77257
23
3.55837
33
-6.48781
0
3DFACE
8
A2
10
-1.68791
20
3.73973
30
-6.53929
11
-1.55759
21
3.77525
31
-6.56416
12
-1.51201
22
3.63097
32
-6.53562
13
-1.64233
23
3.59544
33
-6.51075
0
3DFACE
8
A2
10
-1.55759
20
3.77525
30
-6.56416
11
-1.42727
21
3.81069
31
-6.58913
12
-1.38166
22
3.66606
32
-6.56102
13
-1.51201
23
3.63097
33
-6.53562
0
3DFACE
8
A2
10
-1.42727
20
3.81069
30
-6.58913
11
-1.29694
21
3.84613
31
-6.61411
12
-1.25130
22
3.70081
32
-6.58685
13
-1.38166
23
3.66606
33
-6.56102
0
3DFACE
8
A2
10
-1.29694
20
3.84613
30
-6.61411
11
-1.16659
21
3.88122
31
-6.63951
12
-1.12091
22
3.73513
32
-6.61322
13
-1.25130
23
3.70081
33
-6.58685
0
3DFACE
8
A2
10
-1.16659
20
3.88122
30
-6.63951
11
-1.03622
21
3.91580
31
-6.66556
12
-0.99050
22
3.76885
32
-6.64033
13
-1.12091
23
3.73513
33
-6.61322
0
3DFACE
8
A2
10
-1.03622
20
3.91580
30
-6.66556
11
-0.90589
21
3.95115
31
-6.69064
12
-0.86012
22
3.80335
32
-6.66649
13
-0.99050
23
3.76885
33
-6.64033
0
3DFACE
8
A2
10
-0.90589
20
3.95115
30
-6.69064
11
-0.77549
21
3.98513
31
-6.71743
12
-0.72968
22
3.83663
32
-6.69414
13
-0.86012
23
3.80335
33
-6.66649
0
3DFACE
8
A2
10
-0.77549
20
3.98513
30
-6.71743
11
-0.64508
21
4.01902
31
-6.74434
12
-0.59925
22
3.87018
32
-6.72146
13
-0.72968
23
3.83663
33
-6.69414
0
3DFACE
8
A2
10
-0.64508
20
4.01902
30
-6.74434
11
-0.51468
21
4.05308
31
-6.77102
12
-0.46884
22
3.90407
32
-6.74837
13
-0.59925
23
3.87018
33
-6.72146
0
3DFACE
8
A2
10
-0.51468
20
4.05308
30
-6.77102
11
-0.38431
21
4.08766
31
-6.79707
12
-0.33845
22
3.93822
32
-6.77495
13
-0.46884
23
3.90407
33
-6.74837
0
3DFACE
8
A2
10
-0.38431
20
4.08766
30
-6.79707
11
-0.25397
21
4.12284
31
-6.82236
12
-0.20808
22
3.97289
32
-6.80088
13
-0.33845
23
3.93822
33
-6.77495
0
3DFACE
8
A2
10
-0.25397
20
4.12284
30
-6.82236
11
-0.12370
21
4.15949
31
-6.84584
12
-0.07779
22
4.00901
32
-6.82500
13
-0.20808
23
3.97289
33
-6.80088
0
3DFACE
8
A2
10
-0.12370
20
4.15949
30
-6.84584
11
0.00656
21
4.19613
31
-6.86932
12
0.05250
22
4.04522
32
-6.84902
13
-0.07779
23
4.00901
33
-6.82500
0
3DFACE
8
A2
10
0.00656
20
4.19613
30
-6.86932
11
0.13675
21
4.23397
31
-6.89130
12
0.18268
22
4.08333
32
-6.87068
13
0.05250
23
4.04522
33
-6.84902
0
3DFACE
8
A2
10
0.13675
20
4.23397
30
-6.89130
11
0.26693
21
4.27225
31
-6.91274
12
0.31278
22
4.12298
32
-6.89041
13
0.18268
23
4.08333
33
-6.87068
0
3DFACE
8
A2
10
0.26693
20
4.27225
30
-6.91274
11
0.39712
21
4.31010
31
-6.93472
12
0.44286
22
4.16298
32
-6.90971
13
0.31278
23
4.12298
33
-6.89041
0
3DFACE
8
A2
10
0.39712
20
4.31010
30
-6.93472
11
0.52735
21
4.34743
31
-6.95735
12
0.57302
22
4.20160
32
-6.93073
13
0.44286
23
4.16298
33
-6.90971
0
3DFACE
8
A2
10
0.52735
20
4.34743
30
-6.95735
11
0.65768
21
4.38278
31
-6.98243
12
0.70334
22
4.23712
32
-6.95560
13
0.57302
23
4.20160
33
-6.93073
0
3DFACE
8
A2
10
0.65768
20
4.38278
30
-6.98243
11
0.78814
21
4.41581
31
-7.01040
12
0.83383
22
4.26955
32
-6.98432
13
0.70334
23
4.23712
33
-6.95560
0
3DFACE
8
A2
10
0.78814
20
4.41581
30
-7.01040
11
0.91861
21
4.44841
31
-7.03891
12
0.96439
22
4.30060
32
-7.01475
13
0.83383
23
4.26955
33
-6.98432
0
3DFACE
8
A2
10
0.91861
20
4.44841
30
-7.03891
11
1.04904
21
4.48204
31
-7.06613
12
1.09492
22
4.33209
32
-7.04465
13
0.96439
23
4.30060
33
-7.01475
0
3DFACE
8
A2
10
1.04904
20
4.48204
30
-7.06613
11
1.17944
21
4.51602
31
-7.09292
12
1.22540
22
4.36469
32
-7.07315
13
1.09492
23
4.33209
33
-7.04465
0
3DFACE
8
A2
10
1.17944
20
4.51602
30
-7.09292
11
1.30973
21
4.55215
31
-7.11704
12
1.35571
22
4.40055
32
-7.09759
13
1.22540
23
4.36469
33
-7.07315
0
3DFACE
8
A2
10
1.30973
20
4.55215
30
-7.11704
11
1.43993
21
4.58999
31
-7.13902
12
1.48590
22
4.43849
32
-7.11947
13
1.35571
23
4.40055
33
-7.09759
0
3DFACE
8
A2
10
1.43993
20
4.58999
30
-7.13902
11
1.57013
21
4.62775
31
-7.16111
12
1.61609
22
4.47650
32
-7.14123
13
1.48590
23
4.43849
33
-7.11947
0
3DFACE
8
A2
10
1.57013
20
4.62775
30
-7.16111
11
1.70037
21
4.66483
31
-7.18405
12
1.74631
22
4.51383
32
-7.16385
13
1.61609
23
4.47650
33
-7.14123
0
3DFACE
8
A2
10
1.70037
20
4.66483
30
-7.18405
11
1.83059
21
4.70224
31
-7.20656
12
1.87650
22
4.55177
32
-7.18573
13
1.74631
23
4.51383
33
-7.16385
0
3DFACE
8
A2
10
1.83059
20
4.70224
30
-7.20656
11
1.96082
21
4.73949
31
-7.22929
12
2.00670
22
4.58953
32
-7.20781
13
1.87650
23
4.55177
33
-7.18573
0
3DFACE
8
A2
10
1.96082
20
4.73949
30
-7.22929
11
2.09109
21
4.77587
31
-7.25309
12
2.13695
22
4.62651
32
-7.23086
13
2.00670
23
4.58953
33
-7.20781
0
3DFACE
8
A2
10
2.09109
20
4.77587
30
-7.25309
11
2.22137
21
4.81217
31
-7.27700
12
2.26720
22
4.66341
32
-7.25402
13
2.13695
23
4.62651
33
-7.23086
0
3DFACE
8
A2
10
2.22137
20
4.81217
30
-7.27700
11
2.35166
21
4.84838
31
-7.30101
12
2.39745
22
4.70014
32
-7.27739
13
2.26720
23
4.66341
33
-7.25402
0
3DFACE
8
A2
10
2.35166
20
4.84838
30
-7.30101
11
2.48197
21
4.88408
31
-7.32566
12
2.52774
22
4.73635
32
-7.30140
13
2.39745
23
4.70014
33
-7.27739
0
3DFACE
8
A2
10
2.48197
20
4.88408
30
-7.32566
11
2.61228
21
4.91977
31
-7.35032
12
2.65803
22
4.77239
32
-7.32563
13
2.52774
23
4.73635
33
-7.30140
0
3DFACE
8
A2
10
2.61228
20
4.91977
30
-7.35032
11
2.74259
21
4.95547
31
-7.37497
12
2.78833
22
4.80835
32
-7.34996
13
2.65803
23
4.77239
33
-7.32563
0
3DFACE
8
A2
10
2.74259
20
4.95547
30
-7.37497
11
2.87291
21
4.99117
31
-7.39963
12
2.91864
22
4.84413
32
-7.37451
13
2.78833
23
4.80835
33
-7.34996
0
3DFACE
8
A2
10
2.87291
20
4.99117
30
-7.39963
11
3.00322
21
5.02686
31
-7.42428
12
3.04895
22
4.87983
32
-7.39917
13
2.91864
23
4.84413
33
-7.37451
0
3DFACE
8
A2
10
3.00322
20
5.02686
30
-7.42428
11
3.13353
21
5.06256
31
-7.44894
12
3.17926
22
4.91561
32
-7.42371
13
3.04895
23
4.87983
33
-7.39917
0
3DFACE
8
A2
10
3.13353
20
5.06256
30
-7.44894
11
3.26384
21
5.09826
31
-7.47359
12
3.30957
22
4.95131
32
-7.44837
13
3.17926
23
4.91561
33
-7.42371
0
3DFACE
8
A2
10
3.26384
20
5.09826
30
-7.47359
11
3.39415
21
5.13395
31
-7.49825
12
3.43988
22
4.98700
32
-7.47302
13
3.30957
23
4.95131
33
-7.44837
0
3DFACE
8
A2
10
3.39415
20
5.13395
30
-7.49825
11
3.52447
21
5.16965
31
-7.52290
12
3.57019
22
5.02270
32
-7.49768
13
3.43988
23
4.98700
33
-7.47302
0
3DFACE
8
A2
10
3.52447
20
5.16965
30
-7.52290
11
3.65478
21
5.20534
31
-7.54756
12
3.70051
22
5.05840
32
-7.52233
13
3.57019
23
5.02270
33
-7.49768
0
3DFACE
8
A2
10
3.65478
20
5.20534
30
-7.54756
11
3.78508
21
5.24121
31
-7.57200
12
3.83081
22
5.09426
32
-7.54677
13
3.70051
23
5.05840
33
-7.52233
0
3DFACE
8
A2
10
3.78508
20
5.24121
30
-7.57200
11
3.91538
21
5.27725
31
-7.59622
12
3.96111
22
5.13022
32
-7.57111
13
3.83081
23
5.09426
33
-7.54677
0
3DFACE
8
A2
10
-3.20594
20
3.16451
30
-6.21810
11
-3.07558
21
3.19943
31
-6.24372
12
-3.02902
22
3.03692
32
-6.23786
13
-3.15935
23
3.00148
33
-6.21289
0
3DFACE
8
A2
10
-3.07558
20
3.19943
30
-6.24372
11
-2.94523
21
3.23444
31
-6.26923
12
-2.89871
22
3.07261
32
-6.26252
13
-3.02902
23
3.03692
33
-6.23786
0
3DFACE
8
A2
10
-2.94523
20
3.23444
30
-6.26923
11
-2.81489
21
3.26953
31
-6.29464
12
-2.76841
22
3.10857
32
-6.28685
13
-2.89871
23
3.07261
33
-6.26252
0
3DFACE
8
A2
10
-2.81489
20
3.26953
30
-6.29464
11
-2.68456
21
3.30489
31
-6.31972
12
-2.63812
22
3.14469
32
-6.31097
13
-2.76841
23
3.10857
33
-6.28685
0
3DFACE
8
A2
10
-2.68456
20
3.30489
30
-6.31972
11
-2.55430
21
3.34161
31
-6.34309
12
-2.50792
22
3.18237
32
-6.33316
13
-2.63812
23
3.14469
33
-6.31097
0
3DFACE
8
A2
10
-2.55430
20
3.34161
30
-6.34309
11
-2.42398
21
3.37714
31
-6.36796
12
-2.37764
22
3.21875
32
-6.35696
13
-2.50792
23
3.18237
33
-6.33316
0
3DFACE
8
A2
10
-2.42398
20
3.37714
30
-6.36796
11
-2.29367
21
3.41292
31
-6.39250
12
-2.24737
22
3.25531
32
-6.38055
13
-2.37764
23
3.21875
33
-6.35696
0
3DFACE
8
A2
10
-2.29367
20
3.41292
30
-6.39250
11
-2.16338
21
3.44888
31
-6.41684
12
-2.11712
22
3.29212
32
-6.40381
13
-2.24737
23
3.25531
33
-6.38055
0
3DFACE
8
A2
10
-2.16338
20
3.44888
30
-6.41684
11
-2.03309
21
3.48500
31
-6.44096
12
-1.98687
22
3.32894
32
-6.42707
13
-2.11712
23
3.29212
33
-6.40381
0
3DFACE
8
A2
10
-2.03309
20
3.48500
30
-6.44096
11
-1.90280
21
3.52113
31
-6.46508
12
-1.85660
22
3.36541
32
-6.45077
13
-1.98687
23
3.32894
33
-6.42707
0
3DFACE
8
A2
10
-1.90280
20
3.52113
30
-6.46508
11
-1.77257
21
3.55837
31
-6.48781
12
-1.72638
22
3.40291
32
-6.47317
13
-1.85660
23
3.36541
33
-6.45077
0
3DFACE
8
A2
10
-1.77257
20
3.55837
30
-6.48781
11
-1.64233
21
3.59544
31
-6.51075
12
-1.59615
22
3.43998
32
-6.49612
13
-1.72638
23
3.40291
33
-6.47317
0
3DFACE
8
A2
10
-1.64233
20
3.59544
30
-6.51075
11
-1.51201
21
3.63097
31
-6.53562
12
-1.46581
22
3.47525
32
-6.52131
13
-1.59615
23
3.43998
33
-6.49612
0
3DFACE
8
A2
10
-1.51201
20
3.63097
30
-6.53562
11
-1.38166
21
3.66606
31
-6.56102
12
-1.33544
22
3.50983
32
-6.54735
13
-1.46581
23
3.47525
33
-6.52131
0
3DFACE
8
A2
10
-1.38166
20
3.66606
30
-6.56102
11
-1.25130
21
3.70081
31
-6.58685
12
-1.20504
22
3.54398
32
-6.57393
13
-1.33544
23
3.50983
33
-6.54735
0
3DFACE
8
A2
10
-1.25130
20
3.70081
30
-6.58685
11
-1.12091
21
3.73513
31
-6.61322
12
-1.07462
22
3.57769
32
-6.60105
13
-1.20504
23
3.54398
33
-6.57393
0
3DFACE
8
A2
10
-1.12091
20
3.73513
30
-6.61322
11
-0.99050
21
3.76885
31
-6.64033
12
-0.94417
22
3.61081
32
-6.62891
13
-1.07462
23
3.57769
33
-6.60105
0
3DFACE
8
A2
10
-0.99050
20
3.76885
30
-6.64033
11
-0.86012
21
3.80335
31
-6.66649
12
-0.81376
22
3.64462
32
-6.65592
13
-0.94417
23
3.61081
33
-6.62891
0
3DFACE
8
A2
10
-0.86012
20
3.80335
30
-6.66649
11
-0.72968
21
3.83663
31
-6.69414
12
-0.68330
22
3.67748
32
-6.68410
13
-0.81376
23
3.64462
33
-6.65592
0
3DFACE
8
A2
10
-0.72968
20
3.83663
30
-6.69414
11
-0.59925
21
3.87018
31
-6.72146
12
-0.55285
22
3.71076
32
-6.71175
13
-0.68330
23
3.67748
33
-6.68410
0
3DFACE
8
A2
10
-0.59925
20
3.87018
30
-6.72146
11
-0.46884
21
3.90407
31
-6.74837
12
-0.42243
22
3.74431
32
-6.73908
13
-0.55285
23
3.71076
33
-6.71175
0
3DFACE
8
A2
10
-0.46884
20
3.90407
30
-6.74837
11
-0.33845
21
3.93822
31
-6.77495
12
-0.29201
22
3.77812
32
-6.76609
13
-0.42243
23
3.74431
33
-6.73908
0
3DFACE
8
A2
10
-0.33845
20
3.93822
30
-6.77495
11
-0.20808
21
3.97289
31
-6.80088
12
-0.16162
22
3.81226
32
-6.79267
13
-0.29201
23
3.77812
33
-6.76609
0
3DFACE
8
A2
10
-0.20808
20
3.97289
30
-6.80088
11
-0.07779
21
4.00901
31
-6.82500
12
-0.03129
22
3.84770
32
-6.81765
13
-0.16162
23
3.81226
33
-6.79267
0
3DFACE
8
A2
10
-0.07779
20
4.00901
30
-6.82500
11
0.05250
21
4.04522
31
-6.84902
12
0.09903
22
3.88323
32
-6.84252
13
-0.03129
23
3.84770
33
-6.81765
0
3DFACE
8
A2
10
0.05250
20
4.04522
30
-6.84902
11
0.18268
21
4.08333
31
-6.87068
12
0.22923
22
3.92107
32
-6.86450
13
0.09903
23
3.88323
33
-6.84252
0
3DFACE
8
A2
10
0.18268
20
4.08333
30
-6.87068
11
0.31278
21
4.12298
31
-6.89041
12
0.35929
22
3.96141
32
-6.88337
13
0.22923
23
3.92107
33
-6.86450
0
3DFACE
8
A2
10
0.31278
20
4.12298
30
-6.89041
11
0.44286
21
4.16298
31
-6.90971
12
0.48926
22
4.00356
32
-6.90000
13
0.35929
23
3.96141
33
-6.88337
0
3DFACE
8
A2
10
0.44286
20
4.16298
30
-6.90971
11
0.57302
21
4.20160
31
-6.93073
12
0.61934
22
4.04347
32
-6.91941
13
0.48926
23
4.00356
33
-6.90000
0
3DFACE
8
A2
10
0.57302
20
4.20160
30
-6.93073
11
0.70334
21
4.23712
31
-6.95560
12
0.74965
22
4.07934
32
-6.94386
13
0.61934
23
4.04347
33
-6.91941
0
3DFACE
8
A2
10
0.70334
20
4.23712
30
-6.95560
11
0.83383
21
4.26955
31
-6.98432
12
0.88016
22
4.11134
32
-6.97311
13
0.74965
23
4.07934
33
-6.94386
0
3DFACE
8
A2
10
0.83383
20
4.26955
30
-6.98432
11
0.96439
21
4.30060
31
-7.01475
12
1.01078
22
4.14118
32
-7.00504
13
0.88016
23
4.11134
33
-6.97311
0
3DFACE
8
A2
10
0.96439
20
4.30060
30
-7.01475
11
1.09492
21
4.33209
31
-7.04465
12
1.14144
22
4.17043
32
-7.03772
13
1.01078
23
4.14118
33
-7.00504
0
3DFACE
8
A2
10
1.09492
20
4.33209
30
-7.04465
11
1.22540
21
4.36469
31
-7.07315
12
1.27198
22
4.20192
32
-7.06762
13
1.14144
23
4.17043
33
-7.03772
0
3DFACE
8
A2
10
1.22540
20
4.36469
30
-7.07315
11
1.35571
21
4.40055
31
-7.09759
12
1.40231
22
4.23727
32
-7.09270
13
1.27198
23
4.20192
33
-7.06762
0
3DFACE
8
A2
10
1.35571
20
4.40055
30
-7.09759
11
1.48590
21
4.43849
31
-7.11947
12
1.53250
22
4.27520
32
-7.11457
13
1.40231
23
4.23727
33
-7.09270
0
3DFACE
8
A2
10
1.48590
20
4.43849
30
-7.11947
11
1.61609
21
4.47650
31
-7.14123
12
1.66268
22
4.31339
32
-7.13612
13
1.53250
23
4.27520
33
-7.11457
0
3DFACE
8
A2
10
1.61609
20
4.47650
30
-7.14123
11
1.74631
21
4.51383
31
-7.16385
12
1.79290
22
4.35089
32
-7.15853
13
1.66268
23
4.31339
33
-7.13612
0
3DFACE
8
A2
10
1.74631
20
4.51383
30
-7.16385
11
1.87650
21
4.55177
31
-7.18573
12
1.92307
22
4.38908
32
-7.18008
13
1.79290
23
4.35089
33
-7.15853
0
3DFACE
8
A2
10
1.87650
20
4.55177
30
-7.18573
11
2.00670
21
4.58953
31
-7.20781
12
2.05324
22
4.42744
32
-7.20142
13
1.92307
23
4.38908
33
-7.18008
0
3DFACE
8
A2
10
2.00670
20
4.58953
30
-7.20781
11
2.13695
21
4.62651
31
-7.23086
12
2.18345
22
4.46503
32
-7.22372
13
2.05324
23
4.42744
33
-7.20142
0
3DFACE
8
A2
10
2.13695
20
4.62651
30
-7.23086
11
2.26720
21
4.66341
31
-7.25402
12
2.31367
22
4.50253
32
-7.24613
13
2.18345
23
4.46503
33
-7.22372
0
3DFACE
8
A2
10
2.26720
20
4.66341
30
-7.25402
11
2.39745
21
4.70014
31
-7.27739
12
2.44389
22
4.53986
32
-7.26875
13
2.31367
23
4.50253
33
-7.24613
0
3DFACE
8
A2
10
2.39745
20
4.70014
30
-7.27739
11
2.52774
21
4.73635
31
-7.30140
12
2.57415
22
4.57659
32
-7.29212
13
2.44389
23
4.53986
33
-7.26875
0
3DFACE
8
A2
10
2.52774
20
4.73635
30
-7.30140
11
2.65803
21
4.77239
31
-7.32563
12
2.70442
22
4.61315
32
-7.31571
13
2.57415
23
4.57659
33
-7.29212
0
3DFACE
8
A2
10
2.65803
20
4.77239
30
-7.32563
11
2.78833
21
4.80835
31
-7.34996
12
2.83470
22
4.64945
32
-7.33961
13
2.70442
23
4.61315
33
-7.31571
0
3DFACE
8
A2
10
2.78833
20
4.80835
30
-7.34996
11
2.91864
21
4.84413
31
-7.37451
12
2.96499
22
4.68549
32
-7.36384
13
2.83470
23
4.64945
33
-7.33961
0
3DFACE
8
A2
10
2.91864
20
4.84413
30
-7.37451
11
3.04895
21
4.87983
31
-7.39917
12
3.09530
22
4.72127
32
-7.38839
13
2.96499
23
4.68549
33
-7.36384
0
3DFACE
8
A2
10
3.04895
20
4.87983
30
-7.39917
11
3.17926
21
4.91561
31
-7.42371
12
3.22561
22
4.75697
32
-7.41304
13
3.09530
23
4.72127
33
-7.38839
0
3DFACE
8
A2
10
3.17926
20
4.91561
30
-7.42371
11
3.30957
21
4.95131
31
-7.44837
12
3.35592
22
4.79266
32
-7.43769
13
3.22561
23
4.75697
33
-7.41304
0
3DFACE
8
A2
10
3.30957
20
4.95131
30
-7.44837
11
3.43988
21
4.98700
31
-7.47302
12
3.48624
22
4.82836
32
-7.46235
13
3.35592
23
4.79266
33
-7.43769
0
3DFACE
8
A2
10
3.43988
20
4.98700
30
-7.47302
11
3.57019
21
5.02270
31
-7.49768
12
3.61655
22
4.86406
32
-7.48700
13
3.48624
23
4.82836
33
-7.46235
0
3DFACE
8
A2
10
3.57019
20
5.02270
30
-7.49768
11
3.70051
21
5.05840
31
-7.52233
12
3.74686
22
4.89975
32
-7.51166
13
3.61655
23
4.86406
33
-7.48700
0
3DFACE
8
A2
10
3.70051
20
5.05840
30
-7.52233
11
3.83081
21
5.09426
31
-7.54677
12
3.87716
22
4.93562
32
-7.53610
13
3.74686
23
4.89975
33
-7.51166
0
3DFACE
8
A2
10
3.83081
20
5.09426
30
-7.54677
11
3.96111
21
5.13022
31
-7.57111
12
4.00746
22
4.97166
32
-7.56032
13
3.87716
23
4.93562
33
-7.53610
0
3DFACE
8
A2
10
-3.15935
20
3.00148
30
-6.21289
11
-3.02902
21
3.03692
31
-6.23786
12
-2.98244
22
2.87406
32
-6.23243
13
-3.11274
23
2.83811
33
-6.20810
0
3DFACE
8
A2
10
-3.02902
20
3.03692
30
-6.23786
11
-2.89871
21
3.07261
31
-6.26252
12
-2.85217
22
2.91045
32
-6.25623
13
-2.98244
23
2.87406
33
-6.23243
0
3DFACE
8
A2
10
-2.89871
20
3.07261
30
-6.26252
11
-2.76841
21
3.10857
31
-6.28685
12
-2.72191
22
2.94717
32
-6.27960
13
-2.85217
23
2.91045
33
-6.25623
0
3DFACE
8
A2
10
-2.76841
20
3.10857
30
-6.28685
11
-2.63812
21
3.14469
31
-6.31097
12
-2.59167
22
2.98416
32
-6.30265
13
-2.72191
23
2.94717
33
-6.27960
0
3DFACE
8
A2
10
-2.63812
20
3.14469
30
-6.31097
11
-2.50792
21
3.18237
31
-6.33316
12
-2.46151
22
3.02269
32
-6.32377
13
-2.59167
23
2.98416
33
-6.30265
0
3DFACE
8
A2
10
-2.50792
20
3.18237
30
-6.33316
11
-2.37764
21
3.21875
31
-6.35696
12
-2.33128
22
3.05994
32
-6.34650
13
-2.46151
23
3.02269
33
-6.32377
0
3DFACE
8
A2
10
-2.37764
20
3.21875
30
-6.35696
11
-2.24737
21
3.25531
31
-6.38055
12
-2.20106
22
3.09735
32
-6.36902
13
-2.33128
23
3.05994
33
-6.34650
0
3DFACE
8
A2
10
-2.24737
20
3.25531
30
-6.38055
11
-2.11712
21
3.29212
31
-6.40381
12
-2.07085
22
3.13503
32
-6.39121
13
-2.20106
23
3.09735
33
-6.36902
0
3DFACE
8
A2
10
-2.11712
20
3.29212
30
-6.40381
11
-1.98687
21
3.32894
31
-6.42707
12
-1.94063
22
3.17244
32
-6.41373
13
-2.07085
23
3.13503
33
-6.39121
0
3DFACE
8
A2
10
-1.98687
20
3.32894
30
-6.42707
11
-1.85660
21
3.36541
31
-6.45077
12
-1.81038
22
3.20934
32
-6.43688
13
-1.94063
23
3.17244
33
-6.41373
0
3DFACE
8
A2
10
-1.85660
20
3.36541
30
-6.45077
11
-1.72638
21
3.40291
31
-6.47317
12
-1.68018
22
3.24702
32
-6.45908
13
-1.81038
23
3.20934
33
-6.43688
0
3DFACE
8
A2
10
-1.72638
20
3.40291
30
-6.47317
11
-1.59615
21
3.43998
31
-6.49612
12
-1.54994
22
3.28409
32
-6.48202
13
-1.68018
23
3.24702
33
-6.45908
0
3DFACE
8
A2
10
-1.59615
20
3.43998
30
-6.49612
11
-1.46581
21
3.47525
31
-6.52131
12
-1.41959
22
3.31910
32
-6.50753
13
-1.54994
23
3.28409
33
-6.48202
0
3DFACE
8
A2
10
-1.46581
20
3.47525
30
-6.52131
11
-1.33544
21
3.50983
31
-6.54735
12
-1.28920
22
3.35342
32
-6.53390
13
-1.41959
23
3.31910
33
-6.50753
0
3DFACE
8
A2
10
-1.33544
20
3.50983
30
-6.54735
11
-1.20504
21
3.54398
31
-6.57393
12
-1.15879
22
3.38731
32
-6.56080
13
-1.28920
23
3.35342
33
-6.53390
0
3DFACE
8
A2
10
-1.20504
20
3.54398
30
-6.57393
11
-1.07462
21
3.57769
31
-6.60105
12
-1.02836
22
3.42069
32
-6.58834
13
-1.15879
23
3.38731
33
-6.56080
0
3DFACE
8
A2
10
-1.07462
20
3.57769
30
-6.60105
11
-0.94417
21
3.61081
31
-6.62891
12
-0.89789
22
3.45346
32
-6.61663
13
-1.02836
23
3.42069
33
-6.58834
0
3DFACE
8
A2
10
-0.94417
20
3.61081
30
-6.62891
11
-0.81376
21
3.64462
31
-6.65592
12
-0.76745
22
3.48683
32
-6.64418
13
-0.89789
23
3.45346
33
-6.61663
0
3DFACE
8
A2
10
-0.81376
20
3.64462
30
-6.65592
11
-0.68330
21
3.67748
31
-6.68410
12
-0.63702
22
3.52038
32
-6.67150
13
-0.76745
23
3.48683
33
-6.64418
0
3DFACE
8
A2
10
-0.68330
20
3.67748
30
-6.68410
11
-0.55285
21
3.71076
31
-6.71175
12
-0.50662
22
3.55436
32
-6.69830
13
-0.63702
23
3.52038
33
-6.67150
0
3DFACE
8
A2
10
-0.55285
20
3.71076
30
-6.71175
11
-0.42243
21
3.74431
31
-6.73908
12
-0.37622
22
3.58851
32
-6.72488
13
-0.50662
23
3.55436
33
-6.69830
0
3DFACE
8
A2
10
-0.42243
20
3.74431
30
-6.73908
11
-0.29201
21
3.77812
31
-6.76609
12
-0.24581
22
3.62231
32
-6.75189
13
-0.37622
23
3.58851
33
-6.72488
0
3DFACE
8
A2
10
-0.29201
20
3.77812
30
-6.76609
11
-0.16162
21
3.81226
31
-6.79267
12
-0.11541
22
3.65637
32
-6.77858
13
-0.24581
23
3.62231
33
-6.75189
0
3DFACE
8
A2
10
-0.16162
20
3.81226
30
-6.79267
11
-0.03129
21
3.84770
31
-6.81765
12
0.01499
22
3.69052
32
-6.80516
13
-0.11541
23
3.65637
33
-6.77858
0
3DFACE
8
A2
10
-0.03129
20
3.84770
30
-6.81765
11
0.09903
21
3.88323
31
-6.84252
12
0.14539
22
3.72441
32
-6.83206
13
0.01499
23
3.69052
33
-6.80516
0
3DFACE
8
A2
10
0.09903
20
3.88323
30
-6.84252
11
0.22923
21
3.92107
31
-6.86450
12
0.27567
22
3.76080
32
-6.85586
13
0.14539
23
3.72441
33
-6.83206
0
3DFACE
8
A2
10
0.22923
20
3.92107
30
-6.86450
11
0.35929
21
3.96141
31
-6.88337
12
0.40577
22
3.80045
32
-6.87559
13
0.27567
23
3.76080
33
-6.85586
0
3DFACE
8
A2
10
0.35929
20
3.96141
30
-6.88337
11
0.48926
21
4.00356
31
-6.90000
12
0.53564
22
3.84431
32
-6.89008
13
0.40577
23
3.80045
33
-6.87559
0
3DFACE
8
A2
10
0.48926
20
4.00356
30
-6.90000
11
0.61934
21
4.04347
31
-6.91941
12
0.66573
22
3.88414
32
-6.90960
13
0.53564
23
3.84431
33
-6.89008
0
3DFACE
8
A2
10
0.61934
20
4.04347
30
-6.91941
11
0.74965
21
4.07934
31
-6.94386
12
0.79601
22
3.92044
32
-6.93350
13
0.66573
23
3.88414
33
-6.90960
0
3DFACE
8
A2
10
0.74965
20
4.07934
30
-6.94386
11
0.88016
21
4.11134
31
-6.97311
12
0.92649
22
3.95312
32
-6.96190
13
0.79601
23
3.92044
33
-6.93350
0
3DFACE
8
A2
10
0.88016
20
4.11134
30
-6.97311
11
1.01078
21
4.14118
31
-7.00504
12
1.05708
22
3.98357
32
-6.99308
13
0.92649
23
3.95312
33
-6.96190
0
3DFACE
8
A2
10
1.01078
20
4.14118
30
-7.00504
11
1.14144
21
4.17043
31
-7.03772
12
1.18788
22
4.01016
32
-7.02908
13
1.05708
23
3.98357
33
-6.99308
0
3DFACE
8
A2
10
1.14144
20
4.17043
30
-7.03772
11
1.27198
21
4.20192
31
-7.06762
12
1.31844
22
4.04129
32
-7.05940
13
1.18788
23
4.01016
33
-7.02908
0
3DFACE
8
A2
10
1.27198
20
4.20192
30
-7.06762
11
1.40231
21
4.23727
31
-7.09270
12
1.44881
22
4.07596
32
-7.08534
13
1.31844
23
4.04129
33
-7.05940
0
3DFACE
8
A2
10
1.40231
20
4.23727
30
-7.09270
11
1.53250
21
4.27520
31
-7.11457
12
1.57906
22
4.11286
32
-7.10850
13
1.44881
23
4.07596
33
-7.08534
0
3DFACE
8
A2
10
1.53250
20
4.27520
30
-7.11457
11
1.66268
21
4.31339
31
-7.13612
12
1.70928
22
4.15019
32
-7.13112
13
1.57906
23
4.11286
33
-7.10850
0
3DFACE
8
A2
10
1.66268
20
4.31339
30
-7.13612
11
1.79290
21
4.35089
31
-7.15853
12
1.83949
22
4.18778
32
-7.15342
13
1.70928
23
4.15019
33
-7.13112
0
3DFACE
8
A2
10
1.79290
20
4.35089
30
-7.15853
11
1.92307
21
4.38908
31
-7.18008
12
1.96966
22
4.22614
32
-7.17476
13
1.83949
23
4.18778
33
-7.15342
0
3DFACE
8
A2
10
1.92307
20
4.38908
30
-7.18008
11
2.05324
21
4.42744
31
-7.20142
12
2.09981
22
4.26485
32
-7.19567
13
1.96966
23
4.22614
33
-7.17476
0
3DFACE
8
A2
10
2.05324
20
4.42744
30
-7.20142
11
2.18345
21
4.46503
31
-7.22372
12
2.22999
22
4.30304
32
-7.21722
13
2.09981
23
4.26485
33
-7.19567
0
3DFACE
8
A2
10
2.18345
20
4.46503
30
-7.22372
11
2.31367
21
4.50253
31
-7.24613
12
2.36017
22
4.34114
32
-7.23888
13
2.22999
23
4.30304
33
-7.21722
0
3DFACE
8
A2
10
2.31367
20
4.50253
30
-7.24613
11
2.44389
21
4.53986
31
-7.26875
12
2.49036
22
4.37907
32
-7.26075
13
2.36017
23
4.34114
33
-7.23888
0
3DFACE
8
A2
10
2.44389
20
4.53986
30
-7.26875
11
2.57415
21
4.57659
31
-7.29212
12
2.62058
22
4.41657
32
-7.28316
13
2.49036
23
4.37907
33
-7.26075
0
3DFACE
8
A2
10
2.57415
20
4.57659
30
-7.29212
11
2.70442
21
4.61315
31
-7.31571
12
2.75082
22
4.45365
32
-7.30610
13
2.62058
23
4.41657
33
-7.28316
0
3DFACE
8
A2
10
2.70442
20
4.61315
30
-7.31571
11
2.83470
21
4.64945
31
-7.33961
12
2.88107
22
4.49037
32
-7.32947
13
2.75082
23
4.45365
33
-7.30610
0
3DFACE
8
A2
10
2.83470
20
4.64945
30
-7.33961
11
2.96499
21
4.68549
31
-7.36384
12
3.01135
22
4.52676
32
-7.35327
13
2.88107
23
4.49037
33
-7.32947
0
3DFACE
8
A2
10
2.96499
20
4.68549
30
-7.36384
11
3.09530
21
4.72127
31
-7.38839
12
3.14165
22
4.56271
32
-7.37760
13
3.01135
23
4.52676
33
-7.35327
0
3DFACE
8
A2
10
3.09530
20
4.72127
30
-7.38839
11
3.22561
21
4.75697
31
-7.41304
12
3.27196
22
4.59841
32
-7.40226
13
3.14165
23
4.56271
33
-7.37760
0
3DFACE
8
A2
10
3.22561
20
4.75697
30
-7.41304
11
3.35592
21
4.79266
31
-7.43769
12
3.40227
22
4.63411
32
-7.42691
13
3.27196
23
4.59841
33
-7.40226
0
3DFACE
8
A2
10
3.35592
20
4.79266
30
-7.43769
11
3.48624
21
4.82836
31
-7.46235
12
3.53259
22
4.66980
32
-7.45157
13
3.40227
23
4.63411
33
-7.42691
0
3DFACE
8
A2
10
3.48624
20
4.82836
30
-7.46235
11
3.61655
21
4.86406
31
-7.48700
12
3.66290
22
4.70550
32
-7.47622
13
3.53259
23
4.66980
33
-7.45157
0
3DFACE
8
A2
10
3.61655
20
4.86406
30
-7.48700
11
3.74686
21
4.89975
31
-7.51166
12
3.79321
22
4.74119
32
-7.50088
13
3.66290
23
4.70550
33
-7.47622
0
3DFACE
8
A2
10
3.74686
20
4.89975
30
-7.51166
11
3.87716
21
4.93562
31
-7.53610
12
3.92351
22
4.77706
32
-7.52532
13
3.79321
23
4.74119
33
-7.50088
0
3DFACE
8
A2
10
3.87716
20
4.93562
30
-7.53610
11
4.00746
21
4.97166
31
-7.56032
12
4.05381
22
4.81310
32
-7.54954
13
3.92351
23
4.77706
33
-7.52532
0
3DFACE
8
A2
10
-3.11274
20
2.83811
30
-6.20810
11
-2.98244
21
2.87406
31
-6.23243
12
-2.93588
22
2.71155
32
-6.22657
13
-3.06614
23
2.67491
33
-6.20310
0
3DFACE
8
A2
10
-2.98244
20
2.87406
30
-6.23243
11
-2.85217
21
2.91045
31
-6.25623
12
-2.80565
22
2.74888
32
-6.24919
13
-2.93588
23
2.71155
33
-6.22657
0
3DFACE
8
A2
10
-2.85217
20
2.91045
30
-6.25623
11
-2.72191
21
2.94717
31
-6.27960
12
-2.67547
22
2.78690
32
-6.27096
13
-2.80565
23
2.74888
33
-6.24919
0
3DFACE
8
A2
10
-2.72191
20
2.94717
30
-6.27960
11
-2.59167
21
2.98416
31
-6.30265
12
-2.54530
22
2.82526
32
-6.29230
13
-2.67547
23
2.78690
33
-6.27096
0
3DFACE
8
A2
10
-2.59167
20
2.98416
30
-6.30265
11
-2.46151
21
3.02269
31
-6.32377
12
-2.41521
22
2.86508
32
-6.31182
13
-2.54530
23
2.82526
33
-6.29230
0
3DFACE
8
A2
10
-2.46151
20
3.02269
30
-6.32377
11
-2.33128
21
3.05994
31
-6.34650
12
-2.28505
22
2.90370
32
-6.33283
13
-2.41521
23
2.86508
33
-6.31182
0
3DFACE
8
A2
10
-2.33128
20
3.05994
30
-6.34650
11
-2.20106
21
3.09735
31
-6.36902
12
-2.15491
22
2.94249
32
-6.35364
13
-2.28505
23
2.90370
33
-6.33283
0
3DFACE
8
A2
10
-2.20106
20
3.09735
30
-6.36902
11
-2.07085
21
3.13503
31
-6.39121
12
-2.02478
22
2.98163
32
-6.37401
13
-2.15491
23
2.94249
33
-6.35364
0
3DFACE
8
A2
10
-2.07085
20
3.13503
30
-6.39121
11
-1.94063
21
3.17244
31
-6.41373
12
-1.89460
22
3.01982
32
-6.39556
13
-2.02478
23
2.98163
33
-6.37401
0
3DFACE
8
A2
10
-1.94063
20
3.17244
30
-6.41373
11
-1.81038
21
3.20934
31
-6.43688
12
-1.76437
22
3.05706
32
-6.41829
13
-1.89460
23
3.01982
33
-6.39556
0
3DFACE
8
A2
10
-1.81038
20
3.20934
30
-6.43688
11
-1.68018
21
3.24702
31
-6.45908
12
-1.63415
22
3.09457
32
-6.44070
13
-1.76437
23
3.05706
33
-6.41829
0
3DFACE
8
A2
10
-1.68018
20
3.24702
30
-6.45908
11
-1.54994
21
3.28409
31
-6.48202
12
-1.50387
22
3.13086
32
-6.46460
13
-1.63415
23
3.09457
33
-6.44070
0
3DFACE
8
A2
10
-1.54994
20
3.28409
30
-6.48202
11
-1.41959
21
3.31910
31
-6.50753
12
-1.37351
22
3.16562
32
-6.49044
13
-1.50387
23
3.13086
33
-6.46460
0
3DFACE
8
A2
10
-1.41959
20
3.31910
30
-6.50753
11
-1.28920
21
3.35342
31
-6.53390
12
-1.24313
22
3.19994
32
-6.51680
13
-1.37351
23
3.16562
33
-6.49044
0
3DFACE
8
A2
10
-1.28920
20
3.35342
30
-6.53390
11
-1.15879
21
3.38731
31
-6.56080
12
-1.11272
22
3.23383
32
-6.54370
13
-1.24313
23
3.19994
33
-6.51680
0
3DFACE
8
A2
10
-1.15879
20
3.38731
30
-6.56080
11
-1.02836
21
3.42069
31
-6.58834
12
-0.98228
22
3.26720
32
-6.57125
13
-1.11272
23
3.23383
33
-6.54370
0
3DFACE
8
A2
10
-1.02836
20
3.42069
30
-6.58834
11
-0.89789
21
3.45346
31
-6.61663
12
-0.85182
22
3.30023
32
-6.59922
13
-0.98228
23
3.26720
33
-6.57125
0
3DFACE
8
A2
10
-0.89789
20
3.45346
30
-6.61663
11
-0.76745
21
3.48683
31
-6.64418
12
-0.72137
22
3.33326
32
-6.62719
13
-0.85182
23
3.30023
33
-6.59922
0
3DFACE
8
A2
10
-0.76745
20
3.48683
30
-6.64418
11
-0.63702
21
3.52038
31
-6.67150
12
-0.59092
22
3.36647
32
-6.65495
13
-0.72137
23
3.33326
33
-6.62719
0
3DFACE
8
A2
10
-0.63702
20
3.52038
30
-6.67150
11
-0.50662
21
3.55436
31
-6.69830
12
-0.46051
22
3.40036
32
-6.68185
13
-0.59092
23
3.36647
33
-6.65495
0
3DFACE
8
A2
10
-0.50662
20
3.55436
30
-6.69830
11
-0.37622
21
3.58851
31
-6.72488
12
-0.33013
22
3.43468
32
-6.70821
13
-0.46051
23
3.40036
33
-6.68185
0
3DFACE
8
A2
10
-0.37622
20
3.58851
30
-6.72488
11
-0.24581
21
3.62231
31
-6.75189
12
-0.19971
22
3.46840
32
-6.73533
13
-0.33013
23
3.43468
33
-6.70821
0
3DFACE
8
A2
10
-0.24581
20
3.62231
30
-6.75189
11
-0.11541
21
3.65637
31
-6.77858
12
-0.06927
22
3.50169
32
-6.76298
13
-0.19971
23
3.46840
33
-6.73533
0
3DFACE
8
A2
10
-0.11541
20
3.65637
30
-6.77858
11
0.01499
21
3.69052
31
-6.80516
12
0.06118
22
3.53480
32
-6.79084
13
-0.06927
23
3.50169
33
-6.76298
0
3DFACE
8
A2
10
0.01499
20
3.69052
30
-6.80516
11
0.14539
21
3.72441
31
-6.83206
12
0.19164
22
3.56775
32
-6.81892
13
0.06118
23
3.53480
33
-6.79084
0
3DFACE
8
A2
10
0.14539
20
3.72441
30
-6.83206
11
0.27567
21
3.76080
31
-6.85586
12
0.32201
22
3.60250
32
-6.84475
13
0.19164
23
3.56775
33
-6.81892
0
3DFACE
8
A2
10
0.27567
20
3.76080
30
-6.85586
11
0.40577
21
3.80045
31
-6.87559
12
0.45214
22
3.64155
32
-6.86524
13
0.32201
23
3.60250
33
-6.84475
0
3DFACE
8
A2
10
0.40577
20
3.80045
30
-6.87559
11
0.53564
21
3.84431
31
-6.89008
12
0.58196
22
3.68644
32
-6.87844
13
0.45214
23
3.64155
33
-6.86524
0
3DFACE
8
A2
10
0.53564
20
3.84431
30
-6.89008
11
0.66573
21
3.88414
31
-6.90960
12
0.71203
22
3.72653
32
-6.89764
13
0.58196
23
3.68644
33
-6.87844
0
3DFACE
8
A2
10
0.66573
20
3.88414
30
-6.90960
11
0.79601
21
3.92044
31
-6.93350
12
0.84228
22
3.76351
32
-6.92069
13
0.71203
23
3.72653
33
-6.89764
0
3DFACE
8
A2
10
0.79601
20
3.92044
30
-6.93350
11
0.92649
21
3.95312
31
-6.96190
12
0.97270
22
3.79714
32
-6.94791
13
0.84228
23
3.76351
33
-6.92069
0
3DFACE
8
A2
10
0.92649
20
3.95312
30
-6.96190
11
1.05708
21
3.98357
31
-6.99308
12
1.10329
22
3.82760
32
-6.97909
13
0.97270
23
3.79714
33
-6.94791
0
3DFACE
8
A2
10
1.05708
20
3.98357
30
-6.99308
11
1.18788
21
4.01016
31
-7.02908
12
1.23414
22
3.85332
32
-7.01616
13
1.10329
23
3.82760
33
-6.97909
0
3DFACE
8
A2
10
1.18788
20
4.01016
30
-7.02908
11
1.31844
21
4.04129
31
-7.05940
12
1.36472
22
3.88411
32
-7.04691
13
1.23414
23
3.85332
33
-7.01616
0
3DFACE
8
A2
10
1.31844
20
4.04129
30
-7.05940
11
1.44881
21
4.07596
31
-7.08534
12
1.49512
22
3.91809
32
-7.07371
13
1.36472
23
3.88411
33
-7.04691
0
3DFACE
8
A2
10
1.44881
20
4.07596
30
-7.08534
11
1.57906
21
4.11286
31
-7.10850
12
1.62541
22
3.95422
32
-7.09783
13
1.49512
23
3.91809
33
-7.07371
0
3DFACE
8
A2
10
1.57906
20
4.11286
30
-7.10850
11
1.70928
21
4.15019
31
-7.13112
12
1.75572
22
3.98991
32
-7.12248
13
1.62541
23
3.95422
33
-7.09783
0
3DFACE
8
A2
10
1.70928
20
4.15019
30
-7.13112
11
1.83949
21
4.18778
31
-7.15342
12
1.88596
22
4.02707
32
-7.14532
13
1.75572
23
3.98991
33
-7.12248
0
3DFACE
8
A2
10
1.83949
20
4.18778
30
-7.15342
11
1.96966
21
4.22614
31
-7.17476
12
2.01616
22
4.06475
32
-7.16751
13
1.88596
23
4.02707
33
-7.14532
0
3DFACE
8
A2
10
1.96966
20
4.22614
30
-7.17476
11
2.09981
21
4.26485
31
-7.19567
12
2.14635
22
4.10276
32
-7.18927
13
2.01616
23
4.06475
33
-7.16751
0
3DFACE
8
A2
10
2.09981
20
4.26485
30
-7.19567
11
2.22999
21
4.30304
31
-7.21722
12
2.27653
22
4.14095
32
-7.21083
13
2.14635
23
4.10276
33
-7.18927
0
3DFACE
8
A2
10
2.22999
20
4.30304
30
-7.21722
11
2.36017
21
4.34114
31
-7.23888
12
2.40666
22
4.17992
32
-7.23142
13
2.27653
23
4.14095
33
-7.21083
0
3DFACE
8
A2
10
2.36017
20
4.34114
30
-7.23888
11
2.49036
21
4.37907
31
-7.26075
12
2.53686
22
4.21785
32
-7.25329
13
2.40666
23
4.17992
33
-7.23142
0
3DFACE
8
A2
10
2.49036
20
4.37907
30
-7.26075
11
2.62058
21
4.41657
31
-7.28316
12
2.66704
22
4.25604
32
-7.27484
13
2.53686
23
4.21785
33
-7.25329
0
3DFACE
8
A2
10
2.62058
20
4.41657
30
-7.28316
11
2.75082
21
4.45365
31
-7.30610
12
2.79724
22
4.29380
32
-7.29693
13
2.66704
23
4.25604
33
-7.27484
0
3DFACE
8
A2
10
2.75082
20
4.45365
30
-7.30610
11
2.88107
21
4.49037
31
-7.32947
12
2.92746
22
4.33113
32
-7.31955
13
2.79724
23
4.29380
33
-7.29693
0
3DFACE
8
A2
10
2.88107
20
4.49037
30
-7.32947
11
3.01135
21
4.52676
31
-7.35327
12
3.05772
22
4.36786
32
-7.34292
13
2.92746
23
4.33113
33
-7.31955
0
3DFACE
8
A2
10
3.01135
20
4.52676
30
-7.35327
11
3.14165
21
4.56271
31
-7.37760
12
3.18800
22
4.40416
32
-7.36682
13
3.05772
23
4.36786
33
-7.34292
0
3DFACE
8
A2
10
3.14165
20
4.56271
30
-7.37760
11
3.27196
21
4.59841
31
-7.40226
12
3.31831
22
4.43985
32
-7.39148
13
3.18800
23
4.40416
33
-7.36682
0
3DFACE
8
A2
10
3.27196
20
4.59841
30
-7.40226
11
3.40227
21
4.63411
31
-7.42691
12
3.44862
22
4.47555
32
-7.41613
13
3.31831
23
4.43985
33
-7.39148
0
3DFACE
8
A2
10
3.40227
20
4.63411
30
-7.42691
11
3.53259
21
4.66980
31
-7.45157
12
3.57894
22
4.51124
32
-7.44079
13
3.44862
23
4.47555
33
-7.41613
0
3DFACE
8
A2
10
3.53259
20
4.66980
30
-7.45157
11
3.66290
21
4.70550
31
-7.47622
12
3.70925
22
4.54694
32
-7.46544
13
3.57894
23
4.51124
33
-7.44079
0
3DFACE
8
A2
10
3.66290
20
4.70550
30
-7.47622
11
3.79321
21
4.74119
31
-7.50088
12
3.83956
22
4.58264
32
-7.49010
13
3.70925
23
4.54694
33
-7.46544
0
3DFACE
8
A2
10
3.79321
20
4.74119
30
-7.50088
11
3.92351
21
4.77706
31
-7.52532
12
3.96986
22
4.61851
32
-7.51454
13
3.83956
23
4.58264
33
-7.49010
0
3DFACE
8
A2
10
3.92351
20
4.77706
30
-7.52532
11
4.05381
21
4.81310
31
-7.54954
12
4.10016
22
4.65455
32
-7.53876
13
3.96986
23
4.61851
33
-7.51454
0
3DFACE
8
A2
10
-3.06614
20
2.67491
30
-6.20310
11
-2.93588
21
2.71155
31
-6.22657
12
-2.88933
22
2.54921
32
-6.22050
13
-3.01960
23
2.51274
33
-6.19681
0
3DFACE
8
A2
10
-2.93588
20
2.71155
30
-6.22657
11
-2.80565
21
2.74888
31
-6.24919
12
-2.75911
22
2.58671
32
-6.24291
13
-2.88933
23
2.54921
33
-6.22050
0
3DFACE
8
A2
10
-2.80565
20
2.74888
30
-6.24919
11
-2.67547
21
2.78690
31
-6.27096
12
-2.62894
22
2.62507
32
-6.26425
13
-2.75911
23
2.58671
33
-6.24291
0
3DFACE
8
A2
10
-2.67547
20
2.78690
30
-6.27096
11
-2.54530
21
2.82526
31
-6.29230
12
-2.49884
22
2.66464
32
-6.28409
13
-2.62894
23
2.62507
33
-6.26425
0
3DFACE
8
A2
10
-2.54530
20
2.82526
30
-6.29230
11
-2.41521
21
2.86508
31
-6.31182
12
-2.36882
22
2.70584
32
-6.30189
13
-2.49884
23
2.66464
33
-6.28409
0
3DFACE
8
A2
10
-2.41521
20
2.86508
30
-6.31182
11
-2.28505
21
2.90370
31
-6.33283
12
-2.23880
22
2.74704
32
-6.31970
13
-2.36882
23
2.70584
33
-6.30189
0
3DFACE
8
A2
10
-2.28505
20
2.90370
30
-6.33283
11
-2.15491
21
2.94249
31
-6.35364
12
-2.10880
22
2.78841
32
-6.33729
13
-2.23880
23
2.74704
33
-6.31970
0
3DFACE
8
A2
10
-2.15491
20
2.94249
30
-6.35364
11
-2.02478
21
2.98163
31
-6.37401
12
-1.97883
22
2.83055
32
-6.35392
13
-2.10880
23
2.78841
33
-6.33729
0
3DFACE
8
A2
10
-2.02478
20
2.98163
30
-6.37401
11
-1.89460
21
3.01982
31
-6.39556
12
-1.84877
22
2.87098
32
-6.37269
13
-1.97883
23
2.83055
33
-6.35392
0
3DFACE
8
A2
10
-1.89460
20
3.01982
30
-6.39556
11
-1.76437
21
3.05706
31
-6.41829
12
-1.71861
22
2.90951
32
-6.39382
13
-1.84877
23
2.87098
33
-6.37269
0
3DFACE
8
A2
10
-1.76437
20
3.05706
30
-6.41829
11
-1.63415
21
3.09457
31
-6.44070
12
-1.58835
22
2.94616
32
-6.41729
13
-1.71861
23
2.90951
33
-6.39382
0
3DFACE
8
A2
10
-1.63415
20
3.09457
30
-6.44070
11
-1.50387
21
3.13086
31
-6.46460
12
-1.45799
22
2.98091
32
-6.44313
13
-1.58835
23
2.94616
33
-6.41729
0
3DFACE
8
A2
10
-1.50387
20
3.13086
30
-6.46460
11
-1.37351
21
3.16562
31
-6.49044
12
-1.32748
22
3.01299
32
-6.47227
13
-1.45799
23
2.98091
33
-6.44313
0
3DFACE
8
A2
10
-1.37351
20
3.16562
30
-6.49044
11
-1.24313
21
3.19994
31
-6.51680
12
-1.19699
22
3.04533
32
-6.50110
13
-1.32748
23
3.01299
33
-6.47227
0
3DFACE
8
A2
10
-1.24313
20
3.19994
30
-6.51680
11
-1.11272
21
3.23383
31
-6.54370
12
-1.06651
22
3.07802
32
-6.52950
13
-1.19699
23
3.04533
33
-6.50110
0
3DFACE
8
A2
10
-1.11272
20
3.23383
30
-6.54370
11
-0.98228
21
3.26720
31
-6.57125
12
-0.93606
22
3.11114
32
-6.55736
13
-1.06651
23
3.07802
33
-6.52950
0
3DFACE
8
A2
10
-0.98228
20
3.26720
30
-6.57125
11
-0.85182
21
3.30023
31
-6.59922
12
-0.80563
22
3.14460
32
-6.58480
13
-0.93606
23
3.11114
33
-6.55736
0
3DFACE
8
A2
10
-0.85182
20
3.30023
30
-6.59922
11
-0.72137
21
3.33326
31
-6.62719
12
-0.67522
22
3.17840
32
-6.61181
13
-0.80563
23
3.14460
33
-6.58480
0
3DFACE
8
A2
10
-0.72137
20
3.33326
30
-6.62719
11
-0.59092
21
3.36647
31
-6.65495
12
-0.54480
22
3.21221
32
-6.63882
13
-0.67522
23
3.17840
33
-6.61181
0
3DFACE
8
A2
10
-0.59092
20
3.36647
30
-6.65495
11
-0.46051
21
3.40036
31
-6.68185
12
-0.41442
22
3.24653
32
-6.66518
13
-0.54480
23
3.21221
33
-6.63882
0
3DFACE
8
A2
10
-0.46051
20
3.40036
30
-6.68185
11
-0.33013
21
3.43468
31
-6.70821
12
-0.28404
22
3.28094
32
-6.69144
13
-0.41442
23
3.24653
33
-6.66518
0
3DFACE
8
A2
10
-0.33013
20
3.43468
30
-6.70821
11
-0.19971
21
3.46840
31
-6.73533
12
-0.15362
22
3.31474
32
-6.71845
13
-0.28404
23
3.28094
33
-6.69144
0
3DFACE
8
A2
10
-0.19971
20
3.46840
30
-6.73533
11
-0.06927
21
3.50169
31
-6.76298
12
-0.02317
22
3.34777
32
-6.74642
13
-0.15362
23
3.31474
33
-6.71845
0
3DFACE
8
A2
10
-0.06927
20
3.50169
30
-6.76298
11
0.06118
21
3.53480
31
-6.79084
12
0.10729
22
3.38072
32
-6.77450
13
-0.02317
23
3.34777
33
-6.74642
0
3DFACE
8
A2
10
0.06118
20
3.53480
30
-6.79084
11
0.19164
21
3.56775
31
-6.81892
12
0.23778
22
3.41306
32
-6.80333
13
0.10729
23
3.38072
33
-6.77450
0
3DFACE
8
A2
10
0.19164
20
3.56775
30
-6.81892
11
0.32201
21
3.60250
31
-6.84475
12
0.36822
22
3.44652
32
-6.83076
13
0.23778
23
3.41306
33
-6.80333
0
3DFACE
8
A2
10
0.32201
20
3.60250
30
-6.84475
11
0.45214
21
3.64155
31
-6.86524
12
0.49840
22
3.48454
32
-6.85253
13
0.36822
23
3.44652
33
-6.83076
0
3DFACE
8
A2
10
0.45214
20
3.64155
30
-6.86524
11
0.58196
21
3.68644
31
-6.87844
12
0.62821
22
3.52969
32
-6.86541
13
0.49840
23
3.48454
33
-6.85253
0
3DFACE
8
A2
10
0.58196
20
3.68644
30
-6.87844
11
0.71203
21
3.72653
31
-6.89764
12
0.75827
22
3.57003
32
-6.88429
13
0.62821
23
3.52969
33
-6.86541
0
3DFACE
8
A2
10
0.71203
20
3.72653
30
-6.89764
11
0.84228
21
3.76351
31
-6.92069
12
0.88852
22
3.60685
32
-6.90756
13
0.75827
23
3.57003
33
-6.88429
0
3DFACE
8
A2
10
0.84228
20
3.76351
30
-6.92069
11
0.97270
21
3.79714
31
-6.94791
12
1.01891
22
3.64117
32
-6.93392
13
0.88852
23
3.60685
33
-6.90756
0
3DFACE
8
A2
10
0.97270
20
3.79714
30
-6.94791
11
1.10329
21
3.82760
31
-6.97909
12
1.14947
22
3.67222
32
-6.96435
13
1.01891
23
3.64117
33
-6.93392
0
3DFACE
8
A2
10
1.10329
20
3.82760
30
-6.97909
11
1.23414
21
3.85332
31
-7.01616
12
1.28036
22
3.69725
32
-7.00228
13
1.14947
23
3.67222
33
-6.96435
0
3DFACE
8
A2
10
1.23414
20
3.85332
30
-7.01616
11
1.36472
21
3.88411
31
-7.04691
12
1.41096
22
3.72753
32
-7.03367
13
1.28036
23
3.69725
33
-7.00228
0
3DFACE
8
A2
10
1.36472
20
3.88411
30
-7.04691
11
1.49512
21
3.91809
31
-7.07371
12
1.54135
22
3.76185
32
-7.06004
13
1.41096
23
3.72753
33
-7.03367
0
3DFACE
8
A2
10
1.49512
20
3.91809
30
-7.07371
11
1.62541
21
3.95422
31
-7.09783
12
1.67163
22
3.79807
32
-7.08405
13
1.54135
23
3.76185
33
-7.06004
0
3DFACE
8
A2
10
1.62541
20
3.95422
30
-7.09783
11
1.75572
21
3.98991
31
-7.12248
12
1.80194
22
3.83385
32
-7.10860
13
1.67163
23
3.79807
33
-7.08405
0
3DFACE
8
A2
10
1.75572
20
3.98991
30
-7.12248
11
1.88596
21
4.02707
31
-7.14532
12
1.93218
22
3.87084
32
-7.13165
13
1.80194
23
3.83385
33
-7.10860
0
3DFACE
8
A2
10
1.88596
20
4.02707
30
-7.14532
11
2.01616
21
4.06475
31
-7.16751
12
2.06241
22
3.90808
32
-7.15437
13
1.93218
23
3.87084
33
-7.13165
0
3DFACE
8
A2
10
2.01616
20
4.06475
30
-7.16751
11
2.14635
21
4.10276
31
-7.18927
12
2.19259
22
3.94618
32
-7.17603
13
2.06241
23
3.90808
33
-7.15437
0
3DFACE
8
A2
10
2.14635
20
4.10276
30
-7.18927
11
2.27653
21
4.14095
31
-7.21083
12
2.32279
22
3.98412
32
-7.19791
13
2.19259
23
3.94618
33
-7.17603
0
3DFACE
8
A2
10
2.27653
20
4.14095
30
-7.21083
11
2.40666
21
4.17992
31
-7.23142
12
2.45297
22
4.02222
32
-7.21957
13
2.32279
23
3.98412
33
-7.19791
0
3DFACE
8
A2
10
2.40666
20
4.17992
30
-7.23142
11
2.53686
21
4.21785
31
-7.25329
12
2.58319
22
4.05955
32
-7.24219
13
2.45297
23
4.02222
33
-7.21957
0
3DFACE
8
A2
10
2.53686
20
4.21785
30
-7.25329
11
2.66704
21
4.25604
31
-7.27484
12
2.71338
22
4.09757
32
-7.26395
13
2.58319
23
4.05955
33
-7.24219
0
3DFACE
8
A2
10
2.66704
20
4.25604
30
-7.27484
11
2.79724
21
4.29380
31
-7.29693
12
2.84361
22
4.13481
32
-7.28668
13
2.71338
23
4.09757
33
-7.26395
0
3DFACE
8
A2
10
2.79724
20
4.29380
30
-7.29693
11
2.92746
21
4.33113
31
-7.31955
12
2.97385
22
4.17188
32
-7.30962
13
2.84361
23
4.13481
33
-7.28668
0
3DFACE
8
A2
10
2.92746
20
4.33113
30
-7.31955
11
3.05772
21
4.36786
31
-7.34292
12
3.10409
22
4.20896
32
-7.33257
13
2.97385
23
4.17188
33
-7.30962
0
3DFACE
8
A2
10
3.05772
20
4.36786
30
-7.34292
11
3.18800
21
4.40416
31
-7.36682
12
3.23435
22
4.24560
32
-7.35604
13
3.10409
23
4.20896
33
-7.33257
0
3DFACE
8
A2
10
3.18800
20
4.40416
30
-7.36682
11
3.31831
21
4.43985
31
-7.39148
12
3.36466
22
4.28129
32
-7.38070
13
3.23435
23
4.24560
33
-7.35604
0
3DFACE
8
A2
10
3.31831
20
4.43985
30
-7.39148
11
3.44862
21
4.47555
31
-7.41613
12
3.49497
22
4.31699
32
-7.40535
13
3.36466
23
4.28129
33
-7.38070
0
3DFACE
8
A2
10
3.44862
20
4.47555
30
-7.41613
11
3.57894
21
4.51124
31
-7.44079
12
3.62529
22
4.35269
32
-7.43001
13
3.49497
23
4.31699
33
-7.40535
0
3DFACE
8
A2
10
3.57894
20
4.51124
30
-7.44079
11
3.70925
21
4.54694
31
-7.46544
12
3.75560
22
4.38838
32
-7.45466
13
3.62529
23
4.35269
33
-7.43001
0
3DFACE
8
A2
10
3.70925
20
4.54694
30
-7.46544
11
3.83956
21
4.58264
31
-7.49010
12
3.88591
22
4.42408
32
-7.47932
13
3.75560
23
4.38838
33
-7.45466
0
3DFACE
8
A2
10
3.83956
20
4.58264
30
-7.49010
11
3.96986
21
4.61851
31
-7.51454
12
4.01621
22
4.45995
32
-7.50376
13
3.88591
23
4.42408
33
-7.47932
0
3DFACE
8
A2
10
3.96986
20
4.61851
30
-7.51454
11
4.10016
21
4.65455
31
-7.53876
12
4.14651
22
4.49590
32
-7.52809
13
4.01621
23
4.45995
33
-7.50376
0
3DFACE
8
A2
10
-3.01960
20
2.51274
30
-6.19681
11
-2.88933
21
2.54921
31
-6.22050
12
-2.84295
22
2.39014
32
-6.21036
13
-2.97321
23
2.35341
33
-6.18699
0
3DFACE
8
A2
10
-2.88933
20
2.54921
30
-6.22050
11
-2.75911
21
2.58671
31
-6.24291
12
-2.71275
22
2.42790
32
-6.23245
13
-2.84295
23
2.39014
33
-6.21036
0
3DFACE
8
A2
10
-2.75911
20
2.58671
30
-6.24291
11
-2.62894
21
2.62507
31
-6.26425
12
-2.58260
22
2.46660
32
-6.25336
13
-2.71275
23
2.42790
33
-6.23245
0
3DFACE
8
A2
10
-2.62894
20
2.62507
30
-6.26425
11
-2.49884
21
2.66464
31
-6.28409
12
-2.45252
22
2.50668
32
-6.27256
13
-2.58260
23
2.46660
33
-6.25336
0
3DFACE
8
A2
10
-2.49884
20
2.66464
30
-6.28409
11
-2.36882
21
2.70584
31
-6.30189
12
-2.32251
22
2.54805
32
-6.29015
13
-2.45252
23
2.50668
33
-6.27256
0
3DFACE
8
A2
10
-2.36882
20
2.70584
30
-6.30189
11
-2.23880
21
2.74704
31
-6.31970
12
-2.19251
22
2.58960
32
-6.30753
13
-2.32251
23
2.54805
33
-6.29015
0
3DFACE
8
A2
10
-2.23880
20
2.74704
30
-6.31970
11
-2.10880
21
2.78841
31
-6.33729
12
-2.06256
22
2.63191
32
-6.32394
13
-2.19251
23
2.58960
33
-6.30753
0
3DFACE
8
A2
10
-2.10880
20
2.78841
30
-6.33729
11
-1.97883
21
2.83055
31
-6.35392
12
-1.93266
22
2.67535
32
-6.33897
13
-2.06256
23
2.63191
33
-6.32394
0
3DFACE
8
A2
10
-1.97883
20
2.83055
30
-6.35392
11
-1.84877
21
2.87098
31
-6.37269
12
-1.80264
22
2.71655
32
-6.35678
13
-1.93266
23
2.67535
33
-6.33897
0
3DFACE
8
A2
10
-1.84877
20
2.87098
30
-6.37269
11
-1.71861
21
2.90951
31
-6.39382
12
-1.67251
22
2.75551
32
-6.37737
13
-1.80264
23
2.71655
33
-6.35678
0
3DFACE
8
A2
10
-1.71861
20
2.90951
30
-6.39382
11
-1.58835
21
2.94616
31
-6.41729
12
-1.54224
22
2.79207
32
-6.40095
13
-1.67251
23
2.75551
33
-6.37737
0
3DFACE
8
A2
10
-1.58835
20
2.94616
30
-6.41729
11
-1.45799
21
2.98091
31
-6.44313
12
-1.41182
22
2.82579
32
-6.42807
13
-1.54224
23
2.79207
33
-6.40095
0
3DFACE
8
A2
10
-1.45799
20
2.98091
30
-6.44313
11
-1.32748
21
3.01299
31
-6.47227
12
-1.28122
22
2.85607
32
-6.45946
13
-1.41182
23
2.82579
33
-6.42807
0
3DFACE
8
A2
10
-1.32748
20
3.01299
30
-6.47227
11
-1.19699
21
3.04533
31
-6.50110
12
-1.15067
22
2.88738
32
-6.48957
13
-1.28122
23
2.85607
33
-6.45946
0
3DFACE
8
A2
10
-1.19699
20
3.04533
30
-6.50110
11
-1.06651
21
3.07802
31
-6.52950
12
-1.02019
22
2.91998
32
-6.51808
13
-1.15067
23
2.88738
33
-6.48957
0
3DFACE
8
A2
10
-1.06651
20
3.07802
30
-6.52950
11
-0.93606
21
3.11114
31
-6.55736
12
-0.88977
22
2.95361
32
-6.54530
13
-1.02019
23
2.91998
33
-6.51808
0
3DFACE
8
A2
10
-0.93606
20
3.11114
30
-6.55736
11
-0.80563
21
3.14460
31
-6.58480
12
-0.75939
22
2.98802
32
-6.57156
13
-0.88977
23
2.95361
33
-6.54530
0
3DFACE
8
A2
10
-0.80563
20
3.14460
30
-6.58480
11
-0.67522
21
3.17840
31
-6.61181
12
-0.62904
22
3.02311
32
-6.59696
13
-0.75939
23
2.98802
33
-6.57156
0
3DFACE
8
A2
10
-0.67522
20
3.17840
30
-6.61181
11
-0.54480
21
3.21221
31
-6.63882
12
-0.49868
22
3.05795
32
-6.62269
13
-0.62904
23
3.02311
33
-6.59696
0
3DFACE
8
A2
10
-0.54480
20
3.21221
30
-6.63882
11
-0.41442
21
3.24653
31
-6.66518
12
-0.36832
22
3.09270
32
-6.64852
13
-0.49868
23
3.05795
33
-6.62269
0
3DFACE
8
A2
10
-0.41442
20
3.24653
30
-6.66518
11
-0.28404
21
3.28094
31
-6.69144
12
-0.23795
22
3.12728
32
-6.67456
13
-0.36832
23
3.09270
33
-6.64852
0
3DFACE
8
A2
10
-0.28404
20
3.28094
30
-6.69144
11
-0.15362
21
3.31474
31
-6.71845
12
-0.10753
22
3.16100
32
-6.70168
13
-0.23795
23
3.12728
33
-6.67456
0
3DFACE
8
A2
10
-0.15362
20
3.31474
30
-6.71845
11
-0.02317
21
3.34777
31
-6.74642
12
0.02290
22
3.19454
32
-6.72901
13
-0.10753
23
3.16100
33
-6.70168
0
3DFACE
8
A2
10
-0.02317
20
3.34777
30
-6.74642
11
0.10729
21
3.38072
31
-6.77450
12
0.15332
22
3.22818
32
-6.75623
13
0.02290
23
3.19454
33
-6.72901
0
3DFACE
8
A2
10
0.10729
20
3.38072
30
-6.77450
11
0.23778
21
3.41306
31
-6.80333
12
0.28383
22
3.26018
32
-6.78549
13
0.15332
23
3.22818
33
-6.75623
0
3DFACE
8
A2
10
0.23778
20
3.41306
30
-6.80333
11
0.36822
21
3.44652
31
-6.83076
12
0.41430
22
3.29295
32
-6.81378
13
0.28383
23
3.26018
33
-6.78549
0
3DFACE
8
A2
10
0.36822
20
3.44652
30
-6.83076
11
0.49840
21
3.48454
31
-6.85253
12
0.54452
22
3.33028
32
-6.83640
13
0.41430
23
3.29295
33
-6.81378
0
3DFACE
8
A2
10
0.49840
20
3.48454
30
-6.85253
11
0.62821
21
3.52969
31
-6.86541
12
0.67432
22
3.37552
32
-6.84918
13
0.54452
23
3.33028
33
-6.83640
0
3DFACE
8
A2
10
0.62821
20
3.52969
30
-6.86541
11
0.75827
21
3.57003
31
-6.88429
12
0.80445
22
3.41474
32
-6.86945
13
0.67432
23
3.37552
33
-6.84918
0
3DFACE
8
A2
10
0.75827
20
3.57003
30
-6.88429
11
0.88852
21
3.60685
31
-6.90756
12
0.93472
22
3.45121
32
-6.89314
13
0.80445
23
3.41474
33
-6.86945
0
3DFACE
8
A2
10
0.88852
20
3.60685
30
-6.90756
11
1.01891
21
3.64117
31
-6.93392
12
1.06508
22
3.48605
32
-6.91886
13
0.93472
23
3.45121
33
-6.89314
0
3DFACE
8
A2
10
1.01891
20
3.64117
30
-6.93392
11
1.14947
21
3.67222
31
-6.96435
12
1.19562
22
3.51745
32
-6.94887
13
1.06508
23
3.48605
33
-6.91886
0
3DFACE
8
A2
10
1.14947
20
3.67222
30
-6.96435
11
1.28036
21
3.69725
31
-7.00228
12
1.32655
22
3.54171
32
-6.98775
13
1.19562
23
3.51745
33
-6.94887
0
3DFACE
8
A2
10
1.28036
20
3.69725
30
-7.00228
11
1.41096
21
3.72753
31
-7.03367
12
1.45712
22
3.57242
32
-7.01861
13
1.32655
23
3.54171
33
-6.98775
0
3DFACE
8
A2
10
1.41096
20
3.72753
30
-7.03367
11
1.54135
21
3.76185
31
-7.06004
12
1.58747
22
3.60742
32
-7.04412
13
1.45712
23
3.57242
33
-7.01861
0
3DFACE
8
A2
10
1.54135
20
3.76185
30
-7.06004
11
1.67163
21
3.79807
31
-7.08405
12
1.71774
22
3.64407
32
-7.06760
13
1.58747
23
3.60742
33
-7.04412
0
3DFACE
8
A2
10
1.67163
20
3.79807
30
-7.08405
11
1.80194
21
3.83385
31
-7.10860
12
1.84802
22
3.68037
32
-7.09150
13
1.71774
23
3.64407
33
-7.06760
0
3DFACE
8
A2
10
1.80194
20
3.83385
30
-7.10860
11
1.93218
21
3.87084
31
-7.13165
12
1.97824
22
3.71778
32
-7.11402
13
1.84802
23
3.68037
33
-7.09150
0
3DFACE
8
A2
10
1.93218
20
3.87084
30
-7.13165
11
2.06241
21
3.90808
31
-7.15437
12
2.10847
22
3.75494
32
-7.13685
13
1.97824
23
3.71778
33
-7.11402
0
3DFACE
8
A2
10
2.06241
20
3.90808
30
-7.15437
11
2.19259
21
3.94618
31
-7.17603
12
2.23867
22
3.79279
32
-7.15883
13
2.10847
23
3.75494
33
-7.13685
0
3DFACE
8
A2
10
2.19259
20
3.94618
30
-7.17603
11
2.32279
21
3.98412
31
-7.19791
12
2.36886
22
3.83072
32
-7.18071
13
2.23867
23
3.79279
33
-7.15883
0
3DFACE
8
A2
10
2.32279
20
3.98412
30
-7.19791
11
2.45297
21
4.02222
31
-7.21957
12
2.49903
22
3.86908
32
-7.20204
13
2.36886
23
3.83072
33
-7.18071
0
3DFACE
8
A2
10
2.45297
20
4.02222
30
-7.21957
11
2.58319
21
4.05955
31
-7.24219
12
2.62924
22
3.90658
32
-7.22445
13
2.49903
23
3.86908
33
-7.20204
0
3DFACE
8
A2
10
2.58319
20
4.05955
30
-7.24219
11
2.71338
21
4.09757
31
-7.26395
12
2.75948
22
3.94374
32
-7.24729
13
2.62924
23
3.90658
33
-7.22445
0
3DFACE
8
A2
10
2.71338
20
4.09757
30
-7.26395
11
2.84361
21
4.13481
31
-7.28668
12
2.88975
22
3.98021
32
-7.27098
13
2.75948
23
3.94374
33
-7.24729
0
3DFACE
8
A2
10
2.84361
20
4.13481
30
-7.28668
11
2.97385
21
4.17188
31
-7.30962
12
3.02005
22
4.01608
32
-7.29542
13
2.88975
23
3.98021
33
-7.27098
0
3DFACE
8
A2
10
2.97385
20
4.17188
30
-7.30962
11
3.10409
21
4.20896
31
-7.33257
12
3.15037
22
4.05169
32
-7.32018
13
3.02005
23
4.01608
33
-7.29542
0
3DFACE
8
A2
10
3.10409
20
4.20896
30
-7.33257
11
3.23435
21
4.24560
31
-7.35604
12
3.28070
22
4.08696
32
-7.34537
13
3.15037
23
4.05169
33
-7.32018
0
3DFACE
8
A2
10
3.23435
20
4.24560
30
-7.35604
11
3.36466
21
4.28129
31
-7.38070
12
3.41102
22
4.12265
32
-7.37003
13
3.28070
23
4.08696
33
-7.34537
0
3DFACE
8
A2
10
3.36466
20
4.28129
30
-7.38070
11
3.49497
21
4.31699
31
-7.40535
12
3.54133
22
4.15835
32
-7.39468
13
3.41102
23
4.12265
33
-7.37003
0
3DFACE
8
A2
10
3.49497
20
4.31699
30
-7.40535
11
3.62529
21
4.35269
31
-7.43001
12
3.67163
22
4.19413
32
-7.41923
13
3.54133
23
4.15835
33
-7.39468
0
3DFACE
8
A2
10
3.62529
20
4.35269
30
-7.43001
11
3.75560
21
4.38838
31
-7.45466
12
3.80195
22
4.22983
32
-7.44388
13
3.67163
23
4.19413
33
-7.41923
0
3DFACE
8
A2
10
3.75560
20
4.38838
30
-7.45466
11
3.88591
21
4.42408
31
-7.47932
12
3.93226
22
4.26552
32
-7.46854
13
3.80195
23
4.22983
33
-7.44388
0
3DFACE
8
A2
10
3.88591
20
4.42408
30
-7.47932
11
4.01621
21
4.45995
31
-7.50376
12
4.06257
22
4.30131
32
-7.49308
13
3.93226
23
4.26552
33
-7.46854
0
3DFACE
8
A2
10
4.01621
20
4.45995
30
-7.50376
11
4.14651
21
4.49590
31
-7.52809
12
4.19286
22
4.33735
32
-7.51731
13
4.06257
23
4.30131
33
-7.49308
0
3DFACE
8
A2
10
-2.97321
20
2.35341
30
-6.18699
11
-2.84295
21
2.39014
31
-6.21036
12
-2.79665
22
2.23261
32
-6.19830
13
-2.92699
23
2.19734
33
-6.17311
0
3DFACE
8
A2
10
-2.84295
20
2.39014
30
-6.21036
11
-2.71275
21
2.42790
31
-6.23245
12
-2.66637
22
2.26891
32
-6.22220
13
-2.79665
23
2.23261
33
-6.19830
0
3DFACE
8
A2
10
-2.71275
20
2.42790
30
-6.23245
11
-2.58260
21
2.46660
31
-6.25336
12
-2.53615
22
2.30624
32
-6.24482
13
-2.66637
23
2.26891
33
-6.22220
0
3DFACE
8
A2
10
-2.58260
20
2.46660
30
-6.25336
11
-2.45252
21
2.50668
31
-6.27256
12
-2.40603
22
2.34546
32
-6.26509
13
-2.53615
23
2.30624
33
-6.24482
0
3DFACE
8
A2
10
-2.45252
20
2.50668
30
-6.27256
11
-2.32251
21
2.54805
31
-6.29015
12
-2.27600
22
2.38640
32
-6.28322
13
-2.40603
23
2.34546
33
-6.26509
0
3DFACE
8
A2
10
-2.32251
20
2.54805
30
-6.29015
11
-2.19251
21
2.58960
31
-6.30753
12
-2.14605
22
2.42898
32
-6.29932
13
-2.27600
23
2.38640
33
-6.28322
0
3DFACE
8
A2
10
-2.19251
20
2.58960
30
-6.30753
11
-2.06256
21
2.63191
31
-6.32394
12
-2.01617
22
2.47267
32
-6.31402
13
-2.14605
23
2.42898
33
-6.29932
0
3DFACE
8
A2
10
-2.06256
20
2.63191
30
-6.32394
11
-1.93266
21
2.67535
31
-6.33897
12
-1.88636
22
2.51782
32
-6.32691
13
-2.01617
23
2.47267
33
-6.31402
0
3DFACE
8
A2
10
-1.93266
20
2.67535
30
-6.33897
11
-1.80264
21
2.71655
31
-6.35678
12
-1.75643
22
2.56057
32
-6.34279
13
-1.88636
23
2.51782
33
-6.32691
0
3DFACE
8
A2
10
-1.80264
20
2.71655
30
-6.35678
11
-1.67251
21
2.75551
31
-6.37737
12
-1.62636
22
2.60074
32
-6.36188
13
-1.75643
23
2.56057
33
-6.34279
0
3DFACE
8
A2
10
-1.67251
20
2.75551
30
-6.37737
11
-1.54224
21
2.79207
31
-6.40095
12
-1.49613
22
2.63798
32
-6.38461
13
-1.62636
23
2.60074
33
-6.36188
0
3DFACE
8
A2
10
-1.54224
20
2.79207
30
-6.40095
11
-1.41182
21
2.82579
31
-6.42807
12
-1.36571
22
2.67162
32
-6.41183
13
-1.49613
23
2.63798
33
-6.38461
0
3DFACE
8
A2
10
-1.41182
20
2.82579
30
-6.42807
11
-1.28122
21
2.85607
31
-6.45946
12
-1.23508
22
2.70138
32
-6.44387
13
-1.36571
23
2.67162
33
-6.41183
0
3DFACE
8
A2
10
-1.28122
20
2.85607
30
-6.45946
11
-1.15067
21
2.88738
31
-6.48957
12
-1.10451
22
2.73235
32
-6.47440
13
-1.23508
23
2.70138
33
-6.44387
0
3DFACE
8
A2
10
-1.15067
20
2.88738
30
-6.48957
11
-1.02019
21
2.91998
31
-6.51808
12
-0.97402
22
2.76469
32
-6.50323
13
-1.10451
23
2.73235
33
-6.47440
0
3DFACE
8
A2
10
-1.02019
20
2.91998
30
-6.51808
11
-0.88977
21
2.95361
31
-6.54530
12
-0.84358
22
2.79806
32
-6.53077
13
-0.97402
23
2.76469
33
-6.50323
0
3DFACE
8
A2
10
-0.88977
20
2.95361
30
-6.54530
11
-0.75939
21
2.98802
31
-6.57156
12
-0.71320
22
2.83256
32
-6.55693
13
-0.84358
23
2.79806
33
-6.53077
0
3DFACE
8
A2
10
-0.75939
20
2.98802
30
-6.57156
11
-0.62904
21
3.02311
31
-6.59696
12
-0.58288
22
2.86808
32
-6.58180
13
-0.71320
23
2.83256
33
-6.55693
0
3DFACE
8
A2
10
-0.62904
20
3.02311
30
-6.59696
11
-0.49868
21
3.05795
31
-6.62269
12
-0.45254
22
2.90326
32
-6.60709
13
-0.58288
23
2.86808
33
-6.58180
0
3DFACE
8
A2
10
-0.49868
20
3.05795
30
-6.62269
11
-0.36832
21
3.09270
31
-6.64852
12
-0.32220
22
2.93836
32
-6.63250
13
-0.45254
23
2.90326
33
-6.60709
0
3DFACE
8
A2
10
-0.36832
20
3.09270
30
-6.64852
11
-0.23795
21
3.12728
31
-6.67456
12
-0.19185
22
2.97337
32
-6.65801
13
-0.32220
23
2.93836
33
-6.63250
0
3DFACE
8
A2
10
-0.23795
20
3.12728
30
-6.67456
11
-0.10753
21
3.16100
31
-6.70168
12
-0.06147
22
3.00777
32
-6.68427
13
-0.19185
23
2.97337
33
-6.65801
0
3DFACE
8
A2
10
-0.10753
20
3.16100
30
-6.70168
11
0.02290
21
3.19454
31
-6.72901
12
0.06890
22
3.04244
32
-6.71020
13
-0.06147
23
3.00777
33
-6.68427
0
3DFACE
8
A2
10
0.02290
20
3.19454
30
-6.72901
11
0.15332
21
3.22818
31
-6.75623
12
0.19927
22
3.07702
32
-6.73625
13
0.06890
23
3.04244
33
-6.71020
0
3DFACE
8
A2
10
0.15332
20
3.22818
30
-6.75623
11
0.28383
21
3.26018
31
-6.78549
12
0.32979
22
3.10893
32
-6.76561
13
0.19927
23
3.07702
33
-6.73625
0
3DFACE
8
A2
10
0.28383
20
3.26018
30
-6.78549
11
0.41430
21
3.29295
31
-6.81378
12
0.46026
22
3.14162
32
-6.79401
13
0.32979
23
3.10893
33
-6.76561
0
3DFACE
8
A2
10
0.41430
20
3.29295
30
-6.81378
11
0.54452
21
3.33028
31
-6.83640
12
0.59050
22
3.17869
32
-6.81695
13
0.46026
23
3.14162
33
-6.79401
0
3DFACE
8
A2
10
0.54452
20
3.33028
30
-6.83640
11
0.67432
21
3.37552
31
-6.84918
12
0.72034
22
3.22315
32
-6.83069
13
0.59050
23
3.17869
33
-6.81695
0
3DFACE
8
A2
10
0.67432
20
3.37552
30
-6.84918
11
0.80445
21
3.41474
31
-6.86945
12
0.85057
22
3.26048
32
-6.85332
13
0.72034
23
3.22315
33
-6.83069
0
3DFACE
8
A2
10
0.80445
20
3.41474
30
-6.86945
11
0.93472
21
3.45121
31
-6.89314
12
0.98085
22
3.29670
32
-6.87733
13
0.85057
23
3.26048
33
-6.85332
0
3DFACE
8
A2
10
0.93472
20
3.45121
30
-6.89314
11
1.06508
21
3.48605
31
-6.91886
12
1.11120
22
3.33162
32
-6.90295
13
0.98085
23
3.29670
33
-6.87733
0
3DFACE
8
A2
10
1.06508
20
3.48605
30
-6.91886
11
1.19562
21
3.51745
31
-6.94887
12
1.24175
22
3.36302
32
-6.93295
13
1.11120
23
3.33162
33
-6.90295
0
3DFACE
8
A2
10
1.19562
20
3.51745
30
-6.94887
11
1.32655
21
3.54171
31
-6.98775
12
1.37267
22
3.38728
32
-6.97183
13
1.24175
23
3.36302
33
-6.93295
0
3DFACE
8
A2
10
1.32655
20
3.54171
30
-6.98775
11
1.45712
21
3.57242
31
-7.01861
12
1.50319
22
3.41919
32
-7.00120
13
1.37267
23
3.38728
33
-6.97183
0
3DFACE
8
A2
10
1.45712
20
3.57242
30
-7.01861
11
1.58747
21
3.60742
31
-7.04412
12
1.63348
22
3.45523
32
-7.02542
13
1.50319
23
3.41919
33
-7.00120
0
3DFACE
8
A2
10
1.58747
20
3.60742
30
-7.04412
11
1.71774
21
3.64407
31
-7.06760
12
1.76371
22
3.49247
32
-7.04815
13
1.63348
23
3.45523
33
-7.02542
0
3DFACE
8
A2
10
1.71774
20
3.64407
30
-7.06760
11
1.84802
21
3.68037
31
-7.09150
12
1.89395
22
3.52946
32
-7.07120
13
1.76371
23
3.49247
33
-7.04815
0
3DFACE
8
A2
10
1.84802
20
3.68037
30
-7.09150
11
1.97824
21
3.71778
31
-7.11402
12
2.02415
22
3.56731
32
-7.09318
13
1.89395
23
3.52946
33
-7.07120
0
3DFACE
8
A2
10
1.97824
20
3.71778
30
-7.11402
11
2.10847
21
3.75494
31
-7.13685
12
2.15436
22
3.60498
32
-7.11537
13
2.02415
23
3.56731
33
-7.09318
0
3DFACE
8
A2
10
2.10847
20
3.75494
30
-7.13685
11
2.23867
21
3.79279
31
-7.15883
12
2.28457
22
3.64257
32
-7.13768
13
2.15436
23
3.60498
33
-7.11537
0
3DFACE
8
A2
10
2.23867
20
3.79279
30
-7.15883
11
2.36886
21
3.83072
31
-7.18071
12
2.41479
22
3.67998
32
-7.16019
13
2.28457
23
3.64257
33
-7.13768
0
3DFACE
8
A2
10
2.36886
20
3.83072
30
-7.18071
11
2.49903
21
3.86908
31
-7.20204
12
2.54497
22
3.71809
32
-7.18185
13
2.41479
23
3.67998
33
-7.16019
0
3DFACE
8
A2
10
2.49903
20
3.86908
30
-7.20204
11
2.62924
21
3.90658
31
-7.22445
12
2.67519
22
3.75551
32
-7.20436
13
2.54497
23
3.71809
33
-7.18185
0
3DFACE
8
A2
10
2.62924
20
3.90658
30
-7.22445
11
2.75948
21
3.94374
31
-7.24729
12
2.80552
22
3.79094
32
-7.22934
13
2.67519
23
3.75551
33
-7.20436
0
3DFACE
8
A2
10
2.75948
20
3.94374
30
-7.24729
11
2.88975
21
3.98021
31
-7.27098
12
2.93587
22
3.82587
32
-7.25496
13
2.80552
23
3.79094
33
-7.22934
0
3DFACE
8
A2
10
2.88975
20
3.98021
30
-7.27098
11
3.02005
21
4.01608
31
-7.29542
12
3.06623
22
3.86062
32
-7.28079
13
2.93587
23
3.82587
33
-7.25496
0
3DFACE
8
A2
10
3.02005
20
4.01608
30
-7.29542
11
3.15037
21
4.05169
31
-7.32018
12
3.19663
22
3.89477
32
-7.30737
13
3.06623
23
3.86062
33
-7.28079
0
3DFACE
8
A2
10
3.15037
20
4.05169
30
-7.32018
11
3.28070
21
4.08696
31
-7.34537
12
3.32705
22
3.92840
32
-7.33459
13
3.19663
23
3.89477
33
-7.30737
0
3DFACE
8
A2
10
3.28070
20
4.08696
30
-7.34537
11
3.41102
21
4.12265
31
-7.37003
12
3.45736
22
3.96409
32
-7.35924
13
3.32705
23
3.92840
33
-7.33459
0
3DFACE
8
A2
10
3.41102
20
4.12265
30
-7.37003
11
3.54133
21
4.15835
31
-7.39468
12
3.58768
22
3.99979
32
-7.38390
13
3.45736
23
3.96409
33
-7.35924
0
3DFACE
8
A2
10
3.54133
20
4.15835
30
-7.39468
11
3.67163
21
4.19413
31
-7.41923
12
3.71799
22
4.03549
32
-7.40855
13
3.58768
23
3.99979
33
-7.38390
0
3DFACE
8
A2
10
3.67163
20
4.19413
30
-7.41923
11
3.80195
21
4.22983
31
-7.44388
12
3.84830
22
4.07118
32
-7.43321
13
3.71799
23
4.03549
33
-7.40855
0
3DFACE
8
A2
10
3.80195
20
4.22983
30
-7.44388
11
3.93226
21
4.26552
31
-7.46854
12
3.97861
22
4.10688
32
-7.45786
13
3.84830
23
4.07118
33
-7.43321
0
3DFACE
8
A2
10
3.93226
20
4.26552
30
-7.46854
11
4.06257
21
4.30131
31
-7.49308
12
4.10892
22
4.14275
32
-7.48230
13
3.97861
23
4.10688
33
-7.45786
0
3DFACE
8
A2
10
4.06257
20
4.30131
30
-7.49308
11
4.19286
21
4.33735
31
-7.51731
12
4.23921
22
4.17879
32
-7.50653
13
4.10892
23
4.14275
33
-7.48230
0
3DFACE
8
A2
10
-2.92699
20
2.19734
30
-6.17311
11
-2.79665
21
2.23261
31
-6.19830
12
-2.75040
22
2.07586
32
-6.18527
13
-2.88080
23
2.04180
33
-6.15858
0
3DFACE
8
A2
10
-2.79665
20
2.23261
30
-6.19830
11
-2.66637
21
2.26891
31
-6.22220
12
-2.62002
22
2.11035
32
-6.21142
13
-2.75040
23
2.07586
33
-6.18527
0
3DFACE
8
A2
10
-2.66637
20
2.26891
30
-6.22220
11
-2.53615
21
2.30624
31
-6.24482
12
-2.48970
22
2.14588
32
-6.23629
13
-2.62002
23
2.11035
33
-6.21142
0
3DFACE
8
A2
10
-2.53615
20
2.30624
30
-6.24482
11
-2.40603
21
2.34546
31
-6.26509
12
-2.35952
22
2.18398
32
-6.25795
13
-2.48970
23
2.14588
33
-6.23629
0
3DFACE
8
A2
10
-2.40603
20
2.34546
30
-6.26509
11
-2.27600
21
2.38640
31
-6.28322
12
-2.22948
22
2.22475
32
-6.27629
13
-2.35952
23
2.18398
33
-6.25795
0
3DFACE
8
A2
10
-2.27600
20
2.38640
30
-6.28322
11
-2.14605
21
2.42898
31
-6.29932
12
-2.09957
22
2.26793
32
-6.29164
13
-2.22948
23
2.22475
33
-6.27629
0
3DFACE
8
A2
10
-2.14605
20
2.42898
30
-6.29932
11
-2.01617
21
2.47267
31
-6.31402
12
-1.96977
22
2.31317
32
-6.30442
13
-2.09957
23
2.26793
33
-6.29164
0
3DFACE
8
A2
10
-2.01617
20
2.47267
30
-6.31402
11
-1.88636
21
2.51782
31
-6.32691
12
-1.84007
22
2.36030
32
-6.31484
13
-1.96977
23
2.31317
33
-6.30442
0
3DFACE
8
A2
10
-1.88636
20
2.51782
30
-6.32691
11
-1.75643
21
2.56057
31
-6.34279
12
-1.71021
22
2.40434
32
-6.32912
13
-1.84007
23
2.36030
33
-6.31484
0
3DFACE
8
A2
10
-1.75643
20
2.56057
30
-6.34279
11
-1.62636
21
2.60074
31
-6.36188
12
-1.58015
22
2.44485
32
-6.34778
13
-1.71021
23
2.40434
33
-6.32912
0
3DFACE
8
A2
10
-1.62636
20
2.60074
30
-6.36188
11
-1.49613
21
2.63798
31
-6.38461
12
-1.44989
22
2.48149
32
-6.37126
13
-1.58015
23
2.44485
33
-6.34778
0
3DFACE
8
A2
10
-1.49613
20
2.63798
30
-6.38461
11
-1.36571
21
2.67162
31
-6.41183
12
-1.31939
22
2.51375
32
-6.40019
13
-1.44989
23
2.48149
33
-6.37126
0
3DFACE
8
A2
10
-1.36571
20
2.67162
30
-6.41183
11
-1.23508
21
2.70138
31
-6.44387
12
-1.18867
22
2.54179
32
-6.43437
13
-1.31939
23
2.51375
33
-6.40019
0
3DFACE
8
A2
10
-1.23508
20
2.70138
30
-6.44387
11
-1.10451
21
2.73235
31
-6.47440
12
-1.05805
22
2.57173
32
-6.46619
13
-1.18867
23
2.54179
33
-6.43437
0
3DFACE
8
A2
10
-1.10451
20
2.73235
30
-6.47440
11
-0.97402
21
2.76469
31
-6.50323
12
-0.92755
22
2.60390
32
-6.49523
13
-1.05805
23
2.57173
33
-6.46619
0
3DFACE
8
A2
10
-0.97402
20
2.76469
30
-6.50323
11
-0.84358
21
2.79806
31
-6.53077
12
-0.79714
22
2.63779
32
-6.52213
13
-0.92755
23
2.60390
33
-6.49523
0
3DFACE
8
A2
10
-0.84358
20
2.79806
30
-6.53077
11
-0.71320
21
2.83256
31
-6.55693
12
-0.66683
22
2.67348
32
-6.54679
13
-0.79714
23
2.63779
33
-6.52213
0
3DFACE
8
A2
10
-0.71320
20
2.83256
30
-6.55693
11
-0.58288
21
2.86808
31
-6.58180
12
-0.53658
22
2.71038
32
-6.56995
13
-0.66683
23
2.67348
33
-6.54679
0
3DFACE
8
A2
10
-0.58288
20
2.86808
30
-6.58180
11
-0.45254
21
2.90326
31
-6.60709
12
-0.40631
22
2.74694
32
-6.59353
13
-0.53658
23
2.71038
33
-6.56995
0
3DFACE
8
A2
10
-0.45254
20
2.90326
30
-6.60709
11
-0.32220
21
2.93836
31
-6.63250
12
-0.27603
22
2.78315
32
-6.61754
13
-0.40631
23
2.74694
33
-6.59353
0
3DFACE
8
A2
10
-0.32220
20
2.93836
30
-6.63250
11
-0.19185
21
2.97337
31
-6.65801
12
-0.14575
22
2.81945
32
-6.64145
13
-0.27603
23
2.78315
33
-6.61754
0
3DFACE
8
A2
10
-0.19185
20
2.97337
30
-6.65801
11
-0.06147
21
3.00777
31
-6.68427
12
-0.01546
22
2.85566
32
-6.66546
13
-0.14575
23
2.81945
33
-6.64145
0
3DFACE
8
A2
10
-0.06147
20
3.00777
30
-6.68427
11
0.06890
21
3.04244
31
-6.71020
12
0.11481
22
2.89213
32
-6.68915
13
-0.01546
23
2.85566
33
-6.66546
0
3DFACE
8
A2
10
0.06890
20
3.04244
30
-6.71020
11
0.19927
21
3.07702
31
-6.73625
12
0.24513
22
2.92766
32
-6.71402
13
0.11481
23
2.89213
33
-6.68915
0
3DFACE
8
A2
10
0.19927
20
3.07702
30
-6.73625
11
0.32979
21
3.10893
31
-6.76561
12
0.37564
22
2.95957
32
-6.74338
13
0.24513
23
2.92766
33
-6.71402
0
3DFACE
8
A2
10
0.32979
20
3.10893
30
-6.76561
11
0.46026
21
3.14162
31
-6.79401
12
0.50613
22
2.99209
32
-6.77200
13
0.37564
23
2.95957
33
-6.74338
0
3DFACE
8
A2
10
0.46026
20
3.14162
30
-6.79401
11
0.59050
21
3.17869
31
-6.81695
12
0.63643
22
3.02804
32
-6.79633
13
0.50613
23
2.99209
33
-6.77200
0
3DFACE
8
A2
10
0.59050
20
3.17869
30
-6.81695
11
0.72034
21
3.22315
31
-6.83069
12
0.76659
22
3.06649
32
-6.81756
13
0.63643
23
3.02804
33
-6.79633
0
3DFACE
8
A2
10
0.72034
20
3.22315
30
-6.83069
11
0.85057
21
3.26048
31
-6.85332
12
0.89685
22
3.10322
32
-6.84093
13
0.76659
23
3.06649
33
-6.81756
0
3DFACE
8
A2
10
0.85057
20
3.26048
30
-6.85332
11
0.98085
21
3.29670
31
-6.87733
12
1.02711
22
3.13977
32
-6.86452
13
0.89685
23
3.10322
33
-6.84093
0
3DFACE
8
A2
10
0.98085
20
3.29670
30
-6.87733
11
1.11120
21
3.33162
31
-6.90295
12
1.15746
22
3.17487
32
-6.88992
13
1.02711
23
3.13977
33
-6.86452
0
3DFACE
8
A2
10
1.11120
20
3.33162
30
-6.90295
11
1.24175
21
3.36302
31
-6.93295
12
1.28798
22
3.20669
32
-6.91939
13
1.15746
23
3.17487
33
-6.88992
0
3DFACE
8
A2
10
1.24175
20
3.36302
30
-6.93295
11
1.37267
21
3.38728
31
-6.97183
12
1.41864
22
3.23594
32
-6.95207
13
1.28798
23
3.20669
33
-6.91939
0
3DFACE
8
A2
10
1.37267
20
3.38728
30
-6.97183
11
1.50319
21
3.41919
31
-7.00120
12
1.54912
22
3.26846
32
-6.98068
13
1.41864
23
3.23594
33
-6.95207
0
3DFACE
8
A2
10
1.50319
20
3.41919
30
-7.00120
11
1.63348
21
3.45523
31
-7.02542
12
1.67938
22
3.30510
32
-7.00416
13
1.54912
23
3.26846
33
-6.98068
0
3DFACE
8
A2
10
1.63348
20
3.45523
30
-7.02542
11
1.76371
21
3.49247
31
-7.04815
12
1.80956
22
3.34320
32
-7.02582
13
1.67938
23
3.30510
33
-7.00416
0
3DFACE
8
A2
10
1.76371
20
3.49247
30
-7.04815
11
1.89395
21
3.52946
31
-7.07120
12
1.93977
22
3.38079
32
-7.04812
13
1.80956
23
3.34320
33
-7.02582
0
3DFACE
8
A2
10
1.89395
20
3.52946
30
-7.07120
11
2.02415
21
3.56731
31
-7.09318
12
2.06993
22
3.41933
32
-7.06924
13
1.93977
23
3.38079
33
-7.04812
0
3DFACE
8
A2
10
2.02415
20
3.56731
30
-7.09318
11
2.15436
21
3.60498
31
-7.11537
12
2.20012
22
3.45743
32
-7.09090
13
2.06993
23
3.41933
33
-7.06924
0
3DFACE
8
A2
10
2.15436
20
3.60498
30
-7.11537
11
2.28457
21
3.64257
31
-7.13768
12
2.33030
22
3.49545
32
-7.11267
13
2.20012
23
3.45743
33
-7.09090
0
3DFACE
8
A2
10
2.28457
20
3.64257
30
-7.13768
11
2.41479
21
3.67998
31
-7.16019
12
2.46054
22
3.53261
32
-7.13550
13
2.33030
23
3.49545
33
-7.11267
0
3DFACE
8
A2
10
2.41479
20
3.67998
30
-7.16019
11
2.54497
21
3.71809
31
-7.18185
12
2.59077
22
3.56985
32
-7.15823
13
2.46054
23
3.53261
33
-7.13550
0
3DFACE
8
A2
10
2.54497
20
3.71809
30
-7.18185
11
2.67519
21
3.75551
31
-7.20436
12
2.72102
22
3.60675
32
-7.18139
13
2.59077
23
3.56985
33
-7.15823
0
3DFACE
8
A2
10
2.67519
20
3.75551
30
-7.20436
11
2.80552
21
3.79094
31
-7.22934
12
2.85147
22
3.63978
32
-7.20936
13
2.72102
23
3.60675
33
-7.18139
0
3DFACE
8
A2
10
2.80552
20
3.79094
30
-7.22934
11
2.93587
21
3.82587
31
-7.25496
12
2.98195
22
3.67238
32
-7.23786
13
2.85147
23
3.63978
33
-7.20936
0
3DFACE
8
A2
10
2.93587
20
3.82587
30
-7.25496
11
3.06623
21
3.86062
31
-7.28079
12
3.11242
22
3.70515
32
-7.26616
13
2.98195
23
3.67238
33
-7.23786
0
3DFACE
8
A2
10
3.06623
20
3.86062
30
-7.28079
11
3.19663
21
3.89477
31
-7.30737
12
3.24289
22
3.73793
32
-7.29445
13
3.11242
23
3.70515
33
-7.26616
0
3DFACE
8
A2
10
3.19663
20
3.89477
30
-7.30737
11
3.32705
21
3.92840
31
-7.33459
12
3.37340
22
3.76984
32
-7.32381
13
3.24289
23
3.73793
33
-7.29445
0
3DFACE
8
A2
10
3.32705
20
3.92840
30
-7.33459
11
3.45736
21
3.96409
31
-7.35924
12
3.50371
22
3.80554
32
-7.34846
13
3.37340
23
3.76984
33
-7.32381
0
3DFACE
8
A2
10
3.45736
20
3.96409
30
-7.35924
11
3.58768
21
3.99979
31
-7.38390
12
3.63403
22
3.84123
32
-7.37312
13
3.50371
23
3.80554
33
-7.34846
0
3DFACE
8
A2
10
3.58768
20
3.99979
30
-7.38390
11
3.71799
21
4.03549
31
-7.40855
12
3.76434
22
3.87693
32
-7.39777
13
3.63403
23
3.84123
33
-7.37312
0
3DFACE
8
A2
10
3.71799
20
4.03549
30
-7.40855
11
3.84830
21
4.07118
31
-7.43321
12
3.89465
22
3.91263
32
-7.42243
13
3.76434
23
3.87693
33
-7.39777
0
3DFACE
8
A2
10
3.84830
20
4.07118
30
-7.43321
11
3.97861
21
4.10688
31
-7.45786
12
4.02496
22
3.94832
32
-7.44708
13
3.89465
23
3.91263
33
-7.42243
0
3DFACE
8
A2
10
3.97861
20
4.10688
30
-7.45786
11
4.10892
21
4.14275
31
-7.48230
12
4.15527
22
3.98419
32
-7.47152
13
4.02496
23
3.94832
33
-7.44708
0
3DFACE
8
A2
10
4.10892
20
4.14275
30
-7.48230
11
4.23921
21
4.17879
31
-7.50653
12
4.28556
22
4.02023
32
-7.49575
13
4.15527
23
3.98419
33
-7.47152
0
3DFACE
8
A2
10
-2.88080
20
2.04180
30
-6.15858
11
-2.75040
21
2.07586
31
-6.18527
12
-2.70408
22
1.91790
32
-6.17374
13
-2.83456
23
1.88522
33
-6.14534
0
3DFACE
8
A2
10
-2.75040
20
2.07586
30
-6.18527
11
-2.62002
21
2.11035
31
-6.21142
12
-2.57361
22
1.95059
32
-6.20214
13
-2.70408
23
1.91790
33
-6.17374
0
3DFACE
8
A2
10
-2.62002
20
2.11035
30
-6.21142
11
-2.48970
21
2.14588
31
-6.23629
12
-2.44317
22
1.98388
32
-6.22979
13
-2.57361
23
1.95059
33
-6.20214
0
3DFACE
8
A2
10
-2.48970
20
2.14588
30
-6.23629
11
-2.35952
21
2.18398
31
-6.25795
12
-2.31288
22
2.02001
32
-6.25391
13
-2.44317
23
1.98388
33
-6.22979
0
3DFACE
8
A2
10
-2.35952
20
2.18398
30
-6.25795
11
-2.22948
21
2.22475
31
-6.27629
12
-2.18276
22
2.05923
32
-6.27418
13
-2.31288
23
2.02001
33
-6.25391
0
3DFACE
8
A2
10
-2.22948
20
2.22475
30
-6.27629
11
-2.09957
21
2.26793
31
-6.29164
12
-2.05278
22
2.10111
32
-6.29113
13
-2.18276
23
2.05923
33
-6.27418
0
3DFACE
8
A2
10
-2.09957
20
2.26793
30
-6.29164
11
-1.96977
21
2.31317
31
-6.30442
12
-1.92294
22
2.14567
32
-6.30476
13
-2.05278
23
2.10111
33
-6.29113
0
3DFACE
8
A2
10
-1.96977
20
2.31317
30
-6.30442
11
-1.84007
21
2.36030
31
-6.31484
12
-1.79324
22
2.19280
32
-6.31519
13
-1.92294
23
2.14567
33
-6.30476
0
3DFACE
8
A2
10
-1.84007
20
2.36030
30
-6.31484
11
-1.71021
21
2.40434
31
-6.32912
12
-1.66342
22
2.23770
32
-6.32839
13
-1.79324
23
2.19280
33
-6.31519
0
3DFACE
8
A2
10
-1.71021
20
2.40434
30
-6.32912
11
-1.58015
21
2.44485
31
-6.34778
12
-1.53347
22
2.28010
32
-6.34470
13
-1.66342
23
2.23770
33
-6.32839
0
3DFACE
8
A2
10
-1.58015
20
2.44485
30
-6.34778
11
-1.44989
21
2.48149
31
-6.37126
12
-1.40335
22
2.31941
32
-6.36486
13
-1.53347
23
2.28010
33
-6.34470
0
3DFACE
8
A2
10
-1.44989
20
2.48149
30
-6.37126
11
-1.31939
21
2.51375
31
-6.40019
12
-1.27303
22
2.35502
32
-6.38963
13
-1.40335
23
2.31941
33
-6.36486
0
3DFACE
8
A2
10
-1.31939
20
2.51375
30
-6.40019
11
-1.18867
21
2.54179
31
-6.43437
12
-1.14246
22
2.38590
32
-6.42027
13
-1.27303
23
2.35502
33
-6.38963
0
3DFACE
8
A2
10
-1.18867
20
2.54179
30
-6.43437
11
-1.05805
21
2.57173
31
-6.46619
12
-1.01183
22
2.41566
32
-6.45231
13
-1.14246
23
2.38590
33
-6.42027
0
3DFACE
8
A2
10
-1.05805
20
2.57173
30
-6.46619
11
-0.92755
21
2.60390
31
-6.49523
12
-0.88140
22
2.44912
32
-6.47974
13
-1.01183
23
2.41566
33
-6.45231
0
3DFACE
8
A2
10
-0.92755
20
2.60390
30
-6.49523
11
-0.79714
21
2.63779
31
-6.52213
12
-0.75093
22
2.48181
32
-6.50814
13
-0.88140
23
2.44912
33
-6.47974
0
3DFACE
8
A2
10
-0.79714
20
2.63779
30
-6.52213
11
-0.66683
21
2.67348
31
-6.54679
12
-0.62059
22
2.51708
32
-6.53333
13
-0.75093
23
2.48181
33
-6.50814
0
3DFACE
8
A2
10
-0.66683
20
2.67348
30
-6.54679
11
-0.53658
21
2.71038
31
-6.56995
12
-0.49030
22
2.55320
32
-6.55745
13
-0.62059
23
2.51708
33
-6.53333
0
3DFACE
8
A2
10
-0.53658
20
2.71038
30
-6.56995
11
-0.40631
21
2.74694
31
-6.59353
12
-0.36011
22
2.59114
32
-6.57933
13
-0.49030
23
2.55320
33
-6.55745
0
3DFACE
8
A2
10
-0.40631
20
2.74694
30
-6.59353
11
-0.27603
21
2.78315
31
-6.61754
12
-0.22978
22
2.62640
32
-6.60452
13
-0.36011
23
2.59114
33
-6.57933
0
3DFACE
8
A2
10
-0.27603
20
2.78315
30
-6.61754
11
-0.14575
21
2.81945
31
-6.64145
12
-0.09952
22
2.66322
32
-6.62778
13
-0.22978
23
2.62640
33
-6.60452
0
3DFACE
8
A2
10
-0.14575
20
2.81945
30
-6.64145
11
-0.01546
21
2.85566
31
-6.66546
12
0.03078
22
2.69908
32
-6.65222
13
-0.09952
23
2.66322
33
-6.62778
0
3DFACE
8
A2
10
-0.01546
20
2.85566
30
-6.66546
11
0.11481
21
2.89213
31
-6.68915
12
0.16100
22
2.73650
32
-6.67473
13
0.03078
23
2.69908
33
-6.65222
0
3DFACE
8
A2
10
0.11481
20
2.89213
30
-6.68915
11
0.24513
21
2.92766
31
-6.71402
12
0.29128
22
2.77288
32
-6.69853
13
0.16100
23
2.73650
33
-6.67473
0
3DFACE
8
A2
10
0.24513
20
2.92766
30
-6.71402
11
0.37564
21
2.95957
31
-6.74338
12
0.42179
22
2.80480
32
-6.72789
13
0.29128
23
2.77288
33
-6.69853
0
3DFACE
8
A2
10
0.37564
20
2.95957
30
-6.74338
11
0.50613
21
2.99209
31
-6.77200
12
0.55220
22
2.83860
32
-6.75490
13
0.42179
23
2.80480
33
-6.72789
0
3DFACE
8
A2
10
0.50613
20
2.99209
30
-6.77200
11
0.63643
21
3.02804
31
-6.79633
12
0.68248
22
2.87507
32
-6.77859
13
0.55220
23
2.83860
33
-6.75490
0
3DFACE
8
A2
10
0.63643
20
3.02804
30
-6.79633
11
0.76659
21
3.06649
31
-6.81756
12
0.81290
22
2.90871
32
-6.80582
13
0.68248
23
2.87507
33
-6.77859
0
3DFACE
8
A2
10
0.76659
20
3.06649
30
-6.81756
11
0.89685
21
3.10322
31
-6.84093
12
0.94330
22
2.94277
32
-6.83250
13
0.81290
23
2.90871
33
-6.80582
0
3DFACE
8
A2
10
0.89685
20
3.10322
30
-6.84093
11
1.02711
21
3.13977
31
-6.86452
12
1.07362
22
2.97838
32
-6.85727
13
0.94330
23
2.94277
33
-6.83250
0
3DFACE
8
A2
10
1.02711
20
3.13977
30
-6.86452
11
1.15746
21
3.17487
31
-6.88992
12
1.20401
22
3.01244
32
-6.88395
13
1.07362
23
2.97838
33
-6.85727
0
3DFACE
8
A2
10
1.15746
20
3.17487
30
-6.88992
11
1.28798
21
3.20669
31
-6.91939
12
1.33456
22
3.04375
32
-6.91406
13
1.20401
23
3.01244
33
-6.88395
0
3DFACE
8
A2
10
1.28798
20
3.20669
30
-6.91939
11
1.41864
21
3.23594
31
-6.95207
12
1.46497
22
3.07764
32
-6.94097
13
1.33456
23
3.04375
33
-6.91406
0
3DFACE
8
A2
10
1.41864
20
3.23594
30
-6.95207
11
1.54912
21
3.26846
31
-6.98068
12
1.59528
22
3.11343
32
-6.96551
13
1.46497
23
3.07764
33
-6.94097
0
3DFACE
8
A2
10
1.54912
20
3.26846
30
-6.98068
11
1.67938
21
3.30510
31
-7.00416
12
1.72538
22
3.15308
32
-6.98525
13
1.59528
23
3.11343
33
-6.96551
0
3DFACE
8
A2
10
1.67938
20
3.30510
30
-7.00416
11
1.80956
21
3.34320
31
-7.02582
12
1.85547
22
3.19299
32
-7.00466
13
1.72538
23
3.15308
33
-6.98525
0
3DFACE
8
A2
10
1.80956
20
3.34320
30
-7.02582
11
1.93977
21
3.38079
31
-7.04812
12
1.98555
22
3.23290
32
-7.02407
13
1.85547
23
3.19299
33
-7.00466
0
3DFACE
8
A2
10
1.93977
20
3.38079
30
-7.04812
11
2.06993
21
3.41933
31
-7.06924
12
2.11565
22
3.27255
32
-7.04380
13
1.98555
23
3.23290
33
-7.02407
0
3DFACE
8
A2
10
2.06993
20
3.41933
30
-7.06924
11
2.20012
21
3.45743
31
-7.09090
12
2.24579
22
3.31143
32
-7.06450
13
2.11565
23
3.27255
33
-7.04380
0
3DFACE
8
A2
10
2.20012
20
3.45743
30
-7.09090
11
2.33030
21
3.49545
31
-7.11267
12
2.37595
22
3.35005
32
-7.08552
13
2.24579
23
3.31143
33
-7.06450
0
3DFACE
8
A2
10
2.33030
20
3.49545
30
-7.11267
11
2.46054
21
3.53261
31
-7.13550
12
2.50615
22
3.38789
32
-7.10749
13
2.37595
23
3.35005
33
-7.08552
0
3DFACE
8
A2
10
2.46054
20
3.53261
30
-7.13550
11
2.59077
21
3.56985
31
-7.15823
12
2.63640
22
3.42462
32
-7.13087
13
2.50615
23
3.38789
33
-7.10749
0
3DFACE
8
A2
10
2.59077
20
3.56985
30
-7.15823
11
2.72102
21
3.60675
31
-7.18139
12
2.76673
22
3.46006
32
-7.15584
13
2.63640
23
3.42462
33
-7.13087
0
3DFACE
8
A2
10
2.72102
20
3.60675
30
-7.18139
11
2.85147
21
3.63978
31
-7.20936
12
2.89733
22
3.49034
32
-7.18724
13
2.76673
23
3.46006
33
-7.15584
0
3DFACE
8
A2
10
2.85147
20
3.63978
30
-7.20936
11
2.98195
21
3.67238
31
-7.23786
12
3.02797
22
3.52002
32
-7.21938
13
2.89733
23
3.49034
33
-7.18724
0
3DFACE
8
A2
10
2.98195
20
3.67238
30
-7.23786
11
3.11242
21
3.70515
31
-7.26616
12
3.15859
22
3.54987
32
-7.25131
13
3.02797
23
3.52002
33
-7.21938
0
3DFACE
8
A2
10
3.11242
20
3.70515
30
-7.26616
11
3.24289
21
3.73793
31
-7.29445
12
3.28920
22
3.58006
32
-7.28281
13
3.15859
23
3.54987
33
-7.25131
0
3DFACE
8
A2
10
3.24289
20
3.73793
30
-7.29445
11
3.37340
21
3.76984
31
-7.32381
12
3.41975
22
3.61128
32
-7.31303
13
3.28920
23
3.58006
33
-7.28281
0
3DFACE
8
A2
10
3.37340
20
3.76984
30
-7.32381
11
3.50371
21
3.80554
31
-7.34846
12
3.55006
22
3.64698
32
-7.33768
13
3.41975
23
3.61128
33
-7.31303
0
3DFACE
8
A2
10
3.50371
20
3.80554
30
-7.34846
11
3.63403
21
3.84123
31
-7.37312
12
3.68038
22
3.68268
32
-7.36234
13
3.55006
23
3.64698
33
-7.33768
0
3DFACE
8
A2
10
3.63403
20
3.84123
30
-7.37312
11
3.76434
21
3.87693
31
-7.39777
12
3.81069
22
3.71837
32
-7.38699
13
3.68038
23
3.68268
33
-7.36234
0
3DFACE
8
A2
10
3.76434
20
3.87693
30
-7.39777
11
3.89465
21
3.91263
31
-7.42243
12
3.94100
22
3.75407
32
-7.41165
13
3.81069
23
3.71837
33
-7.38699
0
3DFACE
8
A2
10
3.89465
20
3.91263
30
-7.42243
11
4.02496
21
3.94832
31
-7.44708
12
4.07131
22
3.78977
32
-7.43630
13
3.94100
23
3.75407
33
-7.41165
0
3DFACE
8
A2
10
4.02496
20
3.94832
30
-7.44708
11
4.15527
21
3.98419
31
-7.47152
12
4.20162
22
3.82563
32
-7.46074
13
4.07131
23
3.78977
33
-7.43630
0
3DFACE
8
A2
10
4.15527
20
3.98419
30
-7.47152
11
4.28556
21
4.02023
31
-7.49575
12
4.33192
22
3.86159
32
-7.48508
13
4.20162
23
3.82563
33
-7.46074
0
3DFACE
8
A2
10
-2.83456
20
1.88522
30
-6.14534
11
-2.70408
21
1.91790
31
-6.17374
12
-2.65777
22
1.76003
32
-6.16210
13
-2.78826
23
1.72769
33
-6.13328
0
3DFACE
8
A2
10
-2.70408
20
1.91790
30
-6.17374
11
-2.57361
21
1.95059
31
-6.20214
12
-2.52725
22
1.79177
32
-6.19168
13
-2.65777
23
1.76003
33
-6.16210
0
3DFACE
8
A2
10
-2.57361
20
1.95059
30
-6.20214
11
-2.44317
21
1.98388
31
-6.22979
12
-2.39674
22
1.82377
32
-6.22094
13
-2.52725
23
1.79177
33
-6.19168
0
3DFACE
8
A2
10
-2.44317
20
1.98388
30
-6.22979
11
-2.31288
21
2.02001
31
-6.25391
12
-2.26637
22
1.85844
32
-6.24687
13
-2.39674
23
1.82377
33
-6.22094
0
3DFACE
8
A2
10
-2.31288
20
2.02001
30
-6.25391
11
-2.18276
21
2.05923
31
-6.27418
12
-2.13620
22
1.89689
32
-6.26810
13
-2.26637
23
1.85844
33
-6.24687
0
3DFACE
8
A2
10
-2.18276
20
2.05923
30
-6.27418
11
-2.05278
21
2.10111
31
-6.29113
12
-2.00623
22
1.93895
32
-6.28484
13
-2.13620
23
1.89689
33
-6.26810
0
3DFACE
8
A2
10
-2.05278
20
2.10111
30
-6.29113
11
-1.92294
21
2.14567
31
-6.30476
12
-1.87644
22
1.98427
32
-6.29751
13
-2.00623
23
1.93895
33
-6.28484
0
3DFACE
8
A2
10
-1.92294
20
2.14567
30
-6.30476
11
-1.79324
21
2.19280
31
-6.31519
12
-1.74679
22
2.03244
32
-6.30665
13
-1.87644
23
1.98427
33
-6.29751
0
3DFACE
8
A2
10
-1.79324
20
2.19280
30
-6.31519
11
-1.66342
21
2.23770
31
-6.32839
12
-1.61700
22
2.07785
32
-6.31922
13
-1.74679
23
2.03244
33
-6.30665
0
3DFACE
8
A2
10
-1.66342
20
2.23770
30
-6.32839
11
-1.53347
21
2.28010
31
-6.34470
12
-1.48705
22
2.12017
32
-6.33563
13
-1.61700
23
2.07785
33
-6.31922
0
3DFACE
8
A2
10
-1.53347
20
2.28010
30
-6.34470
11
-1.40335
21
2.31941
31
-6.36486
12
-1.35689
22
2.15879
32
-6.35665
13
-1.48705
23
2.12017
33
-6.33563
0
3DFACE
8
A2
10
-1.40335
20
2.31941
30
-6.36486
11
-1.27303
21
2.35502
31
-6.38963
12
-1.22651
22
2.19328
32
-6.38280
13
-1.35689
23
2.15879
33
-6.35665
0
3DFACE
8
A2
10
-1.27303
20
2.35502
30
-6.38963
11
-1.14246
21
2.38590
31
-6.42027
12
-1.09588
22
2.22304
32
-6.41484
13
-1.22651
23
2.19328
33
-6.38280
0
3DFACE
8
A2
10
-1.14246
20
2.38590
30
-6.42027
11
-1.01183
21
2.41566
31
-6.45231
12
-0.96536
22
2.25487
32
-6.44431
13
-1.09588
23
2.22304
33
-6.41484
0
3DFACE
8
A2
10
-1.01183
20
2.41566
30
-6.45231
11
-0.88140
21
2.44912
31
-6.47974
12
-0.83502
22
2.29005
32
-6.46961
13
-0.96536
23
2.25487
33
-6.44431
0
3DFACE
8
A2
10
-0.88140
20
2.44912
30
-6.47974
11
-0.75093
21
2.48181
31
-6.50814
12
-0.70456
22
2.32291
32
-6.49779
13
-0.83502
23
2.29005
33
-6.46961
0
3DFACE
8
A2
10
-0.75093
20
2.48181
30
-6.50814
11
-0.62059
21
2.51708
31
-6.53333
12
-0.57426
22
2.35886
32
-6.52213
13
-0.70456
23
2.32291
33
-6.49779
0
3DFACE
8
A2
10
-0.62059
20
2.51708
30
-6.53333
11
-0.49030
21
2.55320
31
-6.55745
12
-0.44404
22
2.39619
32
-6.54475
13
-0.57426
23
2.35886
33
-6.52213
0
3DFACE
8
A2
10
-0.49030
20
2.55320
30
-6.55745
11
-0.36011
21
2.59114
31
-6.57933
12
-0.31375
22
2.43241
32
-6.56876
13
-0.44404
23
2.39619
33
-6.54475
0
3DFACE
8
A2
10
-0.36011
20
2.59114
30
-6.57933
11
-0.22978
21
2.62640
31
-6.60452
12
-0.18333
22
2.46612
32
-6.59587
13
-0.31375
23
2.43241
33
-6.56876
0
3DFACE
8
A2
10
-0.22978
20
2.62640
30
-6.60452
11
-0.09952
21
2.66322
31
-6.62778
12
-0.05309
22
2.50311
32
-6.61892
13
-0.18333
23
2.46612
33
-6.59587
0
3DFACE
8
A2
10
-0.09952
20
2.66322
30
-6.62778
11
0.03078
21
2.69908
31
-6.65222
12
0.07722
22
2.53889
32
-6.64347
13
-0.05309
23
2.50311
33
-6.61892
0
3DFACE
8
A2
10
0.03078
20
2.69908
30
-6.65222
11
0.16100
21
2.73650
31
-6.67473
12
0.20744
22
2.57622
32
-6.66609
13
0.07722
23
2.53889
33
-6.64347
0
3DFACE
8
A2
10
0.16100
20
2.73650
30
-6.67473
11
0.29128
21
2.77288
31
-6.69853
12
0.33772
22
2.61261
32
-6.68989
13
0.20744
23
2.57622
33
-6.66609
0
3DFACE
8
A2
10
0.29128
20
2.77288
30
-6.69853
11
0.42179
21
2.80480
31
-6.72789
12
0.46822
22
2.64469
32
-6.71904
13
0.33772
23
2.61261
33
-6.68989
0
3DFACE
8
A2
10
0.42179
20
2.80480
30
-6.72789
11
0.55220
21
2.83860
31
-6.75490
12
0.59868
22
2.67772
32
-6.74701
13
0.46822
23
2.64469
33
-6.71904
0
3DFACE
8
A2
10
0.55220
20
2.83860
30
-6.75490
11
0.68248
21
2.87507
31
-6.77859
12
0.72888
22
2.71557
32
-6.76899
13
0.59868
23
2.67772
33
-6.74701
0
3DFACE
8
A2
10
0.68248
20
2.87507
30
-6.77859
11
0.81290
21
2.90871
31
-6.80582
12
0.85923
22
2.75041
32
-6.79472
13
0.72888
23
2.71557
33
-6.76899
0
3DFACE
8
A2
10
0.81290
20
2.90871
30
-6.80582
11
0.94330
21
2.94277
31
-6.83250
12
0.98980
22
2.78129
32
-6.82536
13
0.85923
23
2.75041
33
-6.79472
0
3DFACE
8
A2
10
0.94330
20
2.94277
30
-6.83250
11
1.07362
21
2.97838
31
-6.85727
12
1.12019
22
2.81561
32
-6.85173
13
0.98980
23
2.78129
33
-6.82536
0
3DFACE
8
A2
10
1.07362
20
2.97838
30
-6.85727
11
1.20401
21
3.01244
31
-6.88395
12
1.25057
22
2.85010
32
-6.87788
13
1.12019
23
2.81561
33
-6.85173
0
3DFACE
8
A2
10
1.20401
20
3.01244
30
-6.88395
11
1.33456
21
3.04375
31
-6.91406
12
1.38120
22
2.87986
32
-6.90992
13
1.25057
23
2.85010
33
-6.87788
0
3DFACE
8
A2
10
1.33456
20
3.04375
30
-6.91406
11
1.46497
21
3.07764
31
-6.94097
12
1.51168
22
2.91247
32
-6.93842
13
1.38120
23
2.87986
33
-6.90992
0
3DFACE
8
A2
10
1.46497
20
3.07764
30
-6.94097
11
1.59528
21
3.11343
31
-6.96551
12
1.64180
22
2.95169
32
-6.95869
13
1.51168
23
2.91247
33
-6.93842
0
3DFACE
8
A2
10
1.59528
20
3.11343
30
-6.96551
11
1.72538
21
3.15308
31
-6.98525
12
1.77182
22
2.99280
32
-6.97661
13
1.64180
23
2.95169
33
-6.95869
0
3DFACE
8
A2
10
1.72538
20
3.15308
30
-6.98525
11
1.85547
21
3.19299
31
-7.00466
12
1.90184
22
3.03391
32
-6.99452
13
1.77182
23
2.99280
33
-6.97661
0
3DFACE
8
A2
10
1.85547
20
3.19299
30
-7.00466
11
1.98555
21
3.23290
31
-7.02407
12
2.03186
22
3.07503
32
-7.01243
13
1.90184
23
3.03391
33
-6.99452
0
3DFACE
8
A2
10
1.98555
20
3.23290
30
-7.02407
11
2.11565
21
3.27255
31
-7.04380
12
2.16189
22
3.11605
32
-7.03045
13
2.03186
23
3.07503
33
-7.01243
0
3DFACE
8
A2
10
2.11565
20
3.27255
30
-7.04380
11
2.24579
21
3.31143
31
-7.06450
12
2.29192
22
3.15708
32
-7.04848
13
2.16189
23
3.11605
33
-7.03045
0
3DFACE
8
A2
10
2.24579
20
3.31143
30
-7.06450
11
2.37595
21
3.35005
31
-7.08552
12
2.42197
22
3.19768
32
-7.06703
13
2.29192
23
3.15708
33
-7.04848
0
3DFACE
8
A2
10
2.37595
20
3.35005
30
-7.08552
11
2.50615
21
3.38789
31
-7.10749
12
2.55205
22
3.23768
32
-7.08634
13
2.42197
23
3.19768
33
-7.06703
0
3DFACE
8
A2
10
2.50615
20
3.38789
30
-7.10749
11
2.63640
21
3.42462
31
-7.13087
12
2.68216
22
3.27716
32
-7.10628
13
2.55205
23
3.23768
33
-7.08634
0
3DFACE
8
A2
10
2.63640
20
3.42462
30
-7.13087
11
2.76673
21
3.46006
31
-7.15584
12
2.81237
22
3.31466
32
-7.12869
13
2.68216
23
3.27716
33
-7.10628
0
3DFACE
8
A2
10
2.76673
20
3.46006
30
-7.15584
11
2.89733
21
3.49034
31
-7.18724
12
2.94310
22
3.34270
32
-7.16287
13
2.81237
23
3.31466
33
-7.12869
0
3DFACE
8
A2
10
2.89733
20
3.49034
30
-7.18724
11
3.02797
21
3.52002
31
-7.21938
12
3.07384
22
3.37040
32
-7.19747
13
2.94310
23
3.34270
33
-7.16287
0
3DFACE
8
A2
10
3.02797
20
3.52002
30
-7.21938
11
3.15859
21
3.54987
31
-7.25131
12
3.20460
22
3.39767
32
-7.23261
13
3.07384
23
3.37040
33
-7.19747
0
3DFACE
8
A2
10
3.15859
20
3.54987
30
-7.25131
11
3.28920
21
3.58006
31
-7.28281
12
3.33538
22
3.42460
32
-7.26818
13
3.20460
23
3.39767
33
-7.23261
0
3DFACE
8
A2
10
3.28920
20
3.58006
30
-7.28281
11
3.41975
21
3.61128
31
-7.31303
12
3.46610
22
3.45273
32
-7.30225
13
3.33538
23
3.42460
33
-7.26818
0
3DFACE
8
A2
10
3.41975
20
3.61128
30
-7.31303
11
3.55006
21
3.64698
31
-7.33768
12
3.59641
22
3.48842
32
-7.32690
13
3.46610
23
3.45273
33
-7.30225
0
3DFACE
8
A2
10
3.55006
20
3.64698
30
-7.33768
11
3.68038
21
3.68268
31
-7.36234
12
3.72673
22
3.52412
32
-7.35156
13
3.59641
23
3.48842
33
-7.32690
0
3DFACE
8
A2
10
3.68038
20
3.68268
30
-7.36234
11
3.81069
21
3.71837
31
-7.38699
12
3.85704
22
3.55982
32
-7.37621
13
3.72673
23
3.52412
33
-7.35156
0
3DFACE
8
A2
10
3.81069
20
3.71837
30
-7.38699
11
3.94100
21
3.75407
31
-7.41165
12
3.98735
22
3.59551
32
-7.40087
13
3.85704
23
3.55982
33
-7.37621
0
3DFACE
8
A2
10
3.94100
20
3.75407
30
-7.41165
11
4.07131
21
3.78977
31
-7.43630
12
4.11766
22
3.63121
32
-7.42552
13
3.98735
23
3.59551
33
-7.40087
0
3DFACE
8
A2
10
4.07131
20
3.78977
30
-7.43630
11
4.20162
21
3.82563
31
-7.46074
12
4.24797
22
3.66708
32
-7.44996
13
4.11766
23
3.63121
33
-7.42552
0
3DFACE
8
A2
10
4.20162
20
3.82563
30
-7.46074
11
4.33192
21
3.86159
31
-7.48508
12
4.37826
22
3.70303
32
-7.47430
13
4.24797
23
3.66708
33
-7.44996
0
3DFACE
8
A2
10
-2.78826
20
1.72769
30
-6.13328
11
-2.65777
21
1.76003
31
-6.16210
12
-2.61141
22
1.60130
32
-6.15154
13
-2.74190
23
1.56888
33
-6.12282
0
3DFACE
8
A2
10
-2.65777
20
1.76003
30
-6.16210
11
-2.52725
21
1.79177
31
-6.19168
12
-2.48088
22
1.63287
32
-6.18133
13
-2.61141
23
1.60130
33
-6.15154
0
3DFACE
8
A2
10
-2.52725
20
1.79177
30
-6.19168
11
-2.39674
21
1.82377
31
-6.22094
12
-2.35032
22
1.66401
32
-6.21165
13
-2.48088
23
1.63287
33
-6.18133
0
3DFACE
8
A2
10
-2.39674
20
1.82377
30
-6.22094
11
-2.26637
21
1.85844
31
-6.24687
12
-2.21994
22
1.69842
32
-6.23791
13
-2.35032
23
1.66401
33
-6.21165
0
3DFACE
8
A2
10
-2.26637
20
1.85844
30
-6.24687
11
-2.13620
21
1.89689
31
-6.26810
12
-2.08975
22
1.73644
32
-6.25968
13
-2.21994
23
1.69842
33
-6.23791
0
3DFACE
8
A2
10
-2.13620
20
1.89689
30
-6.26810
11
-2.00623
21
1.93895
31
-6.28484
12
-1.95979
22
1.77858
32
-6.27631
13
-2.08975
23
1.73644
33
-6.25968
0
3DFACE
8
A2
10
-2.00623
20
1.93895
30
-6.28484
11
-1.87644
21
1.98427
31
-6.29751
12
-1.83002
22
1.82451
32
-6.28823
13
-1.95979
23
1.77858
33
-6.27631
0
3DFACE
8
A2
10
-1.87644
20
1.98427
30
-6.29751
11
-1.74679
21
2.03244
31
-6.30665
12
-1.70043
22
1.87362
32
-6.29619
13
-1.83002
23
1.82451
33
-6.28823
0
3DFACE
8
A2
10
-1.74679
20
2.03244
30
-6.30665
11
-1.61700
21
2.07785
31
-6.31922
12
-1.57069
22
1.91998
32
-6.30758
13
-1.70043
23
1.87362
33
-6.29619
0
3DFACE
8
A2
10
-1.61700
20
2.07785
30
-6.31922
11
-1.48705
21
2.12017
31
-6.33563
12
-1.44078
22
1.96316
32
-6.32293
13
-1.57069
23
1.91998
33
-6.30758
0
3DFACE
8
A2
10
-1.48705
20
2.12017
30
-6.33563
11
-1.35689
21
2.15879
31
-6.35665
12
-1.31068
22
2.00281
32
-6.34266
13
-1.44078
23
1.96316
33
-6.32293
0
3DFACE
8
A2
10
-1.35689
20
2.15879
30
-6.35665
11
-1.22651
21
2.19328
31
-6.38280
12
-1.18039
22
2.03885
32
-6.36689
13
-1.31068
23
2.00281
33
-6.34266
0
3DFACE
8
A2
10
-1.22651
20
2.19328
30
-6.38280
11
-1.09588
21
2.22304
31
-6.41484
12
-1.04985
22
2.07042
32
-6.39668
13
-1.18039
23
2.03885
33
-6.36689
0
3DFACE
8
A2
10
-1.09588
20
2.22304
30
-6.41484
11
-0.96536
21
2.25487
31
-6.44431
12
-0.91940
22
2.10345
32
-6.42465
13
-1.04985
23
2.07042
33
-6.39668
0
3DFACE
8
A2
10
-0.96536
20
2.25487
30
-6.44431
11
-0.83502
21
2.29005
31
-6.46961
12
-0.78896
22
2.13674
32
-6.45230
13
-0.91940
23
2.10345
33
-6.42465
0
3DFACE
8
A2
10
-0.83502
20
2.29005
30
-6.46961
11
-0.70456
21
2.32291
31
-6.49779
12
-0.65838
22
2.16753
32
-6.48305
13
-0.78896
23
2.13674
33
-6.45230
0
3DFACE
8
A2
10
-0.70456
20
2.32291
30
-6.49779
11
-0.57426
21
2.35886
31
-6.52213
12
-0.52796
22
2.20125
32
-6.51017
13
-0.65838
23
2.16753
33
-6.48305
0
3DFACE
8
A2
10
-0.57426
20
2.35886
30
-6.52213
11
-0.44404
21
2.39619
31
-6.54475
12
-0.39759
22
2.23583
32
-6.53621
13
-0.52796
23
2.20125
33
-6.51017
0
3DFACE
8
A2
10
-0.44404
20
2.39619
30
-6.54475
11
-0.31375
21
2.43241
31
-6.56876
12
-0.26717
22
2.26955
32
-6.56333
13
-0.39759
23
2.23583
33
-6.53621
0
3DFACE
8
A2
10
-0.31375
20
2.43241
30
-6.56876
11
-0.18333
21
2.46612
31
-6.59587
12
-0.13675
22
2.30318
32
-6.59055
13
-0.26717
23
2.26955
33
-6.56333
0
3DFACE
8
A2
10
-0.18333
20
2.46612
30
-6.59587
11
-0.05309
21
2.50311
31
-6.61892
12
-0.00649
22
2.33991
32
-6.61392
13
-0.13675
23
2.30318
33
-6.59055
0
3DFACE
8
A2
10
-0.05309
20
2.50311
30
-6.61892
11
0.07722
21
2.53889
31
-6.64347
12
0.12384
22
2.37518
32
-6.63911
13
-0.00649
23
2.33991
33
-6.61392
0
3DFACE
8
A2
10
0.07722
20
2.53889
30
-6.64347
11
0.20744
21
2.57622
31
-6.66609
12
0.25412
22
2.41165
32
-6.66280
13
0.12384
23
2.37518
33
-6.63911
0
3DFACE
8
A2
10
0.20744
20
2.57622
30
-6.66609
11
0.33772
21
2.61261
31
-6.68989
12
0.38445
22
2.44700
32
-6.68788
13
0.25412
23
2.41165
33
-6.66280
0
3DFACE
8
A2
10
0.33772
20
2.61261
30
-6.68989
11
0.46822
21
2.64469
31
-6.71904
12
0.51495
22
2.47917
32
-6.71693
13
0.38445
23
2.44700
33
-6.68788
0
3DFACE
8
A2
10
0.46822
20
2.64469
30
-6.71904
11
0.59868
21
2.67772
31
-6.74701
12
0.64543
22
2.51169
32
-6.74554
13
0.51495
23
2.47917
33
-6.71693
0
3DFACE
8
A2
10
0.59868
20
2.67772
30
-6.74701
11
0.72888
21
2.71557
31
-6.76899
12
0.77576
22
2.54704
32
-6.77062
13
0.64543
23
2.51169
33
-6.74554
0
3DFACE
8
A2
10
0.72888
20
2.71557
30
-6.76899
11
0.85923
21
2.75041
31
-6.79472
12
0.90614
22
2.58153
32
-6.79677
13
0.77576
23
2.54704
33
-6.77062
0
3DFACE
8
A2
10
0.85923
20
2.75041
30
-6.79472
11
0.98980
21
2.78129
31
-6.82536
12
1.03683
22
2.61018
32
-6.83020
13
0.90614
23
2.58153
33
-6.79677
0
3DFACE
8
A2
10
0.98980
20
2.78129
30
-6.82536
11
1.12019
21
2.81561
31
-6.85173
12
1.16730
22
2.64286
32
-6.85860
13
1.03683
23
2.61018
33
-6.83020
0
3DFACE
8
A2
10
1.12019
20
2.81561
30
-6.85173
11
1.25057
21
2.85010
31
-6.87788
12
1.29771
22
2.67675
32
-6.88550
13
1.16730
23
2.64286
33
-6.85860
0
3DFACE
8
A2
10
1.25057
20
2.85010
30
-6.87788
11
1.38120
21
2.87986
31
-6.90992
12
1.42825
22
2.70824
32
-6.91540
13
1.29771
23
2.67675
33
-6.88550
0
3DFACE
8
A2
10
1.38120
20
2.87986
30
-6.90992
11
1.51168
21
2.91247
31
-6.93842
12
1.55872
22
2.74101
32
-6.94369
13
1.42825
23
2.70824
33
-6.91540
0
3DFACE
8
A2
10
1.51168
20
2.91247
30
-6.93842
11
1.64180
21
2.95169
31
-6.95869
12
1.68871
22
2.78273
32
-6.96086
13
1.55872
23
2.74101
33
-6.94369
0
3DFACE
8
A2
10
1.64180
20
2.95169
30
-6.95869
11
1.77182
21
2.99280
31
-6.97661
12
1.81867
22
2.82504
32
-6.97727
13
1.68871
23
2.78273
33
-6.96086
0
3DFACE
8
A2
10
1.77182
20
2.99280
30
-6.97661
11
1.90184
21
3.03391
31
-6.99452
12
1.94863
22
2.86727
32
-6.99380
13
1.81867
23
2.82504
33
-6.97727
0
3DFACE
8
A2
10
1.90184
20
3.03391
30
-6.99452
11
2.03186
21
3.07503
31
-7.01243
12
2.07860
22
2.90925
32
-7.01064
13
1.94863
23
2.86727
33
-6.99380
0
3DFACE
8
A2
10
2.03186
20
3.07503
30
-7.01243
11
2.16189
21
3.11605
31
-7.03045
12
2.20858
22
2.95113
32
-7.02759
13
2.07860
23
2.90925
33
-7.01064
0
3DFACE
8
A2
10
2.16189
20
3.11605
30
-7.03045
11
2.29192
21
3.15708
31
-7.04848
12
2.33854
22
2.99337
32
-7.04411
13
2.20858
23
2.95113
33
-7.02759
0
3DFACE
8
A2
10
2.29192
20
3.15708
30
-7.04848
11
2.42197
21
3.19768
31
-7.06703
12
2.46853
22
3.03517
32
-7.06117
13
2.33854
23
2.99337
33
-7.04411
0
3DFACE
8
A2
10
2.42197
20
3.19768
30
-7.06703
11
2.55205
21
3.23768
31
-7.08634
12
2.59855
22
3.07619
32
-7.07919
13
2.46853
23
3.03517
33
-7.06117
0
3DFACE
8
A2
10
2.55205
20
3.23768
30
-7.08634
11
2.68216
21
3.27716
31
-7.10628
12
2.72866
22
3.11567
32
-7.09914
13
2.59855
23
3.07619
33
-7.07919
0
3DFACE
8
A2
10
2.68216
20
3.27716
30
-7.10628
11
2.81237
21
3.31466
31
-7.12869
12
2.85877
22
3.15515
32
-7.11909
13
2.72866
23
3.11567
33
-7.09914
0
3DFACE
8
A2
10
2.81237
20
3.31466
30
-7.12869
11
2.94310
21
3.34270
31
-7.16287
12
2.98947
22
3.18363
32
-7.15273
13
2.85877
23
3.15515
33
-7.11909
0
3DFACE
8
A2
10
2.94310
20
3.34270
30
-7.16287
11
3.07384
21
3.37040
31
-7.19747
12
3.12020
22
3.21150
32
-7.18712
13
2.98947
23
3.18363
33
-7.15273
0
3DFACE
8
A2
10
3.07384
20
3.37040
30
-7.19747
11
3.20460
21
3.39767
31
-7.23261
12
3.25096
22
3.23903
32
-7.22194
13
3.12020
23
3.21150
33
-7.18712
0
3DFACE
8
A2
10
3.20460
20
3.39767
30
-7.23261
11
3.33538
21
3.42460
31
-7.26818
12
3.38168
22
3.26707
32
-7.25612
13
3.25096
23
3.23903
33
-7.22194
0
3DFACE
8
A2
10
3.33538
20
3.42460
30
-7.26818
11
3.46610
21
3.45273
31
-7.30225
12
3.51246
22
3.29408
32
-7.29158
13
3.38168
23
3.26707
33
-7.25612
0
3DFACE
8
A2
10
3.46610
20
3.45273
30
-7.30225
11
3.59641
21
3.48842
31
-7.32690
12
3.64277
22
3.32978
32
-7.31623
13
3.51246
23
3.29408
33
-7.29158
0
3DFACE
8
A2
10
3.59641
20
3.48842
30
-7.32690
11
3.72673
21
3.52412
31
-7.35156
12
3.77308
22
3.36548
32
-7.34088
13
3.64277
23
3.32978
33
-7.31623
0
3DFACE
8
A2
10
3.72673
20
3.52412
30
-7.35156
11
3.85704
21
3.55982
31
-7.37621
12
3.90339
22
3.40117
32
-7.36554
13
3.77308
23
3.36548
33
-7.34088
0
3DFACE
8
A2
10
3.85704
20
3.55982
30
-7.37621
11
3.98735
21
3.59551
31
-7.40087
12
4.03371
22
3.43687
32
-7.39019
13
3.90339
23
3.40117
33
-7.36554
0
3DFACE
8
A2
10
3.98735
20
3.59551
30
-7.40087
11
4.11766
21
3.63121
31
-7.42552
12
4.16401
22
3.47265
32
-7.41474
13
4.03371
23
3.43687
33
-7.39019
0
3DFACE
8
A2
10
4.11766
20
3.63121
30
-7.42552
11
4.24797
21
3.66708
31
-7.44996
12
4.29432
22
3.50843
32
-7.43929
13
4.16401
23
3.47265
33
-7.41474
0
3DFACE
8
A2
10
4.24797
20
3.66708
30
-7.44996
11
4.37826
21
3.70303
31
-7.47430
12
4.42461
22
3.54447
32
-7.46352
13
4.29432
23
3.50843
33
-7.43929
0
3DFACE
8
A2
10
-2.74190
20
1.56888
30
-6.12282
11
-2.61141
21
1.60130
31
-6.15154
12
-2.56500
22
1.44163
32
-6.14215
13
-2.69546
23
1.40860
33
-6.11418
0
3DFACE
8
A2
10
-2.61141
20
1.60130
30
-6.15154
11
-2.48088
21
1.63287
31
-6.18133
12
-2.43448
22
1.47346
32
-6.17162
13
-2.56500
23
1.44163
33
-6.14215
0
3DFACE
8
A2
10
-2.48088
20
1.63287
30
-6.18133
11
-2.35032
21
1.66401
31
-6.21165
12
-2.30392
22
1.50442
32
-6.20216
13
-2.43448
23
1.47346
33
-6.17162
0
3DFACE
8
A2
10
-2.35032
20
1.66401
30
-6.21165
11
-2.21994
21
1.69842
31
-6.23791
12
-2.17354
22
1.53900
32
-6.22820
13
-2.30392
23
1.50442
33
-6.20216
0
3DFACE
8
A2
10
-2.21994
20
1.69842
30
-6.23791
11
-2.08975
21
1.73644
31
-6.25968
12
-2.04336
22
1.57711
32
-6.24986
13
-2.17354
23
1.53900
33
-6.22820
0
3DFACE
8
A2
10
-2.08975
20
1.73644
30
-6.25968
11
-1.95979
21
1.77858
31
-6.27631
12
-1.91338
22
1.61899
32
-6.26681
13
-2.04336
23
1.57711
33
-6.24986
0
3DFACE
8
A2
10
-1.95979
20
1.77858
30
-6.27631
11
-1.83002
21
1.82451
31
-6.28823
12
-1.78361
22
1.66475
32
-6.27895
13
-1.91338
23
1.61899
33
-6.26681
0
3DFACE
8
A2
10
-1.83002
20
1.82451
30
-6.28823
11
-1.70043
21
1.87362
31
-6.29619
12
-1.65404
22
1.71429
32
-6.28638
13
-1.78361
23
1.66475
33
-6.27895
0
3DFACE
8
A2
10
-1.70043
20
1.87362
30
-6.29619
11
-1.57069
21
1.91998
31
-6.30758
12
-1.52431
22
1.76082
32
-6.29755
13
-1.65404
23
1.71429
33
-6.28638
0
3DFACE
8
A2
10
-1.57069
20
1.91998
30
-6.30758
11
-1.44078
21
1.96316
31
-6.32293
12
-1.39442
22
1.80434
32
-6.31247
13
-1.52431
23
1.76082
33
-6.29755
0
3DFACE
8
A2
10
-1.44078
20
1.96316
30
-6.32293
11
-1.31068
21
2.00281
31
-6.34266
12
-1.26435
22
1.84460
32
-6.33145
13
-1.39442
23
1.80434
33
-6.31247
0
3DFACE
8
A2
10
-1.31068
20
2.00281
30
-6.34266
11
-1.18039
21
2.03885
31
-6.36689
12
-1.13408
22
1.88115
32
-6.35504
13
-1.26435
23
1.84460
33
-6.33145
0
3DFACE
8
A2
10
-1.18039
20
2.03885
30
-6.36689
11
-1.04985
21
2.07042
31
-6.39668
12
-1.00355
22
1.91281
32
-6.38472
13
-1.13408
23
1.88115
33
-6.35504
0
3DFACE
8
A2
10
-1.04985
20
2.07042
30
-6.39668
11
-0.91940
21
2.10345
31
-6.42465
12
-0.87301
22
1.94420
32
-6.41472
13
-1.00355
23
1.91281
33
-6.38472
0
3DFACE
8
A2
10
-0.91940
20
2.10345
30
-6.42465
11
-0.78896
21
2.13674
31
-6.45230
12
-0.74249
22
1.97595
32
-6.44430
13
-0.87301
23
1.94420
33
-6.41472
0
3DFACE
8
A2
10
-0.78896
20
2.13674
30
-6.45230
11
-0.65838
21
2.16753
31
-6.48305
12
-0.61183
22
2.00528
32
-6.47687
13
-0.74249
23
1.97595
33
-6.44430
0
3DFACE
8
A2
10
-0.65838
20
2.16753
30
-6.48305
11
-0.52796
21
2.20125
31
-6.51017
12
-0.48133
22
2.03745
32
-6.50591
13
-0.61183
23
2.00528
33
-6.47687
0
3DFACE
8
A2
10
-0.52796
20
2.20125
30
-6.51017
11
-0.39759
21
2.23583
31
-6.53621
12
-0.35088
22
2.07065
32
-6.53367
13
-0.48133
23
2.03745
33
-6.50591
0
3DFACE
8
A2
10
-0.39759
20
2.23583
30
-6.53621
11
-0.26717
21
2.26955
31
-6.56333
12
-0.22047
22
2.10446
32
-6.56068
13
-0.35088
23
2.07065
33
-6.53367
0
3DFACE
8
A2
10
-0.26717
20
2.26955
30
-6.56333
11
-0.13675
21
2.30318
31
-6.59055
12
-0.09002
22
2.13766
32
-6.58844
13
-0.22047
23
2.10446
33
-6.56068
0
3DFACE
8
A2
10
-0.13675
20
2.30318
30
-6.59055
11
-0.00649
21
2.33991
31
-6.61392
12
0.04029
22
2.17327
32
-6.61320
13
-0.09002
23
2.13766
33
-6.58844
0
3DFACE
8
A2
10
-0.00649
20
2.33991
30
-6.61392
11
0.12384
21
2.37518
31
-6.63911
12
0.17069
22
2.20742
32
-6.63978
13
0.04029
23
2.17327
33
-6.61320
0
3DFACE
8
A2
10
0.12384
20
2.37518
30
-6.63911
11
0.25412
21
2.41165
31
-6.66280
12
0.30104
22
2.24234
32
-6.66540
13
0.17069
23
2.20742
33
-6.63978
0
3DFACE
8
A2
10
0.25412
20
2.41165
30
-6.66280
11
0.38445
21
2.44700
31
-6.68788
12
0.43144
22
2.27640
32
-6.69208
13
0.30104
23
2.24234
33
-6.66540
0
3DFACE
8
A2
10
0.38445
20
2.44700
30
-6.68788
11
0.51495
21
2.47917
31
-6.71693
12
0.56194
22
2.30858
32
-6.72112
13
0.43144
23
2.27640
33
-6.69208
0
3DFACE
8
A2
10
0.51495
20
2.47917
30
-6.71693
11
0.64543
21
2.51169
31
-6.74554
12
0.69245
22
2.34057
32
-6.75038
13
0.56194
23
2.30858
33
-6.72112
0
3DFACE
8
A2
10
0.64543
20
2.51169
30
-6.74554
11
0.77576
21
2.54704
31
-6.77062
12
0.82290
22
2.37386
32
-6.77803
13
0.69245
23
2.34057
33
-6.75038
0
3DFACE
8
A2
10
0.77576
20
2.54704
30
-6.77062
11
0.90614
21
2.58153
31
-6.79677
12
0.95347
22
2.40466
32
-6.80878
13
0.82290
23
2.37386
33
-6.77803
0
3DFACE
8
A2
10
0.90614
20
2.58153
30
-6.79677
11
1.03683
21
2.61018
31
-6.83020
12
1.08423
22
2.43193
32
-6.84392
13
0.95347
23
2.40466
33
-6.80878
0
3DFACE
8
A2
10
1.03683
20
2.61018
30
-6.83020
11
1.16730
21
2.64286
31
-6.85860
12
1.21479
22
2.46315
32
-6.87414
13
1.08423
23
2.43193
33
-6.84392
0
3DFACE
8
A2
10
1.16730
20
2.64286
30
-6.85860
11
1.29771
21
2.67675
31
-6.88550
12
1.34523
22
2.49636
32
-6.90190
13
1.21479
23
2.46315
33
-6.87414
0
3DFACE
8
A2
10
1.29771
20
2.67675
30
-6.88550
11
1.42825
21
2.70824
31
-6.91540
12
1.47569
22
2.52939
32
-6.92987
13
1.34523
23
2.49636
33
-6.90190
0
3DFACE
8
A2
10
1.42825
20
2.70824
30
-6.91540
11
1.55872
21
2.74101
31
-6.94369
12
1.60594
22
2.56620
32
-6.95313
13
1.47569
23
2.52939
33
-6.92987
0
3DFACE
8
A2
10
1.55872
20
2.74101
30
-6.94369
11
1.68871
21
2.78273
31
-6.96086
12
1.73582
22
2.60989
32
-6.96784
13
1.60594
23
2.56620
33
-6.95313
0
3DFACE
8
A2
10
1.68871
20
2.78273
30
-6.96086
11
1.81867
21
2.82504
31
-6.97727
12
1.86571
22
2.65350
32
-6.98265
13
1.73582
23
2.60989
33
-6.96784
0
3DFACE
8
A2
10
1.81867
20
2.82504
30
-6.97727
11
1.94863
21
2.86727
31
-6.99380
12
1.99559
22
2.69719
32
-6.99735
13
1.86571
23
2.65350
33
-6.98265
0
3DFACE
8
A2
10
1.94863
20
2.86727
30
-6.99380
11
2.07860
21
2.90925
31
-7.01064
12
2.12548
22
2.74080
32
-7.01216
13
1.99559
23
2.69719
33
-6.99735
0
3DFACE
8
A2
10
2.07860
20
2.90925
30
-7.01064
11
2.20858
21
2.95113
31
-7.02759
12
2.25537
22
2.78432
32
-7.02708
13
2.12548
23
2.74080
33
-7.01216
0
3DFACE
8
A2
10
2.20858
20
2.95113
30
-7.02759
11
2.33854
21
2.99337
31
-7.04411
12
2.38524
22
2.82827
32
-7.04147
13
2.25537
23
2.78432
33
-7.02708
0
3DFACE
8
A2
10
2.33854
20
2.99337
30
-7.04411
11
2.46853
21
3.03517
31
-7.06117
12
2.51512
22
2.87205
32
-7.05606
13
2.38524
23
2.82827
33
-7.04147
0
3DFACE
8
A2
10
2.46853
20
3.03517
30
-7.06117
11
2.59855
21
3.07619
31
-7.07919
12
2.64502
22
2.91540
32
-7.07119
13
2.51512
23
2.87205
33
-7.05606
0
3DFACE
8
A2
10
2.59855
20
3.07619
30
-7.07919
11
2.72866
21
3.11567
31
-7.09914
12
2.77502
22
2.95703
32
-7.08847
13
2.64502
23
2.91540
33
-7.07119
0
3DFACE
8
A2
10
2.72866
20
3.11567
30
-7.09914
11
2.85877
21
3.15515
31
-7.11909
12
2.90504
22
2.99823
32
-7.10627
13
2.77502
23
2.95703
33
-7.08847
0
3DFACE
8
A2
10
2.85877
20
3.15515
30
-7.11909
11
2.98947
21
3.18363
31
-7.15273
12
3.03570
22
3.02739
32
-7.13906
13
2.90504
23
2.99823
33
-7.10627
0
3DFACE
8
A2
10
2.98947
20
3.18363
30
-7.15273
11
3.12020
21
3.21150
31
-7.18712
12
3.16643
22
3.05518
32
-7.17356
13
3.03570
23
3.02739
33
-7.13906
0
3DFACE
8
A2
10
3.12020
20
3.21150
30
-7.18712
11
3.25096
21
3.23903
31
-7.22194
12
3.29722
22
3.08210
32
-7.20913
13
3.16643
23
3.05518
33
-7.17356
0
3DFACE
8
A2
10
3.25096
20
3.23903
30
-7.22194
11
3.38168
21
3.26707
31
-7.25612
12
3.42799
22
3.10929
32
-7.24437
13
3.29722
23
3.08210
33
-7.20913
0
3DFACE
8
A2
10
3.38168
20
3.26707
30
-7.25612
11
3.51246
21
3.29408
31
-7.29158
12
3.55881
22
3.13553
32
-7.28080
13
3.42799
23
3.10929
33
-7.24437
0
3DFACE
8
A2
10
3.51246
20
3.29408
30
-7.29158
11
3.64277
21
3.32978
31
-7.31623
12
3.68912
22
3.17122
32
-7.30545
13
3.55881
23
3.13553
33
-7.28080
0
3DFACE
8
A2
10
3.64277
20
3.32978
30
-7.31623
11
3.77308
21
3.36548
31
-7.34088
12
3.81943
22
3.20692
32
-7.33010
13
3.68912
23
3.17122
33
-7.30545
0
3DFACE
8
A2
10
3.77308
20
3.36548
30
-7.34088
11
3.90339
21
3.40117
31
-7.36554
12
3.94974
22
3.24262
32
-7.35476
13
3.81943
23
3.20692
33
-7.33010
0
3DFACE
8
A2
10
3.90339
20
3.40117
30
-7.36554
11
4.03371
21
3.43687
31
-7.39019
12
4.08006
22
3.27831
32
-7.37941
13
3.94974
23
3.24262
33
-7.35476
0
3DFACE
8
A2
10
4.03371
20
3.43687
30
-7.39019
11
4.16401
21
3.47265
31
-7.41474
12
4.21037
22
3.31401
32
-7.40407
13
4.08006
23
3.27831
33
-7.37941
0
3DFACE
8
A2
10
4.16401
20
3.47265
30
-7.41474
11
4.29432
21
3.50843
31
-7.43929
12
4.34067
22
3.34988
32
-7.42851
13
4.21037
23
3.31401
33
-7.40407
0
3DFACE
8
A2
10
4.29432
20
3.50843
30
-7.43929
11
4.42461
21
3.54447
31
-7.46352
12
4.47096
22
3.38592
32
-7.45273
13
4.34067
23
3.34988
33
-7.42851
0
3DFACE
8
A2
10
-2.69546
20
1.40860
30
-6.11418
11
-2.56500
21
1.44163
31
-6.14215
12
-2.51860
22
1.28204
32
-6.13265
13
-2.64904
23
1.24875
33
-6.10500
0
3DFACE
8
A2
10
-2.56500
20
1.44163
30
-6.14215
11
-2.43448
21
1.47346
31
-6.17162
12
-2.38810
22
1.31421
32
-6.16169
13
-2.51860
23
1.28204
33
-6.13265
0
3DFACE
8
A2
10
-2.43448
20
1.47346
30
-6.17162
11
-2.30392
21
1.50442
31
-6.20216
12
-2.25754
22
1.34544
32
-6.19191
13
-2.38810
23
1.31421
33
-6.16169
0
3DFACE
8
A2
10
-2.30392
20
1.50442
30
-6.20216
11
-2.17354
21
1.53900
31
-6.22820
12
-2.12718
22
1.38010
32
-6.21785
13
-2.25754
23
1.34544
33
-6.19191
0
3DFACE
8
A2
10
-2.17354
20
1.53900
30
-6.22820
11
-2.04336
21
1.57711
31
-6.24986
12
-1.99700
22
1.41829
32
-6.23940
13
-2.12718
23
1.38010
33
-6.21785
0
3DFACE
8
A2
10
-2.04336
20
1.57711
30
-6.24986
11
-1.91338
21
1.61899
31
-6.26681
12
-1.86702
22
1.46018
32
-6.25635
13
-1.99700
23
1.41829
33
-6.23940
0
3DFACE
8
A2
10
-1.91338
20
1.61899
30
-6.26681
11
-1.78361
21
1.66475
31
-6.27895
12
-1.73723
22
1.50568
32
-6.26881
13
-1.86702
23
1.46018
33
-6.25635
0
3DFACE
8
A2
10
-1.78361
20
1.66475
30
-6.27895
11
-1.65404
21
1.71429
31
-6.28638
12
-1.60766
22
1.55522
32
-6.27624
13
-1.73723
23
1.50568
33
-6.26881
0
3DFACE
8
A2
10
-1.65404
20
1.71429
30
-6.28638
11
-1.52431
21
1.76082
31
-6.29755
12
-1.47792
22
1.60158
32
-6.28763
13
-1.60766
23
1.55522
33
-6.27624
0
3DFACE
8
A2
10
-1.52431
20
1.76082
30
-6.29755
11
-1.39442
21
1.80434
31
-6.31247
12
-1.34802
22
1.64493
32
-6.30276
13
-1.47792
23
1.60158
33
-6.28763
0
3DFACE
8
A2
10
-1.39442
20
1.80434
30
-6.31247
11
-1.26435
21
1.84460
31
-6.33145
12
-1.21794
22
1.68501
32
-6.32196
13
-1.34802
23
1.64493
33
-6.30276
0
3DFACE
8
A2
10
-1.26435
20
1.84460
30
-6.33145
11
-1.13408
21
1.88115
31
-6.35504
12
-1.08766
22
1.72122
32
-6.34597
13
-1.21794
23
1.68501
33
-6.32196
0
3DFACE
8
A2
10
-1.13408
20
1.88115
30
-6.35504
11
-1.00355
21
1.91281
31
-6.38472
12
-0.95708
22
1.75193
32
-6.37683
13
-1.08766
23
1.72122
33
-6.34597
0
3DFACE
8
A2
10
-1.00355
20
1.91281
30
-6.38472
11
-0.87301
21
1.94420
31
-6.41472
12
-0.82649
22
1.78255
32
-6.40780
13
-0.95708
23
1.75193
33
-6.37683
0
3DFACE
8
A2
10
-0.87301
20
1.94420
30
-6.41472
11
-0.74249
21
1.97595
31
-6.44430
12
-0.69593
22
1.81360
32
-6.43823
13
-0.82649
23
1.78255
33
-6.40780
0
3DFACE
8
A2
10
-0.74249
20
1.97595
30
-6.44430
11
-0.61183
21
2.00528
31
-6.47687
12
-0.56523
22
1.84208
32
-6.47187
13
-0.69593
23
1.81360
33
-6.43823
0
3DFACE
8
A2
10
-0.61183
20
2.00528
30
-6.47687
11
-0.48133
21
2.03745
31
-6.50591
12
-0.43467
22
1.87313
32
-6.50230
13
-0.56523
23
1.84208
33
-6.47187
0
3DFACE
8
A2
10
-0.48133
20
2.03745
30
-6.50591
11
-0.35088
21
2.07065
31
-6.53367
12
-0.30417
22
1.90539
32
-6.53124
13
-0.43467
23
1.87313
33
-6.50230
0
3DFACE
8
A2
10
-0.35088
20
2.07065
30
-6.53367
11
-0.22047
21
2.10446
31
-6.56068
12
-0.17369
22
1.93782
32
-6.55996
13
-0.30417
23
1.90539
33
-6.53124
0
3DFACE
8
A2
10
-0.22047
20
2.10446
30
-6.56068
11
-0.09002
21
2.13766
31
-6.58844
12
-0.04316
22
1.96947
32
-6.58964
13
-0.17369
23
1.93782
33
-6.55996
0
3DFACE
8
A2
10
-0.09002
20
2.13766
30
-6.58844
11
0.04029
21
2.17327
31
-6.61320
12
0.08726
22
2.00319
32
-6.61675
13
-0.04316
23
1.96947
33
-6.58964
0
3DFACE
8
A2
10
0.04029
20
2.17327
30
-6.61320
11
0.17069
21
2.20742
31
-6.63978
12
0.21779
22
2.03493
32
-6.64633
13
0.08726
23
2.00319
33
-6.61675
0
3DFACE
8
A2
10
0.17069
20
2.20742
30
-6.63978
11
0.30104
21
2.24234
31
-6.66540
12
0.34826
22
2.06762
32
-6.67473
13
0.21779
23
2.03493
33
-6.64633
0
3DFACE
8
A2
10
0.30104
20
2.24234
30
-6.66540
11
0.43144
21
2.27640
31
-6.69208
12
0.47872
22
2.10056
32
-6.70281
13
0.34826
23
2.06762
33
-6.67473
0
3DFACE
8
A2
10
0.43144
20
2.27640
30
-6.69208
11
0.56194
21
2.30858
31
-6.72112
12
0.60922
22
2.13274
32
-6.73185
13
0.47872
23
2.10056
33
-6.70281
0
3DFACE
8
A2
10
0.56194
20
2.30858
30
-6.72112
11
0.69245
21
2.34057
31
-6.75038
12
0.73972
22
2.16491
32
-6.76089
13
0.60922
23
2.13274
33
-6.73185
0
3DFACE
8
A2
10
0.69245
20
2.34057
30
-6.75038
11
0.82290
21
2.37386
31
-6.77803
12
0.87013
22
2.19880
32
-6.78779
13
0.73972
23
2.16491
33
-6.76089
0
3DFACE
8
A2
10
0.82290
20
2.37386
30
-6.77803
11
0.95347
21
2.40466
31
-6.80878
12
1.00058
22
2.23191
32
-6.81566
13
0.87013
23
2.19880
33
-6.78779
0
3DFACE
8
A2
10
0.95347
20
2.40466
30
-6.80878
11
1.08423
21
2.43193
31
-6.84392
12
1.13138
22
2.25858
32
-6.85154
13
1.00058
23
2.23191
33
-6.81566
0
3DFACE
8
A2
10
1.08423
20
2.43193
30
-6.84392
11
1.21479
21
2.46315
31
-6.87414
12
1.26200
22
2.28860
32
-6.88326
13
1.13138
23
2.25858
33
-6.85154
0
3DFACE
8
A2
10
1.21479
20
2.46315
30
-6.87414
11
1.34523
21
2.49636
31
-6.90190
12
1.39248
22
2.32112
32
-6.91187
13
1.26200
23
2.28860
33
-6.88326
0
3DFACE
8
A2
10
1.34523
20
2.49636
30
-6.90190
11
1.47569
21
2.52939
31
-6.92987
12
1.52293
22
2.35415
32
-6.93984
13
1.39248
23
2.32112
33
-6.91187
0
3DFACE
8
A2
10
1.47569
20
2.52939
30
-6.92987
11
1.60594
21
2.56620
31
-6.95313
12
1.65325
22
2.38976
32
-6.96461
13
1.52293
23
2.35415
33
-6.93984
0
3DFACE
8
A2
10
1.60594
20
2.56620
30
-6.95313
11
1.73582
21
2.60989
31
-6.96784
12
1.78308
22
2.43440
32
-6.97813
13
1.65325
23
2.38976
33
-6.96461
0
3DFACE
8
A2
10
1.73582
20
2.60989
30
-6.96784
11
1.86571
21
2.65350
31
-6.98265
12
1.91291
22
2.47912
32
-6.99155
13
1.78308
23
2.43440
33
-6.97813
0
3DFACE
8
A2
10
1.86571
20
2.65350
30
-6.98265
11
1.99559
21
2.69719
31
-6.99735
12
2.04274
22
2.52385
32
-7.00497
13
1.91291
23
2.47912
33
-6.99155
0
3DFACE
8
A2
10
1.99559
20
2.69719
30
-6.99735
11
2.12548
21
2.74080
31
-7.01216
12
2.17257
22
2.56849
32
-7.01850
13
2.04274
23
2.52385
33
-7.00497
0
3DFACE
8
A2
10
2.12548
20
2.74080
30
-7.01216
11
2.25537
21
2.78432
31
-7.02708
12
2.30240
22
2.61313
32
-7.03203
13
2.17257
23
2.56849
33
-7.01850
0
3DFACE
8
A2
10
2.25537
20
2.78432
30
-7.02708
11
2.38524
21
2.82827
31
-7.04147
12
2.43222
22
2.65811
32
-7.04513
13
2.30240
23
2.61313
33
-7.03203
0
3DFACE
8
A2
10
2.38524
20
2.82827
30
-7.04147
11
2.51512
21
2.87205
31
-7.05606
12
2.56204
22
2.70292
32
-7.05844
13
2.43222
23
2.65811
33
-7.04513
0
3DFACE
8
A2
10
2.51512
20
2.87205
30
-7.05606
11
2.64502
21
2.91540
31
-7.07119
12
2.69187
22
2.74764
32
-7.07186
13
2.56204
23
2.70292
33
-7.05844
0
3DFACE
8
A2
10
2.64502
20
2.91540
30
-7.07119
11
2.77502
21
2.95703
31
-7.08847
12
2.82176
22
2.79125
32
-7.08667
13
2.69187
23
2.74764
33
-7.07186
0
3DFACE
8
A2
10
2.77502
20
2.95703
30
-7.08847
11
2.90504
21
2.99823
31
-7.10627
12
2.95168
22
2.83417
32
-7.10234
13
2.82176
23
2.79125
33
-7.08667
0
3DFACE
8
A2
10
2.90504
20
2.99823
30
-7.10627
11
3.03570
21
3.02739
31
-7.13906
12
3.08224
22
2.86522
32
-7.13277
13
2.95168
23
2.83417
33
-7.10234
0
3DFACE
8
A2
10
3.03570
20
3.02739
30
-7.13906
11
3.16643
21
3.05518
31
-7.17356
12
3.21289
22
2.89473
32
-7.16513
13
3.08224
23
2.86522
33
-7.13277
0
3DFACE
8
A2
10
3.16643
20
3.05518
30
-7.17356
11
3.29722
21
3.08210
31
-7.20913
12
3.34361
22
2.92277
32
-7.19931
13
3.21289
23
2.89473
33
-7.16513
0
3DFACE
8
A2
10
3.29722
20
3.08210
30
-7.20913
11
3.42799
21
3.10929
31
-7.24437
12
3.47436
22
2.95030
32
-7.23413
13
3.34361
23
2.92277
33
-7.19931
0
3DFACE
8
A2
10
3.42799
20
3.10929
30
-7.24437
11
3.55881
21
3.13553
31
-7.28080
12
3.60516
22
2.97697
32
-7.27001
13
3.47436
23
2.95030
33
-7.23413
0
3DFACE
8
A2
10
3.55881
20
3.13553
30
-7.28080
11
3.68912
21
3.17122
31
-7.30545
12
3.73547
22
3.01267
32
-7.29467
13
3.60516
23
2.97697
33
-7.27001
0
3DFACE
8
A2
10
3.68912
20
3.17122
30
-7.30545
11
3.81943
21
3.20692
31
-7.33010
12
3.86578
22
3.04836
32
-7.31932
13
3.73547
23
3.01267
33
-7.29467
0
3DFACE
8
A2
10
3.81943
20
3.20692
30
-7.33010
11
3.94974
21
3.24262
31
-7.35476
12
3.99609
22
3.08406
32
-7.34398
13
3.86578
23
3.04836
33
-7.31932
0
3DFACE
8
A2
10
3.94974
20
3.24262
30
-7.35476
11
4.08006
21
3.27831
31
-7.37941
12
4.12641
22
3.11975
32
-7.36863
13
3.99609
23
3.08406
33
-7.34398
0
3DFACE
8
A2
10
4.08006
20
3.27831
30
-7.37941
11
4.21037
21
3.31401
31
-7.40407
12
4.25672
22
3.15545
32
-7.39329
13
4.12641
23
3.11975
33
-7.36863
0
3DFACE
8
A2
10
4.21037
20
3.31401
30
-7.40407
11
4.34067
21
3.34988
31
-7.42851
12
4.38702
22
3.19132
32
-7.41773
13
4.25672
23
3.15545
33
-7.39329
0
3DFACE
8
A2
10
4.34067
20
3.34988
30
-7.42851
11
4.47096
21
3.38592
31
-7.45273
12
4.51731
22
3.22736
32
-7.44195
13
4.38702
23
3.19132
33
-7.41773
0
3DFACE
8
A2
10
-2.64904
20
1.24875
30
-6.10500
11
-2.51860
21
1.28204
31
-6.13265
12
-2.47221
22
1.12288
32
-6.12262
13
-2.60264
23
1.08933
33
-6.09529
0
3DFACE
8
A2
10
-2.51860
20
1.28204
30
-6.13265
11
-2.38810
21
1.31421
31
-6.16169
12
-2.34173
22
1.15540
32
-6.15123
13
-2.47221
23
1.12288
33
-6.12262
0
3DFACE
8
A2
10
-2.38810
20
1.31421
30
-6.16169
11
-2.25754
21
1.34544
31
-6.19191
12
-2.21120
22
1.18705
32
-6.18092
13
-2.34173
23
1.15540
33
-6.15123
0
3DFACE
8
A2
10
-2.25754
20
1.34544
30
-6.19191
11
-2.12718
21
1.38010
31
-6.21785
12
-2.08087
22
1.22232
32
-6.20611
13
-2.21120
23
1.18705
33
-6.18092
0
3DFACE
8
A2
10
-2.12718
20
1.38010
30
-6.21785
11
-1.99700
21
1.41829
31
-6.23940
12
-1.95074
22
1.26154
32
-6.22637
13
-2.08087
23
1.22232
33
-6.20611
0
3DFACE
8
A2
10
-1.99700
20
1.41829
30
-6.23940
11
-1.86702
21
1.46018
31
-6.25635
12
-1.82082
22
1.30454
32
-6.24193
13
-1.95074
23
1.26154
33
-6.22637
0
3DFACE
8
A2
10
-1.86702
20
1.46018
30
-6.25635
11
-1.73723
21
1.50568
31
-6.26881
12
-1.69111
22
1.35142
32
-6.25268
13
-1.82082
23
1.30454
33
-6.24193
0
3DFACE
8
A2
10
-1.73723
20
1.50568
30
-6.26881
11
-1.60766
21
1.55522
31
-6.27624
12
-1.56161
22
1.40225
32
-6.25850
13
-1.69111
23
1.35142
33
-6.25268
0
3DFACE
8
A2
10
-1.60766
20
1.55522
30
-6.27624
11
-1.47792
21
1.60158
31
-6.28763
12
-1.43186
22
1.44844
32
-6.27011
13
-1.56161
23
1.40225
33
-6.25850
0
3DFACE
8
A2
10
-1.47792
20
1.60158
30
-6.28763
11
-1.34802
21
1.64493
31
-6.30276
12
-1.30187
22
1.49007
32
-6.28738
13
-1.43186
23
1.44844
33
-6.27011
0
3DFACE
8
A2
10
-1.34802
20
1.64493
30
-6.30276
11
-1.21794
21
1.68501
31
-6.32196
12
-1.17162
22
1.52697
32
-6.31053
13
-1.30187
23
1.49007
33
-6.28738
0
3DFACE
8
A2
10
-1.21794
20
1.68501
30
-6.32196
11
-1.08766
21
1.72122
31
-6.34597
12
-1.04110
22
1.55879
32
-6.34000
13
-1.17162
23
1.52697
33
-6.31053
0
3DFACE
8
A2
10
-1.08766
20
1.72122
30
-6.34597
11
-0.95708
21
1.75193
31
-6.37683
12
-0.91029
22
1.58520
32
-6.37621
13
-1.04110
23
1.55879
33
-6.34000
0
3DFACE
8
A2
10
-0.95708
20
1.75193
30
-6.37683
11
-0.82649
21
1.78255
31
-6.40780
12
-0.77965
22
1.61471
32
-6.40857
13
-0.91029
23
1.58520
33
-6.37621
0
3DFACE
8
A2
10
-0.82649
20
1.78255
30
-6.40780
11
-0.69593
21
1.81360
31
-6.43823
12
-0.64897
22
1.64370
32
-6.44157
13
-0.77965
23
1.61471
33
-6.40857
0
3DFACE
8
A2
10
-0.69593
20
1.81360
30
-6.43823
11
-0.56523
21
1.84208
31
-6.47187
12
-0.51830
22
1.67269
32
-6.47457
13
-0.64897
23
1.64370
33
-6.44157
0
3DFACE
8
A2
10
-0.56523
20
1.84208
30
-6.47187
11
-0.43467
21
1.87313
31
-6.50230
12
-0.38774
22
1.70383
32
-6.50490
13
-0.51830
23
1.67269
33
-6.47457
0
3DFACE
8
A2
10
-0.43467
20
1.87313
30
-6.50230
11
-0.30417
21
1.90539
31
-6.53124
12
-0.25728
22
1.73677
32
-6.53297
13
-0.38774
23
1.70383
33
-6.50490
0
3DFACE
8
A2
10
-0.30417
20
1.90539
30
-6.53124
11
-0.17369
21
1.93782
31
-6.55996
12
-0.12670
22
1.76739
32
-6.56394
13
-0.25728
23
1.73677
33
-6.53297
0
3DFACE
8
A2
10
-0.17369
20
1.93782
30
-6.55996
11
-0.04316
21
1.96947
31
-6.58964
12
0.00382
22
1.79931
32
-6.59330
13
-0.12670
23
1.76739
33
-6.56394
0
3DFACE
8
A2
10
-0.04316
20
1.96947
30
-6.58964
11
0.08726
21
2.00319
31
-6.61675
12
0.13430
22
1.83174
32
-6.62202
13
0.00382
23
1.79931
33
-6.59330
0
3DFACE
8
A2
10
0.08726
20
2.00319
30
-6.61675
11
0.21779
21
2.03493
31
-6.64633
12
0.26484
22
1.86331
32
-6.65181
13
0.13430
23
1.83174
33
-6.62202
0
3DFACE
8
A2
10
0.21779
20
2.03493
30
-6.64633
11
0.34826
21
2.06762
31
-6.67473
12
0.39538
22
1.89470
32
-6.68182
13
0.26484
23
1.86331
33
-6.65181
0
3DFACE
8
A2
10
0.34826
20
2.06762
30
-6.67473
11
0.47872
21
2.10056
31
-6.70281
12
0.52590
22
1.92644
32
-6.71139
13
0.39538
23
1.89470
33
-6.68182
0
3DFACE
8
A2
10
0.47872
20
2.10056
30
-6.70281
11
0.60922
21
2.13274
31
-6.73185
12
0.65642
22
1.95836
32
-6.74076
13
0.52590
23
1.92644
33
-6.71139
0
3DFACE
8
A2
10
0.60922
20
2.13274
30
-6.73185
11
0.73972
21
2.16491
31
-6.76089
12
0.78700
22
1.98898
32
-6.77172
13
0.65642
23
1.95836
33
-6.74076
0
3DFACE
8
A2
10
0.73972
20
2.16491
30
-6.76089
11
0.87013
21
2.19880
31
-6.78779
12
0.91752
22
2.02089
32
-6.80108
13
0.78700
23
1.98898
33
-6.77172
0
3DFACE
8
A2
10
0.87013
20
2.19880
30
-6.78779
11
1.00058
21
2.23191
31
-6.81566
12
1.04789
22
2.05556
32
-6.82702
13
0.91752
23
2.02089
33
-6.80108
0
3DFACE
8
A2
10
1.00058
20
2.23191
30
-6.81566
11
1.13138
21
2.25858
31
-6.85154
12
1.17865
22
2.08291
32
-6.86206
13
1.04789
23
2.05556
33
-6.82702
0
3DFACE
8
A2
10
1.13138
20
2.25858
30
-6.85154
11
1.26200
21
2.28860
31
-6.88326
12
1.30927
22
2.11285
32
-6.89388
13
1.17865
23
2.08291
33
-6.86206
0
3DFACE
8
A2
10
1.26200
20
2.28860
30
-6.88326
11
1.39248
21
2.32112
31
-6.91187
12
1.43967
22
2.14683
32
-6.92067
13
1.30927
23
2.11285
33
-6.89388
0
3DFACE
8
A2
10
1.39248
20
2.32112
30
-6.91187
11
1.52293
21
2.35415
31
-6.93984
12
1.57001
22
2.18201
32
-6.94597
13
1.43967
23
2.14683
33
-6.92067
0
3DFACE
8
A2
10
1.52293
20
2.35415
30
-6.93984
11
1.65325
21
2.38976
31
-6.96461
12
1.70037
22
2.21693
32
-6.97159
13
1.57001
23
2.18201
33
-6.94597
0
3DFACE
8
A2
10
1.65325
20
2.38976
30
-6.96461
11
1.78308
21
2.43440
31
-6.97813
12
1.83021
22
2.26140
32
-6.98533
13
1.70037
23
2.21693
33
-6.97159
0
3DFACE
8
A2
10
1.78308
20
2.43440
30
-6.97813
11
1.91291
21
2.47912
31
-6.99155
12
1.96004
22
2.30595
32
-6.99896
13
1.83021
23
2.26140
33
-6.98533
0
3DFACE
8
A2
10
1.91291
20
2.47912
30
-6.99155
11
2.04274
21
2.52385
31
-7.00497
12
2.08987
22
2.35067
32
-7.01238
13
1.96004
23
2.30595
33
-6.99896
0
3DFACE
8
A2
10
2.04274
20
2.52385
30
-7.00497
11
2.17257
21
2.56849
31
-7.01850
12
2.21970
22
2.39548
32
-7.02570
13
2.08987
23
2.35067
33
-7.01238
0
3DFACE
8
A2
10
2.17257
20
2.56849
30
-7.01850
11
2.30240
21
2.61313
31
-7.03203
12
2.34951
22
2.44038
32
-7.03890
13
2.21970
23
2.39548
33
-7.02570
0
3DFACE
8
A2
10
2.30240
20
2.61313
30
-7.03203
11
2.43222
21
2.65811
31
-7.04513
12
2.47926
22
2.48657
32
-7.05050
13
2.34951
23
2.44038
33
-7.03890
0
3DFACE
8
A2
10
2.43222
20
2.65811
30
-7.04513
11
2.56204
21
2.70292
31
-7.05844
12
2.60902
22
2.53258
32
-7.06232
13
2.47926
23
2.48657
33
-7.05050
0
3DFACE
8
A2
10
2.56204
20
2.70292
30
-7.05844
11
2.69187
21
2.74764
31
-7.07186
12
2.73879
22
2.57851
32
-7.07424
13
2.60902
23
2.53258
33
-7.06232
0
3DFACE
8
A2
10
2.69187
20
2.74764
30
-7.07186
11
2.82176
21
2.79125
31
-7.08667
12
2.86859
22
2.62367
32
-7.08713
13
2.73879
23
2.57851
33
-7.07424
0
3DFACE
8
A2
10
2.82176
20
2.79125
30
-7.08667
11
2.95168
21
2.83417
31
-7.10234
12
2.99833
22
2.67002
32
-7.09852
13
2.86859
23
2.62367
33
-7.08713
0
3DFACE
8
A2
10
2.95168
20
2.83417
30
-7.10234
11
3.08224
21
2.86522
31
-7.13277
12
3.12878
22
2.70314
32
-7.12638
13
2.99833
23
2.67002
33
-7.09852
0
3DFACE
8
A2
10
3.08224
20
2.86522
30
-7.13277
11
3.21289
21
2.89473
31
-7.16513
12
3.25932
22
2.73454
32
-7.15638
13
3.12878
23
2.70314
33
-7.12638
0
3DFACE
8
A2
10
3.21289
20
2.89473
30
-7.16513
11
3.34361
21
2.92277
31
-7.19931
12
3.38996
22
2.76422
32
-7.18853
13
3.25932
23
2.73454
33
-7.15638
0
3DFACE
8
A2
10
3.34361
20
2.92277
30
-7.19931
11
3.47436
21
2.95030
31
-7.23413
12
3.52065
22
2.79278
32
-7.22206
13
3.38996
23
2.76422
33
-7.18853
0
3DFACE
8
A2
10
3.47436
20
2.95030
30
-7.23413
11
3.60516
21
2.97697
31
-7.27001
12
3.65151
22
2.81841
32
-7.25923
13
3.52065
23
2.79278
33
-7.22206
0
3DFACE
8
A2
10
3.60516
20
2.97697
30
-7.27001
11
3.73547
21
3.01267
31
-7.29467
12
3.78182
22
2.85411
32
-7.28389
13
3.65151
23
2.81841
33
-7.25923
0
3DFACE
8
A2
10
3.73547
20
3.01267
30
-7.29467
11
3.86578
21
3.04836
31
-7.31932
12
3.91213
22
2.88980
32
-7.30854
13
3.78182
23
2.85411
33
-7.28389
0
3DFACE
8
A2
10
3.86578
20
3.04836
30
-7.31932
11
3.99609
21
3.08406
31
-7.34398
12
4.04244
22
2.92550
32
-7.33320
13
3.91213
23
2.88980
33
-7.30854
0
3DFACE
8
A2
10
3.99609
20
3.08406
30
-7.34398
11
4.12641
21
3.11975
31
-7.36863
12
4.17276
22
2.96120
32
-7.35785
13
4.04244
23
2.92550
33
-7.33320
0
3DFACE
8
A2
10
4.12641
20
3.11975
30
-7.36863
11
4.25672
21
3.15545
31
-7.39329
12
4.30307
22
2.99689
32
-7.38251
13
4.17276
23
2.96120
33
-7.35785
0
3DFACE
8
A2
10
4.25672
20
3.15545
30
-7.39329
11
4.38702
21
3.19132
31
-7.41773
12
4.43337
22
3.03276
32
-7.40695
13
4.30307
23
2.99689
33
-7.38251
0
3DFACE
8
A2
10
4.38702
20
3.19132
30
-7.41773
11
4.51731
21
3.22736
31
-7.44195
12
4.56367
22
3.06872
32
-7.43128
13
4.43337
23
3.03276
33
-7.40695
0
3DFACE
8
A2
10
-2.60264
20
1.08933
30
-6.09529
11
-2.47221
21
1.12288
31
-6.12262
12
-2.42583
22
0.96364
32
-6.11270
13
-2.55621
23
0.92932
33
-6.08633
0
3DFACE
8
A2
10
-2.47221
20
1.12288
30
-6.12262
11
-2.34173
21
1.15540
31
-6.15123
12
-2.29542
22
0.99753
32
-6.13960
13
-2.42583
23
0.96364
33
-6.11270
0
3DFACE
8
A2
10
-2.34173
20
1.15540
30
-6.15123
11
-2.21120
21
1.18705
31
-6.18092
12
-2.16496
22
1.03047
32
-6.16768
13
-2.29542
23
0.99753
33
-6.13960
0
3DFACE
8
A2
10
-2.21120
20
1.18705
30
-6.18092
11
-2.08087
21
1.22232
31
-6.20611
12
-2.03466
22
1.06651
32
-6.19190
13
-2.16496
23
1.03047
33
-6.16768
0
3DFACE
8
A2
10
-2.08087
20
1.22232
30
-6.20611
11
-1.95074
21
1.26154
31
-6.22637
12
-1.90455
22
1.10582
32
-6.21206
13
-2.03466
23
1.06651
33
-6.19190
0
3DFACE
8
A2
10
-1.95074
20
1.26154
30
-6.22637
11
-1.82082
21
1.30454
31
-6.24193
12
-1.77459
22
1.14814
32
-6.22848
13
-1.90455
23
1.10582
33
-6.21206
0
3DFACE
8
A2
10
-1.82082
20
1.30454
30
-6.24193
11
-1.69111
21
1.35142
31
-6.25268
12
-1.64481
22
1.19372
32
-6.24083
13
-1.77459
23
1.14814
33
-6.22848
0
3DFACE
8
A2
10
-1.69111
20
1.35142
30
-6.25268
11
-1.56161
21
1.40225
31
-6.25850
12
-1.51522
22
1.24292
32
-6.24869
13
-1.64481
23
1.19372
33
-6.24083
0
3DFACE
8
A2
10
-1.56161
20
1.40225
30
-6.25850
11
-1.43186
21
1.44844
31
-6.27011
12
-1.38543
22
1.28833
32
-6.26125
13
-1.51522
23
1.24292
33
-6.24869
0
3DFACE
8
A2
10
-1.43186
20
1.44844
30
-6.27011
11
-1.30187
21
1.49007
31
-6.28738
12
-1.25541
22
1.32944
32
-6.27917
13
-1.38543
23
1.28833
33
-6.26125
0
3DFACE
8
A2
10
-1.30187
20
1.49007
30
-6.28738
11
-1.17162
21
1.52697
31
-6.31053
12
-1.12515
22
1.36609
32
-6.30264
13
-1.25541
23
1.32944
33
-6.27917
0
3DFACE
8
A2
10
-1.17162
20
1.52697
30
-6.31053
11
-1.04110
21
1.55879
31
-6.34000
12
-0.99462
22
1.39783
32
-6.33222
13
-1.12515
23
1.36609
33
-6.30264
0
3DFACE
8
A2
10
-1.04110
20
1.55879
30
-6.34000
11
-0.91029
21
1.58520
31
-6.37621
12
-0.86382
22
1.42432
32
-6.36832
13
-0.99462
23
1.39783
33
-6.33222
0
3DFACE
8
A2
10
-0.91029
20
1.58520
30
-6.37621
11
-0.77965
21
1.61471
31
-6.40857
12
-0.73301
22
1.45091
32
-6.40432
13
-0.86382
23
1.42432
33
-6.36832
0
3DFACE
8
A2
10
-0.77965
20
1.61471
30
-6.40857
11
-0.64897
21
1.64370
31
-6.44157
12
-0.60218
22
1.47689
32
-6.44106
13
-0.73301
23
1.45091
33
-6.40432
0
3DFACE
8
A2
10
-0.64897
20
1.64370
30
-6.44157
11
-0.51830
21
1.67269
31
-6.47457
12
-0.47144
22
1.50467
32
-6.47556
13
-0.60218
23
1.47689
33
-6.44106
0
3DFACE
8
A2
10
-0.51830
20
1.67269
30
-6.47457
11
-0.38774
21
1.70383
31
-6.50490
12
-0.34079
22
1.53409
32
-6.50802
13
-0.47144
23
1.50467
33
-6.47556
0
3DFACE
8
A2
10
-0.38774
20
1.70383
30
-6.50490
11
-0.25728
21
1.73677
31
-6.53297
12
-0.21022
22
1.56489
32
-6.53878
13
-0.34079
23
1.53409
33
-6.50802
0
3DFACE
8
A2
10
-0.25728
20
1.73677
30
-6.53297
11
-0.12670
21
1.76739
31
-6.56394
12
-0.07968
22
1.59637
32
-6.56867
13
-0.21022
23
1.56489
33
-6.53878
0
3DFACE
8
A2
10
-0.12670
20
1.76739
30
-6.56394
11
0.00382
21
1.79931
31
-6.59330
12
0.05080
22
1.62897
32
-6.59718
13
-0.07968
23
1.59637
33
-6.56867
0
3DFACE
8
A2
10
0.00382
20
1.79931
30
-6.59330
11
0.13430
21
1.83174
31
-6.62202
12
0.18133
22
1.66063
32
-6.62686
13
0.05080
23
1.62897
33
-6.59718
0
3DFACE
8
A2
10
0.13430
20
1.83174
30
-6.62202
11
0.26484
21
1.86331
31
-6.65181
12
0.31189
22
1.69168
32
-6.65730
13
0.18133
23
1.66063
33
-6.62686
0
3DFACE
8
A2
10
0.26484
20
1.86331
30
-6.65181
11
0.39538
21
1.89470
31
-6.68182
12
0.44245
22
1.72273
32
-6.68773
13
0.31189
23
1.69168
33
-6.65730
0
3DFACE
8
A2
10
0.39538
20
1.89470
30
-6.68182
11
0.52590
21
1.92644
31
-6.71139
12
0.57301
22
1.75387
32
-6.71805
13
0.44245
23
1.72273
33
-6.68773
0
3DFACE
8
A2
10
0.52590
20
1.92644
30
-6.71139
11
0.65642
21
1.95836
31
-6.74076
12
0.70355
22
1.78527
32
-6.74806
13
0.57301
23
1.75387
33
-6.71805
0
3DFACE
8
A2
10
0.65642
20
1.95836
30
-6.74076
11
0.78700
21
1.98898
31
-6.77172
12
0.83412
22
1.81615
32
-6.77870
13
0.70355
23
1.78527
33
-6.74806
0
3DFACE
8
A2
10
0.78700
20
1.98898
30
-6.77172
11
0.91752
21
2.02089
31
-6.80108
12
0.96478
22
1.84531
32
-6.81149
13
0.83412
23
1.81615
33
-6.77870
0
3DFACE
8
A2
10
0.91752
20
2.02089
30
-6.80108
11
1.04789
21
2.05556
31
-6.82702
12
1.09538
22
1.87576
32
-6.84267
13
0.96478
23
1.84531
33
-6.81149
0
3DFACE
8
A2
10
1.04789
20
2.05556
30
-6.82702
11
1.17865
21
2.08291
31
-6.86206
12
1.22606
22
1.90449
32
-6.87599
13
1.09538
23
1.87576
33
-6.84267
0
3DFACE
8
A2
10
1.17865
20
2.08291
30
-6.86206
11
1.30927
21
2.11285
31
-6.89388
12
1.35661
22
1.93581
32
-6.90610
13
1.22606
23
1.90449
33
-6.87599
0
3DFACE
8
A2
10
1.30927
20
2.11285
30
-6.89388
11
1.43967
21
2.14683
31
-6.92067
12
1.48699
22
1.97021
32
-6.93236
13
1.35661
23
1.93581
33
-6.90610
0
3DFACE
8
A2
10
1.43967
20
2.14683
30
-6.92067
11
1.57001
21
2.18201
31
-6.94597
12
1.61713
22
2.00918
32
-6.95295
13
1.48699
23
1.97021
33
-6.93236
0
3DFACE
8
A2
10
1.57001
20
2.18201
30
-6.94597
11
1.70037
21
2.21693
31
-6.97159
12
1.74719
22
2.04952
32
-6.97183
13
1.61713
23
2.00918
33
-6.95295
0
3DFACE
8
A2
10
1.70037
20
2.21693
30
-6.97159
11
1.83021
21
2.26140
31
-6.98533
12
1.87701
22
2.09433
32
-6.98514
13
1.74719
23
2.04952
33
-6.97183
0
3DFACE
8
A2
10
1.83021
20
2.26140
30
-6.98533
11
1.96004
21
2.30595
31
-6.99896
12
2.00683
22
2.13922
32
-6.99835
13
1.87701
23
2.09433
33
-6.98514
0
3DFACE
8
A2
10
1.96004
20
2.30595
30
-6.99896
11
2.08987
21
2.35067
31
-7.01238
12
2.13664
22
2.18429
32
-7.01134
13
2.00683
23
2.13922
33
-6.99835
0
3DFACE
8
A2
10
2.08987
20
2.35067
30
-7.01238
11
2.21970
21
2.39548
31
-7.02570
12
2.26645
22
2.22945
32
-7.02422
13
2.13664
23
2.18429
33
-7.01134
0
3DFACE
8
A2
10
2.21970
20
2.39548
30
-7.02570
11
2.34951
21
2.44038
31
-7.03890
12
2.39625
22
2.27469
32
-7.03700
13
2.26645
23
2.22945
33
-7.02422
0
3DFACE
8
A2
10
2.34951
20
2.44038
30
-7.03890
11
2.47926
21
2.48657
31
-7.05050
12
2.52605
22
2.31993
32
-7.04978
13
2.39625
23
2.27469
33
-7.03700
0
3DFACE
8
A2
10
2.47926
20
2.48657
30
-7.05050
11
2.60902
21
2.53258
31
-7.06232
12
2.65584
22
2.36525
32
-7.06245
13
2.52605
23
2.31993
33
-7.04978
0
3DFACE
8
A2
10
2.60902
20
2.53258
30
-7.06232
11
2.73879
21
2.57851
31
-7.07424
12
2.78564
22
2.41050
32
-7.07523
13
2.65584
23
2.36525
33
-7.06245
0
3DFACE
8
A2
10
2.73879
20
2.57851
30
-7.07424
11
2.86859
21
2.62367
31
-7.08713
12
2.91548
22
2.45505
32
-7.08887
13
2.78564
23
2.41050
33
-7.07523
0
3DFACE
8
A2
10
2.86859
20
2.62367
30
-7.08713
11
2.99833
21
2.67002
31
-7.09852
12
3.04522
22
2.50141
32
-7.10025
13
2.91548
23
2.45505
33
-7.08887
0
3DFACE
8
A2
10
2.99833
20
2.67002
30
-7.09852
11
3.12878
21
2.70314
31
-7.12638
12
3.17554
22
2.53702
32
-7.12501
13
3.04522
23
2.50141
33
-7.10025
0
3DFACE
8
A2
10
3.12878
20
2.70314
30
-7.12638
11
3.25932
21
2.73454
31
-7.15638
12
3.30596
22
2.57065
32
-7.15224
13
3.17554
23
2.53702
33
-7.12501
0
3DFACE
8
A2
10
3.25932
20
2.73454
30
-7.15638
11
3.38996
21
2.76422
31
-7.18853
12
3.43648
22
2.60239
32
-7.18181
13
3.30596
23
2.57065
33
-7.15224
0
3DFACE
8
A2
10
3.38996
20
2.76422
30
-7.18853
11
3.52065
21
2.79278
31
-7.22206
12
3.56707
22
2.63293
32
-7.21289
13
3.43648
23
2.60239
33
-7.18181
0
3DFACE
8
A2
10
3.52065
20
2.79278
30
-7.22206
11
3.65151
21
2.81841
31
-7.25923
12
3.69786
22
2.65977
32
-7.24856
13
3.56707
23
2.63293
33
-7.21289
0
3DFACE
8
A2
10
3.65151
20
2.81841
30
-7.25923
11
3.78182
21
2.85411
31
-7.28389
12
3.82817
22
2.69547
32
-7.27322
13
3.69786
23
2.65977
33
-7.24856
0
3DFACE
8
A2
10
3.78182
20
2.85411
30
-7.28389
11
3.91213
21
2.88980
31
-7.30854
12
3.95848
22
2.73125
32
-7.29776
13
3.82817
23
2.69547
33
-7.27322
0
3DFACE
8
A2
10
3.91213
20
2.88980
30
-7.30854
11
4.04244
21
2.92550
31
-7.33320
12
4.08879
22
2.76694
32
-7.32242
13
3.95848
23
2.73125
33
-7.29776
0
3DFACE
8
A2
10
4.04244
20
2.92550
30
-7.33320
11
4.17276
21
2.96120
31
-7.35785
12
4.21911
22
2.80264
32
-7.34707
13
4.08879
23
2.76694
33
-7.32242
0
3DFACE
8
A2
10
4.17276
20
2.96120
30
-7.35785
11
4.30307
21
2.99689
31
-7.38251
12
4.34942
22
2.83834
32
-7.37173
13
4.21911
23
2.80264
33
-7.34707
0
3DFACE
8
A2
10
4.30307
20
2.99689
30
-7.38251
11
4.43337
21
3.03276
31
-7.40695
12
4.47973
22
2.87412
32
-7.39627
13
4.34942
23
2.83834
33
-7.37173
0
3DFACE
8
A2
10
4.43337
20
3.03276
30
-7.40695
11
4.56367
21
3.06872
31
-7.43128
12
4.61002
22
2.91016
32
-7.42050
13
4.47973
23
2.87412
33
-7.39627
0
3DFACE
8
A2
10
-2.55621
20
0.92932
30
-6.08633
11
-2.42583
21
0.96364
31
-6.11270
12
-2.37979
22
0.81093
32
-6.09464
13
-2.51009
23
0.77506
33
-6.07020
0
3DFACE
8
A2
10
-2.42583
20
0.96364
30
-6.11270
11
-2.29542
21
0.99753
31
-6.13960
12
-2.24947
22
0.84636
32
-6.11962
13
-2.37979
23
0.81093
33
-6.09464
0
3DFACE
8
A2
10
-2.29542
20
0.99753
30
-6.13960
11
-2.16496
21
1.03047
31
-6.16768
12
-2.11910
22
0.88112
32
-6.14545
13
-2.24947
23
0.84636
33
-6.11962
0
3DFACE
8
A2
10
-2.16496
20
1.03047
30
-6.16768
11
-2.03466
21
1.06651
31
-6.19190
12
-1.98881
22
0.91724
32
-6.16957
13
-2.11910
23
0.88112
33
-6.14545
0
3DFACE
8
A2
10
-2.03466
20
1.06651
30
-6.19190
11
-1.90455
21
1.10582
31
-6.21206
12
-1.85863
22
0.95526
32
-6.19133
13
-1.98881
23
0.91724
33
-6.16957
0
3DFACE
8
A2
10
-1.90455
20
1.10582
30
-6.21206
11
-1.77459
21
1.14814
31
-6.22848
12
-1.72856
22
0.99551
32
-6.21032
13
-1.85863
23
0.95526
33
-6.19133
0
3DFACE
8
A2
10
-1.77459
20
1.14814
30
-6.22848
11
-1.64481
21
1.19372
31
-6.24083
12
-1.59864
22
1.03852
32
-6.22588
13
-1.72856
23
0.99551
33
-6.21032
0
3DFACE
8
A2
10
-1.64481
20
1.19372
30
-6.24083
11
-1.51522
21
1.24292
31
-6.24869
12
-1.46889
22
1.08479
32
-6.23737
13
-1.59864
23
1.03852
33
-6.22588
0
3DFACE
8
A2
10
-1.51522
20
1.24292
30
-6.24869
11
-1.38543
21
1.28833
31
-6.26125
12
-1.33895
22
1.12745
32
-6.25336
13
-1.46889
23
1.08479
33
-6.23737
0
3DFACE
8
A2
10
-1.38543
20
1.28833
30
-6.26125
11
-1.25541
21
1.32944
31
-6.27917
12
-1.20880
22
1.16607
32
-6.27438
13
-1.33895
23
1.12745
33
-6.25336
0
3DFACE
8
A2
10
-1.25541
20
1.32944
30
-6.27917
11
-1.12515
21
1.36609
31
-6.30264
12
-1.07841
22
1.20031
32
-6.30085
13
-1.20880
23
1.16607
33
-6.27438
0
3DFACE
8
A2
10
-1.12515
20
1.36609
30
-6.30264
11
-0.99462
21
1.39783
31
-6.33222
12
-0.94775
22
1.22955
32
-6.33353
13
-1.07841
23
1.20031
33
-6.30085
0
3DFACE
8
A2
10
-0.99462
20
1.39783
30
-6.33222
11
-0.86382
21
1.42432
31
-6.36832
12
-0.81680
22
1.25330
32
-6.37305
13
-0.94775
23
1.22955
33
-6.33353
0
3DFACE
8
A2
10
-0.86382
20
1.42432
30
-6.36832
11
-0.73301
21
1.45091
31
-6.40432
12
-0.68588
22
1.27773
32
-6.41173
13
-0.81680
23
1.25330
33
-6.37305
0
3DFACE
8
A2
10
-0.73301
20
1.45091
30
-6.40432
11
-0.60218
21
1.47689
31
-6.44106
12
-0.55508
22
1.30440
32
-6.44761
13
-0.68588
23
1.27773
33
-6.41173
0
3DFACE
8
A2
10
-0.60218
20
1.47689
30
-6.44106
11
-0.47144
21
1.50467
31
-6.47556
12
-0.42438
22
1.33287
32
-6.48126
13
-0.55508
23
1.30440
33
-6.44761
0
3DFACE
8
A2
10
-0.47144
20
1.50467
30
-6.47556
11
-0.34079
21
1.53409
31
-6.50802
12
-0.29378
22
1.36307
32
-6.51276
13
-0.42438
23
1.33287
33
-6.48126
0
3DFACE
8
A2
10
-0.34079
20
1.53409
30
-6.50802
11
-0.21022
21
1.56489
31
-6.53878
12
-0.16327
22
1.39507
32
-6.54201
13
-0.29378
23
1.36307
33
-6.51276
0
3DFACE
8
A2
10
-0.21022
20
1.56489
30
-6.53878
11
-0.07968
21
1.59637
31
-6.56867
12
-0.03278
22
1.42758
32
-6.57063
13
-0.16327
23
1.39507
33
-6.54201
0
3DFACE
8
A2
10
-0.07968
20
1.59637
30
-6.56867
11
0.05080
21
1.62897
31
-6.59718
12
0.09775
22
1.45915
32
-6.60042
13
-0.03278
23
1.42758
33
-6.57063
0
3DFACE
8
A2
10
0.05080
20
1.62897
30
-6.59718
11
0.18133
21
1.66063
31
-6.62686
12
0.22831
22
1.49020
32
-6.63085
13
0.09775
23
1.45915
33
-6.60042
0
3DFACE
8
A2
10
0.18133
20
1.66063
30
-6.62686
11
0.31189
21
1.69168
31
-6.65730
12
0.35888
22
1.52117
32
-6.66139
13
0.22831
23
1.49020
33
-6.63085
0
3DFACE
8
A2
10
0.31189
20
1.69168
30
-6.65730
11
0.44245
21
1.72273
31
-6.68773
12
0.48945
22
1.55214
32
-6.69193
13
0.35888
23
1.52117
33
-6.66139
0
3DFACE
8
A2
10
0.44245
20
1.72273
30
-6.68773
11
0.57301
21
1.75387
31
-6.71805
12
0.62001
22
1.58319
32
-6.72236
13
0.48945
23
1.55214
33
-6.69193
0
3DFACE
8
A2
10
0.57301
20
1.75387
30
-6.71805
11
0.70355
21
1.78527
31
-6.74806
12
0.75057
22
1.61424
32
-6.75279
13
0.62001
23
1.58319
33
-6.72236
0
3DFACE
8
A2
10
0.70355
20
1.78527
30
-6.74806
11
0.83412
21
1.81615
31
-6.77870
12
0.88113
22
1.64521
32
-6.78333
13
0.75057
23
1.61424
33
-6.75279
0
3DFACE
8
A2
10
0.83412
20
1.81615
30
-6.77870
11
0.96478
21
1.84531
31
-6.81149
12
1.01175
22
1.67523
32
-6.81504
13
0.88113
23
1.64521
33
-6.78333
0
3DFACE
8
A2
10
0.96478
20
1.84531
30
-6.81149
11
1.09538
21
1.87576
31
-6.84267
12
1.14250
22
1.70285
32
-6.84976
13
1.01175
23
1.67523
33
-6.81504
0
3DFACE
8
A2
10
1.09538
20
1.87576
30
-6.84267
11
1.22606
21
1.90449
31
-6.87599
12
1.27309
22
1.73330
32
-6.88094
13
1.14250
23
1.70285
33
-6.84976
0
3DFACE
8
A2
10
1.22606
20
1.90449
30
-6.87599
11
1.35661
21
1.93581
31
-6.90610
12
1.40354
22
1.76650
32
-6.90869
13
1.27309
23
1.73330
33
-6.88094
0
3DFACE
8
A2
10
1.35661
20
1.93581
30
-6.90610
11
1.48699
21
1.97021
31
-6.93236
12
1.53383
22
1.80254
32
-6.93292
13
1.40354
23
1.76650
33
-6.90869
0
3DFACE
8
A2
10
1.48699
20
1.97021
30
-6.93236
11
1.61713
21
2.00918
31
-6.95295
12
1.66393
22
1.84228
32
-6.95255
13
1.53383
23
1.80254
33
-6.93292
0
3DFACE
8
A2
10
1.61713
20
2.00918
30
-6.95295
11
1.74719
21
2.04952
31
-6.97183
12
1.79374
22
1.88726
32
-6.96565
13
1.66393
23
1.84228
33
-6.95255
0
3DFACE
8
A2
10
1.74719
20
2.04952
30
-6.97183
11
1.87701
21
2.09433
31
-6.98514
12
1.92354
22
1.93242
32
-6.97853
13
1.79374
23
1.88726
33
-6.96565
0
3DFACE
8
A2
10
1.87701
20
2.09433
30
-6.98514
11
2.00683
21
2.13922
31
-6.99835
12
2.05334
22
1.97766
32
-6.99131
13
1.92354
23
1.93242
33
-6.97853
0
3DFACE
8
A2
10
2.00683
20
2.13922
30
-6.99835
11
2.13664
21
2.18429
31
-7.01134
12
2.18314
22
2.02298
32
-7.00398
13
2.05334
23
1.97766
33
-6.99131
0
3DFACE
8
A2
10
2.13664
20
2.18429
30
-7.01134
11
2.26645
21
2.22945
31
-7.02422
12
2.31293
22
2.06848
32
-7.01644
13
2.18314
23
2.02298
33
-7.00398
0
3DFACE
8
A2
10
2.26645
20
2.22945
30
-7.02422
11
2.39625
21
2.27469
31
-7.03700
12
2.44271
22
2.11407
32
-7.02879
13
2.31293
23
2.06848
33
-7.01644
0
3DFACE
8
A2
10
2.39625
20
2.27469
30
-7.03700
11
2.52605
21
2.31993
31
-7.04978
12
2.57248
22
2.15974
32
-7.04103
13
2.44271
23
2.11407
33
-7.02879
0
3DFACE
8
A2
10
2.52605
20
2.31993
30
-7.04978
11
2.65584
21
2.36525
31
-7.06245
12
2.70227
22
2.20532
32
-7.05338
13
2.57248
23
2.15974
33
-7.04103
0
3DFACE
8
A2
10
2.65584
20
2.36525
30
-7.06245
11
2.78564
21
2.41050
31
-7.07523
12
2.83205
22
2.25091
32
-7.06573
13
2.70227
23
2.20532
33
-7.05338
0
3DFACE
8
A2
10
2.78564
20
2.41050
30
-7.07523
11
2.91548
21
2.45505
31
-7.08887
12
2.96183
22
2.29649
32
-7.07808
13
2.83205
23
2.25091
33
-7.06573
0
3DFACE
8
A2
10
2.91548
20
2.45505
30
-7.08887
11
3.04522
21
2.50141
31
-7.10025
12
3.09161
22
2.34208
32
-7.09044
13
2.96183
23
2.29649
33
-7.07808
0
3DFACE
8
A2
10
3.04522
20
2.50141
30
-7.10025
11
3.17554
21
2.53702
31
-7.12501
12
3.22192
22
2.37786
32
-7.11498
13
3.09161
23
2.34208
33
-7.09044
0
3DFACE
8
A2
10
3.17554
20
2.53702
30
-7.12501
11
3.30596
21
2.57065
31
-7.15224
12
3.35233
22
2.41166
32
-7.14199
13
3.22192
23
2.37786
33
-7.11498
0
3DFACE
8
A2
10
3.30596
20
2.57065
30
-7.15224
11
3.43648
21
2.60239
31
-7.18181
12
3.48285
22
2.44349
32
-7.17146
13
3.35233
23
2.41166
33
-7.14199
0
3DFACE
8
A2
10
3.43648
20
2.60239
30
-7.18181
11
3.56707
21
2.63293
31
-7.21289
12
3.61348
22
2.47334
32
-7.20339
13
3.48285
23
2.44349
33
-7.17146
0
3DFACE
8
A2
10
3.56707
20
2.63293
30
-7.21289
11
3.69786
21
2.65977
31
-7.24856
12
3.74421
22
2.50121
32
-7.23778
13
3.61348
23
2.47334
33
-7.20339
0
3DFACE
8
A2
10
3.69786
20
2.65977
30
-7.24856
11
3.82817
21
2.69547
31
-7.27322
12
3.87452
22
2.53691
32
-7.26244
13
3.74421
23
2.50121
33
-7.23778
0
3DFACE
8
A2
10
3.82817
20
2.69547
30
-7.27322
11
3.95848
21
2.73125
31
-7.29776
12
4.00484
22
2.57260
32
-7.28709
13
3.87452
23
2.53691
33
-7.26244
0
3DFACE
8
A2
10
3.95848
20
2.73125
30
-7.29776
11
4.08879
21
2.76694
31
-7.32242
12
4.13515
22
2.60830
32
-7.31174
13
4.00484
23
2.57260
33
-7.28709
0
3DFACE
8
A2
10
4.08879
20
2.76694
30
-7.32242
11
4.21911
21
2.80264
31
-7.34707
12
4.26546
22
2.64400
32
-7.33640
13
4.13515
23
2.60830
33
-7.31174
0
3DFACE
8
A2
10
4.21911
20
2.80264
30
-7.34707
11
4.34942
21
2.83834
31
-7.37173
12
4.39577
22
2.67969
32
-7.36105
13
4.26546
23
2.64400
33
-7.33640
0
3DFACE
8
A2
10
4.34942
20
2.83834
30
-7.37173
11
4.47973
21
2.87412
31
-7.39627
12
4.52607
22
2.71556
32
-7.38549
13
4.39577
23
2.67969
33
-7.36105
0
3DFACE
8
A2
10
4.47973
20
2.87412
30
-7.39627
11
4.61002
21
2.91016
31
-7.42050
12
4.65637
22
2.75160
32
-7.40972
13
4.52607
23
2.71556
33
-7.38549
0
3DFACE
8
A2
10
-2.51009
20
0.77506
30
-6.07020
11
-2.37979
21
0.81093
31
-6.09464
12
-2.33365
22
0.65632
32
-6.07894
13
-2.46394
23
0.62011
33
-6.05493
0
3DFACE
8
A2
10
-2.37979
20
0.81093
30
-6.09464
11
-2.24947
21
0.84636
31
-6.11962
12
-2.20336
22
0.69228
32
-6.10327
13
-2.33365
23
0.65632
33
-6.07894
0
3DFACE
8
A2
10
-2.24947
20
0.84636
30
-6.11962
11
-2.11910
21
0.88112
31
-6.14545
12
-2.07303
22
0.72772
32
-6.12825
13
-2.20336
23
0.69228
33
-6.10327
0
3DFACE
8
A2
10
-2.11910
20
0.88112
30
-6.14545
11
-1.98881
21
0.91724
31
-6.16957
12
-1.94274
22
0.76384
32
-6.15237
13
-2.07303
23
0.72772
33
-6.12825
0
3DFACE
8
A2
10
-1.98881
20
0.91724
30
-6.16957
11
-1.85863
21
0.95526
31
-6.19133
12
-1.81251
22
0.80109
32
-6.17510
13
-1.94274
23
0.76384
33
-6.15237
0
3DFACE
8
A2
10
-1.85863
20
0.95526
30
-6.19133
11
-1.72856
21
0.99551
31
-6.21032
12
-1.68237
22
0.83988
32
-6.19590
13
-1.81251
23
0.80109
33
-6.17510
0
3DFACE
8
A2
10
-1.72856
20
0.99551
30
-6.21032
11
-1.59864
21
1.03852
31
-6.22588
12
-1.55233
22
0.88074
32
-6.21413
13
-1.68237
23
0.83988
33
-6.19590
0
3DFACE
8
A2
10
-1.59864
20
1.03852
30
-6.22588
11
-1.46889
21
1.08479
31
-6.23737
12
-1.42243
22
0.92408
32
-6.22927
13
-1.55233
23
0.88074
33
-6.21413
0
3DFACE
8
A2
10
-1.46889
20
1.08479
30
-6.23737
11
-1.33895
21
1.12745
31
-6.25336
12
-1.29236
22
0.96434
32
-6.24825
13
-1.42243
23
0.92408
33
-6.22927
0
3DFACE
8
A2
10
-1.33895
20
1.12745
30
-6.25336
11
-1.20880
21
1.16607
31
-6.27438
12
-1.16210
22
1.00107
32
-6.27162
13
-1.29236
23
0.96434
33
-6.24825
0
3DFACE
8
A2
10
-1.20880
20
1.16607
30
-6.27438
11
-1.07841
21
1.20031
31
-6.30085
12
-1.03163
22
1.03384
32
-6.29991
13
-1.16210
23
1.00107
33
-6.27162
0
3DFACE
8
A2
10
-1.07841
20
1.20031
30
-6.30085
11
-0.94775
21
1.22955
31
-6.33353
12
-0.90095
22
1.06257
32
-6.33323
13
-1.03163
23
1.03384
33
-6.29991
0
3DFACE
8
A2
10
-0.94775
20
1.22955
30
-6.33353
11
-0.81680
21
1.25330
31
-6.37305
12
-0.77003
22
1.08700
32
-6.37190
13
-0.90095
23
1.06257
33
-6.33323
0
3DFACE
8
A2
10
-0.81680
20
1.25330
30
-6.37305
11
-0.68588
21
1.27773
31
-6.41173
12
-0.63925
22
1.11401
32
-6.40736
13
-0.77003
23
1.08700
33
-6.37190
0
3DFACE
8
A2
10
-0.68588
20
1.27773
30
-6.41173
11
-0.55508
21
1.30440
31
-6.44761
12
-0.50859
22
1.14309
32
-6.44026
13
-0.63925
23
1.11401
33
-6.40736
0
3DFACE
8
A2
10
-0.55508
20
1.30440
30
-6.44761
11
-0.42438
21
1.33287
31
-6.48126
12
-0.37801
22
1.17389
32
-6.47101
13
-0.50859
23
1.14309
33
-6.44026
0
3DFACE
8
A2
10
-0.42438
20
1.33287
30
-6.48126
11
-0.29378
21
1.36307
31
-6.51276
12
-0.24751
22
1.20606
32
-6.50005
13
-0.37801
23
1.17389
33
-6.47101
0
3DFACE
8
A2
10
-0.29378
20
1.36307
30
-6.51276
11
-0.16327
21
1.39507
31
-6.54201
12
-0.11709
22
1.23969
32
-6.52727
13
-0.24751
23
1.20606
33
-6.50005
0
3DFACE
8
A2
10
-0.16327
20
1.39507
30
-6.54201
11
-0.03278
21
1.42758
31
-6.57063
12
0.01340
22
1.27220
32
-6.55589
13
-0.11709
23
1.23969
33
-6.52727
0
3DFACE
8
A2
10
-0.03278
20
1.42758
30
-6.57063
11
0.09775
21
1.45915
31
-6.60042
12
0.14391
22
1.30420
32
-6.58514
13
0.01340
23
1.27220
33
-6.55589
0
3DFACE
8
A2
10
0.09775
20
1.45915
30
-6.60042
11
0.22831
21
1.49020
31
-6.63085
12
0.27443
22
1.33603
32
-6.61461
13
0.14391
23
1.30420
33
-6.58514
0
3DFACE
8
A2
10
0.22831
20
1.49020
30
-6.63085
11
0.35888
21
1.52117
31
-6.66139
12
0.40494
22
1.36794
32
-6.64397
13
0.27443
23
1.33603
33
-6.61461
0
3DFACE
8
A2
10
0.35888
20
1.52117
30
-6.66139
11
0.48945
21
1.55214
31
-6.69193
12
0.53546
22
1.39986
32
-6.67333
13
0.40494
23
1.36794
33
-6.64397
0
3DFACE
8
A2
10
0.48945
20
1.55214
30
-6.69193
11
0.62001
21
1.58319
31
-6.72236
12
0.66597
22
1.43186
32
-6.70259
13
0.53546
23
1.39986
33
-6.67333
0
3DFACE
8
A2
10
0.62001
20
1.58319
30
-6.72236
11
0.75057
21
1.61424
31
-6.75279
12
0.79648
22
1.46377
32
-6.73195
13
0.66597
23
1.43186
33
-6.70259
0
3DFACE
8
A2
10
0.75057
20
1.61424
30
-6.75279
11
0.88113
21
1.64521
31
-6.78333
12
0.92700
22
1.49568
32
-6.76131
13
0.79648
23
1.46377
33
-6.73195
0
3DFACE
8
A2
10
0.88113
20
1.64521
30
-6.78333
11
1.01175
21
1.67523
31
-6.81504
12
1.05754
22
1.52717
32
-6.79121
13
0.92700
23
1.49568
33
-6.76131
0
3DFACE
8
A2
10
1.01175
20
1.67523
30
-6.81504
11
1.14250
21
1.70285
31
-6.84976
12
1.18815
22
1.55727
32
-6.82282
13
1.05754
23
1.52717
33
-6.79121
0
3DFACE
8
A2
10
1.14250
20
1.70285
30
-6.84976
11
1.27309
21
1.73330
31
-6.88094
12
1.31864
22
1.58962
32
-6.85165
13
1.18815
23
1.55727
33
-6.82282
0
3DFACE
8
A2
10
1.27309
20
1.73330
30
-6.88094
11
1.40354
21
1.76650
31
-6.90869
12
1.44901
22
1.62428
32
-6.87759
13
1.31864
23
1.58962
33
-6.85165
0
3DFACE
8
A2
10
1.40354
20
1.76650
30
-6.90869
11
1.53383
21
1.80254
31
-6.93292
12
1.57926
22
1.66118
32
-6.90074
13
1.44901
23
1.62428
33
-6.87759
0
3DFACE
8
A2
10
1.53383
20
1.80254
30
-6.93292
11
1.66393
21
1.84228
31
-6.95255
12
1.70937
22
1.70066
32
-6.92069
13
1.57926
23
1.66118
33
-6.90074
0
3DFACE
8
A2
10
1.66393
20
1.84228
30
-6.95255
11
1.79374
21
1.88726
31
-6.96565
12
1.83927
22
1.74392
32
-6.93593
13
1.70937
23
1.70066
33
-6.92069
0
3DFACE
8
A2
10
1.79374
20
1.88726
30
-6.96565
11
1.92354
21
1.93242
31
-6.97853
12
1.96918
22
1.78710
32
-6.95127
13
1.83927
23
1.74392
33
-6.93593
0
3DFACE
8
A2
10
1.92354
20
1.93242
30
-6.97853
11
2.05334
21
1.97766
31
-6.99131
12
2.09909
22
1.83036
32
-6.96651
13
1.96918
23
1.78710
33
-6.95127
0
3DFACE
8
A2
10
2.05334
20
1.97766
30
-6.99131
11
2.18314
21
2.02298
31
-7.00398
12
2.22900
22
1.87354
32
-6.98186
13
2.09909
23
1.83036
33
-6.96651
0
3DFACE
8
A2
10
2.18314
20
2.02298
30
-7.00398
11
2.31293
21
2.06848
31
-7.01644
12
2.35891
22
1.91672
32
-6.99721
13
2.22900
23
1.87354
33
-6.98186
0
3DFACE
8
A2
10
2.31293
20
2.06848
30
-7.01644
11
2.44271
21
2.11407
31
-7.02879
12
2.48882
22
1.95998
32
-7.01245
13
2.35891
23
1.91672
33
-6.99721
0
3DFACE
8
A2
10
2.44271
20
2.11407
30
-7.02879
11
2.57248
21
2.15974
31
-7.04103
12
2.61873
22
2.00316
32
-7.02779
13
2.48882
23
1.95998
33
-7.01245
0
3DFACE
8
A2
10
2.57248
20
2.15974
30
-7.04103
11
2.70227
21
2.20532
31
-7.05338
12
2.74863
22
2.04642
32
-7.04303
13
2.61873
23
2.00316
33
-7.02779
0
3DFACE
8
A2
10
2.70227
20
2.20532
30
-7.05338
11
2.83205
21
2.25091
31
-7.06573
12
2.87855
22
2.08960
32
-7.05838
13
2.74863
23
2.04642
33
-7.04303
0
3DFACE
8
A2
10
2.83205
20
2.25091
30
-7.06573
11
2.96183
21
2.29649
31
-7.07808
12
3.00845
22
2.13286
32
-7.07362
13
2.87855
23
2.08960
33
-7.05838
0
3DFACE
8
A2
10
2.96183
20
2.29649
30
-7.07808
11
3.09161
21
2.34208
31
-7.09044
12
3.13836
22
2.17604
32
-7.08896
13
3.00845
23
2.13286
33
-7.07362
0
3DFACE
8
A2
10
3.09161
20
2.34208
30
-7.09044
11
3.22192
21
2.37786
31
-7.11498
12
3.26864
22
2.21234
32
-7.11287
13
3.13836
23
2.17604
33
-7.08896
0
3DFACE
8
A2
10
3.22192
20
2.37786
30
-7.11498
11
3.35233
21
2.41166
31
-7.14199
12
3.39900
22
2.24717
32
-7.13859
13
3.26864
23
2.21234
33
-7.11287
0
3DFACE
8
A2
10
3.35233
20
2.41166
30
-7.14199
11
3.48285
21
2.44349
31
-7.17146
12
3.52944
22
2.28055
32
-7.16614
13
3.39900
23
2.24717
33
-7.13859
0
3DFACE
8
A2
10
3.48285
20
2.44349
30
-7.17146
11
3.61348
21
2.47334
31
-7.20339
12
3.65996
22
2.31237
32
-7.19561
13
3.52944
23
2.28055
33
-7.16614
0
3DFACE
8
A2
10
3.61348
20
2.47334
30
-7.20339
11
3.74421
21
2.50121
31
-7.23778
12
3.79056
22
2.34265
32
-7.22700
13
3.65996
23
2.31237
33
-7.19561
0
3DFACE
8
A2
10
3.74421
20
2.50121
30
-7.23778
11
3.87452
21
2.53691
31
-7.26244
12
3.92087
22
2.37835
32
-7.25165
13
3.79056
23
2.34265
33
-7.22700
0
3DFACE
8
A2
10
3.87452
20
2.53691
30
-7.26244
11
4.00484
21
2.57260
31
-7.28709
12
4.05118
22
2.41405
32
-7.27631
13
3.92087
23
2.37835
33
-7.25165
0
3DFACE
8
A2
10
4.00484
20
2.57260
30
-7.28709
11
4.13515
21
2.60830
31
-7.31174
12
4.18150
22
2.44974
32
-7.30096
13
4.05118
23
2.41405
33
-7.27631
0
3DFACE
8
A2
10
4.13515
20
2.60830
30
-7.31174
11
4.26546
21
2.64400
31
-7.33640
12
4.31181
22
2.48544
32
-7.32562
13
4.18150
23
2.44974
33
-7.30096
0
3DFACE
8
A2
10
4.26546
20
2.64400
30
-7.33640
11
4.39577
21
2.67969
31
-7.36105
12
4.44212
22
2.52114
32
-7.35027
13
4.31181
23
2.48544
33
-7.32562
0
3DFACE
8
A2
10
4.39577
20
2.67969
30
-7.36105
11
4.52607
21
2.71556
31
-7.38549
12
4.57242
22
2.55700
32
-7.37471
13
4.44212
23
2.52114
33
-7.35027
0
3DFACE
8
A2
10
4.52607
20
2.71556
30
-7.38549
11
4.65637
21
2.75160
31
-7.40972
12
4.70272
22
2.59305
32
-7.39894
13
4.57242
23
2.55700
33
-7.37471
0
3DFACE
8
A2
10
-2.46394
20
0.62011
30
-6.05493
11
-2.33365
21
0.65632
31
-6.07894
12
-2.28750
22
0.50138
32
-6.06366
13
-2.41775
23
0.46465
33
-6.04029
0
3DFACE
8
A2
10
-2.33365
20
0.65632
30
-6.07894
11
-2.20336
21
0.69228
31
-6.10327
12
-2.15723
22
0.53793
32
-6.08725
13
-2.28750
23
0.50138
33
-6.06366
0
3DFACE
8
A2
10
-2.20336
20
0.69228
30
-6.10327
11
-2.07303
21
0.72772
31
-6.12825
12
-2.02695
22
0.57415
32
-6.11126
13
-2.15723
23
0.53793
33
-6.08725
0
3DFACE
8
A2
10
-2.07303
20
0.72772
30
-6.12825
11
-1.94274
21
0.76384
31
-6.15237
12
-1.89666
22
0.61036
32
-6.13527
13
-2.02695
23
0.57415
33
-6.11126
0
3DFACE
8
A2
10
-1.94274
20
0.76384
30
-6.15237
11
-1.81251
21
0.80109
31
-6.17510
12
-1.76640
22
0.64700
32
-6.15875
13
-1.89666
23
0.61036
33
-6.13527
0
3DFACE
8
A2
10
-1.81251
20
0.80109
30
-6.17510
11
-1.68237
21
0.83988
31
-6.19590
12
-1.63618
22
0.68433
32
-6.18137
13
-1.76640
23
0.64700
33
-6.15875
0
3DFACE
8
A2
10
-1.68237
20
0.83988
30
-6.19590
11
-1.55233
21
0.88074
31
-6.21413
12
-1.50603
22
0.72304
32
-6.20228
13
-1.63618
23
0.68433
33
-6.18137
0
3DFACE
8
A2
10
-1.55233
20
0.88074
30
-6.21413
11
-1.42243
21
0.92408
31
-6.22927
12
-1.37597
22
0.76355
32
-6.22095
13
-1.50603
23
0.72304
33
-6.20228
0
3DFACE
8
A2
10
-1.42243
20
0.92408
30
-6.22927
11
-1.29236
21
0.96434
31
-6.24825
12
-1.24581
22
0.80200
32
-6.24218
13
-1.37597
23
0.76355
33
-6.22095
0
3DFACE
8
A2
10
-1.29236
20
0.96434
30
-6.24825
11
-1.16210
21
1.00107
31
-6.27162
12
-1.11552
22
0.83812
32
-6.26630
13
-1.24581
23
0.80200
33
-6.24218
0
3DFACE
8
A2
10
-1.16210
20
1.00107
30
-6.27162
11
-1.03163
21
1.03384
31
-6.29991
12
-0.98508
22
0.87150
32
-6.29384
13
-1.11552
23
0.83812
33
-6.26630
0
3DFACE
8
A2
10
-1.03163
20
1.03384
30
-6.29991
11
-0.90095
21
1.06257
31
-6.33323
12
-0.85449
22
0.90195
32
-6.32502
13
-0.98508
23
0.87150
33
-6.29384
0
3DFACE
8
A2
10
-0.90095
20
1.06257
30
-6.33323
11
-0.77003
21
1.08700
31
-6.37190
12
-0.72372
22
0.92922
32
-6.36016
13
-0.85449
23
0.90195
33
-6.32502
0
3DFACE
8
A2
10
-0.77003
20
1.08700
30
-6.37190
11
-0.63925
21
1.11401
31
-6.40736
12
-0.59306
22
0.95830
32
-6.39305
13
-0.72372
23
0.92922
33
-6.36016
0
3DFACE
8
A2
10
-0.63925
20
1.11401
30
-6.40736
11
-0.50859
21
1.14309
31
-6.44026
12
-0.46245
22
0.98857
32
-6.42445
13
-0.59306
23
0.95830
33
-6.39305
0
3DFACE
8
A2
10
-0.50859
20
1.14309
30
-6.44026
11
-0.37801
21
1.17389
31
-6.47101
12
-0.33191
22
1.02006
32
-6.45435
13
-0.46245
23
0.98857
33
-6.42445
0
3DFACE
8
A2
10
-0.37801
20
1.17389
30
-6.47101
11
-0.24751
21
1.20606
31
-6.50005
12
-0.20143
22
1.05257
32
-6.48296
13
-0.33191
23
1.02006
33
-6.45435
0
3DFACE
8
A2
10
-0.24751
20
1.20606
30
-6.50005
11
-0.11709
21
1.23969
31
-6.52727
12
-0.07100
22
1.08603
32
-6.51039
13
-0.20143
23
1.05257
33
-6.48296
0
3DFACE
8
A2
10
-0.11709
20
1.23969
30
-6.52727
11
0.01340
21
1.27220
31
-6.55589
12
0.05946
22
1.11898
32
-6.53847
13
-0.07100
23
1.08603
33
-6.51039
0
3DFACE
8
A2
10
0.01340
20
1.27220
30
-6.55589
11
0.14391
21
1.30420
31
-6.58514
12
0.18993
22
1.15175
32
-6.56676
13
0.05946
23
1.11898
33
-6.53847
0
3DFACE
8
A2
10
0.14391
20
1.30420
30
-6.58514
11
0.27443
21
1.33603
31
-6.61461
12
0.32040
22
1.18452
32
-6.59506
13
0.18993
23
1.15175
33
-6.56676
0
3DFACE
8
A2
10
0.27443
20
1.33603
30
-6.61461
11
0.40494
21
1.36794
31
-6.64397
12
0.45086
22
1.21738
32
-6.62324
13
0.32040
23
1.18452
33
-6.59506
0
3DFACE
8
A2
10
0.40494
20
1.36794
30
-6.64397
11
0.53546
21
1.39986
31
-6.67333
12
0.58133
22
1.25024
32
-6.65143
13
0.45086
23
1.21738
33
-6.62324
0
3DFACE
8
A2
10
0.53546
20
1.39986
30
-6.67333
11
0.66597
21
1.43186
31
-6.70259
12
0.71179
22
1.28310
32
-6.67961
13
0.58133
23
1.25024
33
-6.65143
0
3DFACE
8
A2
10
0.66597
20
1.43186
30
-6.70259
11
0.79648
21
1.46377
31
-6.73195
12
0.84226
22
1.31596
32
-6.70780
13
0.71179
23
1.28310
33
-6.67961
0
3DFACE
8
A2
10
0.79648
20
1.46377
30
-6.73195
11
0.92700
21
1.49568
31
-6.76131
12
0.97272
22
1.34882
32
-6.73598
13
0.84226
23
1.31596
33
-6.70780
0
3DFACE
8
A2
10
0.92700
20
1.49568
30
-6.76131
11
1.05754
21
1.52717
31
-6.79121
12
1.10319
22
1.38168
32
-6.76417
13
0.97272
23
1.34882
33
-6.73598
0
3DFACE
8
A2
10
1.05754
20
1.52717
30
-6.79121
11
1.18815
21
1.55727
31
-6.82282
12
1.23370
22
1.41368
32
-6.79342
13
1.10319
23
1.38168
33
-6.76417
0
3DFACE
8
A2
10
1.18815
20
1.55727
30
-6.82282
11
1.31864
21
1.58962
31
-6.85165
12
1.36411
22
1.44748
32
-6.82043
13
1.23370
23
1.41368
33
-6.79342
0
3DFACE
8
A2
10
1.31864
20
1.58962
30
-6.85165
11
1.44901
21
1.62428
31
-6.87759
12
1.49443
22
1.48301
32
-6.84530
13
1.36411
23
1.44748
33
-6.82043
0
3DFACE
8
A2
10
1.44901
20
1.62428
30
-6.87759
11
1.57926
21
1.66118
31
-6.90074
12
1.62466
22
1.52025
32
-6.86803
13
1.49443
23
1.48301
33
-6.84530
0
3DFACE
8
A2
10
1.57926
20
1.66118
30
-6.90074
11
1.70937
21
1.70066
31
-6.92069
12
1.75480
22
1.55921
32
-6.88862
13
1.62466
23
1.52025
33
-6.86803
0
3DFACE
8
A2
10
1.70937
20
1.70066
30
-6.92069
11
1.83927
21
1.74392
31
-6.93593
12
1.88480
22
1.60076
32
-6.90600
13
1.75480
23
1.55921
33
-6.88862
0
3DFACE
8
A2
10
1.83927
20
1.74392
30
-6.93593
11
1.96918
21
1.78710
31
-6.95127
12
2.01480
22
1.64221
32
-6.92348
13
1.88480
23
1.60076
33
-6.90600
0
3DFACE
8
A2
10
1.96918
20
1.78710
30
-6.95127
11
2.09909
21
1.83036
31
-6.96651
12
2.14480
22
1.68367
32
-6.94097
13
2.01480
23
1.64221
33
-6.92348
0
3DFACE
8
A2
10
2.09909
20
1.83036
30
-6.96651
11
2.22900
21
1.87354
31
-6.98186
12
2.27481
22
1.72513
32
-6.95846
13
2.14480
23
1.68367
33
-6.94097
0
3DFACE
8
A2
10
2.22900
20
1.87354
30
-6.98186
11
2.35891
21
1.91672
31
-6.99721
12
2.40481
22
1.76659
32
-6.97594
13
2.27481
23
1.72513
33
-6.95846
0
3DFACE
8
A2
10
2.35891
20
1.91672
30
-6.99721
11
2.48882
21
1.95998
31
-7.01245
12
2.53481
22
1.80804
32
-6.99343
13
2.40481
23
1.76659
33
-6.97594
0
3DFACE
8
A2
10
2.48882
20
1.95998
30
-7.01245
11
2.61873
21
2.00316
31
-7.02779
12
2.66482
22
1.84950
32
-7.01091
13
2.53481
23
1.80804
33
-6.99343
0
3DFACE
8
A2
10
2.61873
20
2.00316
30
-7.02779
11
2.74863
21
2.04642
31
-7.04303
12
2.79482
22
1.89096
32
-7.02840
13
2.66482
23
1.84950
33
-7.01091
0
3DFACE
8
A2
10
2.74863
20
2.04642
30
-7.04303
11
2.87855
21
2.08960
31
-7.05838
12
2.92482
22
1.93242
32
-7.04589
13
2.79482
23
1.89096
33
-7.02840
0
3DFACE
8
A2
10
2.87855
20
2.08960
30
-7.05838
11
3.00845
21
2.13286
31
-7.07362
12
3.05482
22
1.97387
32
-7.06337
13
2.92482
23
1.93242
33
-7.04589
0
3DFACE
8
A2
10
3.00845
20
2.13286
30
-7.07362
11
3.13836
21
2.17604
31
-7.08896
12
3.18483
22
2.01533
32
-7.08086
13
3.05482
23
1.97387
33
-7.06337
0
3DFACE
8
A2
10
3.13836
20
2.17604
30
-7.08896
11
3.26864
21
2.21234
31
-7.11287
12
3.31512
22
2.05137
32
-7.10508
13
3.18483
23
2.01533
33
-7.08086
0
3DFACE
8
A2
10
3.26864
20
2.21234
30
-7.11287
11
3.39900
21
2.24717
31
-7.13859
12
3.44548
22
2.08629
32
-7.13070
13
3.31512
23
2.05137
33
-7.10508
0
3DFACE
8
A2
10
3.39900
20
2.24717
30
-7.13859
11
3.52944
21
2.28055
31
-7.16614
12
3.57589
22
2.12001
32
-7.15782
13
3.44548
23
2.08629
33
-7.13070
0
3DFACE
8
A2
10
3.52944
20
2.28055
30
-7.16614
11
3.65996
21
2.31237
31
-7.19561
12
3.70637
22
2.15261
32
-7.18632
13
3.57589
23
2.12001
33
-7.15782
0
3DFACE
8
A2
10
3.65996
20
2.31237
30
-7.19561
11
3.79056
21
2.34265
31
-7.22700
12
3.83691
22
2.18410
32
-7.21622
13
3.70637
23
2.15261
33
-7.18632
0
3DFACE
8
A2
10
3.79056
20
2.34265
30
-7.22700
11
3.92087
21
2.37835
31
-7.25165
12
3.96722
22
2.21979
32
-7.24087
13
3.83691
23
2.18410
33
-7.21622
0
3DFACE
8
A2
10
3.92087
20
2.37835
30
-7.25165
11
4.05118
21
2.41405
31
-7.27631
12
4.09753
22
2.25549
32
-7.26553
13
3.96722
23
2.21979
33
-7.24087
0
3DFACE
8
A2
10
4.05118
20
2.41405
30
-7.27631
11
4.18150
21
2.44974
31
-7.30096
12
4.22785
22
2.29119
32
-7.29018
13
4.09753
23
2.25549
33
-7.26553
0
3DFACE
8
A2
10
4.18150
20
2.44974
30
-7.30096
11
4.31181
21
2.48544
31
-7.32562
12
4.35816
22
2.32688
32
-7.31484
13
4.22785
23
2.29119
33
-7.29018
0
3DFACE
8
A2
10
4.31181
20
2.48544
30
-7.32562
11
4.44212
21
2.52114
31
-7.35027
12
4.48847
22
2.36258
32
-7.33949
13
4.35816
23
2.32688
33
-7.31484
0
3DFACE
8
A2
10
4.44212
20
2.52114
30
-7.35027
11
4.57242
21
2.55700
31
-7.37471
12
4.61877
22
2.39845
32
-7.36393
13
4.48847
23
2.36258
33
-7.33949
0
3DFACE
8
A2
10
4.57242
20
2.55700
30
-7.37471
11
4.70272
21
2.59305
31
-7.39894
12
4.74907
22
2.43440
32
-7.38827
13
4.61877
23
2.39845
33
-7.36393
0
3DFACE
8
A2
10
-2.41775
20
0.46465
30
-6.04029
11
-2.28750
21
0.50138
31
-6.06366
12
-2.24136
22
0.34669
32
-6.04807
13
-2.37159
23
0.30962
33
-6.02513
0
3DFACE
8
A2
10
-2.28750
20
0.50138
30
-6.06366
11
-2.15723
21
0.53793
31
-6.08725
12
-2.11112
22
0.38376
32
-6.07101
13
-2.24136
23
0.34669
33
-6.04807
0
3DFACE
8
A2
10
-2.15723
20
0.53793
30
-6.08725
11
-2.02695
21
0.57415
31
-6.11126
12
-1.98087
22
0.42058
32
-6.09428
13
-2.11112
23
0.38376
33
-6.07101
0
3DFACE
8
A2
10
-2.02695
20
0.57415
30
-6.11126
11
-1.89666
21
0.61036
31
-6.13527
12
-1.85058
22
0.45670
32
-6.11840
13
-1.98087
23
0.42058
33
-6.09428
0
3DFACE
8
A2
10
-1.89666
20
0.61036
30
-6.13527
11
-1.76640
21
0.64700
31
-6.15875
12
-1.72028
22
0.49266
32
-6.14273
13
-1.85058
23
0.45670
33
-6.11840
0
3DFACE
8
A2
10
-1.76640
20
0.64700
30
-6.15875
11
-1.63618
21
0.68433
31
-6.18137
12
-1.58998
22
0.52861
32
-6.16706
13
-1.72028
23
0.49266
33
-6.14273
0
3DFACE
8
A2
10
-1.63618
20
0.68433
30
-6.18137
11
-1.50603
21
0.72304
31
-6.20228
12
-1.45972
22
0.56534
32
-6.19043
13
-1.58998
23
0.52861
33
-6.16706
0
3DFACE
8
A2
10
-1.50603
20
0.72304
30
-6.20228
11
-1.37597
21
0.76355
31
-6.22095
12
-1.32953
22
0.60319
32
-6.21241
13
-1.45972
23
0.56534
33
-6.19043
0
3DFACE
8
A2
10
-1.37597
20
0.76355
30
-6.22095
11
-1.24581
21
0.80200
31
-6.24218
12
-1.19928
22
0.64009
32
-6.23557
13
-1.32953
23
0.60319
33
-6.21241
0
3DFACE
8
A2
10
-1.24581
20
0.80200
30
-6.24218
11
-1.11552
21
0.83812
31
-6.26630
12
-1.06896
22
0.67570
32
-6.26033
13
-1.19928
23
0.64009
33
-6.23557
0
3DFACE
8
A2
10
-1.11552
20
0.83812
30
-6.26630
11
-0.98508
21
0.87150
31
-6.29384
12
-0.93856
22
0.70976
32
-6.28702
13
-1.06896
23
0.67570
33
-6.26033
0
3DFACE
8
A2
10
-0.98508
20
0.87150
30
-6.29384
11
-0.85449
21
0.90195
31
-6.32502
12
-0.80806
22
0.74193
32
-6.31606
13
-0.93856
23
0.70976
33
-6.28702
0
3DFACE
8
A2
10
-0.85449
20
0.90195
30
-6.32502
11
-0.72372
21
0.92922
31
-6.36016
12
-0.67745
22
0.77212
32
-6.34756
13
-0.80806
23
0.74193
33
-6.31606
0
3DFACE
8
A2
10
-0.72372
20
0.92922
30
-6.36016
11
-0.59306
21
0.95830
31
-6.39305
12
-0.54689
22
0.80318
32
-6.37799
13
-0.67745
23
0.77212
33
-6.34756
0
3DFACE
8
A2
10
-0.59306
20
0.95830
30
-6.39305
11
-0.46245
21
0.98857
31
-6.42445
12
-0.41637
22
0.83492
32
-6.40757
13
-0.54689
23
0.80318
33
-6.37799
0
3DFACE
8
A2
10
-0.46245
20
0.98857
30
-6.42445
11
-0.33191
21
1.02006
31
-6.45435
12
-0.28588
22
0.86743
32
-6.43618
13
-0.41637
23
0.83492
33
-6.40757
0
3DFACE
8
A2
10
-0.33191
20
1.02006
30
-6.45435
11
-0.20143
21
1.05257
31
-6.48296
12
-0.15544
22
0.90064
32
-6.46394
13
-0.28588
23
0.86743
33
-6.43618
0
3DFACE
8
A2
10
-0.20143
20
1.05257
30
-6.48296
11
-0.07100
21
1.08603
31
-6.51039
12
-0.02502
22
0.93444
32
-6.49095
13
-0.15544
23
0.90064
33
-6.46394
0
3DFACE
8
A2
10
-0.07100
20
1.08603
30
-6.51039
11
0.05946
21
1.11898
31
-6.53847
12
0.10540
22
0.96816
32
-6.51806
13
-0.02502
23
0.93444
33
-6.49095
0
3DFACE
8
A2
10
0.05946
20
1.11898
30
-6.53847
11
0.18993
21
1.15175
31
-6.56676
12
0.23581
22
1.00188
32
-6.54518
13
0.10540
23
0.96816
33
-6.51806
0
3DFACE
8
A2
10
0.18993
20
1.15175
30
-6.56676
11
0.32040
21
1.18452
31
-6.59506
12
0.36623
22
1.03560
32
-6.57229
13
0.23581
23
1.00188
33
-6.54518
0
3DFACE
8
A2
10
0.32040
20
1.18452
30
-6.59506
11
0.45086
21
1.21738
31
-6.62324
12
0.49665
22
1.06940
32
-6.59930
13
0.36623
23
1.03560
33
-6.57229
0
3DFACE
8
A2
10
0.45086
20
1.21738
30
-6.62324
11
0.58133
21
1.25024
31
-6.65143
12
0.62706
22
1.10321
32
-6.62631
13
0.49665
23
1.06940
33
-6.59930
0
3DFACE
8
A2
10
0.58133
20
1.25024
30
-6.65143
11
0.71179
21
1.28310
31
-6.67961
12
0.75747
22
1.13701
32
-6.65332
13
0.62706
23
1.10321
33
-6.62631
0
3DFACE
8
A2
10
0.71179
20
1.28310
30
-6.67961
11
0.84226
21
1.31596
31
-6.70780
12
0.88789
22
1.17082
32
-6.68033
13
0.75747
23
1.13701
33
-6.65332
0
3DFACE
8
A2
10
0.84226
20
1.31596
30
-6.70780
11
0.97272
21
1.34882
31
-6.73598
12
1.01830
22
1.20462
32
-6.70734
13
0.88789
23
1.17082
33
-6.68033
0
3DFACE
8
A2
10
0.97272
20
1.34882
30
-6.73598
11
1.10319
21
1.38168
31
-6.76417
12
1.14871
22
1.23843
32
-6.73434
13
1.01830
23
1.20462
33
-6.70734
0
3DFACE
8
A2
10
1.10319
20
1.38168
30
-6.76417
11
1.23370
21
1.41368
31
-6.79342
12
1.27913
22
1.27214
32
-6.76146
13
1.14871
23
1.23843
33
-6.73434
0
3DFACE
8
A2
10
1.23370
20
1.41368
30
-6.79342
11
1.36411
21
1.44748
31
-6.82043
12
1.40950
22
1.30690
32
-6.78729
13
1.27913
23
1.27214
33
-6.76146
0
3DFACE
8
A2
10
1.36411
20
1.44748
30
-6.82043
11
1.49443
21
1.48301
31
-6.84530
12
1.53979
22
1.34285
32
-6.81162
13
1.40950
23
1.30690
33
-6.78729
0
3DFACE
8
A2
10
1.49443
20
1.48301
30
-6.84530
11
1.62466
21
1.52025
31
-6.86803
12
1.67003
22
1.37992
32
-6.83457
13
1.53979
23
1.34285
33
-6.81162
0
3DFACE
8
A2
10
1.62466
20
1.52025
30
-6.86803
11
1.75480
21
1.55921
31
-6.88862
12
1.80021
22
1.41811
32
-6.85612
13
1.67003
23
1.37992
33
-6.83457
0
3DFACE
8
A2
10
1.75480
20
1.55921
30
-6.88862
11
1.88480
21
1.60076
31
-6.90600
12
1.93032
22
1.45768
32
-6.87596
13
1.80021
23
1.41811
33
-6.85612
0
3DFACE
8
A2
10
1.88480
20
1.60076
30
-6.90600
11
2.01480
21
1.64221
31
-6.92348
12
2.06042
22
1.49724
32
-6.89580
13
1.93032
23
1.45768
33
-6.87596
0
3DFACE
8
A2
10
2.01480
20
1.64221
30
-6.92348
11
2.14480
21
1.68367
31
-6.94097
12
2.19053
22
1.53672
32
-6.91574
13
2.06042
23
1.49724
33
-6.89580
0
3DFACE
8
A2
10
2.14480
20
1.68367
30
-6.94097
11
2.27481
21
1.72513
31
-6.95846
12
2.32063
22
1.57629
32
-6.93558
13
2.19053
23
1.53672
33
-6.91574
0
3DFACE
8
A2
10
2.27481
20
1.72513
30
-6.95846
11
2.40481
21
1.76659
31
-6.97594
12
2.45074
22
1.61585
32
-6.95542
13
2.32063
23
1.57629
33
-6.93558
0
3DFACE
8
A2
10
2.40481
20
1.76659
30
-6.97594
11
2.53481
21
1.80804
31
-6.99343
12
2.58084
22
1.65542
32
-6.97526
13
2.45074
23
1.61585
33
-6.95542
0
3DFACE
8
A2
10
2.53481
20
1.80804
30
-6.99343
11
2.66482
21
1.84950
31
-7.01091
12
2.71095
22
1.69490
32
-6.99521
13
2.58084
23
1.65542
33
-6.97526
0
3DFACE
8
A2
10
2.66482
20
1.84950
30
-7.01091
11
2.79482
21
1.89096
31
-7.02840
12
2.84106
22
1.73447
32
-7.01505
13
2.71095
23
1.69490
33
-6.99521
0
3DFACE
8
A2
10
2.79482
20
1.89096
30
-7.02840
11
2.92482
21
1.93242
31
-7.04589
12
2.97116
22
1.77403
32
-7.03489
13
2.84106
23
1.73447
33
-7.01505
0
3DFACE
8
A2
10
2.92482
20
1.93242
30
-7.04589
11
3.05482
21
1.97387
31
-7.06337
12
3.10127
22
1.81351
32
-7.05484
13
2.97116
23
1.77403
33
-7.03489
0
3DFACE
8
A2
10
3.05482
20
1.97387
30
-7.06337
11
3.18483
21
2.01533
31
-7.08086
12
3.23138
22
1.85308
32
-7.07468
13
3.10127
23
1.81351
33
-7.05484
0
3DFACE
8
A2
10
3.18483
20
2.01533
30
-7.08086
11
3.31512
21
2.05137
31
-7.10508
12
3.36167
22
1.88912
32
-7.09890
13
3.23138
23
1.85308
33
-7.07468
0
3DFACE
8
A2
10
3.31512
20
2.05137
30
-7.10508
11
3.44548
21
2.08629
31
-7.13070
12
3.49200
22
1.92438
32
-7.12409
13
3.36167
23
1.88912
33
-7.09890
0
3DFACE
8
A2
10
3.44548
20
2.08629
30
-7.13070
11
3.57589
21
2.12001
31
-7.15782
12
3.62238
22
1.95888
32
-7.15025
13
3.49200
23
1.92438
33
-7.12409
0
3DFACE
8
A2
10
3.57589
20
2.12001
30
-7.15782
11
3.70637
21
2.15261
31
-7.18632
12
3.75280
22
1.99260
32
-7.17736
13
3.62238
23
1.95888
33
-7.15025
0
3DFACE
8
A2
10
3.70637
20
2.15261
30
-7.18632
11
3.83691
21
2.18410
31
-7.21622
12
3.88326
22
2.02554
32
-7.20544
13
3.75280
23
1.99260
33
-7.17736
0
3DFACE
8
A2
10
3.83691
20
2.18410
30
-7.21622
11
3.96722
21
2.21979
31
-7.24087
12
4.01357
22
2.06124
32
-7.23009
13
3.88326
23
2.02554
33
-7.20544
0
3DFACE
8
A2
10
3.96722
20
2.21979
30
-7.24087
11
4.09753
21
2.25549
31
-7.26553
12
4.14388
22
2.09693
32
-7.25475
13
4.01357
23
2.06124
33
-7.23009
0
3DFACE
8
A2
10
4.09753
20
2.25549
30
-7.26553
11
4.22785
21
2.29119
31
-7.29018
12
4.27420
22
2.13263
32
-7.27940
13
4.14388
23
2.09693
33
-7.25475
0
3DFACE
8
A2
10
4.22785
20
2.29119
30
-7.29018
11
4.35816
21
2.32688
31
-7.31484
12
4.40451
22
2.16833
32
-7.30406
13
4.27420
23
2.13263
33
-7.27940
0
3DFACE
8
A2
10
4.35816
20
2.32688
30
-7.31484
11
4.48847
21
2.36258
31
-7.33949
12
4.53482
22
2.20402
32
-7.32871
13
4.40451
23
2.16833
33
-7.30406
0
3DFACE
8
A2
10
4.48847
20
2.36258
30
-7.33949
11
4.61877
21
2.39845
31
-7.36393
12
4.66512
22
2.23989
32
-7.35315
13
4.53482
23
2.20402
33
-7.32871
0
3DFACE
8
A2
10
4.61877
20
2.39845
30
-7.36393
11
4.74907
21
2.43440
31
-7.38827
12
4.79542
22
2.27584
32
-7.37749
13
4.66512
23
2.23989
33
-7.35315
0
3DFACE
8
A2
10
-2.37159
20
0.30962
30
-6.02513
11
-2.24136
21
0.34669
31
-6.04807
12
-2.19582
22
0.20335
32
-6.01835
13
-2.32607
23
0.16654
33
-5.99509
0
3DFACE
8
A2
10
-2.24136
20
0.34669
30
-6.04807
11
-2.11112
21
0.38376
31
-6.07101
12
-2.06556
22
0.23991
32
-6.04194
13
-2.19582
23
0.20335
33
-6.01835
0
3DFACE
8
A2
10
-2.11112
20
0.38376
30
-6.07101
11
-1.98087
21
0.42058
31
-6.09428
12
-1.93528
22
0.27629
32
-6.06573
13
-2.06556
23
0.23991
33
-6.04194
0
3DFACE
8
A2
10
-1.98087
20
0.42058
30
-6.09428
11
-1.85058
21
0.45670
31
-6.11840
12
-1.80497
22
0.31199
32
-6.09039
13
-1.93528
23
0.27629
33
-6.06573
0
3DFACE
8
A2
10
-1.85058
20
0.45670
30
-6.11840
11
-1.72028
21
0.49266
31
-6.14273
12
-1.67463
22
0.34717
32
-6.11569
13
-1.80497
23
0.31199
33
-6.09039
0
3DFACE
8
A2
10
-1.72028
20
0.49266
30
-6.14273
11
-1.58998
21
0.52861
31
-6.16706
12
-1.54429
22
0.38244
32
-6.14088
13
-1.67463
23
0.34717
33
-6.11569
0
3DFACE
8
A2
10
-1.58998
20
0.52861
30
-6.16706
11
-1.45972
21
0.56534
31
-6.19043
12
-1.41398
22
0.41805
32
-6.16564
13
-1.54429
23
0.38244
33
-6.14088
0
3DFACE
8
A2
10
-1.45972
20
0.56534
30
-6.19043
11
-1.32953
21
0.60319
31
-6.21241
12
-1.28369
22
0.45426
32
-6.18965
13
-1.41398
23
0.41805
33
-6.16564
0
3DFACE
8
A2
10
-1.32953
20
0.60319
30
-6.21241
11
-1.19928
21
0.64009
31
-6.23557
12
-1.15338
22
0.48996
32
-6.21430
13
-1.28369
23
0.45426
33
-6.18965
0
3DFACE
8
A2
10
-1.19928
20
0.64009
30
-6.23557
11
-1.06896
21
0.67570
31
-6.26033
12
-1.02304
22
0.52522
32
-6.23949
13
-1.15338
23
0.48996
33
-6.21430
0
3DFACE
8
A2
10
-1.06896
20
0.67570
30
-6.26033
11
-0.93856
21
0.70976
31
-6.28702
12
-0.89268
22
0.55997
32
-6.26532
13
-1.02304
23
0.52522
33
-6.23949
0
3DFACE
8
A2
10
-0.93856
20
0.70976
30
-6.28702
11
-0.80806
21
0.74193
31
-6.31606
12
-0.76227
22
0.59386
32
-6.29223
13
-0.89268
23
0.55997
33
-6.26532
0
3DFACE
8
A2
10
-0.80806
20
0.74193
30
-6.31606
11
-0.67745
21
0.77212
31
-6.34756
12
-0.63182
22
0.62689
32
-6.32020
13
-0.76227
23
0.59386
33
-6.29223
0
3DFACE
8
A2
10
-0.67745
20
0.77212
30
-6.34756
11
-0.54689
21
0.80318
31
-6.37799
12
-0.50138
22
0.66027
32
-6.34774
13
-0.63182
23
0.62689
33
-6.32020
0
3DFACE
8
A2
10
-0.54689
20
0.80318
30
-6.37799
11
-0.41637
21
0.83492
31
-6.40757
12
-0.37096
22
0.69399
32
-6.37486
13
-0.50138
23
0.66027
33
-6.34774
0
3DFACE
8
A2
10
-0.41637
20
0.83492
30
-6.40757
11
-0.28588
21
0.86743
31
-6.43618
12
-0.24056
22
0.72805
32
-6.40154
13
-0.37096
23
0.69399
33
-6.37486
0
3DFACE
8
A2
10
-0.28588
20
0.86743
30
-6.43618
11
-0.15544
21
0.90064
31
-6.46394
12
-0.11018
22
0.76237
32
-6.42791
13
-0.24056
23
0.72805
33
-6.40154
0
3DFACE
8
A2
10
-0.15544
20
0.90064
30
-6.46394
11
-0.02502
21
0.93444
31
-6.49095
12
0.02020
22
0.79695
32
-6.45395
13
-0.11018
23
0.76237
33
-6.42791
0
3DFACE
8
A2
10
-0.02502
20
0.93444
30
-6.49095
11
0.10540
21
0.96816
31
-6.51806
12
0.15057
22
0.83153
32
-6.48000
13
0.02020
23
0.79695
33
-6.45395
0
3DFACE
8
A2
10
0.10540
20
0.96816
30
-6.51806
11
0.23581
21
1.00188
31
-6.54518
12
0.28094
22
0.86619
32
-6.50594
13
0.15057
23
0.83153
33
-6.48000
0
3DFACE
8
A2
10
0.23581
20
1.00188
30
-6.54518
11
0.36623
21
1.03560
31
-6.57229
12
0.41130
22
0.90086
32
-6.53188
13
0.28094
23
0.86619
33
-6.50594
0
3DFACE
8
A2
10
0.36623
20
1.03560
30
-6.57229
11
0.49665
21
1.06940
31
-6.59930
12
0.54167
22
0.93561
32
-6.55771
13
0.41130
23
0.90086
33
-6.53188
0
3DFACE
8
A2
10
0.49665
20
1.06940
30
-6.59930
11
0.62706
21
1.10321
31
-6.62631
12
0.67203
22
0.97036
32
-6.58354
13
0.54167
23
0.93561
33
-6.55771
0
3DFACE
8
A2
10
0.62706
20
1.10321
30
-6.62631
11
0.75747
21
1.13701
31
-6.65332
12
0.80239
22
1.00511
32
-6.60937
13
0.67203
23
0.97036
33
-6.58354
0
3DFACE
8
A2
10
0.75747
20
1.13701
30
-6.65332
11
0.88789
21
1.17082
31
-6.68033
12
0.93276
22
1.03986
32
-6.63520
13
0.80239
23
1.00511
33
-6.60937
0
3DFACE
8
A2
10
0.88789
20
1.17082
30
-6.68033
11
1.01830
21
1.20462
31
-6.70734
12
1.06312
22
1.07461
32
-6.66103
13
0.93276
23
1.03986
33
-6.63520
0
3DFACE
8
A2
10
1.01830
20
1.20462
30
-6.70734
11
1.14871
21
1.23843
31
-6.73434
12
1.19348
22
1.10936
32
-6.68687
13
1.06312
23
1.07461
33
-6.66103
0
3DFACE
8
A2
10
1.14871
20
1.23843
30
-6.73434
11
1.27913
21
1.27214
31
-6.76146
12
1.32384
22
1.14411
32
-6.71270
13
1.19348
23
1.10936
33
-6.68687
0
3DFACE
8
A2
10
1.27913
20
1.27214
30
-6.76146
11
1.40950
21
1.30690
31
-6.78729
12
1.45418
22
1.17946
32
-6.73778
13
1.32384
23
1.14411
33
-6.71270
0
3DFACE
8
A2
10
1.40950
20
1.30690
30
-6.78729
11
1.53979
21
1.34285
31
-6.81162
12
1.58447
22
1.21542
32
-6.76211
13
1.45418
23
1.17946
33
-6.73778
0
3DFACE
8
A2
10
1.53979
20
1.34285
30
-6.81162
11
1.67003
21
1.37992
31
-6.83457
12
1.71474
22
1.25189
32
-6.78580
13
1.58447
23
1.21542
33
-6.76211
0
3DFACE
8
A2
10
1.67003
20
1.37992
30
-6.83457
11
1.80021
21
1.41811
31
-6.85612
12
1.84499
22
1.28888
32
-6.80885
13
1.71474
23
1.25189
33
-6.78580
0
3DFACE
8
A2
10
1.80021
20
1.41811
30
-6.85612
11
1.93032
21
1.45768
31
-6.87596
12
1.97519
22
1.32655
32
-6.83105
13
1.84499
23
1.28888
33
-6.80885
0
3DFACE
8
A2
10
1.93032
20
1.45768
30
-6.87596
11
2.06042
21
1.49724
31
-6.89580
12
2.10540
22
1.36414
32
-6.85335
13
1.97519
23
1.32655
33
-6.83105
0
3DFACE
8
A2
10
2.06042
20
1.49724
30
-6.89580
11
2.19053
21
1.53672
31
-6.91574
12
2.23561
22
1.40181
32
-6.87554
13
2.10540
23
1.36414
33
-6.85335
0
3DFACE
8
A2
10
2.19053
20
1.53672
30
-6.91574
11
2.32063
21
1.57629
31
-6.93558
12
2.36582
22
1.43940
32
-6.89784
13
2.23561
23
1.40181
33
-6.87554
0
3DFACE
8
A2
10
2.32063
20
1.57629
30
-6.93558
11
2.45074
21
1.61585
31
-6.95542
12
2.49603
22
1.47699
32
-6.92014
13
2.36582
23
1.43940
33
-6.89784
0
3DFACE
8
A2
10
2.45074
20
1.61585
30
-6.95542
11
2.58084
21
1.65542
31
-6.97526
12
2.62624
22
1.51466
32
-6.94234
13
2.49603
23
1.47699
33
-6.92014
0
3DFACE
8
A2
10
2.58084
20
1.65542
30
-6.97526
11
2.71095
21
1.69490
31
-6.99521
12
2.75645
22
1.55225
32
-6.96464
13
2.62624
23
1.51466
33
-6.94234
0
3DFACE
8
A2
10
2.71095
20
1.69490
30
-6.99521
11
2.84106
21
1.73447
31
-7.01505
12
2.88666
22
1.58992
32
-6.98683
13
2.75645
23
1.55225
33
-6.96464
0
3DFACE
8
A2
10
2.84106
20
1.73447
30
-7.01505
11
2.97116
21
1.77403
31
-7.03489
12
3.01687
22
1.62751
32
-7.00913
13
2.88666
23
1.58992
33
-6.98683
0
3DFACE
8
A2
10
2.97116
20
1.77403
30
-7.03489
11
3.10127
21
1.81351
31
-7.05484
12
3.14708
22
1.66510
32
-7.03143
13
3.01687
23
1.62751
33
-7.00913
0
3DFACE
8
A2
10
3.10127
20
1.81351
30
-7.05484
11
3.23138
21
1.85308
31
-7.07468
12
3.27728
22
1.70277
32
-7.05363
13
3.14708
23
1.66510
33
-7.03143
0
3DFACE
8
A2
10
3.23138
20
1.85308
30
-7.07468
11
3.36167
21
1.88912
31
-7.09890
12
3.40759
22
1.73864
32
-7.07807
13
3.27728
23
1.70277
33
-7.05363
0
3DFACE
8
A2
10
3.36167
20
1.88912
30
-7.09890
11
3.49200
21
1.92438
31
-7.12409
12
3.53791
22
1.77417
32
-7.10294
13
3.40759
23
1.73864
33
-7.07807
0
3DFACE
8
A2
10
3.49200
20
1.92438
30
-7.12409
11
3.62238
21
1.95888
31
-7.15025
12
3.66825
22
1.80935
32
-7.12823
13
3.53791
23
1.77417
33
-7.10294
0
3DFACE
8
A2
10
3.62238
20
1.95888
30
-7.15025
11
3.75280
21
1.99260
31
-7.17736
12
3.79861
22
1.84410
32
-7.15406
13
3.66825
23
1.80935
33
-7.12823
0
3DFACE
8
A2
10
3.75280
20
1.99260
30
-7.17736
11
3.88326
21
2.02554
31
-7.20544
12
3.92899
22
1.87850
32
-7.18032
13
3.79861
23
1.84410
33
-7.15406
0
3DFACE
8
A2
10
3.88326
20
2.02554
30
-7.20544
11
4.01357
21
2.06124
31
-7.23009
12
4.05930
22
1.91420
32
-7.20498
13
3.92899
23
1.87850
33
-7.18032
0
3DFACE
8
A2
10
4.01357
20
2.06124
30
-7.23009
11
4.14388
21
2.09693
31
-7.25475
12
4.18962
22
1.94990
32
-7.22963
13
4.05930
23
1.91420
33
-7.20498
0
3DFACE
8
A2
10
4.14388
20
2.09693
30
-7.25475
11
4.27420
21
2.13263
31
-7.27940
12
4.31993
22
1.98559
32
-7.25429
13
4.18962
23
1.94990
33
-7.22963
0
3DFACE
8
A2
10
4.27420
20
2.13263
30
-7.27940
11
4.40451
21
2.16833
31
-7.30406
12
4.45024
22
2.02129
32
-7.27894
13
4.31993
23
1.98559
33
-7.25429
0
3DFACE
8
A2
10
4.40451
20
2.16833
30
-7.30406
11
4.53482
21
2.20402
31
-7.32871
12
4.58055
22
2.05699
32
-7.30359
13
4.45024
23
2.02129
33
-7.27894
0
3DFACE
8
A2
10
4.53482
20
2.20402
30
-7.32871
11
4.66512
21
2.23989
31
-7.35315
12
4.71086
22
2.09286
32
-7.32804
13
4.58055
23
2.05699
33
-7.30359
0
3DFACE
8
A2
10
4.66512
20
2.23989
30
-7.35315
11
4.79542
21
2.27584
31
-7.37749
12
4.84115
22
2.12890
32
-7.35226
13
4.71086
23
2.09286
33
-7.32804
0
3DFACE
8
A2
10
-2.32607
20
0.16654
30
-5.99509
11
-2.19582
21
0.20335
31
-6.01835
12
-2.15056
22
0.06500
32
-5.98243
13
-2.28085
23
0.02896
33
-5.95820
0
3DFACE
8
A2
10
-2.19582
20
0.20335
30
-6.01835
11
-2.06556
21
0.23991
31
-6.04194
12
-2.02025
22
0.10087
32
-6.00687
13
-2.15056
23
0.06500
33
-5.98243
0
3DFACE
8
A2
10
-2.06556
20
0.23991
30
-6.04194
11
-1.93528
21
0.27629
31
-6.06573
12
-1.88994
22
0.13657
32
-6.03152
13
-2.02025
23
0.10087
33
-6.00687
0
3DFACE
8
A2
10
-1.93528
20
0.27629
30
-6.06573
11
-1.80497
21
0.31199
31
-6.09039
12
-1.75963
22
0.17226
32
-6.05618
13
-1.88994
23
0.13657
33
-6.03152
0
3DFACE
8
A2
10
-1.80497
20
0.31199
30
-6.09039
11
-1.67463
21
0.34717
31
-6.11569
12
-1.62932
22
0.20796
32
-6.08083
13
-1.75963
23
0.17226
33
-6.05618
0
3DFACE
8
A2
10
-1.67463
20
0.34717
30
-6.11569
11
-1.54429
21
0.38244
31
-6.14088
12
-1.49901
22
0.24366
32
-6.10549
13
-1.62932
23
0.20796
33
-6.08083
0
3DFACE
8
A2
10
-1.54429
20
0.38244
30
-6.14088
11
-1.41398
21
0.41805
31
-6.16564
12
-1.36869
22
0.27935
32
-6.13014
13
-1.49901
23
0.24366
33
-6.10549
0
3DFACE
8
A2
10
-1.41398
20
0.41805
30
-6.16564
11
-1.28369
21
0.45426
31
-6.18965
12
-1.23838
22
0.31505
32
-6.15480
13
-1.36869
23
0.27935
33
-6.13014
0
3DFACE
8
A2
10
-1.28369
20
0.45426
30
-6.18965
11
-1.15338
21
0.48996
31
-6.21430
12
-1.10807
22
0.35075
32
-6.17945
13
-1.23838
23
0.31505
33
-6.15480
0
3DFACE
8
A2
10
-1.15338
20
0.48996
30
-6.21430
11
-1.02304
21
0.52522
31
-6.23949
12
-0.97776
22
0.38644
32
-6.20410
13
-1.10807
23
0.35075
33
-6.17945
0
3DFACE
8
A2
10
-1.02304
20
0.52522
30
-6.23949
11
-0.89268
21
0.55997
31
-6.26532
12
-0.84744
22
0.42214
32
-6.22876
13
-0.97776
23
0.38644
33
-6.20410
0
3DFACE
8
A2
10
-0.89268
20
0.55997
30
-6.26532
11
-0.76227
21
0.59386
31
-6.29223
12
-0.71713
22
0.45783
32
-6.25341
13
-0.84744
23
0.42214
33
-6.22876
0
3DFACE
8
A2
10
-0.76227
20
0.59386
30
-6.29223
11
-0.63182
21
0.62689
31
-6.32020
12
-0.58682
22
0.49353
32
-6.27807
13
-0.71713
23
0.45783
33
-6.25341
0
3DFACE
8
A2
10
-0.63182
20
0.62689
30
-6.32020
11
-0.50138
21
0.66027
31
-6.34774
12
-0.45651
22
0.52923
32
-6.30272
13
-0.58682
23
0.49353
33
-6.27807
0
3DFACE
8
A2
10
-0.50138
20
0.66027
30
-6.34774
11
-0.37096
21
0.69399
31
-6.37486
12
-0.32619
22
0.56492
32
-6.32738
13
-0.45651
23
0.52923
33
-6.30272
0
3DFACE
8
A2
10
-0.37096
20
0.69399
30
-6.37486
11
-0.24056
21
0.72805
31
-6.40154
12
-0.19588
22
0.60062
32
-6.35203
13
-0.32619
23
0.56492
33
-6.32738
0
3DFACE
8
A2
10
-0.24056
20
0.72805
30
-6.40154
11
-0.11018
21
0.76237
31
-6.42791
12
-0.06558
22
0.63640
32
-6.37658
13
-0.19588
23
0.60062
33
-6.35203
0
3DFACE
8
A2
10
-0.11018
20
0.76237
30
-6.42791
11
0.02020
21
0.79695
31
-6.45395
12
0.06474
22
0.67210
32
-6.40123
13
-0.06558
23
0.63640
33
-6.37658
0
3DFACE
8
A2
10
0.02020
20
0.79695
30
-6.45395
11
0.15057
21
0.83153
31
-6.48000
12
0.19505
22
0.70780
32
-6.42589
13
0.06474
23
0.67210
33
-6.40123
0
3DFACE
8
A2
10
0.15057
20
0.83153
30
-6.48000
11
0.28094
21
0.86619
31
-6.50594
12
0.32536
22
0.74349
32
-6.45054
13
0.19505
23
0.70780
33
-6.42589
0
3DFACE
8
A2
10
0.28094
20
0.86619
30
-6.50594
11
0.41130
21
0.90086
31
-6.53188
12
0.45567
22
0.77919
32
-6.47520
13
0.32536
23
0.74349
33
-6.45054
0
3DFACE
8
A2
10
0.41130
20
0.90086
30
-6.53188
11
0.54167
21
0.93561
31
-6.55771
12
0.58599
22
0.81488
32
-6.49985
13
0.45567
23
0.77919
33
-6.47520
0
3DFACE
8
A2
10
0.54167
20
0.93561
30
-6.55771
11
0.67203
21
0.97036
31
-6.58354
12
0.71630
22
0.85058
32
-6.52451
13
0.58599
23
0.81488
33
-6.49985
0
3DFACE
8
A2
10
0.67203
20
0.97036
30
-6.58354
11
0.80239
21
1.00511
31
-6.60937
12
0.84661
22
0.88628
32
-6.54916
13
0.71630
23
0.85058
33
-6.52451
0
3DFACE
8
A2
10
0.80239
20
1.00511
30
-6.60937
11
0.93276
21
1.03986
31
-6.63520
12
0.97692
22
0.92197
32
-6.57382
13
0.84661
23
0.88628
33
-6.54916
0
3DFACE
8
A2
10
0.93276
20
1.03986
30
-6.63520
11
1.06312
21
1.07461
31
-6.66103
12
1.10724
22
0.95767
32
-6.59847
13
0.97692
23
0.92197
33
-6.57382
0
3DFACE
8
A2
10
1.06312
20
1.07461
30
-6.66103
11
1.19348
21
1.10936
31
-6.68687
12
1.23755
22
0.99337
32
-6.62312
13
1.10724
23
0.95767
33
-6.59847
0
3DFACE
8
A2
10
1.19348
20
1.10936
30
-6.68687
11
1.32384
21
1.14411
31
-6.71270
12
1.36786
22
1.02906
32
-6.64778
13
1.23755
23
0.99337
33
-6.62312
0
3DFACE
8
A2
10
1.32384
20
1.14411
30
-6.71270
11
1.45418
21
1.17946
31
-6.73778
12
1.49817
22
1.06476
32
-6.67243
13
1.36786
23
1.02906
33
-6.64778
0
3DFACE
8
A2
10
1.45418
20
1.17946
30
-6.73778
11
1.58447
21
1.21542
31
-6.76211
12
1.62848
22
1.10046
32
-6.69709
13
1.49817
23
1.06476
33
-6.67243
0
3DFACE
8
A2
10
1.58447
20
1.21542
30
-6.76211
11
1.71474
21
1.25189
31
-6.78580
12
1.75880
22
1.13615
32
-6.72174
13
1.62848
23
1.10046
33
-6.69709
0
3DFACE
8
A2
10
1.71474
20
1.25189
30
-6.78580
11
1.84499
21
1.28888
31
-6.80885
12
1.88911
22
1.17185
32
-6.74640
13
1.75880
23
1.13615
33
-6.72174
0
3DFACE
8
A2
10
1.84499
20
1.28888
30
-6.80885
11
1.97519
21
1.32655
31
-6.83105
12
2.01942
22
1.20755
32
-6.77105
13
1.88911
23
1.17185
33
-6.74640
0
3DFACE
8
A2
10
1.97519
20
1.32655
30
-6.83105
11
2.10540
21
1.36414
31
-6.85335
12
2.14973
22
1.24324
32
-6.79571
13
2.01942
23
1.20755
33
-6.77105
0
3DFACE
8
A2
10
2.10540
20
1.36414
30
-6.85335
11
2.23561
21
1.40181
31
-6.87554
12
2.28005
22
1.27894
32
-6.82036
13
2.14973
23
1.24324
33
-6.79571
0
3DFACE
8
A2
10
2.23561
20
1.40181
30
-6.87554
11
2.36582
21
1.43940
31
-6.89784
12
2.41036
22
1.31463
32
-6.84501
13
2.28005
23
1.27894
33
-6.82036
0
3DFACE
8
A2
10
2.36582
20
1.43940
30
-6.89784
11
2.49603
21
1.47699
31
-6.92014
12
2.54067
22
1.35033
32
-6.86967
13
2.41036
23
1.31463
33
-6.84501
0
3DFACE
8
A2
10
2.49603
20
1.47699
30
-6.92014
11
2.62624
21
1.51466
31
-6.94234
12
2.67098
22
1.38611
32
-6.89422
13
2.54067
23
1.35033
33
-6.86967
0
3DFACE
8
A2
10
2.62624
20
1.51466
30
-6.94234
11
2.75645
21
1.55225
31
-6.96464
12
2.80129
22
1.42181
32
-6.91887
13
2.67098
23
1.38611
33
-6.89422
0
3DFACE
8
A2
10
2.75645
20
1.55225
30
-6.96464
11
2.88666
21
1.58992
31
-6.98683
12
2.93160
22
1.45751
32
-6.94353
13
2.80129
23
1.42181
33
-6.91887
0
3DFACE
8
A2
10
2.88666
20
1.58992
30
-6.98683
11
3.01687
21
1.62751
31
-7.00913
12
3.06191
22
1.49320
32
-6.96818
13
2.93160
23
1.45751
33
-6.94353
0
3DFACE
8
A2
10
3.01687
20
1.62751
30
-7.00913
11
3.14708
21
1.66510
31
-7.03143
12
3.19223
22
1.52890
32
-6.99283
13
3.06191
23
1.49320
33
-6.96818
0
3DFACE
8
A2
10
3.14708
20
1.66510
30
-7.03143
11
3.27728
21
1.70277
31
-7.05363
12
3.32254
22
1.56460
32
-7.01749
13
3.19223
23
1.52890
33
-6.99283
0
3DFACE
8
A2
10
3.27728
20
1.70277
30
-7.05363
11
3.40759
21
1.73864
31
-7.07807
12
3.45285
22
1.60029
32
-7.04214
13
3.32254
23
1.56460
33
-7.01749
0
3DFACE
8
A2
10
3.40759
20
1.73864
30
-7.07807
11
3.53791
21
1.77417
31
-7.10294
12
3.58316
22
1.63599
32
-7.06680
13
3.45285
23
1.60029
33
-7.04214
0
3DFACE
8
A2
10
3.53791
20
1.77417
30
-7.10294
11
3.66825
21
1.80935
31
-7.12823
12
3.71348
22
1.67168
32
-7.09145
13
3.58316
23
1.63599
33
-7.06680
0
3DFACE
8
A2
10
3.66825
20
1.80935
30
-7.12823
11
3.79861
21
1.84410
31
-7.15406
12
3.84379
22
1.70738
32
-7.11611
13
3.71348
23
1.67168
33
-7.09145
0
3DFACE
8
A2
10
3.79861
20
1.84410
30
-7.15406
11
3.92899
21
1.87850
31
-7.18032
12
3.97410
22
1.74308
32
-7.14076
13
3.84379
23
1.70738
33
-7.11611
0
3DFACE
8
A2
10
3.92899
20
1.87850
30
-7.18032
11
4.05930
21
1.91420
31
-7.20498
12
4.10441
22
1.77877
32
-7.16542
13
3.97410
23
1.74308
33
-7.14076
0
3DFACE
8
A2
10
4.05930
20
1.91420
30
-7.20498
11
4.18962
21
1.94990
31
-7.22963
12
4.23472
22
1.81447
32
-7.19007
13
4.10441
23
1.77877
33
-7.16542
0
3DFACE
8
A2
10
4.18962
20
1.94990
30
-7.22963
11
4.31993
21
1.98559
31
-7.25429
12
4.36504
22
1.85017
32
-7.21472
13
4.23472
23
1.81447
33
-7.19007
0
3DFACE
8
A2
10
4.31993
20
1.98559
30
-7.25429
11
4.45024
21
2.02129
31
-7.27894
12
4.49535
22
1.88586
32
-7.23938
13
4.36504
23
1.85017
33
-7.21472
0
3DFACE
8
A2
10
4.45024
20
2.02129
30
-7.27894
11
4.58055
21
2.05699
31
-7.30359
12
4.62566
22
1.92156
32
-7.26403
13
4.49535
23
1.88586
33
-7.23938
0
3DFACE
8
A2
10
4.58055
20
2.05699
30
-7.30359
11
4.71086
21
2.09286
31
-7.32804
12
4.75596
22
1.95743
32
-7.28847
13
4.62566
23
1.92156
33
-7.26403
0
3DFACE
8
A2
10
4.71086
20
2.09286
30
-7.32804
11
4.84115
21
2.12890
31
-7.35226
12
4.88626
22
1.99347
32
-7.31270
13
4.75596
23
1.95743
33
-7.28847
0
ENDSEC
0
EOF
