# A2, mesh coordinates of D:/code_ws/outputs/2026-09-09/gpr_raw_audit\model\registered\A\A2_in_mesh.obj
o A2
v -3.29684 3.44817 -6.28128
v -3.16655 3.48421 -6.30551
v -3.03625 3.52008 -6.32995
v -2.90593 3.55578 -6.35461
v -2.77562 3.59148 -6.37926
v -2.64531 3.62717 -6.40391
v -2.51500 3.66287 -6.42857
v -2.38468 3.69856 -6.45322
v -2.25437 3.73426 -6.47788
v -2.12406 3.76996 -6.50253
v -1.99375 3.80565 -6.52719
v -1.86344 3.84135 -6.55184
v -1.73312 3.87705 -6.57650
v -1.60276 3.91171 -6.60243
v -1.47240 3.94663 -6.62805
v -1.34206 3.98173 -6.65346
v -1.21172 4.01691 -6.67875
v -1.08137 4.05200 -6.70416
v -0.95107 4.08796 -6.72849
v -0.82071 4.12262 -6.75443
v -0.69033 4.15711 -6.78058
v -0.55995 4.19161 -6.80673
v -0.42960 4.22653 -6.83235
v -0.29928 4.26205 -6.85722
v -0.16902 4.29870 -6.88070
v -0.03875 4.33534 -6.90417
v 0.09148 4.37250 -6.92701
v 0.22174 4.40923 -6.95038
v 0.35202 4.44552 -6.97428
v 0.48230 4.48174 -6.99830
v 0.61264 4.51692 -7.02359
v 0.74304 4.55098 -7.05028
v 0.87343 4.58521 -7.07675
v 1.00377 4.62039 -7.10205
v 1.13411 4.65566 -7.12724
v 1.26438 4.69205 -7.15104
v 1.39459 4.72963 -7.17334
v 1.52481 4.76714 -7.19575
v 1.65507 4.80378 -7.21922
v 1.78534 4.84025 -7.24292
v 1.91561 4.87672 -7.26661
v 2.04592 4.91241 -7.29126
v 2.17624 4.94811 -7.31592
v 2.30655 4.98381 -7.34057
v 2.43686 5.01950 -7.36523
v 2.56717 5.05520 -7.38988
v 2.69748 5.09090 -7.41453
v 2.82780 5.12659 -7.43919
v 2.95811 5.16229 -7.46384
v 3.08842 5.19799 -7.48850
v 3.21873 5.23368 -7.51315
v 3.34905 5.26938 -7.53781
v 3.47936 5.30508 -7.56246
v 3.60967 5.34077 -7.58712
v 3.73997 5.37664 -7.61156
v 3.87027 5.41268 -7.63578
v -3.25173 3.31275 -6.24172
v -3.12144 3.34879 -6.26595
v -2.99114 3.38466 -6.29039
v -2.86082 3.42035 -6.31504
v -2.73051 3.45605 -6.33970
v -2.60020 3.49174 -6.36435
v -2.46982 3.52615 -6.39061
v -2.33945 3.56082 -6.41655
v -2.20909 3.59565 -6.44228
v -2.07875 3.63075 -6.46768
v -1.94842 3.66610 -6.49276
v -1.81817 3.70291 -6.51603
v -1.68791 3.73973 -6.53929
v -1.55759 3.77525 -6.56416
v -1.42727 3.81069 -6.58913
v -1.29694 3.84613 -6.61411
v -1.16659 3.88122 -6.63951
v -1.03622 3.91580 -6.66556
v -0.90589 3.95115 -6.69064
v -0.77549 3.98513 -6.71743
v -0.64508 4.01902 -6.74434
v -0.51468 4.05308 -6.77102
v -0.38431 4.08766 -6.79707
v -0.25397 4.12284 -6.82236
v -0.12370 4.15949 -6.84584
v 0.00656 4.19613 -6.86932
v 0.13675 4.23397 -6.89130
v 0.26693 4.27225 -6.91274
v 0.39712 4.31010 -6.93472
v 0.52735 4.34743 -6.95735
v 0.65768 4.38278 -6.98243
v 0.78814 4.41581 -7.01040
v 0.91861 4.44841 -7.03891
v 1.04904 4.48204 -7.06613
v 1.17944 4.51602 -7.09292
v 1.30973 4.55215 -7.11704
v 1.43993 4.58999 -7.13902
v 1.57013 4.62775 -7.16111
v 1.70037 4.66483 -7.18405
v 1.83059 4.70224 -7.20656
v 1.96082 4.73949 -7.22929
v 2.09109 4.77587 -7.25309
v 2.22137 4.81217 -7.27700
v 2.35166 4.84838 -7.30101
v 2.48197 4.88408 -7.32566
v 2.61228 4.91977 -7.35032
v 2.74259 4.95547 -7.37497
v 2.87291 4.99117 -7.39963
v 3.00322 5.02686 -7.42428
v 3.13353 5.06256 -7.44894
v 3.26384 5.09826 -7.47359
v 3.39415 5.13395 -7.49825
v 3.52447 5.16965 -7.52290
v 3.65478 5.20534 -7.54756
v 3.78508 5.24121 -7.57200
v 3.91538 5.27725 -7.59622
v -3.20594 3.16451 -6.21810
v -3.07558 3.19943 -6.24372
v -2.94523 3.23444 -6.26923
v -2.81489 3.26953 -6.29464
v -2.68456 3.30489 -6.31972
v -2.55430 3.34161 -6.34309
v -2.42398 3.37714 -6.36796
v -2.29367 3.41292 -6.39250
v -2.16338 3.44888 -6.41684
v -2.03309 3.48500 -6.44096
v -1.90280 3.52113 -6.46508
v -1.77257 3.55837 -6.48781
v -1.64233 3.59544 -6.51075
v -1.51201 3.63097 -6.53562
v -1.38166 3.66606 -6.56102
v -1.25130 3.70081 -6.58685
v -1.12091 3.73513 -6.61322
v -0.99050 3.76885 -6.64033
v -0.86012 3.80335 -6.66649
v -0.72968 3.83663 -6.69414
v -0.59925 3.87018 -6.72146
v -0.46884 3.90407 -6.74837
v -0.33845 3.93822 -6.77495
v -0.20808 3.97289 -6.80088
v -0.07779 4.00901 -6.82500
v 0.05250 4.04522 -6.84902
v 0.18268 4.08333 -6.87068
v 0.31278 4.12298 -6.89041
v 0.44286 4.16298 -6.90971
v 0.57302 4.20160 -6.93073
v 0.70334 4.23712 -6.95560
v 0.83383 4.26955 -6.98432
v 0.96439 4.30060 -7.01475
v 1.09492 4.33209 -7.04465
v 1.22540 4.36469 -7.07315
v 1.35571 4.40055 -7.09759
v 1.48590 4.43849 -7.11947
v 1.61609 4.47650 -7.14123
v 1.74631 4.51383 -7.16385
v 1.87650 4.55177 -7.18573
v 2.00670 4.58953 -7.20781
v 2.13695 4.62651 -7.23086
v 2.26720 4.66341 -7.25402
v 2.39745 4.70014 -7.27739
v 2.52774 4.73635 -7.30140
v 2.65803 4.77239 -7.32563
v 2.78833 4.80835 -7.34996
v 2.91864 4.84413 -7.37451
v 3.04895 4.87983 -7.39917
v 3.17926 4.91561 -7.42371
v 3.30957 4.95131 -7.44837
v 3.43988 4.98700 -7.47302
v 3.57019 5.02270 -7.49768
v 3.70051 5.05840 -7.52233
v 3.83081 5.09426 -7.54677
v 3.96111 5.13022 -7.57111
v -3.15935 3.00148 -6.21289
v -3.02902 3.03692 -6.23786
v -2.89871 3.07261 -6.26252
v -2.76841 3.10857 -6.28685
v -2.63812 3.14469 -6.31097
v -2.50792 3.18237 -6.33316
v -2.37764 3.21875 -6.35696
v -2.24737 3.25531 -6.38055
v -2.11712 3.29212 -6.40381
v -1.98687 3.32894 -6.42707
v -1.85660 3.36541 -6.45077
v -1.72638 3.40291 -6.47317
v -1.59615 3.43998 -6.49612
v -1.46581 3.47525 -6.52131
v -1.33544 3.50983 -6.54735
v -1.20504 3.54398 -6.57393
v -1.07462 3.57769 -6.60105
v -0.94417 3.61081 -6.62891
v -0.81376 3.64462 -6.65592
v -0.68330 3.67748 -6.68410
v -0.55285 3.71076 -6.71175
v -0.42243 3.74431 -6.73908
v -0.29201 3.77812 -6.76609
v -0.16162 3.81226 -6.79267
v -0.03129 3.84770 -6.81765
v 0.09903 3.88323 -6.84252
v 0.22923 3.92107 -6.86450
v 0.35929 3.96141 -6.88337
v 0.48926 4.00356 -6.90000
v 0.61934 4.04347 -6.91941
v 0.74965 4.07934 -6.94386
v 0.88016 4.11134 -6.97311
v 1.01078 4.14118 -7.00504
v 1.14144 4.17043 -7.03772
v 1.27198 4.20192 -7.06762
v 1.40231 4.23727 -7.09270
v 1.53250 4.27520 -7.11457
v 1.66268 4.31339 -7.13612
v 1.79290 4.35089 -7.15853
v 1.92307 4.38908 -7.18008
v 2.05324 4.42744 -7.20142
v 2.18345 4.46503 -7.22372
v 2.31367 4.50253 -7.24613
v 2.44389 4.53986 -7.26875
v 2.57415 4.57659 -7.29212
v 2.70442 4.61315 -7.31571
v 2.83470 4.64945 -7.33961
v 2.96499 4.68549 -7.36384
v 3.09530 4.72127 -7.38839
v 3.22561 4.75697 -7.41304
v 3.35592 4.79266 -7.43769
v 3.48624 4.82836 -7.46235
v 3.61655 4.86406 -7.48700
v 3.74686 4.89975 -7.51166
v 3.87716 4.93562 -7.53610
v 4.00746 4.97166 -7.56032
v -3.11274 2.83811 -6.20810
v -2.98244 2.87406 -6.23243
v -2.85217 2.91045 -6.25623
v -2.72191 2.94717 -6.27960
v -2.59167 2.98416 -6.30265
v -2.46151 3.02269 -6.32377
v -2.33128 3.05994 -6.34650
v -2.20106 3.09735 -6.36902
v -2.07085 3.13503 -6.39121
v -1.94063 3.17244 -6.41373
v -1.81038 3.20934 -6.43688
v -1.68018 3.24702 -6.45908
v -1.54994 3.28409 -6.48202
v -1.41959 3.31910 -6.50753
v -1.28920 3.35342 -6.53390
v -1.15879 3.38731 -6.56080
v -1.02836 3.42069 -6.58834
v -0.89789 3.45346 -6.61663
v -0.76745 3.48683 -6.64418
v -0.63702 3.52038 -6.67150
v -0.50662 3.55436 -6.69830
v -0.37622 3.58851 -6.72488
v -0.24581 3.62231 -6.75189
v -0.11541 3.65637 -6.77858
v 0.01499 3.69052 -6.80516
v 0.14539 3.72441 -6.83206
v 0.27567 3.76080 -6.85586
v 0.40577 3.80045 -6.87559
v 0.53564 3.84431 -6.89008
v 0.66573 3.88414 -6.90960
v 0.79601 3.92044 -6.93350
v 0.92649 3.95312 -6.96190
v 1.05708 3.98357 -6.99308
v 1.18788 4.01016 -7.02908
v 1.31844 4.04129 -7.05940
v 1.44881 4.07596 -7.08534
v 1.57906 4.11286 -7.10850
v 1.70928 4.15019 -7.13112
v 1.83949 4.18778 -7.15342
v 1.96966 4.22614 -7.17476
v 2.09981 4.26485 -7.19567
v 2.22999 4.30304 -7.21722
v 2.36017 4.34114 -7.23888
v 2.49036 4.37907 -7.26075
v 2.62058 4.41657 -7.28316
v 2.75082 4.45365 -7.30610
v 2.88107 4.49037 -7.32947
v 3.01135 4.52676 -7.35327
v 3.14165 4.56271 -7.37760
v 3.27196 4.59841 -7.40226
v 3.40227 4.63411 -7.42691
v 3.53259 4.66980 -7.45157
v 3.66290 4.70550 -7.47622
v 3.79321 4.74119 -7.50088
v 3.92351 4.77706 -7.52532
v 4.05381 4.81310 -7.54954
v -3.06614 2.67491 -6.20310
v -2.93588 2.71155 -6.22657
v -2.80565 2.74888 -6.24919
v -2.67547 2.78690 -6.27096
v -2.54530 2.82526 -6.29230
v -2.41521 2.86508 -6.31182
v -2.28505 2.90370 -6.33283
v -2.15491 2.94249 -6.35364
v -2.02478 2.98163 -6.37401
v -1.89460 3.01982 -6.39556
v -1.76437 3.05706 -6.41829
v -1.63415 3.09457 -6.44070
v -1.50387 3.13086 -6.46460
v -1.37351 3.16562 -6.49044
v -1.24313 3.19994 -6.51680
v -1.11272 3.23383 -6.54370
v -0.98228 3.26720 -6.57125
v -0.85182 3.30023 -6.59922
v -0.72137 3.33326 -6.62719
v -0.59092 3.36647 -6.65495
v -0.46051 3.40036 -6.68185
v -0.33013 3.43468 -6.70821
v -0.19971 3.46840 -6.73533
v -0.06927 3.50169 -6.76298
v 0.06118 3.53480 -6.79084
v 0.19164 3.56775 -6.81892
v 0.32201 3.60250 -6.84475
v 0.45214 3.64155 -6.86524
v 0.58196 3.68644 -6.87844
v 0.71203 3.72653 -6.89764
v 0.84228 3.76351 -6.92069
v 0.97270 3.79714 -6.94791
v 1.10329 3.82760 -6.97909
v 1.23414 3.85332 -7.01616
v 1.36472 3.88411 -7.04691
v 1.49512 3.91809 -7.07371
v 1.62541 3.95422 -7.09783
v 1.75572 3.98991 -7.12248
v 1.88596 4.02707 -7.14532
v 2.01616 4.06475 -7.16751
v 2.14635 4.10276 -7.18927
v 2.27653 4.14095 -7.21083
v 2.40666 4.17992 -7.23142
v 2.53686 4.21785 -7.25329
v 2.66704 4.25604 -7.27484
v 2.79724 4.29380 -7.29693
v 2.92746 4.33113 -7.31955
v 3.05772 4.36786 -7.34292
v 3.18800 4.40416 -7.36682
v 3.31831 4.43985 -7.39148
v 3.44862 4.47555 -7.41613
v 3.57894 4.51124 -7.44079
v 3.70925 4.54694 -7.46544
v 3.83956 4.58264 -7.49010
v 3.96986 4.61851 -7.51454
v 4.10016 4.65455 -7.53876
v -3.01960 2.51274 -6.19681
v -2.88933 2.54921 -6.22050
v -2.75911 2.58671 -6.24291
v -2.62894 2.62507 -6.26425
v -2.49884 2.66464 -6.28409
v -2.36882 2.70584 -6.30189
v -2.23880 2.74704 -6.31970
v -2.10880 2.78841 -6.33729
v -1.97883 2.83055 -6.35392
v -1.84877 2.87098 -6.37269
v -1.71861 2.90951 -6.39382
v -1.58835 2.94616 -6.41729
v -1.45799 2.98091 -6.44313
v -1.32748 3.01299 -6.47227
v -1.19699 3.04533 -6.50110
v -1.06651 3.07802 -6.52950
v -0.93606 3.11114 -6.55736
v -0.80563 3.14460 -6.58480
v -0.67522 3.17840 -6.61181
v -0.54480 3.21221 -6.63882
v -0.41442 3.24653 -6.66518
v -0.28404 3.28094 -6.69144
v -0.15362 3.31474 -6.71845
v -0.02317 3.34777 -6.74642
v 0.10729 3.38072 -6.77450
v 0.23778 3.41306 -6.80333
v 0.36822 3.44652 -6.83076
v 0.49840 3.48454 -6.85253
v 0.62821 3.52969 -6.86541
v 0.75827 3.57003 -6.88429
v 0.88852 3.60685 -6.90756
v 1.01891 3.64117 -6.93392
v 1.14947 3.67222 -6.96435
v 1.28036 3.69725 -7.00228
v 1.41096 3.72753 -7.03367
v 1.54135 3.76185 -7.06004
v 1.67163 3.79807 -7.08405
v 1.80194 3.83385 -7.10860
v 1.93218 3.87084 -7.13165
v 2.06241 3.90808 -7.15437
v 2.19259 3.94618 -7.17603
v 2.32279 3.98412 -7.19791
v 2.45297 4.02222 -7.21957
v 2.58319 4.05955 -7.24219
v 2.71338 4.09757 -7.26395
v 2.84361 4.13481 -7.28668
v 2.97385 4.17188 -7.30962
v 3.10409 4.20896 -7.33257
v 3.23435 4.24560 -7.35604
v 3.36466 4.28129 -7.38070
v 3.49497 4.31699 -7.40535
v 3.62529 4.35269 -7.43001
v 3.75560 4.38838 -7.45466
v 3.88591 4.42408 -7.47932
v 4.01621 4.45995 -7.50376
v 4.14651 4.49590 -7.52809
v -2.97321 2.35341 -6.18699
v -2.84295 2.39014 -6.21036
v -2.71275 2.42790 -6.23245
v -2.58260 2.46660 -6.25336
v -2.45252 2.50668 -6.27256
v -2.32251 2.54805 -6.29015
v -2.19251 2.58960 -6.30753
v -2.06256 2.63191 -6.32394
v -1.93266 2.67535 -6.33897
v -1.80264 2.71655 -6.35678
v -1.67251 2.75551 -6.37737
v -1.54224 2.79207 -6.40095
v -1.41182 2.82579 -6.42807
v -1.28122 2.85607 -6.45946
v -1.15067 2.88738 -6.48957
v -1.02019 2.91998 -6.51808
v -0.88977 2.95361 -6.54530
v -0.75939 2.98802 -6.57156
v -0.62904 3.02311 -6.59696
v -0.49868 3.05795 -6.62269
v -0.36832 3.09270 -6.64852
v -0.23795 3.12728 -6.67456
v -0.10753 3.16100 -6.70168
v 0.02290 3.19454 -6.72901
v 0.15332 3.22818 -6.75623
v 0.28383 3.26018 -6.78549
v 0.41430 3.29295 -6.81378
v 0.54452 3.33028 -6.83640
v 0.67432 3.37552 -6.84918
v 0.80445 3.41474 -6.86945
v 0.93472 3.45121 -6.89314
v 1.06508 3.48605 -6.91886
v 1.19562 3.51745 -6.94887
v 1.32655 3.54171 -6.98775
v 1.45712 3.57242 -7.01861
v 1.58747 3.60742 -7.04412
v 1.71774 3.64407 -7.06760
v 1.84802 3.68037 -7.09150
v 1.97824 3.71778 -7.11402
v 2.10847 3.75494 -7.13685
v 2.23867 3.79279 -7.15883
v 2.36886 3.83072 -7.18071
v 2.49903 3.86908 -7.20204
v 2.62924 3.90658 -7.22445
v 2.75948 3.94374 -7.24729
v 2.88975 3.98021 -7.27098
v 3.02005 4.01608 -7.29542
v 3.15037 4.05169 -7.32018
v 3.28070 4.08696 -7.34537
v 3.41102 4.12265 -7.37003
v 3.54133 4.15835 -7.39468
v 3.67163 4.19413 -7.41923
v 3.80195 4.22983 -7.44388
v 3.93226 4.26552 -7.46854
v 4.06257 4.30131 -7.49308
v 4.19286 4.33735 -7.51731
v -2.92699 2.19734 -6.17311
v -2.79665 2.23261 -6.19830
v -2.66637 2.26891 -6.22220
v -2.53615 2.30624 -6.24482
v -2.40603 2.34546 -6.26509
v -2.27600 2.38640 -6.28322
v -2.14605 2.42898 -6.29932
v -2.01617 2.47267 -6.31402
v -1.88636 2.51782 -6.32691
v -1.75643 2.56057 -6.34279
v -1.62636 2.60074 -6.36188
v -1.49613 2.63798 -6.38461
v -1.36571 2.67162 -6.41183
v -1.23508 2.70138 -6.44387
v -1.10451 2.73235 -6.47440
v -0.97402 2.76469 -6.50323
v -0.84358 2.79806 -6.53077
v -0.71320 2.83256 -6.55693
v -0.58288 2.86808 -6.58180
v -0.45254 2.90326 -6.60709
v -0.32220 2.93836 -6.63250
v -0.19185 2.97337 -6.65801
v -0.06147 3.00777 -6.68427
v 0.06890 3.04244 -6.71020
v 0.19927 3.07702 -6.73625
v 0.32979 3.10893 -6.76561
v 0.46026 3.14162 -6.79401
v 0.59050 3.17869 -6.81695
v 0.72034 3.22315 -6.83069
v 0.85057 3.26048 -6.85332
v 0.98085 3.29670 -6.87733
v 1.11120 3.33162 -6.90295
v 1.24175 3.36302 -6.93295
v 1.37267 3.38728 -6.97183
v 1.50319 3.41919 -7.00120
v 1.63348 3.45523 -7.02542
v 1.76371 3.49247 -7.04815
v 1.89395 3.52946 -7.07120
v 2.02415 3.56731 -7.09318
v 2.15436 3.60498 -7.11537
v 2.28457 3.64257 -7.13768
v 2.41479 3.67998 -7.16019
v 2.54497 3.71809 -7.18185
v 2.67519 3.75551 -7.20436
v 2.80552 3.79094 -7.22934
v 2.93587 3.82587 -7.25496
v 3.06623 3.86062 -7.28079
v 3.19663 3.89477 -7.30737
v 3.32705 3.92840 -7.33459
v 3.45736 3.96409 -7.35924
v 3.58768 3.99979 -7.38390
v 3.71799 4.03549 -7.40855
v 3.84830 4.07118 -7.43321
v 3.97861 4.10688 -7.45786
v 4.10892 4.14275 -7.48230
v 4.23921 4.17879 -7.50653
v -2.88080 2.04180 -6.15858
v -2.75040 2.07586 -6.18527
v -2.62002 2.11035 -6.21142
v -2.48970 2.14588 -6.23629
v -2.35952 2.18398 -6.25795
v -2.22948 2.22475 -6.27629
v -2.09957 2.26793 -6.29164
v -1.96977 2.31317 -6.30442
v -1.84007 2.36030 -6.31484
v -1.71021 2.40434 -6.32912
v -1.58015 2.44485 -6.34778
v -1.44989 2.48149 -6.37126
v -1.31939 2.51375 -6.40019
v -1.18867 2.54179 -6.43437
v -1.05805 2.57173 -6.46619
v -0.92755 2.60390 -6.49523
v -0.79714 2.63779 -6.52213
v -0.66683 2.67348 -6.54679
v -0.53658 2.71038 -6.56995
v -0.40631 2.74694 -6.59353
v -0.27603 2.78315 -6.61754
v -0.14575 2.81945 -6.64145
v -0.01546 2.85566 -6.66546
v 0.11481 2.89213 -6.68915
v 0.24513 2.92766 -6.71402
v 0.37564 2.95957 -6.74338
v 0.50613 2.99209 -6.77200
v 0.63643 3.02804 -6.79633
v 0.76659 3.06649 -6.81756
v 0.89685 3.10322 -6.84093
v 1.02711 3.13977 -6.86452
v 1.15746 3.17487 -6.88992
v 1.28798 3.20669 -6.91939
v 1.41864 3.23594 -6.95207
v 1.54912 3.26846 -6.98068
v 1.67938 3.30510 -7.00416
v 1.80956 3.34320 -7.02582
v 1.93977 3.38079 -7.04812
v 2.06993 3.41933 -7.06924
v 2.20012 3.45743 -7.09090
v 2.33030 3.49545 -7.11267
v 2.46054 3.53261 -7.13550
v 2.59077 3.56985 -7.15823
v 2.72102 3.60675 -7.18139
v 2.85147 3.63978 -7.20936
v 2.98195 3.67238 -7.23786
v 3.11242 3.70515 -7.26616
v 3.24289 3.73793 -7.29445
v 3.37340 3.76984 -7.32381
v 3.50371 3.80554 -7.34846
v 3.63403 3.84123 -7.37312
v 3.76434 3.87693 -7.39777
v 3.89465 3.91263 -7.42243
v 4.02496 3.94832 -7.44708
v 4.15527 3.98419 -7.47152
v 4.28556 4.02023 -7.49575
v -2.83456 1.88522 -6.14534
v -2.70408 1.91790 -6.17374
v -2.57361 1.95059 -6.20214
v -2.44317 1.98388 -6.22979
v -2.31288 2.02001 -6.25391
v -2.18276 2.05923 -6.27418
v -2.05278 2.10111 -6.29113
v -1.92294 2.14567 -6.30476
v -1.79324 2.19280 -6.31519
v -1.66342 2.23770 -6.32839
v -1.53347 2.28010 -6.34470
v -1.40335 2.31941 -6.36486
v -1.27303 2.35502 -6.38963
v -1.14246 2.38590 -6.42027
v -1.01183 2.41566 -6.45231
v -0.88140 2.44912 -6.47974
v -0.75093 2.48181 -6.50814
v -0.62059 2.51708 -6.53333
v -0.49030 2.55320 -6.55745
v -0.36011 2.59114 -6.57933
v -0.22978 2.62640 -6.60452
v -0.09952 2.66322 -6.62778
v 0.03078 2.69908 -6.65222
v 0.16100 2.73650 -6.67473
v 0.29128 2.77288 -6.69853
v 0.42179 2.80480 -6.72789
v 0.55220 2.83860 -6.75490
v 0.68248 2.87507 -6.77859
v 0.81290 2.90871 -6.80582
v 0.94330 2.94277 -6.83250
v 1.07362 2.97838 -6.85727
v 1.20401 3.01244 -6.88395
v 1.33456 3.04375 -6.91406
v 1.46497 3.07764 -6.94097
v 1.59528 3.11343 -6.96551
v 1.72538 3.15308 -6.98525
v 1.85547 3.19299 -7.00466
v 1.98555 3.23290 -7.02407
v 2.11565 3.27255 -7.04380
v 2.24579 3.31143 -7.06450
v 2.37595 3.35005 -7.08552
v 2.50615 3.38789 -7.10749
v 2.63640 3.42462 -7.13087
v 2.76673 3.46006 -7.15584
v 2.89733 3.49034 -7.18724
v 3.02797 3.52002 -7.21938
v 3.15859 3.54987 -7.25131
v 3.28920 3.58006 -7.28281
v 3.41975 3.61128 -7.31303
v 3.55006 3.64698 -7.33768
v 3.68038 3.68268 -7.36234
v 3.81069 3.71837 -7.38699
v 3.94100 3.75407 -7.41165
v 4.07131 3.78977 -7.43630
v 4.20162 3.82563 -7.46074
v 4.33192 3.86159 -7.48508
v -2.78826 1.72769 -6.13328
v -2.65777 1.76003 -6.16210
v -2.52725 1.79177 -6.19168
v -2.39674 1.82377 -6.22094
v -2.26637 1.85844 -6.24687
v -2.13620 1.89689 -6.26810
v -2.00623 1.93895 -6.28484
v -1.87644 1.98427 -6.29751
v -1.74679 2.03244 -6.30665
v -1.61700 2.07785 -6.31922
v -1.48705 2.12017 -6.33563
v -1.35689 2.15879 -6.35665
v -1.22651 2.19328 -6.38280
v -1.09588 2.22304 -6.41484
v -0.96536 2.25487 -6.44431
v -0.83502 2.29005 -6.46961
v -0.70456 2.32291 -6.49779
v -0.57426 2.35886 -6.52213
v -0.44404 2.39619 -6.54475
v -0.31375 2.43241 -6.56876
v -0.18333 2.46612 -6.59587
v -0.05309 2.50311 -6.61892
v 0.07722 2.53889 -6.64347
v 0.20744 2.57622 -6.66609
v 0.33772 2.61261 -6.68989
v 0.46822 2.64469 -6.71904
v 0.59868 2.67772 -6.74701
v 0.72888 2.71557 -6.76899
v 0.85923 2.75041 -6.79472
v 0.98980 2.78129 -6.82536
v 1.12019 2.81561 -6.85173
v 1.25057 2.85010 -6.87788
v 1.38120 2.87986 -6.90992
v 1.51168 2.91247 -6.93842
v 1.64180 2.95169 -6.95869
v 1.77182 2.99280 -6.97661
v 1.90184 3.03391 -6.99452
v 2.03186 3.07503 -7.01243
v 2.16189 3.11605 -7.03045
v 2.29192 3.15708 -7.04848
v 2.42197 3.19768 -7.06703
v 2.55205 3.23768 -7.08634
v 2.68216 3.27716 -7.10628
v 2.81237 3.31466 -7.12869
v 2.94310 3.34270 -7.16287
v 3.07384 3.37040 -7.19747
v 3.20460 3.39767 -7.23261
v 3.33538 3.42460 -7.26818
v 3.46610 3.45273 -7.30225
v 3.59641 3.48842 -7.32690
v 3.72673 3.52412 -7.35156
v 3.85704 3.55982 -7.37621
v 3.98735 3.59551 -7.40087
v 4.11766 3.63121 -7.42552
v 4.24797 3.66708 -7.44996
v 4.37826 3.70303 -7.47430
v -2.74190 1.56888 -6.12282
v -2.61141 1.60130 -6.15154
v -2.48088 1.63287 -6.18133
v -2.35032 1.66401 -6.21165
v -2.21994 1.69842 -6.23791
v -2.08975 1.73644 -6.25968
v -1.95979 1.77858 -6.27631
v -1.83002 1.82451 -6.28823
v -1.70043 1.87362 -6.29619
v -1.57069 1.91998 -6.30758
v -1.44078 1.96316 -6.32293
v -1.31068 2.00281 -6.34266
v -1.18039 2.03885 -6.36689
v -1.04985 2.07042 -6.39668
v -0.91940 2.10345 -6.42465
v -0.78896 2.13674 -6.45230
v -0.65838 2.16753 -6.48305
v -0.52796 2.20125 -6.51017
v -0.39759 2.23583 -6.53621
v -0.26717 2.26955 -6.56333
v -0.13675 2.30318 -6.59055
v -0.00649 2.33991 -6.61392
v 0.12384 2.37518 -6.63911
v 0.25412 2.41165 -6.66280
v 0.38445 2.44700 -6.68788
v 0.51495 2.47917 -6.71693
v 0.64543 2.51169 -6.74554
v 0.77576 2.54704 -6.77062
v 0.90614 2.58153 -6.79677
v 1.03683 2.61018 -6.83020
v 1.16730 2.64286 -6.85860
v 1.29771 2.67675 -6.88550
v 1.42825 2.70824 -6.91540
v 1.55872 2.74101 -6.94369
v 1.68871 2.78273 -6.96086
v 1.81867 2.82504 -6.97727
v 1.94863 2.86727 -6.99380
v 2.07860 2.90925 -7.01064
v 2.20858 2.95113 -7.02759
v 2.33854 2.99337 -7.04411
v 2.46853 3.03517 -7.06117
v 2.59855 3.07619 -7.07919
v 2.72866 3.11567 -7.09914
v 2.85877 3.15515 -7.11909
v 2.98947 3.18363 -7.15273
v 3.12020 3.21150 -7.18712
v 3.25096 3.23903 -7.22194
v 3.38168 3.26707 -7.25612
v 3.51246 3.29408 -7.29158
v 3.64277 3.32978 -7.31623
v 3.77308 3.36548 -7.34088
v 3.90339 3.40117 -7.36554
v 4.03371 3.43687 -7.39019
v 4.16401 3.47265 -7.41474
v 4.29432 3.50843 -7.43929
v 4.42461 3.54447 -7.46352
v -2.69546 1.40860 -6.11418
v -2.56500 1.44163 -6.14215
v -2.43448 1.47346 -6.17162
v -2.30392 1.50442 -6.20216
v -2.17354 1.53900 -6.22820
v -2.04336 1.57711 -6.24986
v -1.91338 1.61899 -6.26681
v -1.78361 1.66475 -6.27895
v -1.65404 1.71429 -6.28638
v -1.52431 1.76082 -6.29755
v -1.39442 1.80434 -6.31247
v -1.26435 1.84460 -6.33145
v -1.13408 1.88115 -6.35504
v -1.00355 1.91281 -6.38472
v -0.87301 1.94420 -6.41472
v -0.74249 1.97595 -6.44430
v -0.61183 2.00528 -6.47687
v -0.48133 2.03745 -6.50591
v -0.35088 2.07065 -6.53367
v -0.22047 2.10446 -6.56068
v -0.09002 2.13766 -6.58844
v 0.04029 2.17327 -6.61320
v 0.17069 2.20742 -6.63978
v 0.30104 2.24234 -6.66540
v 0.43144 2.27640 -6.69208
v 0.56194 2.30858 -6.72112
v 0.69245 2.34057 -6.75038
v 0.82290 2.37386 -6.77803
v 0.95347 2.40466 -6.80878
v 1.08423 2.43193 -6.84392
v 1.21479 2.46315 -6.87414
v 1.34523 2.49636 -6.90190
v 1.47569 2.52939 -6.92987
v 1.60594 2.56620 -6.95313
v 1.73582 2.60989 -6.96784
v 1.86571 2.65350 -6.98265
v 1.99559 2.69719 -6.99735
v 2.12548 2.74080 -7.01216
v 2.25537 2.78432 -7.02708
v 2.38524 2.82827 -7.04147
v 2.51512 2.87205 -7.05606
v 2.64502 2.91540 -7.07119
v 2.77502 2.95703 -7.08847
v 2.90504 2.99823 -7.10627
v 3.03570 3.02739 -7.13906
v 3.16643 3.05518 -7.17356
v 3.29722 3.08210 -7.20913
v 3.42799 3.10929 -7.24437
v 3.55881 3.13553 -7.28080
v 3.68912 3.17122 -7.30545
v 3.81943 3.20692 -7.33010
v 3.94974 3.24262 -7.35476
v 4.08006 3.27831 -7.37941
v 4.21037 3.31401 -7.40407
v 4.34067 3.34988 -7.42851
v 4.47096 3.38592 -7.45273
v -2.64904 1.24875 -6.10500
v -2.51860 1.28204 -6.13265
v -2.38810 1.31421 -6.16169
v -2.25754 1.34544 -6.19191
v -2.12718 1.38010 -6.21785
v -1.99700 1.41829 -6.23940
v -1.86702 1.46018 -6.25635
v -1.73723 1.50568 -6.26881
v -1.60766 1.55522 -6.27624
v -1.47792 1.60158 -6.28763
v -1.34802 1.64493 -6.30276
v -1.21794 1.68501 -6.32196
v -1.08766 1.72122 -6.34597
v -0.95708 1.75193 -6.37683
v -0.82649 1.78255 -6.40780
v -0.69593 1.81360 -6.43823
v -0.56523 1.84208 -6.47187
v -0.43467 1.87313 -6.50230
v -0.30417 1.90539 -6.53124
v -0.17369 1.93782 -6.55996
v -0.04316 1.96947 -6.58964
v 0.08726 2.00319 -6.61675
v 0.21779 2.03493 -6.64633
v 0.34826 2.06762 -6.67473
v 0.47872 2.10056 -6.70281
v 0.60922 2.13274 -6.73185
v 0.73972 2.16491 -6.76089
v 0.87013 2.19880 -6.78779
v 1.00058 2.23191 -6.81566
v 1.13138 2.25858 -6.85154
v 1.26200 2.28860 -6.88326
v 1.39248 2.32112 -6.91187
v 1.52293 2.35415 -6.93984
v 1.65325 2.38976 -6.96461
v 1.78308 2.43440 -6.97813
v 1.91291 2.47912 -6.99155
v 2.04274 2.52385 -7.00497
v 2.17257 2.56849 -7.01850
v 2.30240 2.61313 -7.03203
v 2.43222 2.65811 -7.04513
v 2.56204 2.70292 -7.05844
v 2.69187 2.74764 -7.07186
v 2.82176 2.79125 -7.08667
v 2.95168 2.83417 -7.10234
v 3.08224 2.86522 -7.13277
v 3.21289 2.89473 -7.16513
v 3.34361 2.92277 -7.19931
v 3.47436 2.95030 -7.23413
v 3.60516 2.97697 -7.27001
v 3.73547 3.01267 -7.29467
v 3.86578 3.04836 -7.31932
v 3.99609 3.08406 -7.34398
v 4.12641 3.11975 -7.36863
v 4.25672 3.15545 -7.39329
v 4.38702 3.19132 -7.41773
v 4.51731 3.22736 -7.44195
v -2.60264 1.08933 -6.09529
v -2.47221 1.12288 -6.12262
v -2.34173 1.15540 -6.15123
v -2.21120 1.18705 -6.18092
v -2.08087 1.22232 -6.20611
v -1.95074 1.26154 -6.22637
v -1.82082 1.30454 -6.24193
v -1.69111 1.35142 -6.25268
v -1.56161 1.40225 -6.25850
v -1.43186 1.44844 -6.27011
v -1.30187 1.49007 -6.28738
v -1.17162 1.52697 -6.31053
v -1.04110 1.55879 -6.34000
v -0.91029 1.58520 -6.37621
v -0.77965 1.61471 -6.40857
v -0.64897 1.64370 -6.44157
v -0.51830 1.67269 -6.47457
v -0.38774 1.70383 -6.50490
v -0.25728 1.73677 -6.53297
v -0.12670 1.76739 -6.56394
v 0.00382 1.79931 -6.59330
v 0.13430 1.83174 -6.62202
v 0.26484 1.86331 -6.65181
v 0.39538 1.89470 -6.68182
v 0.52590 1.92644 -6.71139
v 0.65642 1.95836 -6.74076
v 0.78700 1.98898 -6.77172
v 0.91752 2.02089 -6.80108
v 1.04789 2.05556 -6.82702
v 1.17865 2.08291 -6.86206
v 1.30927 2.11285 -6.89388
v 1.43967 2.14683 -6.92067
v 1.57001 2.18201 -6.94597
v 1.70037 2.21693 -6.97159
v 1.83021 2.26140 -6.98533
v 1.96004 2.30595 -6.99896
v 2.08987 2.35067 -7.01238
v 2.21970 2.39548 -7.02570
v 2.34951 2.44038 -7.03890
v 2.47926 2.48657 -7.05050
v 2.60902 2.53258 -7.06232
v 2.73879 2.57851 -7.07424
v 2.86859 2.62367 -7.08713
v 2.99833 2.67002 -7.09852
v 3.12878 2.70314 -7.12638
v 3.25932 2.73454 -7.15638
v 3.38996 2.76422 -7.18853
v 3.52065 2.79278 -7.22206
v 3.65151 2.81841 -7.25923
v 3.78182 2.85411 -7.28389
v 3.91213 2.88980 -7.30854
v 4.04244 2.92550 -7.33320
v 4.17276 2.96120 -7.35785
v 4.30307 2.99689 -7.38251
v 4.43337 3.03276 -7.40695
v 4.56367 3.06872 -7.43128
v -2.55621 0.92932 -6.08633
v -2.42583 0.96364 -6.11270
v -2.29542 0.99753 -6.13960
v -2.16496 1.03047 -6.16768
v -2.03466 1.06651 -6.19190
v -1.90455 1.10582 -6.21206
v -1.77459 1.14814 -6.22848
v -1.64481 1.19372 -6.24083
v -1.51522 1.24292 -6.24869
v -1.38543 1.28833 -6.26125
v -1.25541 1.32944 -6.27917
v -1.12515 1.36609 -6.30264
v -0.99462 1.39783 -6.33222
v -0.86382 1.42432 -6.36832
v -0.73301 1.45091 -6.40432
v -0.60218 1.47689 -6.44106
v -0.47144 1.50467 -6.47556
v -0.34079 1.53409 -6.50802
v -0.21022 1.56489 -6.53878
v -0.07968 1.59637 -6.56867
v 0.05080 1.62897 -6.59718
v 0.18133 1.66063 -6.62686
v 0.31189 1.69168 -6.65730
v 0.44245 1.72273 -6.68773
v 0.57301 1.75387 -6.71805
v 0.70355 1.78527 -6.74806
v 0.83412 1.81615 -6.77870
v 0.96478 1.84531 -6.81149
v 1.09538 1.87576 -6.84267
v 1.22606 1.90449 -6.87599
v 1.35661 1.93581 -6.90610
v 1.48699 1.97021 -6.93236
v 1.61713 2.00918 -6.95295
v 1.74719 2.04952 -6.97183
v 1.87701 2.09433 -6.98514
v 2.00683 2.13922 -6.99835
v 2.13664 2.18429 -7.01134
v 2.26645 2.22945 -7.02422
v 2.39625 2.27469 -7.03700
v 2.52605 2.31993 -7.04978
v 2.65584 2.36525 -7.06245
v 2.78564 2.41050 -7.07523
v 2.91548 2.45505 -7.08887
v 3.04522 2.50141 -7.10025
v 3.17554 2.53702 -7.12501
v 3.30596 2.57065 -7.15224
v 3.43648 2.60239 -7.18181
v 3.56707 2.63293 -7.21289
v 3.69786 2.65977 -7.24856
v 3.82817 2.69547 -7.27322
v 3.95848 2.73125 -7.29776
v 4.08879 2.76694 -7.32242
v 4.21911 2.80264 -7.34707
v 4.34942 2.83834 -7.37173
v 4.47973 2.87412 -7.39627
v 4.61002 2.91016 -7.42050
v -2.51009 0.77506 -6.07020
v -2.37979 0.81093 -6.09464
v -2.24947 0.84636 -6.11962
v -2.11910 0.88112 -6.14545
v -1.98881 0.91724 -6.16957
v -1.85863 0.95526 -6.19133
v -1.72856 0.99551 -6.21032
v -1.59864 1.03852 -6.22588
v -1.46889 1.08479 -6.23737
v -1.33895 1.12745 -6.25336
v -1.20880 1.16607 -6.27438
v -1.07841 1.20031 -6.30085
v -0.94775 1.22955 -6.33353
v -0.81680 1.25330 -6.37305
v -0.68588 1.27773 -6.41173
v -0.55508 1.30440 -6.44761
v -0.42438 1.33287 -6.48126
v -0.29378 1.36307 -6.51276
v -0.16327 1.39507 -6.54201
v -0.03278 1.42758 -6.57063
v 0.09775 1.45915 -6.60042
v 0.22831 1.49020 -6.63085
v 0.35888 1.52117 -6.66139
v 0.48945 1.55214 -6.69193
v 0.62001 1.58319 -6.72236
v 0.75057 1.61424 -6.75279
v 0.88113 1.64521 -6.78333
v 1.01175 1.67523 -6.81504
v 1.14250 1.70285 -6.84976
v 1.27309 1.73330 -6.88094
v 1.40354 1.76650 -6.90869
v 1.53383 1.80254 -6.93292
v 1.66393 1.84228 -6.95255
v 1.79374 1.88726 -6.96565
v 1.92354 1.93242 -6.97853
v 2.05334 1.97766 -6.99131
v 2.18314 2.02298 -7.00398
v 2.31293 2.06848 -7.01644
v 2.44271 2.11407 -7.02879
v 2.57248 2.15974 -7.04103
v 2.70227 2.20532 -7.05338
v 2.83205 2.25091 -7.06573
v 2.96183 2.29649 -7.07808
v 3.09161 2.34208 -7.09044
v 3.22192 2.37786 -7.11498
v 3.35233 2.41166 -7.14199
v 3.48285 2.44349 -7.17146
v 3.61348 2.47334 -7.20339
v 3.74421 2.50121 -7.23778
v 3.87452 2.53691 -7.26244
v 4.00484 2.57260 -7.28709
v 4.13515 2.60830 -7.31174
v 4.26546 2.64400 -7.33640
v 4.39577 2.67969 -7.36105
v 4.52607 2.71556 -7.38549
v 4.65637 2.75160 -7.40972
v -2.46394 0.62011 -6.05493
v -2.33365 0.65632 -6.07894
v -2.20336 0.69228 -6.10327
v -2.07303 0.72772 -6.12825
v -1.94274 0.76384 -6.15237
v -1.81251 0.80109 -6.17510
v -1.68237 0.83988 -6.19590
v -1.55233 0.88074 -6.21413
v -1.42243 0.92408 -6.22927
v -1.29236 0.96434 -6.24825
v -1.16210 1.00107 -6.27162
v -1.03163 1.03384 -6.29991
v -0.90095 1.06257 -6.33323
v -0.77003 1.08700 -6.37190
v -0.63925 1.11401 -6.40736
v -0.50859 1.14309 -6.44026
v -0.37801 1.17389 -6.47101
v -0.24751 1.20606 -6.50005
v -0.11709 1.23969 -6.52727
v 0.01340 1.27220 -6.55589
v 0.14391 1.30420 -6.58514
v 0.27443 1.33603 -6.61461
v 0.40494 1.36794 -6.64397
v 0.53546 1.39986 -6.67333
v 0.66597 1.43186 -6.70259
v 0.79648 1.46377 -6.73195
v 0.92700 1.49568 -6.76131
v 1.05754 1.52717 -6.79121
v 1.18815 1.55727 -6.82282
v 1.31864 1.58962 -6.85165
v 1.44901 1.62428 -6.87759
v 1.57926 1.66118 -6.90074
v 1.70937 1.70066 -6.92069
v 1.83927 1.74392 -6.93593
v 1.96918 1.78710 -6.95127
v 2.09909 1.83036 -6.96651
v 2.22900 1.87354 -6.98186
v 2.35891 1.91672 -6.99721
v 2.48882 1.95998 -7.01245
v 2.61873 2.00316 -7.02779
v 2.74863 2.04642 -7.04303
v 2.87855 2.08960 -7.05838
v 3.00845 2.13286 -7.07362
v 3.13836 2.17604 -7.08896
v 3.26864 2.21234 -7.11287
v 3.39900 2.24717 -7.13859
v 3.52944 2.28055 -7.16614
v 3.65996 2.31237 -7.19561
v 3.79056 2.34265 -7.22700
v 3.92087 2.37835 -7.25165
v 4.05118 2.41405 -7.27631
v 4.18150 2.44974 -7.30096
v 4.31181 2.48544 -7.32562
v 4.44212 2.52114 -7.35027
v 4.57242 2.55700 -7.37471
v 4.70272 2.59305 -7.39894
v -2.41775 0.46465 -6.04029
v -2.28750 0.50138 -6.06366
v -2.15723 0.53793 -6.08725
v -2.02695 0.57415 -6.11126
v -1.89666 0.61036 -6.13527
v -1.76640 0.64700 -6.15875
v -1.63618 0.68433 -6.18137
v -1.50603 0.72304 -6.20228
v -1.37597 0.76355 -6.22095
v -1.24581 0.80200 -6.24218
v -1.11552 0.83812 -6.26630
v -0.98508 0.87150 -6.29384
v -0.85449 0.90195 -6.32502
v -0.72372 0.92922 -6.36016
v -0.59306 0.95830 -6.39305
v -0.46245 0.98857 -6.42445
v -0.33191 1.02006 -6.45435
v -0.20143 1.05257 -6.48296
v -0.07100 1.08603 -6.51039
v 0.05946 1.11898 -6.53847
v 0.18993 1.15175 -6.56676
v 0.32040 1.18452 -6.59506
v 0.45086 1.21738 -6.62324
v 0.58133 1.25024 -6.65143
v 0.71179 1.28310 -6.67961
v 0.84226 1.31596 -6.70780
v 0.97272 1.34882 -6.73598
v 1.10319 1.38168 -6.76417
v 1.23370 1.41368 -6.79342
v 1.36411 1.44748 -6.82043
v 1.49443 1.48301 -6.84530
v 1.62466 1.52025 -6.86803
v 1.75480 1.55921 -6.88862
v 1.88480 1.60076 -6.90600
v 2.01480 1.64221 -6.92348
v 2.14480 1.68367 -6.94097
v 2.27481 1.72513 -6.95846
v 2.40481 1.76659 -6.97594
v 2.53481 1.80804 -6.99343
v 2.66482 1.84950 -7.01091
v 2.79482 1.89096 -7.02840
v 2.92482 1.93242 -7.04589
v 3.05482 1.97387 -7.06337
v 3.18483 2.01533 -7.08086
v 3.31512 2.05137 -7.10508
v 3.44548 2.08629 -7.13070
v 3.57589 2.12001 -7.15782
v 3.70637 2.15261 -7.18632
v 3.83691 2.18410 -7.21622
v 3.96722 2.21979 -7.24087
v 4.09753 2.25549 -7.26553
v 4.22785 2.29119 -7.29018
v 4.35816 2.32688 -7.31484
v 4.48847 2.36258 -7.33949
v 4.61877 2.39845 -7.36393
v 4.74907 2.43440 -7.38827
v -2.37159 0.30962 -6.02513
v -2.24136 0.34669 -6.04807
v -2.11112 0.38376 -6.07101
v -1.98087 0.42058 -6.09428
v -1.85058 0.45670 -6.11840
v -1.72028 0.49266 -6.14273
v -1.58998 0.52861 -6.16706
v -1.45972 0.56534 -6.19043
v -1.32953 0.60319 -6.21241
v -1.19928 0.64009 -6.23557
v -1.06896 0.67570 -6.26033
v -0.93856 0.70976 -6.28702
v -0.80806 0.74193 -6.31606
v -0.67745 0.77212 -6.34756
v -0.54689 0.80318 -6.37799
v -0.41637 0.83492 -6.40757
v -0.28588 0.86743 -6.43618
v -0.15544 0.90064 -6.46394
v -0.02502 0.93444 -6.49095
v 0.10540 0.96816 -6.51806
v 0.23581 1.00188 -6.54518
v 0.36623 1.03560 -6.57229
v 0.49665 1.06940 -6.59930
v 0.62706 1.10321 -6.62631
v 0.75747 1.13701 -6.65332
v 0.88789 1.17082 -6.68033
v 1.01830 1.20462 -6.70734
v 1.14871 1.23843 -6.73434
v 1.27913 1.27214 -6.76146
v 1.40950 1.30690 -6.78729
v 1.53979 1.34285 -6.81162
v 1.67003 1.37992 -6.83457
v 1.80021 1.41811 -6.85612
v 1.93032 1.45768 -6.87596
v 2.06042 1.49724 -6.89580
v 2.19053 1.53672 -6.91574
v 2.32063 1.57629 -6.93558
v 2.45074 1.61585 -6.95542
v 2.58084 1.65542 -6.97526
v 2.71095 1.69490 -6.99521
v 2.84106 1.73447 -7.01505
v 2.97116 1.77403 -7.03489
v 3.10127 1.81351 -7.05484
v 3.23138 1.85308 -7.07468
v 3.36167 1.88912 -7.09890
v 3.49200 1.92438 -7.12409
v 3.62238 1.95888 -7.15025
v 3.75280 1.99260 -7.17736
v 3.88326 2.02554 -7.20544
v 4.01357 2.06124 -7.23009
v 4.14388 2.09693 -7.25475
v 4.27420 2.13263 -7.27940
v 4.40451 2.16833 -7.30406
v 4.53482 2.20402 -7.32871
v 4.66512 2.23989 -7.35315
v 4.79542 2.27584 -7.37749
v -2.32607 0.16654 -5.99509
v -2.19582 0.20335 -6.01835
v -2.06556 0.23991 -6.04194
v -1.93528 0.27629 -6.06573
v -1.80497 0.31199 -6.09039
v -1.67463 0.34717 -6.11569
v -1.54429 0.38244 -6.14088
v -1.41398 0.41805 -6.16564
v -1.28369 0.45426 -6.18965
v -1.15338 0.48996 -6.21430
v -1.02304 0.52522 -6.23949
v -0.89268 0.55997 -6.26532
v -0.76227 0.59386 -6.29223
v -0.63182 0.62689 -6.32020
v -0.50138 0.66027 -6.34774
v -0.37096 0.69399 -6.37486
v -0.24056 0.72805 -6.40154
v -0.11018 0.76237 -6.42791
v 0.02020 0.79695 -6.45395
v 0.15057 0.83153 -6.48000
v 0.28094 0.86619 -6.50594
v 0.41130 0.90086 -6.53188
v 0.54167 0.93561 -6.55771
v 0.67203 0.97036 -6.58354
v 0.80239 1.00511 -6.60937
v 0.93276 1.03986 -6.63520
v 1.06312 1.07461 -6.66103
v 1.19348 1.10936 -6.68687
v 1.32384 1.14411 -6.71270
v 1.45418 1.17946 -6.73778
v 1.58447 1.21542 -6.76211
v 1.71474 1.25189 -6.78580
v 1.84499 1.28888 -6.80885
v 1.97519 1.32655 -6.83105
v 2.10540 1.36414 -6.85335
v 2.23561 1.40181 -6.87554
v 2.36582 1.43940 -6.89784
v 2.49603 1.47699 -6.92014
v 2.62624 1.51466 -6.94234
v 2.75645 1.55225 -6.96464
v 2.88666 1.58992 -6.98683
v 3.01687 1.62751 -7.00913
v 3.14708 1.66510 -7.03143
v 3.27728 1.70277 -7.05363
v 3.40759 1.73864 -7.07807
v 3.53791 1.77417 -7.10294
v 3.66825 1.80935 -7.12823
v 3.79861 1.84410 -7.15406
v 3.92899 1.87850 -7.18032
v 4.05930 1.91420 -7.20498
v 4.18962 1.94990 -7.22963
v 4.31993 1.98559 -7.25429
v 4.45024 2.02129 -7.27894
v 4.58055 2.05699 -7.30359
v 4.71086 2.09286 -7.32804
v 4.84115 2.12890 -7.35226
v -2.28085 0.02896 -5.95820
v -2.15056 0.06500 -5.98243
v -2.02025 0.10087 -6.00687
v -1.88994 0.13657 -6.03152
v -1.75963 0.17226 -6.05618
v -1.62932 0.20796 -6.08083
v -1.49901 0.24366 -6.10549
v -1.36869 0.27935 -6.13014
v -1.23838 0.31505 -6.15480
v -1.10807 0.35075 -6.17945
v -0.97776 0.38644 -6.20410
v -0.84744 0.42214 -6.22876
v -0.71713 0.45783 -6.25341
v -0.58682 0.49353 -6.27807
v -0.45651 0.52923 -6.30272
v -0.32619 0.56492 -6.32738
v -0.19588 0.60062 -6.35203
v -0.06558 0.63640 -6.37658
v 0.06474 0.67210 -6.40123
v 0.19505 0.70780 -6.42589
v 0.32536 0.74349 -6.45054
v 0.45567 0.77919 -6.47520
v 0.58599 0.81488 -6.49985
v 0.71630 0.85058 -6.52451
v 0.84661 0.88628 -6.54916
v 0.97692 0.92197 -6.57382
v 1.10724 0.95767 -6.59847
v 1.23755 0.99337 -6.62312
v 1.36786 1.02906 -6.64778
v 1.49817 1.06476 -6.67243
v 1.62848 1.10046 -6.69709
v 1.75880 1.13615 -6.72174
v 1.88911 1.17185 -6.74640
v 2.01942 1.20755 -6.77105
v 2.14973 1.24324 -6.79571
v 2.28005 1.27894 -6.82036
v 2.41036 1.31463 -6.84501
v 2.54067 1.35033 -6.86967
v 2.67098 1.38611 -6.89422
v 2.80129 1.42181 -6.91887
v 2.93160 1.45751 -6.94353
v 3.06191 1.49320 -6.96818
v 3.19223 1.52890 -6.99283
v 3.32254 1.56460 -7.01749
v 3.45285 1.60029 -7.04214
v 3.58316 1.63599 -7.06680
v 3.71348 1.67168 -7.09145
v 3.84379 1.70738 -7.11611
v 3.97410 1.74308 -7.14076
v 4.10441 1.77877 -7.16542
v 4.23472 1.81447 -7.19007
v 4.36504 1.85017 -7.21472
v 4.49535 1.88586 -7.23938
v 4.62566 1.92156 -7.26403
v 4.75596 1.95743 -7.28847
v 4.88626 1.99347 -7.31270
f 1 2 58 57
f 2 3 59 58
f 3 4 60 59
f 4 5 61 60
f 5 6 62 61
f 6 7 63 62
f 7 8 64 63
f 8 9 65 64
f 9 10 66 65
f 10 11 67 66
f 11 12 68 67
f 12 13 69 68
f 13 14 70 69
f 14 15 71 70
f 15 16 72 71
f 16 17 73 72
f 17 18 74 73
f 18 19 75 74
f 19 20 76 75
f 20 21 77 76
f 21 22 78 77
f 22 23 79 78
f 23 24 80 79
f 24 25 81 80
f 25 26 82 81
f 26 27 83 82
f 27 28 84 83
f 28 29 85 84
f 29 30 86 85
f 30 31 87 86
f 31 32 88 87
f 32 33 89 88
f 33 34 90 89
f 34 35 91 90
f 35 36 92 91
f 36 37 93 92
f 37 38 94 93
f 38 39 95 94
f 39 40 96 95
f 40 41 97 96
f 41 42 98 97
f 42 43 99 98
f 43 44 100 99
f 44 45 101 100
f 45 46 102 101
f 46 47 103 102
f 47 48 104 103
f 48 49 105 104
f 49 50 106 105
f 50 51 107 106
f 51 52 108 107
f 52 53 109 108
f 53 54 110 109
f 54 55 111 110
f 55 56 112 111
f 57 58 114 113
f 58 59 115 114
f 59 60 116 115
f 60 61 117 116
f 61 62 118 117
f 62 63 119 118
f 63 64 120 119
f 64 65 121 120
f 65 66 122 121
f 66 67 123 122
f 67 68 124 123
f 68 69 125 124
f 69 70 126 125
f 70 71 127 126
f 71 72 128 127
f 72 73 129 128
f 73 74 130 129
f 74 75 131 130
f 75 76 132 131
f 76 77 133 132
f 77 78 134 133
f 78 79 135 134
f 79 80 136 135
f 80 81 137 136
f 81 82 138 137
f 82 83 139 138
f 83 84 140 139
f 84 85 141 140
f 85 86 142 141
f 86 87 143 142
f 87 88 144 143
f 88 89 145 144
f 89 90 146 145
f 90 91 147 146
f 91 92 148 147
f 92 93 149 148
f 93 94 150 149
f 94 95 151 150
f 95 96 152 151
f 96 97 153 152
f 97 98 154 153
f 98 99 155 154
f 99 100 156 155
f 100 101 157 156
f 101 102 158 157
f 102 103 159 158
f 103 104 160 159
f 104 105 161 160
f 105 106 162 161
f 106 107 163 162
f 107 108 164 163
f 108 109 165 164
f 109 110 166 165
f 110 111 167 166
f 111 112 168 167
f 113 114 170 169
f 114 115 171 170
f 115 116 172 171
f 116 117 173 172
f 117 118 174 173
f 118 119 175 174
f 119 120 176 175
f 120 121 177 176
f 121 122 178 177
f 122 123 179 178
f 123 124 180 179
f 124 125 181 180
f 125 126 182 181
f 126 127 183 182
f 127 128 184 183
f 128 129 185 184
f 129 130 186 185
f 130 131 187 186
f 131 132 188 187
f 132 133 189 188
f 133 134 190 189
f 134 135 191 190
f 135 136 192 191
f 136 137 193 192
f 137 138 194 193
f 138 139 195 194
f 139 140 196 195
f 140 141 197 196
f 141 142 198 197
f 142 143 199 198
f 143 144 200 199
f 144 145 201 200
f 145 146 202 201
f 146 147 203 202
f 147 148 204 203
f 148 149 205 204
f 149 150 206 205
f 150 151 207 206
f 151 152 208 207
f 152 153 209 208
f 153 154 210 209
f 154 155 211 210
f 155 156 212 211
f 156 157 213 212
f 157 158 214 213
f 158 159 215 214
f 159 160 216 215
f 160 161 217 216
f 161 162 218 217
f 162 163 219 218
f 163 164 220 219
f 164 165 221 220
f 165 166 222 221
f 166 167 223 222
f 167 168 224 223
f 169 170 226 225
f 170 171 227 226
f 171 172 228 227
f 172 173 229 228
f 173 174 230 229
f 174 175 231 230
f 175 176 232 231
f 176 177 233 232
f 177 178 234 233
f 178 179 235 234
f 179 180 236 235
f 180 181 237 236
f 181 182 238 237
f 182 183 239 238
f 183 184 240 239
f 184 185 241 240
f 185 186 242 241
f 186 187 243 242
f 187 188 244 243
f 188 189 245 244
f 189 190 246 245
f 190 191 247 246
f 191 192 248 247
f 192 193 249 248
f 193 194 250 249
f 194 195 251 250
f 195 196 252 251
f 196 197 253 252
f 197 198 254 253
f 198 199 255 254
f 199 200 256 255
f 200 201 257 256
f 201 202 258 257
f 202 203 259 258
f 203 204 260 259
f 204 205 261 260
f 205 206 262 261
f 206 207 263 262
f 207 208 264 263
f 208 209 265 264
f 209 210 266 265
f 210 211 267 266
f 211 212 268 267
f 212 213 269 268
f 213 214 270 269
f 214 215 271 270
f 215 216 272 271
f 216 217 273 272
f 217 218 274 273
f 218 219 275 274
f 219 220 276 275
f 220 221 277 276
f 221 222 278 277
f 222 223 279 278
f 223 224 280 279
f 225 226 282 281
f 226 227 283 282
f 227 228 284 283
f 228 229 285 284
f 229 230 286 285
f 230 231 287 286
f 231 232 288 287
f 232 233 289 288
f 233 234 290 289
f 234 235 291 290
f 235 236 292 291
f 236 237 293 292
f 237 238 294 293
f 238 239 295 294
f 239 240 296 295
f 240 241 297 296
f 241 242 298 297
f 242 243 299 298
f 243 244 300 299
f 244 245 301 300
f 245 246 302 301
f 246 247 303 302
f 247 248 304 303
f 248 249 305 304
f 249 250 306 305
f 250 251 307 306
f 251 252 308 307
f 252 253 309 308
f 253 254 310 309
f 254 255 311 310
f 255 256 312 311
f 256 257 313 312
f 257 258 314 313
f 258 259 315 314
f 259 260 316 315
f 260 261 317 316
f 261 262 318 317
f 262 263 319 318
f 263 264 320 319
f 264 265 321 320
f 265 266 322 321
f 266 267 323 322
f 267 268 324 323
f 268 269 325 324
f 269 270 326 325
f 270 271 327 326
f 271 272 328 327
f 272 273 329 328
f 273 274 330 329
f 274 275 331 330
f 275 276 332 331
f 276 277 333 332
f 277 278 334 333
f 278 279 335 334
f 279 280 336 335
f 281 282 338 337
f 282 283 339 338
f 283 284 340 339
f 284 285 341 340
f 285 286 342 341
f 286 287 343 342
f 287 288 344 343
f 288 289 345 344
f 289 290 346 345
f 290 291 347 346
f 291 292 348 347
f 292 293 349 348
f 293 294 350 349
f 294 295 351 350
f 295 296 352 351
f 296 297 353 352
f 297 298 354 353
f 298 299 355 354
f 299 300 356 355
f 300 301 357 356
f 301 302 358 357
f 302 303 359 358
f 303 304 360 359
f 304 305 361 360
f 305 306 362 361
f 306 307 363 362
f 307 308 364 363
f 308 309 365 364
f 309 310 366 365
f 310 311 367 366
f 311 312 368 367
f 312 313 369 368
f 313 314 370 369
f 314 315 371 370
f 315 316 372 371
f 316 317 373 372
f 317 318 374 373
f 318 319 375 374
f 319 320 376 375
f 320 321 377 376
f 321 322 378 377
f 322 323 379 378
f 323 324 380 379
f 324 325 381 380
f 325 326 382 381
f 326 327 383 382
f 327 328 384 383
f 328 329 385 384
f 329 330 386 385
f 330 331 387 386
f 331 332 388 387
f 332 333 389 388
f 333 334 390 389
f 334 335 391 390
f 335 336 392 391
f 337 338 394 393
f 338 339 395 394
f 339 340 396 395
f 340 341 397 396
f 341 342 398 397
f 342 343 399 398
f 343 344 400 399
f 344 345 401 400
f 345 346 402 401
f 346 347 403 402
f 347 348 404 403
f 348 349 405 404
f 349 350 406 405
f 350 351 407 406
f 351 352 408 407
f 352 353 409 408
f 353 354 410 409
f 354 355 411 410
f 355 356 412 411
f 356 357 413 412
f 357 358 414 413
f 358 359 415 414
f 359 360 416 415
f 360 361 417 416
f 361 362 418 417
f 362 363 419 418
f 363 364 420 419
f 364 365 421 420
f 365 366 422 421
f 366 367 423 422
f 367 368 424 423
f 368 369 425 424
f 369 370 426 425
f 370 371 427 426
f 371 372 428 427
f 372 373 429 428
f 373 374 430 429
f 374 375 431 430
f 375 376 432 431
f 376 377 433 432
f 377 378 434 433
f 378 379 435 434
f 379 380 436 435
f 380 381 437 436
f 381 382 438 437
f 382 383 439 438
f 383 384 440 439
f 384 385 441 440
f 385 386 442 441
f 386 387 443 442
f 387 388 444 443
f 388 389 445 444
f 389 390 446 445
f 390 391 447 446
f 391 392 448 447
f 393 394 450 449
f 394 395 451 450
f 395 396 452 451
f 396 397 453 452
f 397 398 454 453
f 398 399 455 454
f 399 400 456 455
f 400 401 457 456
f 401 402 458 457
f 402 403 459 458
f 403 404 460 459
f 404 405 461 460
f 405 406 462 461
f 406 407 463 462
f 407 408 464 463
f 408 409 465 464
f 409 410 466 465
f 410 411 467 466
f 411 412 468 467
f 412 413 469 468
f 413 414 470 469
f 414 415 471 470
f 415 416 472 471
f 416 417 473 472
f 417 418 474 473
f 418 419 475 474
f 419 420 476 475
f 420 421 477 476
f 421 422 478 477
f 422 423 479 478
f 423 424 480 479
f 424 425 481 480
f 425 426 482 481
f 426 427 483 482
f 427 428 484 483
f 428 429 485 484
f 429 430 486 485
f 430 431 487 486
f 431 432 488 487
f 432 433 489 488
f 433 434 490 489
f 434 435 491 490
f 435 436 492 491
f 436 437 493 492
f 437 438 494 493
f 438 439 495 494
f 439 440 496 495
f 440 441 497 496
f 441 442 498 497
f 442 443 499 498
f 443 444 500 499
f 444 445 501 500
f 445 446 502 501
f 446 447 503 502
f 447 448 504 503
f 449 450 506 505
f 450 451 507 506
f 451 452 508 507
f 452 453 509 508
f 453 454 510 509
f 454 455 511 510
f 455 456 512 511
f 456 457 513 512
f 457 458 514 513
f 458 459 515 514
f 459 460 516 515
f 460 461 517 516
f 461 462 518 517
f 462 463 519 518
f 463 464 520 519
f 464 465 521 520
f 465 466 522 521
f 466 467 523 522
f 467 468 524 523
f 468 469 525 524
f 469 470 526 525
f 470 471 527 526
f 471 472 528 527
f 472 473 529 528
f 473 474 530 529
f 474 475 531 530
f 475 476 532 531
f 476 477 533 532
f 477 478 534 533
f 478 479 535 534
f 479 480 536 535
f 480 481 537 536
f 481 482 538 537
f 482 483 539 538
f 483 484 540 539
f 484 485 541 540
f 485 486 542 541
f 486 487 543 542
f 487 488 544 543
f 488 489 545 544
f 489 490 546 545
f 490 491 547 546
f 491 492 548 547
f 492 493 549 548
f 493 494 550 549
f 494 495 551 550
f 495 496 552 551
f 496 497 553 552
f 497 498 554 553
f 498 499 555 554
f 499 500 556 555
f 500 501 557 556
f 501 502 558 557
f 502 503 559 558
f 503 504 560 559
f 505 506 562 561
f 506 507 563 562
f 507 508 564 563
f 508 509 565 564
f 509 510 566 565
f 510 511 567 566
f 511 512 568 567
f 512 513 569 568
f 513 514 570 569
f 514 515 571 570
f 515 516 572 571
f 516 517 573 572
f 517 518 574 573
f 518 519 575 574
f 519 520 576 575
f 520 521 577 576
f 521 522 578 577
f 522 523 579 578
f 523 524 580 579
f 524 525 581 580
f 525 526 582 581
f 526 527 583 582
f 527 528 584 583
f 528 529 585 584
f 529 530 586 585
f 530 531 587 586
f 531 532 588 587
f 532 533 589 588
f 533 534 590 589
f 534 535 591 590
f 535 536 592 591
f 536 537 593 592
f 537 538 594 593
f 538 539 595 594
f 539 540 596 595
f 540 541 597 596
f 541 542 598 597
f 542 543 599 598
f 543 544 600 599
f 544 545 601 600
f 545 546 602 601
f 546 547 603 602
f 547 548 604 603
f 548 549 605 604
f 549 550 606 605
f 550 551 607 606
f 551 552 608 607
f 552 553 609 608
f 553 554 610 609
f 554 555 611 610
f 555 556 612 611
f 556 557 613 612
f 557 558 614 613
f 558 559 615 614
f 559 560 616 615
f 561 562 618 617
f 562 563 619 618
f 563 564 620 619
f 564 565 621 620
f 565 566 622 621
f 566 567 623 622
f 567 568 624 623
f 568 569 625 624
f 569 570 626 625
f 570 571 627 626
f 571 572 628 627
f 572 573 629 628
f 573 574 630 629
f 574 575 631 630
f 575 576 632 631
f 576 577 633 632
f 577 578 634 633
f 578 579 635 634
f 579 580 636 635
f 580 581 637 636
f 581 582 638 637
f 582 583 639 638
f 583 584 640 639
f 584 585 641 640
f 585 586 642 641
f 586 587 643 642
f 587 588 644 643
f 588 589 645 644
f 589 590 646 645
f 590 591 647 646
f 591 592 648 647
f 592 593 649 648
f 593 594 650 649
f 594 595 651 650
f 595 596 652 651
f 596 597 653 652
f 597 598 654 653
f 598 599 655 654
f 599 600 656 655
f 600 601 657 656
f 601 602 658 657
f 602 603 659 658
f 603 604 660 659
f 604 605 661 660
f 605 606 662 661
f 606 607 663 662
f 607 608 664 663
f 608 609 665 664
f 609 610 666 665
f 610 611 667 666
f 611 612 668 667
f 612 613 669 668
f 613 614 670 669
f 614 615 671 670
f 615 616 672 671
f 617 618 674 673
f 618 619 675 674
f 619 620 676 675
f 620 621 677 676
f 621 622 678 677
f 622 623 679 678
f 623 624 680 679
f 624 625 681 680
f 625 626 682 681
f 626 627 683 682
f 627 628 684 683
f 628 629 685 684
f 629 630 686 685
f 630 631 687 686
f 631 632 688 687
f 632 633 689 688
f 633 634 690 689
f 634 635 691 690
f 635 636 692 691
f 636 637 693 692
f 637 638 694 693
f 638 639 695 694
f 639 640 696 695
f 640 641 697 696
f 641 642 698 697
f 642 643 699 698
f 643 644 700 699
f 644 645 701 700
f 645 646 702 701
f 646 647 703 702
f 647 648 704 703
f 648 649 705 704
f 649 650 706 705
f 650 651 707 706
f 651 652 708 707
f 652 653 709 708
f 653 654 710 709
f 654 655 711 710
f 655 656 712 711
f 656 657 713 712
f 657 658 714 713
f 658 659 715 714
f 659 660 716 715
f 660 661 717 716
f 661 662 718 717
f 662 663 719 718
f 663 664 720 719
f 664 665 721 720
f 665 666 722 721
f 666 667 723 722
f 667 668 724 723
f 668 669 725 724
f 669 670 726 725
f 670 671 727 726
f 671 672 728 727
f 673 674 730 729
f 674 675 731 730
f 675 676 732 731
f 676 677 733 732
f 677 678 734 733
f 678 679 735 734
f 679 680 736 735
f 680 681 737 736
f 681 682 738 737
f 682 683 739 738
f 683 684 740 739
f 684 685 741 740
f 685 686 742 741
f 686 687 743 742
f 687 688 744 743
f 688 689 745 744
f 689 690 746 745
f 690 691 747 746
f 691 692 748 747
f 692 693 749 748
f 693 694 750 749
f 694 695 751 750
f 695 696 752 751
f 696 697 753 752
f 697 698 754 753
f 698 699 755 754
f 699 700 756 755
f 700 701 757 756
f 701 702 758 757
f 702 703 759 758
f 703 704 760 759
f 704 705 761 760
f 705 706 762 761
f 706 707 763 762
f 707 708 764 763
f 708 709 765 764
f 709 710 766 765
f 710 711 767 766
f 711 712 768 767
f 712 713 769 768
f 713 714 770 769
f 714 715 771 770
f 715 716 772 771
f 716 717 773 772
f 717 718 774 773
f 718 719 775 774
f 719 720 776 775
f 720 721 777 776
f 721 722 778 777
f 722 723 779 778
f 723 724 780 779
f 724 725 781 780
f 725 726 782 781
f 726 727 783 782
f 727 728 784 783
f 729 730 786 785
f 730 731 787 786
f 731 732 788 787
f 732 733 789 788
f 733 734 790 789
f 734 735 791 790
f 735 736 792 791
f 736 737 793 792
f 737 738 794 793
f 738 739 795 794
f 739 740 796 795
f 740 741 797 796
f 741 742 798 797
f 742 743 799 798
f 743 744 800 799
f 744 745 801 800
f 745 746 802 801
f 746 747 803 802
f 747 748 804 803
f 748 749 805 804
f 749 750 806 805
f 750 751 807 806
f 751 752 808 807
f 752 753 809 808
f 753 754 810 809
f 754 755 811 810
f 755 756 812 811
f 756 757 813 812
f 757 758 814 813
f 758 759 815 814
f 759 760 816 815
f 760 761 817 816
f 761 762 818 817
f 762 763 819 818
f 763 764 820 819
f 764 765 821 820
f 765 766 822 821
f 766 767 823 822
f 767 768 824 823
f 768 769 825 824
f 769 770 826 825
f 770 771 827 826
f 771 772 828 827
f 772 773 829 828
f 773 774 830 829
f 774 775 831 830
f 775 776 832 831
f 776 777 833 832
f 777 778 834 833
f 778 779 835 834
f 779 780 836 835
f 780 781 837 836
f 781 782 838 837
f 782 783 839 838
f 783 784 840 839
f 785 786 842 841
f 786 787 843 842
f 787 788 844 843
f 788 789 845 844
f 789 790 846 845
f 790 791 847 846
f 791 792 848 847
f 792 793 849 848
f 793 794 850 849
f 794 795 851 850
f 795 796 852 851
f 796 797 853 852
f 797 798 854 853
f 798 799 855 854
f 799 800 856 855
f 800 801 857 856
f 801 802 858 857
f 802 803 859 858
f 803 804 860 859
f 804 805 861 860
f 805 806 862 861
f 806 807 863 862
f 807 808 864 863
f 808 809 865 864
f 809 810 866 865
f 810 811 867 866
f 811 812 868 867
f 812 813 869 868
f 813 814 870 869
f 814 815 871 870
f 815 816 872 871
f 816 817 873 872
f 817 818 874 873
f 818 819 875 874
f 819 820 876 875
f 820 821 877 876
f 821 822 878 877
f 822 823 879 878
f 823 824 880 879
f 824 825 881 880
f 825 826 882 881
f 826 827 883 882
f 827 828 884 883
f 828 829 885 884
f 829 830 886 885
f 830 831 887 886
f 831 832 888 887
f 832 833 889 888
f 833 834 890 889
f 834 835 891 890
f 835 836 892 891
f 836 837 893 892
f 837 838 894 893
f 838 839 895 894
f 839 840 896 895
f 841 842 898 897
f 842 843 899 898
f 843 844 900 899
f 844 845 901 900
f 845 846 902 901
f 846 847 903 902
f 847 848 904 903
f 848 849 905 904
f 849 850 906 905
f 850 851 907 906
f 851 852 908 907
f 852 853 909 908
f 853 854 910 909
f 854 855 911 910
f 855 856 912 911
f 856 857 913 912
f 857 858 914 913
f 858 859 915 914
f 859 860 916 915
f 860 861 917 916
f 861 862 918 917
f 862 863 919 918
f 863 864 920 919
f 864 865 921 920
f 865 866 922 921
f 866 867 923 922
f 867 868 924 923
f 868 869 925 924
f 869 870 926 925
f 870 871 927 926
f 871 872 928 927
f 872 873 929 928
f 873 874 930 929
f 874 875 931 930
f 875 876 932 931
f 876 877 933 932
f 877 878 934 933
f 878 879 935 934
f 879 880 936 935
f 880 881 937 936
f 881 882 938 937
f 882 883 939 938
f 883 884 940 939
f 884 885 941 940
f 885 886 942 941
f 886 887 943 942
f 887 888 944 943
f 888 889 945 944
f 889 890 946 945
f 890 891 947 946
f 891 892 948 947
f 892 893 949 948
f 893 894 950 949
f 894 895 951 950
f 895 896 952 951
f 897 898 954 953
f 898 899 955 954
f 899 900 956 955
f 900 901 957 956
f 901 902 958 957
f 902 903 959 958
f 903 904 960 959
f 904 905 961 960
f 905 906 962 961
f 906 907 963 962
f 907 908 964 963
f 908 909 965 964
f 909 910 966 965
f 910 911 967 966
f 911 912 968 967
f 912 913 969 968
f 913 914 970 969
f 914 915 971 970
f 915 916 972 971
f 916 917 973 972
f 917 918 974 973
f 918 919 975 974
f 919 920 976 975
f 920 921 977 976
f 921 922 978 977
f 922 923 979 978
f 923 924 980 979
f 924 925 981 980
f 925 926 982 981
f 926 927 983 982
f 927 928 984 983
f 928 929 985 984
f 929 930 986 985
f 930 931 987 986
f 931 932 988 987
f 932 933 989 988
f 933 934 990 989
f 934 935 991 990
f 935 936 992 991
f 936 937 993 992
f 937 938 994 993
f 938 939 995 994
f 939 940 996 995
f 940 941 997 996
f 941 942 998 997
f 942 943 999 998
f 943 944 1000 999
f 944 945 1001 1000
f 945 946 1002 1001
f 946 947 1003 1002
f 947 948 1004 1003
f 948 949 1005 1004
f 949 950 1006 1005
f 950 951 1007 1006
f 951 952 1008 1007
f 953 954 1010 1009
f 954 955 1011 1010
f 955 956 1012 1011
f 956 957 1013 1012
f 957 958 1014 1013
f 958 959 1015 1014
f 959 960 1016 1015
f 960 961 1017 1016
f 961 962 1018 1017
f 962 963 1019 1018
f 963 964 1020 1019
f 964 965 1021 1020
f 965 966 1022 1021
f 966 967 1023 1022
f 967 968 1024 1023
f 968 969 1025 1024
f 969 970 1026 1025
f 970 971 1027 1026
f 971 972 1028 1027
f 972 973 1029 1028
f 973 974 1030 1029
f 974 975 1031 1030
f 975 976 1032 1031
f 976 977 1033 1032
f 977 978 1034 1033
f 978 979 1035 1034
f 979 980 1036 1035
f 980 981 1037 1036
f 981 982 1038 1037
f 982 983 1039 1038
f 983 984 1040 1039
f 984 985 1041 1040
f 985 986 1042 1041
f 986 987 1043 1042
f 987 988 1044 1043
f 988 989 1045 1044
f 989 990 1046 1045
f 990 991 1047 1046
f 991 992 1048 1047
f 992 993 1049 1048
f 993 994 1050 1049
f 994 995 1051 1050
f 995 996 1052 1051
f 996 997 1053 1052
f 997 998 1054 1053
f 998 999 1055 1054
f 999 1000 1056 1055
f 1000 1001 1057 1056
f 1001 1002 1058 1057
f 1002 1003 1059 1058
f 1003 1004 1060 1059
f 1004 1005 1061 1060
f 1005 1006 1062 1061
f 1006 1007 1063 1062
f 1007 1008 1064 1063
f 1009 1010 1066 1065
f 1010 1011 1067 1066
f 1011 1012 1068 1067
f 1012 1013 1069 1068
f 1013 1014 1070 1069
f 1014 1015 1071 1070
f 1015 1016 1072 1071
f 1016 1017 1073 1072
f 1017 1018 1074 1073
f 1018 1019 1075 1074
f 1019 1020 1076 1075
f 1020 1021 1077 1076
f 1021 1022 1078 1077
f 1022 1023 1079 1078
f 1023 1024 1080 1079
f 1024 1025 1081 1080
f 1025 1026 1082 1081
f 1026 1027 1083 1082
f 1027 1028 1084 1083
f 1028 1029 1085 1084
f 1029 1030 1086 1085
f 1030 1031 1087 1086
f 1031 1032 1088 1087
f 1032 1033 1089 1088
f 1033 1034 1090 1089
f 1034 1035 1091 1090
f 1035 1036 1092 1091
f 1036 1037 1093 1092
f 1037 1038 1094 1093
f 1038 1039 1095 1094
f 1039 1040 1096 1095
f 1040 1041 1097 1096
f 1041 1042 1098 1097
f 1042 1043 1099 1098
f 1043 1044 1100 1099
f 1044 1045 1101 1100
f 1045 1046 1102 1101
f 1046 1047 1103 1102
f 1047 1048 1104 1103
f 1048 1049 1105 1104
f 1049 1050 1106 1105
f 1050 1051 1107 1106
f 1051 1052 1108 1107
f 1052 1053 1109 1108
f 1053 1054 1110 1109
f 1054 1055 1111 1110
f 1055 1056 1112 1111
f 1056 1057 1113 1112
f 1057 1058 1114 1113
f 1058 1059 1115 1114
f 1059 1060 1116 1115
f 1060 1061 1117 1116
f 1061 1062 1118 1117
f 1062 1063 1119 1118
f 1063 1064 1120 1119
f 1065 1066 1122 1121
f 1066 1067 1123 1122
f 1067 1068 1124 1123
f 1068 1069 1125 1124
f 1069 1070 1126 1125
f 1070 1071 1127 1126
f 1071 1072 1128 1127
f 1072 1073 1129 1128
f 1073 1074 1130 1129
f 1074 1075 1131 1130
f 1075 1076 1132 1131
f 1076 1077 1133 1132
f 1077 1078 1134 1133
f 1078 1079 1135 1134
f 1079 1080 1136 1135
f 1080 1081 1137 1136
f 1081 1082 1138 1137
f 1082 1083 1139 1138
f 1083 1084 1140 1139
f 1084 1085 1141 1140
f 1085 1086 1142 1141
f 1086 1087 1143 1142
f 1087 1088 1144 1143
f 1088 1089 1145 1144
f 1089 1090 1146 1145
f 1090 1091 1147 1146
f 1091 1092 1148 1147
f 1092 1093 1149 1148
f 1093 1094 1150 1149
f 1094 1095 1151 1150
f 1095 1096 1152 1151
f 1096 1097 1153 1152
f 1097 1098 1154 1153
f 1098 1099 1155 1154
f 1099 1100 1156 1155
f 1100 1101 1157 1156
f 1101 1102 1158 1157
f 1102 1103 1159 1158
f 1103 1104 1160 1159
f 1104 1105 1161 1160
f 1105 1106 1162 1161
f 1106 1107 1163 1162
f 1107 1108 1164 1163
f 1108 1109 1165 1164
f 1109 1110 1166 1165
f 1110 1111 1167 1166
f 1111 1112 1168 1167
f 1112 1113 1169 1168
f 1113 1114 1170 1169
f 1114 1115 1171 1170
f 1115 1116 1172 1171
f 1116 1117 1173 1172
f 1117 1118 1174 1173
f 1118 1119 1175 1174
f 1119 1120 1176 1175
f 1121 1122 1178 1177
f 1122 1123 1179 1178
f 1123 1124 1180 1179
f 1124 1125 1181 1180
f 1125 1126 1182 1181
f 1126 1127 1183 1182
f 1127 1128 1184 1183
f 1128 1129 1185 1184
f 1129 1130 1186 1185
f 1130 1131 1187 1186
f 1131 1132 1188 1187
f 1132 1133 1189 1188
f 1133 1134 1190 1189
f 1134 1135 1191 1190
f 1135 1136 1192 1191
f 1136 1137 1193 1192
f 1137 1138 1194 1193
f 1138 1139 1195 1194
f 1139 1140 1196 1195
f 1140 1141 1197 1196
f 1141 1142 1198 1197
f 1142 1143 1199 1198
f 1143 1144 1200 1199
f 1144 1145 1201 1200
f 1145 1146 1202 1201
f 1146 1147 1203 1202
f 1147 1148 1204 1203
f 1148 1149 1205 1204
f 1149 1150 1206 1205
f 1150 1151 1207 1206
f 1151 1152 1208 1207
f 1152 1153 1209 1208
f 1153 1154 1210 1209
f 1154 1155 1211 1210
f 1155 1156 1212 1211
f 1156 1157 1213 1212
f 1157 1158 1214 1213
f 1158 1159 1215 1214
f 1159 1160 1216 1215
f 1160 1161 1217 1216
f 1161 1162 1218 1217
f 1162 1163 1219 1218
f 1163 1164 1220 1219
f 1164 1165 1221 1220
f 1165 1166 1222 1221
f 1166 1167 1223 1222
f 1167 1168 1224 1223
f 1168 1169 1225 1224
f 1169 1170 1226 1225
f 1170 1171 1227 1226
f 1171 1172 1228 1227
f 1172 1173 1229 1228
f 1173 1174 1230 1229
f 1174 1175 1231 1230
f 1175 1176 1232 1231
f 1177 1178 1234 1233
f 1178 1179 1235 1234
f 1179 1180 1236 1235
f 1180 1181 1237 1236
f 1181 1182 1238 1237
f 1182 1183 1239 1238
f 1183 1184 1240 1239
f 1184 1185 1241 1240
f 1185 1186 1242 1241
f 1186 1187 1243 1242
f 1187 1188 1244 1243
f 1188 1189 1245 1244
f 1189 1190 1246 1245
f 1190 1191 1247 1246
f 1191 1192 1248 1247
f 1192 1193 1249 1248
f 1193 1194 1250 1249
f 1194 1195 1251 1250
f 1195 1196 1252 1251
f 1196 1197 1253 1252
f 1197 1198 1254 1253
f 1198 1199 1255 1254
f 1199 1200 1256 1255
f 1200 1201 1257 1256
f 1201 1202 1258 1257
f 1202 1203 1259 1258
f 1203 1204 1260 1259
f 1204 1205 1261 1260
f 1205 1206 1262 1261
f 1206 1207 1263 1262
f 1207 1208 1264 1263
f 1208 1209 1265 1264
f 1209 1210 1266 1265
f 1210 1211 1267 1266
f 1211 1212 1268 1267
f 1212 1213 1269 1268
f 1213 1214 1270 1269
f 1214 1215 1271 1270
f 1215 1216 1272 1271
f 1216 1217 1273 1272
f 1217 1218 1274 1273
f 1218 1219 1275 1274
f 1219 1220 1276 1275
f 1220 1221 1277 1276
f 1221 1222 1278 1277
f 1222 1223 1279 1278
f 1223 1224 1280 1279
f 1224 1225 1281 1280
f 1225 1226 1282 1281
f 1226 1227 1283 1282
f 1227 1228 1284 1283
f 1228 1229 1285 1284
f 1229 1230 1286 1285
f 1230 1231 1287 1286
f 1231 1232 1288 1287
