# grid_A, mesh coordinates of D:/code_ws/outputs/2026-09-09/gpr_raw_audit\model\registered\A\grid_lattice.obj
o grid_A
v -3.48732 4.17699 -6.20672
v -1.10887 -1.36092 -1.65352
v -2.83596 4.35934 -6.32517
v -0.45752 -1.17857 -1.77197
v -2.18461 4.54169 -6.44363
v 0.19383 -0.99622 -1.89043
v -1.53326 4.72404 -6.56209
v 0.84519 -0.81387 -2.00889
v -0.88190 4.90639 -6.68055
v 1.49654 -0.63152 -2.12735
v -0.23055 5.08874 -6.79900
v 2.14789 -0.44917 -2.24581
v 0.42080 5.27109 -6.91746
v 2.79925 -0.26681 -2.36426
v 1.07216 5.45345 -7.03592
v 3.45060 -0.08446 -2.48272
v 1.72351 5.63580 -7.15438
v 4.10195 0.09789 -2.60118
v 2.37487 5.81815 -7.27284
v 4.75331 0.28024 -2.71964
v 3.02622 6.00050 -7.39129
v 5.40466 0.46259 -2.83809
v 3.67757 6.18285 -7.50975
v 6.05602 0.64494 -2.95655
v -3.48732 4.17699 -6.20672
v 3.67757 6.18285 -7.50975
v -3.27110 3.67354 -5.79279
v 3.89379 5.67941 -7.09582
v -3.05487 3.17009 -5.37886
v 4.11002 5.17596 -6.68190
v -2.83865 2.66665 -4.96493
v 4.32624 4.67251 -6.26797
v -2.62243 2.16320 -4.55101
v 4.54246 4.16907 -5.85404
v -2.40621 1.65975 -4.13708
v 4.75868 3.66562 -5.44012
v -2.18999 1.15631 -3.72315
v 4.97490 3.16217 -5.02619
v -1.97376 0.65286 -3.30922
v 5.19113 2.65873 -4.61226
v -1.75754 0.14942 -2.89530
v 5.40735 2.15528 -4.19833
v -1.54132 -0.35403 -2.48137
v 5.62357 1.65184 -3.78441
v -1.32510 -0.85748 -2.06744
v 5.83979 1.14839 -3.37048
v -1.10887 -1.36092 -1.65352
v 6.05602 0.64494 -2.95655
l 1 2
l 3 4
l 5 6
l 7 8
l 9 10
l 11 12
l 13 14
l 15 16
l 17 18
l 19 20
l 21 22
l 23 24
l 25 26
l 27 28
l 29 30
l 31 32
l 33 34
l 35 36
l 37 38
l 39 40
l 41 42
l 43 44
l 45 46
l 47 48
