# grid_C, mesh coordinates of D:/code_ws/outputs/2026-09-09/gpr_raw_audit\model\registered\C\grid_lattice.obj
o grid_C
v -6.61406 6.07627 -11.45061
v 5.06171 5.69660 -9.40057
v -6.72478 5.57907 -10.91207
v 4.95098 5.19941 -8.86202
v -6.83551 5.08187 -10.37353
v 4.84026 4.70221 -8.32348
v -6.94624 4.58467 -9.83499
v 4.72953 4.20501 -7.78494
v -7.05696 4.08747 -9.29645
v 4.61880 3.70781 -7.24640
v -7.16769 3.59027 -8.75791
v 4.50808 3.21061 -6.70786
v -7.27841 3.09307 -8.21937
v 4.39735 2.71341 -6.16932
v -7.38914 2.59588 -7.68082
v 4.28663 2.21621 -5.63078
v -7.49986 2.09868 -7.14228
v 4.17590 1.71902 -5.09223
v -7.61059 1.60148 -6.60374
v 4.06518 1.22182 -4.55369
v -7.72131 1.10428 -6.06520
v 3.95445 0.72462 -4.01515
v -7.83204 0.60708 -5.52666
v 3.84373 0.22742 -3.47661
v -7.94276 0.10988 -4.98812
v 3.73300 -0.26978 -2.93807
v -8.05349 -0.38732 -4.44957
v 3.62228 -0.76698 -2.39953
v -8.16421 -0.88451 -3.91103
v 3.51155 -1.26418 -1.86098
v -6.61406 6.07627 -11.45061
v -8.16421 -0.88451 -3.91103
v -5.88432 6.05254 -11.32249
v -7.43448 -0.90824 -3.78291
v -5.15459 6.02881 -11.19436
v -6.70474 -0.93197 -3.65478
v -4.42485 6.00508 -11.06623
v -5.97501 -0.95570 -3.52665
v -3.69512 5.98135 -10.93810
v -5.24527 -0.97943 -3.39852
v -2.96538 5.95762 -10.80997
v -4.51554 -1.00316 -3.27039
v -2.23565 5.93389 -10.68185
v -3.78580 -1.02689 -3.14226
v -1.50591 5.91016 -10.55372
v -3.05607 -1.05062 -3.01414
v -0.77618 5.88644 -10.42559
v -2.32633 -1.07435 -2.88601
v -0.04644 5.86271 -10.29746
v -1.59660 -1.09807 -2.75788
v 0.68329 5.83898 -10.16933
v -0.86686 -1.12180 -2.62975
v 1.41303 5.81525 -10.04121
v -0.13713 -1.14553 -2.50162
v 2.14277 5.79152 -9.91308
v 0.59261 -1.16926 -2.37350
v 2.87250 5.76779 -9.78495
v 1.32234 -1.19299 -2.24537
v 3.60224 5.74406 -9.65682
v 2.05208 -1.21672 -2.11724
v 4.33197 5.72033 -9.52869
v 2.78182 -1.24045 -1.98911
v 5.06171 5.69660 -9.40057
v 3.51155 -1.26418 -1.86098
l 1 2
l 3 4
l 5 6
l 7 8
l 9 10
l 11 12
l 13 14
l 15 16
l 17 18
l 19 20
l 21 22
l 23 24
l 25 26
l 27 28
l 29 30
l 31 32
l 33 34
l 35 36
l 37 38
l 39 40
l 41 42
l 43 44
l 45 46
l 47 48
l 49 50
l 51 52
l 53 54
l 55 56
l 57 58
l 59 60
l 61 62
l 63 64
