# B1, mesh coordinates of D:/code_ws/outputs/2026-09-09/gpr_raw_audit\model\registered\B\B1_in_mesh.obj
o B1
v -4.01805 -0.58386 -4.00504
v -4.01566 -0.62333 -3.91463
v -4.01332 -0.66418 -3.82478
v -4.01105 -0.70648 -3.73551
v -4.00878 -0.74870 -3.64620
v -4.00660 -0.79292 -3.55771
v -4.00438 -0.83633 -3.46889
v -4.00214 -0.87928 -3.37988
v -3.99985 -0.92103 -3.29039
v -3.99758 -0.96325 -3.20108
v -3.99532 -1.00583 -3.11193
v -3.99318 -1.05088 -3.02376
v -3.99107 -1.09666 -2.93590
v -3.98903 -1.14409 -2.84869
v -3.98696 -1.19078 -2.76119
v -3.98482 -1.23583 -2.67303
v -3.98256 -1.27832 -2.58383
v -3.98025 -1.31981 -2.49423
v -3.97795 -1.36129 -2.40464
v -3.97572 -1.40451 -2.31574
v -3.97356 -1.44919 -2.22743
v -3.97158 -1.49781 -2.14070
v -3.96978 -1.55045 -2.05559
v -3.96810 -1.60574 -1.97155
v -3.96647 -1.66203 -1.88791
v -3.96478 -1.71714 -1.80379
v -3.96293 -1.76859 -1.71821
v -3.96087 -1.81547 -1.63078
v -3.95866 -1.85914 -1.54206
v -3.95629 -1.89907 -1.45184
v -3.95386 -1.93781 -1.36114
v -3.91944 -0.58467 -4.00808
v -3.91707 -0.62469 -3.91789
v -3.91476 -0.66617 -3.82829
v -3.91252 -0.70903 -3.73925
v -3.91027 -0.75179 -3.65016
v -3.90809 -0.79593 -3.56163
v -3.90586 -0.83915 -3.47273
v -3.90362 -0.88210 -3.38372
v -3.90134 -0.92413 -3.29435
v -3.89909 -0.96680 -3.20523
v -3.89687 -1.01021 -3.11640
v -3.89476 -1.05608 -3.02857
v -3.89268 -1.10259 -2.94099
v -3.89067 -1.15047 -2.85397
v -3.88862 -1.19754 -2.76662
v -3.88649 -1.24286 -2.67857
v -3.88423 -1.28544 -2.58941
v -3.88192 -1.32683 -2.49977
v -3.87960 -1.36804 -2.41007
v -3.87735 -1.41072 -2.32095
v -3.87517 -1.45485 -2.23241
v -3.87314 -1.50255 -2.14532
v -3.87128 -1.55382 -2.05966
v -3.86950 -1.60691 -1.97473
v -3.86777 -1.66110 -1.89025
v -3.86601 -1.71447 -1.80543
v -3.86411 -1.76483 -1.71940
v -3.86204 -1.81161 -1.63194
v -3.85988 -1.85621 -1.54359
v -3.85755 -1.89723 -1.45381
v -3.85516 -1.93680 -1.36344
v -3.82080 -0.58484 -4.01086
v -3.81846 -0.62559 -3.92096
v -3.81618 -0.66772 -3.83162
v -3.81398 -0.71149 -3.74295
v -3.81177 -0.75507 -3.65419
v -3.80957 -0.79903 -3.56559
v -3.80733 -0.84188 -3.47654
v -3.80510 -0.88492 -3.38757
v -3.80283 -0.92732 -3.29834
v -3.80061 -0.97063 -3.20948
v -3.79844 -1.01513 -3.12109
v -3.79638 -1.06201 -3.03367
v -3.79434 -1.10944 -2.94646
v -3.79236 -1.15805 -2.85973
v -3.79033 -1.20557 -2.77256
v -3.78821 -1.25117 -2.68462
v -3.78597 -1.29402 -2.59557
v -3.78365 -1.33523 -2.50587
v -3.78131 -1.37598 -2.41597
v -3.77903 -1.41793 -2.32656
v -3.77681 -1.46142 -2.23777
v -3.77473 -1.50793 -2.15020
v -3.77278 -1.55719 -2.06373
v -3.77088 -1.60745 -1.97766
v -3.76902 -1.65890 -1.89207
v -3.76715 -1.70989 -1.80630
v -3.76518 -1.75887 -1.71972
v -3.76311 -1.80547 -1.63218
v -3.76100 -1.85135 -1.54435
v -3.75874 -1.89384 -1.45516
v -3.75640 -1.93450 -1.36523
v -3.72211 -0.58419 -4.01331
v -3.71982 -0.62595 -3.92382
v -3.71758 -0.66898 -3.83485
v -3.71544 -0.71394 -3.74665
v -3.71326 -0.75835 -3.65822
v -3.71107 -0.80221 -3.56958
v -3.70881 -0.84470 -3.48039
v -3.70657 -0.88774 -3.39142
v -3.70432 -0.93050 -3.30233
v -3.70214 -0.97473 -3.21384
v -3.70003 -1.02051 -3.12597
v -3.69803 -1.06876 -3.03910
v -3.69605 -1.11738 -2.95237
v -3.69410 -1.16672 -2.86593
v -3.69211 -1.21497 -2.77906
v -3.69000 -1.26094 -2.69126
v -3.68777 -1.30397 -2.60229
v -3.68544 -1.34500 -2.51251
v -3.68308 -1.38530 -2.42243
v -3.68076 -1.42632 -2.33265
v -3.67850 -1.46890 -2.24349
v -3.67635 -1.51386 -2.15529
v -3.67429 -1.56065 -2.06783
v -3.67222 -1.60734 -1.98033
v -3.67021 -1.65532 -1.89334
v -3.66820 -1.70330 -1.80636
v -3.66615 -1.75054 -1.71908
v -3.66408 -1.79714 -1.63154
v -3.66204 -1.84457 -1.54433
v -3.65986 -1.88870 -1.45580
v -3.65758 -1.93083 -1.36646
v -3.62336 -0.58189 -4.01509
v -3.62110 -0.62438 -3.92590
v -3.61890 -0.66824 -3.83726
v -3.61679 -0.71411 -3.74943
v -3.61466 -0.75934 -3.66134
v -3.61246 -0.80330 -3.57273
v -3.61020 -0.84579 -3.48354
v -3.60799 -0.88919 -3.39471
v -3.60577 -0.93269 -3.30592
v -3.60363 -0.97774 -3.21776
v -3.60157 -1.02461 -3.13033
v -3.59961 -1.07387 -3.04386
v -3.59767 -1.12322 -2.95743
v -3.59572 -1.17265 -2.87103
v -3.59372 -1.22081 -2.78412
v -3.59161 -1.26668 -2.69629
v -3.58937 -1.30963 -2.60728
v -3.58703 -1.35038 -2.51739
v -3.58466 -1.39040 -2.42720
v -3.58232 -1.43107 -2.33727
v -3.58005 -1.47328 -2.24797
v -3.57785 -1.51723 -2.15936
v -3.57571 -1.56237 -2.07124
v -3.57354 -1.60669 -1.98278
v -3.57141 -1.65220 -1.89480
v -3.56931 -1.69816 -1.80700
v -3.56722 -1.74431 -1.71928
v -3.56515 -1.79100 -1.63178
v -3.56317 -1.83962 -1.54505
v -3.56105 -1.88522 -1.45711
v -3.55882 -1.92844 -1.36821
v -3.52451 -0.57767 -4.01611
v -3.52228 -0.62080 -3.92717
v -3.52012 -0.66548 -3.83886
v -3.51804 -0.71200 -3.75129
v -3.51595 -0.75805 -3.66353
v -3.51377 -0.80237 -3.57507
v -3.51153 -0.84532 -3.48606
v -3.50934 -0.88936 -3.39749
v -3.50717 -0.93377 -3.30907
v -3.50507 -0.97973 -3.22128
v -3.50305 -1.02762 -3.13425
v -3.50112 -1.07742 -3.04800
v -3.49918 -1.12695 -2.96164
v -3.49721 -1.17575 -2.87499
v -3.49518 -1.22327 -2.78782
v -3.49304 -1.26850 -2.69973
v -3.49078 -1.31099 -2.61054
v -3.48843 -1.35138 -2.52050
v -3.48606 -1.39149 -2.43035
v -3.48372 -1.43215 -2.34042
v -3.48145 -1.47446 -2.25115
v -3.47925 -1.51823 -2.16247
v -3.47706 -1.56245 -2.07398
v -3.47483 -1.60549 -1.98501
v -3.47265 -1.64972 -1.89651
v -3.47049 -1.69449 -1.80824
v -3.46838 -1.74018 -1.72033
v -3.46633 -1.78724 -1.63298
v -3.46438 -1.83668 -1.54658
v -3.46231 -1.88329 -1.45905
v -3.46012 -1.92742 -1.37051
v -3.42559 -0.57172 -4.01642
v -3.42338 -0.61530 -3.92767
v -3.42124 -0.66053 -3.83958
v -3.41920 -0.70778 -3.75230
v -3.41713 -0.75447 -3.66480
v -3.41498 -0.79943 -3.57660
v -3.41277 -0.84302 -3.48785
v -3.41063 -0.88807 -3.39968
v -3.40851 -0.93367 -3.31174
v -3.40645 -0.98064 -3.22435
v -3.40448 -1.02934 -3.13766
v -3.40256 -1.07942 -3.05152
v -3.40061 -1.12858 -2.96501
v -3.39857 -1.17610 -2.87784
v -3.39648 -1.22234 -2.79016
v -3.39429 -1.26629 -2.70155
v -3.39199 -1.30787 -2.61199
v -3.38961 -1.34780 -2.52177
v -3.38727 -1.38837 -2.43180
v -3.38495 -1.42958 -2.34210
v -3.38270 -1.47243 -2.25305
v -3.38052 -1.51657 -2.16452
v -3.37834 -1.56079 -2.07602
v -3.37610 -1.60374 -1.98701
v -3.37390 -1.64760 -1.89837
v -3.37174 -1.69229 -1.81006
v -3.36963 -1.73807 -1.72219
v -3.36760 -1.78559 -1.63502
v -3.36568 -1.83566 -1.54888
v -3.36364 -1.88300 -1.46164
v -3.36148 -1.92768 -1.37333
v -3.32658 -0.56393 -4.01600
v -3.32439 -0.60788 -3.92740
v -3.32228 -0.65367 -3.83953
v -3.32025 -0.70118 -3.75236
v -3.31821 -0.74852 -3.66511
v -3.31610 -0.79430 -3.57725
v -3.31394 -0.83907 -3.48897
v -3.31186 -0.88540 -3.40132
v -3.30981 -0.93256 -3.31401
v -3.30780 -0.98062 -3.22706
v -3.30585 -1.02979 -3.14055
v -3.30393 -1.07986 -3.05441
v -3.30194 -1.12821 -2.96757
v -3.29981 -1.17371 -2.87959
v -3.29763 -1.21785 -2.79106
v -3.29536 -1.26006 -2.70176
v -3.29300 -1.30036 -2.61168
v -3.29059 -1.33974 -2.52124
v -3.28828 -1.38113 -2.43160
v -3.28601 -1.42335 -2.34230
v -3.28382 -1.46730 -2.25370
v -3.28168 -1.51244 -2.16557
v -3.27954 -1.55749 -2.07741
v -3.27734 -1.60144 -1.98880
v -3.27519 -1.64622 -1.90053
v -3.27306 -1.69163 -1.81251
v -3.27098 -1.73805 -1.72490
v -3.26898 -1.78630 -1.63803
v -3.26708 -1.83666 -1.55200
v -3.26505 -1.88436 -1.46490
v -3.26290 -1.92932 -1.37670
v -3.22750 -0.55441 -4.01488
v -3.22531 -0.59845 -3.92631
v -3.22322 -0.64460 -3.83859
v -3.22120 -0.69249 -3.75157
v -3.21919 -0.74037 -3.66455
v -3.21713 -0.78725 -3.57712
v -3.21504 -0.83349 -3.48943
v -3.21302 -0.88137 -3.40241
v -3.21105 -0.93026 -3.31579
v -3.20910 -0.97951 -3.22932
v -3.20716 -1.02913 -3.14300
v -3.20522 -1.07866 -3.05664
v -3.20316 -1.12554 -2.96921
v -3.20092 -1.16840 -2.88017
v -3.19861 -1.20979 -2.79053
v -3.19623 -1.24972 -2.70031
v -3.19379 -1.28828 -2.60953
v -3.19138 -1.32729 -2.51894
v -3.18911 -1.36969 -2.42971
v -3.18691 -1.41346 -2.34103
v -3.18479 -1.45897 -2.25305
v -3.18273 -1.50585 -2.16563
v -3.18067 -1.55272 -2.07820
v -3.17857 -1.59878 -1.99044
v -3.17650 -1.64538 -1.90290
v -3.17445 -1.69254 -1.81559
v -3.17242 -1.74024 -1.72849
v -3.17046 -1.78922 -1.64191
v -3.16856 -1.83957 -1.55588
v -3.16653 -1.88727 -1.46878
v -3.16438 -1.93223 -1.38058
v -3.12867 -0.55047 -4.01601
v -3.12647 -0.59433 -3.92736
v -3.12438 -0.64057 -3.83968
v -3.12235 -0.68818 -3.75255
v -3.12033 -0.73579 -3.66541
v -3.11827 -0.78275 -3.57802
v -3.11620 -0.82945 -3.49052
v -3.11421 -0.87788 -3.40372
v -3.11228 -0.92759 -3.31743
v -3.11036 -0.97749 -3.23122
v -3.10842 -1.02711 -3.14490
v -3.10647 -1.07637 -3.05843
v -3.10436 -1.12224 -2.97059
v -3.10204 -1.16336 -2.88085
v -3.09965 -1.20310 -2.79055
v -3.09722 -1.24184 -2.69985
v -3.09475 -1.27967 -2.60878
v -3.09233 -1.31869 -2.51819
v -3.09012 -1.36218 -2.42940
v -3.08799 -1.40751 -2.34135
v -3.08592 -1.45429 -2.25388
v -3.08393 -1.50272 -2.16708
v -3.08194 -1.55107 -2.08024
v -3.07992 -1.59895 -1.99322
v -3.07792 -1.64702 -1.90627
v -3.07592 -1.69527 -1.81940
v -3.07393 -1.74379 -1.73263
v -3.07198 -1.79304 -1.64616
v -3.07006 -1.84303 -1.55998
v -3.06803 -1.89046 -1.47278
v -3.06587 -1.93532 -1.38454
v -3.03009 -0.55219 -4.01941
v -3.02788 -0.59569 -3.93062
v -3.02577 -0.64138 -3.84272
v -3.02370 -0.68825 -3.75529
v -3.02163 -0.73486 -3.66775
v -3.01954 -0.78100 -3.58003
v -3.01744 -0.82706 -3.49227
v -3.01543 -0.87504 -3.40529
v -3.01349 -0.92456 -3.31893
v -3.01157 -0.97446 -3.23271
v -3.00962 -1.02390 -3.14632
v -3.00765 -1.07279 -3.05970
v -3.00552 -1.11811 -2.97165
v -3.00317 -1.15850 -2.88161
v -3.00076 -1.19770 -2.79109
v -2.99832 -1.23635 -2.70035
v -2.99586 -1.27436 -2.60935
v -2.99347 -1.31410 -2.51906
v -2.99131 -1.35879 -2.43075
v -2.98924 -1.40539 -2.34321
v -2.98723 -1.45337 -2.25622
v -2.98529 -1.50299 -2.16990
v -2.98336 -1.55270 -2.08361
v -2.98140 -1.60186 -1.99710
v -2.97944 -1.65093 -1.91056
v -2.97748 -1.70001 -1.82402
v -2.97551 -1.74880 -1.73736
v -2.97354 -1.79779 -1.65078
v -2.97160 -1.84713 -1.56435
v -2.96954 -1.89410 -1.47696
v -2.96737 -1.93851 -1.38854
v -2.93177 -0.55949 -4.02506
v -2.92953 -0.60235 -3.93602
v -2.92738 -0.64721 -3.84778
v -2.92526 -0.69281 -3.75984
v -2.92310 -0.73750 -3.67153
v -2.92092 -0.78182 -3.58307
v -2.91875 -0.82632 -3.49468
v -2.91667 -0.87274 -3.40707
v -2.91468 -0.92108 -3.32023
v -2.91273 -0.97052 -3.23384
v -2.91077 -1.01950 -3.14726
v -2.90878 -1.06793 -3.06045
v -2.90664 -1.11316 -2.97237
v -2.90430 -1.15382 -2.88244
v -2.90191 -1.19348 -2.79210
v -2.89952 -1.23304 -2.70173
v -2.89712 -1.27242 -2.61129
v -2.89480 -1.31354 -2.52154
v -2.89269 -1.35941 -2.43371
v -2.89067 -1.40711 -2.34661
v -2.88870 -1.45610 -2.26003
v -2.88681 -1.50681 -2.17415
v -2.88493 -1.55753 -2.08827
v -2.88301 -1.60761 -2.00213
v -2.88108 -1.65732 -1.91584
v -2.87913 -1.70658 -1.82937
v -2.87715 -1.75519 -1.74264
v -2.87514 -1.80335 -1.65573
v -2.87315 -1.85178 -1.56893
v -2.87106 -1.89802 -1.48125
v -2.86887 -1.94188 -1.39260
v -2.83371 -0.57246 -4.03299
v -2.83143 -0.61440 -3.94358
v -2.82921 -0.65790 -3.85479
v -2.82701 -0.70176 -3.76615
v -2.82473 -0.74379 -3.67677
v -2.82243 -0.78528 -3.58717
v -2.82014 -0.82713 -3.49772
v -2.81794 -0.87099 -3.40908
v -2.81585 -0.91723 -3.32140
v -2.81386 -0.96566 -3.23459
v -2.81186 -1.01382 -3.14768
v -2.80985 -1.06188 -3.06073
v -2.80773 -1.10748 -2.97279
v -2.80544 -1.14924 -2.88330
v -2.80313 -1.19063 -2.79367
v -2.80083 -1.23221 -2.70411
v -2.79852 -1.27369 -2.61451
v -2.79630 -1.31691 -2.52561
v -2.79425 -1.36406 -2.43829
v -2.79227 -1.41277 -2.35160
v -2.79034 -1.46257 -2.26535
v -2.78849 -1.51402 -2.17976
v -2.78664 -1.56547 -2.09418
v -2.78475 -1.61619 -2.00829
v -2.78282 -1.66599 -1.92204
v -2.78086 -1.71507 -1.83550
v -2.77885 -1.76295 -1.74848
v -2.77679 -1.80992 -1.66109
v -2.77474 -1.85698 -1.57373
v -2.77261 -1.90230 -1.48568
v -2.77038 -1.94543 -1.39675
v -2.73591 -0.59110 -4.04321
v -2.73356 -0.63176 -3.95328
v -2.73127 -0.67352 -3.86379
v -2.72896 -0.71500 -3.77419
v -2.72653 -0.75356 -3.68341
v -2.72405 -0.79130 -3.59231
v -2.72160 -0.82958 -3.50142
v -2.71923 -0.86979 -3.41131
v -2.71701 -0.91301 -3.32241
v -2.71494 -0.95979 -3.23495
v -2.71289 -1.00695 -3.14763
v -2.71087 -1.05465 -3.06053
v -2.70879 -1.10098 -2.97288
v -2.70659 -1.14484 -2.88424
v -2.70441 -1.18906 -2.79575
v -2.70225 -1.23375 -2.70744
v -2.70009 -1.27852 -2.61917
v -2.69798 -1.32421 -2.53126
v -2.69599 -1.37283 -2.44453
v -2.69405 -1.42227 -2.35813
v -2.69215 -1.47262 -2.27211
v -2.69032 -1.52462 -2.18674
v -2.68849 -1.57661 -2.10137
v -2.68661 -1.62751 -2.01556
v -2.68467 -1.67704 -1.92920
v -2.68268 -1.72548 -1.84240
v -2.68061 -1.77208 -1.75486
v -2.67847 -1.81722 -1.66674
v -2.67634 -1.86264 -1.57872
v -2.67416 -1.90677 -1.49019
v -2.67189 -1.94908 -1.40092
v -2.63796 -0.60663 -4.05217
v -2.63557 -0.64638 -3.96187
v -2.63322 -0.68676 -3.87183
v -2.63083 -0.72633 -3.78146
v -2.62825 -0.76187 -3.68947
v -2.62564 -0.79659 -3.59715
v -2.62305 -0.83186 -3.50505
v -2.62055 -0.86913 -3.41376
v -2.61821 -0.90989 -3.32387
v -2.61609 -0.95539 -3.23589
v -2.61400 -1.00163 -3.14820
v -2.61196 -1.04887 -3.06092
v -2.60989 -1.09557 -2.97342
v -2.60776 -1.14089 -2.88537
v -2.60567 -1.18722 -2.79772
v -2.60363 -1.23447 -2.71044
v -2.60158 -1.28171 -2.62316
v -2.59956 -1.32950 -2.53610
v -2.59764 -1.37931 -2.44985
v -2.59572 -1.42938 -2.36371
v -2.59383 -1.48010 -2.27783
v -2.59202 -1.53228 -2.19254
v -2.59020 -1.58456 -2.10728
v -2.58833 -1.63555 -2.02151
v -2.58637 -1.68480 -1.93504
v -2.58436 -1.73278 -1.84805
v -2.58226 -1.77865 -1.76022
v -2.58007 -1.82279 -1.67169
v -2.57790 -1.86720 -1.58327
v -2.57568 -1.91069 -1.49448
v -2.57339 -1.95245 -1.40499
v -2.53987 -0.61905 -4.05988
v -2.53746 -0.65816 -3.96932
v -2.53505 -0.69745 -3.87884
v -2.53259 -0.73555 -3.78788
v -2.52991 -0.76881 -3.69497
v -2.52718 -0.80096 -3.60162
v -2.52449 -0.83395 -3.50860
v -2.52190 -0.86903 -3.41643
v -2.51947 -0.90795 -3.32580
v -2.51730 -0.95245 -3.23742
v -2.51518 -0.99787 -3.14940
v -2.51311 -1.04456 -3.06190
v -2.51104 -1.09126 -2.97440
v -2.50895 -1.13741 -2.88668
v -2.50693 -1.18529 -2.79965
v -2.50497 -1.23436 -2.71311
v -2.50301 -1.28353 -2.62660
v -2.50107 -1.33296 -2.54021
v -2.49917 -1.38350 -2.45425
v -2.49728 -1.43403 -2.36829
v -2.49540 -1.48484 -2.28245
v -2.49358 -1.53712 -2.19719
v -2.49177 -1.58939 -2.11194
v -2.48989 -1.64029 -2.02613
v -2.48792 -1.68927 -1.93955
v -2.48591 -1.73715 -1.85252
v -2.48379 -1.78275 -1.76458
v -2.48159 -1.82652 -1.67590
v -2.47940 -1.87057 -1.58734
v -2.47718 -1.91397 -1.49851
v -2.47488 -1.95554 -1.40895
v -2.44165 -0.62846 -4.06637
v -2.43921 -0.66701 -3.97560
v -2.43678 -0.70576 -3.88490
v -2.43427 -0.74276 -3.79350
v -2.43151 -0.77419 -3.69985
v -2.42870 -0.80461 -3.60580
v -2.42593 -0.83594 -3.51212
v -2.42326 -0.86938 -3.41928
v -2.42079 -0.90721 -3.32821
v -2.41858 -0.95089 -3.23950
v -2.41643 -0.99575 -3.15126
v -2.41432 -1.04163 -3.06343
v -2.41225 -1.08814 -2.97585
v -2.41017 -1.13465 -2.88828
v -2.40819 -1.18327 -2.80155
v -2.40628 -1.23344 -2.71545
v -2.40438 -1.28388 -2.62946
v -2.40248 -1.33441 -2.54350
v -2.40061 -1.38550 -2.45777
v -2.39873 -1.43622 -2.37188
v -2.39684 -1.48693 -2.28600
v -2.39501 -1.53893 -2.20064
v -2.39319 -1.59093 -2.11527
v -2.39130 -1.64165 -2.02939
v -2.38933 -1.69045 -1.94273
v -2.38732 -1.73851 -1.85578
v -2.38521 -1.78439 -1.76795
v -2.38303 -1.82852 -1.67942
v -2.38085 -1.87293 -1.59100
v -2.37864 -1.91652 -1.50225
v -2.37635 -1.95827 -1.41276
v -2.34328 -0.63466 -4.07158
v -2.34084 -0.67322 -3.98081
v -2.33839 -0.71169 -3.88999
v -2.33585 -0.74787 -3.79826
v -2.33304 -0.77820 -3.70418
v -2.33017 -0.80743 -3.60965
v -2.32737 -0.83785 -3.51560
v -2.32465 -0.87028 -3.42236
v -2.32215 -0.90756 -3.33107
v -2.31992 -0.95078 -3.24217
v -2.31775 -0.99510 -3.15371
v -2.31561 -1.04024 -3.06558
v -2.31350 -1.08612 -2.97775
v -2.31141 -1.13235 -2.89007
v -2.30944 -1.18115 -2.80341
v -2.30755 -1.23178 -2.71749
v -2.30568 -1.28286 -2.63176
v -2.30381 -1.33385 -2.54599
v -2.30194 -1.38512 -2.46033
v -2.30006 -1.43593 -2.37448
v -2.29817 -1.48646 -2.28852
v -2.29631 -1.53791 -2.20294
v -2.29446 -1.58936 -2.11735
v -2.29256 -1.63972 -2.03132
v -2.29059 -1.68851 -1.94467
v -2.28860 -1.73695 -1.85786
v -2.28652 -1.78355 -1.77033
v -2.28438 -1.82869 -1.68220
v -2.28226 -1.87411 -1.59418
v -2.28008 -1.91842 -1.50573
v -2.27781 -1.96073 -1.41646
v -2.24477 -0.63785 -4.07558
v -2.24233 -0.67650 -3.98484
v -2.23990 -0.71515 -3.89410
v -2.23734 -0.75105 -3.80226
v -2.23450 -0.78084 -3.70795
v -2.23162 -0.80952 -3.61320
v -2.22880 -0.83967 -3.51904
v -2.22607 -0.87183 -3.42569
v -2.22357 -0.90901 -3.33436
v -2.22133 -0.95205 -3.24539
v -2.21914 -0.99609 -3.15682
v -2.21696 -1.04032 -3.06833
v -2.21481 -1.08519 -2.98009
v -2.21268 -1.13069 -2.89211
v -2.21069 -1.17894 -2.80523
v -2.20878 -1.22930 -2.71921
v -2.20691 -1.28038 -2.63347
v -2.20504 -1.33146 -2.54774
v -2.20317 -1.38255 -2.46200
v -2.20129 -1.43327 -2.37612
v -2.19937 -1.48325 -2.28994
v -2.19748 -1.53388 -2.20402
v -2.19559 -1.58460 -2.11814
v -2.19367 -1.63449 -2.03193
v -2.19170 -1.68329 -1.94528
v -2.18974 -1.73236 -1.85873
v -2.18772 -1.78034 -1.77175
v -2.18566 -1.82722 -1.68432
v -2.18361 -1.87428 -1.59696
v -2.18149 -1.91978 -1.50899
v -2.17926 -1.96291 -1.42005
v -2.14597 -0.63464 -4.07700
v -2.14354 -0.67347 -3.98633
v -2.14113 -0.71248 -3.89574
v -2.13858 -0.74866 -3.80401
v -2.13576 -0.77890 -3.70988
v -2.13290 -0.80804 -3.61532
v -2.13010 -0.83874 -3.52138
v -2.12740 -0.87154 -3.42828
v -2.12492 -0.90927 -3.33718
v -2.12269 -0.95231 -3.24821
v -2.12050 -0.99645 -3.15967
v -2.11830 -1.04022 -3.07100
v -2.11613 -1.08463 -2.98258
v -2.11399 -1.12986 -2.89449
v -2.11199 -1.17802 -2.80757
v -2.11010 -1.22855 -2.72162
v -2.10824 -1.28000 -2.63603
v -2.10640 -1.33154 -2.55048
v -2.10454 -1.38299 -2.46489
v -2.10267 -1.43389 -2.37908
v -2.10075 -1.48388 -2.29291
v -2.09884 -1.53414 -2.20684
v -2.09693 -1.58431 -2.12074
v -2.09500 -1.63411 -2.03449
v -2.09304 -1.68319 -1.94795
v -2.09111 -1.73290 -1.86166
v -2.08914 -1.78188 -1.77508
v -2.08714 -1.83013 -1.68820
v -2.08515 -1.87847 -1.60136
v -2.08306 -1.92462 -1.51364
v -2.08085 -1.96839 -1.42496
v -2.04687 -0.62484 -4.07576
v -2.04447 -0.66413 -3.98528
v -2.04207 -0.70360 -3.89488
v -2.03956 -0.74061 -3.80348
v -2.03681 -0.77222 -3.70990
v -2.03401 -0.80291 -3.61596
v -2.03129 -0.83516 -3.52265
v -2.02864 -0.86924 -3.43007
v -2.02621 -0.90798 -3.33937
v -2.02400 -0.95157 -3.25062
v -2.02184 -0.99607 -3.16223
v -2.01964 -1.03993 -3.07359
v -2.01746 -1.08434 -2.98517
v -2.01534 -1.12985 -2.89719
v -2.01336 -1.17837 -2.81043
v -2.01149 -1.22945 -2.72469
v -2.00967 -1.28173 -2.63944
v -2.00786 -1.33418 -2.55425
v -2.00604 -1.38627 -2.46892
v -2.00420 -1.43790 -2.38341
v -2.00229 -1.48826 -2.29738
v -2.00039 -1.53852 -2.21131
v -1.99847 -1.58869 -2.12521
v -1.99656 -1.63867 -2.03904
v -1.99461 -1.68820 -1.95268
v -1.99271 -1.73855 -1.86665
v -1.99078 -1.78836 -1.78040
v -1.98883 -1.83761 -1.69393
v -1.98687 -1.88659 -1.60734
v -1.98479 -1.93311 -1.51977
v -1.98260 -1.97706 -1.43117
v -1.94749 -0.60865 -4.07196
v -1.94510 -0.64839 -3.98166
v -1.94274 -0.68869 -3.89159
v -1.94029 -0.72697 -3.80070
v -1.93764 -0.76096 -3.70808
v -1.93496 -0.79412 -3.61514
v -1.93234 -0.82875 -3.52278
v -1.92980 -0.86493 -3.43105
v -1.92745 -0.90541 -3.34105
v -1.92527 -0.94973 -3.25259
v -1.92313 -0.99496 -3.16450
v -1.92096 -1.03937 -3.07608
v -1.91881 -1.08433 -2.98788
v -1.91673 -1.13066 -2.90023
v -1.91477 -1.17991 -2.81376
v -1.91295 -1.23209 -2.72847
v -1.91119 -1.28546 -2.64365
v -1.90944 -1.33929 -2.55902
v -1.90767 -1.39257 -2.47417
v -1.90588 -1.44530 -2.38910
v -1.90401 -1.49638 -2.30336
v -1.90212 -1.54710 -2.21748
v -1.90022 -1.59754 -2.13149
v -1.89833 -1.64817 -2.04557
v -1.89642 -1.69825 -1.95943
v -1.89454 -1.74915 -1.87362
v -1.89265 -1.79968 -1.78767
v -1.89073 -1.84967 -1.70149
v -1.88877 -1.89874 -1.61494
v -1.88669 -1.94525 -1.52737
v -1.88449 -1.98911 -1.43873
v -1.84780 -0.58596 -4.06554
v -1.84544 -0.62625 -3.97546
v -1.84313 -0.66756 -3.88579
v -1.84077 -0.70776 -3.79568
v -1.83826 -0.74495 -3.70435
v -1.83574 -0.78168 -3.61284
v -1.83327 -0.81959 -3.52181
v -1.83087 -0.85879 -3.43129
v -1.82861 -0.90128 -3.34210
v -1.82649 -0.94688 -3.25415
v -1.82440 -0.99312 -3.16647
v -1.82228 -1.03872 -3.07853
v -1.82018 -1.08468 -2.99073
v -1.81815 -1.13229 -2.90360
v -1.81625 -1.18283 -2.81764
v -1.81450 -1.23638 -2.73290
v -1.81280 -1.29130 -2.64871
v -1.81114 -1.34696 -2.56482
v -1.80944 -1.40179 -2.48059
v -1.80771 -1.45598 -2.39611
v -1.80590 -1.50834 -2.31089
v -1.80405 -1.55988 -2.22534
v -1.80219 -1.61115 -2.13968
v -1.80034 -1.66260 -2.05409
v -1.79846 -1.71350 -1.96828
v -1.79661 -1.76495 -1.88269
v -1.79473 -1.81594 -1.79692
v -1.79283 -1.86620 -1.71086
v -1.79086 -1.91509 -1.62424
v -1.78876 -1.96115 -1.53648
v -1.78654 -2.00455 -1.44765
v -1.74783 -0.55678 -4.05651
v -1.74550 -0.59781 -3.96673
v -1.74324 -0.64030 -3.87753
v -1.74099 -0.68297 -3.78842
v -1.73868 -0.72436 -3.69878
v -1.73636 -0.76566 -3.60911
v -1.73408 -0.80770 -3.51973
v -1.73184 -0.85064 -3.43072
v -1.72971 -0.89588 -3.34263
v -1.72766 -0.94303 -3.25532
v -1.72563 -0.99064 -3.16818
v -1.72358 -1.03779 -3.08087
v -1.72155 -1.08531 -2.99370
v -1.71961 -1.13475 -2.90730
v -1.71779 -1.18702 -2.82204
v -1.71611 -1.24231 -2.73800
v -1.71451 -1.29924 -2.65462
v -1.71295 -1.35709 -2.57161
v -1.71134 -1.41403 -2.48823
v -1.70970 -1.47005 -2.40448
v -1.70797 -1.52415 -2.31996
v -1.70618 -1.57697 -2.23492
v -1.70436 -1.62933 -2.14970
v -1.70257 -1.68197 -2.06460
v -1.70073 -1.73379 -1.97916
v -1.69890 -1.78569 -1.89375
v -1.69704 -1.83705 -1.80813
v -1.69513 -1.88731 -1.72206
v -1.69313 -1.93538 -1.63511
v -1.69100 -1.98079 -1.54710
v -1.68875 -2.02346 -1.45798
v -1.64842 -0.54022 -4.05256
v -1.64612 -0.58189 -3.96303
v -1.64392 -0.62557 -3.87432
v -1.64177 -0.67043 -3.78608
v -1.63960 -0.71512 -3.69777
v -1.63744 -0.75980 -3.60946
v -1.63530 -0.80476 -3.52126
v -1.63317 -0.85017 -3.43324
v -1.63110 -0.89696 -3.34578
v -1.62909 -0.94494 -3.25879
v -1.62711 -0.99346 -3.17203
v -1.62512 -1.04189 -3.08523
v -1.62314 -1.09060 -2.99854
v -1.62127 -1.14168 -2.91280
v -1.61951 -1.19514 -2.82802
v -1.61788 -1.25144 -2.74439
v -1.61631 -1.30920 -2.66134
v -1.61480 -1.36823 -2.57880
v -1.61323 -1.42590 -2.49572
v -1.61163 -1.48283 -2.41234
v -1.60993 -1.53776 -2.32815
v -1.60817 -1.59122 -2.24337
v -1.60638 -1.64413 -2.15837
v -1.60462 -1.69759 -2.07359
v -1.60280 -1.74968 -1.98826
v -1.60098 -1.80177 -1.90293
v -1.59911 -1.85304 -1.81727
v -1.59719 -1.90284 -1.73102
v -1.59514 -1.95008 -1.64374
v -1.59298 -1.99477 -1.55543
v -1.59070 -2.03680 -1.46606
v -1.54958 -0.53619 -4.05364
v -1.54732 -0.57868 -3.96445
v -1.54517 -0.62345 -3.87618
v -1.54310 -0.67005 -3.78864
v -1.54105 -0.71721 -3.70132
v -1.53899 -0.76418 -3.61393
v -1.53692 -0.81078 -3.52640
v -1.53485 -0.85747 -3.43889
v -1.53281 -0.90472 -3.35161
v -1.53080 -0.95279 -3.26467
v -1.52883 -1.00158 -3.17801
v -1.52688 -1.05102 -3.09161
v -1.52495 -1.10073 -3.00533
v -1.52313 -1.15291 -2.92003
v -1.52140 -1.20720 -2.83559
v -1.51978 -1.26368 -2.75202
v -1.51821 -1.32143 -2.66897
v -1.51670 -1.38029 -2.58637
v -1.51511 -1.43759 -2.50313
v -1.51350 -1.49434 -2.41968
v -1.51180 -1.54917 -2.33545
v -1.51004 -1.60263 -2.25068
v -1.50826 -1.65564 -2.16571
v -1.50650 -1.70928 -2.08101
v -1.50468 -1.76137 -1.99568
v -1.50283 -1.81300 -1.91017
v -1.50095 -1.86372 -1.82428
v -1.49899 -1.91288 -1.73778
v -1.49690 -1.95912 -1.65009
v -1.49471 -2.00307 -1.56149
v -1.49241 -2.04474 -1.47196
v -1.45132 -0.54468 -4.05977
v -1.44910 -0.58799 -3.97091
v -1.44699 -0.63386 -3.88308
v -1.44498 -0.68184 -3.79609
v -1.44301 -0.73063 -3.70944
v -1.44100 -0.77879 -3.62253
v -1.43895 -0.82585 -3.53517
v -1.43688 -0.87246 -3.44764
v -1.43481 -0.91915 -3.36013
v -1.43277 -0.96658 -3.27293
v -1.43079 -1.01510 -3.18616
v -1.42887 -1.06518 -3.10002
v -1.42698 -1.11571 -3.01407
v -1.42520 -1.16872 -2.92911
v -1.42348 -1.22318 -2.84473
v -1.42183 -1.27921 -2.76098
v -1.42022 -1.33587 -2.67749
v -1.41864 -1.39335 -2.59434
v -1.41698 -1.44910 -2.51048
v -1.41532 -1.50466 -2.42655
v -1.41357 -1.55849 -2.34191
v -1.41177 -1.61112 -2.25681
v -1.40997 -1.66376 -2.17170
v -1.40821 -1.71722 -2.08692
v -1.40636 -1.76876 -2.00137
v -1.40448 -1.81948 -1.91549
v -1.40255 -1.86928 -1.82924
v -1.40054 -1.91726 -1.74225
v -1.39840 -1.96249 -1.65416
v -1.39618 -2.00581 -1.56530
v -1.39387 -2.04711 -1.47563
v -1.35363 -0.56578 -4.07098
v -1.35144 -0.60992 -3.98245
v -1.34938 -0.65689 -3.89506
v -1.34742 -0.70596 -3.80851
v -1.34548 -0.75540 -3.72212
v -1.34348 -0.80356 -3.63520
v -1.34139 -0.84988 -3.54756
v -1.33925 -0.89512 -3.45947
v -1.33712 -0.94035 -3.37138
v -1.33501 -0.98613 -3.28351
v -1.33299 -1.03401 -3.19649
v -1.33109 -1.08437 -3.11046
v -1.32922 -1.13545 -3.02472
v -1.32746 -1.18882 -2.93991
v -1.32572 -1.24292 -2.85539
v -1.32403 -1.29784 -2.77120
v -1.32232 -1.35240 -2.68686
v -1.32063 -1.40742 -2.60271
v -1.31884 -1.46042 -2.51775
v -1.31707 -1.51361 -2.43286
v -1.31523 -1.56542 -2.34742
v -1.31337 -1.61669 -2.26176
v -1.31154 -1.66850 -2.17632
v -1.30974 -1.72123 -2.09124
v -1.30785 -1.77177 -2.00529
v -1.30590 -1.82111 -1.91885
v -1.30390 -1.86946 -1.83202
v -1.30183 -1.91606 -1.74448
v -1.29964 -1.96010 -1.65591
v -1.29739 -2.00287 -1.56683
v -1.29507 -2.04389 -1.47705
v -1.25650 -0.59941 -4.08723
v -1.25436 -0.64456 -3.99910
v -1.25235 -0.69244 -3.91208
v -1.25041 -0.74215 -3.82579
v -1.24846 -0.79141 -3.73932
v -1.24641 -0.83856 -3.65200
v -1.24423 -0.88279 -3.56351
v -1.24198 -0.92546 -3.47439
v -1.23973 -0.96804 -3.38523
v -1.23752 -1.01163 -3.29648
v -1.23544 -1.05823 -3.20894
v -1.23354 -1.10849 -3.12288
v -1.23168 -1.15985 -3.03725
v -1.22991 -1.21322 -2.95244
v -1.22814 -1.26650 -2.86759
v -1.22636 -1.31959 -2.78266
v -1.22451 -1.37095 -2.69704
v -1.22265 -1.42221 -2.61138
v -1.22069 -1.47138 -2.52487
v -1.21877 -1.52127 -2.43866
v -1.21680 -1.57016 -2.35204
v -1.21484 -1.61933 -2.26553
v -1.21294 -1.66977 -2.17954
v -1.21109 -1.72131 -2.09399
v -1.20913 -1.77029 -2.00741
v -1.20710 -1.81781 -1.92024
v -1.20502 -1.86432 -1.83266
v -1.20287 -1.90919 -1.74442
v -1.20062 -1.95204 -1.65538
v -1.19835 -1.99426 -1.56608
v -1.19602 -2.03520 -1.47626
v -1.15901 -0.62491 -4.10020
v -1.15690 -0.67069 -4.01233
v -1.15490 -0.71903 -3.92549
v -1.15298 -0.76883 -3.83924
v -1.15100 -0.81754 -3.75255
v -1.14889 -0.86341 -3.66472
v -1.14664 -0.90600 -3.57556
v -1.14431 -0.94702 -3.48578
v -1.14199 -0.98814 -3.39603
v -1.13973 -1.03063 -3.30684
v -1.13763 -1.07668 -3.21908
v -1.13573 -1.12722 -3.13313
v -1.13389 -1.17885 -3.04761
v -1.13211 -1.23195 -2.96269
v -1.13030 -1.28440 -2.87750
v -1.12845 -1.33585 -2.79192
v -1.12649 -1.38483 -2.70534
v -1.12450 -1.43336 -2.61857
v -1.12243 -1.47996 -2.53103
v -1.12041 -1.52775 -2.44397
v -1.11836 -1.57500 -2.35669
v -1.11636 -1.62306 -2.26974
v -1.11442 -1.67268 -2.18342
v -1.11253 -1.72331 -2.09750
v -1.11052 -1.77119 -2.01048
v -1.10841 -1.81716 -1.92269
v -1.10627 -1.86230 -1.83456
v -1.10406 -1.90579 -1.74577
v -1.10178 -1.94783 -1.65639
v -1.09949 -1.98958 -1.56691
v -1.09716 -2.03052 -1.47709
v -1.06114 -0.64208 -4.10982
v -1.05905 -0.68832 -4.02214
v -1.05706 -0.73676 -3.93534
v -1.05510 -0.78601 -3.84886
v -1.05308 -0.83371 -3.76177
v -1.05092 -0.87840 -3.67346
v -1.04861 -0.91970 -3.58379
v -1.04623 -0.95972 -3.49360
v -1.04389 -1.00047 -3.40371
v -1.04163 -1.04296 -3.31451
v -1.03955 -1.08938 -3.22690
v -1.03768 -1.14037 -3.14113
v -1.03585 -1.19228 -3.05573
v -1.03406 -1.24510 -2.97069
v -1.03221 -1.29664 -2.88514
v -1.03029 -1.34663 -2.79897
v -1.02825 -1.39396 -2.71172
v -1.02618 -1.44075 -2.62426
v -1.02405 -1.48607 -2.53621
v -1.02200 -1.53313 -2.44885
v -1.01994 -1.58001 -2.36142
v -1.01793 -1.62799 -2.27444
v -1.01598 -1.67724 -2.18797
v -1.01406 -1.72723 -2.10179
v -1.01200 -1.77429 -2.01444
v -1.00986 -1.81925 -1.92624
v -1.00767 -1.86329 -1.83767
v -1.00542 -1.90596 -1.74855
v -1.00311 -1.94754 -1.65899
v -1.00080 -1.98893 -1.56935
v -0.99847 -2.02968 -1.47946
v -0.96289 -0.65112 -4.11617
v -0.96081 -0.69745 -4.02852
v -0.95880 -0.74552 -3.94157
v -0.95681 -0.79386 -3.85474
v -0.95472 -0.84010 -3.76705
v -0.95250 -0.88341 -3.67819
v -0.95014 -0.92371 -3.58811
v -0.94776 -0.96364 -3.49789
v -0.94545 -1.00503 -3.40825
v -0.94324 -1.04871 -3.31954
v -0.94121 -1.09622 -3.23237
v -0.93938 -1.14804 -3.14693
v -0.93755 -1.20013 -3.06160
v -0.93574 -1.25258 -2.97642
v -0.93385 -1.30321 -2.89050
v -0.93188 -1.35201 -2.80384
v -0.92980 -1.39834 -2.71619
v -0.92769 -1.44430 -2.62840
v -0.92556 -1.48963 -2.54035
v -0.92353 -1.53724 -2.45321
v -0.92152 -1.58521 -2.36623
v -0.91955 -1.63392 -2.27954
v -0.91761 -1.68354 -2.19321
v -0.91567 -1.73316 -2.10689
v -0.91360 -1.77976 -2.01935
v -0.91142 -1.82399 -1.93086
v -0.90920 -1.86739 -1.84203
v -0.90693 -1.90961 -1.75273
v -0.90462 -1.95109 -1.66313
v -0.90231 -1.99239 -1.57346
v -0.89996 -2.03287 -1.48346
v -0.86428 -0.65193 -4.11921
v -0.86218 -0.69808 -4.03149
v -0.86015 -0.74551 -3.94428
v -0.85808 -0.79220 -3.85678
v -0.85590 -0.83652 -3.76832
v -0.85362 -0.87846 -3.67891
v -0.85123 -0.91821 -3.58861
v -0.84888 -0.95869 -3.49861
v -0.84665 -1.00182 -3.40967
v -0.84455 -1.04778 -3.32188
v -0.84261 -1.09731 -3.23552
v -0.84082 -1.15013 -3.15048
v -0.83901 -1.20249 -3.06526
v -0.83717 -1.25440 -2.97986
v -0.83524 -1.30411 -2.89357
v -0.83322 -1.35181 -2.80648
v -0.83112 -1.39787 -2.71872
v -0.82903 -1.44411 -2.63103
v -0.82697 -1.49089 -2.54357
v -0.82502 -1.54033 -2.45717
v -0.82312 -1.59059 -2.37111
v -0.82122 -1.64113 -2.28515
v -0.81932 -1.69157 -2.19916
v -0.81738 -1.74110 -2.11280
v -0.81530 -1.78752 -2.02519
v -0.81311 -1.83147 -1.93658
v -0.81088 -1.87460 -1.84765
v -0.80861 -1.91691 -1.75838
v -0.80632 -1.95867 -1.66889
v -0.80399 -1.99979 -1.57915
v -0.80163 -2.03999 -1.48903
v -0.76529 -0.64452 -4.11894
v -0.76318 -0.69030 -4.03107
v -0.76109 -0.73653 -3.94338
v -0.75892 -0.78104 -3.85500
v -0.75664 -0.82316 -3.76566
v -0.75429 -0.86364 -3.67565
v -0.75190 -0.90311 -3.58525
v -0.74961 -0.94505 -3.49583
v -0.74751 -0.99111 -3.40807
v -0.74556 -1.04036 -3.32160
v -0.74375 -1.09273 -3.23638
v -0.74201 -1.14664 -3.15179
v -0.74021 -1.19937 -3.06672
v -0.73836 -1.25082 -2.98113
v -0.73638 -1.29953 -2.89444
v -0.73432 -1.34632 -2.80697
v -0.73224 -1.39283 -2.71940
v -0.73020 -1.44025 -2.63219
v -0.72826 -1.48969 -2.54580
v -0.72647 -1.54242 -2.46072
v -0.72473 -1.59634 -2.37613
v -0.72296 -1.64962 -2.29128
v -0.72112 -1.70143 -2.20584
v -0.71918 -1.75105 -2.11951
v -0.71711 -1.79775 -2.03201
v -0.71492 -1.84179 -1.94345
v -0.71269 -1.88492 -1.85451
v -0.71045 -1.92769 -1.76543
v -0.70818 -1.97008 -1.67620
v -0.70586 -2.01120 -1.58645
v -0.70348 -2.05104 -1.49619
v -0.66643 -0.64002 -4.11984
v -0.66429 -0.68507 -4.03168
v -0.66215 -0.73030 -3.94359
v -0.65991 -0.77307 -3.85450
v -0.65755 -0.81346 -3.76446
v -0.65515 -0.85293 -3.67406
v -0.65275 -0.89231 -3.58361
v -0.65051 -0.93526 -3.49460
v -0.64851 -0.98332 -3.40765
v -0.64667 -1.03514 -3.32221
v -0.64495 -1.08942 -3.23777
v -0.64324 -1.14416 -3.15350
v -0.64146 -1.19726 -3.06858
v -0.63960 -1.24834 -2.98284
v -0.63759 -1.29650 -2.89593
v -0.63551 -1.34292 -2.80832
v -0.63347 -1.39016 -2.72104
v -0.63149 -1.43896 -2.63439
v -0.62965 -1.49050 -2.54883
v -0.62796 -1.54570 -2.46476
v -0.62633 -1.60200 -2.38112
v -0.62464 -1.65701 -2.29697
v -0.62284 -1.70956 -2.21182
v -0.62090 -1.75909 -2.12546
v -0.61883 -1.80578 -2.03796
v -0.61665 -1.85010 -1.94950
v -0.61443 -1.89341 -1.86064
v -0.61220 -1.93672 -1.77178
v -0.60997 -1.97967 -1.68277
v -0.60765 -2.02088 -1.59306
v -0.60526 -2.06054 -1.50272
v -0.56771 -0.63836 -4.12188
v -0.56552 -0.68259 -4.03339
v -0.56334 -0.72664 -3.94482
v -0.56103 -0.76803 -3.85519
v -0.55862 -0.80723 -3.76467
v -0.55619 -0.84615 -3.67404
v -0.55380 -0.88571 -3.58367
v -0.55159 -0.92939 -3.49495
v -0.54964 -0.97865 -3.40848
v -0.54788 -1.03202 -3.32367
v -0.54621 -1.08758 -3.23974
v -0.54453 -1.14278 -3.15566
v -0.54275 -1.19596 -3.07077
v -0.54088 -1.24696 -2.98500
v -0.53888 -1.29511 -2.89809
v -0.53680 -1.34163 -2.81051
v -0.53480 -1.38988 -2.72364
v -0.53289 -1.44005 -2.63753
v -0.53113 -1.49342 -2.55272
v -0.52951 -1.55008 -2.46923
v -0.52794 -1.60774 -2.38614
v -0.52628 -1.66349 -2.30228
v -0.52447 -1.71594 -2.21710
v -0.52252 -1.76511 -2.13059
v -0.52044 -1.81171 -2.04306
v -0.51828 -1.85630 -1.95471
v -0.51608 -1.90007 -1.86603
v -0.51388 -1.94403 -1.77743
v -0.51167 -1.98743 -1.68860
v -0.50936 -2.02882 -1.59897
v -0.50696 -2.06829 -1.50856
v -0.46912 -0.63972 -4.12514
v -0.46688 -0.68267 -4.03613
v -0.46463 -0.72553 -3.94709
v -0.46229 -0.76610 -3.85712
v -0.45984 -0.80456 -3.76631
v -0.45741 -0.84330 -3.67561
v -0.45504 -0.88332 -3.58542
v -0.45285 -0.92746 -3.49689
v -0.45092 -0.97708 -3.41056
v -0.44919 -1.03118 -3.32604
v -0.44755 -1.08729 -3.24233
v -0.44586 -1.14240 -3.15822
v -0.44408 -1.19559 -3.07333
v -0.44222 -1.24676 -2.98763
v -0.44023 -1.29529 -2.90087
v -0.43819 -1.34253 -2.81359
v -0.43625 -1.39197 -2.72719
v -0.43440 -1.44369 -2.64171
v -0.43270 -1.49843 -2.55745
v -0.43111 -1.55573 -2.47422
v -0.42955 -1.61358 -2.39120
v -0.42788 -1.66896 -2.30720
v -0.42604 -1.72069 -2.22172
v -0.42405 -1.76912 -2.13492
v -0.42196 -1.81545 -2.04727
v -0.41981 -1.86041 -1.95907
v -0.41764 -1.90472 -1.87061
v -0.41548 -1.94941 -1.78230
v -0.41328 -1.99336 -1.69370
v -0.41099 -2.03503 -1.60417
v -0.40859 -2.07450 -1.51377
v -0.37066 -0.64401 -4.12958
v -0.36835 -0.68549 -4.03998
v -0.36605 -0.72716 -3.95046
v -0.36368 -0.76709 -3.86023
v -0.36123 -0.80546 -3.76938
v -0.35881 -0.84448 -3.67879
v -0.35647 -0.88505 -3.58882
v -0.35429 -0.92946 -3.50040
v -0.35234 -0.97862 -3.41390
v -0.35059 -1.03245 -3.32927
v -0.34894 -1.08838 -3.24548
v -0.34724 -1.14312 -3.16122
v -0.34546 -1.19612 -3.07626
v -0.34361 -1.24766 -2.99071
v -0.34166 -1.29692 -2.90423
v -0.33967 -1.34544 -2.81747
v -0.33780 -1.39643 -2.73170
v -0.33603 -1.44980 -2.64688
v -0.33437 -1.50546 -2.56299
v -0.33277 -1.56258 -2.47968
v -0.33116 -1.61933 -2.39623
v -0.32943 -1.67352 -2.31174
v -0.32752 -1.72360 -2.22561
v -0.32548 -1.77102 -2.13840
v -0.32338 -1.81708 -2.05064
v -0.32126 -1.86250 -1.96262
v -0.31911 -1.90745 -1.87442
v -0.31699 -1.95305 -1.78648
v -0.31482 -1.99755 -1.69810
v -0.31253 -2.03931 -1.60861
v -0.31014 -2.07887 -1.51824
v -0.27233 -0.65113 -4.13515
v -0.26995 -0.69096 -4.04489
v -0.26759 -0.73126 -3.95482
v -0.26521 -0.77110 -3.86456
v -0.26278 -0.80993 -3.77389
v -0.26039 -0.84959 -3.68356
v -0.25808 -0.89098 -3.59392
v -0.25591 -0.93530 -3.50547
v -0.25389 -0.98309 -3.41841
v -0.25210 -1.03591 -3.33337
v -0.25040 -1.09083 -3.24918
v -0.24867 -1.14484 -3.16462
v -0.24687 -1.19766 -3.07959
v -0.24505 -1.24975 -2.99426
v -0.24316 -1.30029 -2.90830
v -0.24125 -1.35055 -2.82224
v -0.23946 -1.40346 -2.73724
v -0.23777 -1.45848 -2.65309
v -0.23613 -1.51450 -2.56934
v -0.23449 -1.57061 -2.48563
v -0.23277 -1.62517 -2.40129
v -0.23094 -1.67698 -2.31585
v -0.22892 -1.72477 -2.22879
v -0.22682 -1.77092 -2.14107
v -0.22471 -1.81652 -2.05313
v -0.22261 -1.86257 -1.96537
v -0.22049 -1.90826 -1.87746
v -0.21842 -1.95487 -1.78992
v -0.21627 -1.99983 -1.70172
v -0.21400 -2.04195 -1.61238
v -0.21161 -2.08161 -1.52205
v -0.17395 -0.65715 -4.14029
v -0.17151 -0.69561 -4.04948
v -0.16911 -0.73500 -3.95903
v -0.16673 -0.77483 -3.86877
v -0.16432 -0.81403 -3.77825
v -0.16196 -0.85433 -3.68818
v -0.15968 -0.89645 -3.59884
v -0.15750 -0.94077 -3.51038
v -0.15543 -0.98747 -3.42288
v -0.15359 -1.03901 -3.33733
v -0.15184 -1.09283 -3.25270
v -0.15006 -1.14584 -3.16774
v -0.14825 -1.19820 -3.08252
v -0.14644 -1.25056 -2.99730
v -0.14458 -1.30192 -2.91167
v -0.14273 -1.35355 -2.82616
v -0.14101 -1.40775 -2.74167
v -0.13937 -1.46395 -2.65800
v -0.13773 -1.52015 -2.57433
v -0.13604 -1.57526 -2.49021
v -0.13425 -1.62808 -2.40517
v -0.13234 -1.67816 -2.31903
v -0.13025 -1.72430 -2.23131
v -0.12811 -1.76963 -2.14326
v -0.12598 -1.81495 -2.05521
v -0.12389 -1.86119 -1.96752
v -0.12180 -1.90734 -1.87980
v -0.11975 -1.95440 -1.79245
v -0.11762 -1.99972 -1.70439
v -0.11535 -2.04203 -1.61513
v -0.11297 -2.08196 -1.52490
v -0.07551 -0.66189 -4.14491
v -0.07304 -0.69962 -4.05380
v -0.07060 -0.73827 -3.96306
v -0.06823 -0.77830 -3.87288
v -0.06585 -0.81804 -3.78258
v -0.06351 -0.85880 -3.69269
v -0.06126 -0.90156 -3.60360
v -0.05909 -0.94597 -3.51518
v -0.05697 -0.99157 -3.42724
v -0.05506 -1.04183 -3.34118
v -0.05325 -1.09428 -3.25599
v -0.05142 -1.14610 -3.17055
v -0.04958 -1.19782 -3.08508
v -0.04777 -1.25019 -2.99986
v -0.04593 -1.30200 -2.91442
v -0.04412 -1.35446 -2.82923
v -0.04243 -1.40938 -2.74504
v -0.04082 -1.46613 -2.66159
v -0.03917 -1.52224 -2.57788
v -0.03745 -1.57662 -2.49347
v -0.03561 -1.62816 -2.40792
v -0.03364 -1.67714 -2.32134
v -0.03151 -1.72246 -2.23328
v -0.02935 -1.76724 -2.14501
v -0.02721 -1.81229 -2.05685
v -0.02512 -1.85853 -1.96916
v -0.02302 -1.90458 -1.88140
v -0.02097 -1.95173 -1.79409
v -0.01885 -1.99724 -1.70611
v -0.01659 -2.03973 -1.61691
v -0.01423 -2.08003 -1.52684
v 0.02298 -0.66544 -4.14905
v 0.02547 -0.70281 -4.05780
v 0.02791 -0.74128 -3.96698
v 0.03028 -0.78148 -3.87687
v 0.03264 -0.82178 -3.78679
v 0.03495 -0.86299 -3.69709
v 0.03717 -0.90639 -3.60826
v 0.03935 -0.95080 -3.51984
v 0.04151 -0.99549 -3.43153
v 0.04348 -1.04428 -3.34488
v 0.04535 -1.09528 -3.25910
v 0.04726 -1.14563 -3.17307
v 0.04913 -1.19653 -3.08727
v 0.05096 -1.24862 -3.00194
v 0.05279 -1.30062 -2.91657
v 0.05458 -1.35335 -2.83150
v 0.05626 -1.40854 -2.74742
v 0.05788 -1.46520 -2.66393
v 0.05954 -1.52086 -2.58003
v 0.06129 -1.57459 -2.49537
v 0.06317 -1.62540 -2.40952
v 0.06516 -1.67384 -2.32272
v 0.06730 -1.71898 -2.23459
v 0.06946 -1.76366 -2.14628
v 0.07161 -1.80853 -2.05805
v 0.07372 -1.85440 -1.97021
v 0.07583 -1.90009 -1.88231
v 0.07790 -1.94688 -1.79484
v 0.08001 -1.99266 -1.70697
v 0.08224 -2.03588 -1.61808
v 0.08455 -2.07709 -1.52837
v 0.12152 -0.66781 -4.15271
v 0.12401 -0.70536 -4.06153
v 0.12645 -0.74383 -3.97072
v 0.12879 -0.78449 -3.88079
v 0.13112 -0.82542 -3.79097
v 0.13342 -0.86700 -3.70141
v 0.13562 -0.91086 -3.61277
v 0.13779 -0.95536 -3.52439
v 0.13999 -0.99922 -3.43575
v 0.14204 -1.04637 -3.34843
v 0.14398 -1.09572 -3.26199
v 0.14596 -1.14443 -3.17530
v 0.14789 -1.19423 -3.08905
v 0.14974 -1.24577 -3.00350
v 0.15158 -1.29759 -2.91806
v 0.15338 -1.35013 -2.83292
v 0.15507 -1.40506 -2.74873
v 0.15672 -1.46108 -2.66498
v 0.15841 -1.51609 -2.58083
v 0.16019 -1.56919 -2.49590
v 0.16208 -1.61981 -2.40998
v 0.16407 -1.66825 -2.32318
v 0.16618 -1.71394 -2.23528
v 0.16832 -1.75908 -2.14715
v 0.17048 -1.80385 -2.05888
v 0.17262 -1.84899 -1.97075
v 0.17477 -1.89386 -1.88251
v 0.17688 -1.93964 -1.79464
v 0.17894 -1.98643 -1.70718
v 0.18111 -2.03111 -1.61887
v 0.18334 -2.07406 -1.52986
v 0.22012 -0.66898 -4.15590
v 0.22258 -0.70718 -4.06498
v 0.22500 -0.74601 -3.97431
v 0.22732 -0.78722 -3.88460
v 0.22962 -0.82888 -3.79508
v 0.23191 -0.87073 -3.70563
v 0.23409 -0.91496 -3.61713
v 0.23625 -0.95955 -3.52879
v 0.23848 -1.00268 -3.43985
v 0.24061 -1.04810 -3.35183
v 0.24265 -1.09552 -3.26463
v 0.24471 -1.14240 -3.17720
v 0.24669 -1.19093 -3.09044
v 0.24858 -1.24155 -3.00452
v 0.25044 -1.29291 -2.91889
v 0.25227 -1.34482 -2.83349
v 0.25400 -1.39892 -2.74897
v 0.25571 -1.45366 -2.66471
v 0.25744 -1.50785 -2.58022
v 0.25924 -1.56040 -2.49508
v 0.26111 -1.61139 -2.40930
v 0.26307 -1.66046 -2.32276
v 0.26513 -1.70752 -2.23541
v 0.26724 -1.75330 -2.14754
v 0.26939 -1.79817 -2.05930
v 0.27157 -1.84231 -1.97077
v 0.27378 -1.88589 -1.88202
v 0.27596 -1.93030 -1.79360
v 0.27795 -1.97855 -1.70672
v 0.28002 -2.02525 -1.61922
v 0.28214 -2.07094 -1.53132
v 0.31869 -0.67071 -4.15930
v 0.32112 -0.70963 -4.06868
v 0.32351 -0.74920 -3.97831
v 0.32579 -0.79123 -3.88893
v 0.32805 -0.83372 -3.79973
v 0.33031 -0.87612 -3.71050
v 0.33247 -0.92089 -3.62223
v 0.33462 -0.96576 -3.53399
v 0.33686 -1.00870 -3.44499
v 0.33904 -1.05293 -3.35649
v 0.34113 -1.09917 -3.26881
v 0.34324 -1.14504 -3.18097
v 0.34526 -1.19283 -3.09391
v 0.34716 -1.24309 -3.00785
v 0.34903 -1.29427 -2.92215
v 0.35088 -1.34581 -2.83660
v 0.35265 -1.39909 -2.75175
v 0.35440 -1.45282 -2.66708
v 0.35617 -1.50610 -2.58223
v 0.35800 -1.55810 -2.49686
v 0.35987 -1.60909 -2.41109
v 0.36181 -1.65853 -2.32469
v 0.36382 -1.70660 -2.23774
v 0.36589 -1.75329 -2.15024
v 0.36802 -1.79852 -2.06215
v 0.37022 -1.84238 -1.97351
v 0.37245 -1.88551 -1.88458
v 0.37466 -1.92919 -1.79586
v 0.37662 -1.97826 -1.70932
v 0.37863 -2.02633 -1.62237
v 0.38067 -2.07367 -1.53513
v 0.41725 -0.67289 -4.16289
v 0.41963 -0.71273 -4.07263
v 0.42198 -0.75311 -3.98259
v 0.42421 -0.79624 -3.89366
v 0.42642 -0.83992 -3.80494
v 0.42864 -0.88323 -3.71608
v 0.43077 -0.92856 -3.62803
v 0.43290 -0.97397 -3.54001
v 0.43514 -1.01701 -3.45104
v 0.43734 -1.06078 -3.36236
v 0.43944 -1.10665 -3.27453
v 0.44157 -1.15216 -3.18655
v 0.44358 -1.20004 -3.09953
v 0.44549 -1.25030 -3.01346
v 0.44735 -1.30157 -2.92780
v 0.44921 -1.35293 -2.84218
v 0.45100 -1.40575 -2.75714
v 0.45279 -1.45857 -2.67211
v 0.45460 -1.51093 -2.58689
v 0.45646 -1.56220 -2.50122
v 0.45835 -1.61283 -2.41531
v 0.46029 -1.66245 -2.32898
v 0.46227 -1.71115 -2.24229
v 0.46428 -1.75895 -2.15523
v 0.46638 -1.80500 -2.06747
v 0.46856 -1.84932 -1.97902
v 0.47077 -1.89282 -1.89023
v 0.47298 -1.93640 -1.80148
v 0.47493 -1.98575 -1.71504
v 0.47692 -2.03427 -1.62828
v 0.47894 -2.08207 -1.54122
v 0.51578 -0.67562 -4.16670
v 0.51811 -0.71637 -4.07681
v 0.52042 -0.75795 -3.98725
v 0.52259 -0.80236 -3.89883
v 0.52473 -0.84750 -3.81070
v 0.52690 -0.89200 -3.72232
v 0.52899 -0.93805 -3.63456
v 0.53110 -0.98402 -3.54677
v 0.53330 -1.02770 -3.45805
v 0.53549 -1.07174 -3.36948
v 0.53759 -1.11779 -3.28173
v 0.53968 -1.16394 -3.19400
v 0.54167 -1.21237 -3.10720
v 0.54356 -1.26318 -3.02136
v 0.54540 -1.31491 -2.93588
v 0.54725 -1.36626 -2.85026
v 0.54907 -1.41863 -2.76504
v 0.55088 -1.47081 -2.67974
v 0.55274 -1.52226 -2.59415
v 0.55464 -1.57261 -2.50813
v 0.55655 -1.62278 -2.42202
v 0.55850 -1.67222 -2.33563
v 0.56045 -1.72138 -2.24912
v 0.56243 -1.77018 -2.16246
v 0.56447 -1.81742 -2.07518
v 0.56659 -1.86302 -1.98724
v 0.56875 -1.90761 -1.89889
v 0.57093 -1.95184 -1.81040
v 0.57290 -2.00073 -1.72378
v 0.57491 -2.04871 -1.63680
v 0.57696 -2.09586 -1.54948
v 0.61428 -0.67890 -4.17074
v 0.61657 -0.72066 -4.08125
v 0.61882 -0.76351 -3.99220
v 0.62091 -0.80966 -3.90448
v 0.62298 -0.85635 -3.81698
v 0.62508 -0.90241 -3.72922
v 0.62714 -0.94929 -3.64179
v 0.62920 -0.99607 -3.55433
v 0.63136 -1.04076 -3.46602
v 0.63351 -1.08562 -3.37778
v 0.63557 -1.13259 -3.29039
v 0.63760 -1.18020 -3.20326
v 0.63952 -1.23010 -3.11705
v 0.64137 -1.28173 -3.03153
v 0.64317 -1.33419 -2.94635
v 0.64502 -1.38582 -2.86084
v 0.64684 -1.43800 -2.77554
v 0.64869 -1.48954 -2.68999
v 0.65058 -1.54007 -2.60404
v 0.65253 -1.58942 -2.51760
v 0.65448 -1.63877 -2.43117
v 0.65644 -1.68784 -2.34462
v 0.65840 -1.73700 -2.25812
v 0.66031 -1.78699 -2.17194
v 0.66228 -1.83588 -2.08532
v 0.66431 -1.88349 -1.99819
v 0.66638 -1.93009 -1.91065
v 0.66851 -1.97551 -1.82264
v 0.67052 -2.02348 -1.73565
v 0.67260 -2.06990 -1.64804
v 0.67473 -2.11532 -1.56002
v 0.71276 -0.68263 -4.17495
v 0.71500 -0.72549 -4.08590
v 0.71717 -0.76999 -3.99752
v 0.71918 -0.81797 -3.91054
v 0.72117 -0.86658 -3.82381
v 0.72318 -0.91446 -3.73678
v 0.72520 -0.96226 -3.64973
v 0.72722 -1.00996 -3.56263
v 0.72931 -1.05620 -3.47494
v 0.73139 -1.10271 -3.38737
v 0.73337 -1.15141 -3.30068
v 0.73529 -1.20122 -3.21443
v 0.73713 -1.25303 -3.12899
v 0.73891 -1.30604 -3.04403
v 0.74067 -1.35959 -2.95928
v 0.74249 -1.41168 -2.87395
v 0.74432 -1.46368 -2.78859
v 0.74619 -1.51485 -2.70289
v 0.74813 -1.56429 -2.61649
v 0.75014 -1.61245 -2.52958
v 0.75213 -1.66079 -2.44274
v 0.75412 -1.70922 -2.35594
v 0.75608 -1.75820 -2.26936
v 0.75795 -1.80938 -2.18366
v 0.75982 -1.86037 -2.09789
v 0.76173 -1.91072 -2.01186
v 0.76367 -1.96016 -1.92546
v 0.76571 -2.00749 -1.83822
v 0.76780 -2.05382 -1.75057
v 0.76998 -2.09805 -1.66208
v 0.77223 -2.14063 -1.57292
v 0.81116 -0.68811 -4.17987
v 0.81337 -0.73178 -4.09115
v 0.81548 -0.77757 -4.00328
v 0.81743 -0.82700 -3.91688
v 0.81934 -0.87699 -3.83071
v 0.82129 -0.92634 -3.74427
v 0.82327 -0.97504 -3.65758
v 0.82526 -1.02348 -3.57078
v 0.82730 -1.07081 -3.48354
v 0.82932 -1.11851 -3.39644
v 0.83125 -1.16841 -3.31023
v 0.83310 -1.21986 -3.22464
v 0.83487 -1.27323 -3.13983
v 0.83661 -1.32714 -3.05523
v 0.83833 -1.38152 -2.97082
v 0.84015 -1.43370 -2.88553
v 0.84199 -1.48542 -2.80005
v 0.84387 -1.53614 -2.71417
v 0.84586 -1.58457 -2.62737
v 0.84791 -1.63173 -2.54005
v 0.84994 -1.67933 -2.45292
v 0.85196 -1.72713 -2.36586
v 0.85392 -1.77611 -2.27928
v 0.85574 -1.82829 -2.19398
v 0.85755 -1.88084 -2.10884
v 0.85936 -1.93320 -2.02362
v 0.86121 -1.98456 -1.93799
v 0.86320 -2.03299 -1.85119
v 0.86534 -2.07822 -1.76310
v 0.86760 -2.12071 -1.67391
v 0.86995 -2.16119 -1.58391
v 0.90949 -0.69523 -4.18544
v 0.91167 -0.73954 -4.09698
v 0.91373 -0.78633 -4.00952
v 0.91563 -0.83677 -3.92353
v 0.91751 -0.88777 -3.83776
v 0.91941 -0.93812 -3.75173
v 0.92136 -0.98746 -3.66529
v 0.92333 -1.03635 -3.57868
v 0.92533 -1.08451 -3.49176
v 0.92731 -1.13313 -3.40504
v 0.92920 -1.18375 -3.31912
v 0.93101 -1.23630 -3.23397
v 0.93273 -1.29058 -3.14952
v 0.93444 -1.34514 -3.06519
v 0.93614 -1.39988 -2.98092
v 0.93796 -1.45206 -2.89563
v 0.93982 -1.50342 -2.81001
v 0.94174 -1.55341 -2.72383
v 0.94377 -1.60093 -2.63666
v 0.94586 -1.64726 -2.54901
v 0.94791 -1.69422 -2.46162
v 0.94995 -1.74174 -2.37445
v 0.95191 -1.79082 -2.28791
v 0.95370 -1.84364 -2.20287
v 0.95545 -1.89728 -2.11817
v 0.95721 -1.95083 -2.03343
v 0.95902 -2.00320 -1.94821
v 0.96098 -2.05218 -1.86163
v 0.96317 -2.09622 -1.77306
v 0.96551 -2.13706 -1.68320
v 0.96794 -2.17581 -1.59250
v 1.00774 -0.70408 -4.19172
v 1.00990 -0.74886 -4.10344
v 1.01193 -0.79628 -4.01624
v 1.01381 -0.84727 -3.93047
v 1.01566 -0.89882 -3.84491
v 1.01753 -0.94981 -3.75914
v 1.01946 -0.99961 -3.67289
v 1.02141 -1.04887 -3.58642
v 1.02339 -1.09748 -3.49969
v 1.02535 -1.14655 -3.41315
v 1.02723 -1.19746 -3.32734
v 1.02901 -1.25046 -3.24238
v 1.03072 -1.30520 -3.15812
v 1.03242 -1.36003 -3.07389
v 1.03412 -1.41477 -2.98963
v 1.03595 -1.46677 -2.90426
v 1.03783 -1.51758 -2.81842
v 1.03978 -1.56683 -2.73195
v 1.04186 -1.61344 -2.64441
v 1.04397 -1.65904 -2.55647
v 1.04605 -1.70564 -2.46893
v 1.04809 -1.75288 -2.38165
v 1.05004 -1.80214 -2.29518
v 1.05181 -1.85551 -2.21036
v 1.05354 -1.90970 -2.12588
v 1.05527 -1.96380 -2.04136
v 1.05708 -2.01626 -1.95618
v 1.05905 -2.06505 -1.86952
v 1.06135 -2.10663 -1.77996
v 1.06380 -2.14501 -1.68911
v 1.06634 -2.18128 -1.59742
v 1.10591 -0.71477 -4.19873
v 1.10806 -0.75972 -4.11053
v 1.11008 -0.80742 -4.02343
v 1.11195 -0.85860 -3.93773
v 1.11380 -0.91014 -3.85218
v 1.11566 -0.96132 -3.76649
v 1.11757 -1.01158 -3.68042
v 1.11952 -1.06074 -3.59391
v 1.12150 -1.10954 -3.50726
v 1.12345 -1.15870 -3.42075
v 1.12534 -1.20951 -3.33491
v 1.12713 -1.26233 -3.24987
v 1.12883 -1.31707 -3.16561
v 1.13054 -1.37172 -3.08131
v 1.13226 -1.42610 -2.99690
v 1.13410 -1.47773 -2.91138
v 1.13601 -1.52799 -2.82532
v 1.13800 -1.57633 -2.73848
v 1.14011 -1.62211 -2.65061
v 1.14225 -1.66725 -2.56248
v 1.14434 -1.71358 -2.47484
v 1.14639 -1.76073 -2.38752
v 1.14833 -1.81026 -2.30116
v 1.15008 -1.86382 -2.21642
v 1.15181 -1.91810 -2.13197
v 1.15355 -1.97193 -2.04734
v 1.15539 -2.02365 -1.96186
v 1.15741 -2.07153 -1.87484
v 1.15982 -2.11073 -1.78432
v 1.16238 -2.14664 -1.69248
v 1.16502 -2.18081 -1.59994
v 1.20401 -0.72700 -4.20637
v 1.20615 -0.77205 -4.11820
v 1.20817 -0.81975 -4.03111
v 1.21005 -0.87065 -3.94530
v 1.21192 -0.92174 -3.85956
v 1.21379 -0.97273 -3.77379
v 1.21569 -1.02317 -3.68780
v 1.21766 -1.07206 -3.60118
v 1.21964 -1.12077 -3.51449
v 1.22161 -1.16966 -3.42787
v 1.22352 -1.21992 -3.34181
v 1.22534 -1.27192 -3.25644
v 1.22707 -1.32611 -3.17196
v 1.22880 -1.38021 -3.08744
v 1.23056 -1.43385 -3.00273
v 1.23242 -1.48503 -2.91703
v 1.23436 -1.53456 -2.83067
v 1.23640 -1.58189 -2.74343
v 1.23854 -1.62704 -2.65530
v 1.24069 -1.67199 -2.56710
v 1.24278 -1.71814 -2.47938
v 1.24484 -1.76520 -2.39203
v 1.24676 -1.81519 -2.30585
v 1.24852 -1.86865 -2.22107
v 1.25026 -1.92248 -2.13644
v 1.25206 -1.97520 -2.05137
v 1.25397 -2.02537 -1.96527
v 1.25605 -2.07170 -1.87762
v 1.25858 -2.10843 -1.78611
v 1.26124 -2.14205 -1.69335
v 1.26396 -2.17440 -1.60007
v 1.30222 -0.73659 -4.21294
v 1.30440 -0.78091 -4.12448
v 1.30646 -0.82779 -4.03705
v 1.30838 -0.87777 -3.95087
v 1.31029 -0.92803 -3.86481
v 1.31218 -0.97848 -3.77882
v 1.31407 -1.02929 -3.69297
v 1.31603 -1.07836 -3.60643
v 1.31799 -1.12743 -3.51988
v 1.31994 -1.17669 -3.43341
v 1.32185 -1.22695 -3.34735
v 1.32369 -1.27867 -3.26187
v 1.32543 -1.33259 -3.17728
v 1.32717 -1.38651 -3.09268
v 1.32894 -1.43969 -3.00779
v 1.33083 -1.49050 -2.92195
v 1.33279 -1.53948 -2.83537
v 1.33487 -1.58600 -2.74779
v 1.33704 -1.63041 -2.65937
v 1.33921 -1.67491 -2.57099
v 1.34132 -1.72078 -2.48316
v 1.34339 -1.76738 -2.39562
v 1.34532 -1.81710 -2.30933
v 1.34712 -1.86982 -2.22426
v 1.34890 -1.92283 -2.13930
v 1.35075 -1.97437 -2.05375
v 1.35273 -2.02298 -1.96702
v 1.35487 -2.06803 -1.87885
v 1.35745 -2.10357 -1.78687
v 1.36016 -2.13619 -1.69370
v 1.36291 -2.16780 -1.60013
v 1.40057 -0.74334 -4.21836
v 1.40280 -0.78638 -4.12939
v 1.40493 -0.83180 -4.04138
v 1.40693 -0.87995 -3.95446
v 1.40891 -0.92875 -3.86781
v 1.41083 -0.97856 -3.78156
v 1.41270 -1.02973 -3.69586
v 1.41463 -1.07954 -3.60961
v 1.41655 -1.12952 -3.52344
v 1.41845 -1.17978 -3.43737
v 1.42034 -1.23059 -3.35152
v 1.42216 -1.28259 -3.26616
v 1.42390 -1.33651 -3.18156
v 1.42564 -1.39052 -3.09701
v 1.42743 -1.44343 -3.01201
v 1.42931 -1.49415 -2.92613
v 1.43130 -1.54267 -2.83936
v 1.43340 -1.58863 -2.75157
v 1.43561 -1.63231 -2.66285
v 1.43780 -1.67627 -2.57425
v 1.43994 -1.72141 -2.48612
v 1.44205 -1.76719 -2.39825
v 1.44402 -1.81617 -2.31167
v 1.44587 -1.86753 -2.22605
v 1.44772 -1.91916 -2.14053
v 1.44964 -1.96915 -2.05436
v 1.45167 -2.01657 -1.96715
v 1.45387 -2.06052 -1.87854
v 1.45642 -2.09652 -1.78674
v 1.45910 -2.12978 -1.69383
v 1.46182 -2.16212 -1.60055
v 1.49903 -0.74744 -4.22273
v 1.50136 -0.78856 -4.13298
v 1.50359 -0.83160 -4.04401
v 1.50570 -0.87738 -3.95614
v 1.50777 -0.92417 -3.86868
v 1.50974 -0.97306 -3.78206
v 1.51158 -1.02460 -3.69651
v 1.51346 -1.07559 -3.61074
v 1.51531 -1.12704 -3.52515
v 1.51715 -1.17886 -3.43971
v 1.51897 -1.23095 -3.35438
v 1.52077 -1.28367 -3.26931
v 1.52249 -1.33787 -3.18482
v 1.52422 -1.39215 -3.10038
v 1.52600 -1.44515 -3.01541
v 1.52789 -1.49587 -2.92953
v 1.52988 -1.54421 -2.84269
v 1.53200 -1.58972 -2.75471
v 1.53424 -1.63267 -2.66570
v 1.53647 -1.67589 -2.57681
v 1.53865 -1.72011 -2.48831
v 1.54081 -1.76480 -2.40000
v 1.54284 -1.81232 -2.31283
v 1.54479 -1.86175 -2.22643
v 1.54671 -1.91165 -2.14022
v 1.54871 -1.95990 -2.05335
v 1.55081 -2.00595 -1.96559
v 1.55304 -2.04908 -1.87665
v 1.55546 -2.08810 -1.78606
v 1.55800 -2.12437 -1.69436
v 1.56058 -2.15982 -1.60234
v 1.59763 -0.74871 -4.22595
v 1.60007 -0.78727 -4.13517
v 1.60244 -0.82720 -4.04495
v 1.60469 -0.86987 -3.95583
v 1.60688 -0.91410 -3.86734
v 1.60890 -0.96189 -3.78028
v 1.61072 -1.01389 -3.69491
v 1.61252 -1.06662 -3.60984
v 1.61428 -1.12008 -3.52506
v 1.61602 -1.17409 -3.44050
v 1.61776 -1.22792 -3.35587
v 1.61950 -1.28183 -3.27128
v 1.62120 -1.33667 -3.18705
v 1.62290 -1.39159 -3.10286
v 1.62467 -1.44487 -3.01801
v 1.62654 -1.49577 -2.93220
v 1.62855 -1.54393 -2.84529
v 1.63068 -1.58916 -2.75720
v 1.63295 -1.63156 -2.66797
v 1.63522 -1.67377 -2.57867
v 1.63745 -1.71690 -2.48973
v 1.63968 -1.76012 -2.40083
v 1.64179 -1.80572 -2.31289
v 1.64385 -1.85278 -2.22554
v 1.64587 -1.90039 -2.13840
v 1.64796 -1.94663 -2.05072
v 1.65012 -1.99150 -1.96248
v 1.65238 -2.03389 -1.87325
v 1.65462 -2.07675 -1.78420
v 1.65699 -2.11686 -1.69405
v 1.65940 -2.15615 -1.60357
v 1.69635 -0.74724 -4.22807
v 1.69893 -0.78260 -4.13600
v 1.70148 -0.81869 -4.04423
v 1.70391 -0.85743 -3.95353
v 1.70623 -0.89864 -3.86382
v 1.70831 -0.94515 -3.77625
v 1.71011 -0.99769 -3.69110
v 1.71181 -1.05253 -3.60688
v 1.71346 -1.10855 -3.52313
v 1.71506 -1.16548 -3.43975
v 1.71670 -1.22159 -3.35604
v 1.71836 -1.27734 -3.27218
v 1.72002 -1.33300 -3.18829
v 1.72167 -1.38883 -3.10446
v 1.72342 -1.44266 -3.01983
v 1.72529 -1.49374 -2.93410
v 1.72729 -1.54190 -2.84719
v 1.72943 -1.58713 -2.75910
v 1.73173 -1.62871 -2.66954
v 1.73405 -1.66983 -2.57979
v 1.73634 -1.71168 -2.49034
v 1.73864 -1.75325 -2.40078
v 1.74087 -1.79638 -2.31184
v 1.74306 -1.84043 -2.22327
v 1.74522 -1.88520 -2.13500
v 1.74740 -1.92934 -2.04647
v 1.74961 -1.97292 -1.95772
v 1.75190 -2.01486 -1.86830
v 1.75393 -2.06238 -1.78113
v 1.75608 -2.10734 -1.69293
v 1.75827 -2.15120 -1.60429
v 1.79503 -0.74668 -4.23055
v 1.79773 -0.77947 -4.13746
v 1.80042 -0.81236 -4.04440
v 1.80299 -0.84800 -3.95245
v 1.80542 -0.88683 -3.86178
v 1.80755 -0.93224 -3.77377
v 1.80932 -0.98534 -3.68884
v 1.81094 -1.04191 -3.60532
v 1.81249 -1.10003 -3.52241
v 1.81400 -1.15916 -3.43992
v 1.81555 -1.21719 -3.35698
v 1.81715 -1.27422 -3.27364
v 1.81878 -1.33061 -3.19004
v 1.82040 -1.38718 -3.10651
v 1.82213 -1.44137 -3.02202
v 1.82399 -1.49273 -2.93640
v 1.82599 -1.54079 -2.84945
v 1.82812 -1.58612 -2.76140
v 1.83045 -1.62705 -2.67158
v 1.83282 -1.66716 -2.58143
v 1.83515 -1.70810 -2.49161
v 1.83752 -1.74830 -2.40150
v 1.83984 -1.78951 -2.31179
v 1.84213 -1.83118 -2.22226
v 1.84438 -1.87385 -2.13315
v 1.84665 -1.91616 -2.04388
v 1.84891 -1.95874 -1.95472
v 1.85121 -2.00032 -1.86516
v 1.85307 -2.05158 -1.77950
v 1.85504 -2.10038 -1.69284
v 1.85708 -2.14781 -1.60564
v 1.89366 -0.74703 -4.23341
v 1.89645 -0.77782 -4.13950
v 1.89925 -0.80842 -4.04553
v 1.90193 -0.84168 -3.95262
v 1.90445 -0.87859 -3.86118
v 1.90661 -0.92327 -3.77287
v 1.90836 -0.97682 -3.68813
v 1.90993 -1.03458 -3.60508
v 1.91141 -1.09426 -3.52280
v 1.91283 -1.15513 -3.44101
v 1.91432 -1.21471 -3.35869
v 1.91587 -1.27274 -3.27575
v 1.91748 -1.32950 -3.19230
v 1.91908 -1.38661 -3.10899
v 1.92079 -1.44117 -3.02466
v 1.92264 -1.49262 -2.93907
v 1.92465 -1.54078 -2.85216
v 1.92678 -1.58601 -2.76407
v 1.92913 -1.62658 -2.67410
v 1.93153 -1.66596 -2.58366
v 1.93389 -1.70626 -2.49358
v 1.93630 -1.74546 -2.40306
v 1.93868 -1.78520 -2.31277
v 1.94106 -1.82513 -2.22254
v 1.94339 -1.86607 -2.13272
v 1.94572 -1.90710 -2.04294
v 1.94801 -1.94885 -1.95345
v 1.95033 -1.99006 -1.86375
v 1.95206 -2.04416 -1.77923
v 1.95391 -2.09580 -1.69371
v 1.95582 -2.14597 -1.60761
f 1 2 33 32
f 2 3 34 33
f 3 4 35 34
f 4 5 36 35
f 5 6 37 36
f 6 7 38 37
f 7 8 39 38
f 8 9 40 39
f 9 10 41 40
f 10 11 42 41
f 11 12 43 42
f 12 13 44 43
f 13 14 45 44
f 14 15 46 45
f 15 16 47 46
f 16 17 48 47
f 17 18 49 48
f 18 19 50 49
f 19 20 51 50
f 20 21 52 51
f 21 22 53 52
f 22 23 54 53
f 23 24 55 54
f 24 25 56 55
f 25 26 57 56
f 26 27 58 57
f 27 28 59 58
f 28 29 60 59
f 29 30 61 60
f 30 31 62 61
f 32 33 64 63
f 33 34 65 64
f 34 35 66 65
f 35 36 67 66
f 36 37 68 67
f 37 38 69 68
f 38 39 70 69
f 39 40 71 70
f 40 41 72 71
f 41 42 73 72
f 42 43 74 73
f 43 44 75 74
f 44 45 76 75
f 45 46 77 76
f 46 47 78 77
f 47 48 79 78
f 48 49 80 79
f 49 50 81 80
f 50 51 82 81
f 51 52 83 82
f 52 53 84 83
f 53 54 85 84
f 54 55 86 85
f 55 56 87 86
f 56 57 88 87
f 57 58 89 88
f 58 59 90 89
f 59 60 91 90
f 60 61 92 91
f 61 62 93 92
f 63 64 95 94
f 64 65 96 95
f 65 66 97 96
f 66 67 98 97
f 67 68 99 98
f 68 69 100 99
f 69 70 101 100
f 70 71 102 101
f 71 72 103 102
f 72 73 104 103
f 73 74 105 104
f 74 75 106 105
f 75 76 107 106
f 76 77 108 107
f 77 78 109 108
f 78 79 110 109
f 79 80 111 110
f 80 81 112 111
f 81 82 113 112
f 82 83 114 113
f 83 84 115 114
f 84 85 116 115
f 85 86 117 116
f 86 87 118 117
f 87 88 119 118
f 88 89 120 119
f 89 90 121 120
f 90 91 122 121
f 91 92 123 122
f 92 93 124 123
f 94 95 126 125
f 95 96 127 126
f 96 97 128 127
f 97 98 129 128
f 98 99 130 129
f 99 100 131 130
f 100 101 132 131
f 101 102 133 132
f 102 103 134 133
f 103 104 135 134
f 104 105 136 135
f 105 106 137 136
f 106 107 138 137
f 107 108 139 138
f 108 109 140 139
f 109 110 141 140
f 110 111 142 141
f 111 112 143 142
f 112 113 144 143
f 113 114 145 144
f 114 115 146 145
f 115 116 147 146
f 116 117 148 147
f 117 118 149 148
f 118 119 150 149
f 119 120 151 150
f 120 121 152 151
f 121 122 153 152
f 122 123 154 153
f 123 124 155 154
f 125 126 157 156
f 126 127 158 157
f 127 128 159 158
f 128 129 160 159
f 129 130 161 160
f 130 131 162 161
f 131 132 163 162
f 132 133 164 163
f 133 134 165 164
f 134 135 166 165
f 135 136 167 166
f 136 137 168 167
f 137 138 169 168
f 138 139 170 169
f 139 140 171 170
f 140 141 172 171
f 141 142 173 172
f 142 143 174 173
f 143 144 175 174
f 144 145 176 175
f 145 146 177 176
f 146 147 178 177
f 147 148 179 178
f 148 149 180 179
f 149 150 181 180
f 150 151 182 181
f 151 152 183 182
f 152 153 184 183
f 153 154 185 184
f 154 155 186 185
f 156 157 188 187
f 157 158 189 188
f 158 159 190 189
f 159 160 191 190
f 160 161 192 191
f 161 162 193 192
f 162 163 194 193
f 163 164 195 194
f 164 165 196 195
f 165 166 197 196
f 166 167 198 197
f 167 168 199 198
f 168 169 200 199
f 169 170 201 200
f 170 171 202 201
f 171 172 203 202
f 172 173 204 203
f 173 174 205 204
f 174 175 206 205
f 175 176 207 206
f 176 177 208 207
f 177 178 209 208
f 178 179 210 209
f 179 180 211 210
f 180 181 212 211
f 181 182 213 212
f 182 183 214 213
f 183 184 215 214
f 184 185 216 215
f 185 186 217 216
f 187 188 219 218
f 188 189 220 219
f 189 190 221 220
f 190 191 222 221
f 191 192 223 222
f 192 193 224 223
f 193 194 225 224
f 194 195 226 225
f 195 196 227 226
f 196 197 228 227
f 197 198 229 228
f 198 199 230 229
f 199 200 231 230
f 200 201 232 231
f 201 202 233 232
f 202 203 234 233
f 203 204 235 234
f 204 205 236 235
f 205 206 237 236
f 206 207 238 237
f 207 208 239 238
f 208 209 240 239
f 209 210 241 240
f 210 211 242 241
f 211 212 243 242
f 212 213 244 243
f 213 214 245 244
f 214 215 246 245
f 215 216 247 246
f 216 217 248 247
f 218 219 250 249
f 219 220 251 250
f 220 221 252 251
f 221 222 253 252
f 222 223 254 253
f 223 224 255 254
f 224 225 256 255
f 225 226 257 256
f 226 227 258 257
f 227 228 259 258
f 228 229 260 259
f 229 230 261 260
f 230 231 262 261
f 231 232 263 262
f 232 233 264 263
f 233 234 265 264
f 234 235 266 265
f 235 236 267 266
f 236 237 268 267
f 237 238 269 268
f 238 239 270 269
f 239 240 271 270
f 240 241 272 271
f 241 242 273 272
f 242 243 274 273
f 243 244 275 274
f 244 245 276 275
f 245 246 277 276
f 246 247 278 277
f 247 248 279 278
f 249 250 281 280
f 250 251 282 281
f 251 252 283 282
f 252 253 284 283
f 253 254 285 284
f 254 255 286 285
f 255 256 287 286
f 256 257 288 287
f 257 258 289 288
f 258 259 290 289
f 259 260 291 290
f 260 261 292 291
f 261 262 293 292
f 262 263 294 293
f 263 264 295 294
f 264 265 296 295
f 265 266 297 296
f 266 267 298 297
f 267 268 299 298
f 268 269 300 299
f 269 270 301 300
f 270 271 302 301
f 271 272 303 302
f 272 273 304 303
f 273 274 305 304
f 274 275 306 305
f 275 276 307 306
f 276 277 308 307
f 277 278 309 308
f 278 279 310 309
f 280 281 312 311
f 281 282 313 312
f 282 283 314 313
f 283 284 315 314
f 284 285 316 315
f 285 286 317 316
f 286 287 318 317
f 287 288 319 318
f 288 289 320 319
f 289 290 321 320
f 290 291 322 321
f 291 292 323 322
f 292 293 324 323
f 293 294 325 324
f 294 295 326 325
f 295 296 327 326
f 296 297 328 327
f 297 298 329 328
f 298 299 330 329
f 299 300 331 330
f 300 301 332 331
f 301 302 333 332
f 302 303 334 333
f 303 304 335 334
f 304 305 336 335
f 305 306 337 336
f 306 307 338 337
f 307 308 339 338
f 308 309 340 339
f 309 310 341 340
f 311 312 343 342
f 312 313 344 343
f 313 314 345 344
f 314 315 346 345
f 315 316 347 346
f 316 317 348 347
f 317 318 349 348
f 318 319 350 349
f 319 320 351 350
f 320 321 352 351
f 321 322 353 352
f 322 323 354 353
f 323 324 355 354
f 324 325 356 355
f 325 326 357 356
f 326 327 358 357
f 327 328 359 358
f 328 329 360 359
f 329 330 361 360
f 330 331 362 361
f 331 332 363 362
f 332 333 364 363
f 333 334 365 364
f 334 335 366 365
f 335 336 367 366
f 336 337 368 367
f 337 338 369 368
f 338 339 370 369
f 339 340 371 370
f 340 341 372 371
f 342 343 374 373
f 343 344 375 374
f 344 345 376 375
f 345 346 377 376
f 346 347 378 377
f 347 348 379 378
f 348 349 380 379
f 349 350 381 380
f 350 351 382 381
f 351 352 383 382
f 352 353 384 383
f 353 354 385 384
f 354 355 386 385
f 355 356 387 386
f 356 357 388 387
f 357 358 389 388
f 358 359 390 389
f 359 360 391 390
f 360 361 392 391
f 361 362 393 392
f 362 363 394 393
f 363 364 395 394
f 364 365 396 395
f 365 366 397 396
f 366 367 398 397
f 367 368 399 398
f 368 369 400 399
f 369 370 401 400
f 370 371 402 401
f 371 372 403 402
f 373 374 405 404
f 374 375 406 405
f 375 376 407 406
f 376 377 408 407
f 377 378 409 408
f 378 379 410 409
f 379 380 411 410
f 380 381 412 411
f 381 382 413 412
f 382 383 414 413
f 383 384 415 414
f 384 385 416 415
f 385 386 417 416
f 386 387 418 417
f 387 388 419 418
f 388 389 420 419
f 389 390 421 420
f 390 391 422 421
f 391 392 423 422
f 392 393 424 423
f 393 394 425 424
f 394 395 426 425
f 395 396 427 426
f 396 397 428 427
f 397 398 429 428
f 398 399 430 429
f 399 400 431 430
f 400 401 432 431
f 401 402 433 432
f 402 403 434 433
f 404 405 436 435
f 405 406 437 436
f 406 407 438 437
f 407 408 439 438
f 408 409 440 439
f 409 410 441 440
f 410 411 442 441
f 411 412 443 442
f 412 413 444 443
f 413 414 445 444
f 414 415 446 445
f 415 416 447 446
f 416 417 448 447
f 417 418 449 448
f 418 419 450 449
f 419 420 451 450
f 420 421 452 451
f 421 422 453 452
f 422 423 454 453
f 423 424 455 454
f 424 425 456 455
f 425 426 457 456
f 426 427 458 457
f 427 428 459 458
f 428 429 460 459
f 429 430 461 460
f 430 431 462 461
f 431 432 463 462
f 432 433 464 463
f 433 434 465 464
f 435 436 467 466
f 436 437 468 467
f 437 438 469 468
f 438 439 470 469
f 439 440 471 470
f 440 441 472 471
f 441 442 473 472
f 442 443 474 473
f 443 444 475 474
f 444 445 476 475
f 445 446 477 476
f 446 447 478 477
f 447 448 479 478
f 448 449 480 479
f 449 450 481 480
f 450 451 482 481
f 451 452 483 482
f 452 453 484 483
f 453 454 485 484
f 454 455 486 485
f 455 456 487 486
f 456 457 488 487
f 457 458 489 488
f 458 459 490 489
f 459 460 491 490
f 460 461 492 491
f 461 462 493 492
f 462 463 494 493
f 463 464 495 494
f 464 465 496 495
f 466 467 498 497
f 467 468 499 498
f 468 469 500 499
f 469 470 501 500
f 470 471 502 501
f 471 472 503 502
f 472 473 504 503
f 473 474 505 504
f 474 475 506 505
f 475 476 507 506
f 476 477 508 507
f 477 478 509 508
f 478 479 510 509
f 479 480 511 510
f 480 481 512 511
f 481 482 513 512
f 482 483 514 513
f 483 484 515 514
f 484 485 516 515
f 485 486 517 516
f 486 487 518 517
f 487 488 519 518
f 488 489 520 519
f 489 490 521 520
f 490 491 522 521
f 491 492 523 522
f 492 493 524 523
f 493 494 525 524
f 494 495 526 525
f 495 496 527 526
f 497 498 529 528
f 498 499 530 529
f 499 500 531 530
f 500 501 532 531
f 501 502 533 532
f 502 503 534 533
f 503 504 535 534
f 504 505 536 535
f 505 506 537 536
f 506 507 538 537
f 507 508 539 538
f 508 509 540 539
f 509 510 541 540
f 510 511 542 541
f 511 512 543 542
f 512 513 544 543
f 513 514 545 544
f 514 515 546 545
f 515 516 547 546
f 516 517 548 547
f 517 518 549 548
f 518 519 550 549
f 519 520 551 550
f 520 521 552 551
f 521 522 553 552
f 522 523 554 553
f 523 524 555 554
f 524 525 556 555
f 525 526 557 556
f 526 527 558 557
f 528 529 560 559
f 529 530 561 560
f 530 531 562 561
f 531 532 563 562
f 532 533 564 563
f 533 534 565 564
f 534 535 566 565
f 535 536 567 566
f 536 537 568 567
f 537 538 569 568
f 538 539 570 569
f 539 540 571 570
f 540 541 572 571
f 541 542 573 572
f 542 543 574 573
f 543 544 575 574
f 544 545 576 575
f 545 546 577 576
f 546 547 578 577
f 547 548 579 578
f 548 549 580 579
f 549 550 581 580
f 550 551 582 581
f 551 552 583 582
f 552 553 584 583
f 553 554 585 584
f 554 555 586 585
f 555 556 587 586
f 556 557 588 587
f 557 558 589 588
f 559 560 591 590
f 560 561 592 591
f 561 562 593 592
f 562 563 594 593
f 563 564 595 594
f 564 565 596 595
f 565 566 597 596
f 566 567 598 597
f 567 568 599 598
f 568 569 600 599
f 569 570 601 600
f 570 571 602 601
f 571 572 603 602
f 572 573 604 603
f 573 574 605 604
f 574 575 606 605
f 575 576 607 606
f 576 577 608 607
f 577 578 609 608
f 578 579 610 609
f 579 580 611 610
f 580 581 612 611
f 581 582 613 612
f 582 583 614 613
f 583 584 615 614
f 584 585 616 615
f 585 586 617 616
f 586 587 618 617
f 587 588 619 618
f 588 589 620 619
f 590 591 622 621
f 591 592 623 622
f 592 593 624 623
f 593 594 625 624
f 594 595 626 625
f 595 596 627 626
f 596 597 628 627
f 597 598 629 628
f 598 599 630 629
f 599 600 631 630
f 600 601 632 631
f 601 602 633 632
f 602 603 634 633
f 603 604 635 634
f 604 605 636 635
f 605 606 637 636
f 606 607 638 637
f 607 608 639 638
f 608 609 640 639
f 609 610 641 640
f 610 611 642 641
f 611 612 643 642
f 612 613 644 643
f 613 614 645 644
f 614 615 646 645
f 615 616 647 646
f 616 617 648 647
f 617 618 649 648
f 618 619 650 649
f 619 620 651 650
f 621 622 653 652
f 622 623 654 653
f 623 624 655 654
f 624 625 656 655
f 625 626 657 656
f 626 627 658 657
f 627 628 659 658
f 628 629 660 659
f 629 630 661 660
f 630 631 662 661
f 631 632 663 662
f 632 633 664 663
f 633 634 665 664
f 634 635 666 665
f 635 636 667 666
f 636 637 668 667
f 637 638 669 668
f 638 639 670 669
f 639 640 671 670
f 640 641 672 671
f 641 642 673 672
f 642 643 674 673
f 643 644 675 674
f 644 645 676 675
f 645 646 677 676
f 646 647 678 677
f 647 648 679 678
f 648 649 680 679
f 649 650 681 680
f 650 651 682 681
f 652 653 684 683
f 653 654 685 684
f 654 655 686 685
f 655 656 687 686
f 656 657 688 687
f 657 658 689 688
f 658 659 690 689
f 659 660 691 690
f 660 661 692 691
f 661 662 693 692
f 662 663 694 693
f 663 664 695 694
f 664 665 696 695
f 665 666 697 696
f 666 667 698 697
f 667 668 699 698
f 668 669 700 699
f 669 670 701 700
f 670 671 702 701
f 671 672 703 702
f 672 673 704 703
f 673 674 705 704
f 674 675 706 705
f 675 676 707 706
f 676 677 708 707
f 677 678 709 708
f 678 679 710 709
f 679 680 711 710
f 680 681 712 711
f 681 682 713 712
f 683 684 715 714
f 684 685 716 715
f 685 686 717 716
f 686 687 718 717
f 687 688 719 718
f 688 689 720 719
f 689 690 721 720
f 690 691 722 721
f 691 692 723 722
f 692 693 724 723
f 693 694 725 724
f 694 695 726 725
f 695 696 727 726
f 696 697 728 727
f 697 698 729 728
f 698 699 730 729
f 699 700 731 730
f 700 701 732 731
f 701 702 733 732
f 702 703 734 733
f 703 704 735 734
f 704 705 736 735
f 705 706 737 736
f 706 707 738 737
f 707 708 739 738
f 708 709 740 739
f 709 710 741 740
f 710 711 742 741
f 711 712 743 742
f 712 713 744 743
f 714 715 746 745
f 715 716 747 746
f 716 717 748 747
f 717 718 749 748
f 718 719 750 749
f 719 720 751 750
f 720 721 752 751
f 721 722 753 752
f 722 723 754 753
f 723 724 755 754
f 724 725 756 755
f 725 726 757 756
f 726 727 758 757
f 727 728 759 758
f 728 729 760 759
f 729 730 761 760
f 730 731 762 761
f 731 732 763 762
f 732 733 764 763
f 733 734 765 764
f 734 735 766 765
f 735 736 767 766
f 736 737 768 767
f 737 738 769 768
f 738 739 770 769
f 739 740 771 770
f 740 741 772 771
f 741 742 773 772
f 742 743 774 773
f 743 744 775 774
f 745 746 777 776
f 746 747 778 777
f 747 748 779 778
f 748 749 780 779
f 749 750 781 780
f 750 751 782 781
f 751 752 783 782
f 752 753 784 783
f 753 754 785 784
f 754 755 786 785
f 755 756 787 786
f 756 757 788 787
f 757 758 789 788
f 758 759 790 789
f 759 760 791 790
f 760 761 792 791
f 761 762 793 792
f 762 763 794 793
f 763 764 795 794
f 764 765 796 795
f 765 766 797 796
f 766 767 798 797
f 767 768 799 798
f 768 769 800 799
f 769 770 801 800
f 770 771 802 801
f 771 772 803 802
f 772 773 804 803
f 773 774 805 804
f 774 775 806 805
f 776 777 808 807
f 777 778 809 808
f 778 779 810 809
f 779 780 811 810
f 780 781 812 811
f 781 782 813 812
f 782 783 814 813
f 783 784 815 814
f 784 785 816 815
f 785 786 817 816
f 786 787 818 817
f 787 788 819 818
f 788 789 820 819
f 789 790 821 820
f 790 791 822 821
f 791 792 823 822
f 792 793 824 823
f 793 794 825 824
f 794 795 826 825
f 795 796 827 826
f 796 797 828 827
f 797 798 829 828
f 798 799 830 829
f 799 800 831 830
f 800 801 832 831
f 801 802 833 832
f 802 803 834 833
f 803 804 835 834
f 804 805 836 835
f 805 806 837 836
f 807 808 839 838
f 808 809 840 839
f 809 810 841 840
f 810 811 842 841
f 811 812 843 842
f 812 813 844 843
f 813 814 845 844
f 814 815 846 845
f 815 816 847 846
f 816 817 848 847
f 817 818 849 848
f 818 819 850 849
f 819 820 851 850
f 820 821 852 851
f 821 822 853 852
f 822 823 854 853
f 823 824 855 854
f 824 825 856 855
f 825 826 857 856
f 826 827 858 857
f 827 828 859 858
f 828 829 860 859
f 829 830 861 860
f 830 831 862 861
f 831 832 863 862
f 832 833 864 863
f 833 834 865 864
f 834 835 866 865
f 835 836 867 866
f 836 837 868 867
f 838 839 870 869
f 839 840 871 870
f 840 841 872 871
f 841 842 873 872
f 842 843 874 873
f 843 844 875 874
f 844 845 876 875
f 845 846 877 876
f 846 847 878 877
f 847 848 879 878
f 848 849 880 879
f 849 850 881 880
f 850 851 882 881
f 851 852 883 882
f 852 853 884 883
f 853 854 885 884
f 854 855 886 885
f 855 856 887 886
f 856 857 888 887
f 857 858 889 888
f 858 859 890 889
f 859 860 891 890
f 860 861 892 891
f 861 862 893 892
f 862 863 894 893
f 863 864 895 894
f 864 865 896 895
f 865 866 897 896
f 866 867 898 897
f 867 868 899 898
f 869 870 901 900
f 870 871 902 901
f 871 872 903 902
f 872 873 904 903
f 873 874 905 904
f 874 875 906 905
f 875 876 907 906
f 876 877 908 907
f 877 878 909 908
f 878 879 910 909
f 879 880 911 910
f 880 881 912 911
f 881 882 913 912
f 882 883 914 913
f 883 884 915 914
f 884 885 916 915
f 885 886 917 916
f 886 887 918 917
f 887 888 919 918
f 888 889 920 919
f 889 890 921 920
f 890 891 922 921
f 891 892 923 922
f 892 893 924 923
f 893 894 925 924
f 894 895 926 925
f 895 896 927 926
f 896 897 928 927
f 897 898 929 928
f 898 899 930 929
f 900 901 932 931
f 901 902 933 932
f 902 903 934 933
f 903 904 935 934
f 904 905 936 935
f 905 906 937 936
f 906 907 938 937
f 907 908 939 938
f 908 909 940 939
f 909 910 941 940
f 910 911 942 941
f 911 912 943 942
f 912 913 944 943
f 913 914 945 944
f 914 915 946 945
f 915 916 947 946
f 916 917 948 947
f 917 918 949 948
f 918 919 950 949
f 919 920 951 950
f 920 921 952 951
f 921 922 953 952
f 922 923 954 953
f 923 924 955 954
f 924 925 956 955
f 925 926 957 956
f 926 927 958 957
f 927 928 959 958
f 928 929 960 959
f 929 930 961 960
f 931 932 963 962
f 932 933 964 963
f 933 934 965 964
f 934 935 966 965
f 935 936 967 966
f 936 937 968 967
f 937 938 969 968
f 938 939 970 969
f 939 940 971 970
f 940 941 972 971
f 941 942 973 972
f 942 943 974 973
f 943 944 975 974
f 944 945 976 975
f 945 946 977 976
f 946 947 978 977
f 947 948 979 978
f 948 949 980 979
f 949 950 981 980
f 950 951 982 981
f 951 952 983 982
f 952 953 984 983
f 953 954 985 984
f 954 955 986 985
f 955 956 987 986
f 956 957 988 987
f 957 958 989 988
f 958 959 990 989
f 959 960 991 990
f 960 961 992 991
f 962 963 994 993
f 963 964 995 994
f 964 965 996 995
f 965 966 997 996
f 966 967 998 997
f 967 968 999 998
f 968 969 1000 999
f 969 970 1001 1000
f 970 971 1002 1001
f 971 972 1003 1002
f 972 973 1004 1003
f 973 974 1005 1004
f 974 975 1006 1005
f 975 976 1007 1006
f 976 977 1008 1007
f 977 978 1009 1008
f 978 979 1010 1009
f 979 980 1011 1010
f 980 981 1012 1011
f 981 982 1013 1012
f 982 983 1014 1013
f 983 984 1015 1014
f 984 985 1016 1015
f 985 986 1017 1016
f 986 987 1018 1017
f 987 988 1019 1018
f 988 989 1020 1019
f 989 990 1021 1020
f 990 991 1022 1021
f 991 992 1023 1022
f 993 994 1025 1024
f 994 995 1026 1025
f 995 996 1027 1026
f 996 997 1028 1027
f 997 998 1029 1028
f 998 999 1030 1029
f 999 1000 1031 1030
f 1000 1001 1032 1031
f 1001 1002 1033 1032
f 1002 1003 1034 1033
f 1003 1004 1035 1034
f 1004 1005 1036 1035
f 1005 1006 1037 1036
f 1006 1007 1038 1037
f 1007 1008 1039 1038
f 1008 1009 1040 1039
f 1009 1010 1041 1040
f 1010 1011 1042 1041
f 1011 1012 1043 1042
f 1012 1013 1044 1043
f 1013 1014 1045 1044
f 1014 1015 1046 1045
f 1015 1016 1047 1046
f 1016 1017 1048 1047
f 1017 1018 1049 1048
f 1018 1019 1050 1049
f 1019 1020 1051 1050
f 1020 1021 1052 1051
f 1021 1022 1053 1052
f 1022 1023 1054 1053
f 1024 1025 1056 1055
f 1025 1026 1057 1056
f 1026 1027 1058 1057
f 1027 1028 1059 1058
f 1028 1029 1060 1059
f 1029 1030 1061 1060
f 1030 1031 1062 1061
f 1031 1032 1063 1062
f 1032 1033 1064 1063
f 1033 1034 1065 1064
f 1034 1035 1066 1065
f 1035 1036 1067 1066
f 1036 1037 1068 1067
f 1037 1038 1069 1068
f 1038 1039 1070 1069
f 1039 1040 1071 1070
f 1040 1041 1072 1071
f 1041 1042 1073 1072
f 1042 1043 1074 1073
f 1043 1044 1075 1074
f 1044 1045 1076 1075
f 1045 1046 1077 1076
f 1046 1047 1078 1077
f 1047 1048 1079 1078
f 1048 1049 1080 1079
f 1049 1050 1081 1080
f 1050 1051 1082 1081
f 1051 1052 1083 1082
f 1052 1053 1084 1083
f 1053 1054 1085 1084
f 1055 1056 1087 1086
f 1056 1057 1088 1087
f 1057 1058 1089 1088
f 1058 1059 1090 1089
f 1059 1060 1091 1090
f 1060 1061 1092 1091
f 1061 1062 1093 1092
f 1062 1063 1094 1093
f 1063 1064 1095 1094
f 1064 1065 1096 1095
f 1065 1066 1097 1096
f 1066 1067 1098 1097
f 1067 1068 1099 1098
f 1068 1069 1100 1099
f 1069 1070 1101 1100
f 1070 1071 1102 1101
f 1071 1072 1103 1102
f 1072 1073 1104 1103
f 1073 1074 1105 1104
f 1074 1075 1106 1105
f 1075 1076 1107 1106
f 1076 1077 1108 1107
f 1077 1078 1109 1108
f 1078 1079 1110 1109
f 1079 1080 1111 1110
f 1080 1081 1112 1111
f 1081 1082 1113 1112
f 1082 1083 1114 1113
f 1083 1084 1115 1114
f 1084 1085 1116 1115
f 1086 1087 1118 1117
f 1087 1088 1119 1118
f 1088 1089 1120 1119
f 1089 1090 1121 1120
f 1090 1091 1122 1121
f 1091 1092 1123 1122
f 1092 1093 1124 1123
f 1093 1094 1125 1124
f 1094 1095 1126 1125
f 1095 1096 1127 1126
f 1096 1097 1128 1127
f 1097 1098 1129 1128
f 1098 1099 1130 1129
f 1099 1100 1131 1130
f 1100 1101 1132 1131
f 1101 1102 1133 1132
f 1102 1103 1134 1133
f 1103 1104 1135 1134
f 1104 1105 1136 1135
f 1105 1106 1137 1136
f 1106 1107 1138 1137
f 1107 1108 1139 1138
f 1108 1109 1140 1139
f 1109 1110 1141 1140
f 1110 1111 1142 1141
f 1111 1112 1143 1142
f 1112 1113 1144 1143
f 1113 1114 1145 1144
f 1114 1115 1146 1145
f 1115 1116 1147 1146
f 1117 1118 1149 1148
f 1118 1119 1150 1149
f 1119 1120 1151 1150
f 1120 1121 1152 1151
f 1121 1122 1153 1152
f 1122 1123 1154 1153
f 1123 1124 1155 1154
f 1124 1125 1156 1155
f 1125 1126 1157 1156
f 1126 1127 1158 1157
f 1127 1128 1159 1158
f 1128 1129 1160 1159
f 1129 1130 1161 1160
f 1130 1131 1162 1161
f 1131 1132 1163 1162
f 1132 1133 1164 1163
f 1133 1134 1165 1164
f 1134 1135 1166 1165
f 1135 1136 1167 1166
f 1136 1137 1168 1167
f 1137 1138 1169 1168
f 1138 1139 1170 1169
f 1139 1140 1171 1170
f 1140 1141 1172 1171
f 1141 1142 1173 1172
f 1142 1143 1174 1173
f 1143 1144 1175 1174
f 1144 1145 1176 1175
f 1145 1146 1177 1176
f 1146 1147 1178 1177
f 1148 1149 1180 1179
f 1149 1150 1181 1180
f 1150 1151 1182 1181
f 1151 1152 1183 1182
f 1152 1153 1184 1183
f 1153 1154 1185 1184
f 1154 1155 1186 1185
f 1155 1156 1187 1186
f 1156 1157 1188 1187
f 1157 1158 1189 1188
f 1158 1159 1190 1189
f 1159 1160 1191 1190
f 1160 1161 1192 1191
f 1161 1162 1193 1192
f 1162 1163 1194 1193
f 1163 1164 1195 1194
f 1164 1165 1196 1195
f 1165 1166 1197 1196
f 1166 1167 1198 1197
f 1167 1168 1199 1198
f 1168 1169 1200 1199
f 1169 1170 1201 1200
f 1170 1171 1202 1201
f 1171 1172 1203 1202
f 1172 1173 1204 1203
f 1173 1174 1205 1204
f 1174 1175 1206 1205
f 1175 1176 1207 1206
f 1176 1177 1208 1207
f 1177 1178 1209 1208
f 1179 1180 1211 1210
f 1180 1181 1212 1211
f 1181 1182 1213 1212
f 1182 1183 1214 1213
f 1183 1184 1215 1214
f 1184 1185 1216 1215
f 1185 1186 1217 1216
f 1186 1187 1218 1217
f 1187 1188 1219 1218
f 1188 1189 1220 1219
f 1189 1190 1221 1220
f 1190 1191 1222 1221
f 1191 1192 1223 1222
f 1192 1193 1224 1223
f 1193 1194 1225 1224
f 1194 1195 1226 1225
f 1195 1196 1227 1226
f 1196 1197 1228 1227
f 1197 1198 1229 1228
f 1198 1199 1230 1229
f 1199 1200 1231 1230
f 1200 1201 1232 1231
f 1201 1202 1233 1232
f 1202 1203 1234 1233
f 1203 1204 1235 1234
f 1204 1205 1236 1235
f 1205 1206 1237 1236
f 1206 1207 1238 1237
f 1207 1208 1239 1238
f 1208 1209 1240 1239
f 1210 1211 1242 1241
f 1211 1212 1243 1242
f 1212 1213 1244 1243
f 1213 1214 1245 1244
f 1214 1215 1246 1245
f 1215 1216 1247 1246
f 1216 1217 1248 1247
f 1217 1218 1249 1248
f 1218 1219 1250 1249
f 1219 1220 1251 1250
f 1220 1221 1252 1251
f 1221 1222 1253 1252
f 1222 1223 1254 1253
f 1223 1224 1255 1254
f 1224 1225 1256 1255
f 1225 1226 1257 1256
f 1226 1227 1258 1257
f 1227 1228 1259 1258
f 1228 1229 1260 1259
f 1229 1230 1261 1260
f 1230 1231 1262 1261
f 1231 1232 1263 1262
f 1232 1233 1264 1263
f 1233 1234 1265 1264
f 1234 1235 1266 1265
f 1235 1236 1267 1266
f 1236 1237 1268 1267
f 1237 1238 1269 1268
f 1238 1239 1270 1269
f 1239 1240 1271 1270
f 1241 1242 1273 1272
f 1242 1243 1274 1273
f 1243 1244 1275 1274
f 1244 1245 1276 1275
f 1245 1246 1277 1276
f 1246 1247 1278 1277
f 1247 1248 1279 1278
f 1248 1249 1280 1279
f 1249 1250 1281 1280
f 1250 1251 1282 1281
f 1251 1252 1283 1282
f 1252 1253 1284 1283
f 1253 1254 1285 1284
f 1254 1255 1286 1285
f 1255 1256 1287 1286
f 1256 1257 1288 1287
f 1257 1258 1289 1288
f 1258 1259 1290 1289
f 1259 1260 1291 1290
f 1260 1261 1292 1291
f 1261 1262 1293 1292
f 1262 1263 1294 1293
f 1263 1264 1295 1294
f 1264 1265 1296 1295
f 1265 1266 1297 1296
f 1266 1267 1298 1297
f 1267 1268 1299 1298
f 1268 1269 1300 1299
f 1269 1270 1301 1300
f 1270 1271 1302 1301
f 1272 1273 1304 1303
f 1273 1274 1305 1304
f 1274 1275 1306 1305
f 1275 1276 1307 1306
f 1276 1277 1308 1307
f 1277 1278 1309 1308
f 1278 1279 1310 1309
f 1279 1280 1311 1310
f 1280 1281 1312 1311
f 1281 1282 1313 1312
f 1282 1283 1314 1313
f 1283 1284 1315 1314
f 1284 1285 1316 1315
f 1285 1286 1317 1316
f 1286 1287 1318 1317
f 1287 1288 1319 1318
f 1288 1289 1320 1319
f 1289 1290 1321 1320
f 1290 1291 1322 1321
f 1291 1292 1323 1322
f 1292 1293 1324 1323
f 1293 1294 1325 1324
f 1294 1295 1326 1325
f 1295 1296 1327 1326
f 1296 1297 1328 1327
f 1297 1298 1329 1328
f 1298 1299 1330 1329
f 1299 1300 1331 1330
f 1300 1301 1332 1331
f 1301 1302 1333 1332
f 1303 1304 1335 1334
f 1304 1305 1336 1335
f 1305 1306 1337 1336
f 1306 1307 1338 1337
f 1307 1308 1339 1338
f 1308 1309 1340 1339
f 1309 1310 1341 1340
f 1310 1311 1342 1341
f 1311 1312 1343 1342
f 1312 1313 1344 1343
f 1313 1314 1345 1344
f 1314 1315 1346 1345
f 1315 1316 1347 1346
f 1316 1317 1348 1347
f 1317 1318 1349 1348
f 1318 1319 1350 1349
f 1319 1320 1351 1350
f 1320 1321 1352 1351
f 1321 1322 1353 1352
f 1322 1323 1354 1353
f 1323 1324 1355 1354
f 1324 1325 1356 1355
f 1325 1326 1357 1356
f 1326 1327 1358 1357
f 1327 1328 1359 1358
f 1328 1329 1360 1359
f 1329 1330 1361 1360
f 1330 1331 1362 1361
f 1331 1332 1363 1362
f 1332 1333 1364 1363
f 1334 1335 1366 1365
f 1335 1336 1367 1366
f 1336 1337 1368 1367
f 1337 1338 1369 1368
f 1338 1339 1370 1369
f 1339 1340 1371 1370
f 1340 1341 1372 1371
f 1341 1342 1373 1372
f 1342 1343 1374 1373
f 1343 1344 1375 1374
f 1344 1345 1376 1375
f 1345 1346 1377 1376
f 1346 1347 1378 1377
f 1347 1348 1379 1378
f 1348 1349 1380 1379
f 1349 1350 1381 1380
f 1350 1351 1382 1381
f 1351 1352 1383 1382
f 1352 1353 1384 1383
f 1353 1354 1385 1384
f 1354 1355 1386 1385
f 1355 1356 1387 1386
f 1356 1357 1388 1387
f 1357 1358 1389 1388
f 1358 1359 1390 1389
f 1359 1360 1391 1390
f 1360 1361 1392 1391
f 1361 1362 1393 1392
f 1362 1363 1394 1393
f 1363 1364 1395 1394
f 1365 1366 1397 1396
f 1366 1367 1398 1397
f 1367 1368 1399 1398
f 1368 1369 1400 1399
f 1369 1370 1401 1400
f 1370 1371 1402 1401
f 1371 1372 1403 1402
f 1372 1373 1404 1403
f 1373 1374 1405 1404
f 1374 1375 1406 1405
f 1375 1376 1407 1406
f 1376 1377 1408 1407
f 1377 1378 1409 1408
f 1378 1379 1410 1409
f 1379 1380 1411 1410
f 1380 1381 1412 1411
f 1381 1382 1413 1412
f 1382 1383 1414 1413
f 1383 1384 1415 1414
f 1384 1385 1416 1415
f 1385 1386 1417 1416
f 1386 1387 1418 1417
f 1387 1388 1419 1418
f 1388 1389 1420 1419
f 1389 1390 1421 1420
f 1390 1391 1422 1421
f 1391 1392 1423 1422
f 1392 1393 1424 1423
f 1393 1394 1425 1424
f 1394 1395 1426 1425
f 1396 1397 1428 1427
f 1397 1398 1429 1428
f 1398 1399 1430 1429
f 1399 1400 1431 1430
f 1400 1401 1432 1431
f 1401 1402 1433 1432
f 1402 1403 1434 1433
f 1403 1404 1435 1434
f 1404 1405 1436 1435
f 1405 1406 1437 1436
f 1406 1407 1438 1437
f 1407 1408 1439 1438
f 1408 1409 1440 1439
f 1409 1410 1441 1440
f 1410 1411 1442 1441
f 1411 1412 1443 1442
f 1412 1413 1444 1443
f 1413 1414 1445 1444
f 1414 1415 1446 1445
f 1415 1416 1447 1446
f 1416 1417 1448 1447
f 1417 1418 1449 1448
f 1418 1419 1450 1449
f 1419 1420 1451 1450
f 1420 1421 1452 1451
f 1421 1422 1453 1452
f 1422 1423 1454 1453
f 1423 1424 1455 1454
f 1424 1425 1456 1455
f 1425 1426 1457 1456
f 1427 1428 1459 1458
f 1428 1429 1460 1459
f 1429 1430 1461 1460
f 1430 1431 1462 1461
f 1431 1432 1463 1462
f 1432 1433 1464 1463
f 1433 1434 1465 1464
f 1434 1435 1466 1465
f 1435 1436 1467 1466
f 1436 1437 1468 1467
f 1437 1438 1469 1468
f 1438 1439 1470 1469
f 1439 1440 1471 1470
f 1440 1441 1472 1471
f 1441 1442 1473 1472
f 1442 1443 1474 1473
f 1443 1444 1475 1474
f 1444 1445 1476 1475
f 1445 1446 1477 1476
f 1446 1447 1478 1477
f 1447 1448 1479 1478
f 1448 1449 1480 1479
f 1449 1450 1481 1480
f 1450 1451 1482 1481
f 1451 1452 1483 1482
f 1452 1453 1484 1483
f 1453 1454 1485 1484
f 1454 1455 1486 1485
f 1455 1456 1487 1486
f 1456 1457 1488 1487
f 1458 1459 1490 1489
f 1459 1460 1491 1490
f 1460 1461 1492 1491
f 1461 1462 1493 1492
f 1462 1463 1494 1493
f 1463 1464 1495 1494
f 1464 1465 1496 1495
f 1465 1466 1497 1496
f 1466 1467 1498 1497
f 1467 1468 1499 1498
f 1468 1469 1500 1499
f 1469 1470 1501 1500
f 1470 1471 1502 1501
f 1471 1472 1503 1502
f 1472 1473 1504 1503
f 1473 1474 1505 1504
f 1474 1475 1506 1505
f 1475 1476 1507 1506
f 1476 1477 1508 1507
f 1477 1478 1509 1508
f 1478 1479 1510 1509
f 1479 1480 1511 1510
f 1480 1481 1512 1511
f 1481 1482 1513 1512
f 1482 1483 1514 1513
f 1483 1484 1515 1514
f 1484 1485 1516 1515
f 1485 1486 1517 1516
f 1486 1487 1518 1517
f 1487 1488 1519 1518
f 1489 1490 1521 1520
f 1490 1491 1522 1521
f 1491 1492 1523 1522
f 1492 1493 1524 1523
f 1493 1494 1525 1524
f 1494 1495 1526 1525
f 1495 1496 1527 1526
f 1496 1497 1528 1527
f 1497 1498 1529 1528
f 1498 1499 1530 1529
f 1499 1500 1531 1530
f 1500 1501 1532 1531
f 1501 1502 1533 1532
f 1502 1503 1534 1533
f 1503 1504 1535 1534
f 1504 1505 1536 1535
f 1505 1506 1537 1536
f 1506 1507 1538 1537
f 1507 1508 1539 1538
f 1508 1509 1540 1539
f 1509 1510 1541 1540
f 1510 1511 1542 1541
f 1511 1512 1543 1542
f 1512 1513 1544 1543
f 1513 1514 1545 1544
f 1514 1515 1546 1545
f 1515 1516 1547 1546
f 1516 1517 1548 1547
f 1517 1518 1549 1548
f 1518 1519 1550 1549
f 1520 1521 1552 1551
f 1521 1522 1553 1552
f 1522 1523 1554 1553
f 1523 1524 1555 1554
f 1524 1525 1556 1555
f 1525 1526 1557 1556
f 1526 1527 1558 1557
f 1527 1528 1559 1558
f 1528 1529 1560 1559
f 1529 1530 1561 1560
f 1530 1531 1562 1561
f 1531 1532 1563 1562
f 1532 1533 1564 1563
f 1533 1534 1565 1564
f 1534 1535 1566 1565
f 1535 1536 1567 1566
f 1536 1537 1568 1567
f 1537 1538 1569 1568
f 1538 1539 1570 1569
f 1539 1540 1571 1570
f 1540 1541 1572 1571
f 1541 1542 1573 1572
f 1542 1543 1574 1573
f 1543 1544 1575 1574
f 1544 1545 1576 1575
f 1545 1546 1577 1576
f 1546 1547 1578 1577
f 1547 1548 1579 1578
f 1548 1549 1580 1579
f 1549 1550 1581 1580
f 1551 1552 1583 1582
f 1552 1553 1584 1583
f 1553 1554 1585 1584
f 1554 1555 1586 1585
f 1555 1556 1587 1586
f 1556 1557 1588 1587
f 1557 1558 1589 1588
f 1558 1559 1590 1589
f 1559 1560 1591 1590
f 1560 1561 1592 1591
f 1561 1562 1593 1592
f 1562 1563 1594 1593
f 1563 1564 1595 1594
f 1564 1565 1596 1595
f 1565 1566 1597 1596
f 1566 1567 1598 1597
f 1567 1568 1599 1598
f 1568 1569 1600 1599
f 1569 1570 1601 1600
f 1570 1571 1602 1601
f 1571 1572 1603 1602
f 1572 1573 1604 1603
f 1573 1574 1605 1604
f 1574 1575 1606 1605
f 1575 1576 1607 1606
f 1576 1577 1608 1607
f 1577 1578 1609 1608
f 1578 1579 1610 1609
f 1579 1580 1611 1610
f 1580 1581 1612 1611
f 1582 1583 1614 1613
f 1583 1584 1615 1614
f 1584 1585 1616 1615
f 1585 1586 1617 1616
f 1586 1587 1618 1617
f 1587 1588 1619 1618
f 1588 1589 1620 1619
f 1589 1590 1621 1620
f 1590 1591 1622 1621
f 1591 1592 1623 1622
f 1592 1593 1624 1623
f 1593 1594 1625 1624
f 1594 1595 1626 1625
f 1595 1596 1627 1626
f 1596 1597 1628 1627
f 1597 1598 1629 1628
f 1598 1599 1630 1629
f 1599 1600 1631 1630
f 1600 1601 1632 1631
f 1601 1602 1633 1632
f 1602 1603 1634 1633
f 1603 1604 1635 1634
f 1604 1605 1636 1635
f 1605 1606 1637 1636
f 1606 1607 1638 1637
f 1607 1608 1639 1638
f 1608 1609 1640 1639
f 1609 1610 1641 1640
f 1610 1611 1642 1641
f 1611 1612 1643 1642
f 1613 1614 1645 1644
f 1614 1615 1646 1645
f 1615 1616 1647 1646
f 1616 1617 1648 1647
f 1617 1618 1649 1648
f 1618 1619 1650 1649
f 1619 1620 1651 1650
f 1620 1621 1652 1651
f 1621 1622 1653 1652
f 1622 1623 1654 1653
f 1623 1624 1655 1654
f 1624 1625 1656 1655
f 1625 1626 1657 1656
f 1626 1627 1658 1657
f 1627 1628 1659 1658
f 1628 1629 1660 1659
f 1629 1630 1661 1660
f 1630 1631 1662 1661
f 1631 1632 1663 1662
f 1632 1633 1664 1663
f 1633 1634 1665 1664
f 1634 1635 1666 1665
f 1635 1636 1667 1666
f 1636 1637 1668 1667
f 1637 1638 1669 1668
f 1638 1639 1670 1669
f 1639 1640 1671 1670
f 1640 1641 1672 1671
f 1641 1642 1673 1672
f 1642 1643 1674 1673
f 1644 1645 1676 1675
f 1645 1646 1677 1676
f 1646 1647 1678 1677
f 1647 1648 1679 1678
f 1648 1649 1680 1679
f 1649 1650 1681 1680
f 1650 1651 1682 1681
f 1651 1652 1683 1682
f 1652 1653 1684 1683
f 1653 1654 1685 1684
f 1654 1655 1686 1685
f 1655 1656 1687 1686
f 1656 1657 1688 1687
f 1657 1658 1689 1688
f 1658 1659 1690 1689
f 1659 1660 1691 1690
f 1660 1661 1692 1691
f 1661 1662 1693 1692
f 1662 1663 1694 1693
f 1663 1664 1695 1694
f 1664 1665 1696 1695
f 1665 1666 1697 1696
f 1666 1667 1698 1697
f 1667 1668 1699 1698
f 1668 1669 1700 1699
f 1669 1670 1701 1700
f 1670 1671 1702 1701
f 1671 1672 1703 1702
f 1672 1673 1704 1703
f 1673 1674 1705 1704
f 1675 1676 1707 1706
f 1676 1677 1708 1707
f 1677 1678 1709 1708
f 1678 1679 1710 1709
f 1679 1680 1711 1710
f 1680 1681 1712 1711
f 1681 1682 1713 1712
f 1682 1683 1714 1713
f 1683 1684 1715 1714
f 1684 1685 1716 1715
f 1685 1686 1717 1716
f 1686 1687 1718 1717
f 1687 1688 1719 1718
f 1688 1689 1720 1719
f 1689 1690 1721 1720
f 1690 1691 1722 1721
f 1691 1692 1723 1722
f 1692 1693 1724 1723
f 1693 1694 1725 1724
f 1694 1695 1726 1725
f 1695 1696 1727 1726
f 1696 1697 1728 1727
f 1697 1698 1729 1728
f 1698 1699 1730 1729
f 1699 1700 1731 1730
f 1700 1701 1732 1731
f 1701 1702 1733 1732
f 1702 1703 1734 1733
f 1703 1704 1735 1734
f 1704 1705 1736 1735
f 1706 1707 1738 1737
f 1707 1708 1739 1738
f 1708 1709 1740 1739
f 1709 1710 1741 1740
f 1710 1711 1742 1741
f 1711 1712 1743 1742
f 1712 1713 1744 1743
f 1713 1714 1745 1744
f 1714 1715 1746 1745
f 1715 1716 1747 1746
f 1716 1717 1748 1747
f 1717 1718 1749 1748
f 1718 1719 1750 1749
f 1719 1720 1751 1750
f 1720 1721 1752 1751
f 1721 1722 1753 1752
f 1722 1723 1754 1753
f 1723 1724 1755 1754
f 1724 1725 1756 1755
f 1725 1726 1757 1756
f 1726 1727 1758 1757
f 1727 1728 1759 1758
f 1728 1729 1760 1759
f 1729 1730 1761 1760
f 1730 1731 1762 1761
f 1731 1732 1763 1762
f 1732 1733 1764 1763
f 1733 1734 1765 1764
f 1734 1735 1766 1765
f 1735 1736 1767 1766
f 1737 1738 1769 1768
f 1738 1739 1770 1769
f 1739 1740 1771 1770
f 1740 1741 1772 1771
f 1741 1742 1773 1772
f 1742 1743 1774 1773
f 1743 1744 1775 1774
f 1744 1745 1776 1775
f 1745 1746 1777 1776
f 1746 1747 1778 1777
f 1747 1748 1779 1778
f 1748 1749 1780 1779
f 1749 1750 1781 1780
f 1750 1751 1782 1781
f 1751 1752 1783 1782
f 1752 1753 1784 1783
f 1753 1754 1785 1784
f 1754 1755 1786 1785
f 1755 1756 1787 1786
f 1756 1757 1788 1787
f 1757 1758 1789 1788
f 1758 1759 1790 1789
f 1759 1760 1791 1790
f 1760 1761 1792 1791
f 1761 1762 1793 1792
f 1762 1763 1794 1793
f 1763 1764 1795 1794
f 1764 1765 1796 1795
f 1765 1766 1797 1796
f 1766 1767 1798 1797
f 1768 1769 1800 1799
f 1769 1770 1801 1800
f 1770 1771 1802 1801
f 1771 1772 1803 1802
f 1772 1773 1804 1803
f 1773 1774 1805 1804
f 1774 1775 1806 1805
f 1775 1776 1807 1806
f 1776 1777 1808 1807
f 1777 1778 1809 1808
f 1778 1779 1810 1809
f 1779 1780 1811 1810
f 1780 1781 1812 1811
f 1781 1782 1813 1812
f 1782 1783 1814 1813
f 1783 1784 1815 1814
f 1784 1785 1816 1815
f 1785 1786 1817 1816
f 1786 1787 1818 1817
f 1787 1788 1819 1818
f 1788 1789 1820 1819
f 1789 1790 1821 1820
f 1790 1791 1822 1821
f 1791 1792 1823 1822
f 1792 1793 1824 1823
f 1793 1794 1825 1824
f 1794 1795 1826 1825
f 1795 1796 1827 1826
f 1796 1797 1828 1827
f 1797 1798 1829 1828
f 1799 1800 1831 1830
f 1800 1801 1832 1831
f 1801 1802 1833 1832
f 1802 1803 1834 1833
f 1803 1804 1835 1834
f 1804 1805 1836 1835
f 1805 1806 1837 1836
f 1806 1807 1838 1837
f 1807 1808 1839 1838
f 1808 1809 1840 1839
f 1809 1810 1841 1840
f 1810 1811 1842 1841
f 1811 1812 1843 1842
f 1812 1813 1844 1843
f 1813 1814 1845 1844
f 1814 1815 1846 1845
f 1815 1816 1847 1846
f 1816 1817 1848 1847
f 1817 1818 1849 1848
f 1818 1819 1850 1849
f 1819 1820 1851 1850
f 1820 1821 1852 1851
f 1821 1822 1853 1852
f 1822 1823 1854 1853
f 1823 1824 1855 1854
f 1824 1825 1856 1855
f 1825 1826 1857 1856
f 1826 1827 1858 1857
f 1827 1828 1859 1858
f 1828 1829 1860 1859
f 1830 1831 1862 1861
f 1831 1832 1863 1862
f 1832 1833 1864 1863
f 1833 1834 1865 1864
f 1834 1835 1866 1865
f 1835 1836 1867 1866
f 1836 1837 1868 1867
f 1837 1838 1869 1868
f 1838 1839 1870 1869
f 1839 1840 1871 1870
f 1840 1841 1872 1871
f 1841 1842 1873 1872
f 1842 1843 1874 1873
f 1843 1844 1875 1874
f 1844 1845 1876 1875
f 1845 1846 1877 1876
f 1846 1847 1878 1877
f 1847 1848 1879 1878
f 1848 1849 1880 1879
f 1849 1850 1881 1880
f 1850 1851 1882 1881
f 1851 1852 1883 1882
f 1852 1853 1884 1883
f 1853 1854 1885 1884
f 1854 1855 1886 1885
f 1855 1856 1887 1886
f 1856 1857 1888 1887
f 1857 1858 1889 1888
f 1858 1859 1890 1889
f 1859 1860 1891 1890
