# grid_B, mesh coordinates of D:/code_ws/outputs/2026-09-09/gpr_raw_audit\model\registered\B\grid_lattice.obj
o grid_B
v -4.15671 2.35945 -9.72957
v 1.75448 2.18467 -9.96261
v -4.14414 2.17488 -9.27238
v 1.76705 2.00010 -9.50542
v -4.13158 1.99032 -8.81519
v 1.77961 1.81554 -9.04823
v -4.11901 1.80576 -8.35800
v 1.79218 1.63098 -8.59104
v -4.10644 1.62119 -7.90082
v 1.80475 1.44641 -8.13386
v -4.09388 1.43663 -7.44363
v 1.81731 1.26185 -7.67667
v -4.08131 1.25207 -6.98644
v 1.82988 1.07729 -7.21948
v -4.06874 1.06750 -6.52925
v 1.84245 0.89272 -6.76229
v -4.05617 0.88294 -6.07206
v 1.85501 0.70816 -6.30510
v -4.04361 0.69838 -5.61487
v 1.86758 0.52360 -5.84791
v -4.03104 0.51381 -5.15768
v 1.88015 0.33903 -5.39072
v -4.01847 0.32925 -4.70049
v 1.89271 0.15447 -4.93353
v -4.00591 0.14469 -4.24331
v 1.90528 -0.03009 -4.47635
v -3.99334 -0.03988 -3.78612
v 1.91785 -0.21466 -4.01916
v -3.98077 -0.22444 -3.32893
v 1.93042 -0.39922 -3.56197
v -3.96821 -0.40900 -2.87174
v 1.94298 -0.58378 -3.10478
v -3.95564 -0.59357 -2.41455
v 1.95555 -0.76835 -2.64759
v -3.94307 -0.77813 -1.95736
v 1.96812 -0.95291 -2.19040
v -3.93051 -0.96269 -1.50017
v 1.98068 -1.13747 -1.73321
v -3.91794 -1.14725 -1.04298
v 1.99325 -1.32204 -1.27602
v -4.15671 2.35945 -9.72957
v -3.91794 -1.14725 -1.04298
v -3.66411 2.34488 -9.74899
v -3.42534 -1.16182 -1.06240
v -3.17151 2.33032 -9.76841
v -2.93274 -1.17638 -1.08182
v -2.67891 2.31575 -9.78783
v -2.44014 -1.19095 -1.10124
v -2.18631 2.30119 -9.80725
v -1.94754 -1.20552 -1.12066
v -1.69371 2.28662 -9.82667
v -1.45494 -1.22008 -1.14008
v -1.20112 2.27206 -9.84609
v -0.96234 -1.23465 -1.15950
v -0.70852 2.25749 -9.86551
v -0.46974 -1.24921 -1.17892
v -0.21592 2.24293 -9.88493
v 0.02285 -1.26378 -1.19834
v 0.27668 2.22836 -9.90435
v 0.51545 -1.27834 -1.21776
v 0.76928 2.21380 -9.92377
v 1.00805 -1.29291 -1.23718
v 1.26188 2.19923 -9.94319
v 1.50065 -1.30747 -1.25660
v 1.75448 2.18467 -9.96261
v 1.99325 -1.32204 -1.27602
l 1 2
l 3 4
l 5 6
l 7 8
l 9 10
l 11 12
l 13 14
l 15 16
l 17 18
l 19 20
l 21 22
l 23 24
l 25 26
l 27 28
l 29 30
l 31 32
l 33 34
l 35 36
l 37 38
l 39 40
l 41 42
l 43 44
l 45 46
l 47 48
l 49 50
l 51 52
l 53 54
l 55 56
l 57 58
l 59 60
l 61 62
l 63 64
l 65 66
